<svg xmlns="http://www.w3.org/2000/svg" width="28" height="35" viewBox="0 0 28 35">
    <g fill="none" fill-rule="evenodd">
        <path fill="#16314E" d="M11.57 0c1.852.012 3.624.79 4.796 2.605.697 1.078.455 2.316.455 3.257 0 .246-.094.887-.094.887.091.045.253.16.265.405.04 1.025-.075 1.516-.222 2.275-.118.64-.686.718-.686.718-.027 1.025-.938 2.274-.938 2.274s-.104 1.26.006 1.957c-2.184.79-3.898 2.513-4.626 4.667a10.457 10.457 0 0 0-1.516 5.906c-1.86-.061-3.756-.166-4.83-.291C.581 24.24-.1 22.776.01 21.526c.111-1.232-.1-3.334 2.81-4.542 2.223-.922 4.326-1.991 5.068-2.468.269-.172.083-2.095.083-2.095s-.907-1.25-.936-2.274c0 0-.566-.077-.689-.718-.142-.759-.261-1.25-.218-2.275a.448.448 0 0 1 .266-.405s-.099-.641-.099-.887c0-.94-.242-2.179.455-3.257.587-.91 1.324-1.554 2.144-1.98C9.72.203 10.628.007 11.551 0z"/>
        <circle cx="19.5" cy="23.5" r="8.5" fill="#093956"/>
        <path fill="#FFF" d="M19.5 26.25a2.745 2.745 0 0 1-2.75-2.75 2.751 2.751 0 0 1 2.75-2.757c1.52 0 2.75 1.238 2.75 2.757 0 1.52-1.23 2.75-2.75 2.75zm5.5-1.843v-1.822l-1.251-.178a3.9 3.9 0 0 0-.474-1.148l.756-1.004-1.285-1.293-1.012.757a3.926 3.926 0 0 0-1.148-.475L20.408 18h-1.822l-.179 1.244a3.927 3.927 0 0 0-1.148.475l-1.003-.757-1.293 1.293.756 1.004c-.22.35-.378.735-.474 1.148L14 22.585v1.822l1.245.18c.096.412.254.797.474 1.154l-.756 1.004 1.293 1.286 1.003-.757c.35.22.736.385 1.148.482L18.586 29h1.822l.178-1.244a3.762 3.762 0 0 0 1.148-.482l1.012.757 1.285-1.286-.756-1.01a4.06 4.06 0 0 0 .474-1.149L25 24.407z"/>
    </g>
</svg>
