<?xml version="1.0" encoding="UTF-8"?>
<svg width="30px" height="29px" viewBox="0 0 30 29" version="1.1" xmlns="http://www.w3.org/2000/svg" xmlns:xlink="http://www.w3.org/1999/xlink">
    <title>Icons/question Copy</title>
    <defs>
        <filter color-interpolation-filters="auto" id="filter-1">
            <feColorMatrix in="SourceGraphic" type="matrix" values="0 0 0 0 0.086275 0 0 0 0 0.192157 0 0 0 0 0.305882 0 0 0 1.000000 0"></feColorMatrix>
        </filter>
    </defs>
    <g id="Page-1" stroke="none" stroke-width="1" fill="none" fill-rule="evenodd">
        <g id="V4--cruscotto-AZ1" transform="translate(-234.000000, -110.000000)">
            <g id="Icons/question-Copy" transform="translate(234.000000, 109.000000)" filter="url(#filter-1)">
                <g>
                    <rect id="borders" x="0" y="0" width="30" height="30"></rect>
                    <path d="M23.7420428,1.25 L23.7420151,7.15932091 L23.743579,7.20519891 C23.8038337,9.10036319 23.440969,10.5713342 22.6147722,11.6098913 L22.5893357,11.6415487 C21.7044078,12.7319941 20.3468729,13.2808767 18.6029254,13.2917453 L18.5499603,13.29191 L18.549,13.283 L16.0233319,13.2839547 L16.0233319,11.7859521 L18.6332557,11.7859521 L18.633,11.792 L18.7979241,11.7892904 C19.9305738,11.7462044 20.7217354,11.4016224 21.2436331,10.7585181 C21.8379615,10.0261617 22.1299852,8.85774001 22.0782476,7.24477808 L22.076134,7.1835893 L22.0761062,2.74800266 L12.3028021,2.74800266 C10.7937234,2.74800266 9.71777017,3.09151651 9.02020687,3.75525535 L8.99918435,3.77546664 C8.29622851,4.45833104 7.92340691,5.53117132 7.91602077,7.02428415 L7.91590884,7.06965866 L7.91590884,20 L6.25,20 L6.25,7.06965866 C6.25,5.20599446 6.74675551,3.75832178 7.77664834,2.75786469 C8.80927345,1.75475342 10.3167236,1.25994428 12.2442633,1.25 L23.7420428,1.25 Z M19.5495056,3.74667111 L19.5495056,5.16393036 C16.21574,5.16393036 13.3993664,7.15587847 12.4920548,9.88837073 L15.2736729,9.88848202 L15.2736729,11.3864847 L12.1984328,11.3863213 C12.1896814,11.5185246 12.1852433,11.6517723 12.1852433,11.7859521 L12.185,11.81 L15.2736729,11.8109188 L15.2736729,13.3089214 L12.3809293,13.308877 C13.1460183,16.2320293 16.0651701,18.4079738 19.5495056,18.4079738 L19.5495056,19.825233 C15.1909017,19.825233 11.5607782,17.0205997 10.7693174,13.308831 L9.35969651,13.3089214 L9.35969651,11.8109188 L10.6091705,11.8109618 C10.6091423,11.8026282 10.6091281,11.7942916 10.6091281,11.7859521 C10.6091281,11.6518578 10.6127792,11.5185304 10.6199968,11.3860457 L9.35969651,11.3864847 L9.35969651,9.88848202 L10.8596434,9.88830437 C11.8080605,6.36413413 15.3388508,3.74667111 19.5495056,3.74667111 Z" id="Combined-Shape" fill="#FFF" fill-rule="nonzero"></path>
                    <path d="M1.43203044,29.8934659 L1.71221031,28.8014915 L4.18194396,28.8014915 L4.46212383,29.8934659 L5.89415427,29.8934659 L4.30646835,23.8565341 L1.58768592,23.8565341 L0,29.8934659 L1.43203044,29.8934659 Z M3.91214113,27.7361506 L1.98201314,27.7361506 L2.69802836,24.868608 L3.19612591,24.868608 L3.91214113,27.7361506 Z M8.27049464,29.8934659 L8.27049464,28.1356534 L9.43272224,28.1356534 C10.2559668,28.1356534 10.8803182,27.9477391 11.3057765,27.5719105 C11.7312349,27.1960819 11.943964,26.6560133 11.943964,25.9517045 C11.943964,24.5549242 11.1068834,23.8565341 9.43272224,23.8565341 L9.43272224,23.8565341 L6.8384642,23.8565341 L6.8384642,29.8934659 L8.27049464,29.8934659 Z M9.42234521,27.0880682 L8.27049464,27.0880682 L8.27049464,24.9041193 L9.42234521,24.9041193 C9.78900035,24.9041193 10.0588032,24.9854995 10.2317537,25.1482599 C10.4047043,25.3110204 10.4911795,25.5788352 10.4911795,25.9517045 C10.4911795,26.7092803 10.1349014,27.0880682 9.42234521,27.0880682 L9.42234521,27.0880682 Z M14.3825666,29.8934659 L14.3825666,28.1356534 L15.5447942,28.1356534 C16.3680387,28.1356534 16.9923902,27.9477391 17.4178485,27.5719105 C17.8433068,27.1960819 18.056036,26.6560133 18.056036,25.9517045 C18.056036,24.5549242 17.2189554,23.8565341 15.5447942,23.8565341 L15.5447942,23.8565341 L12.9505361,23.8565341 L12.9505361,29.8934659 L14.3825666,29.8934659 Z M15.5344172,27.0880682 L14.3825666,27.0880682 L14.3825666,24.9041193 L15.5344172,24.9041193 C15.9010723,24.9041193 16.1708751,24.9854995 16.3438257,25.1482599 C16.5167762,25.3110204 16.6032515,25.5788352 16.6032515,25.9517045 C16.6032515,26.7092803 16.2469734,27.0880682 15.5344172,27.0880682 L15.5344172,27.0880682 Z M19.7059841,29.8934659 L19.986164,28.8014915 L22.4558976,28.8014915 L22.7360775,29.8934659 L24.1681079,29.8934659 L22.580422,23.8565341 L19.8616396,23.8565341 L18.2739536,29.8934659 L19.7059841,29.8934659 Z M22.1860948,27.7361506 L20.2559668,27.7361506 L20.971982,24.868608 L21.4700796,24.868608 L22.1860948,27.7361506 Z M27.5925285,30 C28.2082324,30 29.0107229,29.9319366 30,29.7958097 L30,29.7958097 L30,26.6619318 L27.9453476,26.6619318 L27.9453476,27.7272727 L28.5887236,27.7272727 L28.5887236,28.8991477 L27.72743,28.9346591 C27.09789,28.9346591 26.6828087,28.7955729 26.4821861,28.5174006 C26.2815635,28.2392282 26.1812522,27.7524266 26.1812522,27.0569957 C26.1812522,26.3615649 26.2314078,25.8703243 26.3317191,25.5832741 C26.4320304,25.296224 26.5894154,25.0994318 26.8038741,24.9928977 C27.0183328,24.8863636 27.3901764,24.8330966 27.9194051,24.8330966 C28.4486337,24.8330966 29.1283293,24.8715672 29.9584919,24.9485085 L29.9584919,24.9485085 L30,23.9985795 L29.6264268,23.9364347 C28.8792805,23.8121449 28.1840194,23.75 27.5406434,23.75 C26.5098582,23.75 25.7800069,23.992661 25.3510896,24.477983 C24.9221723,24.9633049 24.7077136,25.7534328 24.7077136,26.8483665 C24.7077136,27.9433002 24.9135247,28.7423059 25.325147,29.2453835 C25.7367693,29.7484612 26.4925631,30 27.5925285,30 Z" id="APPAG" fill="#FFF" fill-rule="nonzero"></path>
                </g>
            </g>
        </g>
    </g>
</svg>