<svg xmlns="http://www.w3.org/2000/svg" width="44" height="44" viewBox="0 0 44 44">
    <g fill="none" fill-rule="evenodd">
        <rect width="43" height="43" x=".5" y=".5" fill="#F7F7F7" stroke="#D8D8D8" rx="4"/>
        <g fill="#30373D">
            <path d="M5.583 21.874l1.8.012c.003-.446.274-1.468 1.27-2.464.936-.935 1.907-1.267 2.455-1.267v-1.8c-1.21 0-2.604.671-3.727 1.794-1.315 1.315-1.791 2.787-1.798 3.725z" transform="translate(7 8)"/>
            <path d="M25.449 9.064V4.96l3.653-3.653L27.829.033l-5.843 5.843h-4.105C15.909 3.71 12.746 2.43 9.318 2.43 5.721 2.43 2.413 3.841.47 6.204L0 6.776l.47.571c1.943 2.364 5.25 3.775 8.848 3.775 3.428 0 6.591-1.282 8.563-3.446h2.305l-5.978 5.978c-.864-.59-1.92-.899-3.1-.899-2.176 0-4.463 1.038-6.273 2.849-1.492 1.492-2.473 3.332-2.762 5.18-.305 1.953.188 3.69 1.388 4.89.965.964 2.278 1.474 3.797 1.474 2.177 0 4.463-1.038 6.273-2.848 1.492-1.493 2.473-3.333 2.762-5.181.25-1.603-.037-3.06-.811-4.193l8.167-8.167v2.305c-2.165 1.972-3.446 5.135-3.446 8.563 0 3.597 1.41 6.905 3.774 8.848l.572.47.571-.47c2.363-1.943 3.774-5.25 3.774-8.848 0-3.427-1.28-6.59-3.445-8.563zm-16.13.258c-2.753 0-5.283-.94-6.932-2.546C4.037 5.17 6.566 4.23 9.318 4.23c2.753 0 5.283.94 6.932 2.546-1.65 1.606-4.179 2.546-6.932 2.546zm5.196 9.52c-.23 1.474-1.032 2.96-2.257 4.185-1.453 1.453-3.322 2.321-5 2.321-1.032 0-1.904-.327-2.524-.947-.783-.783-1.096-1.969-.882-3.339.23-1.474 1.031-2.96 2.256-4.185 1.453-1.454 3.323-2.322 5-2.322 1.032 0 1.905.328 2.524.947.783.783 1.097 1.969.883 3.34zm10.034 5.717c-1.606-1.65-2.546-4.18-2.546-6.932 0-2.753.94-5.282 2.546-6.932 1.605 1.65 2.545 4.179 2.545 6.932s-.94 5.282-2.545 6.932z" transform="translate(7 8)"/>
        </g>
    </g>
</svg>
