<svg xmlns="http://www.w3.org/2000/svg" width="44" height="44" viewBox="0 0 44 44">
    <g fill="none" fill-rule="evenodd">
        <rect width="43" height="43" x=".5" y=".5" fill="#F7F7F7" stroke="#D8D8D8" rx="4"/>
        <g fill="#30373D">
            <path d="M7.887 14.687c.15.075.31.11.468.11.386 0 .756-.212.94-.58l3.491-6.98c.26-.52.05-1.15-.47-1.41-.518-.259-1.149-.049-1.408.47l-3.49 6.98c-.26.52-.05 1.15.469 1.41zM12.647 14.687c.15.075.31.11.468.11.386 0 .756-.212.94-.58l3.491-6.98c.26-.52.05-1.15-.47-1.41-.518-.259-1.149-.049-1.408.47l-3.49 6.98c-.26.52-.05 1.15.469 1.41zM17.407 14.687c.15.075.31.11.468.11.386 0 .756-.212.94-.58l3.491-6.98c.26-.52.05-1.15-.47-1.41-.518-.259-1.149-.049-1.408.47l-3.49 6.98c-.26.52-.05 1.15.469 1.41z" transform="translate(6 10)"/>
            <path d="M32.088 17.21v-.048l-.006-2.869c.002-.03.001-.062.002-.092.002-.076.003-.151.003-.227l-.004-.166c-.001-.022 0-.044-.002-.066 0-.026-.002-.051-.004-.076 0-.012-.002-.024-.003-.035-.005-.077-.011-.153-.019-.229l-.014-.124-.027-.203-.03-.174-.03-.155c-.023-.111-.049-.223-.079-.333-.108-.399-.259-.79-.448-1.164-.373-.865-.813-1.705-1.31-2.499-2.893-4.635-7.571-7.683-12.862-8.495-.353-.054-.708-.098-1.066-.132-.592-.056-1.191-.085-1.795-.085-3.458 0-6.844.972-9.79 2.813-.123.076-.242.155-.36.237l-.088.06c-.111.078-.221.158-.329.24l-.084.067c-.081.063-.162.129-.24.195l-.114.095c-.09.078-.179.157-.266.237l-.137.13-.15.149c-.076.077-.151.155-.225.235l-.127.137c-.052.058-.103.117-.153.176l-.097.116c-.082.1-.163.202-.242.306l-.09.118-.137.191c-.052.075-.102.15-.153.226-.045.068-.089.138-.132.207l-.107.176c-.032.054-.064.107-.095.162-.058.102-.114.205-.168.309l-.068.134c-.057.114-.113.228-.165.345l-.02.045C.802 7.266.75 7.39.7 7.515l-.027.07C.62 7.722.569 7.86.522 8l-.01.032c-.048.141-.092.284-.134.429l-.005.018c-.04.14-.075.282-.109.424l-.011.044C.249 8.964.246 8.983.241 9c-.025.115-.048.23-.07.345-.015.079-.028.159-.041.238-.01.056-.018.112-.026.167-.061.42-.096.839-.102 1.257l-.002.03V11.361l.001 3.062.001.046c.007 1.818.52 3.594 1.484 5.138 1.8 2.883 4.906 4.603 8.308 4.603 1.827 0 3.616-.513 5.173-1.485 1.222-.764 2.625-1.167 4.058-1.167 1.229 0 2.454.298 3.546.861.401.242 1.527.754 1.991.86.457.106.924.16 1.388.16 2.873 0 5.333-1.958 5.981-4.761.102-.443.155-.9.157-1.359v-.11zM2.103 11.05c.007-.478.058-.947.15-1.405l.018-.094c.024-.114.052-.228.081-.34l.029-.112c.039-.142.08-.283.128-.422l.005-.013c.045-.135.096-.268.15-.4l.041-.1c.045-.108.092-.214.142-.319l.043-.09c.06-.123.124-.245.19-.364l.012-.02c.152-.271.321-.532.506-.782l.019-.025c.085-.116.175-.229.267-.34l.027-.031c.2-.237.414-.462.643-.674l.024-.022c.1-.091.202-.18.306-.266l.09-.072c.088-.071.178-.14.27-.207.033-.024.066-.049.1-.072.12-.086.244-.17.372-.25 2.613-1.63 5.614-2.493 8.678-2.493 5.71 0 10.923 2.887 13.942 7.725.446.713.842 1.469 1.175 2.246l.031.066c.13.254.234.52.307.788l.009.037c.015.059.03.118.042.178.044.206.071.42.082.638l.001.006.001.03c.005.127.006.246 0 .363v.029c-.014.229-.046.458-.098.685-.427 1.845-2.045 3.134-3.935 3.134-.306 0-.614-.036-.914-.105-.245-.061-1.165-.481-1.367-.604-.03-.02-.062-.038-.094-.055-1.399-.73-2.972-1.117-4.55-1.117-1.827 0-3.615.514-5.171 1.485-1.223.764-2.627 1.168-4.06 1.168-2.674 0-5.114-1.352-6.527-3.616-.746-1.194-1.141-2.537-1.168-3.909v-.073l.001-.135.002-.05zM25.95 21.338c-.305 0-.613-.035-.914-.105-.245-.06-1.164-.48-1.366-.602-.03-.02-.062-.04-.095-.056-1.398-.73-2.972-1.117-4.55-1.117-1.827 0-3.615.514-5.17 1.486-1.224.763-2.628 1.167-4.061 1.167-2.673 0-5.113-1.352-6.527-3.616l-.057-.096c1.775 1.617 4.1 2.535 6.584 2.535 1.827 0 3.616-.513 5.173-1.486 1.221-.763 2.625-1.166 4.058-1.166 1.229 0 2.454.298 3.546.861.4.242 1.526.753 1.991.86.456.106.923.16 1.388.16 1.376 0 2.657-.45 3.69-1.227-.637 1.445-2.061 2.402-3.69 2.402z" transform="translate(6 10)"/>
        </g>
    </g>
</svg>
