<svg xmlns="http://www.w3.org/2000/svg" width="44" height="44" viewBox="0 0 44 44">
    <g fill="currentColor" fill-rule="evenodd">
        <path d="M27.395 30.998c.498.498 1.304.498 1.802 0L40.006 20.19c.497-.497.497-1.304 0-1.801l-3.603-3.603c-.184-.184-.442-.319-.713-.36-4.923-.74-8.952-4.571-9.736-9.733-.038-.255-.165-.521-.36-.716L21.99.373c-.497-.497-1.304-.497-1.802 0L9.381 11.182c-.498.497-.498 1.304 0 1.801l3.602 3.603c.193.193.46.321.714.36.024.003 1.517.239 3.277 1.054L.374 34.601c-.498.498-.498 1.304 0 1.802l3.602 3.603c.497.497 1.304.497 1.802 0l16.6-16.601c.816 1.76 1.051 3.252 1.055 3.274.04.28.18.54.36.716l3.602 3.603zm.901-2.702l-1.801-1.801 9.007-9.008 1.802 1.802-9.008 9.007zm4.732-11.937l-7.662 7.661c-1.53-4.528-4.47-7.474-9.008-9.007L24.02 7.35c1.532 4.531 4.472 7.475 9.008 9.008zM21.09 3.075l1.802 1.802-9.008 9.007-1.801-1.801 9.007-9.008zM4.877 37.303l-1.802-1.801 16.153-16.153c.676.519 1.256 1.09 1.802 1.802L4.877 37.303zM39.535 35.455h-10.13c-2.095 0-3.799 1.767-3.799 3.939v2.626c0 .725.567 1.313 1.266 1.313h15.195c.7 0 1.266-.588 1.266-1.313v-2.626c0-2.172-1.704-3.94-3.798-3.94zm1.266 5.252H28.139v-1.313c0-.724.568-1.313 1.266-1.313h10.13c.698 0 1.266.589 1.266 1.313v1.313z" transform="matrix(-1 0 0 1 45.667 .667)"/>
    </g>
</svg>
