<svg xmlns="http://www.w3.org/2000/svg" width="44" height="44" viewBox="0 0 44 44">
    <g fill="none" fill-rule="evenodd">
        <rect width="43" height="43" x=".5" y=".5" fill="#F7F7F7" stroke="#D8D8D8" rx="4"/>
        <g fill="#30373D" transform="translate(7 7)">
            <circle cx="20.76" cy="15.301" r="1"/>
            <path d="M17.796 25.584c-.351-.352-.92-.352-1.272 0l-1.164 1.164-1.164-1.164c-.351-.352-.92-.352-1.272 0-.352.351-.352.921 0 1.273l1.8 1.8c.175.175.406.263.636.263.23 0 .46-.088.636-.264l1.8-1.8c.352-.351.352-.92 0-1.272z"/>
            <circle cx="9.96" cy="15.301" r="1"/>
            <path d="M30.49 11.1c-.075-.083-1.862-1.961-4.12-2.078 2.596-1.794 4.35-4.763 4.35-8.12 0-.347-.2-.662-.511-.812-.312-.151-.682-.109-.952.11-1.137.908-3.279 2.894-7.25 3.312-.644-.69-1.455-1.222-2.363-1.483-1.346-.39-2.725-.25-3.927.333-.124.016-.245.055-.357.126-.112-.07-.233-.11-.357-.126-1.202-.583-2.582-.723-3.927-.333-.907.261-1.719.793-2.363 1.483C4.782 3.1 2.658 1.155 1.463.2 1.193-.019.822-.06.511.09.2.24.001.555.001.901c0 3.363 1.688 6.334 4.258 8.124C2.016 9.157.305 11.017.23 11.1c-.306.342-.306.86 0 1.201.077.086 1.967 2.1 4.33 2.1.302 0 .609-.067.915-.131-.001.044-.015.086-.015.13 0 1.757.86 3.41 2.3 4.421 1.242.874 1.19.13 2.039 4.942-.464.707-.739 1.55-.739 2.457 0 2.481 2.02 4.5 4.5 4.5h3.6c2.481 0 4.5-2.019 4.5-4.5 0-.907-.275-1.75-.739-2.457.85-4.813.798-4.068 2.039-4.942 1.44-1.01 2.3-2.663 2.3-4.42 0-.045-.014-.087-.015-.131.306.064.613.13.915.13 2.363 0 4.253-2.013 4.33-2.099.306-.342.306-.859 0-1.2zM5.925 12.236c-1.452.67-2.861.089-3.677-.533.548-.419 1.433-.901 2.312-.901.685 0 1.322.297 1.829.617-.175.262-.338.53-.464.817zM2.062 2.944C3.729 4.106 5.684 4.85 7.684 5.186c-.076.19-.181.369-.234.568-.126.481.161.973.642 1.099.478.128.973-.16 1.098-.642.305-1.16 1.241-2.124 2.385-2.452 1-.29 2.031-.17 2.886.324v2.745c0 .58-.227 1.126-.637 1.537-.41.41-.957.636-1.537.636H9.96c-3.76 0-6.991-2.576-7.898-6.057zM17.16 28.92h-3.6c-1.489 0-2.7-1.211-2.7-2.7s1.211-2.7 2.7-2.7h3.6c1.489 0 2.7 1.211 2.7 2.7s-1.211 2.7-2.7 2.7zm4.766-11.572c-1.462 1.024-1.782.682-2.574 4.967-.652-.368-1.392-.595-2.192-.595h-3.6c-.8 0-1.54.227-2.192.595-.797-4.31-1.13-3.955-2.574-4.967-.96-.674-1.534-1.776-1.534-2.947 0-1.058.463-2.058 1.269-2.743.308-.262.555-.58.81-.889.207.013.412.032.621.032h2.328c1.06 0 2.058-.413 2.808-1.164.1-.099.177-.213.264-.32.087.107.164.22.264.32.75.75 1.748 1.164 2.809 1.164h2.96c.25.3.495.599.798.856.806.686 1.269 1.686 1.269 2.744 0 1.171-.573 2.273-1.534 2.947zm-.249-8.347h-3.245c-.58 0-1.125-.226-1.536-.636-.41-.41-.636-.957-.636-1.537V4.083c.856-.494 1.883-.614 2.886-.325 1.143.33 2.079 1.292 2.384 2.453.125.481.616.77 1.098.642.48-.126.768-.618.642-1.099-.053-.2-.158-.377-.235-.568 2.001-.335 3.958-1.081 5.625-2.243-.822 3.179-3.586 5.676-6.983 6.058zm3.118 3.234c-.126-.287-.289-.555-.464-.817.507-.32 1.144-.617 1.829-.617.882 0 1.765.482 2.312.899-.817.623-2.227 1.204-3.677.535z"/>
        </g>
    </g>
</svg>
