<svg xmlns="http://www.w3.org/2000/svg" width="44" height="44" viewBox="0 0 44 44">
    <g fill="none" fill-rule="evenodd">
        <rect width="43" height="43" x=".5" y=".5" fill="#F7F7F7" stroke="#D8D8D8" rx="4"/>
        <path fill="#30373D" d="M9.466 13.506v.192c0 .398-.322.72-.72.72-.398 0-.72-.322-.72-.72v-.192c0-.397.322-.72.72-.72.398 0 .72.323.72.72zm31.94 18.024c0 .262-.009.524-.027.778-.029.397-.374.695-.77.667-.146-.01-.278-.064-.386-.147-.108.083-.24.136-.385.146-.399.03-.742-.269-.77-.665-.02-.254-.029-.515-.029-.779 0-1.143.172-2.164.464-2.795V19.85c0-.35-.152-.666-.394-.884-.013.227-.044.453-.092.68L37.9 24.848c-.333 1.548-1.193 2.635-2.352 3.014l-.222 1.822v8.17c0 .398-.323.72-.72.72h-3.287c-.224 0-.436-.104-.572-.281-.136-.178-.182-.41-.123-.626l.55-2.04v-3.163c-.218-.118-.416-.27-.584-.45-.765.334-1.6.51-2.438.51-.295 0-.589-.022-.878-.064l-.28 2.542h1.278l.138-1.191c.046-.395.403-.679.799-.632.395.046.677.403.631.798l-.21 1.815-.004.028-.246 2.118c-.043.363-.35.637-.715.637h-2.712c-.204 0-.4-.088-.536-.24-.137-.152-.202-.356-.18-.56l.63-5.697c-.607-.247-1.175-.592-1.68-1.027-.93-.802-1.593-1.866-1.905-3.04h-1.596l-.204 1.673v8.17c0 .398-.323.72-.72.72h-3.287c-.224 0-.436-.104-.572-.282-.136-.177-.182-.409-.124-.625l.551-2.04v-3.163c-.632-.34-1.089-.976-1.176-1.692l-.338-2.762h-.728c-.188 0-.373-.015-.553-.044l.016 2.714c.002.28.201.528.475.592.357.083.594.42.552.784l-.343 2.946h.382c.398 0 .72.322.72.72 0 .397-.322.72-.72.72h-.55l-.08.693h.072c.398 0 .72.322.72.72 0 .397-.322.72-.72.72h-.88c-.206 0-.402-.088-.538-.242-.137-.153-.201-.358-.178-.562l.248-2.13.001-.007.373-3.211c-.59-.363-.97-1.01-.974-1.735l-.02-3.318c-.873-.625-1.443-1.647-1.443-2.8v-2.445c0-.31-.02-.598-.063-.865-.006-.025-.01-.05-.013-.074-.244-1.37-1.08-2.164-2.623-2.526-.219-.052-.467-.041-.734 0l-.015.002c-.232.037-.477.095-.73.156-.479.114-.975.233-1.494.233-1.668 0-2.854-1.065-2.884-2.589-.03-1.48.242-2.04 1.45-2.996l2.542-2.013-.433-.843c-.765-1.492-.737-3.021.065-3.483.394-.227 1.035-.214 1.54.572.746 1.162 2.011 1.494 3.351 1.845.48.125.977.256 1.435.427.155.057.32.114.492.172 1.297-.416 2.755-1.424 3.07-1.915.505-.786 1.146-.8 1.54-.572.802.461.83 1.99.065 3.482l-.744 1.45c-.076.147-.151.281-.232.416.145.07.498.187 1.296.245.78.057 1.672.037 2.389.02.294-.006.548-.011.765-.011H32.799c1.953 0 3.994.963 5.2 2.455.395.49.688 1.018.875 1.566 1.182.257 2.069 1.312 2.069 2.57v8.885c.292.631.463 1.652.463 2.795zM14.434 10.887c.343.182.669.397.945.663l.549-1.068c.158-.31.259-.591.32-.833-.474.43-1.124.872-1.815 1.238zm-8.582 6.598c-.618-.713-1.39-1.338-2.285-1.846-.04.198-.042.444-.035.796.017.868.757 1.177 1.445 1.177.269 0 .564-.056.875-.127zm13.19 18.958h-1.44l-.187.693h1.627v-.693zm3.384-11.298c0-3.253-2.645-5.898-5.897-5.898-1.743 0-3.36.75-4.485 2.067.03.26.044.53.044.812v2.445c0 1.103.898 2 2 2h1.366c.364 0 .67.272.715.633l.414 3.394c.038.312.308.602.626.674.328.074.561.366.561.702v3.029h1.272V29.64c0-.029.002-.058.005-.087l.287-2.35c.044-.361.35-.632.715-.632h2.203c.116-.465.174-.943.174-1.427zm4.408 11.298l-.077.693h1.267l.08-.693h-1.27zm3.156-5.737l-.33-2.695h-5.874c.491 1.393 1.611 2.452 3.006 2.874.038.007.074.018.109.031.398.11.818.169 1.25.169.643 0 1.26-.128 1.84-.38zm3.896 5.737h-1.44l-.187.693h1.627v-.693zm3.428-15.727c-.784.367-1.646.562-2.532.562-3.29 0-5.968-2.677-5.968-5.968 0-.205.01-.409.031-.611h-8.162c-.2 0-.447.005-.733.011-.867.02-1.947.044-2.88-.055-.576-.062-2.103-.224-2.3-1.357-.152-.867-1.113-1.26-2.458-1.71l-.039-.013-.007-.002c-.254-.085-.494-.165-.728-.252-.39-.146-.83-.261-1.296-.383-1.22-.32-2.575-.675-3.6-1.712.061.217.155.462.29.727l.704 1.37c.157.306.076.68-.194.893l-2.92 2.313c1.188.716 2.186 1.62 2.93 2.662.272-.014.55.003.826.068 1.632.383 2.744 1.201 3.328 2.441 1.338-1.215 3.074-1.893 4.923-1.893 4.046 0 7.337 3.291 7.337 7.338 0 .482-.046.959-.138 1.426h6.57c.364 0 .67.272.715.633l.415 3.394c.038.312.307.602.626.674.328.074.56.366.56.702v3.029h1.272V29.64c0-.03.002-.058.005-.087l.29-2.368c.04-.328.299-.587.627-.627 1.193-.145 1.59-1.577 1.684-2.012l.822-3.831zm.362-1.924c.006-.233-.016-.455-.058-.665-.006-.023-.012-.046-.015-.07-.136-.594-.437-1.082-.725-1.438-.943-1.167-2.544-1.92-4.08-1.92h-2.503c-.027.202-.04.406-.04.611 0 2.497 2.03 4.528 4.527 4.528 1.064 0 2.082-.37 2.894-1.046z"/>
    </g>
</svg>
