<svg xmlns="http://www.w3.org/2000/svg" width="44" height="44" viewBox="0 0 44 44">
    <g fill="none" fill-rule="evenodd">
        <rect width="43" height="43" x=".5" y=".5" fill="#F7F7F7" stroke="#D8D8D8" rx="4"/>
        <g>
            <path fill="#30373D" d="M5.583 21.874l1.8.012c.003-.446.274-1.468 1.27-2.464.936-.935 1.907-1.267 2.455-1.267v-1.8c-1.21 0-2.604.671-3.727 1.794-1.315 1.315-1.791 2.787-1.798 3.725z" transform="translate(7 8)"/>
            <path fill="#30373D" d="M29.102 1.306L27.829.033l-5.843 5.843h-4.105C15.909 3.71 12.746 2.43 9.318 2.43 5.721 2.43 2.413 3.841.47 6.204L0 6.776l.47.571c1.943 2.364 5.25 3.775 8.848 3.775 3.428 0 6.591-1.282 8.563-3.446h2.305l-5.978 5.978c-.864-.59-1.92-.899-3.1-.899-2.176 0-4.463 1.038-6.273 2.849-1.492 1.492-2.473 3.332-2.762 5.18-.305 1.953.188 3.69 1.388 4.89.965.964 2.278 1.474 3.797 1.474 2.177 0 4.463-1.038 6.273-2.848 1.492-1.493 2.473-3.333 2.762-5.181.25-1.603-.037-3.06-.811-4.193l13.62-13.62zM9.318 9.322c-2.752 0-5.282-.94-6.931-2.546C4.037 5.17 6.566 4.23 9.318 4.23c2.753 0 5.283.94 6.932 2.546-1.65 1.606-4.179 2.546-6.932 2.546zm5.197 9.52c-.23 1.474-1.032 2.96-2.257 4.185-1.453 1.453-3.322 2.321-5 2.321-1.032 0-1.904-.327-2.524-.947-.783-.783-1.096-1.969-.882-3.339.23-1.474 1.031-2.96 2.256-4.185 1.453-1.454 3.323-2.322 5-2.322 1.032 0 1.905.328 2.524.947.783.783 1.097 1.969.883 3.34z" transform="translate(7 8)"/>
            <g fill="#01985A" fill-rule="nonzero">
                <path d="M5.67 3.24c-1.502 0-2.723 1.22-2.723 2.72 0 1.502 1.221 2.722 2.722 2.722 1.5 0 2.722-1.22 2.722-2.721 0-1.501-1.221-2.722-2.722-2.722z" transform="translate(7 8) translate(18 11.4)"/>
                <path d="M11.338 7.803l-.825-1.842.825-1.842-1.75-1.005-.415-1.976-2.007.216L5.669 0 4.172 1.354l-2.007-.216-.415 1.976L0 4.119.825 5.96 0 7.803l1.75 1.005.225 1.07-1.868 3.97 1.95.026 1.262 1.486 1.837-3.903.513.464.513-.464L8.02 15.36l1.262-1.486 1.95-.026-1.868-3.97.225-1.07 1.75-1.005zm-5.669 1.78c-1.997 0-3.621-1.625-3.621-3.622 0-1.997 1.624-3.622 3.621-3.622 1.997 0 3.622 1.625 3.622 3.622 0 1.997-1.625 3.621-3.622 3.621z" transform="translate(7 8) translate(18 11.4)"/>
            </g>
        </g>
    </g>
</svg>
