<svg xmlns="http://www.w3.org/2000/svg" width="44" height="44" viewBox="0 0 44 44">
    <g fill="none" fill-rule="evenodd">
        <rect width="43" height="43" x=".5" y=".5" fill="#F7F7F7" stroke="#D8D8D8" rx="4"/>
        <g fill="#30373D">
            <path d="M16 11.636c-2.406 0-4.364 1.958-4.364 4.364 0 2.406 1.958 4.364 4.364 4.364 2.406 0 4.364-1.958 4.364-4.364 0-2.406-1.958-4.364-4.364-4.364zm0 7.273c-1.604 0-2.91-1.305-2.91-2.91 0-1.604 1.306-2.908 2.91-2.908s2.91 1.305 2.91 2.909c0 1.604-1.306 2.909-2.91 2.909zM8.727 18.91c-2.406 0-4.363 1.956-4.363 4.363 0 2.406 1.957 4.363 4.363 4.363 2.407 0 4.364-1.957 4.364-4.363 0-2.407-1.957-4.364-4.364-4.364zm0 7.272c-1.603 0-2.909-1.305-2.909-2.91 0-1.604 1.306-2.908 2.91-2.908 1.603 0 2.908 1.304 2.908 2.909 0 1.604-1.305 2.909-2.909 2.909z" transform="translate(6 7)"/>
            <path d="M31.998 8.543c-.045-2.18-1.432-6.409-1.491-6.588-.073-.218-.245-.39-.463-.463C29.864 1.433 25.64.05 23.46.003c-3.71-.097-7.077 2.211-8.369 5.7-.36.97-1.158 1.75-2.192 2.145-2.324.886-4.166 2.728-5.05 5.052-.396 1.034-1.177 1.833-2.147 2.192-3.486 1.291-5.777 4.653-5.7 8.366.045 2.182 1.447 6.396 1.507 6.574.072.217.243.386.46.459.178.06 4.39 1.46 6.571 1.507l.186.002c3.638 0 6.912-2.273 8.183-5.702.36-.97 1.158-1.75 2.192-2.145 2.324-.886 4.166-2.728 5.05-5.052.396-1.034 1.177-1.833 2.147-2.192 3.486-1.291 5.777-4.654 5.7-8.366zm-6.206 7.002c-1.362.504-2.456 1.611-2.998 3.037-.739 1.938-2.275 3.473-4.21 4.211-1.427.544-2.535 1.637-3.039 2.999-1.078 2.908-3.875 4.854-6.974 4.751-1.628-.034-4.755-.988-5.796-1.32-.33-1.04-1.285-4.167-1.32-5.796-.063-3.093 1.846-5.895 4.752-6.972 1.362-.504 2.456-1.611 2.999-3.037.738-1.938 2.274-3.473 4.21-4.211 1.426-.544 2.534-1.637 3.038-2.999 1.078-2.907 3.906-4.844 6.975-4.751 1.627.034 4.76.975 5.81 1.304.327 1.049 1.27 4.183 1.305 5.812.063 3.093-1.846 5.895-4.752 6.972z" transform="translate(6 7)"/>
            <path d="M23.273 4.364c-2.407 0-4.364 1.957-4.364 4.363 0 2.407 1.957 4.364 4.364 4.364 2.406 0 4.363-1.957 4.363-4.364 0-2.406-1.957-4.363-4.363-4.363zm0 7.272c-1.604 0-2.91-1.304-2.91-2.909 0-1.604 1.306-2.909 2.91-2.909 1.603 0 2.909 1.305 2.909 2.91 0 1.604-1.306 2.908-2.91 2.908z" transform="translate(6 7)"/>
        </g>
    </g>
</svg>
