<svg xmlns="http://www.w3.org/2000/svg" width="44" height="44" viewBox="0 0 44 44">
    <g fill="none" fill-rule="evenodd">
        <rect width="43" height="43" x=".5" y=".5" fill="#F7F7F7" stroke="#D8D8D8" rx="4"/>
        <g fill="#30373D">
            <path d="M29.059 14.456h-.016c-.414 0-.75.336-.75.75s.336.75.75.75h.016c.414 0 .75-.336.75-.75s-.336-.75-.75-.75zM33.415 14.456h-.016c-.414 0-.75.336-.75.75s.336.75.75.75h.016c.414 0 .75-.336.75-.75s-.336-.75-.75-.75zM17.128 22.65h-.01c-.414 0-.75.335-.75.75 0 .413.336.749.75.749h.01c.414 0 .75-.336.75-.75s-.336-.75-.75-.75z" transform="translate(3 16)"/>
            <path d="M37.647 22.65h-9.451v-1.942c0-.615.126-1.216.37-1.772.164.238.24.528.24 1.026 0 1.381 1.473 1.925 2.344 2.028.03.004.06.006.089.006.103 0 .628-.072 1.144-.3 1.122-.494 1.29-1.298 1.29-1.734 0-.928.257-1.134.88-1.631.23-.184.49-.393.762-.664.288-.289.693-.9.88-2.87.044-.47.066-.917.077-1.259.419-.11.947-.337 1.382-.802.548-.586.796-1.379.738-2.356-.014-.232-.125-.447-.317-.578-.192-.13-.425-.168-.645-.096-.226.064-.454.058-.678-.02l-.027-.008c.167-.482.223-.992.159-1.503-.107-.841-.543-1.627-1.138-2.052-.223-.16-.516-.184-.763-.064s-.408.365-.421.639c-.024.502-.198.873-.424 1.148l-.298-.923C32.503 2.783 28.682 0 24.331 0H7.538c-3.494 0-6.336 2.842-6.336 6.336v6.353C.497 13.01 0 13.77 0 14.655c0 .493.163 1.29.397 1.938.384 1.066.907 1.607 1.555 1.607.648 0 1.171-.54 1.555-1.607.234-.648.397-1.445.397-1.938 0-.884-.497-1.644-1.202-1.965V6.337c0-2.264 1.563-4.168 3.667-4.693-.25.194-.49.404-.719.63-.849.839-1.486 1.85-1.88 2.95-.01.02-.02.043-.027.066-.96 2.761-.33 5.784 1.64 7.92 0 .002 0 .002.002.003l.082.09.021.02c.254.266.527.515.82.746.72.568 1.136 1.421 1.14 2.34l.022 6.24H.75c-.414 0-.75.336-.75.75s.336.75.75.75h13.778c.415 0 .75-.336.75-.75s-.336-.75-.75-.75h-.751v-1.941c0-.885.26-1.74.755-2.475.354-.527.617-1.098.787-1.704h5.436c.17.606.433 1.177.787 1.704.494.734.755 1.59.755 2.475v1.941h-2.624c-.414 0-.75.336-.75.75s.336.75.75.75h17.974c.414 0 .75-.336.75-.75s-.336-.75-.75-.75zM1.952 16.44c-.223-.476-.452-1.323-.452-1.785 0-.34.207-.63.452-.63.245 0 .452.29.452.63 0 .462-.23 1.31-.452 1.785zm30.22 3.522c0 .247-.564.457-.933.525-.37-.068-.934-.278-.934-.525 0-.108-.003-.211-.01-.31h1.887c-.006.099-.01.202-.01.31zM35.41 8.65c-.009.288-.09.637-.33.998-.122-.103-.247-.2-.376-.293.254-.191.497-.424.706-.705zM22.09 1.5c-.866 1.391-2.401 2.271-4.09 2.271-1.69 0-3.226-.88-4.092-2.271h8.182zM7.212 12.036h-.866c-.906-1.056-1.45-2.39-1.53-3.8-.034-.624.024-1.244.167-1.84l1.368.25C7.827 6.917 9 8.09 9.27 9.566c.112.613-.052 1.239-.451 1.717-.399.479-.985.753-1.608.753zm19.484 8.672v1.941h-.699v-1.941l-.002-.053c-.01-1.165-.358-2.291-1.01-3.26-.337-.501-.565-1.057-.678-1.65l-.593-3.138c-.077-.407-.47-.674-.876-.597-.407.076-.675.469-.598.876l.594 3.137c.15.795.455 1.539.907 2.21.494.734.755 1.59.755 2.475v1.941h-.699v-1.941c0-1.185-.349-2.33-1.01-3.313-.338-.501-.566-1.057-.678-1.65l-.593-3.138c-.077-.407-.47-.674-.877-.597-.407.076-.674.469-.597.876l.405 2.143h-4.82l.405-2.143c.077-.407-.19-.8-.597-.876-.407-.078-.8.19-.876.597l-.594 3.138c-.112.594-.34 1.15-.677 1.65-.662.983-1.011 2.128-1.011 3.313v1.941h-.884v-1.941c0-.885.26-1.74.755-2.475.451-.671.757-1.415.907-2.21l.593-3.137c.077-.407-.19-.8-.597-.876-.407-.077-.8.19-.876.597l-.594 3.138c-.112.593-.34 1.149-.678 1.65-.66.983-1.01 2.128-1.01 3.313v1.941H8.97l-.023-6.246c-.004-1.09-.396-2.12-1.096-2.925.824-.148 1.575-.58 2.121-1.235.685-.821.967-1.895.774-2.947-.382-2.085-2.04-3.743-4.125-4.125l-1.11-.203c.306-.596.707-1.147 1.193-1.627 1.202-1.187 2.794-1.84 4.484-1.84h1.029c1.002 2.276 3.26 3.771 5.782 3.771 2.52 0 4.78-1.495 5.782-3.771h.55c3.698 0 6.946 2.364 8.082 5.883l.34 1.05c-.491-.13-1-.197-1.514-.197-.618 0-1.227.097-1.807.282-.42-.13-1.417-.571-1.477-1.83-.013-.274-.175-.52-.422-.64-.246-.12-.539-.095-.763.065-.595.424-1.03 1.21-1.137 2.051-.065.511-.008 1.022.159 1.504-.207.06-.416.063-.623.005-.218-.066-.455-.03-.643.1-.19.132-.309.343-.323.573-.058.977.19 1.77.738 2.356.395.421.866.647 1.262.768.01.35.033.823.08 1.326.187 1.97.592 2.581.88 2.87.082.082.163.157.242.229-.465.862-.71 1.823-.71 2.812zm1.103-11.372c-.123.088-.243.181-.36.28l-.02-.006c-.227-.351-.303-.69-.312-.97.205.276.444.506.692.696zm-.754 2.774c-.006 0-.625-.022-1.008-.432-.12-.128-.209-.289-.266-.48.19-.021.377-.064.56-.127.128-.044.257-.06.383-.057.087-.002.33.045.373.062.432.13.782.426.883.518.127.17.19.32.219.4.067.346.37.606.736.606h.015c.414 0 .75-.336.75-.75 0-.12-.03-.234-.08-.335-.07-.204-.201-.503-.445-.828l-.006-.008-.033-.043c-.026-.03-.055-.061-.086-.093l.028.027-.033-.033c-.042-.042-.09-.085-.14-.128.699-.436 1.51-.672 2.344-.672.869 0 1.715.256 2.434.729-.04.036-.08.071-.115.107l-.03.03c.008-.01.017-.018.027-.027-.032.032-.06.063-.085.094l-.034.042-.006.008c-.234.312-.365.6-.437.803-.035.074-.06.153-.07.237l-.009.047.006.001-.002.042c0 .414.336.75.75.75h.015c.365 0 .67-.261.736-.607.033-.085.095-.217.206-.366.156-.142.909-.774 1.639-.522.183.063.37.105.56.127-.056.187-.142.345-.259.472-.384.418-1.015.44-1.015.44h-.021c-.414.002-.748.34-.746.754.01 1.643-.243 3.41-.53 3.708-.212.213-.428.386-.637.553-.354.283-.714.57-.986.992h-2.783c-.272-.421-.631-.709-.985-.992-.21-.167-.426-.34-.638-.553-.268-.278-.506-1.839-.528-3.383.058-.106.092-.227.093-.357.003-.414-.33-.753-.744-.756z" transform="translate(3 16)"/>
        </g>
        <path stroke="#01985A" stroke-linecap="round" stroke-linejoin="round" stroke-width="2.5" d="M4 17L12 7 16 12 23 3 29 12 33 7 40 18"/>
    </g>
</svg>
