<svg xmlns="http://www.w3.org/2000/svg" width="25" height="25" viewBox="0 0 25 25">
    <defs>
        <filter id="prefix__a">
            <feColorMatrix in="SourceGraphic" values="0 0 0 0 0.188235 0 0 0 0 0.215686 0 0 0 0 0.239216 0 0 0 1.000000 0"/>
        </filter>
    </defs>
    <g fill="none" fill-rule="evenodd" filter="url(#prefix__a)" transform="translate(-77 -16)">
        <g>
            <path d="M0 0H25V25H0z" transform="translate(77 16)"/>
            <path fill="#FFF" fill-rule="nonzero" d="M12.5 13.542c2.301 0 4.167-1.866 4.167-4.167V6.25c0-2.301-1.866-4.167-4.167-4.167-2.301 0-4.167 1.866-4.167 4.167v3.125c0 2.301 1.866 4.167 4.167 4.167zM9.375 6.25c0-1.726 1.4-3.125 3.125-3.125 1.726 0 3.125 1.4 3.125 3.125v3.125c0 1.726-1.4 3.125-3.125 3.125-1.726 0-3.125-1.4-3.125-3.125V6.25zm11.458 16.667h-1.041c0-4.027-3.265-7.292-7.292-7.292-4.027 0-7.292 3.265-7.292 7.292H4.167c0-4.603 3.73-8.334 8.333-8.334 4.602 0 8.333 3.731 8.333 8.334z" transform="translate(77 16)"/>
        </g>
    </g>
</svg>
