<svg xmlns="http://www.w3.org/2000/svg" width="44" height="44" viewBox="0 0 44 44">
    <g fill="none" fill-rule="evenodd">
        <rect width="43" height="43" x=".5" y=".5" fill="#F7F7F7" stroke="#D8D8D8" rx="4"/>
        <path fill="#30373D" d="M38.118 16.187l-2.269 2.268c-1.989-1.595-4.459-2.268-6.895-2.014l3.224-3.224c.41-.41.41-1.075 0-1.485-.41-.41-1.075-.41-1.485 0l-3.23 3.23c.255-2.414-.414-4.908-2.009-6.9l2.269-2.27c.41-.41.41-1.074 0-1.484-.41-.41-1.075-.41-1.485 0l-4.455 4.454c-.79.791-1.43 1.713-1.896 2.717-.365-.121-.783-.037-1.073.253l-1.485 1.485c-.791.791-1.431 1.713-1.896 2.717-.365-.121-.784-.038-1.074.253l-1.485 1.485c-.791.791-1.431 1.712-1.896 2.717-.365-.121-.783-.038-1.074.253l-1.485 1.485C4.985 25.56 4.752 31 7.72 34.707l-3.341 3.34c-.41.41-.41 1.075 0 1.485.41.41 1.074.41 1.484 0l3.341-3.34c3.712 2.97 9.15 2.728 12.58-.701l1.485-1.485c.29-.29.374-.709.253-1.074 1.005-.465 1.926-1.105 2.717-1.896l1.485-1.485c.29-.29.374-.709.253-1.074 1.004-.465 1.926-1.105 2.717-1.896l1.485-1.485c.29-.29.374-.708.253-1.074 1.004-.464 1.926-1.105 2.717-1.896l4.454-4.454c.41-.41.41-1.075 0-1.485-.41-.41-1.074-.41-1.484 0zm-14.85-5.94l.69-.69c2.154 2.877 1.924 6.986-.69 9.6l-.26.26c.229-2.158-.282-4.38-1.532-6.25.357-1.096.97-2.098 1.792-2.92zm-4.455 4.455l.69-.69c2.154 2.877 1.924 6.986-.69 9.6l-.26.26c.229-2.158-.282-4.38-1.532-6.25.357-1.096.97-2.098 1.792-2.92zm-4.454 4.455l.69-.69c2.153 2.877 1.923 6.985-.69 9.6l-.26.26c.228-2.158-.283-4.38-1.533-6.25.357-1.096.97-2.098 1.793-2.92zm-4.455 4.455l.69-.69c2.154 2.877 1.924 6.985-.69 9.599l-.69.69c-2.154-2.877-1.924-6.986.69-9.6zm10.394 10.394c-2.613 2.614-6.722 2.844-9.599.69l.69-.69c2.614-2.614 6.722-2.844 9.599-.69l-.69.69zm4.455-4.455c-.822.822-1.824 1.436-2.92 1.793-1.87-1.25-4.092-1.761-6.25-1.533l.26-.26c2.643-2.642 6.75-2.83 9.6-.69l-.69.69zm4.455-4.454c-.821.82-1.822 1.434-2.917 1.791-1.84-1.235-4.04-1.767-6.247-1.537l.254-.255c2.643-2.642 6.75-2.83 9.6-.69l-.69.69zm4.455-4.455c-.822.821-1.823 1.434-2.917 1.791-1.841-1.235-4.04-1.767-6.247-1.537l.254-.254c2.643-2.643 6.75-2.831 9.6-.69l-.69.69z"/>
    </g>
</svg>
