<?xml version="1.0" encoding="UTF-8"?>
<svg width="23px" height="27px" viewBox="0 0 23 27" version="1.1" xmlns="http://www.w3.org/2000/svg" xmlns:xlink="http://www.w3.org/1999/xlink">
    <title>C547CB11-CBFC-4F4A-916C-14904093FC25</title>
    <defs>
        <filter color-interpolation-filters="auto" id="filter-1">
            <feColorMatrix in="SourceGraphic" type="matrix" values="0 0 0 0 1.000000 0 0 0 0 1.000000 0 0 0 0 1.000000 0 0 0 1.000000 0"></feColorMatrix>
        </filter>
    </defs>
    <g id="Page-1" stroke="none" stroke-width="1" fill="none" fill-rule="evenodd">
        <g id="stato-protocollata" transform="translate(-71.000000, -587.000000)">
            <g id="calendar-light" transform="translate(71.000000, 587.000000)" filter="url(#filter-1)">
                <g>
                    <path d="M20.5357143,3.67857143 L18.0714286,3.67857143 L18.0714286,1.03794643 C18.0714286,0.701419085 17.7955826,0.428571429 17.4553571,0.428571429 L17.0446429,0.428571429 C16.7044174,0.428571429 16.4285714,0.701419085 16.4285714,1.03794643 L16.4285714,3.67857143 L6.57142857,3.67857143 L6.57142857,1.03794643 C6.57142857,0.701419085 6.29558259,0.428571429 5.95535714,0.428571429 L5.54464286,0.428571429 C5.20441741,0.428571429 4.92857143,0.701419085 4.92857143,1.03794643 L4.92857143,3.67857143 L2.46428571,3.67857143 C1.10328125,3.67857143 0,4.76986049 0,6.11607143 L0,23.9910714 C0,25.3372824 1.10328125,26.4285714 2.46428571,26.4285714 L20.5357143,26.4285714 C21.8967188,26.4285714 23,25.3372824 23,23.9910714 L23,6.11607143 C23,4.76986049 21.8967188,3.67857143 20.5357143,3.67857143 Z M2.46428571,5.30357143 L20.5357143,5.30357143 C20.9886295,5.30357143 21.3571429,5.66807924 21.3571429,6.11607143 L21.3571429,8.55357143 L1.64285714,8.55357143 L1.64285714,6.11607143 C1.64285714,5.66807924 2.01137054,5.30357143 2.46428571,5.30357143 Z M20.5357143,24.8035714 L2.46428571,24.8035714 C2.01137054,24.8035714 1.64285714,24.4390636 1.64285714,23.9910714 L1.64285714,10.1785714 L21.3571429,10.1785714 L21.3571429,23.9910714 C21.3571429,24.4390636 20.9886295,24.8035714 20.5357143,24.8035714 Z" id="Shape" fill="#000000" fill-rule="nonzero"></path>
                </g>
            </g>
        </g>
    </g>
</svg>