<svg xmlns="http://www.w3.org/2000/svg" width="44" height="44" viewBox="0 0 44 44">
    <g fill="none" fill-rule="evenodd">
        <rect width="43" height="43" x=".5" y=".5" fill="#F7F7F7" stroke="#D8D8D8" rx="4"/>
        <g fill="#30373D">
            <path d="M22.597 7.681c-2.565-1.246-5.706-.238-7 2.25-.488.936-.66 1.97-.495 2.991.164 1.015.647 1.944 1.397 2.688l.193.19c1.124 1.11 1.802 1.78 1.802 3.164 0 1.384-.678 2.053-1.802 3.162l-.193.191c-.75.744-1.233 1.673-1.397 2.688-.164 1.02.007 2.055.494 2.991.919 1.764 2.764 2.784 4.675 2.784.784 0 1.58-.172 2.326-.535 3.857-1.875 6.35-6.304 6.35-11.281 0-4.978-2.493-9.407-6.35-11.283zm-.787 20.945c-1.697.825-3.768.17-4.617-1.461-.626-1.203-.401-2.604.573-3.57l.19-.188c1.203-1.186 2.339-2.306 2.339-4.444 0-2.137-1.136-3.258-2.338-4.444l-.19-.188c-.975-.966-1.2-2.367-.574-3.57.6-1.152 1.81-1.817 3.068-1.817.521 0 1.051.115 1.549.356 3.242 1.577 5.336 5.37 5.336 9.663 0 4.294-2.095 8.087-5.336 9.663z" transform="translate(8 6)"/>
            <path d="M24.83 15.683c-.245-.433-.794-.586-1.227-.342-.433.245-.586.794-.342 1.227.124.218.319 1.061.319 2.396 0 1.334-.195 2.177-.319 2.395-.244.433-.09.982.342 1.226.14.08.292.117.442.117.314 0 .619-.165.784-.458.511-.906.551-2.74.551-3.28 0-.541-.04-2.375-.55-3.28zM12.254 8.714l.194-.191c.75-.744 1.233-1.673 1.396-2.688.165-1.02-.006-2.055-.494-2.991-1.295-2.488-4.435-3.496-7-2.25C2.491 2.47 0 6.9 0 11.877c0 4.979 2.492 9.407 6.35 11.282.746.363 1.541.535 2.325.535 1.911 0 3.757-1.02 4.675-2.784.488-.936.659-1.97.494-2.991-.163-1.015-.646-1.944-1.396-2.688l-.194-.19c-1.123-1.11-1.802-1.78-1.802-3.164 0-1.384.679-2.053 1.802-3.162zM10.99 7.432C9.787 8.62 8.652 9.74 8.652 11.877c0 2.138 1.136 3.258 2.338 4.445l.19.188c.974.966 1.2 2.367.574 3.569-.85 1.63-2.92 2.286-4.617 1.462C3.895 19.963 1.8 16.17 1.8 11.877c0-4.294 2.095-8.087 5.337-9.663.497-.242 1.027-.357 1.549-.357 1.257 0 2.467.666 3.068 1.818.626 1.203.4 2.603-.574 3.57l-.19.188z" transform="translate(8 6)"/>
            <path d="M5.367 11.876c0-1.334.195-2.177.318-2.395.244-.433.091-.982-.341-1.226-.434-.245-.983-.091-1.227.341-.51.906-.55 2.74-.55 3.28 0 .541.04 2.375.55 3.28.165.294.47.459.785.459.15 0 .302-.038.441-.116.433-.245.586-.794.342-1.227-.123-.218-.318-1.061-.318-2.396z" transform="translate(8 6)"/>
        </g>
    </g>
</svg>
