<svg xmlns="http://www.w3.org/2000/svg" width="44" height="44" viewBox="0 0 44 44">
    <g fill="none" fill-rule="evenodd">
        <rect width="43" height="43" x=".5" y=".5" fill="#F7F7F7" stroke="#D8D8D8" rx="4"/>
        <g fill="#30373D">
            <path d="M23.131 5.858c-.292-1.345-1.406-2.39-2.788-2.577C20 2.38 19.141 1.73 18.13 1.699 17.603.679 16.537 0 15.346 0c-1.191 0-2.258.68-2.784 1.699-1.012.033-1.871.68-2.214 1.582-1.379.187-2.49 1.227-2.786 2.568L0 11.872l1.425.58c.072.029 1.784.717 3.817.797l.115.004c.07 3.447 1.397 6.37 2.337 8.443.459 1.01.854 1.881.904 2.376.016.164.03.344.045.534.165 2.137.472 6.114 6.703 6.114 6.23 0 6.537-3.977 6.702-6.114.015-.19.029-.37.045-.534.05-.495.445-1.367.904-2.376.938-2.066 2.26-4.977 2.337-8.41l.1-.003c2.053-.082 3.782-.777 3.855-.807l1.425-.58-7.583-6.038zM5.827 9.532l1.969-1.568c.12.257.272.496.452.712.327.394.743.712 1.218.92-.506.814-1.237 1.362-2.186 1.643-.543.16-1.158.232-1.843.216l-.081-.003c-.602-.02-1.178-.107-1.673-.212l2.144-1.708zM11.99 4.16v-.02c.005-.355.296-.643.653-.643.074 0 .148.013.218.038l.976.344.205-1.015c.125-.616.674-1.064 1.305-1.064.63 0 1.18.448 1.304 1.064l.206 1.015.975-.344c.07-.025.144-.038.218-.038.357 0 .648.288.653.644v.019l-.003.275-.007.75 1.017-.123c.066-.008.126-.012.185-.012.834 0 1.513.679 1.513 1.513 0 .31-.094.6-.256.84-.271.405-.734.672-1.257.672-.059 0-.12-.003-.185-.011l-.971-.119-.037.979c-.013.352-.3.628-.652.628-.087 0-.172-.017-.252-.05l-.879-.369-.317.899c-.187.531-.692.888-1.255.888-.564 0-1.068-.357-1.256-.888l-.317-.899-.88.369c-.079.033-.163.05-.251.05-.352 0-.639-.276-.652-.628l-.036-.979-.972.119c-.066.008-.126.011-.185.011-.524 0-.986-.267-1.258-.673-.16-.24-.255-.529-.255-.84 0-.833.679-1.512 1.513-1.512.059 0 .12.004.185.012l1.017.123-.007-.75-.003-.275zm13.331 7.325l-.062.002c-.683.019-1.296-.05-1.84-.205-.978-.277-1.73-.832-2.251-1.66.5-.209.936-.536 1.276-.946.179-.214.33-.451.45-.706l1.974 1.572 2.165 1.724c-.505.108-1.095.198-1.712.22zm-3.962 9.467c-.546 1.202-.977 2.151-1.056 2.941-.018.184-.033.374-.048.574-.078 1.005-.166 2.144-.775 2.991-.706.984-2.059 1.462-4.133 1.462-2.075 0-3.428-.478-4.134-1.462-.609-.847-.697-1.986-.774-2.99-.016-.201-.03-.39-.05-.575-.078-.79-.51-1.74-1.054-2.941-.933-2.053-2.146-4.726-2.181-7.83 1.637-.308 2.916-1.142 3.773-2.465.442.431 1.048.695 1.716.695l.115-.003c.573.842 1.537 1.371 2.589 1.371 1.05 0 2.015-.529 2.589-1.371l.114.003c.646 0 1.233-.247 1.67-.652.87 1.325 2.165 2.157 3.819 2.46-.045 3.088-1.252 5.747-2.18 7.792z" transform="translate(6 7)"/>
            <path d="M16.336 23.55c0 .53-.431.96-.96.96-.53 0-.96-.43-.96-.96h-1.8c0 1.195.764 2.216 1.83 2.599v1.271h1.8v-1.25c1.096-.366 1.89-1.402 1.89-2.62h-1.8zM12.75 16.15c0 .613-.497 1.11-1.11 1.11-.613 0-1.11-.497-1.11-1.11 0-.613.497-1.11 1.11-1.11.613 0 1.11.497 1.11 1.11zM20.162 16.15c0 .613-.497 1.11-1.11 1.11-.613 0-1.11-.497-1.11-1.11 0-.613.497-1.11 1.11-1.11.613 0 1.11.497 1.11 1.11z" transform="translate(6 7)"/>
        </g>
    </g>
</svg>
