<svg xmlns="http://www.w3.org/2000/svg" width="44" height="44" viewBox="0 0 44 44">
    <g fill="none" fill-rule="evenodd">
        <rect width="43" height="43" x=".5" y=".5" fill="#F7F7F7" stroke="#D8D8D8" rx="4"/>
        <g fill="#30373D">
            <path d="M13.812 7.27c-.205-.197-.537-.197-.742 0l-1.16 1.11c-.771-.073-2.968-.154-4.272 1.094-.045.043-.089.088-.13.133V9.4c.597-.47 2.211-1.899 2.211-3.664 0-1.766-1.614-3.195-2.212-3.664V.502C7.507.225 7.272 0 6.983 0c-.29 0-.525.225-.525.502v1.57c-.33.259-.968.81-1.473 1.544-.16.231-.092.543.15.695.242.153.567.088.726-.143.366-.531.826-.959 1.124-1.207.653.544 1.685 1.642 1.685 2.775 0 1.215-1.131 2.308-1.69 2.775-.642-.535-1.654-1.608-1.684-2.723-.007-.277-.25-.497-.538-.488-.29.007-.518.237-.51.514.046 1.73 1.62 3.124 2.21 3.586v.207c-.042-.045-.086-.09-.13-.133-1.305-1.248-3.502-1.167-4.272-1.095L.896 7.27c-.205-.196-.538-.196-.742 0-.205.196-.205.514 0 .71l1.16 1.11c-.076.738-.16 2.84 1.143 4.088.992.949 2.501 1.13 3.506 1.13.184 0 .35-.007.495-.015v.952c-.042-.045-.085-.09-.13-.133-1.305-1.248-3.502-1.167-4.272-1.095l-1.16-1.11c-.205-.196-.537-.196-.742 0-.205.196-.205.514 0 .71l1.16 1.11c-.076.738-.16 2.84 1.143 4.088.992.949 2.5 1.13 3.505 1.13.185 0 .352-.007.496-.015v.952c-.042-.045-.085-.09-.13-.133-1.305-1.248-3.502-1.167-4.272-1.095l-1.16-1.11c-.205-.196-.537-.196-.742 0-.205.196-.205.514 0 .71l1.16 1.11c-.076.738-.16 2.84 1.144 4.088.992.949 2.5 1.13 3.505 1.13.184 0 .351-.007.495-.015v.952c-.042-.045-.085-.09-.13-.133-1.305-1.248-3.502-1.167-4.272-1.095l-1.16-1.11c-.205-.196-.537-.196-.742 0-.205.196-.205.514 0 .71L1.314 26c-.04.393-.083 1.173.081 2 .054.273.328.452.613.4.285-.051.472-.314.418-.586-.118-.597-.108-1.176-.082-1.539.252-.016.607-.026 1.003.004.686.05 1.63.234 2.239.816.723.692.869 1.827.872 2.611-.001.164-.005.328-.017.491-.252.017-.606.026-1.003-.003-.686-.051-1.63-.235-2.239-.816-.204-.196-.537-.196-.741 0-.205.196-.205.514 0 .71.992.949 2.5 1.13 3.505 1.13.184 0 .351-.007.495-.015v2.495c0 .277.235.502.525.502.29 0 .524-.225.524-.502v-2.495c.144.008.312.014.496.014 1.004 0 2.513-.18 3.505-1.13 1.304-1.247 1.22-3.35 1.144-4.087l1.16-1.11c.205-.196.205-.514 0-.71-.205-.196-.537-.196-.742 0l-1.16 1.11c-.77-.072-2.968-.153-4.272 1.095-.045.043-.088.088-.13.133v-.952c.144.008.31.015.495.015 1.005 0 2.513-.181 3.505-1.13 1.304-1.248 1.22-3.35 1.144-4.088l1.16-1.11c.205-.196.205-.514 0-.71-.205-.196-.537-.196-.742 0l-1.16 1.11c-.77-.072-2.968-.153-4.272 1.095-.045.043-.088.088-.13.133v-.952c.144.008.31.015.495.015 1.005 0 2.513-.181 3.505-1.13 1.304-1.248 1.22-3.35 1.144-4.088l1.16-1.11c.205-.196.205-.514 0-.71-.205-.195-.537-.195-.742 0l-1.16 1.11c-.77-.072-2.968-.153-4.272 1.095-.045.043-.088.088-.13.133v-.952c.144.008.31.015.495.015 1.004 0 2.513-.181 3.505-1.13 1.304-1.248 1.22-3.35 1.144-4.088l1.16-1.11c.204-.196.204-.514 0-.71zm-7.354 5.564c0 .171-.008.325-.017.453-.253.016-.607.026-1.003-.004-.686-.051-1.63-.235-2.239-.816-.896-.858-.906-2.394-.855-3.103.252-.016.606-.026 1.003.004.685.051 1.63.234 2.238.816.724.692.87 1.827.873 2.612v.038zm0 5.637c0 .171-.008.325-.017.452-.741.048-2.346.038-3.242-.819-.896-.858-.906-2.394-.855-3.103.252-.016.606-.026 1.003.004.685.051 1.63.234 2.238.816.724.692.87 1.826.873 2.61v.04zm0 5.637c0 .171-.008.325-.017.453-.253.016-.607.026-1.003-.004-.686-.051-1.63-.235-2.239-.816-.896-.858-.906-2.394-.855-3.103.252-.016.606-.026 1.003.004.685.051 1.63.234 2.238.816.724.692.87 1.827.873 2.611v.039zm1.05 5.577c0-.14.006-.29.02-.448.053-.656.244-1.56.852-2.142.897-.858 2.502-.867 3.243-.82.017.243.027.582-.004.96-.054.657-.245 1.561-.853 2.143-.897.858-2.502.867-3.243.819-.012-.17-.014-.341-.015-.512zm0-5.637c0-.14.006-.29.02-.448.053-.656.244-1.56.852-2.142.897-.858 2.502-.867 3.243-.82.017.243.027.582-.004.96-.054.657-.245 1.561-.853 2.143-.897.858-2.502.867-3.243.819-.012-.17-.014-.341-.015-.512zm.872-8.227c.897-.858 2.502-.867 3.243-.82.017.243.027.582-.004.96-.054.657-.245 1.561-.853 2.143-.896.858-2.5.867-3.242.819-.011-.163-.015-.326-.016-.49.002-.784.148-1.92.872-2.612zm3.239-5.496c-.054.656-.245 1.56-.853 2.142-.897.858-2.502.867-3.243.819-.022-.32-.022-.641.004-.96.054-.656.245-1.56.853-2.142.897-.858 2.502-.867 3.243-.82.017.243.027.581-.004.96zM29.64 12.906c-.205-.196-.538-.196-.742 0l-1.16 1.11c-.771-.072-2.968-.153-4.272 1.095-.046.043-.089.088-.131.133v-.952c.144.008.311.014.495.014 1.005 0 2.514-.18 3.506-1.13 1.304-1.247 1.22-3.35 1.143-4.087l1.16-1.11c.205-.196.205-.514 0-.71-.204-.196-.537-.196-.741 0l-1.16 1.11c-.771-.072-2.968-.153-4.272 1.095-.046.043-.089.088-.131.133V9.4c.598-.47 2.212-1.899 2.212-3.664 0-1.766-1.614-3.195-2.212-3.664V.502C23.335.225 23.1 0 22.81 0c-.29 0-.524.225-.524.502v1.57c-.598.47-2.212 1.899-2.212 3.664 0 1.765 1.614 3.195 2.212 3.664v.207c-.042-.045-.086-.09-.131-.133-1.304-1.248-3.501-1.167-4.272-1.095l-1.16-1.11c-.205-.196-.537-.196-.742 0-.205.196-.205.514 0 .71l1.16 1.11c-.076.738-.16 2.84 1.144 4.088.992.949 2.5 1.13 3.505 1.13.185 0 .352-.007.496-.015v.952c-.042-.045-.086-.09-.131-.133-1.304-1.248-3.501-1.167-4.272-1.095l-1.16-1.11c-.205-.196-.537-.196-.742 0-.205.196-.205.514 0 .71l1.16 1.11c-.076.738-.16 2.84 1.144 4.088.992.949 2.5 1.13 3.505 1.13.184 0 .352-.007.496-.015v.952c-.042-.045-.086-.09-.131-.133-1.304-1.248-3.501-1.167-4.272-1.095l-1.16-1.11c-.205-.196-.537-.196-.742 0-.205.196-.205.514 0 .71l1.16 1.11c-.076.738-.16 2.84 1.144 4.088.992.949 2.5 1.13 3.505 1.13.184 0 .352-.007.496-.015v.952c-.042-.045-.086-.09-.131-.133-1.304-1.248-3.501-1.167-4.272-1.095l-1.16-1.11c-.205-.196-.537-.196-.742 0-.205.196-.205.514 0 .71l1.16 1.11c-.076.738-.16 2.84 1.144 4.088.992.949 2.5 1.13 3.505 1.13.184 0 .352-.007.496-.015v2.495c0 .277.235.502.524.502.29 0 .525-.225.525-.502v-2.495c.144.008.311.014.495.014 1.005 0 2.514-.18 3.506-1.13 1.304-1.247 1.22-3.35 1.143-4.087l1.16-1.11c.205-.196.205-.514 0-.71-.205-.196-.537-.196-.742 0l-1.16 1.11c-.77-.072-2.967-.153-4.271 1.095-.046.043-.09.088-.131.133v-.952c.144.008.311.014.495.014 1.005 0 2.514-.18 3.506-1.13 1.304-1.247 1.22-3.35 1.143-4.087l1.16-1.11c.205-.196.205-.514 0-.71-.205-.196-.537-.196-.742 0l-1.16 1.11c-.77-.073-2.967-.153-4.271 1.095-.046.043-.09.088-.131.133v-.952c.144.008.311.014.495.014 1.005 0 2.514-.18 3.506-1.13.197-.189.373-.408.523-.652.147-.239.063-.546-.187-.687-.25-.14-.57-.06-.718.179-.104.17-.226.322-.36.45-.897.858-2.501.868-3.242.82-.012-.161-.016-.322-.017-.482.002-.785.146-1.925.873-2.62.896-.858 2.501-.867 3.242-.82.017.244.027.585-.004.963-.022.277.193.518.482.54.289.022.542-.185.564-.461.046-.554.016-1.035-.013-1.316l1.16-1.11c.205-.197.205-.515 0-.71zm-6.305-.102c.002-.785.146-1.925.873-2.62.896-.858 2.5-.867 3.241-.82.05.71.041 2.245-.855 3.103-.896.858-2.501.867-3.242.819-.011-.16-.016-.321-.017-.482zm-1.05.021c0 .175-.007.332-.016.461-.253.017-.607.026-1.003-.003-.686-.051-1.631-.235-2.239-.816-.897-.858-.906-2.394-.856-3.103.253-.017.607-.026 1.003.004.686.051 1.631.234 2.24.816.725.694.87 1.832.871 2.617v.024zm0 5.638c0 .174-.007.33-.016.46-.742.048-2.346.038-3.242-.82-.897-.857-.906-2.393-.856-3.102.253-.016.607-.026 1.003.004.686.05 1.631.234 2.24.816.724.694.869 1.83.871 2.615v.027zm0 5.636c0 .175-.007.332-.016.461-.253.017-.607.027-1.003-.003-.686-.051-1.631-.235-2.239-.816-.897-.858-.906-2.394-.856-3.103.253-.016.607-.026 1.003.004.686.05 1.631.234 2.24.816.725.694.87 1.832.871 2.617v.024zm0 5.637c0 .175-.007.332-.016.461-.253.017-.607.026-1.003-.003-.686-.051-1.631-.235-2.239-.816-.897-.858-.906-2.394-.856-3.103.253-.016.607-.026 1.003.004.686.05 1.631.234 2.24.816.725.694.87 1.832.871 2.617v.024zm1.05-.022c.002-.785.146-1.924.873-2.62.896-.857 2.5-.866 3.241-.818.05.71.041 2.244-.855 3.102-.896.858-2.501.867-3.242.819-.01-.13-.016-.29-.016-.467v-.016zm0-5.636c.002-.785.146-1.925.873-2.62.896-.858 2.5-.868 3.241-.82.05.71.041 2.245-.855 3.103-.897.857-2.501.867-3.242.819-.01-.131-.017-.29-.016-.469v-.013zm-.527-15.567c-.654-.544-1.685-1.642-1.685-2.775 0-1.213 1.128-2.305 1.687-2.773.56.468 1.688 1.56 1.688 2.773 0 1.215-1.131 2.308-1.69 2.775z" transform="translate(7 5)"/>
        </g>
    </g>
</svg>
