<svg xmlns="http://www.w3.org/2000/svg" width="44" height="44" viewBox="0 0 44 44">
    <g fill="none" fill-rule="evenodd">
        <rect width="43" height="43" x=".5" y=".5" fill="#F7F7F7" stroke="#D8D8D8" rx="4"/>
        <g fill="#30373D" transform="translate(8 8)">
            <path d="M19.542 18.543l-3.732-1.651v-.739c1.589-.916 2.79-2.417 3.304-4.203.312.012.61-.077.899-.257.443-.276.743-.726.802-1.204.059-.479-.09-.96-.406-1.318-.094-.105-.2-.194-.315-.272 2.388-.521 3.601-1.261 3.601-2.204 0-1.148-1.801-1.868-4.062-2.3V1.917c0-.192-.115-.366-.293-.44-4.542-1.909-8.582-1.904-12.348.014-.16.082-.261.246-.261.426V4.31c-2.48.42-4.54 1.157-4.54 2.385 0 .995 1.337 1.76 3.97 2.281-.054.044-.107.09-.156.141-.318.33-.484.764-.468 1.222.018.512.309 1.005.776 1.321.296.2.6.299.914.291.5 1.827 1.712 3.359 3.33 4.29 0 .005-.003.009-.003.014v.637l-3.732 1.65c-1.797.795-2.958 2.574-2.958 4.531v3.931c0 .264.214.478.477.478h17.681c.264 0 .478-.214.478-.478v-3.93c0-1.958-1.16-3.737-2.958-4.531zM7.716 8.129c-.002-.224.134-.422.336-.49.054-.016.11-.03.165-.047.143-.043.289-.078.433-.117-.324.274-.638.495-.934.654zm10.925.461c-3.153 1.744-6.515-.425-7.802-1.573 2.367-.348 4.79-.256 7.037.298.458.113.774.528.767 1.01l-.002.265zM7.687 2.213c3.347-1.614 6.948-1.606 10.99.023v1.998c-1.98-.298-4.155-.406-5.734-.406-1.452 0-3.41.092-5.256.338V2.213zm-4.54 4.482c0-.649 3.458-1.912 9.796-1.912 6.339 0 9.796 1.263 9.796 1.912 0 .187-.596.819-3.162 1.336-.11-.794-.68-1.449-1.472-1.644-2.568-.634-5.354-.696-8.042-.212h-.002l-.035.008c-.39.07-.776.15-1.16.244l-.106.029c-.327.082-.655.165-.977.264-.01.003-.018.008-.028.01-.013.005-.027.008-.04.012-.583.18-.976.737-.958 1.356v.018c-2.715-.488-3.61-1.161-3.61-1.421zm4.909 4.615c-.028-.134-.111-.25-.23-.318-.073-.042-.156-.064-.238-.064-.052 0-.103.009-.153.025-.184.063-.354.072-.587-.085-.212-.143-.348-.359-.356-.562-.007-.197.064-.384.2-.525.137-.141.32-.219.517-.219.129 0 .258-.055.348-.147.06-.063.102-.123.128-.23.849-.321 1.655-.992 2.3-1.658.966.938 3.364 2.69 6.106 2.69.928 0 1.896-.203 2.86-.705.064.03.133.05.204.05.206 0 .401.088.538.242.138.156.2.358.173.568-.023.194-.158.385-.359.51-.2.126-.371.145-.588.069-.129-.046-.272-.034-.392.033-.12.066-.205.181-.234.315-.466 2.137-2.045 3.882-4.121 4.555l-.213.069c-.584.19-1.208.197-1.753.022-2.114-.68-3.704-2.456-4.15-4.635zm3.857 5.544c.362.117.739.175 1.12.175.406 0 .816-.066 1.22-.197l.213-.069c.134-.043.259-.102.389-.153v2.51c0 .921-.75 1.672-1.673 1.672-.922 0-1.672-.75-1.672-1.673v-2.423c.134.052.264.114.403.158zm1.27 4.894c1.448 0 2.627-1.18 2.627-2.629v-1.182l2.39 1.057v4.187H8.164v-4.187l2.39-1.057v1.182c0 1.45 1.179 2.629 2.628 2.629zm-8.364 1.325c0-1.58.938-3.015 2.39-3.656v7.109h-2.39v-3.453zm3.345 1.064H18.2v2.39H8.164v-2.39zm13.38 2.39h-2.389V19.415c1.452.642 2.39 2.078 2.39 3.657v3.453z"/>
            <circle cx="15.571" cy="10.996" r="1"/>
            <circle cx="10.793" cy="10.996" r="1"/>
            <path d="M28.967 14.806c-.013-.231-.191-.413-.418-.442.464-.802.42-1.748.418-1.796-.014-.243-.208-.437-.45-.451-.038-.002-.64-.03-1.287.19.009-.08.023-.156.023-.237 0-1.19-1.011-2.109-1.054-2.147-.182-.163-.456-.163-.638 0-.043.038-1.054.958-1.054 2.147v.003c-.659-.224-1.274-.196-1.313-.195-.243.014-.437.208-.45.451-.003.049-.048 1.02.431 1.837-.234.023-.419.21-.432.446-.002.05-.047 1.02.432 1.838-.234.022-.419.21-.432.446-.002.049-.047 1.02.432 1.837-.233.023-.418.21-.432.446-.003.059-.069 1.447.785 2.302.56.56 1.345.723 1.84.77v4.753c0 .264.214.478.478.478.263 0 .477-.214.477-.478V22.31c.48-.037 1.295-.186 1.871-.762.841-.84.776-2.206.773-2.263-.013-.232-.191-.414-.418-.443.464-.802.42-1.748.418-1.796-.013-.231-.191-.414-.418-.443.464-.801.42-1.748.418-1.796zm-.986.535c-.049.33-.17.76-.462 1.053-.294.293-.723.414-1.053.463.049-.33.169-.76.462-1.053.293-.293.723-.414 1.053-.463zm-3.16.281c.304.305.426.752.475 1.092-.34-.048-.787-.171-1.092-.475-.304-.305-.427-.752-.476-1.092.34.049.789.172 1.092.475zm0 2.284c.304.304.426.751.475 1.091-.34-.049-.788-.172-1.092-.475-.304-.305-.427-.752-.476-1.092.34.05.789.172 1.092.476zm2.697.727c-.293.293-.722.413-1.052.462.05-.33.17-.76.462-1.053.293-.293.722-.413 1.053-.462-.05.33-.17.76-.463 1.053zm0-4.477c-.293.293-.722.413-1.052.462.048-.33.169-.76.462-1.053.293-.293.723-.413 1.053-.462-.05.33-.17.76-.463 1.053zm-1.638-3.158c.2.268.418.657.418 1.072 0 .414-.219.803-.418 1.071-.199-.268-.417-.657-.417-1.071 0-.415.218-.804.417-1.072zm-1.06 2.34c.305.305.427.753.476 1.093-.34-.05-.788-.172-1.092-.476-.304-.304-.427-.752-.476-1.092.34.05.789.172 1.092.476zm-.616 7.467c-.304-.305-.427-.752-.476-1.091.34.049.789.171 1.092.475.305.305.427.752.476 1.091-.34-.048-.788-.172-1.092-.475zm3.314.066c-.293.293-.722.414-1.052.463.05-.33.17-.76.462-1.053.293-.293.722-.413 1.052-.462-.049.33-.17.76-.462 1.052zM4.82 15.057v-1.911c0-.264-.215-.478-.478-.478-.264 0-.478.214-.478.478v1.911c0 .608-.381 1.125-.916 1.333v-3.005c0-.264-.214-.478-.478-.478s-.478.214-.478.478v3.03c-.575-.186-.996-.72-.996-1.358v-1.911c0-.264-.213-.478-.477-.478s-.478.214-.478.478v1.911c0 1.168.843 2.139 1.951 2.346v9.601c0 .264.214.478.478.478s.478-.214.478-.478v-9.617c1.069-.238 1.871-1.19 1.871-2.33z"/>
        </g>
    </g>
</svg>
