<svg xmlns="http://www.w3.org/2000/svg" width="25" height="25" viewBox="0 0 25 25">
    <defs>
        <filter id="prefix__a">
            <feColorMatrix in="SourceGraphic" values="0 0 0 0 0.188235 0 0 0 0 0.215686 0 0 0 0 0.239216 0 0 0 1.000000 0"/>
        </filter>
    </defs>
    <g fill="none" fill-rule="evenodd" filter="url(#prefix__a)" transform="translate(-50 -16)">
        <g>
            <path d="M0 0H25V25H0z" transform="translate(50 16)"/>
            <path fill="#FFF" fill-rule="nonzero" d="M12.526 20.816v2.213h-1.427v-2.213h1.427zm-.247-18.733c1.943 0 3.436.366 4.437 1.089 1.013.733 1.527 1.96 1.527 3.649 0 1.204-.188 2.143-.558 2.792-.364.641-1.041 1.398-2.01 2.25-.953.837-1.589 1.41-1.89 1.702-.293.283-.595.685-.899 1.196-.296.503-.447 1-.447 1.48v1.71h-1.246l-.007-.124c-.02-.444-.029-1.347-.029-1.731 0-.423.082-.855.24-1.286.161-.429.434-.878.811-1.335.582-.64 1.36-1.4 2.317-2.26.94-.843 1.59-1.56 1.93-2.129.336-.559.506-1.32.506-2.265 0-1.29-.378-2.206-1.125-2.722-.762-.526-1.959-.794-3.557-.794-.825 0-2.1.205-3.79.609l-1.014.237-.183-1.249.114-.028c2.178-.525 3.817-.79 4.873-.79z" transform="translate(50 16)"/>
        </g>
    </g>
</svg>
