<svg xmlns="http://www.w3.org/2000/svg" xmlns:xlink="http://www.w3.org/1999/xlink" width="44" height="44" viewBox="0 0 44 44">
    <defs>
        <path id="prefix__a" d="M35.692 36.567c0 .167-.067.335-.188.455l-.91.911c-.12.12-.288.188-.456.188-.167 0-.334-.067-.455-.188l-1.969-1.969-1.968 1.969c-.121.12-.288.188-.456.188-.167 0-.335-.067-.455-.188l-.91-.91c-.121-.121-.188-.289-.188-.456 0-.167.067-.335.187-.455l1.969-1.97-1.969-1.968c-.12-.12-.187-.288-.187-.455 0-.168.067-.335.187-.456l.91-.91c.121-.12.289-.188.456-.188.168 0 .335.067.456.188l1.968 1.968 1.969-1.968c.12-.12.288-.188.455-.188.168 0 .335.067.456.188l.91.91c.121.12.188.288.188.456 0 .167-.067.335-.188.455l-1.968 1.969 1.968 1.969c.121.12.188.288.188.455z"/>
    </defs>
    <g fill="none" fill-rule="evenodd">
        <rect width="43" height="43" x=".5" y=".5" fill="#F7F7F7" stroke="#D8D8D8" rx="4"/>
        <path fill="#30373D" d="M38.488 10.301l-.378-.844-.888.279c-2.543.8-5.508 1.723-6.817 2.13-.444-.356-.943-.669-1.494-.936-.309-.15-.626-.281-.948-.398.405-.932.807-2.395.807-4.532h-2.082c0 1.688-.29 2.813-.534 3.46-.08.214-.161.39-.234.532-1.43-.26-2.826-.304-3.92-.304-1.094 0-2.49.044-3.92.304-.073-.141-.153-.318-.234-.532-.244-.647-.534-1.772-.534-3.46H15.23c0 2.137.402 3.6.807 4.532-.322.117-.639.248-.947.398-.552.267-1.05.58-1.495.936-1.31-.407-4.274-1.33-6.817-2.13l-.888-.28-.378.845c-.489 1.09-.876 2.692.054 4.127 1.183 1.828 3.88 2.391 5.463 2.565-.02.267-.032.54-.032.82 0 2.486.577 4.012 1.308 5.944.244.643.496 1.309.757 2.086.677 2.02 1.497 4.103 2.891 5.654C17.468 33.18 19.446 34 22 34s4.532-.819 6.047-2.503c1.395-1.55 2.214-3.634 2.891-5.654.261-.778.513-1.443.757-2.086.73-1.932 1.309-3.458 1.309-5.944 0-.28-.012-.553-.033-.82 1.583-.174 4.28-.737 5.463-2.565.93-1.435.542-3.037.054-4.127zm-27.052 4.654c-1.315-.131-3.417-.559-4.119-1.643-.268-.414-.273-.89-.195-1.3 1.806.566 3.688 1.153 4.966 1.55-.266.43-.484.895-.652 1.393zM22 31.934c-3.057 0-4.673-1.42-5.927-4.086 1.398-1.193 3.6-1.914 5.927-1.914 2.328 0 4.529.722 5.927 1.914-1.254 2.667-2.87 4.086-5.927 4.086zm7.745-8.904c-.238.63-.51 1.346-.783 2.161-.075.226-.151.444-.228.66-1.755-1.26-4.162-1.983-6.734-1.983s-4.98.723-6.735 1.982c-.076-.215-.152-.433-.228-.659-.273-.815-.544-1.53-.783-2.161-.682-1.803-1.175-3.106-1.175-5.217 0-2.428.956-4.073 2.925-5.027 1.431-.695 3.393-1.032 5.996-1.032 2.603 0 4.564.337 5.996 1.032 1.969.954 2.925 2.599 2.925 5.027 0 2.111-.493 3.414-1.176 5.217zm-5.415 4.067c.54 0 .978.444.978.992 0 .547-.438.991-.978.991s-.98-.444-.98-.991c0-.548.44-.992.98-.992zm-3.947.008c.536 0 .971.44.971.984 0 .543-.435.984-.971.984s-.972-.441-.972-.984c0-.544.436-.984.972-.984zm5.098-10.31c.686 0 1.244.564 1.244 1.26 0 .696-.558 1.26-1.244 1.26-.687 0-1.245-.564-1.245-1.26 0-.696.558-1.26 1.245-1.26zm-6.252.01c.682 0 1.236.56 1.236 1.25 0 .691-.554 1.251-1.236 1.251-.68 0-1.234-.56-1.234-1.25 0-.691.554-1.251 1.234-1.251zm17.648-4.794c.079.41.073.886-.193 1.3-.698 1.079-2.804 1.509-4.12 1.643-.17-.498-.387-.962-.652-1.392 1.277-.397 3.16-.984 4.965-1.55z"/>
        <rect width="20" height="14" fill="#01985A" rx="7" transform="translate(21.6 27)"/>
        <g fill-rule="nonzero">
            <use fill="#000" xlink:href="#prefix__a"/>
            <use fill="#FFF" xlink:href="#prefix__a"/>
        </g>
    </g>
</svg>
