<svg xmlns="http://www.w3.org/2000/svg" width="44" height="44" viewBox="0 0 44 44">
    <g fill="none" fill-rule="evenodd">
        <rect width="43" height="43" x=".5" y=".5" fill="#F7F7F7" stroke="#D8D8D8" rx="4"/>
        <path fill="#30373D" d="M37.456 17.215c-1.171-1.171-2.62-1.965-4.198-2.32.194-.163.382-.334.563-.515 1.633-1.633 2.532-3.804 2.532-6.113 0-.497-.403-.9-.9-.9-2.658 0-5.04 1.207-6.627 3.1-.354-1.58-1.149-3.03-2.321-4.203-.17-.17-.398-.264-.637-.264-.238 0-.467.095-.636.264-1.258 1.257-2.08 2.834-2.391 4.548-.136-.157-.278-.31-.426-.458-.169-.17-.398-.264-.637-.264-.238 0-.468.095-.636.264-1.288 1.287-2.083 2.884-2.387 4.552-.137-.158-.28-.313-.43-.462-.352-.352-.922-.352-1.273 0-3.156 3.155-3.356 8.163-.603 11.555l-9.185 9.185c-.352.351-.352.921 0 1.272.175.176.406.264.636.264.23 0 .46-.088.636-.264l9.185-9.184c1.535 1.248 3.437 1.928 5.443 1.928 2.31 0 4.48-.9 6.112-2.532.17-.169.264-.398.264-.636 0-.24-.095-.468-.264-.637-.148-.148-.3-.29-.457-.426 1.713-.312 3.29-1.134 4.547-2.391.17-.169.264-.398.264-.636 0-.24-.095-.468-.264-.637-.148-.148-.3-.29-.457-.426 1.707-.31 3.28-1.128 4.535-2.379.088-.084.159-.187.207-.304.14-.336.063-.723-.195-.98zm-2.97-7.98c-.206 1.461-.876 2.81-1.938 3.872-.925.925-2.068 1.552-3.313 1.834l-.004.001c-.183.042-.368.076-.554.102.426-3.001 2.807-5.382 5.808-5.808zm-8.618-.967c.888 1.179 1.368 2.606 1.368 4.108 0 1.501-.48 2.93-1.368 4.108-.888-1.179-1.368-2.606-1.368-4.108 0-1.501.48-2.93 1.368-4.108zm-4.09 4.091c1.82 2.424 1.82 5.79 0 8.213-1.82-2.423-1.82-5.79 0-8.213zm-4.09 4.089c.888 1.178 1.369 2.606 1.369 4.108 0 1.501-.48 2.93-1.369 4.108-.888-1.179-1.368-2.607-1.368-4.108 0-1.502.48-2.93 1.368-4.108zM23.165 27.4c-1.502 0-2.93-.48-4.109-1.368 1.179-.888 2.607-1.369 4.108-1.369 1.502 0 2.93.48 4.108 1.369-1.178.888-2.606 1.368-4.107 1.368zm4.089-4.09c-1.501 0-2.93-.48-4.108-1.368 1.179-.888 2.607-1.369 4.108-1.369 1.502 0 2.93.48 4.108 1.368-1.179.889-2.606 1.369-4.108 1.369zm4.09-4.09c-1.502 0-2.93-.48-4.108-1.368.734-.553 1.564-.947 2.448-1.167l.04-.01c.525-.126 1.067-.191 1.62-.191 1.502 0 2.93.48 4.108 1.368-1.179.888-2.607 1.368-4.108 1.368z"/>
    </g>
</svg>
