<svg xmlns="http://www.w3.org/2000/svg" width="44" height="44" viewBox="0 0 44 44">
    <g fill="none" fill-rule="evenodd">
        <rect width="43" height="43" x=".5" y=".5" fill="#F7F7F7" stroke="#D8D8D8" rx="4"/>
        <path fill="#30373D" d="M33.85 19.805c-.56 0-1.116.019-1.668.054-.187-.127-.384-.257-.595-.388v-2.03c.877-.31 1.507-1.146 1.507-2.127V12.3c0-1.244-1.012-2.256-2.257-2.256-1.244 0-2.256 1.012-2.256 2.256v3.013c0 .98.63 1.817 1.506 2.127v1.202c-1.193-.582-2.707-1.148-4.524-1.497v-2.417c.082.03.168.045.253.045.228 0 .453-.104.6-.3.25-.331.182-.802-.15-1.05L22.25 10.41c-.267-.2-.633-.2-.9 0l-4.017 3.013c-.331.248-.398.719-.15 1.05.203.27.553.364.855.256v2.416c-1.818.35-3.332.915-4.525 1.497V17.44c.876-.31 1.506-1.146 1.506-2.127V12.3c0-1.244-1.012-2.256-2.256-2.256-1.245 0-2.257 1.012-2.257 2.256v3.013c0 .98.63 1.817 1.507 2.127v2.03c-.21.13-.408.26-.595.388-.552-.035-1.108-.054-1.668-.054-.414 0-.75.336-.75.75v12.05c0 .414.336.75.75.75h24.1c.414 0 .75-.336.75-.75v-12.05c0-.414-.336-.75-.75-.75zm-.75 12.05h-3.39c-.639-1.62-1.556-3.15-2.732-4.553-1.061-1.268-2.313-2.407-3.729-3.399 2.891-1.544 6.28-2.471 9.851-2.586v10.538zm-5.015 0h-7.607c-.734-2.068-2.09-3.916-3.864-5.248-1.789-1.343-3.889-2.117-6.114-2.259v-3.03c7.883.252 14.884 4.467 17.585 10.537zm-12.57 0H10.5v-6.002c3.696.282 6.959 2.632 8.371 6.002h-3.356zm14.566-19.554c0-.417.34-.756.756-.756.418 0 .757.34.757.756v3.013c0 .417-.34.756-.757.756-.416 0-.756-.34-.756-.756V12.3zm-10.543 1.345l2.262-1.697 2.263 1.697v3.272c-.487-.054-.99-.093-1.513-.111V15.68c0-.414-.336-.75-.75-.75s-.75.336-.75.75v1.127c-.522.018-1.026.057-1.512.111v-3.272zM12.006 12.3c0-.417.34-.756.757-.756s.756.34.756.756v3.013c0 .417-.34.756-.756.756-.417 0-.757-.34-.757-.756V12.3zm9.794 5.992c3.485 0 6.153.934 7.93 1.847-2.842.47-5.526 1.425-7.93 2.834-2.403-1.409-5.088-2.365-7.93-2.834 1.777-.913 4.445-1.847 7.93-1.847z"/>
    </g>
</svg>
