<svg xmlns="http://www.w3.org/2000/svg" width="44" height="44" viewBox="0 0 44 44">
    <g fill="none" fill-rule="evenodd">
        <rect width="43" height="43" x=".5" y=".5" fill="#F7F7F7" stroke="#D8D8D8" rx="4"/>
        <path fill="#30373D" d="M31.528 16.057l-.033-.014c.078-.167.107-.355.076-.541-.047-.294-.233-.547-.499-.68-2.434-1.216-4.848-1.59-6.123-1.705v-2.443c0-.35-.198-.671-.512-.828L21.12 8.188c-.287-.144-.627-.128-.9.04-.273.169-.439.466-.439.787v4.102c-1.275.115-3.69.488-6.123 1.705-.266.133-.452.386-.5.68-.03.186-.001.374.077.54-.01.006-.022.01-.033.015C10.414 17.26 9 19.355 9 22.284c0 2.967 1.429 6.074 3.92 8.526 2.627 2.586 5.982 4.01 9.445 4.01s6.818-1.424 9.445-4.01c2.491-2.452 3.92-5.56 3.92-8.526 0-2.929-1.414-5.024-4.202-6.227zm-10.822-1.141c.511 0 .925-.414.925-.925v-3.48l1.468.734v2.746c0 .51.413.923.923.925.026 0 2.169.018 4.646.894-.71.303-1.702.574-2.986.574-.32 0-.618.166-.786.438-.169.273-.184.613-.041.9.352.705.826 1.785 1.158 2.77-1.001-.597-2.212-1.397-2.994-2.18-.18-.18-.417-.27-.654-.27-.237 0-.473.09-.654.27-.782.783-1.992 1.582-2.994 2.18.333-.985.806-2.065 1.158-2.77.143-.287.128-.627-.04-.9-.17-.273-.467-.438-.787-.438-1.284 0-2.277-.271-2.986-.574 2.477-.875 4.62-.894 4.644-.894zm9.807 14.576c-2.28 2.243-5.173 3.478-8.148 3.478-2.975 0-5.868-1.235-8.148-3.478-2.108-2.076-3.367-4.77-3.367-7.208 0-2.461 1.304-4.054 4.184-4.916.667.318 1.537.622 2.611.77-.515 1.193-1.18 2.961-1.18 4.146 0 .32.165.619.438.787.272.169.613.184.9.04.124-.062 2.75-1.383 4.562-2.896 1.811 1.513 4.438 2.834 4.562 2.897.131.065.273.097.414.097h.002c.51 0 .925-.414.925-.925l-.003-.07c-.025-1.184-.675-2.907-1.18-4.075 1.074-.149 1.944-.453 2.61-.77 2.881.861 4.185 2.454 4.185 4.915 0 2.438-1.259 5.132-3.367 7.208z"/>
    </g>
</svg>
