<svg xmlns="http://www.w3.org/2000/svg" width="44" height="44" viewBox="0 0 44 44">
    <g fill="none" fill-rule="evenodd">
        <rect width="43" height="43" x=".5" y=".5" fill="#F7F7F7" stroke="#D8D8D8" rx="4"/>
        <g fill="#30373D">
            <path d="M11.509 15.077H13.189V17.35H11.509zM19.314 15.077H20.994V17.35H19.314z" transform="translate(6 8)"/>
            <path d="M32.32 11.369c-.257-.336-2.443-3.116-4.883-3.468.051-.252.078-.513.078-.78 0-1.624-1.012-3.07-2.485-3.655C24.756 1.566 23.116.1 21.14.1c-.903 0-1.757.303-2.444.854C18.008.404 17.154.1 16.25.1c-.903 0-1.757.304-2.444.854C13.119.404 12.265.1 11.362.1c-1.976 0-3.615 1.465-3.89 3.366C6 4.05 4.987 5.496 4.987 7.12c0 .268.028.529.078.781-2.44.352-4.626 3.132-4.882 3.468-.23.3-.23.717 0 1.018.274.359 2.748 3.504 5.381 3.504.743 0 1.459-.127 2.113-.372l1.773 5.708c.016 4.356.881 8.354 6.801 8.354s6.785-3.998 6.802-8.354l1.772-5.708c.655.245 1.37.372 2.113.372 2.634 0 5.108-3.145 5.381-3.504.23-.3.23-.717 0-1.018zM8.45 4.919c.399-.084.68-.444.665-.852l-.003-.038c0-1.24 1.01-2.25 2.25-2.25.7 0 1.349.321 1.78.88.159.205.404.326.665.326.26 0 .505-.12.664-.326.432-.559 1.08-.88 1.78-.88s1.349.321 1.78.88c.16.205.405.326.665.326s.506-.12.665-.327c.43-.558 1.08-.878 1.78-.878 1.24 0 2.25 1.009 2.25 2.229l-.004.058c-.014.408.267.768.666.852 1.033.218 1.782 1.144 1.782 2.2 0 1.242-1.01 2.25-2.25 2.25-.7 0-1.348-.32-1.78-.878-.158-.206-.404-.327-.664-.327s-.506.12-.665.327c-.432.558-1.08.879-1.78.879s-1.349-.32-1.78-.879c-.159-.206-.404-.327-.665-.327-.26 0-.505.12-.665.327-.43.558-1.08.879-1.78.879-.699 0-1.348-.32-1.78-.88-.158-.205-.404-.326-.664-.326s-.506.12-.665.327c-.43.558-1.08.879-1.78.879-1.24 0-2.25-1.01-2.25-2.25 0-1.057.75-1.982 1.783-2.201zm18.488 9.292c-.798 0-1.573-.209-2.18-.588-.22-.138-.494-.165-.737-.075-.244.091-.432.29-.51.539l-2.1 6.762c-.025.08-.038.164-.038.249 0 5.086-1.292 6.802-5.122 6.802-3.829 0-5.121-1.716-5.121-6.802 0-.085-.013-.169-.038-.25l-2.1-6.761c-.078-.25-.266-.448-.51-.539-.244-.09-.517-.063-.737.075-.607.38-1.382.588-2.18.588-1.266 0-2.788-1.4-3.62-2.332.823-.916 2.362-2.335 3.62-2.335.094 0 .185.01.277.017.72.905 1.83 1.489 3.075 1.489.904 0 1.757-.304 2.445-.854.687.55 1.541.854 2.444.854.904 0 1.758-.304 2.445-.854.688.55 1.541.854 2.445.854.903 0 1.757-.304 2.445-.854.687.55 1.54.854 2.444.854 1.245 0 2.354-.584 3.074-1.49.093-.005.185-.016.278-.016 1.267 0 2.788 1.4 3.62 2.333-.822.916-2.36 2.334-3.619 2.334z" transform="translate(6 8)"/>
        </g>
    </g>
</svg>
