<svg xmlns="http://www.w3.org/2000/svg" width="44" height="44" viewBox="0 0 44 44">
    <g fill="none" fill-rule="evenodd">
        <rect width="43" height="43" x=".5" y=".5" fill="#F7F7F7" stroke="#D8D8D8" rx="4"/>
        <g fill="#30373D">
            <path d="M21.66 11.52C21.66 5.263 15.5.312 15.238.104c-.174-.138-.421-.138-.596 0C14.38.312 8.22 5.264 8.22 11.52c0 5.742 5.184 10.38 6.24 11.267v5.053c0 .266.215.48.48.48s.48-.214.48-.48v-5.053c1.056-.887 6.24-5.525 6.24-11.267zm-6.24 9.975v-5.432l2.708-2.253c.203-.17.231-.473.061-.677-.17-.204-.472-.231-.676-.062l-2.093 1.743v-1.632l2.708-2.254c.203-.169.231-.472.061-.676-.17-.204-.472-.231-.676-.062l-2.093 1.744V9.822l2.708-2.254c.203-.169.231-.472.061-.676-.17-.204-.472-.231-.676-.062L15.42 8.574V4.8c0-.265-.215-.48-.48-.48s-.48.215-.48.48v3.774L12.367 6.83c-.203-.17-.506-.142-.676.062-.17.204-.142.507.062.677l2.707 2.253v2.112l-2.093-1.743c-.203-.17-.506-.142-.676.062-.17.204-.142.507.062.677l2.707 2.252v1.632l-2.093-1.743c-.203-.17-.506-.142-.676.062-.17.204-.142.507.062.677l2.707 2.252v5.432c-1.632-1.531-5.28-5.456-5.28-9.975 0-5.037 4.54-9.345 5.76-10.41 1.22 1.065 5.76 5.373 5.76 10.41 0 4.52-3.648 8.444-5.28 9.975zM11.58 25.44h-.48v-3.524c.002-.637-.251-1.248-.703-1.697l-4.04-4.043c-.562-.56-1.471-.56-2.033 0l-.424.426V11.52c0-.533-.222-1.042-.613-1.405-.39-.363-.914-.548-1.446-.51-1.024.1-1.799.969-1.78 1.997v6.856c-.001.597.221 1.173.623 1.615l4.176 4.593v.774h-.48c-.265 0-.48.215-.48.48v3.36c0 .266.215.48.48.48h7.2c.265 0 .48-.214.48-.48v-3.36c0-.265-.215-.48-.48-.48zM1.395 19.426c-.241-.264-.375-.61-.375-.968v-6.856c-.013-.523.37-.971.89-1.04.278-.02.551.083.749.28.18.18.282.424.281.678v5.843c0 .382.15.749.422 1.018l2.599 2.599c.188.182.488.18.673-.006.185-.185.187-.485.006-.673l-2.204-2.203c-.09-.09-.14-.211-.14-.338 0-.126.05-.248.14-.337l.567-.566c.187-.185.488-.185.675 0l4.04 4.041c.27.27.421.636.422 1.018v3.524H5.82v-1.145l-4.425-4.869zM11.1 28.8H4.86v-2.4h6.24v2.4zM28.04 9.605c-.532-.038-1.056.147-1.446.51-.39.363-.613.872-.614 1.405v5.082l-.424-.424c-.561-.56-1.47-.56-2.032 0l-4.04 4.041c-.452.449-.705 1.06-.704 1.697v3.524h-.48c-.265 0-.48.215-.48.48v3.36c0 .266.215.48.48.48h7.2c.265 0 .48-.214.48-.48v-3.36c0-.265-.215-.48-.48-.48h-.48v-.774l4.176-4.593c.402-.442.625-1.018.624-1.615v-6.856c.018-1.028-.757-1.897-1.78-1.997zM25.02 28.8h-6.24v-2.4h6.24v2.4zm3.84-10.342c0 .358-.133.704-.374.968l-4.426 4.869v1.145h-4.32v-3.524c.001-.382.153-.748.422-1.018l4.042-4.041c.187-.185.488-.185.675 0l.567.566c.185.186.185.487 0 .672L23.24 20.3c-.124.12-.175.299-.13.466.043.168.175.3.342.343.168.044.347-.006.467-.13l2.599-2.6c.27-.269.422-.635.421-1.017V11.52c0-.254.101-.499.282-.678.198-.197.47-.299.75-.28.518.069.901.517.888 1.04v6.856zM14.6 28.94c-.088.092-.138.213-.14.34.001.033.004.065.01.096.005.03.015.06.029.087.01.03.025.06.043.086.018.025.037.05.057.072.19.186.493.186.682 0l.058-.072c.018-.027.032-.056.043-.086.014-.027.023-.056.028-.087.006-.031.01-.063.01-.096.001-.195-.116-.371-.296-.446-.18-.075-.387-.033-.525.106z" transform="translate(7 7)"/>
            <path d="M5.82 27.84h1.92c.265 0 .48-.214.48-.48 0-.265-.215-.48-.48-.48H5.82c-.265 0-.48.215-.48.48 0 .266.215.48.48.48zM8.998 27.802c.058.025.12.038.182.038.195.001.372-.116.446-.296.075-.18.034-.387-.105-.524-.138-.137-.344-.176-.523-.101-.059.023-.113.057-.159.1-.087.093-.137.214-.139.341-.004.196.115.373.298.442zM19.73 12.384c-.005-.03-.014-.059-.028-.086-.01-.03-.025-.06-.043-.086l-.058-.072c-.192-.178-.49-.178-.682 0-.02.022-.04.046-.057.072-.018.026-.033.055-.043.086-.014.027-.024.056-.03.086-.005.032-.008.064-.009.096.002.127.052.25.14.341.09.089.213.139.34.14.128 0 .25-.05.341-.14.09-.09.14-.213.14-.34-.002-.033-.005-.065-.01-.097z" transform="translate(7 7)"/>
        </g>
    </g>
</svg>
