<svg xmlns="http://www.w3.org/2000/svg" width="32" height="27" viewBox="0 0 32 27">
    <g fill="#FFF" fill-rule="evenodd">
        <path d="M7.448 11C3.34 11 0 14.29 0 18.333c0 4.044 3.341 7.334 7.448 7.334s7.448-3.29 7.448-7.334c0-4.043-3.341-7.333-7.448-7.333zm0 12.833c-3.08 0-5.586-2.467-5.586-5.5 0-3.032 2.506-5.5 5.586-5.5 3.08 0 5.586 2.468 5.586 5.5 0 3.033-2.506 5.5-5.586 5.5z" transform="translate(.111 .556)"/>
        <path d="M7.448 15.583c-1.54 0-2.793 1.234-2.793 2.75 0 1.517 1.253 2.75 2.793 2.75 1.54 0 2.793-1.233 2.793-2.75 0-1.516-1.253-2.75-2.793-2.75zm0 3.667c-.513 0-.931-.411-.931-.917 0-.505.418-.916.93-.916.514 0 .932.411.932.916 0 .506-.418.917-.931.917z" transform="translate(.111 .556)"/>
        <path d="M29.916 16.071v-3.238c0-2.022-1.67-3.666-3.724-3.666H24.33V4.583c0-.505.418-.916.93-.916V1.833c-1.54 0-2.792 1.234-2.792 2.75v4.584H18.38l-2.234-7.334h1.542V0H2.793v1.833h1.862v5.851c-1.573.4-3.052 1.135-4.317 2.164l1.186 1.414C3.185 9.91 5.289 9.167 7.448 9.167c5.133 0 9.31 4.112 9.31 9.166v2.75h3.926c.445 2.598 2.745 4.584 5.508 4.584 3.08 0 5.586-2.468 5.586-5.5 0-1.626-.72-3.088-1.862-4.096zm-23.4-8.699V1.833h7.687l2.235 7.334h-2.822c-1.769-1.158-3.89-1.834-6.168-1.834-.312 0-.622.014-.931.04zM15.768 11h10.425c1.027 0 1.862.822 1.862 1.833v2.148c-.583-.203-1.21-.314-1.862-.314H17.98c-.492-1.366-1.25-2.609-2.214-3.667zm2.697 5.5h3.568c-.69.758-1.17 1.704-1.348 2.75H18.62v-.917c0-.624-.054-1.236-.156-1.833zm7.728 7.333c-2.054 0-3.724-1.644-3.724-3.666 0-2.022 1.67-3.667 3.724-3.667 2.053 0 3.724 1.645 3.724 3.667s-1.67 3.666-3.724 3.666z" transform="translate(.111 .556)"/>
        <path d="M27.123 20.167c0 .506-.417.916-.931.916s-.931-.41-.931-.916c0-.507.417-.917.93-.917.515 0 .932.41.932.917z" transform="translate(.111 .556)"/>
    </g>
</svg>
