<?xml version="1.0" encoding="UTF-8"?>
<svg width="38px" height="50px" viewBox="0 0 38 50" version="1.1" xmlns="http://www.w3.org/2000/svg" xmlns:xlink="http://www.w3.org/1999/xlink">
    <title>status-conclusa</title>
    <g id="PSR" stroke="none" stroke-width="1" fill="none" fill-rule="evenodd">
        <g id="stati-e-icone" transform="translate(-470.000000, -545.000000)" fill="#FFFFFF" fill-rule="nonzero">
            <g id="status-conclusa" transform="translate(470.000000, 545.000000)">
                <g id="file">
                    <path d="M36.9927,12.924225 L24.525,0.456525 C24.2328375,0.1643625 23.837175,0 23.423175,0 L3.163275,0 C1.44495,0 0.04635,1.3986 0.04635,3.116925 L0.04635,46.75365 C0.04635,48.4718625 1.44495,49.870575 3.163275,49.870575 L34.3324125,49.870575 C36.050625,49.870575 37.4493375,48.471975 37.4493375,46.75365 L37.4493375,14.02605 C37.4493375,13.6121625 37.2848625,13.2163875 36.9927,12.924225 Z M24.9816375,5.3206875 L32.12865,12.4677 L24.9816375,12.4677 L24.9816375,5.3206875 Z M34.3324125,46.7537625 L3.163275,46.7537625 L3.163275,3.1170375 L21.8647125,3.1170375 L21.8647125,12.4678125 C21.8647125,14.186025 23.2633125,15.5847375 24.9816375,15.5847375 L34.3324125,15.5847375 L34.3324125,46.7537625 L34.3324125,46.7537625 Z" id="Shape"></path>
                </g>
                <path d="M27.3775875,23.5858024 C26.5478458,22.8047325 25.2022958,22.8047325 24.3724125,23.5858024 L17.3750708,30.1716965 L14.6275875,27.5858191 C13.7978458,26.8047492 12.4522958,26.8047492 11.6224125,27.5858191 C10.7925292,28.366889 10.7925292,29.633161 11.6224125,30.4142309 L15.8724125,34.4142476 C16.7021542,35.1951841 18.0477042,35.1953175 18.8775875,34.4142476 L27.3775875,26.4142142 C28.2074708,25.6332776 28.2074708,24.3668724 27.3775875,23.5858024 Z" id="Path"></path>
            </g>
        </g>
    </g>
</svg>