<?xml version="1.0" encoding="UTF-8"?>
<svg width="61px" height="50px" viewBox="0 0 61 50" version="1.1" xmlns="http://www.w3.org/2000/svg" xmlns:xlink="http://www.w3.org/1999/xlink">
    <title>status-ricevibile</title>
    <g id="PSR" stroke="none" stroke-width="1" fill="none" fill-rule="evenodd">
        <g id="stati-e-icone" transform="translate(-469.000000, -246.000000)" fill="#FFFFFF" fill-rule="nonzero">
            <g id="status-ricevibile" transform="translate(469.000000, 246.000000)">
                <g id="file">
                    <path d="M36.9927,12.924225 L24.525,0.456525 C24.2328375,0.1643625 23.837175,0 23.423175,0 L3.163275,0 C1.44495,0 0.04635,1.3986 0.04635,3.116925 L0.04635,46.75365 C0.04635,48.4718625 1.44495,49.870575 3.163275,49.870575 L34.3324125,49.870575 C36.050625,49.870575 37.4493375,48.471975 37.4493375,46.75365 L37.4493375,14.02605 C37.4493375,13.6121625 37.2848625,13.2163875 36.9927,12.924225 Z M24.9816375,5.3206875 L32.12865,12.4677 L24.9816375,12.4677 L24.9816375,5.3206875 Z M34.3324125,46.7537625 L3.163275,46.7537625 L3.163275,3.1170375 L21.8647125,3.1170375 L21.8647125,12.4678125 C21.8647125,14.186025 23.2633125,15.5847375 24.9816375,15.5847375 L34.3324125,15.5847375 L34.3324125,46.7537625 L34.3324125,46.7537625 Z" id="Shape"></path>
                </g>
                <g id="arrow-pointing-to-right" transform="translate(20.000000, 14.000000)">
                    <path d="M39.77565,12.68655 L27.77565,0.68655 C27.0435,-0.0456 25.8561,-0.0456 25.12395,0.68655 C24.39165,1.41885 24.39165,2.60595 25.12395,3.33825 L33.9231,12.1374 L1.875,12.1374 C0.83955,12.1374 0,12.97695 0,14.0124 C0,15.0477 0.83955,15.8874 1.875,15.8874 L33.9231,15.8874 L25.12425,24.68655 C24.39195,25.41885 24.39195,26.60595 25.12425,27.33825 C25.49025,27.7041 25.97025,27.8874 26.4501,27.8874 C26.92995,27.8874 27.4098,27.7041 27.77595,27.33825 L39.77565,15.33825 C40.50795,14.60595 40.50795,13.41885 39.77565,12.68655 Z" id="Path"></path>
                </g>
            </g>
        </g>
    </g>
</svg>