<svg xmlns="http://www.w3.org/2000/svg" width="54" height="54" viewBox="0 0 54 54">
    <g fill="none" fill-rule="evenodd">
        <g>
            <g>
                <path d="M0 0H54V54H0z" transform="translate(-523 -308) translate(523 308)"/>
                <path fill="#16314E" fill-rule="nonzero" d="M27 47c-7.169 0-13-5.747-13-12.813V15.823c0-.707.582-1.281 1.3-1.281.718 0 1.3.574 1.3 1.281v18.364c0 5.654 4.664 10.25 10.4 10.25 5.736 0 10.4-4.596 10.4-10.25V15.396c0-3.769-3.11-6.834-6.933-6.834-3.824 0-6.934 3.065-6.934 6.834v17.083c0 1.885 1.555 3.417 3.467 3.417 1.912 0 3.467-1.532 3.467-3.417V15.823c0-.707.582-1.281 1.3-1.281.717 0 1.3.574 1.3 1.281v16.656c0 3.297-2.722 5.98-6.067 5.98s-6.067-2.683-6.067-5.98V15.396c0-5.18 4.276-9.396 9.534-9.396C35.724 6 40 10.216 40 15.396v18.791C40 41.254 34.169 47 27 47z" transform="translate(-523 -308) translate(523 308)"/>
            </g>
        </g>
    </g>
</svg>
