<svg xmlns="http://www.w3.org/2000/svg" width="28" height="35" viewBox="0 0 28 35">
    <g fill="#DBDBDB" fill-rule="evenodd">
        <path d="M24.136 28.19a6.558 6.558 0 0 1-3.435 1.795c-.04.01-.08.016-.12.022a6.03 6.03 0 0 1-1.082.094c-.058 0-.116 0-.17-.003a5.575 5.575 0 0 1-.91-.091c-.04-.006-.08-.012-.12-.022a6.588 6.588 0 0 1-4.31-2.86 6.56 6.56 0 0 1-1.09-3.625c0-3.64 2.96-6.598 6.6-6.598a6.58 6.58 0 0 1 5.102 2.422 6.59 6.59 0 0 1-.465 8.865m.52-11.44a7.213 7.213 0 0 0-.465-.33 7.911 7.911 0 0 0-1.242-.683 8.381 8.381 0 0 0-3.45-.736C14.809 15 11 18.813 11 23.5a8.505 8.505 0 0 0 9.664 8.42c4.138-.565 7.336-4.123 7.336-8.42a8.485 8.485 0 0 0-3.343-6.75"/>
        <path d="M19.5 26.25a2.745 2.745 0 0 1-2.75-2.75 2.751 2.751 0 0 1 2.75-2.757c1.52 0 2.75 1.238 2.75 2.757 0 1.52-1.23 2.75-2.75 2.75zm5.5-1.843v-1.822l-1.251-.178a3.9 3.9 0 0 0-.474-1.148l.756-1.004-1.285-1.293-1.012.757a3.926 3.926 0 0 0-1.148-.475L20.408 18h-1.822l-.179 1.244a3.927 3.927 0 0 0-1.148.475l-1.003-.757-1.293 1.293.756 1.004c-.22.35-.378.735-.474 1.148L14 22.585v1.822l1.245.18c.096.412.254.797.474 1.154l-.756 1.004 1.293 1.286 1.003-.757c.35.22.736.385 1.148.482L18.586 29h1.822l.178-1.244a3.762 3.762 0 0 0 1.148-.482l1.012.757 1.285-1.286-.756-1.01a4.06 4.06 0 0 0 .474-1.149L25 24.407zM11.57 0c1.852.012 3.624.79 4.796 2.605.697 1.078.455 2.316.455 3.257 0 .246-.094.887-.094.887.091.045.253.16.265.405.04 1.025-.075 1.516-.222 2.275a.856.856 0 0 1-.686.718c-.027 1.025-.938 2.274-.938 2.274s-.104 1.26.006 1.957c-2.184.79-3.898 2.513-4.626 4.667a10.457 10.457 0 0 0-1.516 5.906c-1.86-.061-3.756-.166-4.83-.291C.581 24.24-.1 22.776.01 21.526c.111-1.232-.1-3.334 2.81-4.542 2.223-.922 4.326-1.991 5.068-2.468.269-.172.083-2.095.083-2.095s-.907-1.25-.936-2.274c0 0-.566-.077-.689-.718-.142-.759-.261-1.25-.218-2.275a.448.448 0 0 1 .266-.405s-.099-.641-.099-.887c0-.94-.242-2.179.455-3.257.587-.91 1.324-1.554 2.144-1.98C9.72.203 10.628.007 11.551 0z"/>
    </g>
</svg>
