<?xml version="1.0" encoding="UTF-8"?>
<svg width="36px" height="36px" viewBox="0 0 36 36" version="1.1" xmlns="http://www.w3.org/2000/svg" xmlns:xlink="http://www.w3.org/1999/xlink">
    <title>icon-macchine</title>
    <g id="UMA" stroke="none" stroke-width="1" fill="none" fill-rule="evenodd">
        <g id="Artboard" transform="translate(-71.000000, -209.000000)">
            <g id="icon-macchine" transform="translate(71.000000, 209.000000)">
                <rect style="fill:#30373D;" id="Rectangle" x="0" y="0" rx="5" ry="5" width="36" height="36"></rect>
                <g id="Group-2" transform="translate(5.000000, 8.000000)" fill="#30373D">
                    <path style="fill:#FFFFFF" d="M6,9 C2.69160155,9 0,11.6916015 0,15 C0,18.3083984 2.69160155,21 6,21 C9.30839845,21 12,18.3083984 12,15 C12,11.6916016 9.30839845,9 6,9 Z M6,19.5 C3.51875,19.5 1.5,17.48125 1.5,15 C1.5,12.51875 3.51875,10.5 6,10.5 C8.48125,10.5 10.5,12.51875 10.5,15 C10.5,17.48125 8.48125,19.5 6,19.5 Z" id="Shape"></path>
                    <path style="fill:#FFFFFF" d="M6,12.75 C4.759375,12.75 3.75,13.759375 3.75,15 C3.75,16.240625 4.759375,17.25 6,17.25 C7.240625,17.25 8.25,16.240625 8.25,15 C8.25,13.759375 7.240625,12.75 6,12.75 Z M6,15.75 C5.58652345,15.75 5.25,15.4134765 5.25,15 C5.25,14.5865235 5.58652345,14.25 6,14.25 C6.41347655,14.25 6.75,14.5865235 6.75,15 C6.75,15.4134765 6.41347655,15.75 6,15.75 Z" id="Shape"></path>
                    <path style="fill:#FFFFFF" d="M24.7326351,13.1490234 L24.7326351,10.5 C24.7326351,8.8457031 23.3512028,7.5 21.6529833,7.5 L20.1131574,7.5 L20.1131574,3.75 C20.1131574,3.33652345 20.4586158,3 20.8830704,3 L20.8830704,1.5 C19.6095061,1.5 18.5733316,2.509375 18.5733316,3.75 L18.5733316,7.5 L15.1939351,7.5 L13.346144,1.5 L14.6211118,1.5 L14.6211118,0 L2.30250482,0 L2.30250482,1.5 L3.84233069,1.5 L3.84233069,6.28691405 C2.54129814,6.61464845 1.31845984,7.2158203 0.27246095,8.0574219 L1.25289693,9.2140625 C2.62691082,8.10878905 4.36683388,7.5 6.15206951,7.5 C10.3974176,7.5 13.8511989,10.8644531 13.8511989,15 L13.8511989,17.25 L17.0980661,17.25 C17.4657797,19.3755859 19.3681063,21 21.6529833,21 C24.200112,21 26.272461,18.98125 26.272461,16.5 C26.272461,15.1703125 25.6771819,13.9736328 24.7326351,13.1490234 Z M5.38215657,6.03183595 L5.38215657,1.5 L11.7385498,1.5 L13.5863408,7.5 L11.2531437,7.5 C9.79030911,6.5527344 8.03635125,6 6.15206951,6 C5.89442938,6 5.6375912,6.0109375 5.38215657,6.03183595 Z M13.0319634,9 L21.6529833,9 C22.502093,9 23.1928092,9.67285155 23.1928092,10.5 L23.1928092,12.2574219 C22.7110121,12.0910156 22.1927244,12 21.6529833,12 L14.8625116,12 C14.4557009,10.8826172 13.8287431,9.8660156 13.0319634,9 Z M15.2619039,13.5 L18.2130364,13.5 C17.6426191,14.1199219 17.2460337,14.8943359 17.0980661,15.75 L15.3910248,15.75 L15.3910248,15 C15.3910248,14.4890625 15.3465141,13.9880859 15.2619039,13.5 L15.2619039,13.5 Z M21.6529833,19.5 C19.9547639,19.5 18.5733316,18.1542969 18.5733316,16.5 C18.5733316,14.8457031 19.9547639,13.5 21.6529833,13.5 C23.3512028,13.5 24.7326351,14.8457031 24.7326351,16.5 C24.7326351,18.1542969 23.3512028,19.5 21.6529833,19.5 Z" id="Shape"></path>
                    <path style="fill:#FFFFFF" d="M21.85,16.5 C21.85,16.9142578 21.5142578,17.25 21.1,17.25 C20.6857422,17.25 20.35,16.9142578 20.35,16.5 C20.35,16.0857422 20.6857422,15.75 21.1,15.75 C21.5142578,15.75 21.85,16.0857422 21.85,16.5 Z" id="Path"></path>
                </g>
            </g>
        </g>
    </g>
</svg>