<?xml version="1.0" encoding="UTF-8"?>
<svg width="36px" height="36px" viewBox="0 0 36 36" version="1.1" xmlns="http://www.w3.org/2000/svg" xmlns:xlink="http://www.w3.org/1999/xlink">
    <title>icon-fabbisogno</title>
    <g id="UMA" stroke="none" stroke-width="1" fill="none" fill-rule="evenodd">
        <g id="Artboard" transform="translate(-71.000000, -505.000000)">
            <g id="icon-fabbisogno" transform="translate(71.000000, 505.000000)">
                <rect id="Rectangle" x="0" y="0" width="36" height="36"></rect>
                <g id="Group-5" transform="translate(7.000000, 6.000000)">
                    <path d="M13.7940484,2.904 L5.0820484,2.904 C4.6811028,2.904 4.3560484,3.2290544 4.3560484,3.63 L4.3560484,8.8616528 C4.3560484,9.2625984 4.6811028,9.5876528 5.0820484,9.5876528 L13.7940484,9.5876528 C14.194994,9.5876528 14.5200484,9.2625984 14.5200484,8.8616528 L14.5200484,3.63 C14.5200484,3.2290544 14.194994,2.904 13.7940484,2.904 Z M13.0680484,8.1356528 L5.8080484,8.1356528 L5.8080484,4.356 L13.0680484,4.356 L13.0680484,8.1356528 Z" id="Shape" fill="#16314E" fill-rule="nonzero"></path>
                    <path d="M21.7163045,4.6129556 C21.3966953,4.3674708 20.9371839,4.425454 20.6897697,4.7424256 L18.6897731,7.3048184 C18.5904562,7.432062 18.5365538,7.588394 18.5365538,7.7493724 C18.5365538,8.1337652 18.5365538,15.6302476 18.5365538,15.935942 L17.5609457,15.935942 L17.5609457,2.178 C17.5609457,0.9770508 16.5762645,-5.32907052e-15 15.3658275,-5.32907052e-15 L3.65853036,-5.32907052e-15 C2.44814217,-5.32907052e-15 1.46341214,0.9770508 1.46341214,2.178 L1.46341214,20.4248 L0.731706072,20.4248 C0.327609198,20.4248 0,20.7498544 0,21.1508 L0,24.0548 C0,24.4557456 0.327609198,24.7808 0.731706072,24.7808 L18.292603,24.7808 C18.6966999,24.7808 19.0243091,24.4557456 19.0243091,24.0548 L19.0243091,21.1508 C19.0243091,20.7498544 18.6966999,20.4248 18.292603,20.4248 L17.5608969,20.4248 L17.5608969,17.3878936 L19.2682111,17.3878936 C19.672308,17.3878936 19.9999172,17.0628392 19.9999172,16.6618936 L19.9999172,10.139316 L20.4691847,10.139316 C20.8732815,10.139316 21.2008907,9.8142616 21.2008907,9.413316 L21.2008907,6.4588832 L21.8466945,5.6314852 C22.0942063,5.3144652 22.0358162,4.8584404 21.7163045,4.6129556 Z M2.92687307,2.178 C2.92687307,1.7776836 3.25511641,1.452 3.65857914,1.452 L15.3658763,1.452 C15.769339,1.452 16.0975824,1.7776836 16.0975824,2.178 L16.0975824,20.4248 L2.92687307,20.4248 L2.92687307,2.178 Z M17.5609457,21.8768 L17.5609457,23.3288 L1.46341214,23.3288 L1.46341214,21.8768 C3.17009217,21.8768 15.9066071,21.8768 17.5609457,21.8768 Z" id="Shape" fill="#30373D"></path>
                    <path d="M6.9741496,11.1357752 L5.0820484,11.1357752 C4.6811028,11.1357752 4.3560484,11.4608296 4.3560484,11.8617752 C4.3560484,12.2627208 4.6811028,12.5877752 5.0820484,12.5877752 L6.9741496,12.5877752 C7.3750952,12.5877752 7.7001496,12.2627208 7.7001496,11.8617752 C7.7001496,11.4608296 7.3750952,11.1357752 6.9741496,11.1357752 Z" id="Path" fill="#16314E" fill-rule="nonzero"></path>
                </g>
            </g>
        </g>
    </g>
</svg>