<?xml version="1.0" encoding="UTF-8"?>
<svg width="36px" height="36px" viewBox="0 0 96 96" version="1.1" xmlns="http://www.w3.org/2000/svg" xmlns:xlink="http://www.w3.org/1999/xlink" >
<title>icon-farm</title>

<g id="UMA" stroke="none" stroke-width="1" fill="none" fill-rule="evenodd">
        <g id="Artboard" transform="translate(-71.000000, -400.000000)">
            <g id="icon-farm" transform="translate(71.000000, 400.000000)">
                <path fill="#000000" d="M96.625,58.961L86.574,33.947c-0.105-0.264-0.313-0.475-0.576-0.588L60.194,22.321  c-0.004-0.002-0.01-0.002-0.014-0.004c-0.031-0.015-0.065-0.022-0.097-0.03c-0.037-0.013-0.071-0.025-0.105-0.032  c-0.027-0.006-0.056-0.006-0.083-0.009c-0.043-0.005-0.083-0.011-0.126-0.011c-0.027,0-0.055,0.005-0.084,0.007  c-0.041,0.003-0.082,0.005-0.122,0.013c-0.028,0.006-0.058,0.017-0.086,0.024c-0.04,0.014-0.079,0.021-0.116,0.038  c-0.004,0.002-0.01,0.003-0.014,0.004L33.545,33.359c-0.263,0.113-0.471,0.324-0.577,0.588l-10.05,25.014  c-0.223,0.553,0.046,1.18,0.599,1.401c0.131,0.054,0.267,0.078,0.399,0.078c0.429,0,0.833-0.256,1.002-0.677l9.883-24.598  l24.971-10.683l24.971,10.683l9.884,24.598c0.169,0.422,0.573,0.676,0.999,0.676c0.135,0,0.272-0.024,0.402-0.077  C96.58,60.141,96.848,59.512,96.625,58.961z"/>
                <path fill="#000000" d="M91.831,58.589L83.02,36.667c-0.107-0.271-0.322-0.486-0.592-0.597L60.18,26.977  c-0.261-0.105-0.554-0.105-0.816,0L37.115,36.07c-0.27,0.11-0.482,0.326-0.592,0.597l-8.811,21.922  c-0.052,0.128-0.078,0.265-0.078,0.401v27.598H7.522V25.989c0-8.559,6.083-15.013,14.151-15.013c7.934,0,14.149,6.439,14.149,14.656  v7.106c0,0.595,0.482,1.077,1.077,1.077c0.597,0,1.078-0.482,1.078-1.077v-7.106c0-9.426-7.162-16.811-16.305-16.811  c-9.297,0-16.307,7.381-16.307,17.167v61.675c0,0.596,0.482,1.078,1.078,1.078h22.267h0.038h15.866h30.312h15.904  c0.594,0,1.076-0.482,1.076-1.078V58.99C91.908,58.853,91.883,58.716,91.831,58.589z M73.851,85.282L61.403,74.34l12.447-10.94  V85.282z M72.068,86.588H47.472l12.3-10.812L72.068,86.588z M59.771,72.906l-12.3-10.812h24.597L59.771,72.906z M58.14,74.34  L45.691,85.282V63.399L58.14,74.34z M89.753,86.588H76.005v-25.57c0-0.021-0.005-0.043-0.006-0.064  c-0.002-0.037-0.006-0.075-0.013-0.114c-0.005-0.034-0.013-0.066-0.021-0.099c-0.01-0.034-0.02-0.067-0.032-0.102  c-0.014-0.034-0.027-0.065-0.043-0.099c-0.017-0.03-0.031-0.059-0.049-0.088c-0.02-0.032-0.043-0.063-0.067-0.094  c-0.014-0.018-0.022-0.037-0.037-0.052c-0.008-0.01-0.016-0.016-0.023-0.023c-0.027-0.028-0.056-0.053-0.084-0.079  c-0.025-0.021-0.051-0.043-0.077-0.062c-0.028-0.021-0.06-0.037-0.09-0.056c-0.03-0.016-0.06-0.034-0.091-0.047  c-0.031-0.017-0.063-0.025-0.098-0.037c-0.033-0.012-0.066-0.022-0.102-0.03c-0.031-0.009-0.063-0.012-0.098-0.017  c-0.037-0.006-0.074-0.011-0.114-0.012c-0.011-0.001-0.021-0.004-0.032-0.004H44.616c-0.013,0-0.023,0.003-0.035,0.004  c-0.037,0.001-0.074,0.006-0.11,0.012c-0.034,0.005-0.068,0.008-0.1,0.017c-0.035,0.008-0.065,0.019-0.099,0.029  c-0.034,0.012-0.069,0.021-0.102,0.038c-0.029,0.013-0.06,0.03-0.087,0.046c-0.032,0.019-0.064,0.036-0.094,0.058  c-0.026,0.02-0.049,0.041-0.076,0.061c-0.027,0.026-0.057,0.052-0.083,0.08c-0.009,0.008-0.018,0.014-0.024,0.023  c-0.015,0.015-0.023,0.034-0.037,0.052c-0.023,0.03-0.047,0.062-0.067,0.094c-0.017,0.029-0.033,0.06-0.049,0.088  c-0.015,0.033-0.03,0.064-0.043,0.099s-0.022,0.067-0.031,0.102c-0.009,0.032-0.018,0.064-0.022,0.099  c-0.008,0.039-0.01,0.077-0.012,0.114c-0.002,0.021-0.006,0.043-0.006,0.064v25.57H29.79V59.199l8.563-21.307l21.418-8.754  l21.419,8.754l8.562,21.307V86.588z"/>
                <path fill="#000000" d="M68.875,52.775h-18.19c-0.596,0-1.079-0.482-1.079-1.077V41.4c0-0.595,0.483-1.076,1.079-1.076h18.19   c0.596,0,1.078,0.481,1.078,1.076v10.298C69.953,52.293,69.471,52.775,68.875,52.775z M51.761,50.619h16.037v-8.141H51.761V50.619z   "/>
            </g>
        </g>
    </g>
</svg>