<?xml version="1.0" encoding="UTF-8"?>
<svg width="44px" height="44px" viewBox="0 0 44 44" version="1.1" xmlns="http://www.w3.org/2000/svg" xmlns:xlink="http://www.w3.org/1999/xlink">
    <title>icon-1931Aneg</title>
    <g id="PSR" stroke="none" stroke-width="1" fill="none" fill-rule="evenodd">
        <g id="icone-bandi-PSR" transform="translate(-286.000000, -1832.000000)">
            <g id="icon-1931Aneg" transform="translate(286.000000, 1832.000000)">
                <rect id="Rectangle" fill="#30373D" x="0" y="0" width="44" height="44" rx="4"></rect>
                <g id="users" transform="translate(6.000000, 6.000000)" fill-rule="nonzero">
                    <path d="M28.575625,22.7993125 C28.9619375,22.2098125 29.1875,21.5059375 29.1875,20.75 C29.1875,19.32775 28.3915625,18.087875 27.22175,17.452375 C27.023375,15.9044375 26.4941875,14.381375 25.6748125,13.016 C24.856875,11.6530625 23.765875,10.4705 22.50325,9.571 C22.213625,7.7565625 20.879125,6.28725 19.138125,5.79925 C19.5244375,5.2098125 19.75,4.5059375 19.75,3.75 C19.75,1.68225 18.06775,0 16,0 C13.93225,0 12.25,1.68225 12.25,3.75 C12.25,4.5059375 12.4755625,5.2098125 12.861875,5.7993125 C11.120875,6.28725 9.786375,7.756625 9.49675,9.5710625 C8.234125,10.4705 7.143125,11.653125 6.3251875,13.0160625 C5.5058125,14.3814375 4.976625,15.9044375 4.77825,17.4524375 C3.6084375,18.087875 2.8125,19.32775 2.8125,20.75 C2.8125,21.5059375 3.0380625,22.2098125 3.424375,22.7993125 C1.4515,23.35225 0,25.1654375 0,27.3125 L0,31.0625 C0,31.58025 0.41975,32 0.9375,32 L12.1875,32 C12.70525,32 13.125,31.58025 13.125,31.0625 L13.125,29.75125 C14.005125,29.9576875 14.966875,30.0625 16,30.0625 C17.0330625,30.0625 17.994875,29.9576875 18.875,29.75125 L18.875,31.0625 C18.875,31.58025 19.29475,32 19.8125,32 L31.0625,32 C31.58025,32 32,31.58025 32,31.0625 L32,27.3125 C32,25.1654375 30.5485,23.35225 28.575625,22.7993125 Z M27.3125,20.75 C27.3125,21.783875 26.471375,22.625 25.4375,22.625 C24.403625,22.625 23.5625,21.783875 23.5625,20.75 C23.5625,19.716125 24.403625,18.875 25.4375,18.875 C26.471375,18.875 27.3125,19.716125 27.3125,20.75 Z M16,1.875 C17.033875,1.875 17.875,2.716125 17.875,3.75 C17.875,4.783875 17.033875,5.625 16,5.625 C14.966125,5.625 14.125,4.783875 14.125,3.75 C14.125,2.716125 14.966125,1.875 16,1.875 Z M11.3125,10.3125 C11.3125,8.7616875 12.5741875,7.5 14.125,7.5 L17.875,7.5 C19.4258125,7.5 20.6875,8.7616875 20.6875,10.3125 L20.6875,13.125 L11.3125,13.125 L11.3125,10.3125 Z M6.5625,18.875 C7.596375,18.875 8.4375,19.716125 8.4375,20.75 C8.4375,21.783875 7.596375,22.625 6.5625,22.625 C5.528625,22.625 4.6875,21.783875 4.6875,20.75 C4.6875,19.716125 5.528625,18.875 6.5625,18.875 Z M11.25,30.125 L1.875,30.125 L1.875,27.3125 C1.875,25.7616875 3.1366875,24.5 4.6875,24.5 L8.4375,24.5 C9.9883125,24.5 11.25,25.7616875 11.25,27.3125 L11.25,30.125 Z M18.875,27.3125 L18.875,27.8126875 C18.0293125,28.058625 17.04875,28.1875 16,28.1875 C14.9511875,28.1875 13.9706875,28.058625 13.125,27.8126875 L13.125,27.3125 C13.125,25.1654375 11.6735,23.35225 9.700625,22.7993125 C10.0869375,22.2098125 10.3125,21.5059375 10.3125,20.75 C10.3125,18.746125 8.7325625,17.104375 6.753,17.0048125 C7.137,15.1484375 8.0908125,13.401875 9.4375,12.0655625 L9.4375,14.0625 C9.4375,14.58025 9.85725,15 10.375,15 L21.625,15 C22.14275,15 22.5625,14.58025 22.5625,14.0625 L22.5625,12.0655625 C23.9091875,13.401875 24.863,15.1484375 25.247,17.0048125 C23.2674375,17.104375 21.6875,18.746125 21.6875,20.75 C21.6875,21.5059375 21.9130625,22.2098125 22.299375,22.7993125 C20.3265,23.35225 18.875,25.1654375 18.875,27.3125 Z M30.125,30.125 L20.75,30.125 L20.75,27.3125 C20.75,25.7616875 22.0116875,24.5 23.5625,24.5 L27.3125,24.5 C28.8633125,24.5 30.125,25.7616875 30.125,27.3125 L30.125,30.125 Z" id="Shape" fill="#FFFFFF"></path>
                    <path d="M19.475375,17.2120625 C19.1093125,16.8459375 18.5156875,16.8459375 18.1495625,17.2120625 L15.0625,20.2991875 L13.850375,19.0870625 C13.4843125,18.7209375 12.8906875,18.7209375 12.5245625,19.0870625 C12.1584375,19.4531875 12.1584375,20.04675 12.5245625,20.412875 L14.3995625,22.287875 C14.765625,22.6539375 15.35925,22.654 15.725375,22.287875 L19.475375,18.537875 C19.8415,18.1718125 19.8415,17.5781875 19.475375,17.2120625 Z" id="Path" fill="#01985A"></path>
                </g>
            </g>
        </g>
    </g>
</svg>