<?xml version="1.0" encoding="UTF-8"?>
<svg width="44px" height="44px" viewBox="0 0 44 44" version="1.1" xmlns="http://www.w3.org/2000/svg" xmlns:xlink="http://www.w3.org/1999/xlink">
    <title>icon-1941A</title>
    <g id="PSR" stroke="none" stroke-width="1" fill="none" fill-rule="evenodd">
        <g id="icone-bandi-PSR" transform="translate(-234.000000, -1903.000000)">
            <g id="icon-1941A" transform="translate(234.000000, 1903.000000)">
                <g id="Rectangle" fill="#F7F7F7" stroke="#D8D8D8">
                    <rect x="0.5" y="0.5" width="43" height="43" rx="4"></rect>
                </g>
                <g id="fireworks" transform="translate(4.000000, 4.000000)" fill="#30373D" fill-rule="nonzero">
                    <path d="M15.6241406,16.1016011 C15.4783125,16.1016011 15.3332578,16.0562812 15.2107734,15.9672656 C14.9942109,15.8099766 14.8857891,15.5433516 14.9310703,15.2795391 L15.3223594,12.9981797 L13.6648125,11.3825391 C13.4731406,11.1957187 13.4041641,10.9162969 13.4868516,10.6617656 C13.5695391,10.4072344 13.7896172,10.22175 14.0544844,10.1832187 L16.345125,9.85035937 L17.3695078,7.77473437 C17.4879844,7.53475781 17.7323906,7.3828125 18,7.3828125 C18.2676797,7.3828125 18.5120859,7.53475781 18.6305625,7.77473437 L19.654875,9.85035937 L21.9454453,10.1832187 C22.2103828,10.2216797 22.4303203,10.4072344 22.5130781,10.6617656 C22.5957656,10.9162969 22.5267891,11.1957187 22.3351875,11.3825391 L20.6777109,12.99825 L21.069,15.2796094 C21.1142813,15.5433516 21.0057891,15.8099766 20.7892266,15.9673359 C20.5726641,16.124625 20.2855781,16.1453672 20.0487656,16.0208437 L18,14.9437266 L15.9512344,16.0207734 C15.8483672,16.0749141 15.7360078,16.1016011 15.6241406,16.1016011 L15.6241406,16.1016011 Z M15.6666094,11.3700234 L16.5686484,12.2492109 C16.734375,12.4107187 16.8100313,12.6434531 16.7708672,12.8716172 L16.5579609,14.113125 L17.6729063,13.527 C17.8777969,13.4192812 18.1224844,13.4193516 18.3273047,13.527 L19.44225,14.113125 L19.2292734,12.8716172 C19.1901797,12.6435234 19.2658359,12.4107891 19.4314922,12.2492812 L20.3335313,11.3700234 L19.0870313,11.1888984 C18.8579531,11.1556406 18.6600234,11.0117813 18.5575781,10.8042891 L18,9.67471875 L17.4424922,10.8042891 C17.3400469,11.0117813 17.1421172,11.1556406 16.9131094,11.1888984 L15.6666094,11.3700234 Z" id="XMLID_387_"></path>
                    <path d="M13.1421797,25.7871094 C12.9295547,25.7871094 12.7250859,25.6905 12.5901562,25.5194297 L11.4385781,24.0596016 L9.58317188,24.1806797 C9.31654688,24.1981875 9.06229688,24.0623438 8.92849219,23.8305938 C8.7946875,23.5988438 8.80403906,23.311125 8.95267969,23.0885859 L9.98521875,21.5422734 L9.29671875,19.8150469 C9.19757812,19.5664219 9.24827344,19.2831328 9.42728906,19.0842188 C9.60644531,18.8853047 9.88284375,18.8052891 10.1404688,18.8779219 L11.9302031,19.3820625 L13.3601484,18.1935703 C13.5660938,18.0225 13.8511406,17.983125 14.0956172,18.0919688 C14.3400938,18.2008125 14.5016016,18.4390313 14.5122188,18.7065 L14.5857656,20.5643672 L16.1579531,21.5570391 C16.3842188,21.6999141 16.5097969,21.958875 16.4818828,22.2250781 C16.4538984,22.4912813 16.2772031,22.7184609 16.0261875,22.8111328 L14.2819453,23.4552656 L13.8236484,25.2572344 C13.7576953,25.5166172 13.5502031,25.7160937 13.2884297,25.7717109 C13.2397031,25.7820469 13.1907656,25.7871094 13.1421797,25.7871094 L13.1421797,25.7871094 Z M11.7617344,22.6307109 C11.9761172,22.6307109 12.1798828,22.7287266 12.3136875,22.8983906 L12.8118516,23.5299375 L13.0100625,22.7504531 C13.0670859,22.5261563 13.2308437,22.3443281 13.4478984,22.2641016 L14.2024219,21.9854531 L13.5222891,21.5560547 C13.3266094,21.4325156 13.2042656,21.2205938 13.195125,20.9893359 L13.1632734,20.1856641 L12.5447344,20.6997891 C12.3667031,20.8477266 12.1273594,20.8986328 11.9046094,20.8358438 L11.1303984,20.6177344 L11.4282422,21.3649453 C11.5139531,21.5798906 11.4883594,21.8233125 11.3598281,22.0157578 L10.9131328,22.6846406 L11.71575,22.6322578 C11.7312187,22.6312031 11.7465469,22.6307109 11.7617344,22.6307109 L11.7617344,22.6307109 Z" id="XMLID_384_"></path>
                    <path d="M22.87575,25.7871094 C22.8271641,25.7871094 22.7781563,25.7820469 22.7295,25.7717109 C22.4677266,25.7160234 22.2602344,25.5166172 22.1942812,25.2572344 L21.7359844,23.4551953 L19.9916719,22.8110625 C19.7405859,22.7183203 19.5638906,22.4911406 19.5359063,22.2250078 C19.5079922,21.9588047 19.6335,21.6998437 19.8598359,21.5569688 L21.4320938,20.5642969 L21.5056406,18.7064297 C21.5161875,18.4389609 21.6776953,18.2008125 21.9222422,18.0918984 C22.1667891,17.9829844 22.4519063,18.0224297 22.6576406,18.1935 L24.0875859,19.3819922 L25.8773906,18.8778516 C26.1347344,18.8053594 26.4114141,18.8852344 26.5905703,19.0841484 C26.7696563,19.2830625 26.8202813,19.5663516 26.7211406,19.8149766 L26.0327109,21.5422031 L27.06525,23.0885156 C27.2138203,23.311125 27.2232422,23.5987734 27.0894375,23.8305234 C26.9556328,24.0622734 26.7027188,24.1980469 26.4346875,24.1806094 L24.5792813,24.0595313 L23.4277031,25.5193594 C23.2927734,25.6904297 23.0883047,25.7871094 22.87575,25.7871094 L22.87575,25.7871094 Z M21.8152969,21.9854531 L22.5698906,22.2641016 C22.7870156,22.3442578 22.9507031,22.5261562 23.0077969,22.7503828 L23.2060078,23.5299375 L23.7041719,22.8983906 C23.8475391,22.7167031 24.0705,22.6174922 24.3020391,22.6321875 L25.1046563,22.6845703 L24.6579609,22.0156875 C24.5294297,21.8232422 24.5039063,21.5798203 24.5895469,21.364875 L24.8873203,20.6176641 L24.1130391,20.8357734 C23.8902891,20.8984219 23.650875,20.8475859 23.4729844,20.6997188 L22.854375,20.1855938 L22.8225938,20.9892656 C22.8134531,21.2205234 22.6911094,21.4324453 22.4954297,21.5559844 L21.8152969,21.9854531 Z" id="XMLID_381_"></path>
                    <path d="M18.0091406,36 C17.8242188,36 17.6428125,35.9247656 17.5120312,35.7939844 C17.3805469,35.6632031 17.3060156,35.4817969 17.3060156,35.296875 C17.3060156,35.1119531 17.3805469,34.9305469 17.5120312,34.7997656 C17.6428125,34.6689844 17.8242188,34.59375 18.0091406,34.59375 C18.1940625,34.59375 18.3754687,34.6689844 18.50625,34.7997656 C18.6369609,34.9305469 18.7122656,35.1119531 18.7122656,35.296875 C18.7122656,35.4817969 18.6370312,35.6632031 18.50625,35.7939844 C18.3754687,35.9247656 18.1940625,36 18.0091406,36 Z" id="XMLID_380_"></path>
                    <path d="M18.0089297,32.8359375 C17.6205938,32.8359375 17.3058047,32.5211484 17.3058047,32.1328125 L17.3058047,25.6992188 C17.3058047,25.3108828 17.6205938,24.9960938 18.0089297,24.9960938 C18.3971953,24.9960938 18.7120547,25.3108828 18.7120547,25.6992188 L18.7120547,32.1328125 C18.7120547,32.5211484 18.3971953,32.8359375 18.0089297,32.8359375 Z" id="XMLID_379_"></path>
                    <path d="M3.02484375,10.0469531 C2.83992187,10.0469531 2.65851563,9.97171875 2.52773438,9.8409375 C2.39695313,9.71015625 2.32171875,9.52875 2.32171875,9.34382812 C2.32171875,9.15890625 2.39695313,8.9775 2.52773438,8.84671875 C2.65851563,8.7159375 2.83992187,8.64070312 3.02484375,8.64070312 C3.20976563,8.64070312 3.39117188,8.7159375 3.52195313,8.84671875 C3.65273438,8.9775 3.72796875,9.15890625 3.72796875,9.34382812 C3.72796875,9.52875 3.65273438,9.71015625 3.52195313,9.8409375 C3.39117188,9.97171875 3.20976563,10.0469531 3.02484375,10.0469531 Z" id="XMLID_378_"></path>
                    <path d="M10.73925,14.5013203 C10.6199297,14.5013203 10.4990625,14.4709453 10.3883203,14.4070312 L5.41371094,11.5349766 C5.07740625,11.3408437 4.96216406,10.9108125 5.15636719,10.5745078 C5.35057031,10.2382031 5.78053125,10.1230313 6.11683594,10.3171641 L11.0914453,13.1892188 C11.42775,13.3833516 11.5429922,13.8133828 11.3487891,14.1496875 C11.2185703,14.3751797 10.9821797,14.5013203 10.73925,14.5013203 Z" id="XMLID_377_"></path>
                    <path d="M32.9750859,10.0469531 C32.7894609,10.0469531 32.6087578,9.97171875 32.4780469,9.8409375 C32.3472656,9.71015625 32.2719609,9.52875 32.2719609,9.34382812 C32.2719609,9.15890625 32.3471953,8.9775 32.4780469,8.84671875 C32.6087578,8.7159375 32.7895312,8.64070312 32.9750859,8.64070312 C33.1600078,8.64070312 33.3414141,8.7159375 33.4721953,8.84671875 C33.6029766,8.9775 33.6782109,9.15890625 33.6782109,9.34382812 C33.6782109,9.52875 33.6030469,9.71015625 33.4721953,9.8409375 C33.3414844,9.97171875 33.1600078,10.0469531 32.9750859,10.0469531 Z" id="XMLID_376_"></path>
                    <path d="M25.2608203,14.5013203 C25.01775,14.5013203 24.7815,14.37525 24.6512109,14.1496875 C24.4570078,13.8133828 24.57225,13.3833516 24.9085547,13.1892188 L29.8863984,10.3152656 C30.2227031,10.1211328 30.6527344,10.2363047 30.8468672,10.5726094 C31.0410703,10.9089141 30.9258281,11.3389453 30.5895234,11.5330781 L25.6116797,14.4070312 C25.5010078,14.4709453 25.3800703,14.5013203 25.2608203,14.5013203 Z" id="XMLID_375_"></path>
                    <path d="M12.1295391,8.53417969 C11.8865391,8.53417969 11.6502188,8.40810938 11.52,8.18247656 L7.5751875,1.34985938 C7.38098437,1.01355469 7.49622656,0.583523438 7.83253125,0.389390625 C8.16876562,0.195117188 8.59886719,0.310429688 8.793,0.646734375 L12.7378125,7.47935156 C12.9320156,7.81565625 12.8167031,8.2456875 12.4804688,8.43982031 C12.3697266,8.50380469 12.2488594,8.53417969 12.1295391,8.53417969 L12.1295391,8.53417969 Z" id="XMLID_374_"></path>
                    <path d="M6.2578125,18.703125 L0.703125,18.703125 C0.314789063,18.703125 0,18.3883359 0,18 C0,17.6116641 0.314789063,17.296875 0.703125,17.296875 L6.2578125,17.296875 C6.64614844,17.296875 6.9609375,17.6116641 6.9609375,18 C6.9609375,18.3883359 6.64614844,18.703125 6.2578125,18.703125 Z" id="XMLID_373_"></path>
                    <path d="M8.18339063,35.7048984 C8.06407031,35.7048984 7.94320313,35.6745234 7.83246094,35.6106094 C7.49615625,35.4164766 7.38091406,34.9864453 7.57511719,34.6501406 L11.5199297,27.8175234 C11.7141328,27.4812187 12.1442344,27.3661172 12.4803984,27.5601797 C12.8167031,27.7543125 12.9319453,28.1844141 12.7377422,28.5206484 L8.79292969,35.3532656 C8.66278125,35.5788281 8.42639062,35.7048984 8.18339063,35.7048984 L8.18339063,35.7048984 Z" id="XMLID_372_"></path>
                    <path d="M27.8166094,35.7048984 C27.5735391,35.7048984 27.3372891,35.5788281 27.207,35.3532656 L23.2621875,28.5206484 C23.0679844,28.1843438 23.1832266,27.7543125 23.5195312,27.5601797 C23.8558359,27.3660469 24.2858672,27.4812891 24.48,27.8175234 L28.4248125,34.6501406 C28.6190156,34.9864453 28.5037734,35.4164766 28.1674688,35.6106094 C28.0567969,35.6745234 27.9358594,35.7048984 27.8166094,35.7048984 L27.8166094,35.7048984 Z" id="XMLID_371_"></path>
                    <path d="M35.296875,18.703125 L29.7421875,18.703125 C29.3539219,18.703125 29.0390625,18.3883359 29.0390625,18 C29.0390625,17.6116641 29.3539219,17.296875 29.7421875,17.296875 L35.296875,17.296875 C35.6851406,17.296875 36,17.6116641 36,18 C36,18.3883359 35.6851406,18.703125 35.296875,18.703125 Z" id="XMLID_370_"></path>
                    <path d="M23.8703906,8.53417969 C23.7511406,8.53417969 23.6302734,8.50380469 23.5195312,8.43989063 C23.1832266,8.24575781 23.0679844,7.81572656 23.2621875,7.47942188 L27.207,0.646804688 C27.4012031,0.310570313 27.8310234,0.195257813 28.1674688,0.389460938 C28.5037734,0.58359375 28.6190156,1.013625 28.4248125,1.34992969 L24.48,8.18254688 C24.3498516,8.40803906 24.1133906,8.53417969 23.8703906,8.53417969 Z" id="XMLID_369_"></path>
                    <path d="M18,5.203125 C17.6116641,5.203125 17.296875,4.88833594 17.296875,4.5 L17.296875,0.703125 C17.296875,0.314789063 17.6116641,0 18,0 C18.3882656,0 18.703125,0.314789063 18.703125,0.703125 L18.703125,4.5 C18.703125,4.88833594 18.3882656,5.203125 18,5.203125 Z" id="XMLID_368_"></path>
                    <path d="M3.02111719,27.3516328 C2.77811719,27.3516328 2.54179688,27.2255625 2.41157813,27 C2.217375,26.6636953 2.33261719,26.2336641 2.66892188,26.0395312 L5.95715625,24.1410937 C6.29339062,23.9468203 6.72349219,24.0621328 6.917625,24.3984375 C7.11182812,24.7347422 6.99658594,25.1647734 6.66028125,25.3589063 L3.37204687,27.2573438 C3.26130469,27.3212578 3.14036719,27.3516328 3.02111719,27.3516328 L3.02111719,27.3516328 Z" id="XMLID_367_"></path>
                    <path d="M3.02111719,27.3516328 C2.77811719,27.3516328 2.54179688,27.2255625 2.41157813,27 C2.217375,26.6636953 2.33261719,26.2336641 2.66892188,26.0395312 L5.95715625,24.1410937 C6.29339062,23.9468203 6.72349219,24.0621328 6.917625,24.3984375 C7.11182812,24.7347422 6.99658594,25.1647734 6.66028125,25.3589063 L3.37204687,27.2573438 C3.26130469,27.3212578 3.14036719,27.3516328 3.02111719,27.3516328 L3.02111719,27.3516328 Z" id="XMLID_366_"></path>
                    <path d="M32.9788125,27.3516328 C32.8595625,27.3516328 32.7386953,27.3212578 32.6279531,27.2573437 L29.3397891,25.3589062 C29.0034844,25.1647734 28.8882422,24.7347422 29.0824453,24.3984375 C29.2766484,24.0622031 29.7065391,23.9468906 30.0429141,24.1410937 L33.3310781,26.0395312 C33.6673828,26.2336641 33.782625,26.6636953 33.5884219,27 C33.4582031,27.2255625 33.2218125,27.3516328 32.9788125,27.3516328 L32.9788125,27.3516328 Z" id="XMLID_365_"></path>
                </g>
            </g>
        </g>
    </g>
</svg>