<?xml version="1.0" encoding="UTF-8"?>
<svg width="44px" height="44px" viewBox="0 0 44 44" version="1.1" xmlns="http://www.w3.org/2000/svg" xmlns:xlink="http://www.w3.org/1999/xlink">
    <title>icon-731Aneg</title>
    <g id="PSR" stroke="none" stroke-width="1" fill="none" fill-rule="evenodd">
        <g id="icone-bandi-PSR" transform="translate(-286.000000, -1017.000000)">
            <g id="icon-731Aneg" transform="translate(286.000000, 1017.000000)">
                <rect id="Rectangle" fill="#30373D" x="0" y="0" width="44" height="44" rx="4"></rect>
                <g id="antenna" transform="translate(7.000000, 10.000000)" fill="#FFFFFF" fill-rule="nonzero">
                    <path d="M14.896028,6.80844375 C13.1313103,6.80844375 11.695597,8.1963 11.695597,9.90219375 C11.695597,11.3155875 12.6815043,12.5097187 14.0231832,12.8780437 L14.0231832,22.5021937 C14.0231832,22.9681688 14.4139849,23.3459437 14.896028,23.3459437 C15.3780711,23.3459437 15.7688728,22.9681688 15.7688728,22.5021937 L15.7688728,12.8780437 C17.1105517,12.509775 18.0964591,11.3155875 18.0964591,9.90219375 C18.0964591,8.1963 16.6607457,6.80844375 14.896028,6.80844375 L14.896028,6.80844375 Z M14.896028,11.3084437 C14.0938836,11.3084437 13.4412866,10.6776 13.4412866,9.90219375 C13.4412866,9.1267875 14.0938836,8.49594375 14.896028,8.49594375 C15.6981724,8.49594375 16.3507694,9.1267875 16.3507694,9.90219375 C16.3507694,10.6776 15.6981724,11.3084437 14.896028,11.3084437 L14.896028,11.3084437 Z" id="Shape"></path>
                    <path d="M10.8580151,5.39128125 C10.5171983,5.06176875 9.96457112,5.06176875 9.62363793,5.39128125 C6.91752802,8.007075 6.91712069,12.2414625 9.62363793,14.85765 C9.96457112,15.1871625 10.5171401,15.1871625 10.8580151,14.85765 C11.1988901,14.5281937 11.1988901,13.9939312 10.8580151,13.6644187 C8.83417888,11.7081 8.83382974,8.54116875 10.8580151,6.5845125 C11.1988901,6.255 11.1988901,5.7207375 10.8580151,5.39128125 L10.8580151,5.39128125 Z" id="Path"></path>
                    <path d="M20.1683599,5.39128125 C19.8275431,5.061825 19.2748578,5.061825 18.9339828,5.39128125 C18.5931078,5.7207375 18.5931078,6.255 18.9339828,6.5845125 C20.953222,8.53644375 20.953222,11.7124875 18.9339828,13.6644188 C18.5931078,13.993875 18.5931078,14.5281375 18.9339828,14.85765 C19.2749159,15.1871625 19.8274849,15.1871625 20.1683599,14.85765 C22.8683017,12.2478188 22.8683017,8.0011125 20.1683599,5.39128125 Z" id="Path"></path>
                    <path d="M8.22464224,4.03891875 C8.56551724,3.7094625 8.56551724,3.1752 8.22464224,2.8456875 C7.88382543,2.51623125 7.33114009,2.51623125 6.99026509,2.8456875 C2.83831681,6.8592375 2.83831681,13.3896937 6.99026509,17.4032437 C7.33102371,17.7327 7.88370905,17.7328687 8.22464224,17.4032437 C8.56551724,17.0737875 8.56551724,16.539525 8.22464224,16.2100125 C4.75339655,12.8544187 4.75339655,7.3945125 8.22464224,4.03891875 Z" id="Path"></path>
                    <path d="M22.8017328,2.8456875 C22.4609159,2.51623125 21.9082306,2.51623125 21.5673556,2.8456875 C21.2264806,3.17514375 21.2264806,3.70940625 21.5673556,4.03891875 C25.0386013,7.3945125 25.0386013,12.8544188 21.5673556,16.2100125 C21.2264806,16.5394688 21.2264806,17.0737312 21.5673556,17.4032437 C21.9082888,17.7327563 22.4608578,17.7327563 22.8017328,17.4032437 C26.953681,13.3896937 26.953681,6.8592375 22.8017328,2.8456875 Z" id="Path"></path>
                    <path d="M5.5912694,1.493325 C5.9321444,1.16386875 5.9321444,0.62960625 5.5912694,0.30009375 C5.25045259,-0.0293625 4.69776724,-0.0293625 4.35689224,0.30009375 C-1.45864009,5.92171875 -1.44601293,14.3393625 4.35689224,19.9488375 C4.69765086,20.2782937 5.25033621,20.2784625 5.5912694,19.9488375 C5.9321444,19.6193812 5.9321444,19.0851187 5.5912694,18.7556062 C0.50112931,13.835025 0.50112931,6.41390625 5.5912694,1.493325 Z" id="Path"></path>
                    <path d="M25.4351056,0.30009375 C25.0942888,-0.0293625 24.5416034,-0.0293625 24.2007284,0.30009375 C23.8598534,0.62955 23.8598534,1.1638125 24.2007284,1.493325 C29.2909849,6.41390625 29.2909849,13.835025 24.2007284,18.7556062 C23.8598534,19.0850625 23.8598534,19.619325 24.2007284,19.9488375 C24.5416616,20.27835 25.0942306,20.27835 25.4351056,19.9488375 C31.2505797,14.3272687 31.238069,5.90956875 25.4351056,0.30009375 Z" id="Path"></path>
                </g>
            </g>
        </g>
    </g>
</svg>