<?xml version="1.0" encoding="UTF-8"?>
<svg width="44px" height="44px" viewBox="0 0 44 44" version="1.1" xmlns="http://www.w3.org/2000/svg" xmlns:xlink="http://www.w3.org/1999/xlink">
    <title>icon-431Aneg</title>
    <defs>
        <polygon id="path-1" points="0 0.0003 13.5 0.0003 13.5 18 0 18"></polygon>
        <polygon id="path-3" points="0 0.0003 13.5 0.0003 13.5 18 0 18"></polygon>
    </defs>
    <g id="PSR" stroke="none" stroke-width="1" fill="none" fill-rule="evenodd">
        <g id="icone-bandi-PSR" transform="translate(-286.000000, -439.000000)">
            <g id="icon-431Aneg" transform="translate(286.000000, 439.000000)">
                <rect id="Rectangle" fill="#30373D" x="0" y="0" width="44" height="44" rx="4"></rect>
                <g id="Group" transform="translate(6.000000, 3.876882)">
                    <path d="M26.1319891,3.55271368e-15 C27.8107832,13.5319249 24.0501853,20.7081027 14.8321831,20.8625078 L14.5263158,20.8650534 C6.60166625,20.8650534 3.43265616,25.5658702 4.84528618,35.5861333 L4.90187693,35.9741523 L2.92419215,36.2720834 C1.22798625,25.0125644 5.04635192,19.0040757 14.2046737,18.8674371 L14.5263158,18.8650534 C22.410741,18.8650534 25.6410924,13.0247986 24.199392,0.679524496 L24.147205,0.246235758 L26.1319891,3.55271368e-15 Z" id="Path-2" fill="#01985A" fill-rule="nonzero"></path>
                    <g id="Group-3" transform="translate(0.000000, 0.123118)">
                        <mask id="mask-2" fill="white">
                            <use xlink:href="#path-1"></use>
                        </mask>
                        <g id="Clip-2"></g>
                        <path d="M12,4.0488 C12,5.12505 11.12475,6.0003 10.0485,6.0003 L7.5,6.0003 L7.5,3.45105 C7.5,2.37555 8.37525,1.5003 9.4515,1.5003 L12,1.5003 L12,4.0488 Z M3.4515,12.7503 C2.37525,12.7503 1.5,11.87505 1.5,10.7988 L1.5,8.2503 L4.0485,8.2503 C5.12475,8.2503 6,9.12555 6,10.20105 L6,12.7503 L3.4515,12.7503 Z M9.4515,0.0003 C7.548,0.0003 6,1.5483 6,3.45105 L6,7.3593 C5.44425,6.97605 4.773,6.7503 4.0485,6.7503 L0,6.7503 L0,10.7988 C0,12.70155 1.548,14.2503 3.4515,14.2503 L6,14.2503 L6,18.0003 L7.5,18.0003 L7.5,7.5003 L10.0485,7.5003 C11.952,7.5003 13.5,5.95155 13.5,4.0488 L13.5,0.0003 L9.4515,0.0003 Z" id="Fill-1" fill="#FFFFFF" mask="url(#mask-2)"></path>
                    </g>
                    <g id="Group-3" transform="translate(18.000000, 18.123118)">
                        <mask id="mask-4" fill="white">
                            <use xlink:href="#path-3"></use>
                        </mask>
                        <g id="Clip-2"></g>
                        <path d="M12,4.0488 C12,5.12505 11.12475,6.0003 10.0485,6.0003 L7.5,6.0003 L7.5,3.45105 C7.5,2.37555 8.37525,1.5003 9.4515,1.5003 L12,1.5003 L12,4.0488 Z M3.4515,12.7503 C2.37525,12.7503 1.5,11.87505 1.5,10.7988 L1.5,8.2503 L4.0485,8.2503 C5.12475,8.2503 6,9.12555 6,10.20105 L6,12.7503 L3.4515,12.7503 Z M9.4515,0.0003 C7.548,0.0003 6,1.5483 6,3.45105 L6,7.3593 C5.44425,6.97605 4.773,6.7503 4.0485,6.7503 L0,6.7503 L0,10.7988 C0,12.70155 1.548,14.2503 3.4515,14.2503 L6,14.2503 L6,18.0003 L7.5,18.0003 L7.5,7.5003 L10.0485,7.5003 C11.952,7.5003 13.5,5.95155 13.5,4.0488 L13.5,0.0003 L9.4515,0.0003 Z" id="Fill-1" fill="#FFFFFF" mask="url(#mask-4)"></path>
                    </g>
                </g>
            </g>
        </g>
    </g>
</svg>