<?xml version="1.0" encoding="UTF-8"?>
<svg width="44px" height="44px" viewBox="0 0 44 44" version="1.1" xmlns="http://www.w3.org/2000/svg" xmlns:xlink="http://www.w3.org/1999/xlink">
    <title>icon-121A</title>
    <defs>
        <polygon id="path-1" points="0.13396 0.18422 31.2586 0.18422 31.2586 22.96782 0.13396 22.96782"></polygon>
    </defs>
    <g id="PSR" stroke="none" stroke-width="1" fill="none" fill-rule="evenodd">
        <g id="icone-bandi-PSR" transform="translate(-234.000000, -214.000000)">
            <g id="icon-121A" transform="translate(234.000000, 214.000000)">
                <g id="Rectangle" fill="#F7F7F7" stroke="#D8D8D8">
                    <rect x="0.5" y="0.5" width="43" height="43" rx="4"></rect>
                </g>
                <g id="Group-10" transform="translate(4.000000, 9.000000)">
                    <g id="Group-3" transform="translate(3.600000, 0.015800)">
                        <mask id="mask-2" fill="white">
                            <use xlink:href="#path-1"></use>
                        </mask>
                        <g id="Clip-2"></g>
                        <path d="M0.77656,4.43262 C1.13156,4.43262 1.41936,4.14482 1.41936,3.78982 L1.41936,1.46962 L29.97336,1.46962 L29.97336,21.68242 L12.66976,21.68242 C12.31476,21.68242 12.02716,21.97022 12.02716,22.32502 C12.02716,22.67982 12.31476,22.96782 12.66976,22.96782 L30.61596,22.96782 C30.97096,22.96782 31.25876,22.67982 31.25876,22.32502 L31.25876,0.82682 C31.25876,0.47182 30.97096,0.18422 30.61596,0.18422 L0.77656,0.18422 C0.42176,0.18422 0.13396,0.47182 0.13396,0.82682 L0.13396,3.78982 C0.13396,4.14482 0.42176,4.43262 0.77656,4.43262" id="Fill-1" fill="#30373D" mask="url(#mask-2)"></path>
                    </g>
                    <path d="M14.9261404,19.17024 L14.9202204,19.17152 C14.8296604,19.1912 14.7365404,19.208 14.6408604,19.22016 C14.2381404,19.27216 13.9541404,19.64112 14.0061404,20.0432 C14.0587804,20.44592 14.4269404,20.72992 14.8296604,20.67728 C14.9666204,20.65984 15.1023004,20.63616 15.2359004,20.60704 C15.3552604,20.58144 15.4855004,20.55184 15.6224604,20.51072 L15.6251804,20.51008 C15.8511004,20.44112 16.0898204,20.36352 16.3328604,20.2624 C16.4455004,20.21584 16.5541404,20.16864 16.6599004,20.12064 L16.6706204,20.116 C16.7855004,20.06208 16.8927004,20.00736 16.9931804,19.95536 C17.2192604,19.84016 17.4269404,19.716 17.6239004,19.59264 C17.7461404,19.5176 17.8499804,19.44336 17.9424604,19.37744 L17.9464604,19.37456 C18.0407004,19.30592 18.1413404,19.23104 18.2459804,19.14528 L18.2520604,19.14048 C18.4333404,18.98736 18.6176604,18.82208 18.7957404,18.63536 C18.7970204,18.63392 18.7984604,18.63264 18.7997404,18.6312 C18.8003804,18.63056 18.8003804,18.62976 18.8010204,18.62976 C19.0743004,18.34672 19.3191004,18.06256 19.5543004,17.79952 L21.5728604,17.32864 C22.7000604,17.11552 23.7874204,16.69184 24.7738204,16.06704 C25.7643804,15.43984 26.6527004,14.60864 27.3671004,13.58992 C27.9293404,12.79056 28.3466204,11.92976 28.6215004,11.04208 C28.8978204,10.15504 29.0331804,9.24032 29.0331804,8.33088 C29.0331804,7.15568 28.8080604,5.98928 28.3687004,4.89792 L28.3687004,4.89728 C28.2635804,4.63664 28.0867804,4.41824 27.8658204,4.26368 C27.6461404,4.10928 27.3808604,4.01616 27.1003804,4.00608 L27.0989404,4.00608 C26.9912604,4.00208 26.8821404,4 26.7730204,4 C25.3306204,4 23.9007004,4.33936 22.6061404,4.99712 C21.3115804,5.65408 20.1538204,6.63168 19.2631004,7.90032 C18.7195804,8.67408 18.2890204,9.5072 17.9943004,10.37424 C17.6987804,11.24032 17.5391004,12.1416 17.5391004,13.04688 C17.5391004,13.59136 17.5970204,14.13712 17.7170204,14.676 L17.7264604,14.71264 L18.3477404,16.9448 C18.1392604,17.17952 17.9403804,17.40624 17.7407004,17.61264 L17.7352604,17.61792 C17.6085404,17.75168 17.4653404,17.8816 17.3095004,18.0128 C17.2442204,18.06656 17.1685404,18.1232 17.0843804,18.1848 C16.9971804,18.24672 16.9216604,18.30016 16.8543004,18.34112 L16.8482204,18.34464 C16.6687004,18.45712 16.4967004,18.5592 16.3247004,18.64688 L16.3219804,18.648 C16.2269404,18.69744 16.1371804,18.74256 16.0514204,18.78304 C15.9563804,18.82544 15.8626204,18.86672 15.7701404,18.90528 L15.7667804,18.9064 C15.5975004,18.97728 15.4058204,19.04064 15.1987804,19.10336 C15.1219804,19.1264 15.0295004,19.14848 14.9261404,19.17024 M19.3853404,10.84768 C19.6317404,10.12192 19.9978204,9.41168 20.4661404,8.74512 C21.2162204,7.67568 22.1861404,6.85968 23.2720604,6.30704 C24.3579804,5.7552 25.5613404,5.46992 26.7730204,5.46992 C26.8544604,5.46992 26.9360604,5.4712 27.0162204,5.47392 C27.3767004,6.38256 27.5631004,7.35392 27.5631004,8.33088 C27.5631004,9.0944 27.4498204,9.86224 27.2178204,10.60624 C26.9871004,11.3504 26.6375004,12.07152 26.1650204,12.74544 L26.1635804,12.74544 C25.5613404,13.60352 24.8194204,14.29904 23.9863004,14.82592 C23.1546204,15.3528 22.2346204,15.71024 21.2799004,15.88832 L21.2480604,15.89504 L21.0698204,15.9368 C21.1831004,15.77712 21.2936604,15.61504 21.4015004,15.452 L21.4027804,15.44848 C21.6501404,15.0672 21.8891804,14.676 22.1088604,14.26928 L22.1115804,14.26608 C22.3256604,13.86672 22.5357404,13.4464 22.7085404,12.98688 C22.8506204,12.60704 22.6600604,12.18336 22.2800604,12.04032 C21.9002204,11.89744 21.4760604,12.08976 21.3336604,12.4696 C21.1955804,12.83584 21.0173404,13.19664 20.8170204,13.56976 C20.6208604,13.93216 20.4026204,14.28944 20.1719004,14.6464 C19.9591004,14.97024 19.7338204,15.28592 19.4976604,15.5936 L19.1485404,14.3408 C19.0539804,13.91504 19.0082204,13.48272 19.0082204,13.04688 C19.0082204,12.31488 19.1376604,11.5736 19.3853404,10.84768" id="Fill-7" fill="#30373D" transform="translate(21.516590, 12.341781) scale(-1, 1) translate(-21.516590, -12.341781) "></path>
                    <path d="M4.37666,7.25858 C6.01606,7.25858 7.34986,8.59238 7.34986,10.23178 C7.34986,11.87118 6.01606,13.20498 4.37666,13.20498 C2.73726,13.20498 1.40346,11.87118 1.40346,10.23178 C1.40346,8.59238 2.73726,7.25858 4.37666,7.25858 M4.37666,14.49038 C6.72486,14.49038 8.63526,12.57998 8.63526,10.23178 C8.63526,7.88358 6.72486,5.97318 4.37666,5.97318 C2.02846,5.97318 0.11806,7.88358 0.11806,10.23178 C0.11806,12.57998 2.02846,14.49038 4.37666,14.49038" id="Fill-4" fill="#30373D"></path>
                    <path d="M18.45068,14.7654 C18.13388,14.4776 17.81748,14.1884 17.49508,13.9058 L14.37408,17.3752 C14.00508,17.1136 13.55468,16.9596 13.06888,16.9596 C12.82808,16.9596 12.59088,16.9974 12.36368,17.0718 C12.36228,17.0724 12.36068,17.073 12.35928,17.0734 L8.66808,18.295 C8.50008,17.4594 8.08768,16.6956 7.46588,16.0888 C6.64388,15.2862 5.54668,14.8446 4.37668,14.8446 C1.96328,14.8446 8e-05,16.8078 8e-05,19.221 L8e-05,28.5732 C8e-05,28.928 0.28788,29.2158 0.64268,29.2158 C0.99768,29.2158 1.28548,28.928 1.28548,28.5732 L1.28548,19.221 C1.28548,17.5166 2.67208,16.1298 4.37668,16.1298 C5.95228,16.1298 7.21748,17.2286 7.43468,18.7034 L6.91268,18.8764 C6.57568,18.9876 6.39288,19.3514 6.50448,19.6884 C6.59368,19.9584 6.84488,20.1292 7.11448,20.1292 C7.18128,20.1292 7.24948,20.1188 7.31648,20.0964 L8.30008,19.7708 C8.30408,19.7696 8.30808,19.7684 8.31208,19.767 L12.76588,18.2928 C12.76648,18.2928 12.76708,18.2924 12.76748,18.2924 C12.86408,18.261 12.96548,18.245 13.06888,18.245 C13.60708,18.245 14.04488,18.6828 14.04488,19.221 C14.04488,19.6142 13.81088,19.9674 13.44848,20.1206 C13.44268,20.1232 13.43708,20.126 13.43128,20.1284 L7.61708,22.04 C7.52628,22.0674 7.43148,22.0812 7.33528,22.0812 C7.09468,22.0812 6.86368,21.993 6.68468,21.8326 L4.30488,19.6544 C4.04288,19.415 3.63648,19.433 3.39668,19.6946 C3.15708,19.9566 3.17528,20.363 3.43708,20.6028 L5.81908,22.783 C5.81928,22.7832 5.81968,22.7834 5.82008,22.7838 C5.82108,22.7846 5.82188,22.7856 5.82288,22.7864 C5.82828,22.7912 5.83388,22.7956 5.83928,22.8006 C5.84048,22.8018 5.84188,22.803 5.84308,22.8038 C6.25588,23.1666 6.78468,23.3666 7.33528,23.3666 C7.55988,23.3666 7.78208,23.3336 7.99548,23.2686 C7.99848,23.2676 8.00148,23.2666 8.00448,23.2654 C8.00588,23.265 8.00728,23.2648 8.00868,23.2642 L13.83328,21.3494 C13.85708,21.3416 13.88008,21.3322 13.90248,21.322 C13.91808,21.3168 13.93388,21.3112 13.94928,21.3044 C14.78828,20.9498 15.33028,20.1318 15.33028,19.221 C15.33028,18.933 15.27608,18.6576 15.17748,18.404 L18.45068,14.7654 Z" id="Fill-6" fill="#30373D"></path>
                    <path d="M8.75322,26.28162 L8.75322,24.86142 C8.75322,24.50662 8.46542,24.21882 8.11062,24.21882 C7.75562,24.21882 7.46782,24.50662 7.46782,24.86142 L7.46782,26.28162 C7.46782,26.63642 7.75562,26.92422 8.11062,26.92422 C8.46542,26.92422 8.75322,26.63642 8.75322,26.28162" id="Fill-8" fill="#30373D"></path>
                </g>
            </g>
        </g>
    </g>
</svg>