<?xml version="1.0" encoding="UTF-8"?>
<svg width="44px" height="44px" viewBox="0 0 44 44" version="1.1" xmlns="http://www.w3.org/2000/svg" xmlns:xlink="http://www.w3.org/1999/xlink">
    <title>icon-611A</title>
    <g id="PSR" stroke="none" stroke-width="1" fill="none" fill-rule="evenodd">
        <g id="icone-bandi-PSR" transform="translate(-234.000000, -1239.000000)">
            <g id="icon-611A" transform="translate(234.000000, 1239.000000)">
                <g id="Rectangle" fill="#F7F7F7" stroke="#D8D8D8">
                    <rect x="0.5" y="0.5" width="43" height="43" rx="4"></rect>
                </g>
                <g id="farmer-(1)" transform="translate(5.000000, 6.000000)" fill="#30373D">
                    <path d="M22.9113178,21.1914837 L18.5362673,19.3051392 L18.5362673,18.460544 C20.3985631,17.4133333 21.8077507,15.697792 22.4093272,13.6575744 C22.7747551,13.6712277 23.1243558,13.5693739 23.4630314,13.3637547 C23.9830904,13.0480896 24.334652,12.5333589 24.4038438,11.9872256 C24.4727554,11.44 24.2993557,10.8912725 23.9273448,10.4813995 C23.8180946,10.3609771 23.6925969,10.2592597 23.5588354,10.1705131 C26.358442,9.57481813 27.7803755,8.72899413 27.7803755,7.6512 C27.7803755,6.33979733 25.668625,5.51704747 23.018187,5.02375253 L23.018187,2.18986667 C23.018187,1.96991147 22.8827447,1.77152853 22.6748892,1.68633173 C17.3492217,-0.4945152 12.6132253,-0.4891904 8.19741594,1.70312533 C8.00944956,1.79651413 7.89123524,1.98452053 7.89123524,2.18973013 L7.89123524,4.9257216 C4.98447941,5.40509013 2.56878926,6.24845653 2.56878926,7.65106347 C2.56878926,8.7886592 4.13666979,9.66370133 7.22284807,10.2584405 C7.15953898,10.3084117 7.09805072,10.3615232 7.04048427,10.4195499 C6.66763292,10.7961088 6.47280338,11.2921344 6.49171207,11.8165589 C6.51328199,12.4007851 6.85335827,12.9648043 7.40157021,13.3256619 C7.74822952,13.5536725 8.10567378,13.6669952 8.47278249,13.6586667 C9.05881181,15.7458517 10.480185,17.4971648 12.3765165,18.5607595 C12.3763764,18.5664939 12.3731549,18.571136 12.3731549,18.5768704 L12.3731549,19.3050027 L7.99824441,21.1914837 C5.89125613,22.0997035 4.52969041,24.1322752 4.52969041,26.3696469 L4.52969041,30.8618667 C4.52969041,31.1634688 4.78054569,31.408 5.08994788,31.408 L9.01175018,31.408 L21.897672,31.408 L25.8194743,31.408 C26.1288765,31.408 26.3797318,31.1634688 26.3797318,30.8618667 L26.3797318,26.3696469 C26.3798719,24.1322752 25.0183061,22.0997035 22.9113178,21.1914837 L22.9113178,21.1914837 Z M9.04620601,9.2904192 C9.04368486,9.0344192 9.20363836,8.80832 9.44062727,8.730496 C9.50393637,8.71179093 9.56948649,8.69499733 9.63335584,8.67670187 C9.80143309,8.62795947 9.97203149,8.58768213 10.1413693,8.5428992 C9.7616548,8.85651627 9.39356565,9.10869333 9.04620601,9.2904192 Z M21.8545322,9.8171648 C18.1579534,11.8100053 14.2168222,9.33124267 12.708329,8.0194304 C15.482724,7.62198187 18.3235095,7.72629333 20.9577,8.35967147 C21.4955472,8.48896853 21.8653171,8.96369493 21.8574735,9.51351467 C21.8559328,9.62574507 21.8548123,9.72637013 21.8545322,9.8171648 L21.8545322,9.8171648 Z M9.01189024,2.5287424 C12.9359336,0.6847232 17.1580339,0.694007467 21.8978121,2.55563947 L21.8978121,4.83874987 C19.5748445,4.49864533 17.0252529,4.3744 15.1747224,4.3744 C13.4719599,4.3744 11.1772854,4.4796672 9.01189024,4.76133547 L9.01189024,2.5287424 Z M3.68944427,7.6512 C3.68944427,6.909824 7.74332726,5.46666667 15.1747224,5.46666667 C22.6061176,5.46666667 26.6600006,6.909824 26.6600006,7.6512 C26.6600006,7.86569387 25.9612195,8.58699947 22.952917,9.1777792 C22.8240577,8.27065173 22.1549703,7.5225856 21.2262034,7.29949013 C18.2156599,6.57504427 14.9499191,6.5039104 11.7977705,7.05728 C11.7969301,7.05741653 11.7959497,7.05714347 11.7951093,7.05728 C11.7811029,7.0597376 11.7679368,7.06328747 11.7540704,7.06574507 C11.298441,7.1465728 10.8450527,7.23777707 10.3954461,7.34509227 C10.3527264,7.3550592 10.3128081,7.36789333 10.2702285,7.3779968 C9.88645216,7.4717952 9.50267579,7.56654933 9.12492219,7.67973547 C9.11357697,7.6831488 9.1036324,7.6888832 9.09256732,7.69243307 C9.07688011,7.6970752 9.05993232,7.70062507 9.04424511,7.7052672 C8.36199158,7.9100672 7.90075961,8.5474048 7.92232953,9.25492053 C7.92246959,9.26161067 7.92260966,9.26857387 7.92288978,9.275264 C4.7392267,8.71793493 3.68944427,7.94829653 3.68944427,7.6512 L3.68944427,7.6512 Z M9.44454908,12.9261653 C9.41233427,12.7728384 9.31428921,12.6402645 9.17506523,12.5624405 C9.08920577,12.5141077 8.99284149,12.4896683 8.89577688,12.4896683 C8.8355492,12.4896683 8.77546159,12.4989525 8.71719481,12.5182037 C8.50163575,12.5893376 8.30134371,12.6001237 8.02835825,12.4205824 C7.78002413,12.2568789 7.62021069,12.0104363 7.61166676,11.77792 C7.60340296,11.55264 7.68688132,11.3397845 7.84669477,11.1784021 C8.00678834,11.0167467 8.22150702,10.928 8.45149271,10.928 C8.60276223,10.928 8.75403174,10.8653312 8.85964028,10.7595179 C8.93079297,10.6881109 8.97897512,10.6199808 9.00992934,10.4976469 C10.0049466,10.1298261 10.9503811,9.36360107 11.7071489,8.60215467 C12.8395693,9.6742144 15.6505211,11.6757931 18.8649983,11.6757931 C19.9537187,11.6757931 21.0881,11.4445056 22.2178592,10.8705195 C22.2934939,10.9053355 22.3744511,10.928 22.4580696,10.928 C22.6988402,10.928 22.9282656,11.0287616 23.0880791,11.2047531 C23.2497134,11.3832021 23.3219866,11.6135339 23.2915926,11.8538325 C23.2637198,12.0756992 23.1061474,12.2936064 22.8708392,12.4365568 C22.6346907,12.5800533 22.4348189,12.6027179 22.180602,12.5149269 C22.0296127,12.4629077 21.8622357,12.476288 21.7216111,12.5527467 C21.5812666,12.6290688 21.4811206,12.7604139 21.4469449,12.9136043 C20.900974,15.3552299 19.0494631,17.3498453 16.6152845,18.1189376 L16.3661099,18.1975808 C15.6804949,18.4141227 14.9499191,18.4228608 14.309965,18.2224299 C11.8325065,17.444736 9.96824975,15.4154411 9.44454908,12.9261653 L9.44454908,12.9261653 Z M13.9666673,19.2621312 C14.3909222,19.3952512 14.8328253,19.4616064 15.2800508,19.4616064 C15.7555694,19.4616064 16.2372507,19.3863765 16.7113686,19.2368725 L16.9605431,19.1582293 C17.116855,19.1088043 17.2637825,19.0409472 17.4157523,18.9830571 L17.4157523,21.8506667 C17.4157523,22.9045675 16.536008,23.7621333 15.4548512,23.7621333 C14.3736943,23.7621333 13.49395,22.9045675 13.49395,21.8506667 L13.49395,19.0809515 C13.6516625,19.1410261 13.8040525,19.2110677 13.9666673,19.2621312 L13.9666673,19.2621312 Z M15.4548512,24.8544 C17.153972,24.8544 18.5362673,23.5069525 18.5362673,21.8506667 L18.5362673,20.4993963 L21.3375546,21.7071701 L21.3375546,26.4928 L9.57214771,26.4928 L9.57214771,21.7071701 L12.3734351,20.4995328 L12.3734351,21.8506667 C12.3734351,23.5069525 13.7557303,24.8544 15.4548512,24.8544 Z M5.65034542,26.3696469 C5.65034542,24.5642667 6.7498507,22.9238187 8.45135264,22.1904981 L8.45163277,22.1903616 L8.45163277,27.0389333 L8.45163277,30.3157333 L5.65034542,30.3157333 L5.65034542,26.3696469 Z M9.57214771,27.5850667 L21.3375546,27.5850667 L21.3375546,30.3157333 L9.57214771,30.3157333 L9.57214771,27.5850667 Z M25.2593569,30.3157333 L22.4580696,30.3157333 L22.4580696,27.0389333 L22.4580696,22.1902251 L22.4583497,22.1903616 C24.1598516,22.9236821 25.2593569,24.5642667 25.2593569,26.3695104 L25.2593569,30.3157333 Z" id="Shape"></path>
                    <ellipse id="Oval" cx="18.2561385" cy="12.5664" rx="1" ry="1"></ellipse>
                    <ellipse id="Oval" cx="12.6535638" cy="12.5664" rx="1" ry="1"></ellipse>
                    <path d="M33.9611359,16.9215403 C33.9460089,16.6569387 33.7368928,16.4488619 33.4710507,16.4155477 C34.0153408,15.4995456 33.9643574,14.417792 33.9611359,14.3631787 C33.9453086,14.0853333 33.717704,13.8634667 33.432673,13.8480384 C33.3886928,13.8451712 32.6827684,13.8144512 31.9244599,14.0643072 C31.9348247,13.9744683 31.9523327,13.8869504 31.9523327,13.7939712 C31.9523327,12.4350549 30.7664077,11.3844309 30.7158445,11.3403307 C30.5029466,11.1547819 30.1813589,11.1547819 29.968461,11.3403307 C29.9178978,11.3845675 28.7322529,12.4350549 28.7322529,13.7939712 C28.7322529,13.7950635 28.732533,13.7961557 28.732533,13.797248 C27.9597979,13.5417941 27.2390267,13.5733333 27.1930856,13.5751083 C26.9080546,13.5905365 26.68045,13.8124032 26.6646227,14.0902485 C26.6614012,14.1462272 26.6094374,15.2561067 27.1706753,16.1899947 C26.8968494,16.2160725 26.6800298,16.4297472 26.6646227,16.6998101 C26.6614012,16.7557888 26.6094374,17.8656683 27.1706753,18.7995563 C26.8968494,18.8256341 26.6800298,19.0393088 26.6646227,19.3093717 C26.6614012,19.3653504 26.6094374,20.4753664 27.1708153,21.4091179 C26.8969895,21.4351957 26.6801699,21.6488704 26.6646227,21.9189333 C26.660841,21.9861077 26.5833854,23.5727616 27.5851257,24.5493845 C28.2411872,25.1891797 29.1619704,25.3759573 29.7414167,25.4286592 L29.7414167,30.8618667 C29.7414167,31.1634688 29.992272,31.408 30.3016742,31.408 C30.6110763,31.408 30.8619316,31.1634688 30.8619316,30.8618667 L30.8619316,25.4958336 C31.4238699,25.4536448 32.3802294,25.2835243 33.0553396,24.6252971 C34.0412527,23.664512 33.9649176,22.1042091 33.9611359,22.0384 C33.9460089,21.7737984 33.7368928,21.5657216 33.4710507,21.5324075 C34.0153408,20.6164053 33.9643574,19.5346517 33.9611359,19.4800384 C33.9460089,19.2154368 33.7368928,19.00736 33.4710507,18.9740459 C34.0152007,18.0579072 33.9642173,16.9762901 33.9611359,16.9215403 Z M32.8053247,17.5330731 C32.7478983,17.9107243 32.6069936,18.4012885 32.2631356,18.7364779 C31.9192775,19.0713941 31.4158862,19.2090197 31.0288883,19.2647253 C31.0860346,18.8870741 31.2272195,18.3965099 31.5707974,18.0615936 C31.9145153,17.7264043 32.4179067,17.5887787 32.8053247,17.5330731 L32.8053247,17.5330731 Z M29.0996417,17.8541995 C29.4566658,18.2022229 29.6005119,18.7136768 29.6576582,19.1022507 C29.259035,19.0465451 28.7343539,18.9061888 28.3773298,18.5583019 C28.0205859,18.2102784 27.8767398,17.6993707 27.8193134,17.3107968 C28.2184968,17.366912 28.7437382,17.5072683 29.0996417,17.8541995 L29.0996417,17.8541995 Z M29.0996417,20.4637611 C29.4563857,20.8117845 29.6005119,21.3226923 29.6576582,21.7109931 C29.2584747,21.6550144 28.7332334,21.5145216 28.3773298,21.1675904 C28.0205859,20.8195669 27.8767398,20.3086592 27.8193134,19.9203584 C28.2184968,19.9762005 28.7437382,20.1168299 29.0996417,20.4637611 Z M32.2629955,21.294976 C31.9194176,21.6298923 31.4163064,21.7672448 31.0291685,21.8232235 C31.086875,21.4452992 31.2280599,20.9539157 31.5705173,20.6198187 C31.9143753,20.2849024 32.4177666,20.1472768 32.8050446,20.0915712 C32.7477583,20.4690859 32.6069936,20.9597867 32.2629955,21.294976 Z M32.2629955,16.1781163 C31.9191375,16.5130325 31.4157461,16.6506581 31.0287483,16.7063637 C31.0858945,16.3287125 31.2270794,15.8381483 31.5706573,15.503232 C31.9145153,15.1680427 32.4179067,15.0304171 32.8051847,14.9747115 C32.7477583,15.3522261 32.6069936,15.8429269 32.2629955,16.1781163 L32.2629955,16.1781163 Z M30.3421528,12.5692672 C30.5757801,12.8759211 30.8318178,13.3199275 30.8318178,13.7938347 C30.8318178,14.2677419 30.5755,14.7120213 30.3421528,15.0184021 C30.1088055,14.7117483 29.8527679,14.2677419 29.8527679,13.7938347 C29.8527679,13.3199275 30.1088055,12.8757845 30.3421528,12.5692672 Z M29.0996417,15.2445013 C29.4563857,15.5925248 29.6005119,16.1034325 29.6576582,16.4920064 C29.2584747,16.4357547 28.7332334,16.2955349 28.3773298,15.9486037 C28.0205859,15.6005803 27.8767398,15.0896725 27.8193134,14.7010987 C28.2184968,14.7573504 28.7437382,14.8975701 29.0996417,15.2445013 Z M28.3773298,23.7770155 C28.0205859,23.428992 27.8767398,22.9180843 27.8193134,22.5297835 C28.2184968,22.5857621 28.7437382,22.7262549 29.0996417,23.0731861 C29.4563857,23.4212096 29.6005119,23.9321173 29.6576582,24.3204181 C29.2584747,24.264576 28.7332334,24.1239467 28.3773298,23.7770155 Z M32.2629955,23.8530645 C31.9194176,24.1879808 31.4163064,24.3256064 31.0294486,24.381312 C31.086875,24.0036608 31.2280599,23.5122773 31.5705173,23.1781803 C31.9140952,22.843264 32.4172064,22.7059115 32.8043443,22.6499328 C32.7470579,23.0277205 32.6058731,23.5189675 32.2629955,23.8530645 Z" id="Shape"></path>
                    <path d="M5.65034542,17.2085333 L5.65034542,15.024 C5.65034542,14.7223979 5.39949013,14.4778667 5.09008794,14.4778667 C4.78068576,14.4778667 4.52983047,14.7223979 4.52983047,15.024 L4.52983047,17.2085333 C4.52983047,17.9026688 4.08302514,18.4938581 3.45637716,18.7319723 L3.45637716,15.2970667 C3.45637716,14.9954645 3.20552188,14.7509333 2.89611969,14.7509333 C2.5867175,14.7509333 2.33586222,14.9954645 2.33586222,15.2970667 L2.33586222,18.7605077 C1.66089203,18.5476523 1.16828565,17.9363925 1.16828565,17.2085333 L1.16828565,15.024 C1.16828565,14.7223979 0.917430363,14.4778667 0.608028175,14.4778667 C0.298625986,14.4778667 0.0477707034,14.7223979 0.0477707034,15.024 L0.0477707034,17.2085333 C0.0477707034,18.5428736 1.03620495,19.6523435 2.33586222,19.8886827 L2.33586222,30.8618667 C2.33586222,31.1634688 2.5867175,31.408 2.89611969,31.408 C3.20552188,31.408 3.45637716,31.1634688 3.45637716,30.8618667 L3.45637716,19.8703872 C4.70911286,19.5986859 5.65034542,18.5103787 5.65034542,17.2085333 L5.65034542,17.2085333 Z" id="Path"></path>
                </g>
            </g>
        </g>
    </g>
</svg>