<?xml version="1.0" encoding="UTF-8"?>
<svg width="44px" height="44px" viewBox="0 0 44 44" version="1.1" xmlns="http://www.w3.org/2000/svg" xmlns:xlink="http://www.w3.org/1999/xlink">
    <title>icon-432Bneg</title>
    <g id="PSR" stroke="none" stroke-width="1" fill="none" fill-rule="evenodd">
        <g id="icone-bandi-PSR" transform="translate(-401.000000, -510.000000)">
            <g id="icon-432Bneg" transform="translate(401.000000, 510.000000)">
                <rect id="Rectangle" fill="#30373D" x="0" y="0" width="44" height="44" rx="4"></rect>
                <g id="Group-8" transform="translate(6.000000, 5.000000)">
                    <polygon id="Fill-1" fill="#FFFFFF" points="5 0 1.14850121 3.913 1.96049156 4.73783333 4.4257494 2.23358333 4.4257494 4.08333333 0 8.57908333 0.811990353 9.4045 4.4257494 5.733 4.4257494 8.16666667 0 12.6624167 0.811990353 13.48725 4.4257494 9.81633333 4.4257494 14 5.57482485 14 5.57482485 9.81633333 9.1885839 13.48725 10 12.6624167 5.57482485 8.16666667 5.57482485 5.733 9.1885839 9.4045 10 8.57908333 5.57482485 4.08333333 5.57482485 2.23358333 8.04008269 4.73783333 8.85207304 3.913"></polygon>
                    <polygon id="Fill-1" fill="#FFFFFF" points="27 6 23.1485012 9.913 23.9604916 10.7378333 26.4257494 8.23358333 26.4257494 10.0833333 22 14.5790833 22.8119904 15.4045 26.4257494 11.733 26.4257494 14.1666667 22 18.6624167 22.8119904 19.48725 26.4257494 15.8163333 26.4257494 20 27.5748249 20 27.5748249 15.8163333 31.1885839 19.48725 32 18.6624167 27.5748249 14.1666667 27.5748249 11.733 31.1885839 15.4045 32 14.5790833 27.5748249 10.0833333 27.5748249 8.23358333 30.0400827 10.7378333 30.852073 9.913"></polygon>
                    <path d="M11,20 L11,16.6162652 C11,14.1303674 12.532943,11.9019158 14.8544719,11.0129886 L20.1455281,8.98701145 C22.467057,8.09808417 24,5.86963259 24,3.38373482 L24,0 L24,0" id="Path-5" stroke="#01985A" stroke-width="2"></path>
                </g>
                <g id="number" transform="translate(6.000000, 27.000000)">
                    <rect id="Rectangle" fill="#01985A" x="0" y="0" width="32" height="14" rx="7"></rect>
                    <text id="4.3.2" font-family="TitilliumWeb-Bold, Titillium Web" font-size="9" font-weight="bold" fill="#FFFFFF">
                        <tspan x="6.636" y="10">4.3.2</tspan>
                    </text>
                </g>
            </g>
        </g>
    </g>
</svg>