<?xml version="1.0" encoding="UTF-8"?>
<svg width="44px" height="44px" viewBox="0 0 44 44" version="1.1" xmlns="http://www.w3.org/2000/svg" xmlns:xlink="http://www.w3.org/1999/xlink">
    <title>icon-851B</title>
    <defs>
        <polygon id="path-1" points="0 0.000130580357 23.7658452 0.000130580357 23.7658452 24.496048 0 24.496048"></polygon>
    </defs>
    <g id="PSR" stroke="none" stroke-width="1" fill="none" fill-rule="evenodd">
        <g id="icone-bandi-PSR" transform="translate(-352.000000, -1388.000000)">
            <g id="icon-851B" transform="translate(352.000000, 1388.000000)">
                <g id="Rectangle" fill="#F7F7F7" stroke="#D8D8D8">
                    <rect x="0.5" y="0.5" width="43" height="43" rx="4"></rect>
                </g>
                <g id="Group-3" transform="translate(10.000000, 2.000000)">
                    <mask id="mask-2" fill="white">
                        <use xlink:href="#path-1"></use>
                    </mask>
                    <g id="Clip-2"></g>
                    <path d="M15.4193419,20.7205346 C12.0336387,20.7205346 9.57890323,20.327923 8.44966452,20.1024542 L11.2108645,16.4818962 C12.5408903,16.6381574 13.9514323,16.7212935 15.4193419,16.7212935 C16.8872516,16.7212935 18.2982968,16.6381574 19.6283226,16.4818962 L22.3895226,20.1024542 C21.2602839,20.327923 18.8055484,20.7205346 15.4193419,20.7205346 L15.4193419,20.7205346 Z M15.985471,23.5410703 C15.7056774,23.5854676 15.1330065,23.5850324 14.8537161,23.5423761 L14.8537161,21.6289386 C15.0409161,21.6315502 15.2261032,21.6345971 15.4193419,21.6345971 C15.6130839,21.6345971 15.7977677,21.6315502 15.985471,21.6289386 L15.985471,23.5410703 Z M9.86272258,22.8172199 C9.63526452,22.8572645 9.33030968,22.8598761 9.11090323,22.8211373 L9.11090323,21.1584141 C9.33836129,21.1954118 9.59148387,21.2332801 9.86272258,21.2711484 L9.86272258,22.8172199 Z M5.11780645,16.8031239 C4.3992,16.1811261 4.00316129,15.3571641 4.00316129,14.4818404 C4.00316129,14.1062042 4.07562581,13.7431908 4.21954839,13.3980234 C4.40574194,12.9379453 4.71623226,12.5109475 5.10774194,12.1718739 C5.16812903,12.1226886 5.22499355,12.0765502 5.28538065,12.0295413 C5.50277419,11.8610926 5.52139355,11.5720748 5.32664516,11.3844743 C5.13189677,11.1960033 4.79825806,11.1798984 4.58036129,11.3487824 C4.51292903,11.4010145 4.44901935,11.4532467 4.37051613,11.5167958 C4.01322581,11.8262712 3.71682581,12.1875435 3.48685161,12.5740614 C1.97868387,11.6652221 1.05677419,10.1822645 1.05677419,8.58526674 C1.05677419,7.29208594 1.64403871,6.07203013 2.71087742,5.14969754 C3.12754839,4.78842522 3.61215484,4.49157254 4.13148387,4.26001004 C4.12494194,4.35054576 4.11789677,4.44108147 4.11789677,4.53248772 C4.11789677,5.69421763 4.6311871,6.80110379 5.56215484,7.64987612 C5.66581935,7.74432924 5.80571613,7.79220871 5.94510968,7.79220871 C6.07645161,7.79220871 6.2067871,7.74998772 6.30894194,7.66641629 C6.5208,7.49274442 6.52935484,7.20329129 6.32856774,7.02004353 C5.5848,6.34233147 5.17517419,5.45873772 5.17517419,4.53248772 C5.17517419,4.33357031 5.19429677,4.13639397 5.23304516,3.94357031 C5.37495484,3.19534487 5.78055484,2.51632701 6.40505806,1.97790067 C7.19864516,1.29148326 8.24837419,0.914106027 9.36150968,0.914106027 C10.472129,0.914106027 11.5208516,1.29148326 12.3149419,1.97833594 C13.1075226,2.66214174 13.5443226,3.56880469 13.5443226,4.53248772 C13.5443226,4.65523326 13.536271,4.77536719 13.5216774,4.89376004 C13.5151355,4.95382701 13.5231871,5.0121529 13.5423097,5.06699665 C12.8528903,4.83978683 12.1206968,4.70267746 11.3764258,4.67917299 C11.0860645,4.67569085 10.8394839,4.86720871 10.8289161,5.11966406 C10.8183484,5.37168415 11.0468129,5.58409487 11.3381806,5.59280022 C12.0829548,5.61630469 12.7899871,5.76429576 13.4527355,6.02153906 L10.7489032,10.0721417 C10.6688903,10.1927109 10.6558065,10.3376551 10.7146839,10.467365 C10.7730581,10.5966395 10.8968516,10.6963158 11.0503355,10.737231 C11.0785161,10.7446306 11.3789419,10.8234141 11.9078323,10.9117734 L8.22723871,15.3153783 C8.12709677,15.4346417 8.09992258,15.5887266 8.15427097,15.7280123 C8.20811613,15.8681685 8.33694194,15.9769855 8.4999871,16.0196417 C8.52716129,16.0274766 9.07819355,16.1706797 10.0625032,16.3269408 L9.1280129,17.5530904 C8.7027871,17.6928114 8.25793548,17.7672422 7.80150968,17.7672422 C6.79002581,17.7672422 5.83691613,17.4251217 5.11780645,16.8031239 L5.11780645,16.8031239 Z M15.4193419,4.90290067 L18.8206452,9.99814621 C18.1407871,10.1161038 16.9627355,10.2688828 15.4193419,10.2688828 C13.8764516,10.2688828 12.6978968,10.1161038 12.0185419,9.99814621 L15.4193419,4.90290067 Z M21.2990323,15.3044967 C20.9417419,15.3728337 20.4591484,15.4550993 19.8658452,15.5330123 C18.474929,15.7153895 16.9793419,15.8076663 15.4193419,15.8076663 C13.8593419,15.8076663 12.3637548,15.7153895 10.9733419,15.5330123 C10.3800387,15.4550993 9.89744516,15.3728337 9.54015484,15.3044967 L13.0818581,11.0675993 C13.7285032,11.13376 14.5115226,11.1833806 15.4193419,11.1833806 C16.3271613,11.1833806 17.1106839,11.13376 17.757329,11.0675993 L21.2990323,15.3044967 Z M23.6787871,20.1337935 L20.7766839,16.3269408 C21.7609935,16.1706797 22.3115226,16.0274766 22.3392,16.0196417 C22.5022452,15.9769855 22.631071,15.8681685 22.6849161,15.7280123 C22.7392645,15.5887266 22.7115871,15.4346417 22.6119484,15.3153783 L18.9313548,10.9117734 C19.4597419,10.8234141 19.760671,10.7446306 19.7888516,10.737231 C19.9423355,10.6963158 20.0656258,10.5966395 20.1245032,10.467365 C20.1828774,10.3376551 20.1702968,10.1927109 20.0897806,10.0721417 L15.8772774,3.76032254 C15.6880645,3.47783371 15.1506194,3.47783371 14.9619097,3.76032254 L14.5890194,4.31877121 C14.528129,3.19142746 13.9952129,2.13633817 13.0612258,1.3315279 C12.0683613,0.47274442 10.7544387,4.35267857e-05 9.36150968,4.35267857e-05 C7.96606452,4.35267857e-05 6.65063226,0.47274442 5.65877419,1.33109263 C5.05289032,1.85254353 4.61357419,2.48237612 4.36296774,3.17358147 C3.47175484,3.46216406 2.64344516,3.91484263 1.9635871,4.50288951 C0.697470968,5.59802344 0,7.04790067 0,8.58526674 C0,10.5592065 1.17603871,12.3925547 3.09584516,13.4559141 C2.99771613,13.7867176 2.9463871,14.130144 2.9463871,14.4818404 C2.9463871,15.6009141 3.45212903,16.6551328 4.37051613,17.4490614 C5.28890323,18.2438605 6.50771613,18.6808694 7.80150968,18.6808694 C7.88655484,18.6808694 7.97009032,18.6743404 8.05412903,18.670423 L8.05412903,18.9611819 L7.15989677,20.1337935 C7.0688129,20.2539275 7.04767742,20.4036596 7.10353548,20.5394632 C7.15939355,20.6748315 7.28570323,20.779731 7.44421935,20.821952 C7.47541935,20.8302221 7.68325161,20.8850658 8.05412903,20.9629788 L8.05412903,23.161952 C8.05412903,23.3460703 8.18144516,23.5119074 8.3772,23.5832913 C8.42903226,23.6020078 8.90055484,23.7687154 9.47171613,23.7687154 C10.0358323,23.7687154 10.53,23.6063605 10.5843484,23.587644 C10.7861419,23.5188717 10.9194968,23.3499877 10.9194968,23.161952 L10.9194968,21.400423 C11.7473032,21.4900882 12.7099742,21.5649542 13.7969419,21.6045636 L13.7969419,23.886673 C13.7969419,24.0616507 13.9116774,24.2209587 14.0928387,24.2975658 C14.1718452,24.3306462 14.6041161,24.496048 15.4193419,24.496048 C16.2365806,24.496048 16.6703613,24.3267288 16.7493677,24.2932132 C16.9290194,24.2157355 17.0422452,24.057298 17.0422452,23.8840614 L17.0422452,21.6045636 C20.9608645,21.4626663 23.2852645,20.8515502 23.3949677,20.821952 C23.5529806,20.779731 23.6792903,20.6748315 23.7351484,20.5394632 C23.7915097,20.4036596 23.7703742,20.2539275 23.6787871,20.1337935 L23.6787871,20.1337935 Z" id="Fill-1" fill="#30373D" mask="url(#mask-2)"></path>
                </g>
                <g id="number" transform="translate(6.000000, 27.000000)">
                    <rect id="Rectangle" fill="#01985A" x="0" y="0" width="32" height="14" rx="7"></rect>
                    <text id="8.5.1" font-family="TitilliumWeb-Bold, Titillium Web" font-size="9" font-weight="bold" fill="#FFFFFF">
                        <tspan x="6.636" y="10">8.5.1</tspan>
                    </text>
                </g>
            </g>
        </g>
    </g>
</svg>