<?xml version="1.0" encoding="UTF-8"?>
<svg width="44px" height="44px" viewBox="0 0 44 44" version="1.1" xmlns="http://www.w3.org/2000/svg" xmlns:xlink="http://www.w3.org/1999/xlink">
    <title>icon-1941B</title>
    <g id="PSR" stroke="none" stroke-width="1" fill="none" fill-rule="evenodd">
        <g id="icone-bandi-PSR" transform="translate(-352.000000, -1903.000000)">
            <g id="icon-1941B" transform="translate(352.000000, 1903.000000)">
                <g id="Rectangle" fill="#F7F7F7" stroke="#D8D8D8">
                    <rect x="0.5" y="0.5" width="43" height="43" rx="4"></rect>
                </g>
                <g id="fireworks" transform="translate(5.000000, 5.000000)" fill="#30373D" fill-rule="nonzero">
                    <path d="M14.7561328,15.2070677 C14.6184062,15.2070677 14.4814102,15.1642656 14.3657305,15.0801953 C14.1611992,14.9316445 14.0588008,14.679832 14.1015664,14.4306758 L14.4711172,12.2760586 L12.9056562,10.7501758 C12.7246328,10.5737344 12.6594883,10.3098359 12.737582,10.0694453 C12.8156758,9.82905469 13.0235273,9.653875 13.2736797,9.61748437 L15.4370625,9.30311719 L16.4045352,7.34280469 C16.5164297,7.11616016 16.7472578,6.97265625 17,6.97265625 C17.2528086,6.97265625 17.4836367,7.11616016 17.5955313,7.34280469 L18.5629375,9.30311719 L20.7262539,9.61748437 C20.9764727,9.65380859 21.1841914,9.82905469 21.2623516,10.0694453 C21.3404453,10.3098359 21.2753008,10.5737344 21.0943438,10.7501758 L19.5289492,12.276125 L19.8985,14.4307422 C19.9412656,14.679832 19.8388008,14.9316445 19.6342695,15.0802617 C19.4297383,15.2288125 19.1586016,15.2484023 18.9349453,15.1307969 L17,14.1135195 L15.0650547,15.1307305 C14.9679023,15.1818633 14.8617852,15.2070677 14.7561328,15.2070677 L14.7561328,15.2070677 Z M14.7962422,10.7383555 L15.648168,11.5686992 C15.8046875,11.7212344 15.8761406,11.9410391 15.8391523,12.1565273 L15.6380742,13.3290625 L16.6910781,12.7755 C16.8845859,12.6737656 17.1156797,12.673832 17.3091211,12.7755 L18.362125,13.3290625 L18.1609805,12.1565273 C18.1240586,11.9411055 18.1955117,11.7213008 18.3519648,11.5687656 L19.2038906,10.7383555 L18.0266406,10.567293 C17.8102891,10.5358828 17.6233555,10.4000156 17.5266016,10.2040508 L17,9.13723438 L16.4734648,10.2040508 C16.3767109,10.4000156 16.1897773,10.5358828 15.9734922,10.567293 L14.7962422,10.7383555 Z" id="XMLID_387_"></path>
                    <path d="M12.4120586,24.3544922 C12.2112461,24.3544922 12.0181367,24.26325 11.8907031,24.1016836 L10.8031016,22.722957 L9.05077344,22.8373086 C8.79896094,22.8538437 8.55883594,22.7255469 8.43246484,22.5066719 C8.30609375,22.2877969 8.31492578,22.0160625 8.45530859,21.8058867 L9.43048437,20.3454805 L8.78023437,18.7142109 C8.68660156,18.4793984 8.73448047,18.2118477 8.90355078,18.0239844 C9.07275391,17.8361211 9.33379687,17.7605508 9.57710937,17.8291484 L11.2674141,18.3052813 L12.617918,17.1828164 C12.8124219,17.02125 13.0816328,16.9840625 13.3125273,17.0868594 C13.5434219,17.1896562 13.695957,17.4146406 13.7059844,17.66725 L13.7754453,19.4219023 L15.2602891,20.3594258 C15.4739844,20.4943633 15.5925859,20.7389375 15.5662227,20.9903516 C15.539793,21.2417656 15.3729141,21.4563242 15.1358438,21.5438477 L13.4885039,22.1521953 L13.055668,23.8540547 C12.9933789,24.0990273 12.7974141,24.2874219 12.5501836,24.3399492 C12.5041641,24.3497109 12.4579453,24.3544922 12.4120586,24.3544922 L12.4120586,24.3544922 Z M11.1083047,21.3734492 C11.3107773,21.3734492 11.5032227,21.4660195 11.6295937,21.6262578 L12.100082,22.2227188 L12.2872812,21.4865391 C12.3411367,21.2747031 12.4957969,21.1029766 12.700793,21.027207 L13.4133984,20.7640391 L12.7710508,20.3584961 C12.5862422,20.2418203 12.4706953,20.0416719 12.4620625,19.8232617 L12.4319805,19.0642383 L11.8478047,19.5498008 C11.6796641,19.6895195 11.4536172,19.7375977 11.2432422,19.6782969 L10.512043,19.4723047 L10.7933398,20.1780039 C10.8742891,20.3810078 10.8501172,20.6109063 10.7287266,20.7926602 L10.3068477,21.4243828 L11.064875,21.3749102 C11.0794844,21.3739141 11.0939609,21.3734492 11.1083047,21.3734492 L11.1083047,21.3734492 Z" id="XMLID_384_"></path>
                    <path d="M21.604875,24.3544922 C21.5589883,24.3544922 21.5127031,24.3497109 21.46675,24.3399492 C21.2195195,24.2873555 21.0235547,24.0990273 20.9612656,23.8540547 L20.5284297,22.1521289 L18.8810234,21.5437812 C18.6438867,21.4561914 18.4770078,21.2416328 18.4505781,20.9902852 C18.4242148,20.7388711 18.54275,20.4942969 18.7565117,20.3593594 L20.2414219,19.4218359 L20.3108828,17.6671836 C20.3208438,17.4145742 20.4733789,17.1896563 20.7043398,17.086793 C20.9353008,16.9839297 21.2045781,17.0211836 21.3988828,17.18275 L22.7493867,18.3052148 L24.4397578,17.829082 C24.6828047,17.7606172 24.9441133,17.8360547 25.1133164,18.023918 C25.2824531,18.2117813 25.3302656,18.479332 25.2366328,18.7141445 L24.5864492,20.3454141 L25.561625,21.8058203 C25.7019414,22.0160625 25.7108398,22.2877305 25.5844688,22.5066055 C25.4580977,22.7254805 25.2192344,22.8537109 24.9660938,22.8372422 L23.2137656,22.7228906 L22.1261641,24.1016172 C21.9987305,24.2631836 21.8056211,24.3544922 21.604875,24.3544922 L21.604875,24.3544922 Z M20.6033359,20.7640391 L21.3160078,21.027207 C21.5210703,21.1029102 21.6756641,21.2747031 21.7295859,21.4864727 L21.9167852,22.2227188 L22.3872734,21.6262578 C22.5226758,21.4546641 22.73325,21.3609648 22.9519258,21.3748438 L23.7099531,21.4243164 L23.2880742,20.7925938 C23.1666836,20.6108398 23.1425781,20.3809414 23.2234609,20.1779375 L23.5046914,19.4722383 L22.7734258,19.6782305 C22.5630508,19.7373984 22.3369375,19.6893867 22.1689297,19.5497344 L21.5846875,19.0641719 L21.5546719,19.8231953 C21.5460391,20.0416055 21.4304922,20.2417539 21.2456836,20.3584297 L20.6033359,20.7640391 Z" id="XMLID_381_"></path>
                    <path d="M17.0086328,34 C16.8339844,34 16.6626563,33.9289453 16.5391406,33.8054297 C16.4149609,33.6819141 16.3445703,33.5105859 16.3445703,33.3359375 C16.3445703,33.1612891 16.4149609,32.9899609 16.5391406,32.8664453 C16.6626563,32.7429297 16.8339844,32.671875 17.0086328,32.671875 C17.1832813,32.671875 17.3546094,32.7429297 17.478125,32.8664453 C17.6015742,32.9899609 17.6726953,33.1612891 17.6726953,33.3359375 C17.6726953,33.5105859 17.6016406,33.6819141 17.478125,33.8054297 C17.3546094,33.9289453 17.1832813,34 17.0086328,34 Z" id="XMLID_380_"></path>
                    <path d="M17.0084336,31.0117188 C16.6416719,31.0117188 16.3443711,30.714418 16.3443711,30.3476562 L16.3443711,24.2714844 C16.3443711,23.9047227 16.6416719,23.6074219 17.0084336,23.6074219 C17.3751289,23.6074219 17.6724961,23.9047227 17.6724961,24.2714844 L17.6724961,30.3476562 C17.6724961,30.714418 17.3751289,31.0117188 17.0084336,31.0117188 Z" id="XMLID_379_"></path>
                    <path d="M2.85679688,9.48878906 C2.68214844,9.48878906 2.51082031,9.41773437 2.38730469,9.29421875 C2.26378906,9.17070312 2.19273438,8.999375 2.19273438,8.82472656 C2.19273438,8.65007812 2.26378906,8.47875 2.38730469,8.35523437 C2.51082031,8.23171875 2.68214844,8.16066406 2.85679688,8.16066406 C3.03144531,8.16066406 3.20277344,8.23171875 3.32628906,8.35523437 C3.44980469,8.47875 3.52085938,8.65007812 3.52085938,8.82472656 C3.52085938,8.999375 3.44980469,9.17070312 3.32628906,9.29421875 C3.20277344,9.41773437 3.03144531,9.48878906 2.85679688,9.48878906 Z" id="XMLID_378_"></path>
                    <path d="M10.142625,13.6956914 C10.0299336,13.6956914 9.91578125,13.6670039 9.81119141,13.6066406 L5.11294922,10.8941445 C4.79532813,10.7107969 4.68648828,10.3046562 4.86990234,9.98703516 C5.05331641,9.66941406 5.45939063,9.56064062 5.77701172,9.74398828 L10.4752539,12.4564844 C10.792875,12.639832 10.9017148,13.0459727 10.7183008,13.3635937 C10.5953164,13.5765586 10.3720586,13.6956914 10.142625,13.6956914 Z" id="XMLID_377_"></path>
                    <path d="M31.1431367,9.48878906 C30.9678242,9.48878906 30.7971602,9.41773437 30.6737109,9.29421875 C30.5501953,9.17070312 30.4790742,8.999375 30.4790742,8.82472656 C30.4790742,8.65007812 30.5501289,8.47875 30.6737109,8.35523437 C30.7971602,8.23171875 30.9678906,8.16066406 31.1431367,8.16066406 C31.3177852,8.16066406 31.4891133,8.23171875 31.6126289,8.35523437 C31.7361445,8.47875 31.8071992,8.65007812 31.8071992,8.82472656 C31.8071992,8.999375 31.7362109,9.17070312 31.6126289,9.29421875 C31.4891797,9.41773437 31.3177852,9.48878906 31.1431367,9.48878906 Z" id="XMLID_376_"></path>
                    <path d="M23.8574414,13.6956914 C23.627875,13.6956914 23.40475,13.576625 23.2816992,13.3635937 C23.0982852,13.0459727 23.207125,12.639832 23.5247461,12.4564844 L28.226043,9.74219531 C28.5436641,9.55884766 28.9498047,9.66762109 29.1331523,9.98524219 C29.3165664,10.3028633 29.2077266,10.7090039 28.8901055,10.8923516 L24.1888086,13.6066406 C24.0842852,13.6670039 23.9700664,13.6956914 23.8574414,13.6956914 Z" id="XMLID_375_"></path>
                    <path d="M11.4556758,8.06005859 C11.2261758,8.06005859 11.0029844,7.94099219 10.88,7.72789453 L7.15434375,1.27486719 C6.97092969,0.957246094 7.07976953,0.551105469 7.39739062,0.367757813 C7.71494531,0.184277344 8.12115234,0.293183594 8.3045,0.610804688 L12.0301562,7.06383203 C12.2135703,7.38145313 12.1046641,7.78759375 11.7871094,7.97094141 C11.6825195,8.03137109 11.5683672,8.06005859 11.4556758,8.06005859 L11.4556758,8.06005859 Z" id="XMLID_374_"></path>
                    <path d="M5.91015625,17.6640625 L0.6640625,17.6640625 C0.297300781,17.6640625 0,17.3667617 0,17 C0,16.6332383 0.297300781,16.3359375 0.6640625,16.3359375 L5.91015625,16.3359375 C6.27691797,16.3359375 6.57421875,16.6332383 6.57421875,17 C6.57421875,17.3667617 6.27691797,17.6640625 5.91015625,17.6640625 Z" id="XMLID_373_"></path>
                    <path d="M7.72875781,33.721293 C7.61606641,33.721293 7.50191406,33.6926055 7.39732422,33.6322422 C7.07970312,33.4488945 6.97086328,33.0427539 7.15427734,32.7251328 L10.8799336,26.2721055 C11.0633477,25.9544844 11.4695547,25.8457773 11.787043,26.0290586 C12.1046641,26.2124063 12.2135039,26.6186133 12.0300898,26.936168 L8.30443359,33.3891953 C8.18151562,33.6022266 7.95825781,33.721293 7.72875781,33.721293 L7.72875781,33.721293 Z" id="XMLID_372_"></path>
                    <path d="M26.2712422,33.721293 C26.0416758,33.721293 25.8185508,33.6022266 25.6955,33.3891953 L21.9698437,26.936168 C21.7864297,26.6185469 21.8952695,26.2124063 22.2128906,26.0290586 C22.5305117,25.8457109 22.9366523,25.9545508 23.12,26.2721055 L26.8456563,32.7251328 C27.0290703,33.0427539 26.9202305,33.4488945 26.6026094,33.6322422 C26.4980859,33.6926055 26.3838672,33.721293 26.2712422,33.721293 L26.2712422,33.721293 Z" id="XMLID_371_"></path>
                    <path d="M33.3359375,17.6640625 L28.0898438,17.6640625 C27.7231484,17.6640625 27.4257812,17.3667617 27.4257812,17 C27.4257812,16.6332383 27.7231484,16.3359375 28.0898438,16.3359375 L33.3359375,16.3359375 C33.7026328,16.3359375 34,16.6332383 34,17 C34,17.3667617 33.7026328,17.6640625 33.3359375,17.6640625 Z" id="XMLID_370_"></path>
                    <path d="M22.5442578,8.06005859 C22.4316328,8.06005859 22.3174805,8.03137109 22.2128906,7.97100781 C21.8952695,7.78766016 21.7864297,7.38151953 21.9698437,7.06389844 L25.6955,0.610871094 C25.8789141,0.293316406 26.2848555,0.184410156 26.6026094,0.367824219 C26.9202305,0.551171875 27.0290703,0.9573125 26.8456563,1.27493359 L23.12,7.72796094 C22.997082,7.94092578 22.7737578,8.06005859 22.5442578,8.06005859 Z" id="XMLID_369_"></path>
                    <path d="M17,4.9140625 C16.6332383,4.9140625 16.3359375,4.61676172 16.3359375,4.25 L16.3359375,0.6640625 C16.3359375,0.297300781 16.6332383,0 17,0 C17.3666953,0 17.6640625,0.297300781 17.6640625,0.6640625 L17.6640625,4.25 C17.6640625,4.61676172 17.3666953,4.9140625 17,4.9140625 Z" id="XMLID_368_"></path>
                    <path d="M2.85327734,25.8320977 C2.62377734,25.8320977 2.40058594,25.7130312 2.27760156,25.5 C2.0941875,25.1823789 2.20302734,24.7762383 2.52064844,24.5928906 L5.62620312,22.7999219 C5.94375781,22.6164414 6.34996484,22.7253477 6.5333125,23.0429687 C6.71672656,23.3605898 6.60788672,23.7667305 6.29026562,23.9500781 L3.18471094,25.7430469 C3.08012109,25.8034102 2.96590234,25.8320977 2.85327734,25.8320977 L2.85327734,25.8320977 Z" id="XMLID_367_"></path>
                    <path d="M2.85327734,25.8320977 C2.62377734,25.8320977 2.40058594,25.7130312 2.27760156,25.5 C2.0941875,25.1823789 2.20302734,24.7762383 2.52064844,24.5928906 L5.62620312,22.7999219 C5.94375781,22.6164414 6.34996484,22.7253477 6.5333125,23.0429687 C6.71672656,23.3605898 6.60788672,23.7667305 6.29026562,23.9500781 L3.18471094,25.7430469 C3.08012109,25.8034102 2.96590234,25.8320977 2.85327734,25.8320977 L2.85327734,25.8320977 Z" id="XMLID_366_"></path>
                    <path d="M31.1466562,25.8320977 C31.0340312,25.8320977 30.9198789,25.8034102 30.8152891,25.7430469 L27.7098008,23.9500781 C27.3921797,23.7667305 27.2833398,23.3605898 27.4667539,23.0429687 C27.650168,22.7254141 28.0561758,22.6165078 28.3738633,22.7999219 L31.4793516,24.5928906 C31.7969727,24.7762383 31.9058125,25.1823789 31.7223984,25.5 C31.5994141,25.7130313 31.3761562,25.8320977 31.1466562,25.8320977 L31.1466562,25.8320977 Z" id="XMLID_365_"></path>
                </g>
                <g id="number" transform="translate(6.000000, 27.000000)">
                    <rect id="Rectangle" fill="#01985A" x="0" y="0" width="32" height="14" rx="7"></rect>
                    <text id="19.4.1" font-family="TitilliumWeb-Bold, Titillium Web" font-size="9" font-weight="bold" fill="#FFFFFF">
                        <tspan x="4.116" y="10">19.4.1</tspan>
                    </text>
                </g>
            </g>
        </g>
    </g>
</svg>