<?xml version="1.0" encoding="UTF-8"?>
<svg width="44px" height="44px" viewBox="0 0 44 44" version="1.1" xmlns="http://www.w3.org/2000/svg" xmlns:xlink="http://www.w3.org/1999/xlink">
    <title>icon-641Aneg</title>
    <g id="PSR" stroke="none" stroke-width="1" fill="none" fill-rule="evenodd">
        <g id="icone-bandi-PSR" transform="translate(-286.000000, -1310.000000)">
            <g id="icon-641Aneg" transform="translate(286.000000, 1310.000000)">
                <rect id="Rectangle" fill="#30373D" x="0" y="0" width="44" height="44" rx="4"></rect>
                <path d="M21.0803783,10.7280385 C20.5255272,10.7280385 20.0756501,10.2700409 20.0756501,9.70517449 L20.0756501,6.02286402 C20.0756501,5.45799759 20.5255272,5 21.0803783,5 C21.6352293,5 22.0851064,5.45799759 22.0851064,6.02286402 L22.0851064,9.70517449 C22.0851064,10.2700409 21.6352293,10.7280385 21.0803783,10.7280385 M12.8820378,13.7148014 C12.6127707,13.7148014 12.3443073,13.6053141 12.1464161,13.3889579 L9.97620331,11.0159134 C9.59810402,10.6024308 9.62085106,9.95524428 10.026922,9.5703201 C10.4330733,9.18523225 11.0688652,9.20855355 11.4469645,9.62187244 L13.6171773,11.994917 C13.9952766,12.4083995 13.9725296,13.055586 13.5664586,13.4405102 C13.3729078,13.6240529 13.1271111,13.7148014 12.8820378,13.7148014 M29.0778534,13.7148014 C28.8326998,13.7148014 28.5869835,13.6240529 28.3934326,13.4405102 C27.9872813,13.055586 27.9645343,12.4083995 28.3427139,11.994917 L30.5128463,9.62187244 C30.891026,9.20847172 31.5267376,9.18531408 31.9328889,9.5703201 C32.3389598,9.95524428 32.3617069,10.6024308 31.9836076,11.0159134 L29.8133948,13.3889579 C29.6155035,13.6053141 29.3470402,13.7148014 29.0778534,13.7148014 M8.74231678,22.7569194 L5.00472813,22.7569194 C4.44987707,22.7569194 4,22.2989218 4,21.7340554 C4,21.1691889 4.44987707,20.7111913 5.00472813,20.7111913 L8.74231678,20.7111913 C9.29716785,20.7111913 9.74704492,21.1691889 9.74704492,21.7340554 C9.74704492,22.2989218 9.29716785,22.7569194 8.74231678,22.7569194 M36.9952719,22.7569194 L33.2174941,22.7569194 C32.662643,22.7569194 32.212766,22.2989218 32.212766,21.7340554 C32.212766,21.1691889 32.662643,20.7111913 33.2174941,20.7111913 L36.9952719,20.7111913 C37.5501229,20.7111913 38,21.1691889 38,21.7340554 C38,22.2989218 37.5501229,22.7569194 36.9952719,22.7569194 M21.7242884,27.871485 C21.65026,27.871485 21.575026,27.8630566 21.4997116,27.845627 C20.958766,27.7197738 20.6203735,27.171355 20.7438345,26.6207268 L21.6288794,22.6750903 L19.5531915,22.6750903 C19.2467896,22.6750903 18.9571064,22.5327894 18.7665296,22.2885295 C18.5759527,22.0443514 18.5052199,21.7249723 18.5744255,21.421059 L19.7399102,16.3067389 C19.8653002,15.7563562 20.4051206,15.4137377 20.9457447,15.5414729 C21.4862884,15.6692082 21.8228322,16.2187726 21.6974421,16.7690734 L20.8177021,20.6293622 L22.8888889,20.6293622 C23.1946478,20.6293622 23.4837683,20.7710903 23.6744255,21.0145319 C23.8650827,21.2579735 23.9364586,21.5764525 23.8684586,21.8798748 L22.702974,27.0760241 C22.5965532,27.550142 22.1825248,27.871485 21.7242884,27.871485 M21.1607565,31.7581227 C18.4577967,31.7581227 16.1093853,30.7625897 14.1807896,28.7990999 C12.2787991,26.8627774 11.3144208,24.4857232 11.3144208,21.7340554 C11.3144208,18.9583297 12.2769504,16.5557449 14.1753239,14.5928279 C14.1789409,14.5890638 14.1826383,14.5853815 14.1863357,14.5816173 C16.1143688,12.649059 18.4609314,11.6690734 21.1607565,11.6690734 C23.8903215,11.6690734 26.2387329,12.6508592 28.1407234,14.5871817 C30.0693191,16.5506715 31.0472813,18.9552202 31.0472813,21.7340554 C31.0472813,22.7705848 30.9110402,23.7588351 30.6408085,24.688414 L31.2644634,24.4559374 C31.7854752,24.2615933 32.362591,24.5341661 32.553409,25.0646643 C32.744227,25.5951625 32.476487,26.1826137 31.9553948,26.3767942 L29.1019669,27.4405728 C28.7937967,27.5556245 28.4500189,27.5099639 28.1809929,27.3185656 C27.9589078,27.1605535 27.8109314,26.9196486 27.7660804,26.6523947 L26.8818392,24.0300987 C26.7017116,23.4957545 26.9811064,22.9139495 27.505896,22.7305704 C28.0308463,22.5471913 28.6023357,22.8314657 28.7824634,23.3658099 L28.8499811,23.5661276 C28.9748889,22.9831769 29.0378251,22.3711769 29.0378251,21.7340554 C29.0378251,19.4862912 28.279617,17.6217329 26.7197967,16.0337569 C25.1870638,14.4733574 23.3686667,13.7148014 21.1607565,13.7148014 C18.9793712,13.7148014 17.160974,14.4732756 15.6017163,16.0337569 C14.0689031,17.6212419 13.3238771,19.4858002 13.3238771,21.7340554 C13.3238771,23.9543249 14.0689031,25.7921252 15.6017163,27.3525247 C17.1614563,28.9404188 18.9798534,29.7123947 21.1607565,29.7123947 C22.5354657,29.7123947 23.7915366,29.3974344 24.8942459,28.7764332 C24.9064634,28.7696414 24.9187612,28.7629314 24.9312199,28.7566306 C25.1391584,28.6507437 25.3397021,28.5216992 25.5272246,28.3731793 C25.9652861,28.0263875 26.5964965,28.1064982 26.9372199,28.5523851 C27.2779433,28.998272 27.1991726,29.6409579 26.7611915,29.9878315 C26.4750449,30.2144164 26.1683215,30.4124428 25.8491395,30.5765921 C24.4495934,31.3606787 22.8724113,31.7581227 21.1607565,31.7581227 M10.7113428,34.0493381 C10.4661891,34.0493381 10.2205532,33.9585897 10.026922,33.7750469 C9.62085106,33.3901227 9.59810402,32.7429362 9.97620331,32.3294537 L12.1464161,29.9564091 C12.5245957,29.5430084 13.1603073,29.5198508 13.5664586,29.9048568 C13.9725296,30.289781 13.9952766,30.9369675 13.6171773,31.3504501 L11.4469645,33.7234946 C11.2490733,33.9398508 10.9805296,34.0493381 10.7113428,34.0493381 M31.2484681,34.0493381 C30.9792009,34.0493381 30.7107376,33.9398508 30.5128463,33.7234946 L28.3427139,31.3504501 C27.9645343,30.9369675 27.9872813,30.289781 28.3934326,29.9048568 C28.7995839,29.519769 29.4352955,29.5430084 29.8133948,29.9564091 L31.9836076,32.3294537 C32.3617069,32.7429362 32.3389598,33.3901227 31.9328889,33.7750469 C31.7393381,33.9585897 31.4935414,34.0493381 31.2484681,34.0493381 M21.0803783,39 C20.5255272,39 20.0756501,38.5420024 20.0756501,37.977136 L20.0756501,34.0084236 C20.0756501,33.4435572 20.5255272,32.9855596 21.0803783,32.9855596 C21.6352293,32.9855596 22.0851064,33.4435572 22.0851064,34.0084236 L22.0851064,37.977136 C22.0851064,38.5420024 21.6352293,39 21.0803783,39" id="Fill-1" fill="#FFFFFF"></path>
            </g>
        </g>
    </g>
</svg>