<?xml version="1.0" encoding="UTF-8"?>
<svg width="44px" height="44px" viewBox="0 0 44 44" version="1.1" xmlns="http://www.w3.org/2000/svg" xmlns:xlink="http://www.w3.org/1999/xlink">
    <title>icon-611Bneg</title>
    <g id="PSR" stroke="none" stroke-width="1" fill="none" fill-rule="evenodd">
        <g id="icone-bandi-PSR" transform="translate(-401.000000, -1239.000000)">
            <g id="icon-611Bneg" transform="translate(401.000000, 1239.000000)">
                <rect id="Rectangle" fill="#30373D" x="0" y="0" width="44" height="44" rx="4"></rect>
                <g id="farmer-(1)" transform="translate(8.000000, 4.000000)" fill="#FFFFFF">
                    <path d="M19.5420064,18.5425483 L15.8103456,16.8919968 L15.8103456,16.152976 C17.3987744,15.2366667 18.6007285,13.735568 19.1138379,11.9503776 C19.4255264,11.9623243 19.7237152,11.8732021 20.0125856,11.6932853 C20.4561653,11.4170784 20.7560267,10.9666891 20.8150432,10.4888224 C20.8738208,10.01 20.7259211,9.52986347 20.4086176,9.17122453 C20.3154336,9.06585493 20.2083915,8.97685227 20.0943008,8.89919893 C22.4822005,8.37796587 23.6950261,7.63786987 23.6950261,6.6948 C23.6950261,5.54732267 21.8938272,4.82741653 19.6331595,4.39578347 L19.6331595,1.91613333 C19.6331595,1.72367253 19.5176352,1.55008747 19.3403467,1.47554027 C14.7978656,-0.4327008 10.7583392,-0.4280416 6.9919136,1.49023467 C6.83158933,1.57194987 6.73075947,1.73645547 6.73075947,1.91601387 L6.73075947,4.3100064 C4.25146773,4.72945387 2.19102613,5.46739947 2.19102613,6.69468053 C2.19102613,7.6900768 3.528336,8.45573867 6.16066453,8.97613547 C6.1066656,9.01986027 6.05421973,9.0663328 6.00511893,9.11710613 C5.68709867,9.4465952 5.52092053,9.8806176 5.53704853,10.3394891 C5.5554464,10.8506869 5.84551147,11.3442037 6.313104,11.6599541 C6.608784,11.8594635 6.91366293,11.9586208 7.22678507,11.9513333 C7.7266336,13.7776203 8.93898133,15.3100192 10.5564405,16.2406645 C10.5563211,16.2456821 10.5535733,16.249744 10.5535733,16.2547616 L10.5535733,16.8918773 L6.822032,18.5425483 C5.02489493,19.3372405 3.86355947,21.1157408 3.86355947,23.0734411 L3.86355947,27.0041333 C3.86355947,27.2680352 4.07752427,27.482 4.34142613,27.482 L7.6864928,27.482 L18.6774261,27.482 L22.0224928,27.482 C22.2863947,27.482 22.5003595,27.2680352 22.5003595,27.0041333 L22.5003595,23.0734411 C22.5004789,21.1157408 21.3391435,19.3372405 19.5420064,18.5425483 L19.5420064,18.5425483 Z M7.7158816,8.1291168 C7.7137312,7.9051168 7.85016213,7.70728 8.05229973,7.639184 C8.10629867,7.62281707 8.16220907,7.60812267 8.21668587,7.59211413 C8.36004587,7.54946453 8.50555627,7.51422187 8.64999147,7.4750368 C8.32611733,7.74945173 8.01215893,7.97010667 7.7158816,8.1291168 Z M18.6406304,8.5900192 C15.4876661,10.3337547 12.1261131,8.16483733 10.8394571,7.0170016 C13.2058528,6.66923413 15.6288757,6.76050667 17.8756853,7.31471253 C18.3344373,7.42784747 18.6498293,7.84323307 18.6431392,8.32432533 C18.6418251,8.42252693 18.6408693,8.51057387 18.6406304,8.5900192 L18.6406304,8.5900192 Z M7.68661227,2.2126496 C11.0335904,0.5991328 14.6347936,0.607256533 18.6775456,2.23618453 L18.6775456,4.23390613 C16.6961909,3.93631467 14.5215392,3.8276 12.9431456,3.8276 C11.4907893,3.8276 9.53356693,3.9197088 7.68661227,4.16616853 L7.68661227,2.2126496 Z M3.14687893,6.6948 C3.14687893,6.046096 6.60460267,4.78333333 12.9431456,4.78333333 C19.2816885,4.78333333 22.7394123,6.046096 22.7394123,6.6948 C22.7394123,6.88248213 22.1433931,7.51362453 19.577488,8.0305568 C19.4675787,7.23682027 18.8968864,6.5822624 18.1047029,6.38705387 C15.5368864,5.75316373 12.7514016,5.6909216 10.0628043,6.17512 C10.0620875,6.17523947 10.0612512,6.17500053 10.0605344,6.17512 C10.0485877,6.1772704 10.0373579,6.18037653 10.0255307,6.18252693 C9.6369056,6.2532512 9.250192,6.33305493 8.866704,6.42695573 C8.83026667,6.4356768 8.79621867,6.44690667 8.7599008,6.4557472 C8.43256213,6.5378208 8.10522347,6.62073067 7.78302187,6.71976853 C7.77334507,6.7227552 7.76486293,6.7277728 7.75542507,6.73087893 C7.7420448,6.7349408 7.72758933,6.73804693 7.71420907,6.7421088 C7.13228693,6.9213088 6.7388832,7.4789792 6.75728107,8.09805547 C6.75740053,8.10390933 6.75752,8.11000213 6.75775893,8.115856 C4.0422816,7.62819307 3.14687893,6.95475947 3.14687893,6.6948 L3.14687893,6.6948 Z M8.0556448,11.3103947 C8.02816747,11.1762336 7.9445408,11.0602315 7.82579093,10.9921355 C7.75255787,10.9498443 7.6703648,10.9284597 7.5875744,10.9284597 C7.53620373,10.9284597 7.48495253,10.9365835 7.4352544,10.9534283 C7.2513952,11.0156704 7.08055787,11.0251083 6.84771733,10.8680096 C6.63590293,10.7247691 6.49959147,10.5091317 6.492304,10.30568 C6.48525547,10.10856 6.5564576,9.92231147 6.69276907,9.78110187 C6.82931947,9.63965333 7.01246187,9.562 7.20862613,9.562 C7.33765013,9.562 7.46667413,9.5071648 7.556752,9.41457813 C7.61744107,9.35209707 7.6585376,9.2924832 7.68493973,9.18544107 C8.53363093,8.86359787 9.34003093,8.19315093 9.98550933,7.52688533 C10.9513973,8.4649376 13.3489739,10.2163189 16.0907339,10.2163189 C17.0193483,10.2163189 17.9869088,10.0139424 18.9505269,9.51170453 C19.0150389,9.54216853 19.0840907,9.562 19.1554123,9.562 C19.3607755,9.562 19.5564619,9.6501664 19.6927733,9.80415893 C19.8306379,9.96030187 19.8922827,10.1618421 19.8663584,10.3721035 C19.8425845,10.5662368 19.7081845,10.7569056 19.5074805,10.8819872 C19.3060597,11.0075467 19.1355808,11.0273781 18.9187488,10.9505611 C18.7899637,10.9050443 18.6472011,10.916752 18.5272565,10.9836533 C18.4075509,11.0504352 18.3221323,11.1653621 18.2929824,11.2994037 C17.8273013,13.4358261 16.2480715,15.1811147 14.1718603,15.8540704 L13.9593291,15.9228832 C13.3745397,16.1123573 12.7514016,16.1200032 12.2055584,15.9446261 C10.092432,15.264144 8.50233067,13.4885109 8.0556448,11.3103947 L8.0556448,11.3103947 Z M11.9127456,16.8543648 C12.2746101,16.9708448 12.6515275,17.0289056 13.0329845,17.0289056 C13.4385739,17.0289056 13.8494197,16.9630795 14.2538144,16.8322635 L14.4663456,16.7634507 C14.5996704,16.7202037 14.7249909,16.6608288 14.8546123,16.6101749 L14.8546123,19.1193333 C14.8546123,20.0414965 14.1042421,20.7918667 13.1820789,20.7918667 C12.2599157,20.7918667 11.5095456,20.0414965 11.5095456,19.1193333 L11.5095456,16.6958325 C11.6440651,16.7483979 11.7740448,16.8096843 11.9127456,16.8543648 L11.9127456,16.8543648 Z M13.1820789,21.7476 C14.6313291,21.7476 15.8103456,20.5685835 15.8103456,19.1193333 L15.8103456,17.9369717 L18.1996789,18.9937739 L18.1996789,23.1812 L8.16447893,23.1812 L8.16447893,18.9937739 L10.5538123,17.9370912 L10.5538123,19.1193333 C10.5538123,20.5685835 11.7328288,21.7476 13.1820789,21.7476 Z M4.81941227,23.0734411 C4.81941227,21.4937333 5.7572256,20.0583413 7.20850667,19.4166859 L7.2087456,19.4165664 L7.2087456,23.6590667 L7.2087456,26.5262667 L4.81941227,26.5262667 L4.81941227,23.0734411 Z M8.16447893,24.1369333 L18.1996789,24.1369333 L18.1996789,26.5262667 L8.16447893,26.5262667 L8.16447893,24.1369333 Z M21.5447456,26.5262667 L19.1554123,26.5262667 L19.1554123,23.6590667 L19.1554123,19.4164469 L19.1556512,19.4165664 C20.6069323,20.0582219 21.5447456,21.4937333 21.5447456,23.0733216 L21.5447456,26.5262667 Z" id="Shape"></path>
                    <circle id="Oval" cx="15.5714123" cy="10.9956" r="1"></circle>
                    <circle id="Oval" cx="10.7927456" cy="10.9956" r="1"></circle>
                    <path d="M28.9668512,14.8063477 C28.9539488,14.5748213 28.7755851,14.3927541 28.5488373,14.3636043 C29.0130848,13.5621024 28.9695989,12.615568 28.9668512,12.5677813 C28.9533515,12.3246667 28.7592181,12.1305333 28.5161035,12.1170336 C28.4785909,12.1145248 27.8764789,12.0876448 27.2296864,12.3062688 C27.2385269,12.2276597 27.2534603,12.1510816 27.2534603,12.0697248 C27.2534603,10.8806731 26.241936,9.96137707 26.1988085,9.92278933 C26.0172192,9.76043413 25.7429237,9.76043413 25.5613344,9.92278933 C25.5182069,9.96149653 24.5069216,10.8806731 24.5069216,12.0697248 C24.5069216,12.0706805 24.5071605,12.0716363 24.5071605,12.072592 C23.8480629,11.8490699 23.2332875,11.8766667 23.1941024,11.8782197 C22.9509877,11.8917195 22.7568544,12.0858528 22.7433547,12.3289675 C22.7406069,12.3779488 22.6962848,13.3490933 23.1749877,14.1662453 C22.9414304,14.1890635 22.756496,14.3760288 22.7433547,14.6123339 C22.7406069,14.6613152 22.6962848,15.6324597 23.1749877,16.4496117 C22.9414304,16.4724299 22.756496,16.6593952 22.7433547,16.8957003 C22.7406069,16.9446816 22.6962848,17.9159456 23.1751072,18.7329781 C22.9415499,18.7557963 22.7566155,18.9427616 22.7433547,19.1790667 C22.7401291,19.2378443 22.674064,20.6261664 23.5284896,21.4807115 C24.0880715,22.0405323 24.8734453,22.2039627 25.3676789,22.2500768 L25.3676789,27.0041333 C25.3676789,27.2680352 25.5816437,27.482 25.8455456,27.482 C26.1094475,27.482 26.3234123,27.2680352 26.3234123,27.0041333 L26.3234123,22.3088544 C26.8027125,22.2719392 27.6184309,22.1230837 28.1942603,21.5471349 C29.0351861,20.706448 28.9700768,19.3411829 28.9668512,19.2836 C28.9539488,19.0520736 28.7755851,18.8700064 28.5488373,18.8408565 C29.0130848,18.0393547 28.9695989,17.0928203 28.9668512,17.0450336 C28.9539488,16.8135072 28.7755851,16.63144 28.5488373,16.6022901 C29.0129653,15.8006688 28.9694795,14.8542539 28.9668512,14.8063477 Z M27.9810123,15.3414389 C27.9320309,15.6718837 27.8118475,16.1011275 27.5185568,16.3944181 C27.2252661,16.6874699 26.7959029,16.8078923 26.4658165,16.8566347 C26.5145589,16.5261899 26.6349813,16.0969461 26.9280331,15.8038944 C27.2212043,15.5106037 27.6505675,15.3901813 27.9810123,15.3414389 L27.9810123,15.3414389 Z M24.8202827,15.6224245 C25.1248032,15.9269451 25.2474955,16.3744672 25.2962379,16.7144693 C24.9562357,16.6657269 24.5087136,16.5429152 24.2041931,16.2385141 C23.8999115,15.9339936 23.7772192,15.4869493 23.7282379,15.1469472 C24.0687179,15.196048 24.5167179,15.3188597 24.8202827,15.6224245 L24.8202827,15.6224245 Z M24.8202827,17.9057909 C25.1245643,18.2103115 25.2474955,18.6573557 25.2962379,18.9971189 C24.9557579,18.9481376 24.5077579,18.8252064 24.2041931,18.5216416 C23.8999115,18.2171211 23.7772192,17.7700768 23.7282379,17.4303136 C24.0687179,17.4791755 24.5167179,17.6022261 24.8202827,17.9057909 Z M27.5184373,18.633104 C27.2253856,18.9261557 26.7962613,19.0463392 26.4660555,19.0953205 C26.5152757,18.7646368 26.6356981,18.3346763 26.9277941,18.0423413 C27.2210848,17.7492896 27.650448,17.6288672 27.9807733,17.5801248 C27.9319115,17.9104501 27.8118475,18.3398133 27.5184373,18.633104 Z M27.5184373,14.1558517 C27.2251467,14.4489035 26.7957835,14.5693259 26.4656971,14.6180683 C26.5144395,14.2876235 26.6348619,13.8583797 26.9279136,13.565328 C27.2212043,13.2720373 27.6505675,13.1516149 27.9808928,13.1028725 C27.9319115,13.4331979 27.8118475,13.8625611 27.5184373,14.1558517 L27.5184373,14.1558517 Z M25.8800715,10.9981088 C26.0793419,11.2664309 26.2977269,11.6549365 26.2977269,12.0696053 C26.2977269,12.4842741 26.0791029,12.8730187 25.8800715,13.1411019 C25.68104,12.8727797 25.4626549,12.4842741 25.4626549,12.0696053 C25.4626549,11.6549365 25.68104,11.2663115 25.8800715,10.9981088 Z M24.8202827,13.3389387 C25.1245643,13.6434592 25.2474955,14.0905035 25.2962379,14.4305056 C24.9557579,14.3812853 24.5077579,14.2585931 24.2041931,13.9550283 C23.8999115,13.6505077 23.7772192,13.2034635 23.7282379,12.8634613 C24.0687179,12.9126816 24.5167179,13.0353739 24.8202827,13.3389387 Z M24.2041931,20.8048885 C23.8999115,20.500368 23.7772192,20.0533237 23.7282379,19.7135605 C24.0687179,19.7625419 24.5167179,19.8854731 24.8202827,20.1890379 C25.1245643,20.4935584 25.2474955,20.9406027 25.2962379,21.2803659 C24.9557579,21.231504 24.5077579,21.1084533 24.2041931,20.8048885 Z M27.5184373,20.8714315 C27.2253856,21.1644832 26.7962613,21.2849056 26.4662944,21.333648 C26.5152757,21.0032032 26.6356981,20.5732427 26.9277941,20.2809077 C27.2208459,19.987856 27.6499701,19.8676725 27.980176,19.8186912 C27.9313141,20.1492555 27.8108917,20.5790965 27.5184373,20.8714315 Z" id="Shape"></path>
                    <path d="M4.81941227,15.0574667 L4.81941227,13.146 C4.81941227,12.8820981 4.60544747,12.6681333 4.3415456,12.6681333 C4.07764373,12.6681333 3.86367893,12.8820981 3.86367893,13.146 L3.86367893,15.0574667 C3.86367893,15.6648352 3.48258027,16.1821259 2.9480864,16.3904757 L2.9480864,13.3849333 C2.9480864,13.1210315 2.7341216,12.9070667 2.47021973,12.9070667 C2.20631787,12.9070667 1.99235307,13.1210315 1.99235307,13.3849333 L1.99235307,16.4154443 C1.4166432,16.2291957 0.996478933,15.6943435 0.996478933,15.0574667 L0.996478933,13.146 C0.996478933,12.8820981 0.782514133,12.6681333 0.518612267,12.6681333 C0.2547104,12.6681333 0.0407456,12.8820981 0.0407456,13.146 L0.0407456,15.0574667 C0.0407456,16.2250144 0.883821867,17.1958005 1.99235307,17.4025973 L1.99235307,27.0041333 C1.99235307,27.2680352 2.20631787,27.482 2.47021973,27.482 C2.7341216,27.482 2.9480864,27.2680352 2.9480864,27.0041333 L2.9480864,17.3865888 C4.01659627,17.1488501 4.81941227,16.1965813 4.81941227,15.0574667 L4.81941227,15.0574667 Z" id="Path"></path>
                </g>
                <g id="number" transform="translate(6.000000, 27.000000)">
                    <rect id="Rectangle" fill="#01985A" x="0" y="0" width="32" height="14" rx="7"></rect>
                    <text id="6.1.1" font-family="TitilliumWeb-Bold, Titillium Web" font-size="9" font-weight="bold" fill="#FFFFFF">
                        <tspan x="6.636" y="10">6.1.1</tspan>
                    </text>
                </g>
            </g>
        </g>
    </g>
</svg>