<?xml version="1.0" encoding="UTF-8"?>
<svg width="44px" height="44px" viewBox="0 0 44 44" version="1.1" xmlns="http://www.w3.org/2000/svg" xmlns:xlink="http://www.w3.org/1999/xlink">
    <title>icon-433A</title>
    <defs>
        <polygon id="path-1" points="0.0735182129 0.0019 5.94040179 0.0019 5.94040179 16.75 0.0735182129 16.75"></polygon>
        <polygon id="path-3" points="0.02803107 0.001975 5.8951572 0.001975 5.8951572 16.75 0.02803107 16.75"></polygon>
        <polygon id="path-5" points="0.037389188 0.245792868 6.69702857 0.245792868 6.69702857 6.472725 0.037389188 6.472725"></polygon>
    </defs>
    <g id="PSR" stroke="none" stroke-width="1" fill="none" fill-rule="evenodd">
        <g id="icone-bandi-PSR" transform="translate(-234.000000, -581.000000)">
            <g id="icon-433A" transform="translate(234.000000, 581.000000)">
                <g id="Rectangle" fill="#F7F7F7" stroke="#D8D8D8">
                    <rect x="0.5" y="0.5" width="43" height="43" rx="4"></rect>
                </g>
                <g id="Group-38" transform="translate(5.000000, 5.000000)">
                    <path d="M0.843078571,0.0001 C-0.0173642857,0.0001 -0.0188214286,1.3771 0.843078571,1.3771 L28.63735,1.3771 L32.5682357,1.3771 C33.4289214,1.3771 33.4303786,0.0001 32.5682357,0.0001 L4.77396429,0.0001 L0.843078571,0.0001 Z" id="Fill-1" fill="#30373D"></path>
                    <path d="M17.37468,4.8856 C17.37468,4.8266 17.3639943,4.77085 17.3486943,4.71685 C17.2925943,4.51935 17.1427514,4.3651 16.9508943,4.30735 C16.8984371,4.2916 16.8440371,4.2806 16.7869657,4.2806 L16.6247371,4.2806 C16.5674229,4.2806 16.5132657,4.2916 16.4608086,4.30735 C16.2689514,4.3651 16.1191086,4.51935 16.0632514,4.71685 C16.0477086,4.77085 16.0370229,4.8266 16.0370229,4.8856 L16.0370229,5.6426 C16.0370229,5.7016 16.0477086,5.7576 16.0632514,5.8116 C16.1191086,6.00885 16.2689514,6.1631 16.4608086,6.22085 C16.5132657,6.2366 16.5674229,6.24785 16.6247371,6.24785 L16.7869657,6.24785 C16.8440371,6.24785 16.8984371,6.2366 16.9508943,6.22085 C17.1427514,6.1631 17.2925943,6.00885 17.3486943,5.8116 C17.3639943,5.7576 17.37468,5.7016 17.37468,5.6426 L17.37468,4.8856 Z" id="Fill-3" fill="#30373D"></path>
                    <path d="M16.6247614,13.800025 L16.7867471,13.800025 C16.8440614,13.800025 16.8984614,13.789025 16.9509186,13.773025 C17.1427757,13.715525 17.2926186,13.561275 17.3484757,13.363775 C17.3637757,13.309775 17.3747043,13.253775 17.3747043,13.195025 L17.3747043,12.438025 C17.3747043,12.378775 17.3637757,12.323025 17.3484757,12.269025 C17.2926186,12.071525 17.1427757,11.917525 16.9509186,11.859775 C16.8984614,11.844025 16.8440614,11.832775 16.7867471,11.832775 L16.6247614,11.832775 C16.5674471,11.832775 16.51329,11.844025 16.4608329,11.859775 C16.2689757,11.917525 16.1191329,12.071525 16.0630329,12.269025 C16.0477329,12.323025 16.0370471,12.378775 16.0370471,12.438025 L16.0370471,13.195025 C16.0370471,13.253775 16.0477329,13.309775 16.0630329,13.363775 C16.1191329,13.561275 16.2689757,13.715525 16.4608329,13.773025 C16.51329,13.789025 16.5674471,13.800025 16.6247614,13.800025" id="Fill-5" fill="#30373D"></path>
                    <path d="M17.0102729,8.10265 C16.9413014,8.0734 16.8660157,8.05665 16.7868443,8.05665 L16.6248586,8.05665 C16.5490871,8.05665 16.4774443,8.07265 16.4109014,8.09965 C16.2299729,8.17265 16.0927586,8.33415 16.0509871,8.5334 C16.0422443,8.5749 16.0369014,8.61765 16.0369014,8.6619 L16.0369014,9.4189 C16.0369014,9.47215 16.0458871,9.5229 16.0585157,9.5719 C16.1146157,9.7929 16.2872871,9.9654 16.5063443,10.01165 C16.5447157,10.01965 16.5843014,10.0239 16.6248586,10.0239 L16.7868443,10.0239 C16.8274014,10.0239 16.8669871,10.01965 16.9051157,10.01165 C17.1132443,9.96765 17.2783871,9.8099 17.34323,9.60515 C17.36193,9.5459 17.3745586,9.48415 17.3745586,9.4189 L17.3745586,8.6619 C17.3745586,8.60365 17.3641157,8.5484 17.3493014,8.49515 C17.2992729,8.31715 17.1746871,8.1724 17.0102729,8.10265" id="Fill-7" fill="#30373D"></path>
                    <path d="M21.6506414,5.7396 C21.6591414,5.7186 21.6635129,5.69685 21.6698271,5.6756 C21.6741986,5.6596 21.6805129,5.6446 21.68367,5.62835 C21.6907129,5.59385 21.6933843,5.55935 21.6943557,5.5246 C21.6945986,5.52035 21.6955808,5.5161 21.6955808,5.51185 C21.6958129,5.4781 21.6919271,5.44435 21.6865843,5.4106 C21.6858557,5.40485 21.6860986,5.3991 21.6848843,5.39335 C21.6773557,5.35385 21.6661843,5.3146 21.6508843,5.27635 L21.3701414,4.57685 C21.3548414,4.5386 21.3358986,4.50285 21.3140414,4.46935 C21.3103986,4.4636 21.3052986,4.45885 21.30117,4.4531 C21.28247,4.4266 21.2630414,4.40085 21.2404557,4.37785 C21.2351129,4.37235 21.2283129,4.36835 21.2227271,4.36285 C21.2003843,4.34185 21.1775557,4.32135 21.1522986,4.3041 C21.1343271,4.2916 21.1144129,4.2826 21.0949843,4.27235 C21.0806557,4.26485 21.0675414,4.25535 21.0522414,4.2491 C21.0330557,4.24085 21.0131414,4.2366 20.99347,4.2306 C20.9769557,4.22535 20.96117,4.2186 20.94417,4.21485 C20.9121129,4.20835 20.8798129,4.2056 20.84727,4.20435 C20.8416843,4.2041 20.8363414,4.20283823 20.8309986,4.20283823 C20.7969986,4.2026 20.7632414,4.20635 20.7297271,4.21235 C20.7251129,4.2131 20.7204986,4.21285 20.7158843,4.2136 C20.6775129,4.22135 20.6393843,4.23285 20.60247,4.2486 L20.4523843,4.31235 C20.41547,4.3281 20.3807414,4.3476 20.3479557,4.3701 C20.3435843,4.37335 20.3401843,4.37735 20.3358129,4.38035 C20.3086129,4.40035 20.2826271,4.42185 20.2593129,4.4461 C20.2542129,4.45135 20.2503271,4.45785 20.24547,4.46335 C20.2245843,4.48635 20.2044271,4.51035 20.18767,4.5366 C20.17407,4.55735 20.1641129,4.5801 20.1534271,4.60235 C20.1473557,4.61485 20.1393414,4.62635 20.1339986,4.6396 C20.1286557,4.65285 20.12647,4.66685 20.1220986,4.6806 C20.1143271,4.70385 20.1058271,4.7271 20.10097,4.7511 C20.0953843,4.7801 20.0936843,4.8091 20.0922271,4.8381 C20.0914986,4.8481 20.0893129,4.85785 20.08907,4.86785 C20.08907,4.8691 20.0888271,4.87035 20.0888271,4.8716 C20.0888271,4.90235 20.0929557,4.93285 20.09757,4.9636 C20.0987843,4.9711 20.0982986,4.9786 20.0997557,4.9861 C20.1072843,5.0256 20.1184557,5.0646 20.1337557,5.1026 L20.4144986,5.80235 C20.4297986,5.84035 20.4487414,5.87635 20.4705986,5.90985 C20.4742414,5.91535 20.4790986,5.91985 20.4829843,5.92535 C20.5019271,5.9521 20.5215986,5.9781 20.5441843,6.00135 C20.54977,6.00685 20.5563271,6.01085 20.5619129,6.0161 C20.5842557,6.0371 20.6070843,6.05785 20.6325843,6.0751 C20.6498271,6.0871 20.66877,6.09535 20.6872271,6.1051 C20.7022843,6.11335 20.71637,6.12335 20.7323986,6.1301 C20.7523129,6.1386 20.7731986,6.1431 20.7935986,6.14935 C20.8093843,6.1541 20.8244414,6.16085 20.8407129,6.1641 C20.8725271,6.1711 20.90507,6.1736 20.93737,6.17485 C20.9429557,6.17485 20.9482986,6.17636177 20.9536414,6.17636177 C20.9876414,6.1766 21.0213986,6.17285 21.0549129,6.16685 C21.0595271,6.1661 21.0641414,6.1666 21.0687557,6.1656 C21.10737,6.15785 21.1452557,6.14635 21.1824129,6.1306 L21.3322557,6.06685 C21.3694129,6.0511 21.4041414,6.0316 21.4366843,6.0091 C21.4412986,6.00585 21.4449414,6.00135 21.4495557,5.9981 C21.4765129,5.97835 21.5024986,5.95735 21.52557,5.9331 C21.53067,5.92785 21.5343129,5.9216 21.5394129,5.91585 C21.5600557,5.8926 21.5802129,5.8691 21.5972129,5.8426 C21.61057,5.82185 21.6205271,5.7991 21.6312129,5.77685 C21.6372843,5.76435 21.6452986,5.75285 21.6506414,5.7396" id="Fill-9" fill="#30373D"></path>
                    <path d="M21.6169571,8.76525 C21.6244857,8.80475 21.6356571,8.84375 21.6509571,8.88175 L21.9892571,9.72475 C22.0082,9.77175 22.0337,9.81375 22.0618714,9.853 C22.1823286,10.02025 22.3773429,10.11 22.5774571,10.09425 C22.6376857,10.0895 22.6981571,10.078 22.7569286,10.05275 L22.9070143,9.98925 C22.9439286,9.9735 22.9786571,9.95375 23.0114429,9.9315 C23.0160571,9.928 23.0197,9.92375 23.0243143,9.9205 C23.0512714,9.90075 23.0770143,9.87975 23.1000857,9.8555 C23.1051857,9.85025 23.1090714,9.84375 23.1139286,9.83825 C23.1348143,9.815 23.1549714,9.79125 23.1717286,9.76475 C23.1853286,9.74425 23.1952857,9.7215 23.2057286,9.69925 C23.2120429,9.6865 23.2200571,9.67525 23.2254,9.66175 C23.2336571,9.641 23.2382714,9.61925 23.2443429,9.59775 C23.2487143,9.582 23.2552714,9.56675 23.2584286,9.55075 C23.2652286,9.51625 23.2681429,9.48175 23.2691143,9.447 C23.2691143,9.4425 23.2703394,9.4385 23.2703394,9.43425 C23.2705714,9.4005 23.2666857,9.3665 23.2613429,9.333 C23.2603714,9.32725 23.2608571,9.3215 23.2596429,9.3155 C23.2521143,9.276 23.2409429,9.237 23.2256429,9.19875 L22.8873429,8.356 C22.8684,8.30875 22.8429,8.26675 22.8147286,8.22775 C22.6942714,8.0605 22.4990143,7.97075 22.2993857,7.9865 C22.2389143,7.99125 22.1784429,8.00275 22.1194286,8.02775 L21.9695857,8.0915 C21.9326714,8.10725 21.8977,8.12675 21.8651571,8.14925 C21.8605429,8.1525 21.8569,8.15675 21.8522857,8.16025 C21.8253286,8.18 21.7993429,8.201 21.7762714,8.225 C21.7711714,8.2305 21.7675286,8.237 21.7626714,8.2425 C21.7417857,8.2655 21.7216286,8.2895 21.7046286,8.31575 C21.6912714,8.3365 21.6815571,8.35925 21.6706286,8.3815 C21.6645571,8.39425 21.6565429,8.4055 21.6514429,8.41875 C21.6463429,8.43125 21.6441571,8.4445 21.6397857,8.45725 C21.6320143,8.4815 21.6230286,8.50525 21.6181714,8.5305 C21.6123429,8.559 21.6108857,8.588 21.6091857,8.61675 C21.6087,8.627 21.6065143,8.63675 21.6065143,8.647 C21.6065143,8.64825 21.6060286,8.6495 21.6060286,8.65075 C21.6060286,8.6815 21.6101571,8.71225 21.6147714,8.74275 C21.6159857,8.75 21.6155,8.75775 21.6169571,8.76525" id="Fill-11" fill="#30373D"></path>
                    <path d="M23.19174,12.687975 C23.1990257,12.726975 23.2101971,12.765975 23.2254971,12.804225 L23.5064829,13.503725 C23.5217829,13.541975 23.5407257,13.577725 23.56234,13.610975 C23.5664686,13.617225 23.5718114,13.622225 23.5761829,13.628225 C23.59464,13.654475 23.6138257,13.679975 23.6361686,13.702725 C23.6419971,13.708725 23.64904,13.712975 23.6551114,13.718725 C23.6769686,13.739225 23.6993114,13.759475 23.7243257,13.776475 C23.7439971,13.789975 23.7656114,13.799975 23.7864971,13.810725 C23.7993686,13.817475 23.8110257,13.825725 23.82414,13.831475 C23.8413829,13.838975 23.8593543,13.842475 23.8765971,13.847975 C23.8952971,13.853975 23.9135114,13.861475 23.9324543,13.865475 C23.9640257,13.872225 23.9960829,13.874725 24.0278971,13.875975 C24.0339686,13.876225 24.0397971,13.8777368 24.0456257,13.8777368 C24.0786543,13.877975 24.11144,13.874225 24.1439829,13.868475 C24.1495686,13.867725 24.1551543,13.867975 24.16074,13.866975 C24.1991114,13.859225 24.2369971,13.847725 24.2741543,13.831975 L24.42424,13.768225 C24.4611543,13.752475 24.4961257,13.732975 24.5284257,13.710225 C24.5327971,13.707475 24.53644,13.703475 24.5405686,13.700225 C24.5680114,13.680225 24.5939971,13.658975 24.6175543,13.634475 C24.6221686,13.629475 24.6258114,13.623475 24.6304257,13.618225 C24.6513114,13.594725 24.6717114,13.570725 24.6891971,13.543725 C24.7023114,13.522975 24.7122686,13.500475 24.7231971,13.478225 C24.7292686,13.465475 24.73704,13.453975 24.7423829,13.440975 C24.7508829,13.419725 24.7554971,13.397725 24.7618114,13.375975 C24.7661829,13.360475 24.7722543,13.345475 24.7754114,13.329725 C24.7824543,13.295725 24.7851257,13.261225 24.7860971,13.226725 C24.7860971,13.222225 24.7873229,13.217725 24.7873229,13.213225 C24.7875543,13.178975 24.7839114,13.145225 24.7783257,13.111225 C24.7775971,13.105725 24.77784,13.100225 24.7768686,13.094475 C24.76934,13.054975 24.7581686,13.015975 24.7428686,12.977975 L24.4618829,12.278225 C24.4465829,12.240225 24.4278829,12.204225 24.4060257,12.170975 C24.4018971,12.164725 24.3965543,12.159725 24.3921829,12.153725 C24.3737257,12.127475 24.35454,12.101975 24.3321971,12.079225 C24.3263686,12.073475 24.3195686,12.068975 24.3134971,12.063225 C24.2913971,12.042725 24.2690543,12.022475 24.24404,12.005475 C24.2243686,11.991975 24.2029971,11.982225 24.1818686,11.971225 C24.1689971,11.964475 24.1575829,11.956225 24.1439829,11.950475 C24.1269829,11.943225 24.1092543,11.939475 24.0917686,11.933975 C24.0730686,11.927975 24.0550971,11.920475 24.0359114,11.916475 C24.00434,11.909725 23.9722829,11.907225 23.9404686,11.905975 C23.93464,11.905725 23.9288114,11.9042139 23.92274,11.9042139 C23.8899543,11.903975 23.8569257,11.907975 23.82414,11.913475 C23.8187971,11.914475 23.8132114,11.913975 23.8078686,11.915225 C23.7692543,11.922725 23.7313686,11.934225 23.6942114,11.949975 L23.5443686,12.013975 C23.5103686,12.028225 23.47904,12.046725 23.4491686,12.066475 C23.4404257,12.072225 23.4326543,12.078475 23.4243971,12.084725 C23.4035114,12.100475 23.38384,12.116975 23.3653829,12.135225 C23.3578543,12.142725 23.34984,12.149975 23.3425543,12.157975 C23.3216686,12.180725 23.3024829,12.204725 23.2854829,12.230475 C23.2830543,12.233975 23.2803829,12.236725 23.2781971,12.240225 C23.25974,12.268975 23.2446829,12.299475 23.2313257,12.330725 C23.2269543,12.341225 23.2235543,12.351725 23.2196686,12.362225 C23.2114114,12.385225 23.2043686,12.408475 23.1987829,12.432225 C23.1961114,12.443475 23.19344,12.454725 23.1914971,12.466475 C23.1863971,12.495725 23.18324,12.525475 23.1822686,12.555475 C23.1820257,12.560725 23.1812971,12.565725 23.1812971,12.570975 C23.1812971,12.571975 23.1810543,12.572975 23.1810543,12.573725 C23.1810543,12.599225 23.18494,12.624725 23.1880971,12.650225 C23.1897971,12.662725 23.1893114,12.675475 23.19174,12.687975" id="Fill-13" fill="#30373D"></path>
                    <path d="M13.3225843,4.871575 C13.3225843,4.870825 13.3223414,4.869825 13.3223414,4.869075 C13.3223414,4.892075 13.3191843,4.914825 13.31627,4.937575 C13.3186986,4.915575 13.3225843,4.893575 13.3225843,4.871575" id="Fill-15" fill="#30373D"></path>
                    <path d="M11.8723143,5.915875 C11.8771714,5.921375 11.8810571,5.927875 11.8861571,5.933125 C11.9094714,5.957625 11.9354571,5.978625 11.9626571,5.998875 C11.9670286,6.001875 11.9704286,6.005875 11.9748,6.009125 C12.0075857,6.031375 12.0423143,6.051125 12.0794714,6.066875 L12.2293143,6.130625 C12.2664714,6.146375 12.3043571,6.157875 12.3427286,6.165625 C12.3475857,6.166375 12.3522,6.166125 12.3565714,6.166875 C12.3900857,6.172875 12.4238429,6.176625 12.4578429,6.17638677 C12.4634286,6.17638677 12.4687714,6.174875 12.4743571,6.174875 C12.5066571,6.173625 12.5389571,6.171125 12.5710143,6.164125 C12.5880143,6.160625 12.6038,6.153875 12.6205571,6.148625 C12.6399857,6.142625 12.6599,6.138375 12.6790857,6.130125 C12.6943857,6.123875 12.7075,6.114375 12.7218286,6.106625 C12.7412571,6.096375 12.7611714,6.087625 12.7791429,6.075125 C12.8044,6.057875 12.8272286,6.037375 12.8495714,6.016375 C12.8551571,6.010875 12.8619571,6.006875 12.8673,6.001375 C12.8898857,5.978375 12.9093143,5.952625 12.9280143,5.926125 C12.9321429,5.920375 12.9372429,5.915625 12.9408857,5.909875 C12.9627429,5.876375 12.9816857,5.840375 12.9969857,5.802375 L13.2779714,5.102625 C13.2932714,5.064625 13.3042,5.025625 13.3117286,4.986125 C13.3134286,4.978125 13.3129429,4.970125 13.3141571,4.962125 C13.3153714,4.953875 13.3151286,4.945625 13.3163429,4.937625 L13.3163429,4.937875 C13.3187714,4.914875 13.3224143,4.891875 13.3224143,4.869125 C13.3224143,4.868625 13.3224143,4.868125 13.3224143,4.867625 C13.3224143,4.859125 13.3204714,4.850875 13.3199857,4.842375 C13.3185286,4.811875 13.3165857,4.781375 13.3105143,4.751125 C13.3059,4.727625 13.2976429,4.705375 13.2901143,4.682375 C13.2855,4.668375 13.2833143,4.653625 13.2774857,4.639625 C13.2721429,4.626375 13.2641286,4.614875 13.2583,4.602375 C13.2473714,4.580125 13.2374143,4.557375 13.2240571,4.536625 C13.2070571,4.510125 13.1869,4.486375 13.1662571,4.463125 C13.1614,4.457625 13.1575143,4.451375 13.1524143,4.445875 C13.1293429,4.421875 13.1033571,4.400875 13.0764,4.381125 C13.0717857,4.377625 13.0681429,4.373375 13.0635286,4.370125 C13.0309857,4.347625 12.9962571,4.328125 12.9591,4.312375 L12.8092571,4.248625 C12.7721,4.232875 12.7342143,4.221375 12.6956,4.213625 C12.6909857,4.212875 12.6863714,4.213125 12.6817571,4.212375 C12.6482429,4.206375 12.6144857,4.202375 12.5807286,4.20261391 C12.5751429,4.202875 12.5698,4.204125 12.5644571,4.204375 C12.5319143,4.205625 12.4996143,4.208125 12.4675571,4.214875 C12.4512857,4.218375 12.4362286,4.225125 12.4204429,4.229875 C12.4000429,4.235875 12.3791571,4.240375 12.3592429,4.249125 C12.3432143,4.255875 12.3291286,4.265625 12.3140714,4.273875 C12.2956143,4.283875 12.2766714,4.292125 12.2594286,4.304125 C12.2339286,4.321375 12.2111,4.341875 12.1887571,4.363125 C12.1831714,4.368375 12.1766143,4.372375 12.1710286,4.377875 C12.1484429,4.401125 12.1287714,4.427125 12.1098286,4.453875 C12.1059429,4.459375 12.1010857,4.463875 12.0974429,4.469375 C12.0755857,4.502875 12.0566429,4.538625 12.0413429,4.576875 L11.7606,5.276375 C11.7453,5.314625 11.7341286,5.353625 11.7266,5.393125 C11.7253857,5.400625 11.7256286,5.408125 11.7246571,5.415875 C11.7200429,5.446375 11.7156714,5.476875 11.7156714,5.507625 C11.7156714,5.508875 11.7159143,5.509875 11.7159143,5.511125 C11.7161571,5.521375 11.7183429,5.530875 11.7190714,5.541125 C11.7205286,5.570125 11.7222286,5.599125 11.7278143,5.627875 C11.7326714,5.652125 11.7411714,5.675375 11.7489429,5.698625 C11.7533143,5.712375 11.7557429,5.726125 11.7610857,5.739625 C11.7661857,5.752875 11.7742,5.764375 11.7805143,5.776875 C11.7912,5.799125 11.8011571,5.821875 11.8145143,5.842625 C11.8315143,5.869125 11.8516714,5.892625 11.8723143,5.915875" id="Fill-17" fill="#30373D"></path>
                    <path d="M10.2995714,9.840675 C10.3037,9.845425 10.3068571,9.850925 10.3112286,9.855425 C10.3350286,9.880175 10.3612571,9.901675 10.3889429,9.921925 C10.3928286,9.924675 10.3959857,9.928425 10.4003571,9.931175 C10.4326571,9.953925 10.4673857,9.973425 10.5045429,9.989175 L10.6546286,10.052925 C10.7056286,10.074675 10.7580857,10.085675 10.8105429,10.091925 C11.0009429,10.114925 11.1891571,10.040925 11.3159286,9.894925 C11.3589143,9.845425 11.3963143,9.789425 11.4223,9.724925 L11.7608429,8.881925 C11.7761429,8.843675 11.7870714,8.804675 11.7946,8.765175 C11.7958143,8.758425 11.7955714,8.752175 11.7965429,8.745425 C11.8016429,8.712675 11.8055286,8.679675 11.8052965,8.646925 C11.8052965,8.638675 11.8033429,8.630675 11.8028571,8.622675 C11.8016429,8.591675 11.7994571,8.560925 11.7933857,8.530425 C11.7890143,8.507675 11.7807571,8.486175 11.7737143,8.464175 C11.7691,8.449175 11.7664286,8.433675 11.7603571,8.418925 C11.7542857,8.403425 11.7453,8.390175 11.7380143,8.375675 C11.7280571,8.355675 11.7190714,8.334925 11.7069286,8.315925 C11.6894429,8.288675 11.6688,8.263925 11.6471857,8.240175 C11.6430571,8.235425 11.6399,8.229925 11.6352857,8.225175 C11.6117286,8.200425 11.5852571,8.178925 11.5578143,8.158675 C11.5536857,8.155925 11.5505286,8.152175 11.5464,8.149425 C11.5138571,8.126925 11.4791286,8.107175 11.4419714,8.091425 L11.2918857,8.027925 C11.2911571,8.027425 11.2906714,8.027425 11.2899429,8.027175 C11.2462286,8.008675 11.2015429,7.997675 11.1568571,7.990675 C11.1522429,7.989925 11.1473857,7.987425 11.1427714,7.986675 C11.1473857,7.987425 11.152,7.989925 11.1568571,7.990675 C10.9407143,7.956175 10.7233571,8.049175 10.5941571,8.231175 C10.5970714,8.226925 10.5985286,8.221675 10.6016857,8.217925 C10.5985286,8.221675 10.5970714,8.226925 10.5941571,8.231175 C10.5676857,8.268425 10.5441286,8.308425 10.5261571,8.352675 C10.5256714,8.353925 10.5247,8.354675 10.5242143,8.355925 L10.1859143,9.198925 C10.1706143,9.236925 10.1594429,9.275925 10.1519143,9.315425 C10.1507,9.321925 10.1511857,9.328425 10.1502143,9.334925 C10.1451143,9.366675 10.1409857,9.398175 10.1409857,9.429925 C10.1409857,9.431175 10.1414714,9.432425 10.1414714,9.433675 C10.1414714,9.442675 10.1434143,9.451175 10.1439,9.460175 C10.1453571,9.490425 10.1473,9.520425 10.1531286,9.550425 C10.1575,9.571925 10.1652714,9.592175 10.1718286,9.613175 C10.1769286,9.629425 10.1798429,9.645925 10.1864,9.661925 C10.1927143,9.677925 10.2021857,9.692175 10.2099571,9.707425 C10.2194286,9.726675 10.2279286,9.746675 10.2395857,9.764675 C10.2573143,9.792175 10.2779571,9.816675 10.2995714,9.840675" id="Fill-19" fill="#30373D"></path>
                    <path d="M10.2201086,12.686875 C10.22448,12.663875 10.2247229,12.640625 10.22618,12.617625 C10.2273943,12.603125 10.2303086,12.588375 10.2303086,12.573875 C10.2303086,12.573125 10.2303086,12.572625 10.2303086,12.572125 C10.2303086,12.564375 10.2290943,12.556875 10.2286086,12.549125 C10.2276371,12.521875 10.2249657,12.494625 10.2203514,12.468125 C10.2181657,12.455125 10.2150086,12.442625 10.2120943,12.429875 C10.2067514,12.407875 10.2004371,12.386375 10.1929086,12.365125 C10.1885371,12.353125 10.1846514,12.341125 10.1795514,12.329375 C10.1669229,12.299875 10.1525943,12.271125 10.1353514,12.243875 C10.1314657,12.237625 10.1268514,12.232125 10.1227229,12.225875 C10.1066943,12.202375 10.0889657,12.180125 10.06978,12.159125 C10.0620086,12.150375 10.0532657,12.142125 10.0447657,12.133875 C10.02728,12.116875 10.0088229,12.101125 9.98915143,12.086375 C9.99692286,12.092375 10.0039657,12.099125 10.0114943,12.105375 C10.0037229,12.098875 9.99692286,12.092125 9.98890857,12.086125 C9.98890857,12.086375 9.98915143,12.086375 9.98915143,12.086375 C9.97992286,12.079375 9.97118,12.072375 9.96146571,12.065875 C9.96122286,12.065875 9.96122286,12.065625 9.96098,12.065625 C9.96122286,12.065625 9.96122286,12.065875 9.96146571,12.065875 C9.93256571,12.046625 9.90220857,12.029375 9.86942286,12.015125 C9.87088,12.015625 9.87185143,12.016625 9.87330857,12.017125 C9.87112286,12.016125 9.86942286,12.014875 9.86723714,12.013875 L9.71739429,11.950125 C9.68023714,11.934375 9.64235143,11.922875 9.60373714,11.915125 C9.59839429,11.914125 9.59280857,11.914375 9.58746571,11.913375 C9.55468,11.907875 9.52189429,11.903875 9.48886571,11.9041139 C9.48279429,11.904375 9.47720857,11.905625 9.47113714,11.905875 C9.43932286,11.907125 9.40726571,11.909875 9.37569429,11.916375 C9.35650857,11.920625 9.33853714,11.928125 9.31983714,11.933875 C9.30235143,11.939625 9.28462286,11.943125 9.26762286,11.950375 C9.25402286,11.956125 9.24260857,11.964625 9.22973714,11.971375 C9.20860857,11.982125 9.18723714,11.992125 9.16756571,12.005375 C9.14255143,12.022625 9.12020857,12.042625 9.09810857,12.063375 C9.09203714,12.069125 9.08523714,12.073375 9.07940857,12.079375 C9.05706571,12.102125 9.03788,12.127625 9.01942286,12.153875 C9.01505143,12.159875 9.00970857,12.164625 9.00558,12.170875 C8.98372286,12.204375 8.96502286,12.240125 8.94972286,12.278375 L8.66873714,12.977875 C8.65343714,13.015875 8.64226571,13.054875 8.63498,13.094375 C8.63352286,13.101375 8.63400857,13.108625 8.63279429,13.115375 C8.62818,13.146375 8.62380857,13.177625 8.62380857,13.208875 C8.62380857,13.210125 8.62429429,13.211375 8.62429429,13.212625 C8.62429429,13.222375 8.62648,13.231625 8.62696571,13.241125 C8.62842286,13.270625 8.63036571,13.300125 8.63619429,13.329375 C8.64056571,13.351875 8.64858,13.373375 8.65562286,13.395125 C8.66048,13.410375 8.66315143,13.426125 8.66922286,13.440875 C8.67529429,13.456125 8.68428,13.469375 8.69156571,13.483875 C8.70152286,13.504125 8.71026571,13.524875 8.72240857,13.543875 C8.73989429,13.570875 8.76029429,13.594875 8.78142286,13.618625 C8.78603714,13.623625 8.78943714,13.629625 8.79429429,13.634625 C8.81760857,13.658875 8.84383714,13.680125 8.87103714,13.700125 C8.87516571,13.703375 8.87880857,13.707375 8.88318,13.710375 C8.91548,13.732875 8.95045143,13.752375 8.98760857,13.768125 L9.13745143,13.831875 C9.17460857,13.847625 9.21249429,13.859125 9.25086571,13.866875 C9.25645143,13.867875 9.26203714,13.867625 9.26762286,13.868625 C9.30016571,13.874125 9.33295143,13.878125 9.36598,13.8778861 C9.37205143,13.8778861 9.37763714,13.876125 9.38370857,13.875875 C9.41552286,13.874625 9.44758,13.872375 9.47915143,13.865625 C9.49809429,13.861625 9.51630857,13.853875 9.53500857,13.848125 C9.55225143,13.842375 9.57022286,13.838875 9.58746571,13.831625 C9.60082286,13.825875 9.61223714,13.817375 9.62510857,13.810875 C9.64623714,13.799875 9.66760857,13.790125 9.68728,13.776375 C9.71229429,13.759625 9.73463714,13.739125 9.75649429,13.718625 C9.76256571,13.712875 9.76985143,13.708625 9.77543714,13.702625 C9.79778,13.680125 9.81696571,13.654625 9.83566571,13.628375 C9.83979429,13.622375 9.84513714,13.617375 9.84926571,13.611125 C9.87112286,13.577625 9.89006571,13.541875 9.90536571,13.503875 L10.1861086,12.804125 C10.1965514,12.777875 10.2026229,12.751125 10.20918,12.724375 C10.2077229,12.730125 10.20578,12.735875 10.2043229,12.741625 C10.20918,12.724125 10.2162229,12.706625 10.2196229,12.688875 L10.2196229,12.689125 C10.2198657,12.688375 10.2201086,12.687625 10.2201086,12.686875" id="Fill-21" fill="#30373D"></path>
                    <g id="Group-25" transform="translate(5.100000, 16.701250)">
                        <mask id="mask-2" fill="white">
                            <use xlink:href="#path-1"></use>
                        </mask>
                        <g id="Clip-24"></g>
                        <path d="M3.67578857,5.812275 L3.67578857,4.791525 C3.67578857,3.905525 2.33813143,3.904025 2.33813143,4.791525 L2.33813143,5.812275 C1.70840286,5.140025 1.39657429,4.477525 1.41163143,3.835525 C1.43883143,2.679775 2.52148857,1.746775 3.00696,1.386025 C3.49243143,1.746775 4.57508857,2.679775 4.60228857,3.835525 C4.61734571,4.477525 4.30576,5.140025 3.67578857,5.812275 M5.93946,3.802025 C5.89890286,2.076275 4.56100286,0.837525 3.76686,0.252775 C3.31247429,-0.081725 2.70144571,-0.081725 2.24706,0.252775 L2.24681714,0.252775 C1.45291714,0.837525 0.115017143,2.076275 0.07446,3.802025 C0.04386,5.103025 0.759074286,6.358025 2.20018857,7.532275 C2.24414571,7.568275 2.29126,7.597275 2.33813143,7.626525 L2.33813143,16.085025 C2.33813143,16.971025 3.67578857,16.972525 3.67578857,16.085025 L3.67578857,7.626525 C3.72266,7.597275 3.76977429,7.568275 3.81373143,7.532275 C5.25484571,6.358025 5.97006,5.103025 5.93946,3.802025" id="Fill-23" fill="#30373D" mask="url(#mask-2)"></path>
                    </g>
                    <path d="M11.89439,24.254125 C12.5452471,23.748375 13.5480043,23.687375 14.8749757,24.073125 C14.8055186,25.491125 14.4288471,26.449625 13.7549186,26.922375 C12.8269614,27.573625 11.4596757,27.212375 10.8918757,27.016625 C10.8933329,26.400375 10.9982471,24.951125 11.89439,24.254125 M10.4406471,28.313125 C10.9278186,28.483375 11.6459471,28.674125 12.4194471,28.674125 C13.1137757,28.674125 13.85279,28.520375 14.5085043,28.060125 C15.55279,27.327125 16.1261757,25.997125 16.21239,24.107125 C16.2408043,23.484125 15.8539329,22.929375 15.2715614,22.757875 C13.50429,22.237625 12.09669,22.371125 11.0883471,23.155375 C9.74996143,24.195875 9.55276143,26.036875 9.5542106,27.041875 C9.55494714,27.617375 9.91121857,28.128375 10.4406471,28.313125" id="Fill-26" fill="#30373D"></path>
                    <path d="M4.31955429,24.254125 C5.21569714,24.950875 5.32061143,26.400125 5.32206857,27.016625 C4.75451143,27.212375 3.38722571,27.573625 2.45878286,26.922375 C1.78509714,26.449625 1.40842571,25.491125 1.33896857,24.073125 C2.66618286,23.687375 3.66894,23.748375 4.31955429,24.254125 M1.70544,28.060125 C2.36139714,28.520375 3.10016857,28.674125 3.79449714,28.674125 C4.56775429,28.674125 5.28612571,28.483375 5.77305429,28.313125 C6.30272571,28.128375 6.65899714,27.617375 6.65973368,27.041875 C6.66118286,26.036875 6.46398286,24.195875 5.12559714,23.155375 C4.11701143,22.371125 2.70941143,22.237625 0.94214,22.757875 C0.360011429,22.929375 -0.02686,23.484125 0.00155428571,24.107125 C0.0877685714,25.997125 0.661154286,27.327125 1.70544,28.060125" id="Fill-28" fill="#30373D"></path>
                    <g id="Group-32" transform="translate(22.342857, 16.701250)">
                        <mask id="mask-4" fill="white">
                            <use xlink:href="#path-3"></use>
                        </mask>
                        <g id="Clip-31"></g>
                        <path d="M1.36614429,3.8356 C1.39334429,2.6796 2.47600143,1.74685 2.96147286,1.3861 C3.44694429,1.74685 4.52960143,2.6796 4.55680143,3.8356 C4.57210143,4.4776 4.26027286,5.1401 3.63030143,5.81235 L3.63030143,4.7916 C3.63030143,3.9056 2.29264429,3.9041 2.29264429,4.7916 L2.29264429,5.81235 C1.66291571,5.1401 1.35108714,4.4776 1.36614429,3.8356 M2.29264429,7.6266 L2.29264429,16.0851 C2.29264429,16.9711 3.63030143,16.97235 3.63030143,16.0851 L3.63030143,7.6266 C3.67717286,7.59735 3.72428714,7.56835 3.76824429,7.53235 C5.20935857,6.3581 5.92481571,5.10285 5.89421571,3.8021 C5.85341571,2.0761 4.51551571,0.8376 3.72161571,0.25285 C3.26698714,-0.08165 2.65620143,-0.08165 2.20157286,0.25285 L2.20133,0.25285 C1.40743,0.8376 0.0697728571,2.0761 0.0289728571,3.8021 C-0.00162714286,5.10285 0.713587143,6.3581 2.15470143,7.53235 C2.19865857,7.56835 2.24577286,7.59735 2.29264429,7.6266" id="Fill-30" fill="#30373D" mask="url(#mask-4)"></path>
                    </g>
                    <g id="Group-35" transform="translate(26.714286, 22.201250)">
                        <mask id="mask-6" fill="white">
                            <use xlink:href="#path-5"></use>
                        </mask>
                        <g id="Clip-34"></g>
                        <path d="M4.2381,4.721225 C3.31014286,5.372475 1.94261429,5.011225 1.37481429,4.815225 C1.37651429,4.199225 1.48118571,2.749725 2.37757143,2.052975 C3.02842857,1.547225 4.03094286,1.486225 5.35791429,1.871975 C5.2887,3.289975 4.91178571,4.248225 4.2381,4.721225 M6.69557143,1.905725 C6.72398571,1.282975 6.33711429,0.727975 5.75474286,0.556475 C3.98747143,0.036225 2.57987143,0.169725 1.57152857,0.954225 C0.233142857,1.994725 0.0357,3.835725 0.037389188,4.840725 C0.0381285714,5.415975 0.3944,5.926975 0.923828571,6.111975 C1.41075714,6.282225 2.12912857,6.472725 2.90238571,6.472725 C3.59695714,6.472725 4.33597143,6.319225 4.99168571,5.858725 C6.03597143,5.125975 6.60935714,3.795975 6.69557143,1.905725" id="Fill-33" fill="#30373D" mask="url(#mask-6)"></path>
                    </g>
                    <path d="M21.5169971,24.254125 C22.41314,24.950875 22.5180543,26.400125 22.5195114,27.016625 C21.9519543,27.212375 20.5844257,27.573625 19.6562257,26.922375 C18.98254,26.449625 18.6058686,25.491125 18.5364114,24.073125 C19.8636257,23.687375 20.8663829,23.748375 21.5169971,24.254125 M18.9028829,28.060125 C19.55884,28.520375 20.2973686,28.674125 20.99194,28.674125 C21.7651971,28.674125 22.4835686,28.483375 22.9704971,28.313125 C23.5001686,28.128375 23.85644,27.617375 23.8571765,27.041875 C23.8586257,26.036875 23.6614257,24.195875 22.32304,23.155375 C21.3144543,22.371125 19.9068543,22.237625 18.1395829,22.757875 C17.5572114,22.929375 17.1705829,23.484125 17.1989971,24.107125 C17.2852114,25.997125 17.8583543,27.327125 18.9028829,28.060125" id="Fill-36" fill="#30373D"></path>
                </g>
            </g>
        </g>
    </g>
</svg>