<?xml version="1.0" encoding="UTF-8"?>
<svg width="44px" height="44px" viewBox="0 0 44 44" version="1.1" xmlns="http://www.w3.org/2000/svg" xmlns:xlink="http://www.w3.org/1999/xlink">
    <title>icon-1611Bneg</title>
    <defs>
        <polygon id="path-1" points="0.0563660741 0.1067136 10.9352476 0.1067136 10.9352476 10.5959347 0.0563660741 10.5959347"></polygon>
        <polygon id="path-3" points="0.12349037 0.12827136 11.0014281 0.12827136 11.0014281 10.6176 0.12349037 10.6176"></polygon>
    </defs>
    <g id="PSR" stroke="none" stroke-width="1" fill="none" fill-rule="evenodd">
        <g id="icone-bandi-PSR" transform="translate(-401.000000, -1540.000000)">
            <g id="icon-1611Bneg" transform="translate(401.000000, 1540.000000)">
                <rect id="Rectangle" fill="#30373D" x="0" y="0" width="44" height="44" rx="4"></rect>
                <g id="Group-25" transform="translate(9.000000, 3.000000)">
                    <g id="Group-24" transform="translate(0.000000, 0.027686)">
                        <g id="Group-4" transform="translate(7.145185, 0.000000)">
                            <mask id="mask-2" fill="white">
                                <use xlink:href="#path-1"></use>
                            </mask>
                            <g id="Clip-3"></g>
                            <path d="M0.629463852,10.3735027 C0.732866815,10.4436595 0.847324593,10.4994355 0.970140889,10.5372019 C1.09268756,10.5755059 1.2231883,10.5959347 1.35638533,10.5959347 L5.62071274,10.5959347 C5.94588607,10.5959347 6.21025793,10.3329139 6.21025793,10.0083379 C6.21025793,9.68389632 5.94588607,9.42087552 5.62071274,9.42087552 L1.35638533,9.42087552 C1.3396683,9.42087552 1.32564756,9.41764992 1.31095274,9.41173632 C1.28978681,9.40300032 1.26916015,9.38620032 1.25567867,9.36577152 C1.2486683,9.35609472 1.24381496,9.34534272 1.24057941,9.33459072 C1.23720904,9.32356992 1.23518681,9.31281792 1.23518681,9.29991552 L1.23518681,7.69706112 C1.23518681,7.57287552 1.24583719,7.45070592 1.26592459,7.33364352 L1.26592459,7.33189632 C1.30650385,7.08997632 1.38739274,6.86055552 1.50158089,6.65048832 C1.518972,6.61809792 1.55577644,6.56339712 1.60943274,6.49982592 C1.70258978,6.38800512 1.8456283,6.24970752 2.01293348,6.11087232 C2.26436311,5.90147712 2.570932,5.68818432 2.86078385,5.51574912 C2.971332,5.45043072 3.07904904,5.39062272 3.1797557,5.33860992 C3.45774385,5.64221952 3.79410681,5.89166592 4.17334089,6.06772992 C4.57535867,6.25468032 5.02496607,6.35937792 5.49573941,6.35884032 C5.96637793,6.35937792 6.41665941,6.25468032 6.81813793,6.06772992 C7.20438237,5.88897792 7.54600311,5.63348352 7.82668756,5.32234752 C7.94438089,5.38296192 8.07299422,5.45580672 8.20389941,5.53752192 C8.48674089,5.71237632 8.78198533,5.92674432 9.02155126,6.13533312 C9.14032311,6.23935872 9.24561348,6.34150272 9.32785052,6.43276032 C9.36762089,6.47832192 9.40199867,6.52079232 9.42977052,6.55802112 C9.45754237,6.59538432 9.47749496,6.62777472 9.48976311,6.65048832 C9.60395126,6.86055552 9.68497496,7.08997632 9.72501496,7.33189632 L9.72609348,7.33364352 C9.74604607,7.45070592 9.75602237,7.57287552 9.75602237,7.69706112 L9.75602237,9.29991552 C9.75602237,9.31725312 9.752652,9.33123072 9.74712459,9.34534272 C9.73822681,9.36644352 9.72150978,9.38673792 9.70047867,9.40031232 C9.6917157,9.40743552 9.68052607,9.41227392 9.66947126,9.41549952 C9.65841644,9.41912832 9.64830533,9.42087552 9.63509348,9.42087552 L8.39479719,9.42087552 C8.06854533,9.42087552 7.80457793,9.68389632 7.80457793,10.0083379 C7.80457793,10.3329139 8.06854533,10.5959347 8.39479719,10.5959347 L9.63509348,10.5959347 C9.81372311,10.5959347 9.985612,10.5593779 10.1410535,10.4933875 C10.375092,10.3940659 10.5713824,10.2309043 10.7122639,10.0251379 C10.7822327,9.92205312 10.8377764,9.80754432 10.8766031,9.68564352 C10.9142164,9.56347392 10.9352476,9.43324032 10.9352476,9.29991552 L10.9352476,7.69706112 C10.9352476,7.50755712 10.9197439,7.32006912 10.8876579,7.13715072 C10.8255083,6.76432512 10.701209,6.41165952 10.5270283,6.09098112 C10.4593513,5.96840832 10.3806194,5.85752832 10.2919113,5.75027712 C10.1375483,5.56332672 9.95460459,5.38578432 9.75386533,5.21388672 C9.45309348,4.95624192 9.11362978,4.71391872 8.77861496,4.51030272 C8.66442681,4.44014592 8.55010385,4.37469312 8.43685941,4.31528832 C8.4468357,4.29028992 8.45573348,4.26623232 8.46463126,4.24136832 C8.57342681,3.92431872 8.63207126,3.58401792 8.63207126,3.23309952 C8.63207126,2.80261632 8.54336311,2.39014272 8.38468607,2.01570432 C8.14619867,1.45418112 7.75011274,0.97773312 7.24873644,0.64132992 C6.99905941,0.47292672 6.72282385,0.33892992 6.42771422,0.24767232 C6.13327867,0.15587712 5.81902533,0.10668672 5.49573941,0.10668672 C5.064332,0.10668672 4.65058533,0.19418112 4.27512607,0.35290752 C3.71186978,0.59052672 3.23395126,0.98579712 2.89597052,1.48482432 C2.72704756,1.73386752 2.59263719,2.00925312 2.50109793,2.30358912 C2.40901941,2.59752192 2.35967719,2.91067392 2.35967719,3.23309952 C2.35967719,3.58401792 2.41832163,3.92431872 2.52711719,4.24190592 C2.53682385,4.27053312 2.55205793,4.30399872 2.567292,4.33208832 C2.44905941,4.39471872 2.32880459,4.46272512 2.20747126,4.53610752 C1.86679422,4.74294912 1.518972,4.98715392 1.21388607,5.24520192 C1.06114089,5.37489792 0.919315704,5.50768512 0.792454963,5.64584832 C0.729631259,5.71506432 0.670043111,5.78575872 0.615443111,5.85873792 C0.560169037,5.93212032 0.509748296,6.00832512 0.465259407,6.09098112 L0.464720148,6.09098112 C0.290943852,6.41165952 0.166240148,6.76432512 0.103551259,7.13715072 C0.0725438519,7.32006912 0.0563660741,7.50755712 0.0563660741,7.69706112 L0.0563660741,9.29991552 C0.0563660741,9.47759232 0.0931705185,9.64975872 0.159229778,9.80499072 C0.258857926,10.0381747 0.42306237,10.2342643 0.629463852,10.3735027 M3.69232163,2.47373952 C3.84021348,2.12429952 4.08935126,1.82512512 4.40198681,1.61505792 C4.55850681,1.50982272 4.73026089,1.42662912 4.91387867,1.36991232 C5.09695719,1.31252352 5.29189941,1.28188032 5.49573941,1.28188032 C5.76752607,1.28228352 6.02340459,1.33631232 6.25676904,1.43523072 C6.60742237,1.58266752 6.90805941,1.83103872 7.11890978,2.14271232 C7.22420015,2.29821312 7.30738089,2.46984192 7.36521644,2.65249152 C7.42183867,2.83554432 7.45284607,3.02934912 7.45284607,3.23309952 C7.45284607,3.45459072 7.41617644,3.66506112 7.34849941,3.86222592 L7.34849941,3.86276352 C7.26639719,4.10307072 7.13764904,4.32268032 6.97357941,4.51245312 C6.79387126,4.71808512 6.57075274,4.88662272 6.32121052,5.00274432 C6.06978089,5.11886592 5.79260163,5.18364672 5.49573941,5.18364672 C5.19928163,5.18364672 4.9214283,5.11886592 4.67067274,5.00274432 C4.43542089,4.89374592 4.22591867,4.73811072 4.05200756,4.54914432 L3.9186757,4.31784192 C3.91719274,4.31475072 3.9150357,4.31152512 3.91328311,4.30816512 L3.62666681,3.81303552 C3.56990978,3.62998272 3.53836311,3.43617792 3.53836311,3.23309952 C3.53903719,2.96188032 3.59323274,2.70705792 3.69232163,2.47373952" id="Fill-2" fill="#FFFFFF" mask="url(#mask-2)"></path>
                        </g>
                        <path d="M0.572585481,21.4158336 C0.675988444,21.4859904 0.790311407,21.5417664 0.913262519,21.5796672 C1.03580919,21.6178368 1.16617511,21.6384 1.30004622,21.6384 L9.5780803,21.6384 C9.75630548,21.6384 9.92900326,21.6017088 10.0845796,21.5358528 C10.3180788,21.4363968 10.5146388,21.2732352 10.654981,21.0669312 C10.7249499,20.9638464 10.7804936,20.8498752 10.8190507,20.72784 C10.8576077,20.6059392 10.8780996,20.4757056 10.8780996,20.3422464 L10.8780996,18.7399296 C10.8780996,18.3640128 10.8158151,18.0005952 10.7005484,17.6613696 C10.5281203,17.1526656 10.237864,16.698528 9.86348326,16.330272 C9.48923733,15.9625536 9.02924919,15.6789696 8.51560474,15.5143296 C8.48270993,15.5034432 8.4496803,15.4964544 8.41489807,15.491616 L8.33212178,15.480192 C8.35908474,15.4159488 8.38469956,15.350496 8.40734844,15.2842368 L8.40734844,15.2836992 C8.51560474,14.9673216 8.57478844,14.6268864 8.57478844,14.2754304 C8.57478844,13.6840704 8.40856178,13.1267136 8.12086696,12.6545664 C7.83303733,12.1821504 7.42427881,11.7926592 6.9354403,11.5276224 L6.93490104,11.5270848 C6.60999733,11.3510208 6.24977215,11.2305984 5.86770696,11.1781824 C5.72642104,11.1588288 5.58284326,11.1490176 5.43872622,11.1490176 C5.00745363,11.1490176 4.59370696,11.2366464 4.2182477,11.3947008 C3.65431733,11.6328576 3.17707289,12.028128 2.83909215,12.5266176 C2.67003437,12.7761984 2.53575881,13.0517184 2.44421956,13.34592 C2.3526803,13.6398528 2.30320326,13.9530048 2.30320326,14.2754304 C2.30320326,14.6268864 2.3618477,14.9673216 2.470104,15.2836992 L2.470104,15.2842368 C2.4928877,15.350496 2.51904178,15.4159488 2.54600474,15.480192 L2.46268919,15.491616 C2.42790696,15.4964544 2.39541659,15.5034432 2.36238696,15.5143296 C1.67712326,15.7340736 1.08825215,16.1640192 0.668978074,16.72608 C0.459341037,17.0075136 0.291901037,17.3222784 0.177038815,17.6613696 C0.0621765926,18.0005952 2.11197652e-05,18.3640128 2.11197652e-05,18.7399296 L2.11197652e-05,20.3422464 C-0.000512296296,20.5200576 0.0362921481,20.692224 0.102890667,20.8473216 C0.201979556,21.079968 0.366184,21.2760576 0.572585481,21.4158336 L0.572585481,21.4158336 Z M3.63544326,13.5160704 C3.78387437,13.1666304 4.03247289,12.867456 4.34510844,12.6568512 C4.50162844,12.551616 4.67338252,12.46896 4.85646104,12.4117056 C5.04007881,12.3548544 5.23461659,12.3242112 5.43872622,12.3242112 C5.53026548,12.3242112 5.61978252,12.3301248 5.70525511,12.3424896 L5.70741215,12.3424896 C5.94576474,12.37488 6.16955733,12.4500096 6.372184,12.5595456 C6.67713511,12.7248576 6.93395733,12.9694656 7.11326104,13.2644736 C7.29256474,13.5598848 7.39542844,13.9027392 7.3959677,14.2754304 C7.3959677,14.496384 7.35916326,14.7079296 7.29189067,14.9050944 C7.20911437,15.1460736 7.08063585,15.3656832 6.91602696,15.5542464 L6.91602696,15.554784 C6.76274252,15.730176 6.57858548,15.8782848 6.372184,15.9905088 C6.16901807,16.1001792 5.94576474,16.1751744 5.70741215,16.2075648 L5.70525511,16.2075648 C5.61978252,16.2201984 5.53026548,16.2259776 5.43872622,16.2259776 C5.141864,16.2259776 4.86454993,16.1610624 4.61379437,16.0452096 C4.36357807,15.9285504 4.14140326,15.760416 3.9615603,15.554784 L3.9615603,15.5542464 C3.79681659,15.3656832 3.66847289,15.1460736 3.58610104,14.9050944 C3.51882844,14.7079296 3.482024,14.496384 3.482024,14.2754304 C3.482024,14.0042112 3.53689363,13.7488512 3.63544326,13.5160704 L3.63544326,13.5160704 Z M1.1788477,18.7399296 C1.1788477,18.4937088 1.21942696,18.2587776 1.29411437,18.037824 C1.40574104,17.7073344 1.59582993,17.4092352 1.84173215,17.1673152 C2.0779277,16.935072 2.364544,16.75632 2.68149363,16.6478592 L3.30231585,16.5625152 C3.5412077,16.7849472 3.81582548,16.9702848 4.11646252,17.1101952 C4.5184803,17.2970112 4.9680877,17.4011712 5.43872622,17.4011712 C5.58284326,17.4011712 5.72642104,17.3914944 5.86770696,17.3720064 C6.24977215,17.3195904 6.60999733,17.199168 6.93490104,17.0229696 L6.9354403,17.0225664 C7.16853511,16.8962304 7.38289067,16.7407296 7.57473215,16.5625152 L8.19825067,16.6478592 C8.62466993,16.794624 8.99621956,17.070144 9.26220919,17.4271104 C9.39985511,17.611776 9.50932474,17.8176768 9.58387733,18.037824 C9.65869956,18.2587776 9.69927881,18.4937088 9.69927881,18.7399296 L9.69927881,20.3422464 C9.69927881,20.359584 9.69604326,20.3735616 9.69011141,20.3876736 C9.68148326,20.4087744 9.66422696,20.4297408 9.64413956,20.4433152 C9.63375881,20.4497664 9.62351289,20.4546048 9.6127277,20.458368 C9.6018077,20.4615936 9.59102252,20.4632064 9.5780803,20.4632064 L1.30004622,20.4632064 C1.28278993,20.4632064 1.26863437,20.4601152 1.25461363,20.4540672 C1.2334477,20.4454656 1.21228178,20.4286656 1.1988003,20.4087744 C1.19232919,20.39856 1.18693659,20.3876736 1.18370104,20.3773248 C1.18033067,20.3665728 1.1788477,20.3551488 1.1788477,20.3422464 L1.1788477,18.7399296 Z" id="Fill-9" fill="#FFFFFF"></path>
                        <g id="Group-19" transform="translate(14.290370, 11.020800)">
                            <mask id="mask-4" fill="white">
                                <use xlink:href="#path-3"></use>
                            </mask>
                            <g id="Clip-18"></g>
                            <path d="M2.87708296,1.63986816 C2.59194963,2.11026816 2.42666667,2.66587776 2.42666667,3.25468416 C2.42666667,3.60614016 2.48544593,3.94644096 2.59410667,4.26295296 L2.59410667,4.26349056 C2.61742963,4.32974976 2.64304444,4.39520256 2.66960296,4.45944576 L2.58642222,4.47073536 C2.55204444,4.47570816 2.51995852,4.48256256 2.48544593,4.49344896 C1.80099111,4.71319296 1.21171556,5.14260096 0.792441481,5.70533376 C0.58266963,5.98622976 0.41522963,6.30153216 0.301041481,6.64062336 C0.18564,6.97971456 0.12349037,7.34326656 0.12349037,7.71904896 L0.12349037,9.32136576 C0.12349037,9.49931136 0.16016,9.67147776 0.226623704,9.82644096 C0.325308148,10.059625 0.489647407,10.2557146 0.695914074,10.3950874 C0.799182222,10.4647066 0.913505185,10.5208858 1.03659111,10.5587866 C1.15967704,10.5970906 1.2895037,10.6176538 1.42256593,10.6176538 L9.70113926,10.6176538 C9.87976889,10.6176538 10.0528711,10.5808282 10.2081778,10.5149722 C10.4422163,10.4156506 10.6386415,10.252489 10.779523,10.046185 C10.8494919,9.94296576 10.9049007,9.82912896 10.9426489,9.70695936 C10.9814756,9.58505856 11.001563,9.45482496 11.001563,9.32136576 L11.001563,7.71904896 C11.001563,7.34326656 10.9392785,6.97971456 10.8250904,6.64062336 C10.6519881,6.13191936 10.3624059,5.67778176 9.98735111,5.30952576 C9.61243111,4.94167296 9.15311704,4.65822336 8.63947259,4.49344896 C8.60617333,4.48256256 8.57395259,4.47570816 8.53957481,4.47073536 L8.45531556,4.45944576 C8.48295259,4.39520256 8.50843259,4.32974976 8.53175556,4.26349056 L8.53175556,4.26295296 C8.63947259,3.94644096 8.69825185,3.60614016 8.69825185,3.25468416 C8.69825185,2.82460416 8.61062222,2.41159296 8.45208,2.03728896 C8.21345778,1.47563136 7.81629333,0.99931776 7.31599556,0.66237696 C7.06631852,0.49397376 6.78994815,0.36051456 6.49497333,0.26871936 C6.19972889,0.17732736 5.88574519,0.12827136 5.56192,0.12827136 C5.41321926,0.12827136 5.26573185,0.13902336 5.12255852,0.15891456 C4.73968444,0.21254016 4.37932444,0.33565056 4.05415111,0.51319296 C3.56935704,0.77957376 3.16329481,1.16825856 2.87708296,1.63986816 M9.38607704,6.40636416 C9.52372296,6.59102976 9.6323837,6.79679616 9.70788,7.01707776 C9.78216296,7.23789696 9.82314667,7.47282816 9.82314667,7.71904896 L9.82314667,9.32136576 C9.82314667,9.33870336 9.81991111,9.35281536 9.81317037,9.36679296 C9.80548593,9.38789376 9.78782519,9.40899456 9.76773778,9.42243456 C9.75776148,9.42888576 9.74670667,9.43372416 9.73673037,9.43762176 C9.72567556,9.44084736 9.71448593,9.44246016 9.70113926,9.44246016 L1.42256593,9.44246016 C1.4059837,9.44246016 1.39263704,9.43923456 1.37821185,9.43318656 C1.35718074,9.42471936 1.33601481,9.40791936 1.32280296,9.38749056 C1.31606222,9.37767936 1.31053481,9.36679296 1.30716444,9.35604096 C1.30392889,9.34528896 1.30271556,9.33440256 1.30163704,9.32136576 L1.30163704,7.71904896 C1.30271556,7.47282816 1.34275556,7.23735936 1.41703852,7.01707776 C1.52906963,6.68605056 1.71996741,6.38795136 1.96506074,6.14589696 C2.20139111,5.91432576 2.48760296,5.73557376 2.80617037,5.62711296 L3.4261837,5.54163456 C3.61586815,5.71716096 3.82564,5.87010816 4.05415111,5.99536896 C4.37932444,6.17304576 4.73968444,6.29629056 5.12255852,6.34964736 C5.26573185,6.36953856 5.41321926,6.38029056 5.56192,6.38029056 C6.03336741,6.38029056 6.48270519,6.27613056 6.88539704,6.08931456 C7.18616889,5.94994176 7.46011259,5.76420096 7.69967852,5.54163456 L8.32225333,5.62711296 C8.74826815,5.77387776 9.11995259,6.04939776 9.38607704,6.40636416 M3.88671111,2.24749056 C4.06426222,1.95302016 4.31933185,1.70894976 4.62118222,1.54310016 C4.82407852,1.43248896 5.04814074,1.35641856 5.28568444,1.32295296 L5.28676296,1.32295296 C5.37776296,1.30991616 5.46876296,1.30333056 5.56192,1.30333056 C5.83478519,1.30333056 6.08998963,1.35789696 6.32402815,1.45627776 C6.67468148,1.60425216 6.97424,1.85208576 7.18616889,2.16362496 C7.29145926,2.31979776 7.37464,2.49088896 7.43126222,2.67407616 C7.48896296,2.85712896 7.51997037,3.05106816 7.51997037,3.25468416 C7.51997037,3.47550336 7.48235704,3.68704896 7.41575852,3.88421376 C7.3336563,4.12519296 7.20504296,4.34493696 7.03962519,4.53336576 L7.03962519,4.53390336 C6.85991704,4.73953536 6.63801185,4.90766976 6.3872563,5.02446336 C6.13663556,5.14031616 5.85918667,5.20509696 5.56192,5.20509696 C5.46876296,5.20509696 5.37776296,5.19864576 5.28676296,5.18587776 L5.28568444,5.18587776 C5.04814074,5.15241216 4.82407852,5.07607296 4.62118222,4.96532736 C4.41909481,4.85417856 4.23722963,4.70781696 4.08529333,4.53390336 L4.08529333,4.53336576 C3.92108889,4.34493696 3.79234074,4.12519296 3.70916,3.88421376 C3.64256148,3.68704896 3.60589185,3.47550336 3.60589185,3.25468416 C3.60589185,2.88360576 3.70808148,2.54169216 3.88671111,2.24749056" id="Fill-17" fill="#FFFFFF" mask="url(#mask-4)"></path>
                        </g>
                        <path d="M10.6538756,16.2832992 C10.8776681,16.5193056 11.2502963,16.5305952 11.4870311,16.3076256 L12.6175881,15.2457312 L13.74828,16.3076256 C13.9855541,16.5305952 14.358317,16.5193056 14.5813007,16.2832992 C14.8044193,16.0466208 14.7933644,15.6752736 14.5570341,15.4525728 L13.2069985,14.1846432 L13.2069985,12.2183712 C13.2069985,11.8937952 12.9431659,11.6307744 12.6175881,11.6307744 C12.2920104,11.6307744 12.0281778,11.8937952 12.0281778,12.2183712 L12.0281778,14.1846432 L10.6788163,15.4525728 C10.4420815,15.6752736 10.4306222,16.0466208 10.6538756,16.2832992" id="Fill-22" fill="#FFFFFF"></path>
                    </g>
                </g>
                <g id="number" transform="translate(6.000000, 27.000000)">
                    <rect id="Rectangle" fill="#01985A" x="0" y="0" width="32" height="14" rx="7"></rect>
                    <text id="16.1.1" font-family="TitilliumWeb-Bold, Titillium Web" font-size="9" font-weight="bold" fill="#FFFFFF">
                        <tspan x="4.116" y="10">16.1.1</tspan>
                    </text>
                </g>
            </g>
        </g>
    </g>
</svg>