<?xml version="1.0" encoding="UTF-8"?>
<svg width="44px" height="44px" viewBox="0 0 44 44" version="1.1" xmlns="http://www.w3.org/2000/svg" xmlns:xlink="http://www.w3.org/1999/xlink">
    <title>icon-861Aneg</title>
    <defs>
        <polygon id="path-1" points="0.2646875 0.304804687 5.2534375 0.304804687 5.2534375 6.85977891 0.2646875 6.85977891"></polygon>
    </defs>
    <g id="PSR" stroke="none" stroke-width="1" fill="none" fill-rule="evenodd">
        <g id="icone-bandi-PSR" transform="translate(-286.000000, -1459.000000)">
            <g id="icon-861Aneg" transform="translate(286.000000, 1459.000000)">
                <rect id="Rectangle" fill="#30373D" x="0" y="0" width="44" height="44" rx="4"></rect>
                <g id="Group-18" transform="translate(8.000000, 5.000000)">
                    <path d="M14.6338125,6.87740977 C13.3456875,6.87740977 12.2975625,7.8796793 12.2975625,9.11144883 C12.2975625,10.3432184 13.3456875,11.3454879 14.6338125,11.3454879 C15.9225625,11.3454879 16.9700625,10.3432184 16.9700625,9.11144883 C16.9700625,7.8796793 15.9225625,6.87740977 14.6338125,6.87740977 M14.6338125,12.600566 C12.6219375,12.600566 10.9850625,11.0353043 10.9850625,9.11144883 C10.9850625,7.18759336 12.6219375,5.62233164 14.6338125,5.62233164 C16.6463125,5.62233164 18.2825625,7.18759336 18.2825625,9.11144883 C18.2825625,11.0353043 16.6463125,12.600566 14.6338125,12.600566" id="Fill-1" fill="#FFFFFF"></path>
                    <path d="M11.6089375,33.761482 C10.2764375,33.761482 9.1301875,33.2080523 8.4945625,32.5524234 L1.8251875,25.6805719 C0.6001875,24.489443 -0.0510625,22.8542555 0.0033125,21.0893766 C0.0551875,19.3980094 0.7720625,17.7831422 1.9701875,16.6589508 C3.8876875,14.8588102 11.1008125,8.41069688 11.1726875,8.34615 C11.4383125,8.11007578 11.8533125,8.12322422 12.1008125,8.37543516 C12.3483125,8.62943906 12.3339375,9.02628281 12.0695625,9.26295469 C11.9970625,9.32809922 4.7964375,15.7654547 2.8895625,17.5548375 C1.9308125,18.4543102 1.3570625,19.7554078 1.3151875,21.1264313 C1.2714375,22.5464625 1.7895625,23.8559273 2.7733125,24.8133727 L9.4564375,31.6989703 C9.7408125,31.9924195 10.3226875,32.3360719 11.0620625,32.4585914 L3.6314375,24.3077555 C2.0989375,22.6271461 2.2345625,20.1193805 3.9414375,18.598943 L12.2120625,11.2328297 C12.4776875,10.9973531 12.8920625,11.0110992 13.1395625,11.2645055 C13.3870625,11.5185094 13.3720625,11.9153531 13.1064375,12.1514273 L4.8364375,19.5175406 C3.6508125,20.5735992 3.5564375,22.3151695 4.6208125,23.4829898 L12.9614375,32.6319117 C13.1139375,32.7992555 13.1626875,33.0305484 13.0901875,33.2409234 C13.0170625,33.4512984 12.8339375,33.6096773 12.6076875,33.6574898 C12.2670625,33.7286109 11.9326875,33.761482 11.6089375,33.761482" id="Fill-3" fill="#FFFFFF"></path>
                    <path d="M17.65875,33.761482 C17.335,33.761482 17.000625,33.7286109 16.66,33.6574898 C16.434375,33.6096773 16.250625,33.4512984 16.178125,33.2409234 C16.105625,33.0305484 16.154375,32.7992555 16.306875,32.6319117 L24.6475,23.4829898 C25.711875,22.3151695 25.616875,20.5730016 24.43125,19.5175406 L16.16125,12.1514273 C15.89625,11.9153531 15.880625,11.5185094 16.128125,11.2645055 C16.375625,11.0110992 16.790625,10.9973531 17.055625,11.2328297 L25.32625,18.598943 C27.0325,20.1187828 27.169375,22.6265484 25.636875,24.3077555 L18.20625,32.4585914 C18.945,32.3360719 19.526875,31.9924195 19.811875,31.6989703 L26.480625,24.8265211 C27.47875,23.8559273 27.996875,22.5464625 27.953125,21.1264313 C27.910625,19.7560055 27.336875,18.4543102 26.37875,17.5548375 C24.47125,15.7654547 17.27125,9.32809922 17.19875,9.26295469 C16.93375,9.02628281 16.919375,8.62943906 17.1675,8.37543516 C17.415,8.12262656 17.830625,8.11007578 18.095,8.34615 C18.166875,8.41069688 25.38,14.8588102 27.298125,16.6589508 C28.49625,17.7831422 29.2125,19.3980094 29.265,21.0893766 C29.31875,22.8542555 28.6675,24.489443 27.43,25.6931227 L20.77375,32.5524234 C20.138125,33.2080523 18.99125,33.761482 17.65875,33.761482" id="Fill-5" fill="#FFFFFF"></path>
                    <g id="Group-9" transform="translate(11.875000, 0.292852)">
                        <mask id="mask-2" fill="white">
                            <use xlink:href="#path-1"></use>
                        </mask>
                        <g id="Clip-8"></g>
                        <path d="M4.5971875,6.85977891 C4.2346875,6.85977891 3.9403125,6.57888047 3.9403125,6.23223984 L3.9403125,2.68993125 C3.9403125,2.06657578 3.4109375,1.55976328 2.7590625,1.55976328 C2.1071875,1.55976328 1.5771875,2.06657578 1.5771875,2.68993125 L1.5771875,6.23164219 C1.5771875,6.57828281 1.2834375,6.85977891 0.9209375,6.85977891 C0.5584375,6.85977891 0.2646875,6.57828281 0.2646875,6.23164219 L0.2646875,2.68993125 C0.2646875,1.3750875 1.3834375,0.304685156 2.7590625,0.304685156 C4.1340625,0.304685156 5.2534375,1.3750875 5.2534375,2.68993125 L5.2534375,6.23223984 C5.2534375,6.57888047 4.9590625,6.85977891 4.5971875,6.85977891" id="Fill-7" fill="#FFFFFF" mask="url(#mask-2)"></path>
                    </g>
                    <path d="M14.6338125,24.2543848 C12.5450625,24.2543848 10.8463125,25.8788145 10.8463125,27.8761816 C10.8463125,29.8735488 12.5450625,31.4979785 14.6338125,31.4979785 C16.7225625,31.4979785 18.4219375,29.8735488 18.4219375,27.8761816 C18.4219375,25.8788145 16.7225625,24.2543848 14.6338125,24.2543848 M14.6338125,32.7530566 C11.8213125,32.7530566 9.5338125,30.5656348 9.5338125,27.8761816 C9.5338125,25.1873262 11.8213125,22.9993066 14.6338125,22.9993066 C17.4456875,22.9993066 19.7338125,25.1873262 19.7338125,27.8761816 C19.7338125,30.5656348 17.4456875,32.7530566 14.6338125,32.7530566" id="Fill-10" fill="#FFFFFF"></path>
                    <path d="M14.6338125,15.4789383 C12.9494375,15.4789383 11.5794375,16.7890008 11.5794375,18.3996844 C11.5794375,20.0109656 12.9494375,21.3210281 14.6338125,21.3210281 C16.3181875,21.3210281 17.6888125,20.0109656 17.6888125,18.3996844 C17.6888125,16.7890008 16.3181875,15.4789383 14.6338125,15.4789383 M14.6338125,22.5761062 C12.2256875,22.5761062 10.2669375,20.7024539 10.2669375,18.3996844 C10.2669375,16.0969148 12.2256875,14.2238602 14.6338125,14.2238602 C17.0419375,14.2238602 19.0006875,16.0969148 19.0006875,18.3996844 C19.0006875,20.7024539 17.0419375,22.5761062 14.6338125,22.5761062" id="Fill-12" fill="#FFFFFF"></path>
                    <path d="M8.349625,20.1463945 C6.92525,20.1463945 5.7665,21.2544492 5.7665,22.6165078 C5.7665,23.9785664 6.92525,25.0866211 8.349625,25.0866211 C9.774,25.0866211 10.93275,23.9785664 10.93275,22.6165078 C10.93275,21.2544492 9.774,20.1463945 8.349625,20.1463945 M8.349625,26.3416992 C6.2015,26.3416992 4.454,24.6700547 4.454,22.6165078 C4.454,20.5623633 6.2015,18.8913164 8.349625,18.8913164 C10.49775,18.8913164 12.244625,20.5623633 12.244625,22.6165078 C12.244625,24.6700547 10.49775,26.3416992 8.349625,26.3416992" id="Fill-14" fill="#FFFFFF"></path>
                    <path d="M20.918,20.1463945 C19.49425,20.1463945 18.334875,21.2544492 18.334875,22.6165078 C18.334875,23.9785664 19.49425,25.0866211 20.918,25.0866211 C22.342375,25.0866211 23.501125,23.9785664 23.501125,22.6165078 C23.501125,21.2544492 22.342375,20.1463945 20.918,20.1463945 M20.918,26.3416992 C18.769875,26.3416992 17.023,24.6700547 17.023,22.6165078 C17.023,20.5623633 18.769875,18.8913164 20.918,18.8913164 C23.066125,18.8913164 24.813625,20.5623633 24.813625,22.6165078 C24.813625,24.6700547 23.066125,26.3416992 20.918,26.3416992" id="Fill-16" fill="#FFFFFF"></path>
                </g>
            </g>
        </g>
    </g>
</svg>