<?xml version="1.0" encoding="UTF-8"?>
<svg width="44px" height="44px" viewBox="0 0 44 44" version="1.1" xmlns="http://www.w3.org/2000/svg" xmlns:xlink="http://www.w3.org/1999/xlink">
    <title>icon-411Bneg</title>
    <g id="PSR" stroke="none" stroke-width="1" fill="none" fill-rule="evenodd">
        <g id="icone-bandi-PSR" transform="translate(-401.000000, -285.000000)">
            <g id="icon-411Bneg" transform="translate(401.000000, 285.000000)">
                <rect id="Rectangle" fill="#30373D" x="0" y="0" width="44" height="44" rx="4"></rect>
                <g id="Group-11" transform="translate(7.000000, 4.000000)">
                    <g id="field" fill="#FFFFFF" fill-rule="nonzero">
                        <path d="M8.31932965,23.7445816 C12.1393397,18.7639617 17.6690776,15.3057208 23.7708417,14.0097026 C25.5275202,13.6368195 27.327747,13.4428932 29.1483871,13.4428932 C29.468876,13.4428932 29.7290323,13.1827369 29.7290323,12.862248 C29.7290323,12.5415323 29.468876,12.2816029 29.1483871,12.2816029 C27.4974042,12.2816029 20.8839466,13.5367944 19.8192792,13.9221522 L19.8192792,10.5224294 C19.8192792,10.362752 19.7548639,10.2182712 19.6505292,10.1132561 L16.3989163,6.8421371 C16.2898185,6.73258567 16.1417087,6.67089212 15.9870212,6.67089212 L9.3483871,6.67089212 C9.19392643,6.67089212 9.0455897,6.73258567 8.93671874,6.8421371 L5.68510583,10.1130292 C5.58077115,10.2182712 5.51612903,10.362752 5.51612903,10.5226563 L5.51612903,12.739995 C5.11149194,12.6658266 4.70504032,12.600504 4.29677419,12.5447077 L4.29677419,10.4747984 C5.88379535,9.1096018 6.75453629,7.32910788 6.75453629,5.43225806 C6.75453629,3.45057965 5.8046371,1.59569051 4.07993952,0.208719729 C3.86741433,0.0379284129 3.56484374,0.0379284129 3.35231855,0.208719729 C1.62762097,1.59546371 0.677721774,3.45057965 0.677721774,5.43225806 C0.677721774,7.32888102 1.54846272,9.109375 3.13548387,10.4745716 L3.13548387,12.4111139 C2.2887853,12.3319556 1.43641632,12.291129 0.580645161,12.291129 C0.259929406,12.291129 0,12.5510584 0,12.8717742 C0,13.1924899 0.259929406,13.4524194 0.580645161,13.4524194 C5.22353834,13.4524194 9.76481855,14.6808468 13.7683216,17.0113659 C12.809123,17.6632308 11.8930192,18.3752016 11.0256805,19.1416079 C7.78200608,17.4890373 4.17792339,16.6169355 0.580645161,16.6169355 C0.260156265,16.6169355 0,16.8768649 0,17.1975806 C0,17.5182964 0.260156265,17.7782258 0.580645161,17.7782258 C3.85380546,17.7782258 7.13354336,18.5394153 10.1132056,19.9849042 C9.23044355,20.8388609 8.40529231,21.7524697 7.64387599,22.718246 C5.38525707,21.7710685 3.01141632,21.291129 0.580645161,21.291129 C0.260156265,21.291129 0,21.5510584 0,21.8717742 C0,22.1924899 0.260156265,22.4524194 0.580645161,22.4524194 C2.75806452,22.4524194 4.88694554,22.8652218 6.92056452,23.678125 C6.51932965,24.2356351 6.13805446,24.8083417 5.77946067,25.396245 L4.89465726,26.8458165 C4.72749497,27.1193548 4.81413809,27.4768145 5.08767643,27.64375 C5.18225806,27.7015877 5.28659274,27.7290323 5.38979336,27.7290323 C5.58530745,27.7290323 5.7765121,27.6299143 5.88583672,27.4507308 L6.77064014,26.0011593 C7.23198083,25.2451865 7.73051917,24.5177923 8.26194554,23.8194305 C8.28281253,23.7962953 8.30231855,23.7715726 8.31932965,23.7445816 Z M1.8390121,5.43225806 C1.8390121,3.9511593 2.50199094,2.54445565 3.71612903,1.42671371 C4.93026712,2.54422885 5.59324597,3.9511593 5.59324597,5.43225806 C5.59324597,6.65637599 5.13984374,7.82991433 4.29677419,8.83152723 L4.29677419,4.96774194 C4.29677419,4.64702618 4.03684479,4.38709677 3.71612903,4.38709677 C3.39564014,4.38709677 3.13548387,4.64702618 3.13548387,4.96774194 L3.13548387,8.83152723 C2.29241433,7.82991433 1.8390121,6.65637599 1.8390121,5.43225806 Z M17.8428176,9.94178425 L12.8415574,9.94178425 L10.7444305,7.83218245 L15.7456905,7.83218245 L17.8428176,9.94178425 Z M9.3483871,8.07510081 L11.2041835,9.94178425 L7.49281755,9.94178425 L9.3483871,8.07510081 Z M6.67741935,11.1030746 L12.0193548,11.1030746 L12.0193548,14.7956149 C11.750126,14.6717742 11.4793095,14.5520161 11.2064516,14.4370212 L11.2064516,12.48687 C11.2064516,12.166381 10.9465222,11.9062248 10.6258065,11.9062248 L8.07096774,11.9062248 C7.75047885,11.9062248 7.49032258,12.166381 7.49032258,12.48687 L7.49032258,13.1772934 C7.22041328,13.1069808 6.94959677,13.0402974 6.67741935,12.9781502 L6.67741935,11.1030746 Z M10.0451613,13.9788558 C9.58472779,13.8091986 9.12021166,13.6517893 8.6516129,13.5073084 L8.6516129,13.0675151 L10.0451613,13.0675151 L10.0451613,13.9788558 Z M13.1806452,15.3637853 L13.1806452,11.1030746 L18.6582158,11.1030746 L18.6582158,14.3728326 C17.6636341,14.7849547 16.6917339,15.2553679 15.7495464,15.7842994 C15.4483367,15.9532762 15.1507561,16.1288306 14.8565776,16.3089213 C14.3076865,15.9736895 13.7488155,15.6584174 13.1806452,15.3637853 L13.1806452,15.3637853 Z" id="Shape"></path>
                    </g>
                    <path d="M27,7 L33,16.2307692 L29.4,16.23 L29.4,22 L24.6,22 L24.599,16.23 L21,16.2307692 L27,7 Z" id="Combined-Shape" fill="#01985A"></path>
                </g>
                <g id="number" transform="translate(6.000000, 27.000000)">
                    <rect id="Rectangle" fill="#01985A" x="0" y="0" width="32" height="14" rx="7"></rect>
                    <text id="4.1.1" font-family="TitilliumWeb-Bold, Titillium Web" font-size="9" font-weight="bold" fill="#FFFFFF">
                        <tspan x="6.636" y="10">4.1.1</tspan>
                    </text>
                </g>
            </g>
        </g>
    </g>
</svg>