<?xml version="1.0" encoding="UTF-8"?>
<svg width="44px" height="44px" viewBox="0 0 44 44" version="1.1" xmlns="http://www.w3.org/2000/svg" xmlns:xlink="http://www.w3.org/1999/xlink">
    <title>icon-761A</title>
    <g id="PSR" stroke="none" stroke-width="1" fill="none" fill-rule="evenodd">
        <g id="icone-bandi-PSR" transform="translate(-234.000000, -1168.000000)">
            <g id="icon-761A" transform="translate(234.000000, 1168.000000)">
                <g id="Rectangle" fill="#F7F7F7" stroke="#D8D8D8">
                    <rect x="0.5" y="0.5" width="43" height="43" rx="4"></rect>
                </g>
                <g id="directional-sign" transform="translate(7.000000, 7.000000)" fill="#30373D" fill-rule="nonzero">
                    <path d="M29.1678912,23.207328 C28.2001536,22.4308224 26.9853696,22.0032 25.7472,22.0032 C24.0356736,22.0032 22.4617536,22.7884032 21.4367616,24.104448 C20.559456,23.5057536 19.499904,23.1552 18.36,23.1552 C18.013536,23.1552 17.6716224,23.1882624 17.3376,23.2515072 L17.3376,19.1232 L24.0192,19.1232 C24.1675776,19.1232 24.3134784,19.0850112 24.4427904,19.0122048 L29.0507904,16.4202048 C29.3228352,16.2672192 29.4912,15.9793344 29.4912,15.6672 C29.4912,15.3550656 29.3228352,15.0671808 29.0507904,14.9141952 L24.4427904,12.3221952 C24.3134784,12.2493888 24.1675776,12.2112 24.0192,12.2112 L17.3376,12.2112 L17.3376,10.4832 L20.448,10.4832 C20.9251584,10.4832 21.312,10.0963584 21.312,9.6192 L21.312,4.4352 C21.312,3.9580416 20.9251584,3.5712 20.448,3.5712 L17.3376,3.5712 L17.3376,0.864 C17.3376,0.3868416 16.9507584,0 16.4736,0 L13.0176,0 C12.5404416,0 12.1536,0.3868416 12.1536,0.864 L12.1536,3.5712 L5.472,3.5712 C5.3236224,3.5712 5.1777216,3.6093888 5.0484096,3.6821952 L0.4404096,6.2741952 C0.1683648,6.4271808 0,6.7150656 0,7.0272 C0,7.3393344 0.1683648,7.6272192 0.4404096,7.7802048 L5.0484096,10.3722048 C5.1777216,10.4450112 5.3236224,10.4832 5.472,10.4832 L12.1536,10.4832 L12.1536,12.2112 L9.0432,12.2112 C8.5660416,12.2112 8.1792,12.5980416 8.1792,13.0752 L8.1792,18.2592 C8.1792,18.7363584 8.5660416,19.1232 9.0432,19.1232 L12.1536,19.1232 L12.1536,21.0623616 C11.6690688,20.9241792 11.1650688,20.8512 10.656,20.8512 C10.2529152,20.8512 9.850752,20.8969344 9.4540608,20.9876544 C8.2010304,19.448928 6.3251712,18.5472 4.32,18.5472 C2.8785024,18.5472 1.5037632,19.008288 0.3445056,19.88064 C0.127584,20.0438784 0,20.2995648 0,20.5710336 L0,28.6272 C0,29.1043584 0.3868416,29.4912 0.864,29.4912 L28.6272,29.4912 C29.1043584,29.4912 29.4912,29.1043584 29.4912,28.6272 L29.4912,23.8811904 C29.4912,23.6192256 29.3723136,23.3713152 29.1678912,23.207328 Z M13.8816,1.728 L15.6096,1.728 L15.6096,3.5712 L13.8816,3.5712 L13.8816,1.728 Z M2.6263296,7.0272 L5.6983104,5.2992 L19.584,5.2992 L19.584,8.7552 L5.6983104,8.7552 L2.6263296,7.0272 Z M13.8816,10.4832 L15.6096,10.4832 L15.6096,12.2112 L13.8816,12.2112 L13.8816,10.4832 Z M9.9072,13.9392 L23.7928896,13.9392 L26.8648704,15.6672 L23.7928896,17.3952 L9.9072,17.3952 L9.9072,13.9392 Z M13.8816,19.1232 L15.6096,19.1232 L15.6096,23.8977792 C15.5961792,23.9056128 15.5825856,23.9129856 15.5692224,23.9209344 C15.2217216,23.2117632 14.7218112,22.578336 14.1031296,22.0750848 C14.030784,22.0162752 13.9565952,21.96 13.8815424,21.9051648 L13.8815424,19.1232 L13.8816,19.1232 Z M1.728,27.7632 L1.728,21.0237696 C2.5075008,20.5327872 3.39552,20.2752 4.32,20.2752 C5.9611392,20.2752 7.485408,21.0930624 8.3974464,22.4630208 C8.61696,22.792608 9.032256,22.930848 9.4056192,22.7984832 C9.815616,22.6529856 10.2363264,22.5792 10.656,22.5792 C11.5251264,22.5792 12.3401088,22.8684096 13.012704,23.4156096 C13.6669248,23.947776 14.1270912,24.6915648 14.308416,25.5100032 C14.3761536,25.815744 14.6040768,26.0608896 14.9040576,26.1507456 C15.204096,26.2407168 15.5291904,26.1611136 15.7538304,25.9429824 C16.4576448,25.2595584 17.3832192,24.8832 18.36,24.8832 C20.1272256,24.8832 21.6123264,26.113824 22.0033728,27.7632 L1.728,27.7632 Z M27.7632,27.7632 L23.7635712,27.7632 C23.6175552,26.8467264 23.2432128,26.0054784 22.7007936,25.2995904 C23.397696,24.3205632 24.5209536,23.7312 25.7472,23.7312 C26.4721536,23.7312 27.1617408,23.9342976 27.7632,24.3220608 L27.7632,27.7632 Z" id="Shape"></path>
                </g>
            </g>
        </g>
    </g>
</svg>