<?xml version="1.0" encoding="UTF-8"?>
<svg width="44px" height="44px" viewBox="0 0 44 44" version="1.1" xmlns="http://www.w3.org/2000/svg" xmlns:xlink="http://www.w3.org/1999/xlink">
    <title>icon-1651Aneg</title>
    <defs>
        <polygon id="path-1" points="6.9293828e-05 0.0407815758 31.3719467 0.0407815758 31.3719467 16.2909091 6.9293828e-05 16.2909091"></polygon>
        <polygon id="path-3" points="0.178706345 0.179471515 24.8414123 0.179471515 24.8414123 15.3788897 0.178706345 15.3788897"></polygon>
    </defs>
    <g id="PSR" stroke="none" stroke-width="1" fill="none" fill-rule="evenodd">
        <g id="icone-bandi-PSR" transform="translate(-286.000000, -1611.000000)">
            <g id="icon-1651Aneg" transform="translate(286.000000, 1611.000000)">
                <rect id="Rectangle" fill="#30373D" x="0" y="0" width="44" height="44" rx="4"></rect>
                <g id="Group-15" transform="translate(6.000000, 6.000000)">
                    <g id="Group-3" transform="translate(0.000000, 15.025377)">
                        <mask id="mask-2" fill="white">
                            <use xlink:href="#path-1"></use>
                        </mask>
                        <g id="Clip-2"></g>
                        <path d="M28.3673872,7.71108461 C29.0934187,6.86993067 29.4998768,5.80097552 29.4998768,4.69373673 C29.4998768,2.12819006 27.4121968,0.0407815758 24.8466502,0.0407815758 C22.281375,0.0407815758 20.1947811,2.12819006 20.1947811,4.69373673 C20.1947811,5.10969794 20.2498987,5.51507006 20.3530744,5.90333673 C19.0899859,4.62314279 18.2531762,3.10971733 17.7856272,2.10293915 C17.6104999,1.72471855 17.2474841,1.490944 16.8461847,1.52053915 C16.4052441,1.54090279 16.0199641,1.83766885 15.864929,2.27616582 C15.7883617,2.4909343 15.7389459,2.69945794 15.6860005,2.90879612 C15.6333265,2.69945794 15.5836393,2.4909343 15.507072,2.27616582 C15.3517653,1.83766885 14.9670284,1.54090279 14.5258162,1.52053915 C14.127775,1.490944 13.7625872,1.72471855 13.5866453,2.10293915 C13.1188247,3.10971733 12.2831011,4.62205673 11.0197411,5.90116461 C11.1242744,5.513984 11.1780344,5.10861188 11.1780344,4.69373673 C11.1780344,2.12819006 9.09062594,0.0407815758 6.52535079,0.0407815758 C3.95953261,0.0407815758 1.87212412,2.12819006 1.87212412,4.69373673 C1.87212412,5.80097552 2.2785823,6.86993067 3.00461382,7.71108461 C-0.150935273,10.2766313 -0.00513163636,15.5353367 0.00328533333,15.7696543 C0.0136029091,16.0618046 0.253350788,16.2909634 0.54332897,16.2909634 L0.562606545,16.2909634 C0.861001697,16.2803743 1.09450473,16.0303088 1.08391564,15.7316422 C1.08174352,15.6767961 0.92860897,10.280704 4.12325624,8.23347976 C4.26661624,8.14170764 4.35838836,7.98857309 4.37114958,7.81860461 C4.38391079,7.64890764 4.31521745,7.48301188 4.18760533,7.3722337 C3.40238352,6.68638642 2.95275442,5.71001794 2.95275442,4.69373673 C2.95275442,2.72470885 4.55605139,1.12141188 6.52535079,1.12141188 C8.49465018,1.12141188 10.0974041,2.72470885 10.0974041,4.69373673 C10.0974041,5.95926885 9.4357217,7.1053343 8.32875442,7.75859976 C8.13244897,7.87480824 8.03307442,8.11727127 8.07543079,8.3399137 C8.10502594,8.50146521 8.20738715,8.64075248 8.35183321,8.71786279 C8.49655079,8.79497309 8.66950594,8.80121794 8.82046836,8.73686885 C11.8747423,7.41974885 13.6740732,4.43851248 14.5065387,2.68561067 C16.1435035,7.40915976 10.8402696,10.4908567 10.6124684,10.620641 C10.4435859,10.7167573 10.3393241,10.8959573 10.3393241,11.0900907 L10.3393241,15.7506482 C10.3393241,16.0493149 10.5807011,16.2909634 10.8796393,16.2909634 C11.1780344,16.2909634 11.4196829,16.0493149 11.4196829,15.7506482 L11.4196829,11.3898434 C12.2850017,10.8264495 14.9325459,8.88946036 15.686272,6.006784 C16.4399981,8.88946036 19.0869993,10.8264495 19.9523181,11.3898434 L19.9523181,15.7506482 C19.9523181,16.0493149 20.193695,16.2909634 20.4923617,16.2909634 C20.7912999,16.2909634 21.0326768,16.0493149 21.0326768,15.7506482 L21.0326768,11.0900907 C21.0326768,10.8959573 20.928415,10.7156713 20.7587181,10.6195549 C20.7036005,10.5888737 15.2708538,7.44717188 16.8738793,2.70353067 C17.7085168,4.45534642 19.5067617,7.42382158 22.5515326,8.73686885 C22.7046672,8.80121794 22.8765362,8.78547006 23.0212538,8.70944582 C23.1656999,8.63233552 23.2702332,8.48463127 23.2998284,8.32307976 C23.3419132,8.10043733 23.239552,7.87480824 23.0432465,7.75859976 C21.9360078,7.1053343 21.2756829,5.95926885 21.2756829,4.69373673 C21.2756829,2.72470885 22.8776223,1.12141188 24.8466502,1.12141188 C26.8159496,1.12141188 28.418975,2.72470885 28.418975,4.69373673 C28.418975,5.70893188 27.9696175,6.68530036 27.1852102,7.3722337 C27.0578696,7.48409794 26.9891762,7.64972218 27.0019375,7.81860461 C27.0146987,7.98857309 27.1061993,8.14170764 27.2498308,8.23347976 C30.4347035,10.2755452 30.2902575,15.6778822 30.2880853,15.7316422 C30.2785823,16.0303088 30.5118138,16.2803743 30.8093944,16.2898773 C30.8159108,16.2909634 30.8221556,16.2909634 30.8284005,16.2909634 C31.1186502,16.2909634 31.3583981,16.0607185 31.3689872,15.7696543 C31.3771326,15.5353367 31.5229362,10.2766313 28.3673872,7.71108461" id="Fill-1" fill="#FFFFFF" mask="url(#mask-2)"></path>
                    </g>
                    <path d="M27.3552873,26.397409 C27.0566206,26.397409 26.8149721,26.6390575 26.8149721,26.9377241 L26.8149721,30.7758623 C26.8149721,31.0748005 27.0566206,31.3161775 27.3552873,31.3161775 C27.6542255,31.3161775 27.8956024,31.0748005 27.8956024,30.7758623 L27.8956024,26.9377241 C27.8956024,26.6390575 27.6542255,26.397409 27.3552873,26.397409" id="Fill-4" fill="#FFFFFF"></path>
                    <path d="M27.0124451,20.5054759 C26.8202124,20.2774032 26.4783748,20.2499801 26.2513881,20.4411268 C25.4599215,21.1090541 24.2356596,21.1090541 23.4431069,20.4411268 C23.2172063,20.2499801 22.8756402,20.2774032 22.6823215,20.5054759 C22.4892742,20.7332771 22.5185978,21.0743001 22.7466705,21.2662613 C23.3334148,21.7623195 24.0806245,22.0357353 24.8476548,22.0357353 C25.6152281,22.0357353 26.3613518,21.7623195 26.948096,21.2662613 C27.1761687,21.0743001 27.2054924,20.7332771 27.0124451,20.5054759" id="Fill-6" fill="#FFFFFF"></path>
                    <path d="M4.01665939,26.397409 C3.71799273,26.397409 3.47634424,26.6390575 3.47634424,26.9377241 L3.47634424,30.7758623 C3.47634424,31.0748005 3.71799273,31.3161775 4.01665939,31.3161775 C4.31532606,31.3161775 4.55697455,31.0748005 4.55697455,30.7758623 L4.55697455,26.9377241 C4.55697455,26.6390575 4.31532606,26.397409 4.01665939,26.397409" id="Fill-8" fill="#FFFFFF"></path>
                    <path d="M8.68967952,20.504417 C8.4977183,20.2785164 8.15560921,20.2500073 7.92753648,20.4411539 C7.1447583,21.1039224 5.90556315,21.1039224 5.12034133,20.4411539 C4.89362618,20.2500073 4.55287467,20.2774303 4.35955588,20.505503 C4.16650861,20.7333042 4.19610376,21.0743273 4.42390497,21.2662885 C5.01064921,21.7623467 5.75785891,22.0357624 6.52516073,22.0357624 C7.29327709,22.0357624 8.03940073,21.7623467 8.62641648,21.2662885 C8.8542177,21.0732412 8.88272679,20.7322182 8.68967952,20.504417" id="Fill-10" fill="#FFFFFF"></path>
                    <g id="Group-14" transform="translate(4.615758, 0.092044)">
                        <mask id="mask-4" fill="white">
                            <use xlink:href="#path-3"></use>
                        </mask>
                        <g id="Clip-13"></g>
                        <path d="M10.0512465,11.5765915 C7.25355442,11.4489794 5.077632,10.5793164 3.57262352,8.98715152 C1.68885139,6.99477333 1.33343806,4.34369939 1.27207564,3.15120485 C7.09743321,4.47158303 9.39933867,9.69173333 10.0512465,11.5765915 M14.5279884,4.63937939 C16.6694284,2.50282667 19.7372781,1.36979394 23.6555132,1.26743273 C23.3791108,2.69587394 22.5694526,6.20765091 21.0036247,8.07757576 C18.8380199,10.6643006 15.184512,12.0091152 11.3547908,11.6537018 C11.4633968,10.4416582 11.9879641,7.17370182 14.5279884,4.63937939 M10.2467375,12.6536921 L10.2467375,14.8385745 C10.2467375,15.1372412 10.4881144,15.3788897 10.7867811,15.3788897 C11.0857193,15.3788897 11.3270962,15.1372412 11.3270962,14.8385745 L11.3270962,12.7291733 C11.7408853,12.7658279 12.1530453,12.7908073 12.5619472,12.7908073 C16.251295,12.7908073 19.691935,11.3278836 21.8331035,8.77102545 C24.0144562,6.16475152 24.8037508,1.01736727 24.8355181,0.799612121 C24.8585968,0.644305455 24.8132538,0.486555152 24.7108926,0.36736 C24.5968562,0.234860606 24.4247156,0.178928485 24.2455156,0.179467601 C19.7489532,0.179467601 16.2219714,1.42273939 13.7650308,3.8742497 C11.7753678,5.85929697 10.9127641,8.20953212 10.5369872,9.89645576 C9.33471806,7.24673939 6.53702594,2.93100606 0.815930182,1.95925333 C0.665239273,1.93617455 0.511018667,1.97310061 0.388565333,2.06894545 C0.268555636,2.16506182 0.194432,2.30706424 0.18601503,2.45992727 C0.175425939,2.63369697 -0.0336407273,6.73792 2.77898473,9.72132848 C4.52618473,11.5752339 7.04258715,12.5532315 10.2467375,12.6536921" id="Fill-12" fill="#FFFFFF" mask="url(#mask-4)"></path>
                    </g>
                </g>
            </g>
        </g>
    </g>
</svg>