<?xml version="1.0" encoding="UTF-8"?>
<svg width="44px" height="44px" viewBox="0 0 44 44" version="1.1" xmlns="http://www.w3.org/2000/svg" xmlns:xlink="http://www.w3.org/1999/xlink">
    <title>icon-431Bneg</title>
    <defs>
        <polygon id="path-1" points="0 0.000225 10.125 0.000225 10.125 13.5 0 13.5"></polygon>
        <polygon id="path-3" points="0 0.000225 10.125 0.000225 10.125 13.5 0 13.5"></polygon>
    </defs>
    <g id="PSR" stroke="none" stroke-width="1" fill="none" fill-rule="evenodd">
        <g id="icone-bandi-PSR" transform="translate(-401.000000, -439.000000)">
            <g id="icon-431Bneg" transform="translate(401.000000, 439.000000)">
                <rect id="Rectangle" fill="#30373D" x="0" y="0" width="44" height="44" rx="4"></rect>
                <g id="Group-7" transform="translate(6.000000, 5.000000)">
                    <path d="M7,20 L7,16.9058871 C7,14.2787729 8.7090829,11.9571742 11.2176007,11.1767465 L18.7823993,8.82325355 C21.2909171,8.04282579 23,5.72122707 23,3.09411289 L23,0 L23,0" id="Path-5" stroke="#01985A" stroke-width="2"></path>
                    <g id="Group-3">
                        <mask id="mask-2" fill="white">
                            <use xlink:href="#path-1"></use>
                        </mask>
                        <g id="Clip-2"></g>
                        <path d="M9,3.0366 C9,3.8437875 8.3435625,4.500225 7.536375,4.500225 L5.625,4.500225 L5.625,2.5882875 C5.625,1.7816625 6.2814375,1.125225 7.088625,1.125225 L9,1.125225 L9,3.0366 Z M2.588625,9.562725 C1.7814375,9.562725 1.125,8.9062875 1.125,8.0991 L1.125,6.187725 L3.036375,6.187725 C3.8435625,6.187725 4.5,6.8441625 4.5,7.6507875 L4.5,9.562725 L2.588625,9.562725 Z M7.088625,0.000225 C5.661,0.000225 4.5,1.161225 4.5,2.5882875 L4.5,5.519475 C4.0831875,5.2320375 3.57975,5.062725 3.036375,5.062725 L0,5.062725 L0,8.0991 C0,9.5261625 1.161,10.687725 2.588625,10.687725 L4.5,10.687725 L4.5,13.500225 L5.625,13.500225 L5.625,5.625225 L7.536375,5.625225 C8.964,5.625225 10.125,4.4636625 10.125,3.0366 L10.125,0.000225 L7.088625,0.000225 Z" id="Fill-1" fill="#FFFFFF" mask="url(#mask-2)"></path>
                    </g>
                    <g id="Group-3" transform="translate(21.000000, 6.000000)">
                        <mask id="mask-4" fill="white">
                            <use xlink:href="#path-3"></use>
                        </mask>
                        <g id="Clip-2"></g>
                        <path d="M9,3.0366 C9,3.8437875 8.3435625,4.500225 7.536375,4.500225 L5.625,4.500225 L5.625,2.5882875 C5.625,1.7816625 6.2814375,1.125225 7.088625,1.125225 L9,1.125225 L9,3.0366 Z M2.588625,9.562725 C1.7814375,9.562725 1.125,8.9062875 1.125,8.0991 L1.125,6.187725 L3.036375,6.187725 C3.8435625,6.187725 4.5,6.8441625 4.5,7.6507875 L4.5,9.562725 L2.588625,9.562725 Z M7.088625,0.000225 C5.661,0.000225 4.5,1.161225 4.5,2.5882875 L4.5,5.519475 C4.0831875,5.2320375 3.57975,5.062725 3.036375,5.062725 L0,5.062725 L0,8.0991 C0,9.5261625 1.161,10.687725 2.588625,10.687725 L4.5,10.687725 L4.5,13.500225 L5.625,13.500225 L5.625,5.625225 L7.536375,5.625225 C8.964,5.625225 10.125,4.4636625 10.125,3.0366 L10.125,0.000225 L7.088625,0.000225 Z" id="Fill-1" fill="#FFFFFF" mask="url(#mask-4)"></path>
                    </g>
                </g>
                <g id="number" transform="translate(6.000000, 27.000000)">
                    <rect id="Rectangle" fill="#01985A" x="0" y="0" width="32" height="14" rx="7"></rect>
                    <text id="4.3.1" font-family="TitilliumWeb-Bold, Titillium Web" font-size="9" font-weight="bold" fill="#FFFFFF">
                        <tspan x="6.636" y="10">4.3.1</tspan>
                    </text>
                </g>
            </g>
        </g>
    </g>
</svg>