<?xml version="1.0" encoding="UTF-8"?>
<svg width="44px" height="44px" viewBox="0 0 44 44" version="1.1" xmlns="http://www.w3.org/2000/svg" xmlns:xlink="http://www.w3.org/1999/xlink">
    <title>icon-1651Bneg</title>
    <defs>
        <polygon id="path-1" points="6.49629638e-05 0.0382327273 29.4112 0.0382327273 29.4112 15.2727273 6.49629638e-05 15.2727273"></polygon>
        <polygon id="path-3" points="0.167537198 0.168254545 23.2888241 0.168254545 23.2888241 14.4177091 0.167537198 14.4177091"></polygon>
    </defs>
    <g id="PSR" stroke="none" stroke-width="1" fill="none" fill-rule="evenodd">
        <g id="icone-bandi-PSR" transform="translate(-401.000000, -1611.000000)">
            <g id="icon-1651Bneg" transform="translate(401.000000, 1611.000000)">
                <rect id="Rectangle" fill="#30373D" x="0" y="0" width="44" height="44" rx="4"></rect>
                <g id="Group-15" transform="translate(7.000000, 3.000000)">
                    <g id="Group-3" transform="translate(0.000000, 14.086291)">
                        <mask id="mask-2" fill="white">
                            <use xlink:href="#path-1"></use>
                        </mask>
                        <g id="Clip-2"></g>
                        <path d="M26.5944255,7.22914182 C27.27508,6.44056 27.6561345,5.43841455 27.6561345,4.40037818 C27.6561345,1.99517818 25.6989345,0.0382327273 23.2937345,0.0382327273 C20.8887891,0.0382327273 18.9326073,1.99517818 18.9326073,4.40037818 C18.9326073,4.79034182 18.98428,5.17037818 19.0810073,5.53437818 C17.8968618,4.33419636 17.1123527,2.91536 16.6740255,1.97150545 C16.5098436,1.61692364 16.1695164,1.39776 15.7932982,1.42550545 C15.3799164,1.44459636 15.0187164,1.72281455 14.8733709,2.13390545 C14.8015891,2.33525091 14.7552618,2.53074182 14.7056255,2.72699636 C14.6562436,2.53074182 14.6096618,2.33525091 14.53788,2.13390545 C14.39228,1.72281455 14.0315891,1.44459636 13.6179527,1.42550545 C13.2447891,1.39776 12.9024255,1.61692364 12.73748,1.97150545 C12.2988982,2.91536 11.5154073,4.33317818 10.3310073,5.53234182 C10.4290073,5.16936 10.4794073,4.78932364 10.4794073,4.40037818 C10.4794073,1.99517818 8.52246182,0.0382327273 6.11751636,0.0382327273 C3.71206182,0.0382327273 1.75511636,1.99517818 1.75511636,4.40037818 C1.75511636,5.43841455 2.13617091,6.44056 2.81682545,7.22914182 C-0.141501818,9.63434182 -0.00481090909,14.5643782 0.00308,14.7840509 C0.0127527273,15.0579418 0.237516364,15.2727782 0.509370909,15.2727782 L0.527443636,15.2727782 C0.807189091,15.2628509 1.02609818,15.0284145 1.01617091,14.7484145 C1.01413455,14.6969964 0.870570909,9.63816 3.86555273,7.71888727 C3.99995273,7.63285091 4.08598909,7.48928727 4.09795273,7.32994182 C4.10991636,7.17085091 4.04551636,7.01532364 3.92588,6.91146909 C3.18973455,6.26848727 2.76820727,5.35314182 2.76820727,4.40037818 C2.76820727,2.55441455 4.27129818,1.05132364 6.11751636,1.05132364 C7.96373455,1.05132364 9.46631636,2.55441455 9.46631636,4.40037818 C9.46631636,5.58681455 8.84598909,6.66125091 7.80820727,7.27368727 C7.62417091,7.38263273 7.53100727,7.60994182 7.57071636,7.81866909 C7.59846182,7.97012364 7.69442545,8.10070545 7.82984364,8.17299636 C7.96551636,8.24528727 8.12766182,8.25114182 8.26918909,8.19081455 C11.1325709,6.95601455 12.8194436,4.16110545 13.59988,2.51776 C15.1345345,6.94608727 10.1627527,9.83517818 9.94918909,9.95685091 C9.79086182,10.04696 9.69311636,10.21496 9.69311636,10.39696 L9.69311636,14.7662327 C9.69311636,15.0462327 9.91940727,15.2727782 10.1996618,15.2727782 C10.4794073,15.2727782 10.7059527,15.0462327 10.7059527,14.7662327 L10.7059527,10.6779782 C11.5171891,10.1497964 13.9992618,8.33386909 14.70588,5.63136 C15.4124982,8.33386909 17.8940618,10.1497964 18.7052982,10.6779782 L18.7052982,14.7662327 C18.7052982,15.0462327 18.9315891,15.2727782 19.2115891,15.2727782 C19.4918436,15.2727782 19.7181345,15.0462327 19.7181345,14.7662327 L19.7181345,10.39696 C19.7181345,10.21496 19.6203891,10.0459418 19.4612982,9.95583273 C19.4096255,9.92706909 14.3164255,6.98172364 15.8192618,2.53456 C16.6017345,4.17688727 18.2875891,6.95983273 21.1420618,8.19081455 C21.2856255,8.25114182 21.4467527,8.23637818 21.5824255,8.16510545 C21.7178436,8.09281455 21.8158436,7.95434182 21.8435891,7.80288727 C21.8830436,7.59416 21.78708,7.38263273 21.6030436,7.27368727 C20.5650073,6.66125091 19.9459527,5.58681455 19.9459527,4.40037818 C19.9459527,2.55441455 21.4477709,1.05132364 23.2937345,1.05132364 C25.1399527,1.05132364 26.6427891,2.55441455 26.6427891,4.40037818 C26.6427891,5.35212364 26.2215164,6.26746909 25.4861345,6.91146909 C25.3667527,7.01634182 25.3023527,7.17161455 25.3143164,7.32994182 C25.32628,7.48928727 25.4120618,7.63285091 25.5467164,7.71888727 C28.5325345,9.63332364 28.3971164,14.6980145 28.39508,14.7484145 C28.3861709,15.0284145 28.6048255,15.2628509 28.8838073,15.27176 C28.8899164,15.2727782 28.8957709,15.2727782 28.9016255,15.2727782 C29.1737345,15.2727782 29.3984982,15.0569236 29.4084255,14.7840509 C29.4160618,14.5643782 29.5527527,9.63434182 26.5944255,7.22914182" id="Fill-1" fill="#FFFFFF" mask="url(#mask-2)"></path>
                    </g>
                    <path d="M25.6455818,24.7475709 C25.3655818,24.7475709 25.1390364,24.9741164 25.1390364,25.2541164 L25.1390364,28.8523709 C25.1390364,29.1326255 25.3655818,29.3589164 25.6455818,29.3589164 C25.9258364,29.3589164 26.1521273,29.1326255 26.1521273,28.8523709 L26.1521273,25.2541164 C26.1521273,24.9741164 25.9258364,24.7475709 25.6455818,24.7475709" id="Fill-4" fill="#FFFFFF"></path>
                    <path d="M25.3241673,19.2238836 C25.1439491,19.0100655 24.8234764,18.9843564 24.6106764,19.1635564 C23.8686764,19.7897382 22.7209309,19.7897382 21.9779127,19.1635564 C21.7661309,18.9843564 21.4459127,19.0100655 21.2646764,19.2238836 C21.0836945,19.4374473 21.1111855,19.7571564 21.3250036,19.93712 C21.8750764,20.4021745 22.5755855,20.6585018 23.2946764,20.6585018 C24.0142764,20.6585018 24.7137673,20.4021745 25.26384,19.93712 C25.4776582,19.7571564 25.5051491,19.4374473 25.3241673,19.2238836" id="Fill-6" fill="#FFFFFF"></path>
                    <path d="M3.76561818,24.7475709 C3.48561818,24.7475709 3.25907273,24.9741164 3.25907273,25.2541164 L3.25907273,28.8523709 C3.25907273,29.1326255 3.48561818,29.3589164 3.76561818,29.3589164 C4.04561818,29.3589164 4.27216364,29.1326255 4.27216364,28.8523709 L4.27216364,25.2541164 C4.27216364,24.9741164 4.04561818,24.7475709 3.76561818,24.7475709" id="Fill-8" fill="#FFFFFF"></path>
                    <path d="M8.14657455,19.2228909 C7.96661091,19.0111091 7.64588364,18.9843818 7.43206545,19.1635818 C6.69821091,19.7849273 5.53646545,19.7849273 4.80032,19.1635818 C4.58777455,18.9843818 4.26832,19.0100909 4.08708364,19.2239091 C3.90610182,19.4374727 3.93384727,19.7571818 4.14741091,19.9371455 C4.69748364,20.4022 5.39799273,20.6585273 6.11733818,20.6585273 C6.83744727,20.6585273 7.53693818,20.4022 8.08726545,19.9371455 C8.30082909,19.7561636 8.32755636,19.4364545 8.14657455,19.2228909" id="Fill-10" fill="#FFFFFF"></path>
                    <g id="Group-14" transform="translate(4.327273, 0.086291)">
                        <mask id="mask-4" fill="white">
                            <use xlink:href="#path-3"></use>
                        </mask>
                        <g id="Clip-13"></g>
                        <path d="M9.42304364,10.8530545 C6.80020727,10.7334182 4.76028,9.91810909 3.34933455,8.42545455 C1.58329818,6.5576 1.25009818,4.07221818 1.19257091,2.95425455 C6.65384364,4.19210909 8.81188,9.086 9.42304364,10.8530545 M13.6199891,4.34941818 C15.6275891,2.3464 18.5036982,1.28418182 22.1770436,1.18821818 C21.9179164,2.52738182 21.1588618,5.81967273 19.6908982,7.57272727 C17.6606436,9.99778182 14.23548,11.2585455 10.6451164,10.9253455 C10.7469345,9.78905455 11.2387164,6.72534545 13.6199891,4.34941818 M9.60631636,11.8628364 L9.60631636,13.9111636 C9.60631636,14.1911636 9.83260727,14.4177091 10.1126073,14.4177091 C10.3928618,14.4177091 10.6191527,14.1911636 10.6191527,13.9111636 L10.6191527,11.9336 C11.00708,11.9679636 11.39348,11.9913818 11.7768255,11.9913818 C15.2355891,11.9913818 18.4611891,10.6198909 20.4685345,8.22283636 C22.5135527,5.77945455 23.2535164,0.953781818 23.2832982,0.749636364 C23.3049345,0.604036364 23.2624255,0.456145455 23.1664618,0.3444 C23.0595527,0.220181818 22.8981709,0.167745455 22.7301709,0.168250876 C18.5146436,0.168250876 15.2080982,1.33381818 12.9047164,3.63210909 C11.0394073,5.49309091 10.2307164,7.69643636 9.87842545,9.27792727 C8.75129818,6.79381818 6.12846182,2.74781818 0.764934545,1.8368 C0.623661818,1.81516364 0.47908,1.84978182 0.36428,1.93963636 C0.251770909,2.02974545 0.18228,2.16287273 0.174389091,2.30618182 C0.164461818,2.46909091 -0.0315381818,6.3168 2.60529818,9.11374545 C4.24329818,10.8517818 6.60242545,11.7686545 9.60631636,11.8628364" id="Fill-12" fill="#FFFFFF" mask="url(#mask-4)"></path>
                    </g>
                </g>
                <g id="number" transform="translate(6.000000, 27.000000)">
                    <rect id="Rectangle" fill="#01985A" x="0" y="0" width="32" height="14" rx="7"></rect>
                    <text id="16.5.1" font-family="TitilliumWeb-Bold, Titillium Web" font-size="9" font-weight="bold" fill="#FFFFFF">
                        <tspan x="4.116" y="10">16.5.1</tspan>
                    </text>
                </g>
            </g>
        </g>
    </g>
</svg>