<?xml version="1.0" encoding="UTF-8"?>
<svg width="44px" height="44px" viewBox="0 0 44 44" version="1.1" xmlns="http://www.w3.org/2000/svg" xmlns:xlink="http://www.w3.org/1999/xlink">
    <title>icon-434A</title>
    <g id="PSR" stroke="none" stroke-width="1" fill="none" fill-rule="evenodd">
        <g id="icone-bandi-PSR" transform="translate(-233.000000, -652.000000)">
            <g id="icon-434A" transform="translate(233.000000, 652.000000)">
                <g id="Rectangle" fill="#F7F7F7" stroke="#D8D8D8">
                    <rect x="0.5" y="0.5" width="43" height="43" rx="4"></rect>
                </g>
                <g id="Group-27" transform="translate(5.000000, 6.000000)" stroke="#30373D" stroke-linejoin="round" stroke-width="1.44">
                    <line x1="15.12" y1="18.72" x2="10.08" y2="18.72" id="Stroke-1"></line>
                    <g id="Group-26">
                        <path d="M15.12,18.72 C15.12,16.33464 17.05464,14.4 19.44,14.4 C21.82536,14.4 23.76,16.33464 23.76,18.72 C23.76,21.10536 21.82536,23.04 19.44,23.04 C17.05464,23.04 15.12,21.10536 15.12,18.72 Z" id="Stroke-2"></path>
                        <path d="M18,18.72 C18,17.92512 18.64512,17.28 19.44,17.28 C20.23488,17.28 20.88,17.92512 20.88,18.72 C20.88,19.51488 20.23488,20.16 19.44,20.16 C18.64512,20.16 18,19.51488 18,18.72 Z" id="Stroke-4"></path>
                        <path d="M0,18 C0,15.21648 2.25648,12.96 5.04,12.96 C7.82352,12.96 10.08,15.21648 10.08,18 C10.08,20.78352 7.82352,23.04 5.04,23.04 C2.25648,23.04 0,20.78352 0,18 Z" id="Stroke-6"></path>
                        <path d="M3.24,18 C3.24,17.00568 4.04568,16.2 5.04,16.2 C6.03432,16.2 6.84,17.00568 6.84,18 C6.84,18.99432 6.03432,19.8 5.04,19.8 C4.04568,19.8 3.24,18.99432 3.24,18 Z" id="Stroke-8"></path>
                        <path d="M33.84,23.04 L32.81112,23.04 L27.39672,21.6864 C26.19792,21.38688 25.81992,19.86912 26.73864,19.04256 L29.72592,16.35408 L30.75408,15.84" id="Stroke-10"></path>
                        <line x1="29.725632" y1="16.354008" x2="32.811552" y2="23.039928" id="Stroke-12"></line>
                        <line x1="23.04" y1="20.16" x2="26.64" y2="20.16" id="Stroke-14"></line>
                        <polyline id="Stroke-16" points="19.003392 2.44512 17.999712 4.47336 17.999712 9.36"></polyline>
                        <path d="M1.44,14.4 L1.44,8.64 L3.24,7.2 L8.76312,7.2 C9.14544,7.2 9.51192,7.35192 9.78192,7.62192 L11.52,9.36 L20.88,9.36 C21.67488,9.36 22.32,10.00512 22.32,10.8 L22.32,15.84" id="Stroke-18"></path>
                        <line x1="14.4" y1="9.36" x2="11.52" y2="0" id="Stroke-20"></line>
                        <line x1="6.48" y1="0" x2="6.48" y2="7.2" id="Stroke-22"></line>
                        <path d="M3.133152,7.33608 L3.832272,1.27512 C3.915792,0.54864 4.531392,0 5.262912,0 L13.679712,0" id="Stroke-24"></path>
                    </g>
                </g>
                <g id="wind" transform="translate(5.000000, 31.000000)" fill="#01985A" fill-rule="nonzero">
                    <path d="M33.2335742,2.99802667 C31.2403626,1.61248 28.9812271,0.0419733333 24.6114813,0.0419733333 C20.2417355,0.0419733333 17.9826,1.61242667 15.9893884,2.99802667 C14.1044284,4.30832 12.4765084,5.44 9.0810271,5.44 C5.68580903,5.44 4.05795484,4.30837333 2.17312645,2.99813333 L2.17299484,2.99802667 C1.62127355,2.61461333 0.790467097,2.66613333 0.317187097,3.11322667 C-0.156027097,3.56037333 -0.0923922581,4.23381333 0.459329032,4.61733333 C2.45247484,6.00293333 4.71154452,7.57333333 9.0810271,7.57333333 C13.4507729,7.57333333 15.7099084,6.00288 17.70312,4.61728 C19.58808,3.30698667 21.216,2.17530667 24.6114813,2.17530667 C28.0070284,2.17530667 29.6349484,3.30698667 31.5198426,4.61728 C32.0716297,5.0008 32.9025019,4.94928 33.3757161,4.50213333 C33.8489303,4.05493333 33.7853613,3.38154667 33.2335742,2.99802667 Z" id="Path"></path>
                </g>
            </g>
        </g>
    </g>
</svg>