<?xml version="1.0" encoding="UTF-8"?>
<svg width="44px" height="44px" viewBox="0 0 44 44" version="1.1" xmlns="http://www.w3.org/2000/svg" xmlns:xlink="http://www.w3.org/1999/xlink">
    <title>icon-1911Aneg</title>
    <g id="PSR" stroke="none" stroke-width="1" fill="none" fill-rule="evenodd">
        <g id="icone-bandi-PSR" transform="translate(-286.000000, -1686.000000)">
            <g id="icon-1911Aneg" transform="translate(286.000000, 1686.000000)">
                <rect id="Rectangle" fill="#30373D" x="0" y="0" width="44" height="44" rx="4"></rect>
                <g id="strategy" transform="translate(8.000000, 9.000000)" fill="#FFFFFF" fill-rule="nonzero">
                    <path d="M1.6173,7.9554 L4.0797,5.493 L6.542,7.9554 C6.727,8.1403 6.9694,8.2328 7.2119,8.2328 C7.4544,8.2328 7.6968,8.1403 7.8818,7.9554 C8.2518,7.5854 8.2518,6.9855 7.8818,6.6155 L5.4196,4.1532 L7.8819,1.6909 C8.2519,1.3209 8.2519,0.721 7.8819,0.351 C7.5118,-0.0189 6.9121,-0.0189 6.542,0.351 L4.0797,2.8133 L1.6173,0.3509 C1.2472,-0.019 0.6475,-0.019 0.2774,0.3509 C-0.0926,0.7209 -0.0926,1.3208 0.2774,1.6908 L2.7397,4.1531 L0.2775,6.6155 C-0.0925,6.9855 -0.0925,7.5854 0.2775,7.9554 C0.4625,8.1403 0.7049,8.2328 0.9474,8.2328 C1.1899,8.2328 1.4323,8.1403 1.6173,7.9554 Z" id="Path"></path>
                    <path d="M20.411,19.1446 C20.0409,18.7747 19.4412,18.7747 19.0711,19.1446 L16.6088,21.6069 L14.1464,19.1446 C13.7763,18.7747 13.1766,18.7747 12.8065,19.1446 C12.4365,19.5147 12.4365,20.1145 12.8065,20.4845 L15.2689,22.9468 L12.8065,25.4092 C12.4365,25.7792 12.4365,26.3791 12.8065,26.7491 C12.9915,26.934 13.2339,27.0265 13.4764,27.0265 C13.7189,27.0265 13.9613,26.934 14.1463,26.7491 L16.6087,24.2867 L19.071,26.749 C19.256,26.9339 19.4984,27.0264 19.7409,27.0264 C19.9834,27.0264 20.2258,26.9339 20.4108,26.749 C20.7808,26.3789 20.7808,25.7791 20.4108,25.4091 L17.9485,22.9468 L20.4108,20.4845 C20.781,20.1145 20.781,19.5145 20.411,19.1446 L20.411,19.1446 Z" id="Path"></path>
                    <path d="M20.4848,5.8597 L16.6641,2.5384 C16.2692,2.195 15.6708,2.2371 15.3276,2.6319 C14.9843,3.0268 15.0262,3.6251 15.4211,3.9684 L17.4473,5.7298 C11.4669,6.512 7.9259,9.6372 5.9574,12.2788 C4.1388,14.7192 3.3418,17.1203 3.0548,18.1788 C3.2439,18.1537 3.4363,18.1394 3.6321,18.1394 C4.1017,18.1394 4.5538,18.2149 4.978,18.353 C5.2942,17.3104 6.0339,15.327 7.5223,13.3501 C9.9862,10.0775 13.409,8.1502 17.7149,7.6021 L15.8269,9.774 C15.4836,10.1689 15.5255,10.7672 15.9204,11.1105 C16.0998,11.2665 16.3212,11.3429 16.5415,11.3429 C16.8063,11.3429 17.0696,11.2325 17.2569,11.017 L20.5782,7.1962 C20.9216,6.8013 20.8797,6.203 20.4848,5.8597 Z" id="Path"></path>
                    <path d="M3.6322,19.6998 C2.0886,19.6998 0.8327,20.9556 0.8327,22.4993 C0.8327,24.043 2.0885,25.2989 3.6322,25.2989 C5.1759,25.2989 6.4318,24.043 6.4318,22.4993 C6.4318,20.9556 5.1759,19.6998 3.6322,19.6998 L3.6322,19.6998 Z" id="Path"></path>
                    <path d="M26.9005,3.591 C25.3568,3.591 24.1009,4.8468 24.1009,6.3905 C24.1009,7.9342 25.3567,9.1901 26.9005,9.1901 C28.4441,9.1901 29.7,7.9343 29.7,6.3905 C29.7,4.8469 28.4442,3.591 26.9005,3.591 Z" id="Path"></path>
                </g>
            </g>
        </g>
    </g>
</svg>