<?xml version="1.0" encoding="UTF-8"?>
<svg width="44px" height="44px" viewBox="0 0 44 44" version="1.1" xmlns="http://www.w3.org/2000/svg" xmlns:xlink="http://www.w3.org/1999/xlink">
    <title>icon-1911Bneg</title>
    <g id="PSR" stroke="none" stroke-width="1" fill="none" fill-rule="evenodd">
        <g id="icone-bandi-PSR" transform="translate(-401.000000, -1686.000000)">
            <g id="icon-1911Bneg" transform="translate(401.000000, 1686.000000)">
                <rect id="Rectangle" fill="#30373D" x="0" y="0" width="44" height="44" rx="4"></rect>
                <g id="strategy" transform="translate(7.000000, 5.000000)" fill="#FFFFFF" fill-rule="nonzero">
                    <path d="M1.6174,8.64940699 L4.0798,6.18700699 L6.5421,8.64940699 C6.7271,8.83430699 6.9695,8.92680699 7.212,8.92680699 C7.4545,8.92680699 7.6969,8.83430699 7.8819,8.64940699 C8.2519,8.27940699 8.2519,7.67950699 7.8819,7.30950699 L5.4197,4.84720699 L7.882,2.38490699 C8.252,2.01490699 8.252,1.41500699 7.882,1.04500699 C7.5119,0.675106993 6.9122,0.675106993 6.5421,1.04500699 L4.0798,3.50730699 L1.6174,1.04490699 C1.2473,0.675006993 0.6476,0.675006993 0.2775,1.04490699 C-0.0925,1.41490699 -0.0925,2.01480699 0.2775,2.38480699 L2.7398,4.84710699 L0.2776,7.30950699 C-0.0924,7.67950699 -0.0924,8.27940699 0.2776,8.64940699 C0.4626,8.83430699 0.705,8.92680699 0.9475,8.92680699 C1.19,8.92680699 1.4324,8.83430699 1.6174,8.64940699 Z" id="Path"></path>
                    <path d="M25.4111,11.838607 C25.041,11.468707 24.4413,11.468707 24.0712,11.838607 L21.6089,14.300907 L19.1465,11.838607 C18.7764,11.468707 18.1767,11.468707 17.8066,11.838607 C17.4366,12.208707 17.4366,12.808507 17.8066,13.178507 L20.269,15.640807 L17.8066,18.103207 C17.4366,18.473207 17.4366,19.073107 17.8066,19.443107 C17.9916,19.628007 18.234,19.720507 18.4765,19.720507 C18.719,19.720507 18.9614,19.628007 19.1464,19.443107 L21.6088,16.980707 L24.0711,19.443007 C24.2561,19.627907 24.4985,19.720407 24.741,19.720407 C24.9835,19.720407 25.2259,19.627907 25.4109,19.443007 C25.7809,19.072907 25.7809,18.473107 25.4109,18.103107 L22.9486,15.640807 L25.4109,13.178507 C25.7811,12.808507 25.7811,12.208507 25.4111,11.838607 L25.4111,11.838607 Z" id="Path"></path>
                    <path d="M23.4849,3.55370699 L19.6642,0.232406993 C19.2693,-0.110993007 18.6709,-0.068893007 18.3277,0.325906993 C17.9844,0.720806993 18.0263,1.31910699 18.4212,1.66240699 L20.4474,3.42380699 C14.467,4.20600699 10.926,7.33120699 8.9575,9.97280699 C7.1389,12.413207 6.3419,14.814307 6.0549,15.872807 C6.244,15.847707 6.4364,15.833407 6.6322,15.833407 C7.1018,15.833407 7.5539,15.908907 7.9781,16.047007 C8.2943,15.004407 9.034,13.021007 10.5224,11.044107 C12.9863,7.77150699 16.4091,5.84420699 20.715,5.29610699 L18.827,7.46800699 C18.4837,7.86290699 18.5256,8.46120699 18.9205,8.80450699 C19.0999,8.96050699 19.3213,9.03690699 19.5416,9.03690699 C19.8064,9.03690699 20.0697,8.92650699 20.257,8.71100699 L23.5783,4.89020699 C23.9217,4.49530699 23.8798,3.89700699 23.4849,3.55370699 Z" id="Path"></path>
                    <path d="M5.6323,17.393807 C4.0887,17.393807 2.8328,18.649607 2.8328,20.193307 C2.8328,21.737007 4.0886,22.992907 5.6323,22.992907 C7.176,22.992907 8.4319,21.737007 8.4319,20.193307 C8.4319,18.649607 7.176,17.393807 5.6323,17.393807 L5.6323,17.393807 Z" id="Path"></path>
                    <path d="M28.9006,2.28500699 C27.3569,2.28500699 26.101,3.54080699 26.101,5.08450699 C26.101,6.62820699 27.3568,7.88410699 28.9006,7.88410699 C30.4442,7.88410699 31.7001,6.62830699 31.7001,5.08450699 C31.7001,3.54090699 30.4443,2.28500699 28.9006,2.28500699 Z" id="Path"></path>
                </g>
                <g id="number" transform="translate(6.000000, 27.000000)">
                    <rect id="Rectangle" fill="#01985A" x="0" y="0" width="32" height="14" rx="7"></rect>
                    <text id="19.1.1" font-family="TitilliumWeb-Bold, Titillium Web" font-size="9" font-weight="bold" fill="#FFFFFF">
                        <tspan x="4.116" y="10">19.1.1</tspan>
                    </text>
                </g>
            </g>
        </g>
    </g>
</svg>