<?xml version="1.0" encoding="UTF-8"?>
<svg width="44px" height="44px" viewBox="0 0 44 44" version="1.1" xmlns="http://www.w3.org/2000/svg" xmlns:xlink="http://www.w3.org/1999/xlink">
    <title>icon-111Aneg</title>
    <g id="PSR" stroke="none" stroke-width="1" fill="none" fill-rule="evenodd">
        <g id="icone-bandi-PSR" transform="translate(-286.000000, -143.000000)">
            <g id="icon-111Aneg" transform="translate(286.000000, 143.000000)">
                <rect id="Rectangle" fill="#30373D" x="0" y="0" width="44" height="44" rx="4"></rect>
                <g id="book" transform="translate(4.000000, 9.000000)" fill="#FFFFFF">
                    <path d="M35.1687724,2.195072 C35.1664262,2.195072 35.16408,2.195072 35.1618207,2.195072 L35.1618207,2.195072 L32.8051862,2.195072 L32.8051862,1.378432 C32.8178731,1.055208 32.6114069,0.76472 32.3046621,0.674432 C30.6685738,0.24024 28.9838234,0.022528 27.292469,0.0266917003 C24.5117793,0.0266917003 20.7230897,0.660352 17.9215448,3.546752 C15.1408552,0.632192 11.3243586,0.0266917003 8.55062069,0.0266917003 C6.85926621,0.022528 5.17451586,0.24024 3.53842759,0.674432 C3.23168276,0.76472 3.02521655,1.055208 3.03790345,1.378432 L3.03790345,2.188032 L0.695172414,2.188032 C0.311263448,2.188032 0,2.503248 0,2.892032 L0,25.377792 C0,25.766576 0.311263448,26.081792 0.695172414,26.081792 C0.814568276,26.08144 0.931878621,26.049936 1.0358069,25.990272 C1.10532414,25.955072 8.05704828,22.104192 17.7616552,24.582272 L17.865931,24.582272 L17.9284966,24.582272 C17.9839366,24.589048 18.0398979,24.589048 18.0953379,24.582272 C27.8277517,22.083072 34.7794759,25.926912 34.8211862,25.990272 C35.0362552,26.116024 35.3012897,26.116024 35.5163586,25.990272 C35.7301241,25.865312 35.8624676,25.63484 35.8639448,25.384832 L35.8639448,2.899072 C35.8639448,2.510288 35.5527683,2.195072 35.1687724,2.195072 Z M1.39034483,24.258432 L1.39034483,3.603072 L3.0518069,3.603072 L3.0518069,21.259392 C3.04746207,21.648176 3.35516276,21.966912 3.73907172,21.971312 C3.77661103,21.971752 3.81415034,21.969112 3.85125517,21.963392 C5.2893931,21.741016 6.74134759,21.62336 8.19608276,21.611392 C10.2112138,21.576016 12.2179159,21.88296 14.1328552,22.519552 C9.80844828,21.989968 5.42208414,22.588544 1.39034483,24.258432 Z M8.19608276,20.210432 C6.93165103,20.213336 5.66869655,20.295616 4.41434483,20.456832 L4.41434483,1.934592 C5.76784552,1.629232 7.15002207,1.473384 8.53671724,1.469952 C11.1366621,1.469952 14.7237517,2.075392 17.212469,4.919552 L17.2333241,22.456192 C15.7873655,21.498752 12.9649655,20.210432 8.19608276,20.210432 Z M18.623669,4.919552 C21.1123862,2.103552 24.6994759,1.469952 27.2994207,1.469952 C28.686029,1.474088 30.0682055,1.629848 31.4217931,1.934592 L31.4217931,20.456832 C30.17448,20.29412 28.9184772,20.209464 27.6609103,20.203392 C22.9198345,20.203392 20.0904828,21.491712 18.623669,22.449152 L18.623669,4.919552 L18.623669,4.919552 Z M34.4666483,24.258432 C30.4263062,22.583968 26.0298621,21.985304 21.696331,22.519552 C23.6203076,21.880672 25.6365683,21.57364 27.6609103,21.611392 C29.1247697,21.619664 30.586109,21.734944 32.0335448,21.956352 C32.413109,22.014696 32.76756,21.750344 32.8251724,21.36596 C32.8308207,21.328384 32.8334276,21.290368 32.8329931,21.252352 L32.8329931,3.603072 L34.4944552,3.603072 L34.4666483,24.258432 Z" id="Shape" fill-rule="nonzero"></path>
                    <path d="M20.0132047,17.8938141 L20.0080066,17.8949189 C19.9284897,17.9119052 19.846725,17.9264057 19.7627124,17.9369013 C19.409101,17.9817838 19.1597326,18.3002424 19.2053916,18.6472877 C19.2516126,18.9948854 19.5748783,19.240013 19.9284897,19.1945781 C20.0487485,19.1795252 20.1678833,19.1590864 20.2851919,19.1339522 C20.3899968,19.1118562 20.5043551,19.0863077 20.6246138,19.050816 L20.6270022,19.0502636 C20.825373,18.9907424 21.0349829,18.9237639 21.248386,18.8364847 C21.3472905,18.7962976 21.4426827,18.7555581 21.535546,18.7141281 L21.5449588,18.7101232 C21.6458301,18.6635835 21.7399579,18.6163533 21.8281851,18.5714708 C22.0266964,18.4720388 22.2090514,18.3648732 22.3819937,18.2583981 C22.4893275,18.1936292 22.580505,18.1295508 22.6617077,18.0726536 L22.66522,18.0701678 C22.7479681,18.0109229 22.8363359,17.9462921 22.9282158,17.8722705 L22.9335544,17.8681275 C23.0927287,17.7359658 23.2545723,17.5933085 23.4109368,17.4321458 C23.4120607,17.4309029 23.4133251,17.4297981 23.4144491,17.4285552 C23.415011,17.4280028 23.415011,17.4273123 23.415573,17.4273123 C23.6555286,17.1830134 23.8704771,16.9377477 24.0769963,16.7107113 L25.8494085,16.304283 C26.8391551,16.1203338 27.79392,15.754645 28.6600361,15.2153644 C29.5298049,14.6740124 30.3098012,13.9565829 30.9370856,13.0773001 C31.4307648,12.3873525 31.7971607,11.6443745 32.0385212,10.8781956 C32.2811461,10.1125692 32.4,9.32305144 32.4,8.538091 C32.4,7.52374644 32.2023316,6.51699739 31.8165482,5.57501724 L31.8165482,5.57446484 C31.7242468,5.34949993 31.5690062,5.16099342 31.3749905,5.02758881 C31.1820988,4.8943223 30.9491677,4.8139481 30.70289,4.8052478 L30.7016256,4.8052478 C30.6070764,4.8017953 30.5112627,4.8 30.4154491,4.8 C29.1489386,4.8 27.8933863,5.09291012 26.7566879,5.66063925 C25.6199895,6.22767788 24.6034094,7.07146892 23.8213059,8.16646388 C23.344064,8.83431551 22.9660074,9.55340225 22.7072263,10.3017662 C22.4477426,11.0493015 22.3075344,11.8272189 22.3075344,12.6085887 C22.3075344,13.078543 22.3583915,13.5496022 22.4637584,14.014723 L22.4720473,14.0463479 L23.017567,15.9729811 C22.8345095,16.1755738 22.6598814,16.3712615 22.4845508,16.5494105 L22.4797742,16.5539678 C22.3685067,16.6694194 22.2427688,16.7815566 22.1059323,16.8947986 C22.0486127,16.9412002 21.9821613,16.9900876 21.908264,17.0432561 C21.8316973,17.0967008 21.7653864,17.1428263 21.7062405,17.1781799 L21.7009019,17.1812181 C21.5432729,17.2783024 21.392247,17.3664102 21.2412211,17.442089 L21.2388328,17.4430557 C21.1553822,17.4857286 21.0765677,17.5246728 21.0012655,17.5596121 C20.9178149,17.5962086 20.8354882,17.6318384 20.7542854,17.6651205 L20.7513351,17.6660872 C20.6026975,17.7272655 20.4343914,17.7819531 20.2525984,17.8360883 C20.1851635,17.8559747 20.1039607,17.8750325 20.0132047,17.8938141 M23.9286397,10.7104041 C24.1449931,10.0839825 24.4664324,9.47095655 24.8776444,8.89563192 C25.536258,7.97257147 26.3879037,7.26826143 27.3414041,6.791264 C28.2949046,6.31495708 29.3515241,6.06872477 30.4154491,6.06872477 C30.4869581,6.06872477 30.5586076,6.06982957 30.6289927,6.07217727 C30.945515,6.85644721 31.1091849,7.69485235 31.1091849,8.538091 C31.1091849,9.19710423 31.0097185,9.85984617 30.8060091,10.5020112 C30.6034237,11.1443143 30.2964547,11.7667311 29.88159,12.3484083 L29.8803256,12.3484083 C29.3515241,13.0890386 28.7000755,13.6893594 27.9685481,14.1441227 C27.238285,14.598886 26.4304719,14.9074014 25.5921727,15.0611067 L25.5642153,15.0669069 L25.4077103,15.102951 C25.5071767,14.9651272 25.6042548,14.8252319 25.6989445,14.684508 L25.7000684,14.6814698 C25.9172648,14.3523775 26.1271557,14.014723 26.3200474,13.6636728 L26.3224357,13.6609108 C26.5104103,13.3162131 26.6948727,12.9534244 26.8466011,12.5568012 C26.9713555,12.2289518 26.8040328,11.863263 26.4703709,11.7398016 C26.1368494,11.6164783 25.7644125,11.7824745 25.6393771,12.1103239 C25.5181349,12.4264348 25.3616298,12.7378503 25.1857373,13.0598995 C25.0134975,13.3726961 24.8218702,13.6810734 24.6192847,13.9891745 C24.4324341,14.2686889 24.2346252,14.5411602 24.0272631,14.8067265 L23.7207156,13.7254035 C23.6376865,13.3579194 23.5975065,12.9847731 23.5975065,12.6085887 C23.5975065,11.9767812 23.7111623,11.3369638 23.9286397,10.7104041" id="Fill-7" transform="translate(25.800000, 12.000000) scale(-1, 1) translate(-25.800000, -12.000000) "></path>
                </g>
            </g>
        </g>
    </g>
</svg>