<?xml version="1.0" encoding="UTF-8"?>
<svg width="44px" height="44px" viewBox="0 0 44 44" version="1.1" xmlns="http://www.w3.org/2000/svg" xmlns:xlink="http://www.w3.org/1999/xlink">
    <title>icon-1921Bneg</title>
    <g id="PSR" stroke="none" stroke-width="1" fill="none" fill-rule="evenodd">
        <g id="icone-bandi-PSR" transform="translate(-401.000000, -1757.000000)">
            <g id="icon-1921Bneg" transform="translate(401.000000, 1757.000000)">
                <rect id="Rectangle" fill="#30373D" x="0" y="0" width="44" height="44" rx="4"></rect>
                <g id="Group-16" transform="translate(11.000000, 6.000000)">
                    <g id="location" fill="#FFFFFF" fill-rule="nonzero">
                        <path d="M19.0388184,15.5076923 L14.663683,15.5076923 C16.7066274,13.496412 18.5654857,11.5249124 18.5654857,8.0909699 C18.5654857,3.46419371 15.1971139,0 10.7210014,0 C6.23582415,0 2.87634286,3.47448722 2.87634286,8.0909699 C2.87634286,11.5249124 4.7352448,13.496412 6.77823269,15.5076923 L2.40301013,15.5076923 L0.0123769905,23.0143144 L21.4294516,23.0143144 L19.0388184,15.5076923 Z M4.18377143,8.0909699 C4.18377143,4.18411023 6.93307581,1.34849498 10.7210014,1.34849498 C14.5088399,1.34849498 17.2580571,4.18411023 17.2580571,8.0909699 C17.2580571,12.4618017 13.6811069,14.009874 10.7210014,17.7741977 C9.83142705,16.6429902 8.88005486,15.7092474 7.9549184,14.8013956 C5.84795368,12.7336583 4.18377143,11.1004062 4.18377143,8.0909699 Z M2.34766232,20.0026756 L7.06011429,20.0026756 L7.06011429,18.6541806 L2.77710903,18.6541806 L3.34971916,16.8561873 L8.10605714,16.8561873 L8.10605714,16.8258911 C9.84258377,18.6019938 10.3123864,19.4921803 10.7210014,20.0229929 C11.1397272,19.47901 11.5941894,18.6073429 13.3357714,16.825981 L13.3357714,16.8561873 L18.092153,16.8561873 L18.6647631,18.6541806 L14.3817143,18.6541806 L14.3817143,20.0026756 L19.0941662,20.0026756 L19.6238056,21.6658194 L1.81802301,21.6658194 L2.34766232,20.0026756 Z" id="Shape"></path>
                    </g>
                    <path d="M10.8952381,3.2 L15.0857143,9.6 L12.5707619,9.599 L12.5714286,13.6 L9.21904762,13.6 L9.2187619,9.599 L6.7047619,9.6 L10.8952381,3.2 Z" id="Combined-Shape" fill="#01985A"></path>
                </g>
                <g id="number" transform="translate(6.000000, 27.000000)">
                    <rect id="Rectangle" fill="#01985A" x="0" y="0" width="32" height="14" rx="7"></rect>
                    <text id="19.2.1" font-family="TitilliumWeb-Bold, Titillium Web" font-size="9" font-weight="bold" fill="#FFFFFF">
                        <tspan x="4.116" y="10">19.2.1</tspan>
                    </text>
                </g>
            </g>
        </g>
    </g>
</svg>