<?xml version="1.0" encoding="UTF-8"?>
<svg width="44px" height="44px" viewBox="0 0 44 44" version="1.1" xmlns="http://www.w3.org/2000/svg" xmlns:xlink="http://www.w3.org/1999/xlink">
    <title>icon-433B</title>
    <defs>
        <polygon id="path-1" points="0.0588145703 0.00152 4.75232143 0.00152 4.75232143 13.4 0.0588145703 13.4"></polygon>
        <polygon id="path-3" points="0.022424856 0.00158 4.71612576 0.00158 4.71612576 13.4 0.022424856 13.4"></polygon>
        <polygon id="path-5" points="0.0299113504 0.196634294 5.35762286 0.196634294 5.35762286 5.17818 0.0299113504 5.17818"></polygon>
    </defs>
    <g id="PSR" stroke="none" stroke-width="1" fill="none" fill-rule="evenodd">
        <g id="icone-bandi-PSR" transform="translate(-352.000000, -581.000000)">
            <g id="icon-433B" transform="translate(352.000000, 581.000000)">
                <g id="Rectangle" fill="#F7F7F7" stroke="#D8D8D8">
                    <rect x="0.5" y="0.5" width="43" height="43" rx="4"></rect>
                </g>
                <g id="Group-38" transform="translate(9.000000, 4.000000)">
                    <path d="M13.899744,0.90848 C13.899744,0.86128 13.8911954,0.81668 13.8789554,0.77348 C13.8340754,0.61548 13.7142011,0.49208 13.5607154,0.44588 C13.5187497,0.43328 13.4752297,0.42448 13.4295726,0.42448 L13.2997897,0.42448 C13.2539383,0.42448 13.2106126,0.43328 13.1686469,0.44588 C13.0151611,0.49208 12.8952869,0.61548 12.8506011,0.77348 C12.8381669,0.81668 12.8296183,0.86128 12.8296183,0.90848 L12.8296183,1.51408 C12.8296183,1.56128 12.8381669,1.60608 12.8506011,1.64928 C12.8952869,1.80708 13.0151611,1.93048 13.1686469,1.97668 C13.2106126,1.98928 13.2539383,1.99828 13.2997897,1.99828 L13.4295726,1.99828 C13.4752297,1.99828 13.5187497,1.98928 13.5607154,1.97668 C13.7142011,1.93048 13.8340754,1.80708 13.8789554,1.64928 C13.8911954,1.60608 13.899744,1.56128 13.899744,1.51408 L13.899744,0.90848 Z" id="Fill-3" fill="#30373D"></path>
                    <path d="M13.2998091,8.04002 L13.4293977,8.04002 C13.4752491,8.04002 13.5187691,8.03122 13.5607349,8.01842 C13.7142206,7.97242 13.8340949,7.84902 13.8787806,7.69102 C13.8910206,7.64782 13.8997634,7.60302 13.8997634,7.55602 L13.8997634,6.95042 C13.8997634,6.90302 13.8910206,6.85842 13.8787806,6.81522 C13.8340949,6.65722 13.7142206,6.53402 13.5607349,6.48782 C13.5187691,6.47522 13.4752491,6.46622 13.4293977,6.46622 L13.2998091,6.46622 C13.2539577,6.46622 13.210632,6.47522 13.1686663,6.48782 C13.0151806,6.53402 12.8953063,6.65722 12.8504263,6.81522 C12.8381863,6.85842 12.8296377,6.90302 12.8296377,6.95042 L12.8296377,7.55602 C12.8296377,7.60302 12.8381863,7.64782 12.8504263,7.69102 C12.8953063,7.84902 13.0151806,7.97242 13.1686663,8.01842 C13.210632,8.03122 13.2539577,8.04002 13.2998091,8.04002" id="Fill-5" fill="#30373D"></path>
                    <path d="M13.6082183,3.48212 C13.5530411,3.45872 13.4928126,3.44532 13.4294754,3.44532 L13.2998869,3.44532 C13.2392697,3.44532 13.1819554,3.45812 13.1287211,3.47972 C12.9839783,3.53812 12.8742069,3.66732 12.8407897,3.82672 C12.8337954,3.85992 12.8295211,3.89412 12.8295211,3.92952 L12.8295211,4.53512 C12.8295211,4.57772 12.8367097,4.61832 12.8468126,4.65752 C12.8916926,4.83432 13.0298297,4.97232 13.2050754,5.00932 C13.2357726,5.01572 13.2674411,5.01912 13.2998869,5.01912 L13.4294754,5.01912 C13.4619211,5.01912 13.4935897,5.01572 13.5240926,5.00932 C13.6905954,4.97412 13.8227097,4.84792 13.874584,4.68412 C13.889544,4.63672 13.8996469,4.58732 13.8996469,4.53512 L13.8996469,3.92952 C13.8996469,3.88292 13.8912926,3.83872 13.8794411,3.79612 C13.8394183,3.65372 13.7397497,3.53792 13.6082183,3.48212" id="Fill-7" fill="#30373D"></path>
                    <path d="M17.3205131,1.59168 C17.3273131,1.57488 17.3308103,1.55748 17.3358617,1.54048 C17.3393589,1.52768 17.3444103,1.51568 17.346936,1.50268 C17.3525703,1.47508 17.3547074,1.44748 17.3554846,1.41968 C17.3556789,1.41628 17.3564646,1.41288 17.3564646,1.40948 C17.3566503,1.38248 17.3535417,1.35548 17.3492674,1.32848 C17.3486846,1.32388 17.3488789,1.31928 17.3479074,1.31468 C17.3418846,1.28308 17.3329474,1.25168 17.3207074,1.22108 L17.0961131,0.66148 C17.0838731,0.63088 17.0687189,0.60228 17.0512331,0.57548 C17.0483189,0.57088 17.0442389,0.56708 17.040936,0.56248 C17.025976,0.54128 17.0104331,0.52068 16.9923646,0.50228 C16.9880903,0.49788 16.9826503,0.49468 16.9781817,0.49028 C16.9603074,0.47348 16.9420446,0.45708 16.9218389,0.44328 C16.9074617,0.43328 16.8915303,0.42608 16.8759874,0.41788 C16.8645246,0.41188 16.8540331,0.40428 16.8417931,0.39928 C16.8264446,0.39268 16.8105131,0.38928 16.794776,0.38448 C16.7815646,0.38028 16.768936,0.37488 16.755336,0.37188 C16.7296903,0.36668 16.7038503,0.36448 16.677816,0.36348 C16.6733474,0.36328 16.6690731,0.362270582 16.6647989,0.362270582 C16.6375989,0.36208 16.6105931,0.36508 16.5837817,0.36988 C16.5800903,0.37048 16.5763989,0.37028 16.5727074,0.37088 C16.5420103,0.37708 16.5115074,0.38628 16.481976,0.39888 L16.3619074,0.44988 C16.332376,0.46248 16.3045931,0.47808 16.2783646,0.49608 C16.2748674,0.49868 16.2721474,0.50188 16.2686503,0.50428 C16.2468903,0.52028 16.2261017,0.53748 16.2074503,0.55688 C16.2033703,0.56108 16.2002617,0.56628 16.196376,0.57068 C16.1796674,0.58908 16.1635417,0.60828 16.150136,0.62928 C16.139256,0.64588 16.1312903,0.66408 16.1227417,0.68188 C16.1178846,0.69188 16.1114731,0.70108 16.1071989,0.71168 C16.1029246,0.72228 16.101176,0.73348 16.0976789,0.74448 C16.0914617,0.76308 16.0846617,0.78168 16.080776,0.80088 C16.0763074,0.82408 16.0749474,0.84728 16.0737817,0.87048 C16.0731989,0.87848 16.0714503,0.88628 16.071256,0.89428 C16.071256,0.89528 16.0710617,0.89628 16.0710617,0.89728 C16.0710617,0.92188 16.0743646,0.94628 16.078056,0.97088 C16.0790274,0.97688 16.0786389,0.98288 16.0798046,0.98888 C16.0858274,1.02048 16.0947646,1.05168 16.1070046,1.08208 L16.3315989,1.64188 C16.3438389,1.67228 16.3589931,1.70108 16.3764789,1.72788 C16.3793931,1.73228 16.3832789,1.73588 16.3863874,1.74028 C16.4015417,1.76168 16.4172789,1.78248 16.4353474,1.80108 C16.439816,1.80548 16.4450617,1.80868 16.4495303,1.81288 C16.4674046,1.82968 16.4856674,1.84628 16.5060674,1.86008 C16.5198617,1.86968 16.535016,1.87628 16.5497817,1.88408 C16.5618274,1.89068 16.573096,1.89868 16.5859189,1.90408 C16.6018503,1.91088 16.6185589,1.91448 16.6348789,1.91948 C16.6475074,1.92328 16.6595531,1.92868 16.6725703,1.93128 C16.6980217,1.93688 16.724056,1.93888 16.749896,1.93988 C16.7543646,1.93988 16.7586389,1.94108942 16.7629131,1.94108942 C16.7901131,1.94128 16.8171189,1.93828 16.8439303,1.93348 C16.8476217,1.93288 16.8513131,1.93328 16.8550046,1.93248 C16.885896,1.92628 16.9162046,1.91708 16.9459303,1.90448 L17.0658046,1.85348 C17.0955303,1.84088 17.1233131,1.82528 17.1493474,1.80728 C17.1530389,1.80468 17.1559531,1.80108 17.1596446,1.79848 C17.1812103,1.78268 17.2019989,1.76588 17.220456,1.74648 C17.224536,1.74228 17.2274503,1.73728 17.2315303,1.73268 C17.2480446,1.71408 17.2641703,1.69528 17.2777703,1.67408 C17.288456,1.65748 17.2964217,1.63928 17.3049703,1.62148 C17.3098274,1.61148 17.3162389,1.60228 17.3205131,1.59168" id="Fill-9" fill="#30373D"></path>
                    <path d="M17.2935657,4.0122 C17.2995886,4.0438 17.3085257,4.075 17.3207657,4.1054 L17.5914057,4.7798 C17.60656,4.8174 17.62696,4.851 17.6494971,4.8824 C17.7458629,5.0162 17.9018743,5.088 18.0619657,5.0754 C18.1101486,5.0716 18.1585257,5.0624 18.2055429,5.0422 L18.3256114,4.9914 C18.3551429,4.9788 18.3829257,4.963 18.4091543,4.9452 C18.4128457,4.9424 18.41576,4.939 18.4194514,4.9364 C18.4410171,4.9206 18.4616114,4.9038 18.4800686,4.8844 C18.4841486,4.8802 18.4872571,4.875 18.4911429,4.8706 C18.5078514,4.852 18.5239771,4.833 18.5373829,4.8118 C18.5482629,4.7954 18.5562286,4.7772 18.5645829,4.7594 C18.5696343,4.7492 18.5760457,4.7402 18.58032,4.7294 C18.5869257,4.7128 18.5906171,4.6954 18.5954743,4.6782 C18.5989714,4.6656 18.6042171,4.6534 18.6067429,4.6406 C18.6121829,4.613 18.6145143,4.5854 18.6152914,4.5576 C18.6152914,4.554 18.6162715,4.5508 18.6162715,4.5474 C18.6164571,4.5204 18.6133486,4.4932 18.6090743,4.4664 C18.6082971,4.4618 18.6086857,4.4572 18.6077143,4.4524 C18.6016914,4.4208 18.5927543,4.3896 18.5805143,4.359 L18.3098743,3.6848 C18.29472,3.647 18.27432,3.6134 18.2517829,3.5822 C18.1554171,3.4484 17.9992114,3.3766 17.8395086,3.3892 C17.7911314,3.393 17.7427543,3.4022 17.6955429,3.4222 L17.5756686,3.4732 C17.5461371,3.4858 17.51816,3.5014 17.4921257,3.5194 C17.4884343,3.522 17.48552,3.5254 17.4818286,3.5282 C17.4602629,3.544 17.4394743,3.5608 17.4210171,3.58 C17.4169371,3.5844 17.4140229,3.5896 17.4101371,3.594 C17.3934286,3.6124 17.3773029,3.6316 17.3637029,3.6526 C17.3530171,3.6692 17.3452457,3.6874 17.3365029,3.7052 C17.3316457,3.7154 17.3252343,3.7244 17.3211543,3.735 C17.3170743,3.745 17.3153257,3.7556 17.3118286,3.7658 C17.3056114,3.7852 17.2984229,3.8042 17.2945371,3.8244 C17.2898743,3.8472 17.2887086,3.8704 17.2873486,3.8934 C17.28696,3.9016 17.2852114,3.9094 17.2852114,3.9176 C17.2852114,3.9186 17.2848229,3.9196 17.2848229,3.9206 C17.2848229,3.9452 17.2881257,3.9698 17.2918171,3.9942 C17.2927886,4 17.2924,4.0062 17.2935657,4.0122" id="Fill-11" fill="#30373D"></path>
                    <path d="M18.553392,7.15038 C18.5592206,7.18158 18.5681577,7.21278 18.5803977,7.24338 L18.8051863,7.80298 C18.8174263,7.83358 18.8325806,7.86218 18.849872,7.88878 C18.8531749,7.89378 18.8574491,7.89778 18.8609463,7.90258 C18.875712,7.92358 18.8910606,7.94398 18.9089349,7.96218 C18.9135977,7.96698 18.919232,7.97038 18.9240891,7.97498 C18.9415749,7.99138 18.9594491,8.00758 18.9794606,8.02118 C18.9951977,8.03198 19.0124891,8.03998 19.0291977,8.04858 C19.0394949,8.05398 19.0488206,8.06058 19.059312,8.06518 C19.0731063,8.07118 19.0874834,8.07398 19.1012777,8.07838 C19.1162377,8.08318 19.1308091,8.08918 19.1459634,8.09238 C19.1712206,8.09778 19.1968663,8.09978 19.2223177,8.10078 C19.2271749,8.10098 19.2318377,8.10218942 19.2365006,8.10218942 C19.2629234,8.10238 19.289152,8.09938 19.3151863,8.09478 C19.3196549,8.09418 19.3241234,8.09438 19.328592,8.09358 C19.3592891,8.08738 19.3895977,8.07818 19.4193234,8.06558 L19.539392,8.01458 C19.5689234,8.00198 19.5969006,7.98638 19.6227406,7.96818 C19.6262377,7.96598 19.629152,7.96278 19.6324549,7.96018 C19.6544091,7.94418 19.6751977,7.92718 19.6940434,7.90758 C19.6977349,7.90358 19.7006491,7.89878 19.7043406,7.89458 C19.7210491,7.87578 19.7373691,7.85658 19.7513577,7.83498 C19.7618491,7.81838 19.7698149,7.80038 19.7785577,7.78258 C19.7834149,7.77238 19.789632,7.76318 19.7939063,7.75278 C19.8007063,7.73578 19.8043977,7.71818 19.8094491,7.70078 C19.8129463,7.68838 19.8178034,7.67638 19.8203291,7.66378 C19.8259634,7.63658 19.8281006,7.60898 19.8288777,7.58138 C19.8288777,7.57778 19.8298583,7.57418 19.8298583,7.57058 C19.8300434,7.54318 19.8271291,7.51618 19.8226606,7.48898 C19.8220777,7.48458 19.822272,7.48018 19.8214949,7.47558 C19.815472,7.44398 19.8065349,7.41278 19.7942949,7.38238 L19.5695063,6.82258 C19.5572663,6.79218 19.5423063,6.76338 19.5248206,6.73678 C19.5215177,6.73178 19.5172434,6.72778 19.5137463,6.72298 C19.4989806,6.70198 19.483632,6.68158 19.4657577,6.66338 C19.4610949,6.65878 19.4556549,6.65518 19.4507977,6.65058 C19.4331177,6.63418 19.4152434,6.61798 19.395232,6.60438 C19.3794949,6.59358 19.3623977,6.58578 19.3454949,6.57698 C19.3351977,6.57158 19.3260663,6.56498 19.3151863,6.56038 C19.3015863,6.55458 19.2874034,6.55158 19.2734149,6.54718 C19.2584549,6.54238 19.2440777,6.53638 19.2287291,6.53318 C19.203472,6.52778 19.1778263,6.52578 19.1523749,6.52478 C19.147712,6.52458 19.1430491,6.52337112 19.138192,6.52337112 C19.1119634,6.52318 19.0855406,6.52638 19.059312,6.53078 C19.0550377,6.53158 19.0505691,6.53118 19.0462949,6.53218 C19.0154034,6.53818 18.9850949,6.54738 18.9553691,6.55998 L18.8354949,6.61118 C18.8082949,6.62258 18.783232,6.63738 18.7593349,6.65318 C18.7523406,6.65778 18.7461234,6.66278 18.7395177,6.66778 C18.7228091,6.68038 18.707072,6.69358 18.6923063,6.70818 C18.6862834,6.71418 18.679872,6.71998 18.6740434,6.72638 C18.6573349,6.74458 18.6419863,6.76378 18.6283863,6.78438 C18.6264434,6.78718 18.6243063,6.78938 18.6225577,6.79218 C18.607792,6.81518 18.5957463,6.83958 18.5850606,6.86458 C18.5815634,6.87298 18.5788434,6.88138 18.5757349,6.88978 C18.5691291,6.90818 18.5634949,6.92678 18.5590263,6.94578 C18.5568891,6.95478 18.554752,6.96378 18.5531977,6.97318 C18.5491177,6.99658 18.546592,7.02038 18.5458149,7.04438 C18.5456206,7.04858 18.5450377,7.05258 18.5450377,7.05678 C18.5450377,7.05758 18.5448434,7.05838 18.5448434,7.05898 C18.5448434,7.07938 18.547952,7.09978 18.5504777,7.12018 C18.5518377,7.13018 18.5514491,7.14038 18.553392,7.15038" id="Fill-13" fill="#30373D"></path>
                    <path d="M10.6580674,0.89726 C10.6580674,0.89666 10.6578731,0.89586 10.6578731,0.89526 C10.6578731,0.91366 10.6553474,0.93186 10.653016,0.95006 C10.6549589,0.93246 10.6580674,0.91486 10.6580674,0.89726" id="Fill-15" fill="#30373D"></path>
                    <path d="M9.49785143,1.7327 C9.50173714,1.7371 9.50484571,1.7423 9.50892571,1.7465 C9.52757714,1.7661 9.54836571,1.7829 9.57012571,1.7991 C9.57362286,1.8015 9.57634286,1.8047 9.57984,1.8073 C9.60606857,1.8251 9.63385143,1.8409 9.66357714,1.8535 L9.78345143,1.9045 C9.81317714,1.9171 9.84348571,1.9263 9.87418286,1.9325 C9.87806857,1.9331 9.88176,1.9329 9.88525714,1.9335 C9.91206857,1.9383 9.93907429,1.9413 9.96627429,1.94110942 C9.97074286,1.94110942 9.97501714,1.9399 9.97948571,1.9399 C10.0053257,1.9389 10.0311657,1.9369 10.0568114,1.9313 C10.0704114,1.9285 10.08304,1.9231 10.0964457,1.9189 C10.1119886,1.9141 10.12792,1.9107 10.1432686,1.9041 C10.1555086,1.8991 10.166,1.8915 10.1774629,1.8853 C10.1930057,1.8771 10.2089371,1.8701 10.2233143,1.8601 C10.24352,1.8463 10.2617829,1.8299 10.2796571,1.8131 C10.2841257,1.8087 10.2895657,1.8055 10.29384,1.8011 C10.3119086,1.7827 10.3274514,1.7621 10.3424114,1.7409 C10.3457143,1.7363 10.3497943,1.7325 10.3527086,1.7279 C10.3701943,1.7011 10.3853486,1.6723 10.3975886,1.6419 L10.6223771,1.0821 C10.6346171,1.0517 10.64336,1.0205 10.6493829,0.9889 C10.6507429,0.9825 10.6503543,0.9761 10.6513257,0.9697 C10.6522971,0.9631 10.6521029,0.9565 10.6530743,0.9501 L10.6530743,0.9503 C10.6550171,0.9319 10.6579314,0.9135 10.6579314,0.8953 C10.6579314,0.8949 10.6579314,0.8945 10.6579314,0.8941 C10.6579314,0.8873 10.6563771,0.8807 10.6559886,0.8739 C10.6548229,0.8495 10.6532686,0.8251 10.6484114,0.8009 C10.64472,0.7821 10.6381143,0.7643 10.6320914,0.7459 C10.6284,0.7347 10.6266514,0.7229 10.6219886,0.7117 C10.6177143,0.7011 10.6113029,0.6919 10.60664,0.6819 C10.5978971,0.6641 10.5899314,0.6459 10.5792457,0.6293 C10.5656457,0.6081 10.54952,0.5891 10.5330057,0.5705 C10.52912,0.5661 10.5260114,0.5611 10.5219314,0.5567 C10.5034743,0.5375 10.4826857,0.5207 10.46112,0.5049 C10.4574286,0.5021 10.4545143,0.4987 10.4508229,0.4961 C10.4247886,0.4781 10.3970057,0.4625 10.36728,0.4499 L10.2474057,0.3989 C10.21768,0.3863 10.1873714,0.3771 10.15648,0.3709 C10.1527886,0.3703 10.1490971,0.3705 10.1454057,0.3699 C10.1185943,0.3651 10.0915886,0.3619 10.0645829,0.36209113 C10.0601143,0.3623 10.05584,0.3633 10.0515657,0.3635 C10.0255314,0.3645 9.99969143,0.3665 9.97404571,0.3719 C9.96102857,0.3747 9.94898286,0.3801 9.93635429,0.3839 C9.92003429,0.3887 9.90332571,0.3923 9.88739429,0.3993 C9.87457143,0.4047 9.86330286,0.4125 9.85125714,0.4191 C9.83649143,0.4271 9.82133714,0.4337 9.80754286,0.4433 C9.78714286,0.4571 9.76888,0.4735 9.75100571,0.4905 C9.74653714,0.4947 9.74129143,0.4979 9.73682286,0.5023 C9.71875429,0.5209 9.70301714,0.5417 9.68786286,0.5631 C9.68475429,0.5675 9.68086857,0.5711 9.67795429,0.5755 C9.66046857,0.6023 9.64531429,0.6309 9.63307429,0.6615 L9.40848,1.2211 C9.39624,1.2517 9.38730286,1.2829 9.38128,1.3145 C9.38030857,1.3205 9.38050286,1.3265 9.37972571,1.3327 C9.37603429,1.3571 9.37253714,1.3815 9.37253714,1.4061 C9.37253714,1.4071 9.37273143,1.4079 9.37273143,1.4089 C9.37292571,1.4171 9.37467429,1.4247 9.37525714,1.4329 C9.37642286,1.4561 9.37778286,1.4793 9.38225143,1.5023 C9.38613714,1.5217 9.39293714,1.5403 9.39915429,1.5589 C9.40265143,1.5699 9.40459429,1.5809 9.40886857,1.5917 C9.41294857,1.6023 9.41936,1.6115 9.42441143,1.6215 C9.43296,1.6393 9.44092571,1.6575 9.45161143,1.6741 C9.46521143,1.6953 9.48133714,1.7141 9.49785143,1.7327" id="Fill-17" fill="#30373D"></path>
                    <path d="M8.23965714,4.87254 C8.24296,4.87634 8.24548571,4.88074 8.24898286,4.88434 C8.26802286,4.90414 8.28900571,4.92134 8.31115429,4.93754 C8.31426286,4.93974 8.31678857,4.94274 8.32028571,4.94494 C8.34612571,4.96314 8.37390857,4.97874 8.40363429,4.99134 L8.52370286,5.04234 C8.56450286,5.05974 8.60646857,5.06854 8.64843429,5.07354 C8.80075429,5.09194 8.95132571,5.03274 9.05274286,4.91594 C9.08713143,4.87634 9.11705143,4.83154 9.13784,4.77994 L9.40867429,4.10554 C9.42091429,4.07494 9.42965714,4.04374 9.43568,4.01214 C9.43665143,4.00674 9.43645714,4.00174 9.43723429,3.99634 C9.44131429,3.97014 9.44442286,3.94374 9.4442372,3.91754 C9.4442372,3.91094 9.44267429,3.90454 9.44228571,3.89814 C9.44131429,3.87334 9.43956571,3.84874 9.43470857,3.82434 C9.43121143,3.80614 9.42460571,3.78894 9.41897143,3.77134 C9.41528,3.75934 9.41314286,3.74694 9.40828571,3.73514 C9.40342857,3.72274 9.39624,3.71214 9.39041143,3.70054 C9.38244571,3.68454 9.37525714,3.66794 9.36554286,3.65274 C9.35155429,3.63094 9.33504,3.61114 9.31774857,3.59214 C9.31444571,3.58834 9.31192,3.58394 9.30822857,3.58014 C9.28938286,3.56034 9.26820571,3.54314 9.24625143,3.52694 C9.24294857,3.52474 9.24042286,3.52174 9.23712,3.51954 C9.21108571,3.50154 9.18330286,3.48574 9.15357714,3.47314 L9.03350857,3.42234 C9.03292571,3.42194 9.03253714,3.42194 9.03195429,3.42174 C8.99698286,3.40694 8.96123429,3.39814 8.92548571,3.39254 C8.92179429,3.39194 8.91790857,3.38994 8.91421714,3.38934 C8.91790857,3.38994 8.9216,3.39194 8.92548571,3.39254 C8.75257143,3.36494 8.57868571,3.43934 8.47532571,3.58494 C8.47765714,3.58154 8.47882286,3.57734 8.48134857,3.57434 C8.47882286,3.57734 8.47765714,3.58154 8.47532571,3.58494 C8.45414857,3.61474 8.43530286,3.64674 8.42092571,3.68214 C8.42053714,3.68314 8.41976,3.68374 8.41937143,3.68474 L8.14873143,4.35914 C8.13649143,4.38954 8.12755429,4.42074 8.12153143,4.45234 C8.12056,4.45754 8.12094857,4.46274 8.12017143,4.46794 C8.11609143,4.49334 8.11278857,4.51854 8.11278857,4.54394 C8.11278857,4.54494 8.11317714,4.54594 8.11317714,4.54694 C8.11317714,4.55414 8.11473143,4.56094 8.11512,4.56814 C8.11628571,4.59234 8.11784,4.61634 8.12250286,4.64034 C8.126,4.65754 8.13221714,4.67374 8.13746286,4.69054 C8.14154286,4.70354 8.14387429,4.71674 8.14912,4.72954 C8.15417143,4.74234 8.16174857,4.75374 8.16796571,4.76594 C8.17554286,4.78134 8.18234286,4.79734 8.19166857,4.81174 C8.20585143,4.83374 8.22236571,4.85334 8.23965714,4.87254" id="Fill-19" fill="#30373D"></path>
                    <path d="M8.17608686,7.1495 C8.179584,7.1311 8.17977829,7.1125 8.180944,7.0941 C8.18191543,7.0825 8.18424686,7.0707 8.18424686,7.0591 C8.18424686,7.0585 8.18424686,7.0581 8.18424686,7.0577 C8.18424686,7.0515 8.18327543,7.0455 8.18288686,7.0393 C8.18210971,7.0175 8.17997257,6.9957 8.17628114,6.9745 C8.17453257,6.9641 8.17200686,6.9541 8.16967543,6.9439 C8.16540114,6.9263 8.16034971,6.9091 8.15432686,6.8921 C8.15082971,6.8825 8.14772114,6.8729 8.14364114,6.8635 C8.13353829,6.8399 8.12207543,6.8169 8.10828114,6.7951 C8.10517257,6.7901 8.10148114,6.7857 8.09817829,6.7807 C8.08535543,6.7619 8.07117257,6.7441 8.055824,6.7273 C8.04960686,6.7203 8.04261257,6.7137 8.03581257,6.7071 C8.021824,6.6935 8.00705829,6.6809 7.99132114,6.6691 C7.99753829,6.6739 8.00317257,6.6793 8.00919543,6.6843 C8.00297829,6.6791 7.99753829,6.6737 7.99112686,6.6689 C7.99112686,6.6691 7.99132114,6.6691 7.99132114,6.6691 C7.98393829,6.6635 7.976944,6.6579 7.96917257,6.6527 C7.96897829,6.6527 7.96897829,6.6525 7.968784,6.6525 C7.96897829,6.6525 7.96897829,6.6527 7.96917257,6.6527 C7.94605257,6.6373 7.92176686,6.6235 7.89553829,6.6121 C7.896704,6.6125 7.89748114,6.6133 7.89864686,6.6137 C7.89689829,6.6129 7.89553829,6.6119 7.89378971,6.6111 L7.77391543,6.5601 C7.74418971,6.5475 7.71388114,6.5383 7.68298971,6.5321 C7.67871543,6.5313 7.67424686,6.5315 7.66997257,6.5307 C7.643744,6.5263 7.61751543,6.5231 7.59109257,6.52329112 C7.58623543,6.5235 7.58176686,6.5245 7.57690971,6.5247 C7.55145829,6.5257 7.52581257,6.5279 7.50055543,6.5331 C7.48520686,6.5365 7.47082971,6.5425 7.45586971,6.5471 C7.44188114,6.5517 7.42769829,6.5545 7.41409829,6.5603 C7.40321829,6.5649 7.39408686,6.5717 7.38378971,6.5771 C7.36688686,6.5857 7.34978971,6.5937 7.33405257,6.6043 C7.31404114,6.6181 7.29616686,6.6341 7.27848686,6.6507 C7.27362971,6.6553 7.26818971,6.6587 7.26352686,6.6635 C7.24565257,6.6817 7.230304,6.7021 7.21553829,6.7231 C7.21204114,6.7279 7.20776686,6.7317 7.204464,6.7367 C7.18697829,6.7635 7.17201829,6.7921 7.15977829,6.8227 L6.93498971,7.3823 C6.92274971,7.4127 6.91381257,7.4439 6.907984,7.4755 C6.90681829,7.4811 6.90720686,7.4869 6.90623543,7.4923 C6.902544,7.5171 6.89904686,7.5421 6.89904686,7.5671 C6.89904686,7.5681 6.89943543,7.5691 6.89943543,7.5701 C6.89943543,7.5779 6.901184,7.5853 6.90157257,7.5929 C6.90273829,7.6165 6.90429257,7.6401 6.90895543,7.6635 C6.91245257,7.6815 6.918864,7.6987 6.92449829,7.7161 C6.928384,7.7283 6.93052114,7.7409 6.93537829,7.7527 C6.94023543,7.7649 6.947424,7.7755 6.95325257,7.7871 C6.96121829,7.8033 6.96821257,7.8199 6.97792686,7.8351 C6.99191543,7.8567 7.00823543,7.8759 7.02513829,7.8949 C7.02882971,7.8989 7.03154971,7.9037 7.03543543,7.9077 C7.05408686,7.9271 7.07506971,7.9441 7.09682971,7.9601 C7.10013257,7.9627 7.10304686,7.9659 7.106544,7.9683 C7.132384,7.9863 7.16036114,8.0019 7.19008686,8.0145 L7.30996114,8.0655 C7.33968686,8.0781 7.36999543,8.0873 7.40069257,8.0935 C7.40516114,8.0943 7.40962971,8.0941 7.41409829,8.0949 C7.44013257,8.0993 7.46636114,8.1025 7.492784,8.10230888 C7.49764114,8.10230888 7.50210971,8.1009 7.50696686,8.1007 C7.53241829,8.0997 7.558064,8.0979 7.58332114,8.0925 C7.59847543,8.0893 7.61304686,8.0831 7.62800686,8.0785 C7.64180114,8.0739 7.65617829,8.0711 7.66997257,8.0653 C7.68065829,8.0607 7.68978971,8.0539 7.70008686,8.0487 C7.71698971,8.0399 7.73408686,8.0321 7.749824,8.0211 C7.76983543,8.0077 7.78770971,7.9913 7.80519543,7.9749 C7.81005257,7.9703 7.81588114,7.9669 7.82034971,7.9621 C7.838224,7.9441 7.85357257,7.9237 7.86853257,7.9027 C7.87183543,7.8979 7.87610971,7.8939 7.87941257,7.8889 C7.89689829,7.8621 7.91205257,7.8335 7.92429257,7.8031 L8.14888686,7.2433 C8.15724114,7.2223 8.16209829,7.2009 8.167344,7.1795 C8.16617829,7.1841 8.164624,7.1887 8.16345829,7.1933 C8.167344,7.1793 8.17297829,7.1653 8.17569829,7.1511 L8.17569829,7.1513 C8.17589257,7.1507 8.17608686,7.1501 8.17608686,7.1495" id="Fill-21" fill="#30373D"></path>
                    <g id="Group-25" transform="translate(4.080000, 10.361000)">
                        <mask id="mask-2" fill="white">
                            <use xlink:href="#path-1"></use>
                        </mask>
                        <g id="Clip-24"></g>
                        <path d="M2.94063086,4.64982 L2.94063086,3.83322 C2.94063086,3.12442 1.87050514,3.12322 1.87050514,3.83322 L1.87050514,4.64982 C1.36672229,4.11202 1.11725943,3.58202 1.12930514,3.06842 C1.15106514,2.14382 2.01719086,1.39742 2.405568,1.10882 C2.79394514,1.39742 3.66007086,2.14382 3.68183086,3.06842 C3.69387657,3.58202 3.444608,4.11202 2.94063086,4.64982 M4.751568,3.04162 C4.71912229,1.66102 3.64880229,0.67002 3.013488,0.20222 C2.64997943,-0.06538 2.16115657,-0.06538 1.797648,0.20222 L1.79745371,0.20222 C1.16233371,0.67002 0.0920137143,1.66102 0.059568,3.04162 C0.035088,4.08242 0.607259429,5.08642 1.76015086,6.02582 C1.79531657,6.05462 1.833008,6.07782 1.87050514,6.10122 L1.87050514,12.86802 C1.87050514,13.57682 2.94063086,13.57802 2.94063086,12.86802 L2.94063086,6.10122 C2.978128,6.07782 3.01581943,6.05462 3.05098514,6.02582 C4.20387657,5.08642 4.776048,4.08242 4.751568,3.04162" id="Fill-23" fill="#30373D" mask="url(#mask-2)"></path>
                    </g>
                    <path d="M9.515512,16.4033 C10.0361977,15.9987 10.8384034,15.9499 11.8999806,16.2585 C11.8444149,17.3929 11.5430777,18.1597 11.0039349,18.5379 C10.2615691,19.0589 9.16774057,18.7699 8.71350057,18.6133 C8.71466629,18.1203 8.79859771,16.9609 9.515512,16.4033 M8.35251771,19.6505 C8.74225486,19.7867 9.31675771,19.9393 9.93555771,19.9393 C10.4910206,19.9393 11.082232,19.8163 11.6068034,19.4481 C12.442232,18.8617 12.9009406,17.7977 12.969912,16.2857 C12.9926434,15.7873 12.6831463,15.3435 12.2172491,15.2063 C10.803432,14.7901 9.677352,14.8969 8.87067771,15.5243 C7.79996914,16.3567 7.64220914,17.8295 7.64336848,18.6335 C7.64395771,19.0939 7.92897486,19.5027 8.35251771,19.6505" id="Fill-26" fill="#30373D"></path>
                    <path d="M3.45564343,16.4033 C4.17255771,16.9607 4.25648914,18.1201 4.25765486,18.6133 C3.80360914,18.7699 2.70978057,19.0589 1.96702629,18.5379 C1.42807771,18.1597 1.12674057,17.3929 1.07117486,16.2585 C2.13294629,15.9499 2.935152,15.9987 3.45564343,16.4033 M1.364352,19.4481 C1.88911771,19.8163 2.48013486,19.9393 3.03559771,19.9393 C3.65420343,19.9393 4.22890057,19.7867 4.61844343,19.6505 C5.04218057,19.5027 5.32719771,19.0939 5.32778695,18.6335 C5.32894629,17.8295 5.17118629,16.3567 4.10047771,15.5243 C3.29360914,14.8969 2.16752914,14.7901 0.753712,15.2063 C0.288009143,15.3435 -0.021488,15.7873 0.00124342857,16.2857 C0.0702148571,17.7977 0.528923429,18.8617 1.364352,19.4481" id="Fill-28" fill="#30373D"></path>
                    <g id="Group-32" transform="translate(17.874286, 10.361000)">
                        <mask id="mask-4" fill="white">
                            <use xlink:href="#path-3"></use>
                        </mask>
                        <g id="Clip-31"></g>
                        <path d="M1.09291543,3.06848 C1.11467543,2.14368 1.98080114,1.39748 2.36917829,1.10888 C2.75755543,1.39748 3.62368114,2.14368 3.64544114,3.06848 C3.65768114,3.58208 3.40821829,4.11208 2.90424114,4.64988 L2.90424114,3.83328 C2.90424114,3.12448 1.83411543,3.12328 1.83411543,3.83328 L1.83411543,4.64988 C1.33033257,4.11208 1.08086971,3.58208 1.09291543,3.06848 M1.83411543,6.10128 L1.83411543,12.86808 C1.83411543,13.57688 2.90424114,13.57788 2.90424114,12.86808 L2.90424114,6.10128 C2.94173829,6.07788 2.97942971,6.05468 3.01459543,6.02588 C4.16748686,5.08648 4.73985257,4.08228 4.71537257,3.04168 C4.68273257,1.66088 3.61241257,0.67008 2.97729257,0.20228 C2.61358971,-0.06532 2.12496114,-0.06532 1.76125829,0.20228 L1.761064,0.20228 C1.125944,0.67008 0.0558182857,1.66088 0.0231782857,3.04168 C-0.00130171429,4.08228 0.570869714,5.08648 1.72376114,6.02588 C1.75892686,6.05468 1.79661829,6.07788 1.83411543,6.10128" id="Fill-30" fill="#30373D" mask="url(#mask-4)"></path>
                    </g>
                    <g id="Group-35" transform="translate(21.371429, 14.761000)">
                        <mask id="mask-6" fill="white">
                            <use xlink:href="#path-5"></use>
                        </mask>
                        <g id="Clip-34"></g>
                        <path d="M3.39048,3.77698 C2.64811429,4.29798 1.55409143,4.00898 1.09985143,3.85218 C1.10121143,3.35938 1.18494857,2.19978 1.90205714,1.64238 C2.42274286,1.23778 3.22475429,1.18898 4.28633143,1.49758 C4.23096,2.63198 3.92942857,3.39858 3.39048,3.77698 M5.35645714,1.52458 C5.37918857,1.02638 5.06969143,0.58238 4.60379429,0.44518 C3.18997714,0.02898 2.06389714,0.13578 1.25722286,0.76338 C0.186514286,1.59578 0.02856,3.06858 0.0299113504,3.87258 C0.0305028571,4.33278 0.31552,4.74158 0.739062857,4.88958 C1.12860571,5.02578 1.70330286,5.17818 2.32190857,5.17818 C2.87756571,5.17818 3.46877714,5.05538 3.99334857,4.68698 C4.82877714,4.10078 5.28748571,3.03678 5.35645714,1.52458" id="Fill-33" fill="#30373D" mask="url(#mask-6)"></path>
                    </g>
                    <path d="M17.2135977,16.4033 C17.930512,16.9607 18.0144434,18.1201 18.0156091,18.6133 C17.5615634,18.7699 16.4675406,19.0589 15.7249806,18.5379 C15.186032,18.1597 14.8846949,17.3929 14.8291291,16.2585 C15.8909006,15.9499 16.6931063,15.9987 17.2135977,16.4033 M15.1223063,19.4481 C15.647072,19.8163 16.2378949,19.9393 16.793552,19.9393 C17.4121577,19.9393 17.9868549,19.7867 18.3763977,19.6505 C18.8001349,19.5027 19.085152,19.0939 19.0857412,18.6335 C19.0869006,17.8295 18.9291406,16.3567 17.858432,15.5243 C17.0515634,14.8969 15.9254834,14.7901 14.5116663,15.2063 C14.0457691,15.3435 13.7364663,15.7873 13.7591977,16.2857 C13.8281691,17.7977 14.2866834,18.8617 15.1223063,19.4481" id="Fill-36" fill="#30373D"></path>
                </g>
                <g id="number" transform="translate(6.000000, 27.000000)">
                    <rect id="Rectangle" fill="#01985A" x="0" y="0" width="32" height="14" rx="7"></rect>
                    <text id="4.3.3" font-family="TitilliumWeb-Bold, Titillium Web" font-size="9" font-weight="bold" fill="#FFFFFF">
                        <tspan x="6.636" y="10">4.3.3</tspan>
                    </text>
                </g>
            </g>
        </g>
    </g>
</svg>