<?xml version="1.0" encoding="UTF-8"?>
<svg width="44px" height="44px" viewBox="0 0 44 44" version="1.1" xmlns="http://www.w3.org/2000/svg" xmlns:xlink="http://www.w3.org/1999/xlink">
    <title>icon-411Aneg</title>
    <g id="PSR" stroke="none" stroke-width="1" fill="none" fill-rule="evenodd">
        <g id="icone-bandi-PSR" transform="translate(-286.000000, -285.000000)">
            <g id="icon-411Aneg" transform="translate(286.000000, 285.000000)">
                <rect id="Rectangle" fill="#30373D" x="0" y="0" width="44" height="44" rx="4"></rect>
                <g id="Group-11" transform="translate(7.000000, 7.000000)">
                    <g id="field" fill="#FFFFFF" fill-rule="nonzero">
                        <path d="M8.31932965,25.7445816 C12.1393397,20.7639617 17.6690776,17.3057208 23.7708417,16.0097026 C23.7719758,16.0094758 23.7731099,16.009249 23.7740171,16.0090222 C25.5275202,15.6368195 27.327747,15.4428932 29.1483871,15.4428932 C29.468876,15.4428932 29.7290323,15.1827369 29.7290323,14.862248 C29.7290323,14.5415323 29.468876,14.2816029 29.1483871,14.2816029 C27.4974042,14.2816029 25.8527722,14.4326613 24.2360383,14.7282006 L24.2360383,13.4748236 C26.334753,11.6981855 27.4867439,9.37016129 27.4867439,6.89107866 C27.4867439,4.32784777 26.2553679,1.92610887 24.0192036,0.128150187 C23.8066784,-0.042641129 23.503881,-0.042641129 23.2913558,0.128150187 C21.0554184,1.92610887 19.8238155,4.32784777 19.8238155,6.89107866 C19.8238155,9.37016129 20.9760333,11.6981855 23.0745212,13.4748236 L23.0745212,14.9656754 C21.9712953,15.2167591 20.8839466,15.5367944 19.8192792,15.9221522 L19.8192792,12.5224294 C19.8192792,12.362752 19.7548639,12.2182712 19.6505292,12.1132561 L19.6505292,12.1130292 L16.3989163,8.8421371 C16.2898185,8.73258567 16.1417087,8.67089212 15.9870212,8.67089212 L9.3483871,8.67089212 C9.19392643,8.67089212 9.0455897,8.73258567 8.93671874,8.8421371 L5.68510583,12.1130292 L5.68510583,12.1132561 C5.58077115,12.2182712 5.51612903,12.362752 5.51612903,12.5226563 L5.51612903,14.739995 C5.11149194,14.6658266 4.70504032,14.600504 4.29677419,14.5447077 L4.29677419,12.4747984 C5.88379535,11.1096018 6.75453629,9.32910788 6.75453629,7.43225806 C6.75453629,5.45057965 5.8046371,3.59569051 4.07993952,2.20871973 C3.86741433,2.03792841 3.56484374,2.03792841 3.35231855,2.20871973 C1.62762097,3.59546371 0.677721774,5.45057965 0.677721774,7.43225806 C0.677721774,9.32888102 1.54846272,11.109375 3.13548387,12.4745716 L3.13548387,14.4111139 C2.2887853,14.3319556 1.43641632,14.291129 0.580645161,14.291129 C0.259929406,14.291129 0,14.5510584 0,14.8717742 C0,15.1924899 0.259929406,15.4524194 0.580645161,15.4524194 C5.22353834,15.4524194 9.76481855,16.6808468 13.7683216,19.0113659 C12.809123,19.6632308 11.8930192,20.3752016 11.0256805,21.1416079 C7.78200608,19.4890373 4.17792339,18.6169355 0.580645161,18.6169355 C0.260156265,18.6169355 0,18.8768649 0,19.1975806 C0,19.5182964 0.260156265,19.7782258 0.580645161,19.7782258 C3.85380546,19.7782258 7.13354336,20.5394153 10.1132056,21.9849042 C9.23044355,22.8388609 8.40529231,23.7524697 7.64387599,24.718246 C5.38525707,23.7710685 3.01141632,23.291129 0.580645161,23.291129 C0.260156265,23.291129 0,23.5510584 0,23.8717742 C0,24.1924899 0.260156265,24.4524194 0.580645161,24.4524194 C2.75806452,24.4524194 4.88694554,24.8652218 6.92056452,25.678125 C6.51932965,26.2356351 6.13805446,26.8083417 5.77946067,27.396245 L4.89465726,28.8458165 C4.72749497,29.1193548 4.81413809,29.4768145 5.08767643,29.64375 C5.18225806,29.7015877 5.28659274,29.7290323 5.38979336,29.7290323 C5.58530745,29.7290323 5.7765121,29.6299143 5.88583672,29.4507308 L6.77064014,28.0011593 C7.23198083,27.2451865 7.73051917,26.5177923 8.26194554,25.8194305 C8.28281253,25.7962953 8.30231855,25.7715726 8.31932965,25.7445816 Z M20.9853326,6.89107866 C20.9853326,4.82729336 21.9295615,2.87237903 23.6553932,1.34047382 C25.3812248,2.87237903 26.3254536,4.82729336 26.3254536,6.89107866 C26.3254536,8.70967742 25.5914819,10.444128 24.2360383,11.8787298 L24.2360383,7.43225806 C24.2360383,7.11154231 23.9761089,6.8516129 23.6553932,6.8516129 C23.3346774,6.8516129 23.074748,7.11154231 23.074748,7.43225806 L23.074748,11.8787298 C21.7190776,10.444128 20.9853326,8.70967742 20.9853326,6.89107866 Z M1.8390121,7.43225806 C1.8390121,5.9511593 2.50199094,4.54445565 3.71612903,3.42671371 C4.93026712,4.54422885 5.59324597,5.9511593 5.59324597,7.43225806 C5.59324597,8.65637599 5.13984374,9.82991433 4.29677419,10.8315272 L4.29677419,6.96774194 C4.29677419,6.64702618 4.03684479,6.38709677 3.71612903,6.38709677 C3.39564014,6.38709677 3.13548387,6.64702618 3.13548387,6.96774194 L3.13548387,10.8315272 C2.29241433,9.82991433 1.8390121,8.65637599 1.8390121,7.43225806 Z M17.8428176,11.9417842 L12.8415574,11.9417842 L10.7444305,9.83218245 L15.7456905,9.83218245 L17.8428176,11.9417842 Z M9.3483871,10.0751008 L11.2041835,11.9417842 L7.49281755,11.9417842 L9.3483871,10.0751008 Z M6.67741935,13.1030746 L12.0193548,13.1030746 L12.0193548,16.7956149 C11.750126,16.6717742 11.4793095,16.5520161 11.2064516,16.4370212 L11.2064516,14.48687 C11.2064516,14.166381 10.9465222,13.9062248 10.6258065,13.9062248 L8.07096774,13.9062248 C7.75047885,13.9062248 7.49032258,14.166381 7.49032258,14.48687 L7.49032258,15.1772934 C7.22041328,15.1069808 6.94959677,15.0402974 6.67741935,14.9781502 L6.67741935,13.1030746 Z M10.0451613,15.9788558 C9.58472779,15.8091986 9.12021166,15.6517893 8.6516129,15.5073084 L8.6516129,15.0675151 L10.0451613,15.0675151 L10.0451613,15.9788558 Z M13.1806452,17.3637853 L13.1806452,13.1030746 L18.6582158,13.1030746 L18.6582158,16.3728326 C17.6636341,16.7849547 16.6917339,17.2553679 15.7495464,17.7842994 C15.4483367,17.9532762 15.1507561,18.1288306 14.8565776,18.3089213 C14.3076865,17.9736895 13.7488155,17.6584174 13.1806452,17.3637853 L13.1806452,17.3637853 Z" id="Shape"></path>
                    </g>
                    <path d="M24,18 L30,27.2307692 L26.4,27.23 L26.4,33 L21.6,33 L21.599,27.23 L18,27.2307692 L24,18 Z" id="Combined-Shape" fill="#01985A"></path>
                </g>
            </g>
        </g>
    </g>
</svg>