<?xml version="1.0" encoding="UTF-8"?>
<svg width="44px" height="44px" viewBox="0 0 44 44" version="1.1" xmlns="http://www.w3.org/2000/svg" xmlns:xlink="http://www.w3.org/1999/xlink">
    <title>icon-1911B</title>
    <g id="PSR" stroke="none" stroke-width="1" fill="none" fill-rule="evenodd">
        <g id="icone-bandi-PSR" transform="translate(-352.000000, -1686.000000)">
            <g id="icon-1911B" transform="translate(352.000000, 1686.000000)">
                <g id="Rectangle" fill="#F7F7F7" stroke="#D8D8D8">
                    <rect x="0.5" y="0.5" width="43" height="43" rx="4"></rect>
                </g>
                <g id="strategy" transform="translate(7.000000, 5.000000)" fill="#30373D" fill-rule="nonzero">
                    <path d="M1.6173,8.9554 L4.0797,6.493 L6.542,8.9554 C6.727,9.1403 6.9694,9.2328 7.2119,9.2328 C7.4544,9.2328 7.6968,9.1403 7.8818,8.9554 C8.2518,8.5854 8.2518,7.9855 7.8818,7.6155 L5.4196,5.1532 L7.8819,2.6909 C8.2519,2.3209 8.2519,1.721 7.8819,1.351 C7.5118,0.9811 6.9121,0.9811 6.542,1.351 L4.0797,3.8133 L1.6173,1.3509 C1.2472,0.981 0.6475,0.981 0.2774,1.3509 C-0.0926,1.7209 -0.0926,2.3208 0.2774,2.6908 L2.7397,5.1531 L0.2775,7.6155 C-0.0925,7.9855 -0.0925,8.5854 0.2775,8.9554 C0.4625,9.1403 0.7049,9.2328 0.9474,9.2328 C1.1899,9.2328 1.4323,9.1403 1.6173,8.9554 Z" id="Path"></path>
                    <path d="M25.411,12.1446 C25.0409,11.7747 24.4412,11.7747 24.0711,12.1446 L21.6088,14.6069 L19.1464,12.1446 C18.7763,11.7747 18.1766,11.7747 17.8065,12.1446 C17.4365,12.5147 17.4365,13.1145 17.8065,13.4845 L20.2689,15.9468 L17.8065,18.4092 C17.4365,18.7792 17.4365,19.3791 17.8065,19.7491 C17.9915,19.934 18.2339,20.0265 18.4764,20.0265 C18.7189,20.0265 18.9613,19.934 19.1463,19.7491 L21.6087,17.2867 L24.071,19.749 C24.256,19.9339 24.4984,20.0264 24.7409,20.0264 C24.9834,20.0264 25.2258,19.9339 25.4108,19.749 C25.7808,19.3789 25.7808,18.7791 25.4108,18.4091 L22.9485,15.9468 L25.4108,13.4845 C25.781,13.1145 25.781,12.5145 25.411,12.1446 L25.411,12.1446 Z" id="Path"></path>
                    <path d="M23.4848,3.8597 L19.6641,0.5384 C19.2692,0.195 18.6708,0.2371 18.3276,0.6319 C17.9843,1.0268 18.0262,1.6251 18.4211,1.9684 L20.4473,3.7298 C14.4669,4.512 10.9259,7.6372 8.9574,10.2788 C7.1388,12.7192 6.3418,15.1203 6.0548,16.1788 C6.2439,16.1537 6.4363,16.1394 6.6321,16.1394 C7.1017,16.1394 7.5538,16.2149 7.978,16.353 C8.2942,15.3104 9.0339,13.327 10.5223,11.3501 C12.9862,8.0775 16.409,6.1502 20.7149,5.6021 L18.8269,7.774 C18.4836,8.1689 18.5255,8.7672 18.9204,9.1105 C19.0998,9.2665 19.3212,9.3429 19.5415,9.3429 C19.8063,9.3429 20.0696,9.2325 20.2569,9.017 L23.5782,5.1962 C23.9216,4.8013 23.8797,4.203 23.4848,3.8597 Z" id="Path"></path>
                    <path d="M5.6322,17.6998 C4.0886,17.6998 2.8327,18.9556 2.8327,20.4993 C2.8327,22.043 4.0885,23.2989 5.6322,23.2989 C7.1759,23.2989 8.4318,22.043 8.4318,20.4993 C8.4318,18.9556 7.1759,17.6998 5.6322,17.6998 L5.6322,17.6998 Z" id="Path"></path>
                    <path d="M28.9005,2.591 C27.3568,2.591 26.1009,3.8468 26.1009,5.3905 C26.1009,6.9342 27.3567,8.1901 28.9005,8.1901 C30.4441,8.1901 31.7,6.9343 31.7,5.3905 C31.7,3.8469 30.4442,2.591 28.9005,2.591 Z" id="Path"></path>
                </g>
                <g id="number" transform="translate(6.000000, 27.000000)">
                    <rect id="Rectangle" fill="#01985A" x="0" y="0" width="32" height="14" rx="7"></rect>
                    <text id="19.1.1" font-family="TitilliumWeb-Bold, Titillium Web" font-size="9" font-weight="bold" fill="#FFFFFF">
                        <tspan x="4.116" y="10">19.1.1</tspan>
                    </text>
                </g>
            </g>
        </g>
    </g>
</svg>