<?xml version="1.0" encoding="UTF-8"?>
<svg width="44px" height="44px" viewBox="0 0 44 44" version="1.1" xmlns="http://www.w3.org/2000/svg" xmlns:xlink="http://www.w3.org/1999/xlink">
    <title>icon-432A</title>
    <g id="PSR" stroke="none" stroke-width="1" fill="none" fill-rule="evenodd">
        <g id="icone-bandi-PSR" transform="translate(-234.000000, -510.000000)">
            <g id="icon-432A" transform="translate(234.000000, 510.000000)">
                <g id="Rectangle" fill="#F7F7F7" stroke="#D8D8D8">
                    <rect x="0.5" y="0.5" width="43" height="43" rx="4"></rect>
                </g>
                <g id="Group" transform="translate(6.000000, 3.876882)">
                    <polygon id="Fill-1" fill="#30373D" points="6.5 0.123117879 1.49305157 5.15411788 2.54863903 6.21461788 5.75347422 2.99486788 5.75347422 5.37311788 0 11.1533679 1.05558746 12.2146179 5.75347422 7.49411788 5.75347422 10.6231179 0 16.4033679 1.05558746 17.4638679 5.75347422 12.7441179 5.75347422 18.1231179 7.24727231 18.1231179 7.24727231 12.7441179 11.9451591 17.4638679 13 16.4033679 7.24727231 10.6231179 7.24727231 7.49411788 11.9451591 12.2146179 13 11.1533679 7.24727231 5.37311788 7.24727231 2.99486788 10.4521075 6.21461788 11.507695 5.15411788"></polygon>
                    <polygon id="Fill-1" fill="#30373D" points="27.5 18.1231179 22.4930516 23.1541179 23.548639 24.2146179 26.7534742 20.9948679 26.7534742 23.3731179 21 29.1533679 22.0555875 30.2146179 26.7534742 25.4941179 26.7534742 28.6231179 21 34.4033679 22.0555875 35.4638679 26.7534742 30.7441179 26.7534742 36.1231179 28.2472723 36.1231179 28.2472723 30.7441179 32.9451591 35.4638679 34 34.4033679 28.2472723 28.6231179 28.2472723 25.4941179 32.9451591 30.2146179 34 29.1533679 28.2472723 23.3731179 28.2472723 20.9948679 31.4521075 24.2146179 32.507695 23.1541179"></polygon>
                    <path d="M28.1319891,0 C29.8107832,13.5319249 26.0501853,20.7081027 16.8321831,20.8625078 L16.5263158,20.8650534 C8.60166625,20.8650534 5.43265616,25.5658702 6.84528618,35.5861333 L6.90187693,35.9741523 L4.92419215,36.2720834 C3.22798625,25.0125644 7.04635192,19.0040757 16.2046737,18.8674371 L16.5263158,18.8650534 C24.410741,18.8650534 27.6410924,13.0247986 26.199392,0.679524496 L26.147205,0.246235758 L28.1319891,0 Z" id="Path-2" fill="#01985A" fill-rule="nonzero"></path>
                </g>
            </g>
        </g>
    </g>
</svg>