<?xml version="1.0" encoding="UTF-8"?>
<svg width="44px" height="44px" viewBox="0 0 44 44" version="1.1" xmlns="http://www.w3.org/2000/svg" xmlns:xlink="http://www.w3.org/1999/xlink">
    <title>icon-421Bneg</title>
    <g id="PSR" stroke="none" stroke-width="1" fill="none" fill-rule="evenodd">
        <g id="icone-bandi-PSR" transform="translate(-401.000000, -362.000000)">
            <g id="icon-421Bneg" transform="translate(401.000000, 362.000000)">
                <rect id="Rectangle" fill="#30373D" x="0" y="0" width="44" height="44" rx="4"></rect>
                <path d="M30.6076394,6.18878371 C30.8593499,5.9370721 31.2674663,5.9370721 31.5191338,6.18878371 C31.7708442,6.44049532 31.7708442,6.84857064 31.5191338,7.10028225 L31.5191338,7.10028225 L30.1264763,8.49294615 C31.1053025,9.71639865 31.5162978,11.2471215 31.3595911,12.7288599 L31.3595911,12.7288599 L33.3421653,10.7462764 C33.5938758,10.4945648 34.0019922,10.4945648 34.2536597,10.7462764 C34.5053701,10.997988 34.5053701,11.4060633 34.2536597,11.657775 L34.2536597,11.657775 L32.2746518,13.636792 C33.7702622,13.4810299 35.2865405,13.8942185 36.5072373,14.8732641 L36.5072373,14.8732641 L37.8996799,13.480815 C38.1514333,13.2291034 38.5595497,13.2291034 38.8112172,13.480772 C39.0629276,13.7324837 39.0629276,14.140559 38.8112172,14.3922706 C38.3730227,14.8304241 36.5205576,16.6828978 36.0766913,17.1267662 C35.5911453,17.6123144 35.0255058,18.0051787 34.4089055,18.290535 C34.4833701,18.5147035 34.4320656,18.7714425 34.2536597,18.9498063 L34.2536597,18.9498063 L33.3421653,19.8613048 C32.8566194,20.346853 32.2909799,20.7397173 31.6743795,21.0250736 C31.7488442,21.2492421 31.6975397,21.5059811 31.5191338,21.6843449 L31.5191338,21.6843449 L30.6076394,22.5958434 C30.1221365,23.0813916 29.556497,23.4742559 28.9398966,23.7596121 C29.0143183,23.9837807 28.9630137,24.2405197 28.7846508,24.4188834 L28.7846508,24.4188834 L27.8731565,25.330382 C25.7679926,27.4355556 22.4296281,27.5839271 20.1508278,25.7606722 L20.1508278,25.7606722 L18.1002771,27.8112324 C17.8485667,28.062944 17.4404503,28.062901 17.1887828,27.8112324 C16.9370724,27.5595208 16.9370724,27.1514455 17.1887828,26.8997339 L17.1887828,26.8997339 L19.2393765,24.8492596 C18.3183321,23.6980683 17.8998935,22.2746337 17.984161,20.876147 C18.5096723,20.5952148 19.0043943,20.2661722 19.4638405,19.895186 C19.0462814,21.246623 19.2782917,22.7559925 20.1578317,23.9306712 L20.1578317,23.9306712 L20.581202,23.507299 C22.0760449,22.012369 22.3005601,19.720762 21.254678,17.9865477 C22.0988069,16.7980804 22.675053,15.4065989 22.8975753,13.8999213 L23.3156849,13.4809009 C23.4940479,13.3025372 23.7507856,13.2512324 23.9749102,13.3256544 C24.2602651,12.7090512 24.6531276,12.1434091 25.1386736,11.6578609 L25.1386736,11.6578609 L26.0501679,10.7463624 C26.2284878,10.5679556 26.4852686,10.5166508 26.7093931,10.5911158 C26.9947481,9.97451263 27.3876106,9.40887048 27.8731565,8.9233223 C28.1976129,8.5988644 30.3753508,6.4210734 30.6076394,6.18878371 Z M27.3849465,23.9956401 C25.6191922,22.6734022 23.0970174,22.814512 21.4926533,24.4189264 L21.4926533,24.4189264 L21.069369,24.8422127 C22.8350804,26.1644077 25.3572122,26.0233409 26.9616622,24.4189264 L26.9616622,24.4189264 Z M30.1197732,21.2607578 C28.370261,19.9467269 25.8491175,20.0623561 24.2270933,21.6843878 L24.2270933,21.6843878 L24.0675506,21.8439312 C25.3920598,21.7038527 26.7557134,22.0173106 27.904051,22.7845627 C28.5765536,22.5656793 29.1915211,22.1890142 29.6961451,21.6843878 L29.6961451,21.6843878 Z M23.7389693,14.8805688 L23.315642,15.3038551 C22.8110179,15.8084814 22.4343546,16.4234518 22.2154722,17.0959575 C22.9827207,18.2443005 23.2961772,19.6079604 23.1560993,20.9324756 L23.1560993,20.9324756 L23.3157709,20.7728033 C24.920049,19.1683889 25.0611151,16.6463743 23.7389693,14.8805688 L23.7389693,14.8805688 Z M32.8543421,18.5262192 C31.1048299,17.2121883 28.5836864,17.3278175 26.9616622,18.9498492 L26.9616622,18.9498492 L26.805643,19.1058692 C28.1600583,18.9648024 29.5102197,19.2913658 30.6402527,20.0495514 C31.3121107,19.8305391 31.9264767,19.4540889 32.430671,18.9498922 L32.430671,18.9498922 Z M26.4734522,12.1460302 L26.0501249,12.5693165 C25.5455009,13.0739428 25.1688805,13.6889562 24.9499981,14.361376 C25.7172466,15.5097619 26.0307031,16.8734218 25.8906252,18.1978941 L25.8906252,18.1978941 L26.0502968,18.0382218 C27.6545319,16.4338503 27.7955981,13.9117927 26.4734522,12.1460302 L26.4734522,12.1460302 Z M35.588868,15.7916806 C33.8393558,14.4776497 31.3182552,14.5932789 29.6961881,16.2153106 L29.6961881,16.2153106 L29.5401689,16.3713306 C30.8945412,16.2302638 32.2447026,16.5567842 33.3747786,17.3150128 C34.0465937,17.0960435 34.6610026,16.7195503 35.1651969,16.2153536 L35.1651969,16.2153536 Z M29.2079351,9.41149158 L28.7846508,9.83477788 C28.2800268,10.3394472 27.9033635,10.9544176 27.6844811,11.6268803 C28.4517296,12.7752233 28.765186,14.1388832 28.6251082,15.4633555 L28.6251082,15.4633555 L28.7848227,15.3036402 C30.3890149,13.6992258 30.530081,11.1772541 29.2079351,9.41149158 L29.2079351,9.41149158 Z" id="Combined-Shape" fill="#FFFFFF"></path>
                <g id="settings" transform="translate(6.000000, 5.000000)" fill="#01985A" fill-rule="nonzero">
                    <path d="M7.67679,4.48707 C5.91156,4.48707 4.47546,5.9232 4.47546,7.6884 C4.47546,9.4536 5.91159,10.88973 7.67679,10.88973 C9.44199,10.88973 10.87812,9.4536 10.87812,7.6884 C10.87812,5.9232 9.44202,4.48707 7.67679,4.48707 Z M7.67679,9.60921 C6.61779,9.60921 5.75598,8.7474 5.75598,7.6884 C5.75598,6.6294 6.61779,5.76759 7.67679,5.76759 C8.73642,5.76759 9.5976,6.6294 9.5976,7.6884 C9.5976,8.7474 8.73579,9.60921 7.67679,9.60921 Z" id="Shape"></path>
                    <path d="M14.81064,5.7753 L12.99036,5.48205 L14.07882,4.03506 C14.26962,3.78087 14.24592,3.42618 14.02311,3.20016 L12.20412,1.35555 C11.97873,1.12632 11.6202,1.10007 11.36472,1.29216 L9.87738,2.33709 L9.58926,0.54435 C9.53931,0.23382 9.27168,0.00588 8.95731,0.00588 L6.39624,0.00588 C6.0774,0.00588 5.80719,0.24021 5.76237,0.55524 L5.46273,2.36976 L3.9831,1.28766 C3.72762,1.1007 3.37614,1.12758 3.15267,1.35105 L1.34073,3.1566 C1.11408,3.38196 1.08909,3.73989 1.28118,3.99534 L2.3421,5.48013 L0.54936,5.73624 C0.23433,5.78106 0,6.05127 0,6.37011 L0,8.93118 C0,9.25002 0.23433,9.52023 0.54936,9.56376 L2.36964,9.85701 L1.28118,11.304 C1.08909,11.55948 1.11408,11.91609 1.3401,12.14211 L3.15204,13.95405 C3.37806,14.18133 3.73533,14.2044 3.99015,14.01294 L5.47428,12.95202 L5.73039,14.74476 C5.77521,15.05976 6.04539,15.29412 6.36426,15.29412 L8.92533,15.29412 C9.24417,15.29412 9.51438,15.06042 9.5592,14.74668 L9.85245,12.9264 L11.29944,14.01486 C11.55555,14.20695 11.91216,14.18262 12.13755,13.95597 L13.94949,12.14403 C14.17551,11.91801 14.20047,11.56074 14.00838,11.30592 L12.93081,9.82371 L14.79399,9.60603 C15.1167,9.56889 15.36,9.2955 15.36,8.97024 L15.36,6.40917 C15.36,6.0903 15.12567,5.82012 14.81064,5.7753 Z M14.08011,8.39976 L12.77334,8.55213 C12.29763,8.61423 11.90001,8.9331 11.75211,9.34413 C11.56644,9.76413 11.62086,10.25523 11.89746,10.62852 L12.65169,11.63055 L11.62599,12.65625 L10.61949,11.89881 C10.24878,11.62479 9.75768,11.57034 9.37929,11.74131 C8.92854,11.90457 8.6097,12.30219 8.54757,12.77085 L8.37087,14.0136 L6.92001,14.0136 L6.74265,12.77853 C6.68055,12.30282 6.36168,11.9052 5.95128,11.75796 C5.53191,11.57229 5.0421,11.62542 4.66626,11.90265 L3.66423,12.65688 L2.63853,11.63118 L3.39597,10.62468 C3.66936,10.25526 3.72378,9.76479 3.55347,9.38448 C3.38955,8.93373 2.99259,8.61423 2.52327,8.55276 L1.28052,8.37606 L1.28052,6.9252 L2.51622,6.74784 C2.99193,6.68574 3.38955,6.36687 3.53682,5.95647 C3.72315,5.53647 3.6687,5.04666 3.39276,4.67145 L2.63916,3.67008 L3.66807,2.64438 L4.70337,3.40119 C5.07345,3.67521 5.56326,3.72774 5.94357,3.55869 C6.39495,3.39477 6.71316,2.99589 6.774,2.52915 L6.95136,1.28574 L8.41182,1.28574 L8.6103,2.52018 C8.67177,2.99655 8.98998,3.39477 9.4023,3.54333 C9.82167,3.72774 10.31211,3.67521 10.68474,3.39927 L11.68485,2.65143 L12.72528,3.7053 L11.96529,4.71501 C11.6919,5.08446 11.63748,5.5749 11.80779,5.95584 C11.97171,6.40722 12.37059,6.72543 12.83733,6.78627 L14.08011,6.96363 L14.08011,8.39976 L14.08011,8.39976 Z" id="Shape"></path>
                </g>
                <g id="number" transform="translate(6.000000, 27.000000)">
                    <rect id="Rectangle" fill="#01985A" x="0" y="0" width="32" height="14" rx="7"></rect>
                    <text id="4.2.1" font-family="TitilliumWeb-Bold, Titillium Web" font-size="9" font-weight="bold" fill="#FFFFFF">
                        <tspan x="6.636" y="10">4.2.1</tspan>
                    </text>
                </g>
            </g>
        </g>
    </g>
</svg>