<?xml version="1.0" encoding="UTF-8"?>
<svg width="44px" height="44px" viewBox="0 0 44 44" version="1.1" xmlns="http://www.w3.org/2000/svg" xmlns:xlink="http://www.w3.org/1999/xlink">
    <title>icon-121Bneg</title>
    <defs>
        <polygon id="path-1" points="0.116910545 0.159657333 27.2802327 0.159657333 27.2802327 19.905444 0.116910545 19.905444"></polygon>
    </defs>
    <g id="PSR" stroke="none" stroke-width="1" fill="none" fill-rule="evenodd">
        <g id="icone-bandi-PSR" transform="translate(-401.000000, -214.000000)">
            <g id="icon-121Bneg" transform="translate(401.000000, 214.000000)">
                <rect id="Rectangle" fill="#30373D" x="0" y="0" width="44" height="44" rx="4"></rect>
                <g id="Group-10" transform="translate(7.000000, 6.000000)">
                    <g id="Group-3" transform="translate(3.141818, 0.013693)">
                        <mask id="mask-2" fill="white">
                            <use xlink:href="#path-1"></use>
                        </mask>
                        <g id="Clip-2"></g>
                        <path d="M0.677725091,3.841604 C0.987543273,3.841604 1.23871418,3.59217733 1.23871418,3.28451067 L1.23871418,1.27367067 L26.1585687,1.27367067 L26.1585687,18.7914307 L11.0572451,18.7914307 C10.7474269,18.7914307 10.4964305,19.0408573 10.4964305,19.3483507 C10.4964305,19.655844 10.7474269,19.905444 11.0572451,19.905444 L26.7193833,19.905444 C27.0292015,19.905444 27.2803724,19.655844 27.2803724,19.3483507 L27.2803724,0.716577333 C27.2803724,0.408910667 27.0292015,0.159657333 26.7193833,0.159657333 L0.677725091,0.159657333 C0.368081455,0.159657333 0.116910545,0.408910667 0.116910545,0.716577333 L0.116910545,3.28451067 C0.116910545,3.59217733 0.368081455,3.841604 0.677725091,3.841604" id="Fill-1" fill="#FFFFFF" mask="url(#mask-2)"></path>
                    </g>
                    <path d="M13.0264498,16.614208 L13.0212832,16.6153173 C12.942249,16.6323733 12.8609807,16.6469333 12.7774781,16.657472 C12.4260134,16.7025387 12.1781589,17.022304 12.2235407,17.3707733 C12.269481,17.7197973 12.5907843,17.9659307 12.942249,17.9203093 C13.0617778,17.9051947 13.1801894,17.884672 13.2967858,17.8594347 C13.4009545,17.837248 13.5146185,17.8115947 13.6341472,17.7759573 L13.636521,17.7754027 C13.8336876,17.7156373 14.042025,17.648384 14.2541327,17.5607467 C14.3524367,17.5203947 14.4472498,17.479488 14.5395494,17.437888 L14.548905,17.4338667 C14.649164,17.387136 14.7427203,17.339712 14.830412,17.2946453 C15.0277181,17.1948053 15.2089661,17.0872 15.3808585,16.980288 C15.4875407,16.9152533 15.5781647,16.850912 15.6588745,16.7937813 L15.6623654,16.7912853 C15.7446112,16.7317973 15.8324425,16.6669013 15.9237647,16.592576 L15.9290709,16.588416 C16.0872789,16.455712 16.24814,16.3124693 16.4035552,16.1506453 C16.4046723,16.1493973 16.405929,16.148288 16.4070461,16.14704 C16.4076047,16.1464853 16.4076047,16.145792 16.4081632,16.145792 C16.6466621,15.9004907 16.8603058,15.6542187 17.0655712,15.4262507 L18.8272236,15.0181547 C19.8109618,14.8334507 20.7599305,14.4662613 21.6207887,13.924768 C22.4852774,13.3811947 23.2605385,12.6608213 23.8840149,11.7779307 C24.374697,11.085152 24.7388687,10.3391253 24.978764,9.56980267 C25.219916,8.80103467 25.3380483,8.00827733 25.3380483,7.220096 C25.3380483,6.20158933 25.14158,5.19070933 24.7581385,4.244864 L24.7581385,4.24430933 C24.6663974,4.01842133 24.5120992,3.82914133 24.3192614,3.69518933 C24.1275407,3.561376 23.8960236,3.480672 23.651241,3.471936 L23.6499843,3.471936 C23.556009,3.46846933 23.460777,3.46666667 23.365545,3.46666667 C22.1067232,3.46666667 20.858793,3.76077867 19.7289952,4.33083733 C18.5991974,4.90020267 17.5887887,5.747456 16.811433,6.846944 C16.3370883,7.517536 15.9613269,8.23957333 15.7041167,8.991008 C15.4462083,9.74161067 15.3068512,10.52272 15.3068512,11.307296 C15.3068512,11.7791787 15.3573996,12.2521707 15.4621269,12.7192 L15.4703654,12.7509547 L16.0125734,14.6854933 C15.8306272,14.8889173 15.6570592,15.085408 15.482793,15.264288 L15.4780454,15.268864 C15.3674534,15.3847893 15.2424789,15.4973867 15.106473,15.6110933 C15.0495014,15.6576853 14.9834534,15.7067733 14.9100047,15.76016 C14.8339029,15.813824 14.7679945,15.8601387 14.7092076,15.8956373 L14.7039014,15.898688 C14.5472294,15.9961707 14.3971203,16.08464 14.2470112,16.1606293 L14.2446374,16.1616 C14.1616934,16.204448 14.0833574,16.243552 14.0085123,16.2786347 C13.9255683,16.3153813 13.8437414,16.3511573 13.7630316,16.384576 L13.7600992,16.3855467 C13.612364,16.446976 13.4450796,16.501888 13.2643901,16.5562453 C13.1973647,16.5762133 13.1166549,16.5953493 13.0264498,16.614208 M16.9181152,9.40132267 C17.1331552,8.77233067 17.4526432,8.15678933 17.8613589,7.579104 C18.5159741,6.652256 19.3624498,5.945056 20.3101618,5.46610133 C21.2578738,4.98784 22.3080789,4.74059733 23.365545,4.74059733 C23.43662,4.74059733 23.5078345,4.74170667 23.5777923,4.744064 C23.892393,5.531552 24.0550694,6.37339733 24.0550694,7.220096 C24.0550694,7.88181333 23.9562069,8.54727467 23.7537341,9.19207467 C23.5523785,9.83701333 23.247273,10.461984 22.8349269,11.046048 L22.8336701,11.046048 C22.3080789,11.7897173 21.660585,12.3925013 20.9334985,12.8491307 C20.2076687,13.30576 19.4047596,13.6155413 18.5715494,13.7698773 L18.5437618,13.7757013 L18.3882069,13.8118933 C18.4870694,13.673504 18.5835581,13.5330347 18.677673,13.3917333 L18.6787901,13.3886827 C18.894668,13.05824 19.1032847,12.7192 19.2950054,12.3667093 L19.2973792,12.363936 C19.4842127,12.017824 19.6675552,11.6535467 19.8183625,11.255296 C19.9423596,10.9261013 19.7760527,10.558912 19.4444163,10.434944 C19.1129196,10.3111147 18.7427436,10.477792 18.6184672,10.8069867 C18.497961,11.1243947 18.3424061,11.437088 18.1675814,11.7604587 C17.9963872,12.0745387 17.8059232,12.3841813 17.6045676,12.6935467 C17.4188512,12.974208 17.2222432,13.2477973 17.01614,13.5144533 L16.7114534,12.4286933 C16.6289283,12.0597013 16.5889923,11.685024 16.5889923,11.307296 C16.5889923,10.672896 16.7019581,10.0304533 16.9181152,9.40132267" id="Fill-7" fill="#FFFFFF" transform="translate(18.778115, 10.696210) scale(-1, 1) translate(-18.778115, -10.696210) "></path>
                    <path d="M3.81963055,6.29076933 C5.25037964,6.29076933 6.41442327,7.44672933 6.41442327,8.86754267 C6.41442327,10.288356 5.25037964,11.444316 3.81963055,11.444316 C2.38888145,11.444316 1.22483782,10.288356 1.22483782,8.86754267 C1.22483782,7.44672933 2.38888145,6.29076933 3.81963055,6.29076933 M3.81963055,12.5583293 C5.86896873,12.5583293 7.53622691,10.9026493 7.53622691,8.86754267 C7.53622691,6.832436 5.86896873,5.176756 3.81963055,5.176756 C1.77029236,5.176756 0.103034182,6.832436 0.103034182,8.86754267 C0.103034182,10.9026493 1.77029236,12.5583293 3.81963055,12.5583293" id="Fill-4" fill="#FFFFFF"></path>
                    <path d="M16.1024116,12.79668 C15.8259316,12.5472533 15.5498007,12.2966133 15.2684335,12.0516933 L12.5446516,15.0585067 C12.2226153,14.8317867 11.8295389,14.69832 11.405568,14.69832 C11.1954153,14.69832 10.9884044,14.73108 10.7901207,14.79556 C10.7888989,14.79608 10.7875025,14.7966 10.7862807,14.7969467 L7.56486982,15.8556667 C7.41825164,15.13148 7.05833891,14.46952 6.51567709,13.9436267 C5.79829527,13.24804 4.84073891,12.86532 3.819648,12.86532 C1.713408,12.86532 6.98181818e-05,14.56676 6.98181818e-05,16.6582 L6.98181818e-05,24.76344 C6.98181818e-05,25.0709333 0.251240727,25.32036 0.560884364,25.32036 C0.870702545,25.32036 1.12187345,25.0709333 1.12187345,24.76344 L1.12187345,16.6582 C1.12187345,15.1810533 2.33199709,13.97916 3.819648,13.97916 C5.19471709,13.97916 6.29889164,14.9314533 6.488448,16.2096133 L6.03288436,16.3595467 C5.73877527,16.45592 5.57924073,16.7712133 5.67663709,17.06328 C5.75448436,17.29728 5.97371345,17.4453067 6.20900073,17.4453067 C6.26729891,17.4453067 6.32681891,17.4362933 6.38529164,17.41688 L7.24370618,17.1346933 C7.24719709,17.1336533 7.250688,17.1326133 7.25417891,17.1314 L11.1411316,15.85376 C11.1416553,15.85376 11.1421789,15.8534133 11.142528,15.8534133 C11.2268335,15.8262 11.315328,15.8123333 11.405568,15.8123333 C11.8752698,15.8123333 12.2573498,16.19176 12.2573498,16.6582 C12.2573498,16.9989733 12.0531316,17.30508 11.7368553,17.4378533 C11.7317935,17.4401067 11.7269062,17.4425333 11.7218444,17.4446133 L6.64763345,19.1013333 C6.56838982,19.12508 6.48565527,19.13704 6.40169891,19.13704 C6.19172073,19.13704 5.99012073,19.0606 5.83390255,18.9215867 L3.75698618,17.0338133 C3.52833164,16.8263333 3.17365527,16.8419333 2.96437527,17.0686533 C2.75526982,17.29572 2.77115345,17.6479333 2.99963345,17.85576 L5.07846982,19.7452667 C5.07864436,19.74544 5.07899345,19.7456133 5.07934255,19.74596 C5.08021527,19.7466533 5.08091345,19.74752 5.08178618,19.7482133 C5.08649891,19.7523733 5.09138618,19.7561867 5.09609891,19.76052 C5.09714618,19.76156 5.098368,19.7626 5.09941527,19.7632933 C5.45967709,20.07772 5.92117527,20.2510533 6.40169891,20.2510533 C6.59771345,20.2510533 6.79163345,20.2224533 6.97787345,20.16612 C6.98049164,20.1652533 6.98310982,20.1643867 6.985728,20.1633467 C6.98694982,20.163 6.98817164,20.1628267 6.98939345,20.1623067 L12.0726807,18.5028133 C12.0934516,18.4960533 12.1135244,18.4879067 12.1330735,18.4790667 C12.146688,18.47456 12.1604771,18.4697067 12.1739171,18.4638133 C12.9061353,18.1564933 13.3791535,17.44756 13.3791535,16.6582 C13.3791535,16.4086 13.3318516,16.16992 13.2458007,15.9501333 L16.1024116,12.79668 Z" id="Fill-6" fill="#FFFFFF"></path>
                    <path d="M7.63917382,22.777404 L7.63917382,21.546564 C7.63917382,21.2390707 7.38800291,20.989644 7.07835927,20.989644 C6.76854109,20.989644 6.51737018,21.2390707 6.51737018,21.546564 L6.51737018,22.777404 C6.51737018,23.0848973 6.76854109,23.334324 7.07835927,23.334324 C7.38800291,23.334324 7.63917382,23.0848973 7.63917382,22.777404" id="Fill-8" fill="#FFFFFF"></path>
                </g>
                <g id="number" transform="translate(6.000000, 27.000000)">
                    <rect id="Rectangle" fill="#01985A" x="0" y="0" width="32" height="14" rx="7"></rect>
                    <text id="1.2.1" font-family="TitilliumWeb-Bold, Titillium Web" font-size="9" font-weight="bold" fill="#FFFFFF">
                        <tspan x="6.636" y="10">1.2.1</tspan>
                    </text>
                </g>
            </g>
        </g>
    </g>
</svg>