<?xml version="1.0" encoding="UTF-8"?>
<svg width="44px" height="44px" viewBox="0 0 44 44" version="1.1" xmlns="http://www.w3.org/2000/svg" xmlns:xlink="http://www.w3.org/1999/xlink">
    <title>icon-111Bneg</title>
    <g id="PSR" stroke="none" stroke-width="1" fill="none" fill-rule="evenodd">
        <g id="icone-bandi-PSR" transform="translate(-401.000000, -143.000000)">
            <g id="icon-111Bneg" transform="translate(401.000000, 143.000000)">
                <rect id="Rectangle" fill="#30373D" x="0" y="0" width="44" height="44" rx="4"></rect>
                <g id="book" transform="translate(7.000000, 5.000000)" fill="#FFFFFF">
                    <path d="M29.3073103,1.82922667 C29.3053552,1.82922667 29.3034,1.82922667 29.3015172,1.82922667 L29.3015172,1.82922667 L27.3376552,1.82922667 L27.3376552,1.14869333 C27.3482276,0.87934 27.1761724,0.637266667 26.9205517,0.562026667 C25.5571448,0.2002 24.1531862,0.0187733333 22.7437241,0.0222430836 C20.4264828,0.0222430836 17.2692414,0.550293333 14.9346207,2.95562667 C12.6173793,0.526826667 9.43696552,0.0222430836 7.12551724,0.0222430836 C5.71605517,0.0187733333 4.31209655,0.2002 2.94868966,0.562026667 C2.69306897,0.637266667 2.52101379,0.87934 2.53158621,1.14869333 L2.53158621,1.82336 L0.579310345,1.82336 C0.259386207,1.82336 0,2.08604 0,2.41002667 L0,21.14816 C0,21.4721467 0.259386207,21.7348267 0.579310345,21.7348267 C0.678806897,21.7345333 0.776565517,21.70828 0.863172414,21.65856 C0.921103448,21.6292267 6.7142069,18.42016 14.8013793,20.4852267 L14.8882759,20.4852267 L14.9404138,20.4852267 C14.9866138,20.4908733 15.0332483,20.4908733 15.0794483,20.4852267 C23.1897931,18.40256 28.9828966,21.60576 29.0176552,21.65856 C29.1968793,21.7633533 29.4177414,21.7633533 29.5969655,21.65856 C29.7751034,21.5544267 29.8853897,21.3623667 29.8866207,21.1540267 L29.8866207,2.41589333 C29.8866207,2.09190667 29.6273069,1.82922667 29.3073103,1.82922667 Z M1.15862069,20.21536 L1.15862069,3.00256 L2.54317241,3.00256 L2.54317241,17.71616 C2.53955172,18.0401467 2.79596897,18.30576 3.1158931,18.3094267 C3.14717586,18.3097933 3.17845862,18.3075933 3.20937931,18.3028267 C4.40782759,18.1175133 5.61778966,18.0194667 6.83006897,18.0094933 C8.50934483,17.9800133 10.1815966,18.2358 11.7773793,18.7662933 C8.1737069,18.3249733 4.51840345,18.8237867 1.15862069,20.21536 Z M6.83006897,16.8420267 C5.77637586,16.8444467 4.72391379,16.9130133 3.67862069,17.04736 L3.67862069,1.61216 C4.80653793,1.35769333 5.95835172,1.22782 7.11393103,1.22496 C9.28055172,1.22496 12.2697931,1.72949333 14.3437241,4.09962667 L14.3611034,18.7134933 C13.1561379,17.9156267 10.8041379,16.8420267 6.83006897,16.8420267 Z M15.5197241,4.09962667 C17.5936552,1.75296 20.5828966,1.22496 22.7495172,1.22496 C23.9050241,1.22840667 25.0568379,1.35820667 26.1848276,1.61216 L26.1848276,17.04736 C25.1454,16.9117667 24.098731,16.84122 23.0507586,16.83616 C19.0998621,16.83616 16.742069,17.90976 15.5197241,18.7076267 L15.5197241,4.09962667 L15.5197241,4.09962667 Z M28.7222069,20.21536 C25.3552552,18.8199733 21.6915517,18.3210867 18.0802759,18.7662933 C19.6835897,18.2338933 21.3638069,17.9780333 23.0507586,18.0094933 C24.2706414,18.0163867 25.4884241,18.1124533 26.6946207,18.29696 C27.0109241,18.34558 27.3063,18.1252867 27.3543103,17.8049667 C27.3590172,17.7736533 27.3611897,17.7419733 27.3608276,17.7102933 L27.3608276,3.00256 L28.7453793,3.00256 L28.7222069,20.21536 Z" id="Shape" fill-rule="nonzero"></path>
                    <path d="M16.6776706,14.9115117 L16.6733388,14.9124324 C16.6070747,14.9265877 16.5389375,14.9386714 16.468927,14.9474177 C16.1742508,14.9848198 15.9664438,15.250202 16.004493,15.5394064 C16.0430105,15.8290712 16.3123986,16.0333441 16.6070747,15.9954817 C16.7072904,15.9829376 16.8065695,15.9659053 16.9043265,15.9449601 C16.991664,15.9265468 17.0869625,15.9052564 17.1871782,15.87568 L17.1891685,15.8752196 C17.3544775,15.8256187 17.5291524,15.7698033 17.7069884,15.6970706 C17.7894087,15.6635814 17.8689022,15.6296318 17.9462884,15.5951068 L17.9541323,15.5917694 C18.0381917,15.5529863 18.1166316,15.5136278 18.1901543,15.4762257 C18.3555803,15.3933657 18.5075429,15.304061 18.6516614,15.2153318 C18.7411062,15.1613577 18.8170875,15.107959 18.8847565,15.0605447 L18.8876833,15.0584732 C18.9566401,15.0091024 19.0302799,14.9552434 19.1068465,14.8935587 L19.1112953,14.8901062 C19.2439406,14.7799715 19.3788103,14.6610904 19.509114,14.5267881 C19.5100506,14.5257524 19.5111043,14.5248317 19.5120409,14.523796 C19.5125092,14.5233356 19.5125092,14.5227602 19.5129775,14.5227602 C19.7129405,14.3191778 19.8920643,14.1147898 20.0641636,13.9255928 L21.5411737,13.5869025 C22.3659626,13.4336115 23.1616,13.1288708 23.8833634,12.6794704 C24.6081708,12.2283437 25.2581676,11.6304857 25.7809047,10.8977501 C26.192304,10.3227937 26.4976339,9.70364538 26.6987677,9.06516302 C26.9009551,8.42714098 27,7.76920953 27,7.11507583 C27,6.2697887 26.8352764,5.43083116 26.5137902,4.6458477 L26.5137902,4.64538737 C26.4368723,4.45791661 26.3075051,4.30082785 26.1458255,4.18965734 C25.9850824,4.07860192 25.7909731,4.01162342 25.5857417,4.00437317 L25.584688,4.00437317 C25.505897,4.00149608 25.4260523,4 25.3462076,4 C24.2907822,4 23.2444886,4.24409176 22.29724,4.71719937 C21.3499913,5.18973156 20.5028412,5.89289077 19.8510882,6.80538656 C19.4533866,7.36192959 19.1383395,7.96116854 18.9226885,8.58480516 C18.7064522,9.20775127 18.589612,9.85601573 18.589612,10.5071573 C18.589612,10.8987859 18.6319929,11.2913351 18.7197987,11.6789358 L18.7267061,11.7052899 L19.1813058,13.3108176 C19.0287579,13.4796448 18.8832345,13.6427179 18.7371257,13.7911754 L18.7331452,13.7949732 C18.6404223,13.8911829 18.5356407,13.9846305 18.4216103,14.0789989 C18.3738439,14.1176669 18.3184678,14.1584064 18.2568866,14.2027135 C18.1930811,14.2472507 18.137822,14.2856885 18.0885337,14.3151499 L18.0840849,14.3176817 C17.9527275,14.3985853 17.8268725,14.4720085 17.7010176,14.5350741 L17.6990273,14.5358797 C17.6294851,14.5714405 17.5638064,14.603894 17.5010546,14.6330101 C17.4315124,14.6635071 17.3629068,14.6931986 17.2952378,14.7209337 L17.2927793,14.7217393 C17.1689146,14.7727212 17.0286595,14.8182942 16.8771653,14.8634069 C16.8209696,14.8799789 16.7533006,14.8958604 16.6776706,14.9115117 M19.940533,8.92533676 C20.1208276,8.40331873 20.3886937,7.89246379 20.7313704,7.4130266 C21.280215,6.64380956 21.9899198,6.05688453 22.7845034,5.65938667 C23.5790871,5.26246423 24.4596034,5.05727064 25.3462076,5.05727064 C25.4057984,5.05727064 25.4655063,5.05819131 25.5241606,5.06014772 C25.7879291,5.71370601 25.9243208,6.41237696 25.9243208,7.11507583 C25.9243208,7.66425353 25.8414321,8.21653847 25.6716743,8.751676 C25.5028531,9.28692861 25.2470456,9.80560922 24.901325,10.2903402 L24.9002713,10.2903402 C24.4596034,10.9075322 23.9167296,11.4077995 23.3071234,11.7867689 C22.6985709,12.1657383 22.0253933,12.4228345 21.3268106,12.5509223 L21.3035128,12.5557558 L21.1730919,12.5857925 C21.2559806,12.4709394 21.336879,12.3543599 21.4157871,12.23709 L21.4167237,12.2345582 C21.5977206,11.9603146 21.7726297,11.6789358 21.9333728,11.386394 L21.9353631,11.3840923 C22.0920086,11.0968443 22.2457272,10.7945204 22.3721675,10.464001 C22.4761296,10.1907932 22.336694,9.88605248 22.0586424,9.78316797 C21.7807079,9.68039855 21.4703437,9.81872872 21.3661476,10.0919366 C21.2651124,10.3553623 21.1346915,10.6148753 20.9881144,10.8832496 C20.8445813,11.1439134 20.6848918,11.4008945 20.5160706,11.6576454 C20.3603617,11.8905741 20.195521,12.1176335 20.0227192,12.3389388 L19.767263,11.4378362 C19.698072,11.1315995 19.6645888,10.8206443 19.6645888,10.5071573 C19.6645888,9.98065098 19.7593019,9.44746987 19.940533,8.92533676" id="Fill-7" transform="translate(21.500000, 10.000000) scale(-1, 1) translate(-21.500000, -10.000000) "></path>
                </g>
                <g id="number" transform="translate(6.000000, 27.000000)">
                    <rect id="Rectangle" fill="#01985A" x="0" y="0" width="32" height="14" rx="7"></rect>
                    <text id="1.1.1" font-family="TitilliumWeb-Bold, Titillium Web" font-size="9" font-weight="bold" fill="#FFFFFF">
                        <tspan x="6.636" y="10">1.1.1</tspan>
                    </text>
                </g>
            </g>
        </g>
    </g>
</svg>