<?xml version="1.0" encoding="UTF-8"?>
<svg width="44px" height="44px" viewBox="0 0 44 44" version="1.1" xmlns="http://www.w3.org/2000/svg" xmlns:xlink="http://www.w3.org/1999/xlink">
    <title>icon-legge4A</title>
    <g id="PSR" stroke="none" stroke-width="1" fill="none" fill-rule="evenodd">
        <g id="icone-bandi-PSR" transform="translate(-234.000000, -1974.000000)">
            <g id="icon-legge4A" transform="translate(234.000000, 1974.000000)">
                <g id="Rectangle" fill="#F7F7F7" stroke="#D8D8D8">
                    <rect x="0.5" y="0.5" width="43" height="43" rx="4"></rect>
                </g>
                <g id="Group-17" transform="translate(5.000000, 6.000000)" stroke="#30373D" stroke-linecap="round" stroke-linejoin="round" stroke-width="1.5">
                    <polyline id="Stroke-1" points="0 24.0428571 2.18181818 21.8571429 11.6363636 31.3285714 9.45454545 33.5142857"></polyline>
                    <path d="M12.3636364,22.5857143 L21.1476364,22.5857143 C21.7003636,22.5857143 22.2370909,22.4050286 22.6785455,22.0713429 L28.3636364,17.4857143 C30.2123636,15.9069 32,17.6372571 32,18.9428571 C32,19.8841714 31.2123636,20.5362429 30.5454545,21.1285714 L24,26.2285714 C23.5730909,26.4872143 23.2727273,26.9571429 21.8181818,26.9571429 L13.0909091,26.9571429 C12.5614545,26.9571429 12.0101818,27.3097714 11.6363636,27.6857143 L9.81818182,29.5071429" id="Stroke-3"></path>
                    <path d="M13.0909091,22.5857143 L20.056,22.5857143 C20.9381818,22.5857143 21.6967273,22.0575 22.0385455,21.2990571 C22.2945455,20.7293143 22.2945455,20.0714143 22.0385455,19.5009429 C21.6974545,18.7425 20.9374545,18.2142857 20.056,18.2142857 L10.1818182,18.2142857 C9.09163636,18.2142857 8.04218182,18.8976857 7.27272727,19.6714286 L3.63636364,23.3142857" id="Stroke-5"></path>
                    <path d="M11.0227636,15.65292 L18.2293091,11.9976771 C18.6554909,11.7842057 19.1587636,11.7929486 19.5769455,12.0224486 L26.1587636,15.65292" id="Stroke-7"></path>
                    <path d="M14.7851636,3.53400857 C17.4848,5.38239429 18.9088,7.76846571 18.9088,10.4918657 L18.9088,11.6568514" id="Stroke-9"></path>
                    <path d="M17.1810909,2.86590857 C17.0174545,1.58726571 16.1454545,-0.000291428571 13.0909091,-0.000291428571 C11.3025455,-0.000291428571 9.6,1.16542286 9.6,1.16542286 C10.1090909,2.84186571 11.9818182,6.41113714 14.2545455,6.41113714 C15.136,6.41113714 16.1403636,6.13719429 16.7294545,5.18786571" id="Stroke-11"></path>
                    <path d="M24.0909091,2.87443286 C20.7061818,4.79859 18.9090909,7.43310429 18.9090909,10.4916471 L18.9090909,11.6573614" id="Stroke-13"></path>
                    <path d="M20.9083636,1.89326571 C21.3621818,0.902408571 22.4247273,-0.000291428571 24.7272727,-0.000291428571 C26.5149091,-0.000291428571 28.2181818,1.16542286 28.2181818,1.16542286 C27.7090909,2.84186571 25.8363636,6.41113714 23.5636364,6.41113714 C22.6814545,6.41113714 21.6778182,6.13719429 21.0887273,5.18713714" id="Stroke-15"></path>
                </g>
            </g>
        </g>
    </g>
</svg>