<?xml version="1.0" encoding="UTF-8"?>
<svg width="44px" height="44px" viewBox="0 0 44 44" version="1.1" xmlns="http://www.w3.org/2000/svg" xmlns:xlink="http://www.w3.org/1999/xlink">
    <title>icon-1921Aneg</title>
    <g id="PSR" stroke="none" stroke-width="1" fill="none" fill-rule="evenodd">
        <g id="icone-bandi-PSR" transform="translate(-286.000000, -1757.000000)">
            <g id="icon-1921Aneg" transform="translate(286.000000, 1757.000000)">
                <rect id="Rectangle" fill="#30373D" x="0" y="0" width="44" height="44" rx="4"></rect>
                <g id="Group-16" transform="translate(9.000000, 8.000000)">
                    <g id="location" fill="#FFFFFF" fill-rule="nonzero">
                        <path d="M22.716772,18.5769231 L17.49644,18.5769231 C19.934044,16.1675769 22.152,13.8058846 22.152,9.69230769 C22.152,4.14981538 18.13292,0 12.792104,0 C7.440472,0 3.432,4.16214615 3.432,9.69230769 C3.432,13.8058846 5.650008,16.1675769 8.087664,18.5769231 L2.867228,18.5769231 L0.014768,27.5692308 L25.569232,27.5692308 L22.716772,18.5769231 Z M4.992,9.69230769 C4.992,5.01221538 8.27242,1.61538462 12.792104,1.61538462 C17.311684,1.61538462 20.592,5.01221538 20.592,9.69230769 C20.592,14.9282 16.324048,16.7826615 12.792104,21.2920077 C11.73068,19.9369154 10.59552,18.8183692 9.491664,17.7308385 C6.977672,15.2538615 4.992,13.2973615 4.992,9.69230769 Z M2.801188,23.9615385 L8.424,23.9615385 L8.424,22.3461538 L3.313596,22.3461538 L3.996824,20.1923077 L9.672,20.1923077 L9.672,20.1560154 C11.743992,22.2836385 12.304552,23.3500077 12.792104,23.9858769 C13.29172,23.3342308 13.833976,22.2900462 15.912,20.1561231 L15.912,20.1923077 L21.587228,20.1923077 L22.270456,22.3461538 L17.16,22.3461538 L17.16,23.9615385 L22.782812,23.9615385 L23.414768,25.9538462 L2.169232,25.9538462 L2.801188,23.9615385 Z" id="Shape"></path>
                    </g>
                    <path d="M13,4 L18,12 L15,12 L15,17 L11,17 L11,12 L8,12 L13,4 Z" id="Combined-Shape" fill="#01985A"></path>
                </g>
            </g>
        </g>
    </g>
</svg>