<?xml version="1.0" encoding="UTF-8"?>
<svg width="44px" height="44px" viewBox="0 0 44 44" version="1.1" xmlns="http://www.w3.org/2000/svg" xmlns:xlink="http://www.w3.org/1999/xlink">
    <title>icon-711Aneg</title>
    <defs>
        <polygon id="path-1" points="6.48e-05 0.116802 25.585632 0.116802 25.585632 10.5299902 6.48e-05 10.5299902"></polygon>
    </defs>
    <g id="PSR" stroke="none" stroke-width="1" fill="none" fill-rule="evenodd">
        <g id="icone-bandi-PSR" transform="translate(-293.000000, -946.000000)">
            <g id="icon-711Aneg" transform="translate(293.000000, 946.000000)">
                <rect id="Rectangle" fill="#30373D" x="0" y="0" width="44" height="44" rx="4"></rect>
                <g id="european-union" transform="translate(3.000000, 3.000000)" fill="#FFFFFF" fill-rule="nonzero">
                    <polygon id="Path" points="19.7828507 1.49041498 19 0 18.2171493 1.49041498 16.4666667 1.72941719 17.7333333 2.88952 17.4343303 4.52765957 19 3.75424477 20.5656697 4.52765957 20.2666667 2.88952 21.5333333 1.72941719"></polygon>
                    <polygon id="Path" points="28.016184 3.43084051 27.2333333 1.94042553 26.4504827 3.43084051 24.7 3.66984272 25.9666667 4.82994553 25.6676637 6.46808511 27.2333333 5.6946703 28.799003 6.46808511 28.5 4.82994553 29.7666667 3.66984272"></polygon>
                    <polygon id="Path" points="34.3495173 9.25211711 33.5666667 7.76170213 32.783816 9.25211711 31.0333333 9.49111932 32.3 10.6512221 32.000997 12.2893617 33.5666667 11.5159469 35.1323363 12.2893617 34.8333333 10.6512221 36.1 9.49111932"></polygon>
                    <polygon id="Path" points="33.716184 26.0691384 32.9333333 24.5787234 32.1504827 26.0691384 30.4 26.3081406 31.6666667 27.4682434 31.3676637 29.106383 32.9333333 28.3329682 34.499003 29.106383 34.2 27.4682434 35.4666667 26.3081406"></polygon>
                    <polygon id="Path" points="28.016184 32.5372235 27.2333333 31.0468085 26.4504827 32.5372235 24.7 32.7762257 25.9666667 33.9363285 25.6676637 35.5744681 27.2333333 34.8010533 28.799003 35.5744681 28.5 33.9363285 29.7666667 32.7762257"></polygon>
                    <polygon id="Path" points="19.7828507 34.477649 19 32.987234 18.2171493 34.477649 16.4666667 34.7166512 17.7333333 35.876754 17.4343303 37.5148936 19 36.7414788 20.5656697 37.5148936 20.2666667 35.876754 21.5333333 34.7166512"></polygon>
                    <polygon id="Path" points="35.4666667 16.8170213 34.683816 18.3074363 32.9333333 18.5464385 34.2 19.7065413 33.900997 21.3446809 35.4666667 20.571266 37.0323363 21.3446809 36.7333333 19.7065413 38 18.5464385 36.2495173 18.3074363"></polygon>
                    <polygon id="Path" points="11.5495173 3.43084051 10.7666667 1.94042553 9.983816 3.43084051 8.23333333 3.66984272 9.5 4.82994553 9.200997 6.46808511 10.7666667 5.6946703 12.3323363 6.46808511 12.0333333 4.82994553 13.3 3.66984272"></polygon>
                    <polygon id="Path" points="4.43333333 11.5159469 5.999003 12.2893617 5.7 10.6512221 6.96666667 9.49111932 5.216184 9.25211711 4.43333333 7.76170213 3.65048267 9.25211711 1.9 9.49111932 3.16666667 10.6512221 2.86766367 12.2893617"></polygon>
                    <polygon id="Path" points="5.84951733 26.0691384 5.06666667 24.5787234 4.283816 26.0691384 2.53333333 26.3081406 3.8 27.4682434 3.500997 29.106383 5.06666667 28.3329682 6.63233633 29.106383 6.33333333 27.4682434 7.6 26.3081406"></polygon>
                    <polygon id="Path" points="11.5495173 32.5372235 10.7666667 31.0468085 9.983816 32.5372235 8.23333333 32.7762257 9.5 33.9363285 9.200997 35.5744681 10.7666667 34.8010533 12.3323363 35.5744681 12.0333333 33.9363285 13.3 32.7762257"></polygon>
                    <polygon id="Path" points="0.967663667 21.3446809 2.53333333 20.571266 4.099003 21.3446809 3.8 19.7065413 5.06666667 18.5464385 3.316184 18.3074363 2.53333333 16.8170213 1.75048267 18.3074363 -8.43769499e-16 18.5464385 1.26666667 19.7065413"></polygon>
                </g>
                <g id="Group-6" transform="translate(9.000000, 11.000000)">
                    <g id="Group-3" transform="translate(0.000000, 0.045279)">
                        <mask id="mask-2" fill="white">
                            <use xlink:href="#path-1"></use>
                        </mask>
                        <g id="Clip-2"></g>
                        <path d="M16.6630608,1.72287 L15.5190168,0.11664 C15.5190168,0.11664 15.4846728,0.337284 15.2951328,0.62451 C14.7564828,1.440828 13.6600668,2.523798 12.1060008,3.678372 C12.0266208,3.737178 11.3284008,4.256712 11.0967408,4.449492 C10.9115748,4.603878 10.9673028,4.792608 11.0504088,4.950072 C11.1323808,5.105268 11.2841748,5.357016 11.3527008,5.509134 C11.6405748,6.148548 11.6002368,6.670188 11.0967408,7.127838 C10.9081728,7.299558 10.6539948,7.452486 10.2739428,7.618374 C10.1686428,7.664382 9.9376308,7.756722 9.7289748,7.81164 C9.3975228,7.898148 8.7466068,7.983522 8.3487348,8.013816 C8.0184168,8.039574 7.2662508,8.041032 6.8993208,8.052534 C6.5610648,8.063064 5.1503688,8.057232 4.7884608,8.052534 C3.4424028,8.034066 3.0723948,7.97526 3.0723948,7.97526 C3.0723948,7.97526 2.7537408,7.746354 2.5389288,7.637976 C2.2719528,7.492338 1.9779228,7.43904 1.7506368,7.464636 C1.6100208,7.472574 1.4096268,7.519068 1.2868308,7.62858 C1.2325608,7.677018 1.2213828,7.685604 1.1706768,7.753806 C1.0415628,7.927146 0.9548928,8.02062 0.7995348,8.081532 C0.7088148,8.11701 0.2275128,8.234946 0.1162188,8.273826 C0.0044388,8.312868 6.48e-05,8.332146 6.48e-05,8.332146 L0.0807408,8.370378 L1.2521628,8.370378 C1.2521628,8.370378 1.6552188,8.452998 1.9354788,8.452998 C2.0871108,8.452998 2.1008808,8.452674 2.2384188,8.452998 C2.3766048,8.453484 2.4663528,8.481834 2.5735968,8.505486 C2.6813268,8.529138 2.8447848,8.55198 2.9698488,8.577576 C3.0949128,8.603496 4.3696908,8.747352 4.9974408,8.823006 C5.4563868,8.878086 6.1304688,8.947422 6.5508588,9.035388 C7.0478748,9.139068 7.7856228,9.291024 8.2092528,9.420624 C8.3218428,9.454968 9.3460068,9.748512 9.4383468,9.777186 C10.3787568,10.071864 11.2532328,10.306278 12.6509688,10.451106 C13.8450708,10.565154 14.8190148,10.566126 16.0602588,10.383714 C17.1105048,10.253952 17.9930808,10.013544 19.1912328,9.757422 C20.6003088,9.456912 22.0944348,9.338328 23.3196408,9.198846 C23.8417668,9.139392 24.8377428,8.981766 25.2213588,8.919882 C25.6564908,8.849412 25.5806748,8.687898 25.5806748,8.687898 C25.5806748,8.687898 25.5489228,8.562186 25.3132128,8.572554 C25.2545688,8.574822 24.4295028,8.64918 24.2167968,8.666676 C23.7614148,8.702802 23.0751828,8.720622 22.4612028,8.717382 C21.8004048,8.713494 20.8642068,8.684658 19.9565208,8.601552 C18.2135628,8.448786 17.4379068,8.368434 16.9071948,8.254548 C16.7424408,8.214858 16.5311928,8.167878 16.5334608,8.03196 C16.5350808,7.933464 16.6123548,7.850358 16.7946048,7.67313 C17.0970588,7.378938 17.0504028,7.158132 17.0627148,6.276204 C17.0800488,5.057964 17.2174248,3.566916 17.1966888,3.447522 C17.1793548,3.348702 17.0659548,3.309012 16.9648668,3.360528 C16.8247368,3.432618 16.5357288,3.697326 16.5357288,3.697326 C16.5357288,3.697326 16.5136968,3.647268 16.5357288,3.582306 C16.5930768,3.406698 16.8247368,3.016116 16.9178868,2.850066 C17.0035848,2.697462 17.0233488,2.637522 17.0230248,2.580174 C17.0220528,2.53044 16.9826868,2.47374 16.8255468,2.503224 C16.7312628,2.520558 16.6957848,2.530926 16.5935628,2.532546 C16.4746548,2.534328 16.3414908,2.470662 16.4080728,2.252772 C16.4569968,2.094336 16.6630608,1.72287 16.6630608,1.72287" id="Fill-1" fill="#FFFFFF" mask="url(#mask-2)"></path>
                    </g>
                    <path d="M7.2011754,7.6356594 C7.2011754,7.6356594 7.1331354,7.2081414 7.1426934,6.7582674 C7.1524134,6.3092034 7.2011754,5.8918914 7.2011754,5.8918914 C7.2011754,5.8918914 7.3082574,6.0470874 7.4098314,6.1614594 C8.0095554,6.8355414 8.6920614,7.0983054 9.8675334,7.0569954 C10.2764214,7.0427394 10.5634854,6.9706494 10.5634854,6.9706494 C10.5634854,6.9706494 10.3097934,7.1164494 10.0185174,7.2207774 C8.7369354,7.6805334 7.2011754,7.6356594 7.2011754,7.6356594" id="Fill-4" fill="#FFFFFF"></path>
                </g>
                <path d="M28.487425,23.4881687 C27.8041083,22.8372771 26.6960083,22.8372771 26.012575,23.4881687 L20.2500583,28.9764138 L17.987425,26.8215159 C17.3041083,26.1706243 16.1960083,26.1706243 15.512575,26.8215159 C14.8291417,27.4724075 14.8291417,28.5276341 15.512575,29.1785257 L19.012575,32.511873 C19.6958917,33.1626535 20.8039917,33.1627646 21.487425,32.511873 L28.487425,25.8451785 C29.1708583,25.194398 29.1708583,24.1390603 28.487425,23.4881687 Z" id="Path" fill="#01985A" fill-rule="nonzero"></path>
            </g>
        </g>
    </g>
</svg>