<?xml version="1.0" encoding="UTF-8"?>
<svg width="44px" height="44px" viewBox="0 0 44 44" version="1.1" xmlns="http://www.w3.org/2000/svg" xmlns:xlink="http://www.w3.org/1999/xlink">
    <title>icon-761B</title>
    <g id="PSR" stroke="none" stroke-width="1" fill="none" fill-rule="evenodd">
        <g id="icone-bandi-PSR" transform="translate(-352.000000, -1168.000000)">
            <g id="icon-761B" transform="translate(352.000000, 1168.000000)">
                <g id="Rectangle" fill="#F7F7F7" stroke="#D8D8D8">
                    <rect x="0.5" y="0.5" width="43" height="43" rx="4"></rect>
                </g>
                <g id="directional-sign" transform="translate(10.000000, 5.000000)" fill="#30373D" fill-rule="nonzero">
                    <path d="M22.8270453,18.1622567 C22.0696854,17.5545567 21.1189849,17.2198957 20.1499826,17.2198957 C18.8105272,17.2198957 17.5787637,17.8344025 16.776596,18.8643506 C16.090009,18.3958072 15.2607944,18.1214609 14.3686957,18.1214609 C14.0975499,18.1214609 13.8299654,18.1473358 13.5685565,18.1968317 L13.5685565,14.9659826 L18.7976348,14.9659826 C18.9137564,14.9659826 19.0279396,14.9360957 19.1291403,14.8791168 L22.7354012,12.8505951 C22.9483058,12.7308672 23.0800696,12.5055661 23.0800696,12.261287 C23.0800696,12.0170079 22.9483058,11.7917067 22.7354012,11.6719789 L19.1291403,9.64345711 C19.0279396,9.58647819 18.9137564,9.5565913 18.7976348,9.5565913 L13.5685565,9.5565913 L13.5685565,8.20424348 L16.0027826,8.20424348 C16.3762109,8.20424348 16.6789565,7.90149788 16.6789565,7.52806957 L16.6789565,3.47102609 C16.6789565,3.09759777 16.3762109,2.79485217 16.0027826,2.79485217 L13.5685565,2.79485217 L13.5685565,0.676173913 C13.5685565,0.3027456 13.2658109,0 12.8923826,0 L10.187687,0 C9.81425864,0 9.51151304,0.3027456 9.51151304,0.676173913 L9.51151304,2.79485217 L4.28243478,2.79485217 C4.16631318,2.79485217 4.05212995,2.82473906 3.95092925,2.88171798 L0.344668383,4.91023972 C0.131763757,5.02996758 0,5.25526873 0,5.49954783 C0,5.74382692 0.131763757,5.96912807 0.344668383,6.08885593 L3.95092925,8.11737767 C4.05212995,8.17435659 4.16631318,8.20424348 4.28243478,8.20424348 L9.51151304,8.20424348 L9.51151304,9.5565913 L7.07728696,9.5565913 C6.70385864,9.5565913 6.40111304,9.8593369 6.40111304,10.2327652 L6.40111304,14.2898087 C6.40111304,14.663237 6.70385864,14.9659826 7.07728696,14.9659826 L9.51151304,14.9659826 L9.51151304,16.4835873 C9.13231471,16.3754446 8.73787993,16.3183304 8.33947826,16.3183304 C8.02402059,16.3183304 7.70928417,16.3541226 7.39883019,16.4251208 C6.4181977,15.2209002 4.95013398,14.5152 3.38086957,14.5152 C2.25274101,14.5152 1.17685816,14.8760515 0.269613078,15.5587617 C0.0998483478,15.6865135 0,15.8866159 0,16.0990698 L0,22.4038957 C0,22.777324 0.3027456,23.0800696 0.676173913,23.0800696 L22.4038957,23.0800696 C22.777324,23.0800696 23.0800696,22.777324 23.0800696,22.4038957 L23.0800696,18.6896273 C23.0800696,18.4846113 22.987028,18.2905945 22.8270453,18.1622567 Z M10.8638609,1.35234783 L12.2162087,1.35234783 L12.2162087,2.79485217 L10.8638609,2.79485217 L10.8638609,1.35234783 Z M2.05538838,5.49954783 L4.45954727,4.1472 L15.3266087,4.1472 L15.3266087,6.85189565 L4.45954727,6.85189565 L2.05538838,5.49954783 Z M10.8638609,8.20424348 L12.2162087,8.20424348 L12.2162087,9.5565913 L10.8638609,9.5565913 L10.8638609,8.20424348 Z M7.75346087,10.9089391 L18.6205223,10.9089391 L21.0246812,12.261287 L18.6205223,13.6136348 L7.75346087,13.6136348 L7.75346087,10.9089391 Z M10.8638609,14.9659826 L12.2162087,14.9659826 L12.2162087,18.7026098 C12.2057055,18.7087405 12.195067,18.7145105 12.1846088,18.7207313 C11.9126517,18.1657277 11.5214175,17.6700021 11.0372319,17.2761533 C10.9806136,17.2301284 10.9225528,17.186087 10.8638158,17.1431725 L10.8638158,14.9659826 L10.8638609,14.9659826 Z M1.35234783,21.7277217 L1.35234783,16.4533849 C1.96239193,16.0691378 2.65736348,15.8675478 3.38086957,15.8675478 C4.66523937,15.8675478 5.85814539,16.5076141 6.57191457,17.5797554 C6.74370783,17.8376932 7.06872209,17.945881 7.36091937,17.8422912 C7.68178643,17.7284235 8.01103805,17.6706783 8.33947826,17.6706783 C9.01966414,17.6706783 9.65747645,17.8970162 10.1838553,18.3252597 C10.6958542,18.7417377 11.0559844,19.3238333 11.1978908,19.9643503 C11.2509028,20.2036257 11.4292775,20.3954788 11.6640451,20.4658009 C11.8988577,20.5362131 12.1532794,20.473915 12.3290847,20.3032036 C12.8798959,19.7683501 13.6042585,19.4738087 14.3686957,19.4738087 C15.7517418,19.4738087 16.9139946,20.4369057 17.2200309,21.7277217 L1.35234783,21.7277217 Z M21.7277217,21.7277217 L18.5975775,21.7277217 C18.4833041,21.0104815 18.1903405,20.3521135 17.7658385,19.7996794 C18.3112403,19.0334842 19.1903115,18.5722435 20.1499826,18.5722435 C20.7173376,18.5722435 21.2570145,18.7311894 21.7277217,19.0346563 L21.7277217,21.7277217 Z" id="Shape"></path>
                </g>
                <g id="number" transform="translate(6.000000, 27.000000)">
                    <rect id="Rectangle" fill="#01985A" x="0" y="0" width="32" height="14" rx="7"></rect>
                    <text id="7.6.1" font-family="TitilliumWeb-Bold, Titillium Web" font-size="9" font-weight="bold" fill="#FFFFFF">
                        <tspan x="6.636" y="10">7.6.1</tspan>
                    </text>
                </g>
            </g>
        </g>
    </g>
</svg>