<?xml version="1.0" encoding="UTF-8"?>
<svg width="44px" height="44px" viewBox="0 0 44 44" version="1.1" xmlns="http://www.w3.org/2000/svg" xmlns:xlink="http://www.w3.org/1999/xlink">
    <title>icon-443B</title>
    <defs>
        <polygon id="path-1" points="7.2e-05 0.12978 28.42848 0.12978 28.42848 11.6999891 7.2e-05 11.6999891"></polygon>
    </defs>
    <g id="PSR" stroke="none" stroke-width="1" fill="none" fill-rule="evenodd">
        <g id="icone-bandi-PSR" transform="translate(-352.000000, -875.000000)">
            <g id="icon-443B" transform="translate(352.000000, 875.000000)">
                <g id="Rectangle" fill="#F7F7F7" stroke="#D8D8D8">
                    <rect x="0.5" y="0.5" width="43" height="43" rx="4"></rect>
                </g>
                <g id="european-union" transform="translate(2.000000, 3.000000)" fill="#30373D" fill-rule="nonzero">
                    <polygon id="Path" points="20.8240533 1.56885787 20 0 19.1759467 1.56885787 17.3333333 1.82043915 18.6666667 3.0416 18.3519267 4.76595745 20 3.9518366 21.6480733 4.76595745 21.3333333 3.0416 22.6666667 1.82043915"></polygon>
                    <polygon id="Path" points="29.49072 5.61141106 28.6666667 4.04255319 27.8426133 5.61141106 26 5.86299234 27.3333333 7.08415319 27.0185933 8.80851064 28.6666667 7.99438979 30.31474 8.80851064 30 7.08415319 31.3333333 5.86299234"></polygon>
                    <polygon id="Path" points="36.1573867 11.7390706 35.3333333 10.1702128 34.50928 11.7390706 32.6666667 11.9906519 34 13.2118128 33.68526 14.9361702 35.3333333 14.1220494 36.9814067 14.9361702 36.6666667 13.2118128 38 11.9906519"></polygon>
                    <polygon id="Path" points="37.3333333 19.7021277 36.50928 21.2709855 34.6666667 21.5225668 36 22.7437277 35.68526 24.4680851 37.3333333 23.6539643 38.9814067 24.4680851 38.6666667 22.7437277 40 21.5225668 38.1573867 21.2709855"></polygon>
                    <polygon id="Path" points="12.1573867 5.61141106 11.3333333 4.04255319 10.50928 5.61141106 8.66666667 5.86299234 10 7.08415319 9.68526 8.80851064 11.3333333 7.99438979 12.9814067 8.80851064 12.6666667 7.08415319 14 5.86299234"></polygon>
                    <polygon id="Path" points="4.66666667 14.1220494 6.31474 14.9361702 6 13.2118128 7.33333333 11.9906519 5.49072 11.7390706 4.66666667 10.1702128 3.84261333 11.7390706 2 11.9906519 3.33333333 13.2118128 3.01859333 14.9361702"></polygon>
                    <polygon id="Path" points="1.01859333 24.4680851 2.66666667 23.6539643 4.31474 24.4680851 4 22.7437277 5.33333333 21.5225668 3.49072 21.2709855 2.66666667 19.7021277 1.84261333 21.2709855 0 21.5225668 1.33333333 22.7437277"></polygon>
                </g>
                <g id="Group-6" transform="translate(8.000000, 11.000000)">
                    <g id="Group-3" transform="translate(0.000000, 0.050310)">
                        <mask id="mask-2" fill="white">
                            <use xlink:href="#path-1"></use>
                        </mask>
                        <g id="Clip-2"></g>
                        <path d="M18.514512,1.9143 L17.243352,0.1296 C17.243352,0.1296 17.205192,0.37476 16.994592,0.6939 C16.396092,1.60092 15.177852,2.80422 13.451112,4.08708 C13.362912,4.15242 12.587112,4.72968 12.329712,4.94388 C12.123972,5.11542 12.185892,5.32512 12.278232,5.50008 C12.369312,5.67252 12.537972,5.95224 12.614112,6.12126 C12.933972,6.83172 12.889152,7.41132 12.329712,7.91982 C12.120192,8.11062 11.837772,8.28054 11.415492,8.46486 C11.298492,8.51598 11.041812,8.61858 10.809972,8.6796 C10.441692,8.77572 9.718452,8.87058 9.276372,8.90424 C8.909352,8.93286 8.073612,8.93448 7.665912,8.94726 C7.290072,8.95896 5.722632,8.95248 5.320512,8.94726 C3.824892,8.92674 3.413772,8.8614 3.413772,8.8614 C3.413772,8.8614 3.059712,8.60706 2.821032,8.48664 C2.524392,8.32482 2.197692,8.2656 1.945152,8.29404 C1.788912,8.30286 1.566252,8.35452 1.429812,8.4762 C1.369512,8.53002 1.357092,8.53956 1.300752,8.61534 C1.157292,8.80794 1.060992,8.9118 0.888372,8.97948 C0.787572,9.0189 0.252792,9.14994 0.129132,9.19314 C0.004932,9.23652 7.2e-05,9.25794 7.2e-05,9.25794 L0.089712,9.30042 L1.391292,9.30042 C1.391292,9.30042 1.839132,9.39222 2.150532,9.39222 C2.319012,9.39222 2.334312,9.39186 2.487132,9.39222 C2.640672,9.39276 2.740392,9.42426 2.859552,9.45054 C2.979252,9.47682 3.160872,9.5022 3.299832,9.53064 C3.438792,9.55944 4.855212,9.71928 5.552712,9.80334 C6.062652,9.86454 6.811632,9.94158 7.278732,10.03932 C7.830972,10.15452 8.650692,10.32336 9.121392,10.46736 C9.246492,10.50552 10.384452,10.83168 10.487052,10.86354 C11.531952,11.19096 12.503592,11.45142 14.056632,11.61234 C15.383412,11.73906 16.465572,11.74014 17.844732,11.53746 C19.011672,11.39328 19.992312,11.12616 21.323592,10.84158 C22.889232,10.50768 24.549372,10.37592 25.910712,10.22094 C26.490852,10.15488 27.597492,9.97974 28.023732,9.91098 C28.507212,9.83268 28.422972,9.65322 28.422972,9.65322 C28.422972,9.65322 28.387692,9.51354 28.125792,9.52506 C28.060632,9.52758 27.143892,9.6102 26.907552,9.62964 C26.401572,9.66978 25.639092,9.68958 24.956892,9.68598 C24.222672,9.68166 23.182452,9.64962 22.173912,9.55728 C20.237292,9.38754 19.375452,9.29826 18.785772,9.17172 C18.602712,9.12762 18.367992,9.07542 18.370512,8.9244 C18.372312,8.81496 18.458172,8.72262 18.660672,8.5257 C18.996732,8.19882 18.944892,7.95348 18.958572,6.97356 C18.977832,5.61996 19.130472,3.96324 19.107432,3.83058 C19.088172,3.72078 18.962172,3.67668 18.849852,3.73392 C18.694152,3.81402 18.373032,4.10814 18.373032,4.10814 C18.373032,4.10814 18.348552,4.05252 18.373032,3.98034 C18.436752,3.78522 18.694152,3.35124 18.797652,3.16674 C18.892872,2.99718 18.914832,2.93058 18.914472,2.86686 C18.913392,2.8116 18.869652,2.7486 18.695052,2.78136 C18.590292,2.80062 18.550872,2.81214 18.437292,2.81394 C18.305172,2.81592 18.157212,2.74518 18.231192,2.50308 C18.285552,2.32704 18.514512,1.9143 18.514512,1.9143" id="Fill-1" fill="#30373D" mask="url(#mask-2)"></path>
                    </g>
                    <path d="M8.001306,8.484066 C8.001306,8.484066 7.925706,8.009046 7.936326,7.509186 C7.947126,7.010226 8.001306,6.546546 8.001306,6.546546 C8.001306,6.546546 8.120286,6.718986 8.233146,6.846066 C8.899506,7.595046 9.657846,7.887006 10.963926,7.841106 C11.418246,7.825266 11.737206,7.745166 11.737206,7.745166 C11.737206,7.745166 11.455326,7.907166 11.131686,8.023086 C9.707706,8.533926 8.001306,8.484066 8.001306,8.484066" id="Fill-4" fill="#30373D"></path>
                </g>
                <g id="number" transform="translate(6.000000, 27.000000)">
                    <rect id="Rectangle" fill="#01985A" x="0" y="0" width="32" height="14" rx="7"></rect>
                    <text id="4.4.3" font-family="TitilliumWeb-Bold, Titillium Web" font-size="9" font-weight="bold" fill="#FFFFFF">
                        <tspan x="6.636" y="10">4.4.3</tspan>
                    </text>
                </g>
            </g>
        </g>
    </g>
</svg>