<?xml version="1.0" encoding="UTF-8"?>
<svg width="44px" height="44px" viewBox="0 0 44 44" version="1.1" xmlns="http://www.w3.org/2000/svg" xmlns:xlink="http://www.w3.org/1999/xlink">
    <title>icon-641B</title>
    <g id="PSR" stroke="none" stroke-width="1" fill="none" fill-rule="evenodd">
        <g id="icone-bandi-PSR" transform="translate(-352.000000, -1310.000000)">
            <g id="icon-641B" transform="translate(352.000000, 1310.000000)">
                <g id="Rectangle" fill="#F7F7F7" stroke="#D8D8D8">
                    <rect x="0.5" y="0.5" width="43" height="43" rx="4"></rect>
                </g>
                <path d="M22.070922,8.05415162 C21.5813475,8.05415162 21.1843972,7.6500361 21.1843972,7.15162455 L21.1843972,3.90252708 C21.1843972,3.40411552 21.5813475,3 22.070922,3 C22.5604965,3 22.9574468,3.40411552 22.9574468,3.90252708 L22.9574468,7.15162455 C22.9574468,7.6500361 22.5604965,8.05415162 22.070922,8.05415162 M14.8370922,10.6895307 C14.5995035,10.6895307 14.3626241,10.5929242 14.1880142,10.4020217 L12.2731206,8.30815884 C11.9395035,7.9433213 11.9595745,7.37227437 12.3178723,7.03263538 C12.6762411,6.69285199 13.237234,6.7134296 13.5708511,7.07812274 L15.4857447,9.17198556 C15.8193617,9.5368231 15.7992908,10.10787 15.4409929,10.447509 C15.2702128,10.6094585 15.0533333,10.6895307 14.8370922,10.6895307 M29.1275177,10.6895307 C28.9112057,10.6895307 28.6943972,10.6094585 28.523617,10.447509 C28.1652482,10.10787 28.1451773,9.5368231 28.4788652,9.17198556 L30.3936879,7.07812274 C30.7273759,6.7133574 31.2882979,6.69292419 31.6466667,7.03263538 C32.0049645,7.37227437 32.0250355,7.9433213 31.6914184,8.30815884 L29.7765248,10.4020217 C29.6019149,10.5929242 29.3650355,10.6895307 29.1275177,10.6895307 M11.1843972,18.66787 L7.88652482,18.66787 C7.39695035,18.66787 7,18.2637545 7,17.765343 C7,17.2669314 7.39695035,16.8628159 7.88652482,16.8628159 L11.1843972,16.8628159 C11.6739716,16.8628159 12.070922,17.2669314 12.070922,17.765343 C12.070922,18.2637545 11.6739716,18.66787 11.1843972,18.66787 M36.1134752,18.66787 L32.7801418,18.66787 C32.2905674,18.66787 31.893617,18.2637545 31.893617,17.765343 C31.893617,17.2669314 32.2905674,16.8628159 32.7801418,16.8628159 L36.1134752,16.8628159 C36.6030496,16.8628159 37,17.2669314 37,17.765343 C37,18.2637545 36.6030496,18.66787 36.1134752,18.66787 M22.639078,23.180722 C22.5737589,23.180722 22.5073759,23.1732852 22.440922,23.1579061 C21.963617,23.0468592 21.6650355,22.5629603 21.7739716,22.0771119 L22.5548936,18.5956679 L20.7234043,18.5956679 C20.4530496,18.5956679 20.1974468,18.4701083 20.0292908,18.2545848 C19.8611348,18.0391336 19.7987234,17.7573285 19.8597872,17.4891697 L20.888156,12.9765343 C20.9987943,12.4909025 21.4751064,12.1885921 21.9521277,12.3012996 C22.429078,12.4140072 22.7260284,12.898917 22.6153901,13.3844765 L21.8391489,16.7906137 L23.6666667,16.7906137 C23.9364539,16.7906137 24.1915603,16.9156679 24.3597872,17.1304693 C24.5280142,17.3452708 24.5909929,17.6262816 24.5309929,17.8940072 L23.5026241,22.4788448 C23.4087234,22.8971841 23.0434043,23.180722 22.639078,23.180722 M22.141844,26.6101083 C19.7568794,26.6101083 17.6847518,25.7316968 15.9830496,23.9992058 C14.3048227,22.2906859 13.4539007,20.1932852 13.4539007,17.765343 C13.4539007,15.3161733 14.3031915,13.1962455 15.978227,11.4642599 C15.9814184,11.4609386 15.9846809,11.4576895 15.9879433,11.4543682 C17.6891489,9.74916968 19.7596454,8.88447653 22.141844,8.88447653 C24.5502837,8.88447653 26.6224113,9.75075812 28.3006383,11.459278 C30.0023404,13.191769 30.8652482,15.3134296 30.8652482,17.765343 C30.8652482,18.6799278 30.7450355,19.5519134 30.5065957,20.37213 L31.0568794,20.1670036 C31.5165957,19.9955235 32.0258156,20.2360289 32.1941844,20.7041155 C32.3625532,21.1722022 32.1263121,21.6905415 31.6665248,21.8618773 L29.1487943,22.8005054 C28.8768794,22.9020217 28.5735461,22.8617329 28.3361702,22.692852 C28.1402128,22.5534296 28.0096454,22.3408664 27.9700709,22.1050542 L27.1898582,19.7912635 C27.030922,19.3197834 27.2774468,18.806426 27.7404965,18.6446209 C28.2036879,18.4828159 28.7079433,18.7336462 28.8668794,19.2051264 L28.9264539,19.3818773 C29.0366667,18.867509 29.0921986,18.327509 29.0921986,17.765343 C29.0921986,15.7820217 28.4231915,14.1368231 27.0468794,12.7356679 C25.6944681,11.3588448 24.09,10.6895307 22.141844,10.6895307 C20.2170922,10.6895307 18.6126241,11.3587726 17.2368085,12.7356679 C15.8843262,14.1363899 15.2269504,15.7815884 15.2269504,17.765343 C15.2269504,19.7244043 15.8843262,21.3459928 17.2368085,22.7228159 C18.6130496,24.1238989 20.2175177,24.8050542 22.141844,24.8050542 C23.3548227,24.8050542 24.4631206,24.527148 25.4360993,23.9792058 C25.4468794,23.973213 25.4577305,23.9672924 25.4687234,23.9617329 C25.6521986,23.8683032 25.8291489,23.7544404 25.9946099,23.6233935 C26.3811348,23.3174007 26.9380851,23.3880866 27.2387234,23.7815162 C27.5393617,24.1749458 27.4698582,24.7420217 27.0834043,25.0480866 C26.830922,25.2480144 26.5602837,25.4227437 26.2786525,25.5675812 C25.0437589,26.2594224 23.6521277,26.6101083 22.141844,26.6101083 M12.921773,28.631769 C12.705461,28.631769 12.4887234,28.5516968 12.3178723,28.3897473 C11.9595745,28.0501083 11.9395035,27.4790614 12.2731206,27.1142238 L14.1880142,25.020361 C14.5217021,24.6555957 15.0826241,24.6351625 15.4409929,24.9748736 C15.7992908,25.3145126 15.8193617,25.8855596 15.4857447,26.2503971 L13.5708511,28.3442599 C13.3962411,28.5351625 13.1592908,28.631769 12.921773,28.631769 M31.042766,28.631769 C30.8051773,28.631769 30.5682979,28.5351625 30.3936879,28.3442599 L28.4788652,26.2503971 C28.1451773,25.8855596 28.1652482,25.3145126 28.523617,24.9748736 C28.8819858,24.6350903 29.4429078,24.6555957 29.7765248,25.020361 L31.6914184,27.1142238 C32.0250355,27.4790614 32.0049645,28.0501083 31.6466667,28.3897473 C31.4758865,28.5516968 31.2590071,28.631769 31.042766,28.631769 M22.070922,33 C21.5813475,33 21.1843972,32.5958845 21.1843972,32.0974729 L21.1843972,28.5956679 C21.1843972,28.0972563 21.5813475,27.6931408 22.070922,27.6931408 C22.5604965,27.6931408 22.9574468,28.0972563 22.9574468,28.5956679 L22.9574468,32.0974729 C22.9574468,32.5958845 22.5604965,33 22.070922,33" id="Fill-1" fill="#30373D"></path>
                <g id="number" transform="translate(6.000000, 27.000000)">
                    <rect id="Rectangle" fill="#01985A" x="0" y="0" width="32" height="14" rx="7"></rect>
                    <text id="6.4.1" font-family="TitilliumWeb-Bold, Titillium Web" font-size="9" font-weight="bold" fill="#FFFFFF">
                        <tspan x="6.636" y="10">6.4.1</tspan>
                    </text>
                </g>
            </g>
        </g>
    </g>
</svg>