<?xml version="1.0" encoding="UTF-8"?>
<svg width="44px" height="44px" viewBox="0 0 44 44" version="1.1" xmlns="http://www.w3.org/2000/svg" xmlns:xlink="http://www.w3.org/1999/xlink">
    <title>icon-442B</title>
    <defs>
        <polygon id="path-1" points="0.067002909 0.0720945393 12.1415284 0.0720945393 12.1415284 7.32941176 0.067002909 7.32941176"></polygon>
        <polygon id="path-3" points="0.041729983 0.0416705882 2.89177679 0.0416705882 2.89177679 6.13991775 0.041729983 6.13991775"></polygon>
        <polygon id="path-5" points="0 0.0181588235 2.57639984 0.0181588235 2.57639984 5.20790006 0 5.20790006"></polygon>
        <polygon id="path-7" points="0.00715074561 0.0181341176 2.583525 0.0181341176 2.583525 5.20787535 0.00715074561 5.20787535"></polygon>
    </defs>
    <g id="PSR" stroke="none" stroke-width="1" fill="none" fill-rule="evenodd">
        <g id="icone-bandi-PSR" transform="translate(-352.000000, -799.000000)">
            <g id="icon-442B" transform="translate(352.000000, 799.000000)">
                <g id="Rectangle" fill="#F7F7F7" stroke="#D8D8D8">
                    <rect x="0.5" y="0.5" width="43" height="43" rx="4"></rect>
                </g>
                <g id="Group-13" transform="translate(9.000000, 4.000000)">
                    <g id="Group-17" transform="translate(5.000000, 0.000000)">
                        <g id="Group-3" transform="translate(0.525000, 6.464212)">
                            <mask id="mask-2" fill="white">
                                <use xlink:href="#path-1"></use>
                            </mask>
                            <g id="Clip-2"></g>
                            <path d="M11.3005375,3.84978588 C8.0555125,2.68597412 9.9136625,0.01848 6.1042625,0.0729152941 C2.2948625,0.01848 4.1530125,2.68597412 0.9079875,3.84978588 C-0.5117,4.35905647 0.0328125,6.45098588 1.3057625,7.03552706 C2.94245,7.78691529 3.9284875,6.86052706 6.1042625,6.86052706 C8.2800375,6.86052706 9.2661625,7.78691529 10.90285,7.03552706 C12.1757125,6.45098588 12.720225,4.35905647 11.3005375,3.84978588" id="Fill-1" fill="#30373D" mask="url(#mask-2)"></path>
                        </g>
                        <g id="Group-6" transform="translate(5.162500, 0.040682)">
                            <mask id="mask-4" fill="white">
                                <use xlink:href="#path-3"></use>
                            </mask>
                            <g id="Clip-5"></g>
                            <path d="M1.43560375,6.13982353 C2.22240375,6.15052941 2.87419125,5.24752941 2.89142875,4.123 C2.90674125,3.12298824 2.41507875,2.28463529 1.75279125,2.10354118 C1.72934125,1.70981176 1.66065375,0.887352941 1.46754125,0.0415882353 C1.46745375,0.0448823529 1.46745375,0.0480117647 1.46736625,0.0512235294 C1.46736625,0.0500705882 1.46736625,0.0488352941 1.46736625,0.0476 C1.26532875,0.900117647 1.19060375,1.73064706 1.16496625,2.11869412 C0.53505375,2.324 0.05677875,3.12323529 0.04207875,4.08437647 C0.02484125,5.20882353 0.64871625,6.12911765 1.43560375,6.13982353" id="Fill-4" fill="#30373D" mask="url(#mask-4)"></path>
                        </g>
                        <g id="Group-9" transform="translate(0.000000, 4.405388)">
                            <mask id="mask-6" fill="white">
                                <use xlink:href="#path-5"></use>
                            </mask>
                            <g id="Clip-8"></g>
                            <path d="M1.7124975,5.18786471 C2.38406,5.04259412 2.7385225,4.14675882 2.50411,3.18701765 C2.27171,2.2351 1.54721,1.57767647 0.88011,1.70894706 C0.6913725,1.35408824 0.50876,0.806688235 0.5116475,0.0181588235 C0.31276,0.493664706 0.3604475,1.43561765 0.408135,1.96671176 C0.0475475,2.3289 -0.1010275,3.00353529 0.0722225,3.71308824 C0.306635,4.67282941 1.040935,5.33313529 1.7124975,5.18786471" id="Fill-7" fill="#30373D" mask="url(#mask-6)"></path>
                        </g>
                        <path d="M3.773105,7.11019647 C4.4996175,7.00947882 4.951205,6.05097294 4.7818925,4.96926706 C4.622205,3.94866706 3.9667425,3.18319647 3.2830175,3.18451412 C3.1603425,2.82224353 3.01658,2.30827882 2.893205,1.62590235 C2.78908,2.27130235 2.7783175,2.89117294 2.7910925,3.32994941 C2.2890175,3.64849059 2.0126925,4.45011412 2.15103,5.33409059 C2.32043,6.41571412 3.0465925,7.21099647 3.773105,7.11019647" id="Fill-10" fill="#30373D"></path>
                        <g id="Group-14" transform="translate(10.675000, 4.405388)">
                            <mask id="mask-8" fill="white">
                                <use xlink:href="#path-7"></use>
                            </mask>
                            <g id="Clip-13"></g>
                            <path d="M2.17538125,1.96668706 C2.22306875,1.43567529 2.27084375,0.49364 2.07186875,0.0181341176 C2.07475625,0.806663529 1.89223125,1.35414588 1.70340625,1.70892235 C1.03630625,1.57765176 0.31189375,2.23507529 0.07940625,3.18699294 C-0.15491875,4.14681647 0.19945625,5.04265176 0.87101875,5.18784 C1.54258125,5.33311059 2.27696875,4.67280471 2.51129375,3.71306353 C2.68454375,3.00351059 2.53596875,2.32887529 2.17538125,1.96668706" id="Fill-12" fill="#30373D" mask="url(#mask-8)"></path>
                        </g>
                        <path d="M9.48542875,7.11019647 C10.2119413,7.21099647 10.9381913,6.41571412 11.1075038,5.33409059 C11.2458413,4.45011412 10.9695163,3.64849059 10.4675288,3.32994941 C10.4802163,2.89117294 10.4694538,2.27130235 10.3653288,1.62590235 C10.2419538,2.30827882 10.0981913,2.82224353 9.97551625,3.18451412 C9.29179125,3.18319647 8.63641625,3.94866706 8.47664125,4.96926706 C8.30732875,6.05097294 8.75891625,7.00947882 9.48542875,7.11019647" id="Fill-15" fill="#30373D"></path>
                    </g>
                    <rect id="Rectangle" fill="#30373D" transform="translate(12.000000, 9.000000) rotate(-45.000000) translate(-12.000000, -9.000000) " x="1" y="8" width="22" height="2"></rect>
                    <path d="M25,22 L21,22 L21,19 L18,19 L18,22 L14,22 L14,19 L11,19 L11,22 L7,22 L7,19 L4,19 L4,22 L0,22 L0,14 L2,12 L4,14 L4,17 L7,17 L7,14 L9,12 L11,14 L11,17 L14,17 L14,14 L16,12 L18,14 L18,17 L21,17 L21,14 L23,12 L25,14 L25,22 Z" id="Combined-Shape" fill="#01985A"></path>
                </g>
                <g id="number" transform="translate(6.000000, 27.000000)">
                    <rect id="Rectangle" fill="#01985A" x="0" y="0" width="32" height="14" rx="7"></rect>
                    <text id="4.4.2" font-family="TitilliumWeb-Bold, Titillium Web" font-size="9" font-weight="bold" fill="#FFFFFF">
                        <tspan x="6.636" y="10">4.4.2</tspan>
                    </text>
                </g>
            </g>
        </g>
    </g>
</svg>