<?xml version="1.0" encoding="UTF-8"?>
<svg width="44px" height="44px" viewBox="0 0 44 44" version="1.1" xmlns="http://www.w3.org/2000/svg" xmlns:xlink="http://www.w3.org/1999/xlink">
    <title>icon-861Bneg</title>
    <defs>
        <polygon id="path-1" points="0.21175 0.24384375 4.20275 0.24384375 4.20275 5.48782312 0.21175 5.48782312"></polygon>
    </defs>
    <g id="PSR" stroke="none" stroke-width="1" fill="none" fill-rule="evenodd">
        <g id="icone-bandi-PSR" transform="translate(-401.000000, -1459.000000)">
            <g id="icon-861Bneg" transform="translate(401.000000, 1459.000000)">
                <rect id="Rectangle" fill="#30373D" x="0" y="0" width="44" height="44" rx="4"></rect>
                <g id="Group-18" transform="translate(10.000000, 2.000000)">
                    <path d="M11.70705,5.50192781 C10.67655,5.50192781 9.83805,6.30374344 9.83805,7.28915906 C9.83805,8.27457469 10.67655,9.07639031 11.70705,9.07639031 C12.73805,9.07639031 13.57605,8.27457469 13.57605,7.28915906 C13.57605,6.30374344 12.73805,5.50192781 11.70705,5.50192781 M11.70705,10.0804528 C10.09755,10.0804528 8.78805,8.82824344 8.78805,7.28915906 C8.78805,5.75007469 10.09755,4.49786531 11.70705,4.49786531 C13.31705,4.49786531 14.62605,5.75007469 14.62605,7.28915906 C14.62605,8.82824344 13.31705,10.0804528 11.70705,10.0804528" id="Fill-1" fill="#FFFFFF"></path>
                    <path d="M9.28715,27.0091856 C8.22115,27.0091856 7.30415,26.5664419 6.79565,26.0419388 L1.46015,20.5444575 C0.48015,19.5915544 -0.04085,18.2834044 0.00265,16.8715013 C0.04415,15.5184075 0.61765,14.2265138 1.57615,13.3271606 C3.11015,11.8870481 8.88065,6.7285575 8.93815,6.67692 C9.15065,6.48806063 9.48265,6.49857938 9.68065,6.70034813 C9.87865,6.90355125 9.86715,7.22102625 9.65565,7.41036375 C9.59765,7.46247938 3.83715,12.6123638 2.31165,14.04387 C1.54465,14.7634481 1.08565,15.8043263 1.05215,16.901145 C1.01715,18.03717 1.43165,19.0847419 2.21865,19.8506981 L7.56515,25.3591763 C7.79265,25.5939356 8.25815,25.8688575 8.84965,25.9668731 L2.90515,19.4462044 C1.67915,18.1017169 1.78765,16.0955044 3.15315,14.8791544 L9.76965,8.98626375 C9.98215,8.7978825 10.31365,8.80887938 10.51165,9.01160438 C10.70965,9.2148075 10.69765,9.5322825 10.48515,9.72114188 L3.86915,15.6140325 C2.92065,16.4588794 2.84515,17.8521356 3.69665,18.7863919 L10.36915,26.1055294 C10.49115,26.2394044 10.53015,26.4244388 10.47215,26.5927388 C10.41365,26.7610388 10.26715,26.8877419 10.08615,26.9259919 C9.81365,26.9828888 9.54615,27.0091856 9.28715,27.0091856" id="Fill-3" fill="#FFFFFF"></path>
                    <path d="M14.127,27.0091856 C13.868,27.0091856 13.6005,26.9828888 13.328,26.9259919 C13.1475,26.8877419 13.0005,26.7610388 12.9425,26.5927388 C12.8845,26.4244388 12.9235,26.2394044 13.0455,26.1055294 L19.718,18.7863919 C20.5695,17.8521356 20.4935,16.4584013 19.545,15.6140325 L12.929,9.72114188 C12.717,9.5322825 12.7045,9.2148075 12.9025,9.01160438 C13.1005,8.80887938 13.4325,8.7978825 13.6445,8.98626375 L20.261,14.8791544 C21.626,16.0950263 21.7355,18.1012388 20.5095,19.4462044 L14.565,25.9668731 C15.156,25.8688575 15.6215,25.5939356 15.8495,25.3591763 L21.1845,19.8612169 C21.983,19.0847419 22.3975,18.03717 22.3625,16.901145 C22.3285,15.8048044 21.8695,14.7634481 21.103,14.04387 C19.577,12.6123638 13.817,7.46247938 13.759,7.41036375 C13.547,7.22102625 13.5355,6.90355125 13.734,6.70034813 C13.932,6.49810125 14.2645,6.48806063 14.476,6.67692 C14.5335,6.7285575 20.304,11.8870481 21.8385,13.3271606 C22.797,14.2265138 23.37,15.5184075 23.412,16.8715013 C23.455,18.2834044 22.934,19.5915544 21.944,20.5544981 L16.619,26.0419387 C16.1105,26.5664419 15.193,27.0091856 14.127,27.0091856" id="Fill-5" fill="#FFFFFF"></path>
                    <g id="Group-9" transform="translate(9.500000, 0.234281)">
                        <mask id="mask-2" fill="white">
                            <use xlink:href="#path-1"></use>
                        </mask>
                        <g id="Clip-8"></g>
                        <path d="M3.67775,5.48782312 C3.38775,5.48782312 3.15225,5.26310437 3.15225,4.98579187 L3.15225,2.151945 C3.15225,1.65326062 2.72875,1.24781062 2.20725,1.24781062 C1.68575,1.24781062 1.26175,1.65326062 1.26175,2.151945 L1.26175,4.98531375 C1.26175,5.26262625 1.02675,5.48782312 0.73675,5.48782312 C0.44675,5.48782312 0.21175,5.26262625 0.21175,4.98531375 L0.21175,2.151945 C0.21175,1.10007 1.10675,0.243748125 2.20725,0.243748125 C3.30725,0.243748125 4.20275,1.10007 4.20275,2.151945 L4.20275,4.98579187 C4.20275,5.26310437 3.96725,5.48782312 3.67775,5.48782312" id="Fill-7" fill="#FFFFFF" mask="url(#mask-2)"></path>
                    </g>
                    <path d="M11.70705,19.4035078 C10.03605,19.4035078 8.67705,20.7030516 8.67705,22.3009453 C8.67705,23.8988391 10.03605,25.1983828 11.70705,25.1983828 C13.37805,25.1983828 14.73755,23.8988391 14.73755,22.3009453 C14.73755,20.7030516 13.37805,19.4035078 11.70705,19.4035078 M11.70705,26.2024453 C9.45705,26.2024453 7.62705,24.4525078 7.62705,22.3009453 C7.62705,20.1498609 9.45705,18.3994453 11.70705,18.3994453 C13.95655,18.3994453 15.78705,20.1498609 15.78705,22.3009453 C15.78705,24.4525078 13.95655,26.2024453 11.70705,26.2024453" id="Fill-10" fill="#FFFFFF"></path>
                    <path d="M11.70705,12.3831506 C10.35955,12.3831506 9.26355,13.4312006 9.26355,14.7197475 C9.26355,16.0087725 10.35955,17.0568225 11.70705,17.0568225 C13.05455,17.0568225 14.15105,16.0087725 14.15105,14.7197475 C14.15105,13.4312006 13.05455,12.3831506 11.70705,12.3831506 M11.70705,18.060885 C9.78055,18.060885 8.21355,16.5619631 8.21355,14.7197475 C8.21355,12.8775319 9.78055,11.3790881 11.70705,11.3790881 C13.63355,11.3790881 15.20055,12.8775319 15.20055,14.7197475 C15.20055,16.5619631 13.63355,18.060885 11.70705,18.060885" id="Fill-12" fill="#FFFFFF"></path>
                    <path d="M6.6797,16.1171156 C5.5402,16.1171156 4.6132,17.0035594 4.6132,18.0932062 C4.6132,19.1828531 5.5402,20.0692969 6.6797,20.0692969 C7.8192,20.0692969 8.7462,19.1828531 8.7462,18.0932062 C8.7462,17.0035594 7.8192,16.1171156 6.6797,16.1171156 M6.6797,21.0733594 C4.9612,21.0733594 3.5632,19.7360438 3.5632,18.0932063 C3.5632,16.4498906 4.9612,15.1130531 6.6797,15.1130531 C8.3982,15.1130531 9.7957,16.4498906 9.7957,18.0932063 C9.7957,19.7360438 8.3982,21.0733594 6.6797,21.0733594" id="Fill-14" fill="#FFFFFF"></path>
                    <path d="M16.7344,16.1171156 C15.5954,16.1171156 14.6679,17.0035594 14.6679,18.0932062 C14.6679,19.1828531 15.5954,20.0692969 16.7344,20.0692969 C17.8739,20.0692969 18.8009,19.1828531 18.8009,18.0932062 C18.8009,17.0035594 17.8739,16.1171156 16.7344,16.1171156 M16.7344,21.0733594 C15.0159,21.0733594 13.6184,19.7360438 13.6184,18.0932063 C13.6184,16.4498906 15.0159,15.1130531 16.7344,15.1130531 C18.4529,15.1130531 19.8509,16.4498906 19.8509,18.0932063 C19.8509,19.7360438 18.4529,21.0733594 16.7344,21.0733594" id="Fill-16" fill="#FFFFFF"></path>
                </g>
                <g id="number" transform="translate(6.000000, 27.000000)">
                    <rect id="Rectangle" fill="#01985A" x="0" y="0" width="32" height="14" rx="7"></rect>
                    <text id="8.6.1" font-family="TitilliumWeb-Bold, Titillium Web" font-size="9" font-weight="bold" fill="#FFFFFF">
                        <tspan x="6.636" y="10">8.6.1</tspan>
                    </text>
                </g>
            </g>
        </g>
    </g>
</svg>