<?xml version="1.0" encoding="UTF-8"?>
<svg width="44px" height="44px" viewBox="0 0 44 44" version="1.1" xmlns="http://www.w3.org/2000/svg" xmlns:xlink="http://www.w3.org/1999/xlink">
    <title>icon-421A</title>
    <g id="PSR" stroke="none" stroke-width="1" fill="none" fill-rule="evenodd">
        <g id="icone-bandi-PSR" transform="translate(-234.000000, -362.000000)">
            <g id="icon-421A" transform="translate(234.000000, 362.000000)">
                <g id="Rectangle" fill="#F7F7F7" stroke="#D8D8D8">
                    <rect x="0.5" y="0.5" width="43" height="43" rx="4"></rect>
                </g>
                <path d="M27.7002848,10.2316891 C28.0092021,9.9227703 28.5100722,9.9227703 28.8189369,10.2316891 C29.1278542,10.5406079 29.1278542,11.0414276 28.8189369,11.3503464 L28.8189369,11.3503464 L27.1097664,13.0595248 C28.3110531,14.5610347 28.8154564,16.4396491 28.6231345,18.2581462 L28.6231345,18.2581462 L31.0562938,15.8249756 C31.3652112,15.5160568 31.8660813,15.5160568 32.1749459,15.8249756 C32.4838633,16.1338944 32.4838633,16.6347141 32.1749459,16.9436329 L32.1749459,16.9436329 L29.7461636,19.3724265 C31.5816854,19.1812639 33.4425724,19.688359 34.9407003,20.889915 L34.9407003,20.889915 L36.6496071,19.1810002 C36.9585772,18.8720814 37.4594473,18.8720814 37.768312,19.1809475 C38.0772293,19.4898663 38.0772293,19.990686 37.768312,20.2996048 C37.3111955,20.7566786 35.6000388,22.4678365 34.7624353,23.3054428 L34.4123029,23.6555767 C33.8164056,24.2514767 33.1222117,24.7336284 32.3654749,25.0838384 C32.4568634,25.3589543 32.3938986,25.6740431 32.1749459,25.892944 L32.1749459,25.892944 L31.0562938,27.0116013 C30.4603966,27.6075014 29.7662026,28.0896531 29.0094658,28.439863 C29.1008543,28.714979 29.0378896,29.0300677 28.8189369,29.2489687 L28.8189369,29.2489687 L27.7002848,30.367626 C27.1044402,30.963526 26.4102463,31.4456777 25.6535095,31.7958876 C25.7448452,32.0710036 25.6818805,32.3860923 25.4629805,32.6049933 L25.4629805,32.6049933 L24.3443284,33.7236506 C21.7607182,36.3072728 17.6636344,36.4893651 14.8669251,34.2517341 L14.8669251,34.2517341 L12.3503401,36.7683307 C12.0414228,37.0772495 11.5405527,37.0771967 11.231688,36.7683307 C10.9227707,36.4594119 10.9227707,35.9585922 11.231688,35.6496734 L11.231688,35.6496734 L13.7483257,33.1331822 C11.6063351,30.4559597 11.6792767,26.5789888 13.9679867,23.9840578 C14.1446852,23.9950919 14.3217694,24 14.5,24 C15.5220183,24 16.5063425,23.8386126 17.4288782,23.5399324 L17.4008068,23.6177661 C18.34243,25.027096 18.7271265,26.7006786 18.5552128,28.3262201 L18.5552128,28.3262201 L18.7511733,28.1302587 C20.3407284,26.5405685 20.7598196,24.2168646 20.008447,22.2401116 C20.458885,21.9197906 20.8803069,21.5601656 21.2677155,21.1669378 C21.8335798,22.3601867 22.0476366,23.6803059 21.9112219,24.9701427 L21.9112219,24.9701427 L22.1071824,24.7741813 C23.8252219,23.0559958 24.1758989,20.4802133 23.1591786,18.4119313 C23.6992718,17.2199976 24,15.8951182 24,14.5 C24,14.324796 23.9952571,14.1506997 23.9858928,13.9778325 L24.1262344,13.8157141 L24.1262344,13.8157141 L24.3443284,13.5877137 L24.3443284,13.5877137 Z M23.7451616,32.0855583 C21.5780995,30.4628118 18.4827032,30.6359919 16.5137109,32.6050461 L16.5137109,32.6050461 L15.9942256,33.1245338 C18.161235,34.7472276 21.2565786,34.5741002 23.2256763,32.6050461 L23.2256763,32.6050461 Z M15.9145441,24.254799 L15.3950061,24.7743395 C13.4260138,26.7433936 13.2528872,29.8386988 14.8755208,32.0058237 L14.8755208,32.0058237 L15.3951115,31.4862306 C17.364051,29.5171764 17.5372304,26.421924 15.9145441,24.254799 L15.9145441,24.254799 Z M27.1015398,28.7291118 C24.9544112,27.1164376 21.8602805,27.2583462 19.8696145,29.2490214 L19.8696145,29.2490214 L19.6738122,29.4448247 C21.2993461,29.2729102 22.972921,29.6576085 24.3822444,30.599236 C25.2075885,30.3306064 25.9623214,29.8683356 26.5816327,29.2490214 L26.5816327,29.2490214 Z M30.4576016,25.3730872 C28.310473,23.7604129 25.2163424,23.9023215 23.2256763,25.8929968 L23.2256763,25.8929968 L23.0341982,26.0844758 C24.6964352,25.9113484 26.3534515,26.3121307 27.7403101,27.2426313 C28.5648632,26.9738434 29.3188578,26.5118363 29.9376417,25.8930495 L29.9376417,25.8930495 Z M33.8136107,22.0170625 C31.6664821,20.4043883 28.5724042,20.5462969 26.5816854,22.5369721 L26.5816854,22.5369721 L26.3902072,22.7284512 C28.0523915,22.5553238 29.7094078,22.9560533 31.0963191,23.8866066 C31.9208195,23.6178715 32.6748668,23.1558117 33.2936508,22.5370249 L33.2936508,22.5370249 Z M25.9824659,14.1868306 L25.4629805,14.7063183 C24.8436693,15.3256852 24.3814006,16.0804216 24.1127722,16.9057168 C25.0543954,18.3150467 25.4390919,19.9886294 25.2671782,21.6141181 L25.2671782,21.6141181 L25.4631915,21.4181039 C27.4319728,19.4490498 27.6050994,16.3539028 25.9824659,14.1868306 L25.9824659,14.1868306 Z" id="Combined-Shape" fill="#30373D"></path>
                <g id="settings" transform="translate(7.000000, 7.000000)" fill="#01985A" fill-rule="nonzero">
                    <path d="M7.67679,4.48707 C5.91156,4.48707 4.47546,5.9232 4.47546,7.6884 C4.47546,9.4536 5.91159,10.88973 7.67679,10.88973 C9.44199,10.88973 10.87812,9.4536 10.87812,7.6884 C10.87812,5.9232 9.44202,4.48707 7.67679,4.48707 Z M7.67679,9.60921 C6.61779,9.60921 5.75598,8.7474 5.75598,7.6884 C5.75598,6.6294 6.61779,5.76759 7.67679,5.76759 C8.73642,5.76759 9.5976,6.6294 9.5976,7.6884 C9.5976,8.7474 8.73579,9.60921 7.67679,9.60921 Z" id="Shape"></path>
                    <path d="M14.81064,5.7753 L12.99036,5.48205 L14.07882,4.03506 C14.26962,3.78087 14.24592,3.42618 14.02311,3.20016 L12.20412,1.35555 C11.97873,1.12632 11.6202,1.10007 11.36472,1.29216 L9.87738,2.33709 L9.58926,0.54435 C9.53931,0.23382 9.27168,0.00588 8.95731,0.00588 L6.39624,0.00588 C6.0774,0.00588 5.80719,0.24021 5.76237,0.55524 L5.46273,2.36976 L3.9831,1.28766 C3.72762,1.1007 3.37614,1.12758 3.15267,1.35105 L1.34073,3.1566 C1.11408,3.38196 1.08909,3.73989 1.28118,3.99534 L2.3421,5.48013 L0.54936,5.73624 C0.23433,5.78106 0,6.05127 0,6.37011 L0,8.93118 C0,9.25002 0.23433,9.52023 0.54936,9.56376 L2.36964,9.85701 L1.28118,11.304 C1.08909,11.55948 1.11408,11.91609 1.3401,12.14211 L3.15204,13.95405 C3.37806,14.18133 3.73533,14.2044 3.99015,14.01294 L5.47428,12.95202 L5.73039,14.74476 C5.77521,15.05976 6.04539,15.29412 6.36426,15.29412 L8.92533,15.29412 C9.24417,15.29412 9.51438,15.06042 9.5592,14.74668 L9.85245,12.9264 L11.29944,14.01486 C11.55555,14.20695 11.91216,14.18262 12.13755,13.95597 L13.94949,12.14403 C14.17551,11.91801 14.20047,11.56074 14.00838,11.30592 L12.93081,9.82371 L14.79399,9.60603 C15.1167,9.56889 15.36,9.2955 15.36,8.97024 L15.36,6.40917 C15.36,6.0903 15.12567,5.82012 14.81064,5.7753 Z M14.08011,8.39976 L12.77334,8.55213 C12.29763,8.61423 11.90001,8.9331 11.75211,9.34413 C11.56644,9.76413 11.62086,10.25523 11.89746,10.62852 L12.65169,11.63055 L11.62599,12.65625 L10.61949,11.89881 C10.24878,11.62479 9.75768,11.57034 9.37929,11.74131 C8.92854,11.90457 8.6097,12.30219 8.54757,12.77085 L8.37087,14.0136 L6.92001,14.0136 L6.74265,12.77853 C6.68055,12.30282 6.36168,11.9052 5.95128,11.75796 C5.53191,11.57229 5.0421,11.62542 4.66626,11.90265 L3.66423,12.65688 L2.63853,11.63118 L3.39597,10.62468 C3.66936,10.25526 3.72378,9.76479 3.55347,9.38448 C3.38955,8.93373 2.99259,8.61423 2.52327,8.55276 L1.28052,8.37606 L1.28052,6.9252 L2.51622,6.74784 C2.99193,6.68574 3.38955,6.36687 3.53682,5.95647 C3.72315,5.53647 3.6687,5.04666 3.39276,4.67145 L2.63916,3.67008 L3.66807,2.64438 L4.70337,3.40119 C5.07345,3.67521 5.56326,3.72774 5.94357,3.55869 C6.39495,3.39477 6.71316,2.99589 6.774,2.52915 L6.95136,1.28574 L8.41182,1.28574 L8.6103,2.52018 C8.67177,2.99655 8.98998,3.39477 9.4023,3.54333 C9.82167,3.72774 10.31211,3.67521 10.68474,3.39927 L11.68485,2.65143 L12.72528,3.7053 L11.96529,4.71501 C11.6919,5.08446 11.63748,5.5749 11.80779,5.95584 C11.97171,6.40722 12.37059,6.72543 12.83733,6.78627 L14.08011,6.96363 L14.08011,8.39976 L14.08011,8.39976 Z" id="Shape"></path>
                </g>
            </g>
        </g>
    </g>
</svg>