<?xml version="1.0" encoding="UTF-8"?>
<svg width="44px" height="44px" viewBox="0 0 44 44" version="1.1" xmlns="http://www.w3.org/2000/svg" xmlns:xlink="http://www.w3.org/1999/xlink">
    <title>icon-legge4Bneg</title>
    <g id="PSR" stroke="none" stroke-width="1" fill="none" fill-rule="evenodd">
        <g id="icone-bandi-PSR" transform="translate(-401.000000, -1974.000000)">
            <g id="icon-legge4Bneg" transform="translate(401.000000, 1974.000000)">
                <rect id="Rectangle" fill="#30373D" x="0" y="0" width="44" height="44" rx="4"></rect>
                <g id="Group-17" transform="translate(10.000000, 5.000000)" stroke="#FFFFFF" stroke-linecap="round" stroke-linejoin="round" stroke-width="1.125">
                    <polyline id="Stroke-1" points="0 18.0321429 1.63636364 16.3928571 8.72727273 23.4964286 7.09090909 25.1357143"></polyline>
                    <path d="M9.27272727,16.9392857 L15.8607273,16.9392857 C16.2752727,16.9392857 16.6778182,16.8037714 17.0089091,16.5535071 L21.2727273,13.1142857 C22.6592727,11.930175 24,13.2279429 24,14.2071429 C24,14.9131286 23.4092727,15.4021821 22.9090909,15.8464286 L18,19.6714286 C17.6798182,19.8654107 17.4545455,20.2178571 16.3636364,20.2178571 L9.81818182,20.2178571 C9.42109091,20.2178571 9.00763636,20.4823286 8.72727273,20.7642857 L7.36363636,22.1303571" id="Stroke-3"></path>
                    <path d="M9.81818182,16.9392857 L15.042,16.9392857 C15.7036364,16.9392857 16.2725455,16.543125 16.5289091,15.9742929 C16.7209091,15.5469857 16.7209091,15.0535607 16.5289091,14.6257071 C16.2730909,14.056875 15.7030909,13.6607143 15.042,13.6607143 L7.63636364,13.6607143 C6.81872727,13.6607143 6.03163636,14.1732643 5.45454545,14.7535714 L2.72727273,17.4857143" id="Stroke-5"></path>
                    <path d="M8.26707273,11.73969 L13.6719818,8.99825786 C13.9916182,8.83815429 14.3690727,8.84471143 14.6827091,9.01683643 L19.6190727,11.73969" id="Stroke-7"></path>
                    <path d="M11.0888727,2.65050643 C13.1136,4.03679571 14.1816,5.82634929 14.1816,7.86889929 L14.1816,8.74263857" id="Stroke-9"></path>
                    <path d="M12.8858182,2.14943143 C12.7630909,1.19044929 12.1090909,-0.000218571429 9.81818182,-0.000218571429 C8.47690909,-0.000218571429 7.2,0.874067143 7.2,0.874067143 C7.58181818,2.13139929 8.98636364,4.80835286 10.6909091,4.80835286 C11.352,4.80835286 12.1052727,4.60289571 12.5470909,3.89089929" id="Stroke-11"></path>
                    <path d="M18.0681818,2.15582464 C15.5296364,3.5989425 14.1818182,5.57482821 14.1818182,7.86873536 L14.1818182,8.74302107" id="Stroke-13"></path>
                    <path d="M15.6812727,1.41994929 C16.0216364,0.676806429 16.8185455,-0.000218571429 18.5454545,-0.000218571429 C19.8861818,-0.000218571429 21.1636364,0.874067143 21.1636364,0.874067143 C20.7818182,2.13139929 19.3772727,4.80835286 17.6727273,4.80835286 C17.0110909,4.80835286 16.2583636,4.60289571 15.8165455,3.89035286" id="Stroke-15"></path>
                </g>
                <g id="number" transform="translate(6.000000, 27.000000)">
                    <rect id="Rectangle" fill="#01985A" x="0" y="0" width="32" height="14" rx="7"></rect>
                    <text id="L4" font-family="TitilliumWeb-Bold, Titillium Web" font-size="9" font-weight="bold" fill="#FFFFFF">
                        <tspan x="11.856" y="10">L4</tspan>
                    </text>
                </g>
            </g>
        </g>
    </g>
</svg>