<?xml version="1.0" encoding="UTF-8"?>
<svg width="44px" height="44px" viewBox="0 0 44 44" version="1.1" xmlns="http://www.w3.org/2000/svg" xmlns:xlink="http://www.w3.org/1999/xlink">
    <title>icon-434B</title>
    <g id="PSR" stroke="none" stroke-width="1" fill="none" fill-rule="evenodd">
        <g id="icone-bandi-PSR" transform="translate(-352.000000, -652.000000)">
            <g id="icon-434B" transform="translate(352.000000, 652.000000)">
                <g id="Rectangle" fill="#F7F7F7" stroke="#D8D8D8">
                    <rect x="0.5" y="0.5" width="43" height="43" rx="4"></rect>
                </g>
                <g id="Group-27" transform="translate(7.000000, 4.000000)" stroke="#30373D" stroke-linejoin="round" stroke-width="1.08">
                    <line x1="10.4676923" y1="12.48" x2="6.97846154" y2="12.48" id="Stroke-1"></line>
                    <g id="Group-26">
                        <path d="M10.4676923,12.48 C10.4676923,10.88976 11.8070585,9.6 13.4584615,9.6 C15.1098646,9.6 16.4492308,10.88976 16.4492308,12.48 C16.4492308,14.07024 15.1098646,15.36 13.4584615,15.36 C11.8070585,15.36 10.4676923,14.07024 10.4676923,12.48 Z" id="Stroke-2"></path>
                        <path d="M12.4615385,12.48 C12.4615385,11.95008 12.90816,11.52 13.4584615,11.52 C14.0087631,11.52 14.4553846,11.95008 14.4553846,12.48 C14.4553846,13.00992 14.0087631,13.44 13.4584615,13.44 C12.90816,13.44 12.4615385,13.00992 12.4615385,12.48 Z" id="Stroke-4"></path>
                        <path d="M0,12 C0,10.14432 1.56217846,8.64 3.48923077,8.64 C5.41628308,8.64 6.97846154,10.14432 6.97846154,12 C6.97846154,13.85568 5.41628308,15.36 3.48923077,15.36 C1.56217846,15.36 0,13.85568 0,12 Z" id="Stroke-6"></path>
                        <path d="M2.24307692,12 C2.24307692,11.33712 2.80085538,10.8 3.48923077,10.8 C4.17760615,10.8 4.73538462,11.33712 4.73538462,12 C4.73538462,12.66288 4.17760615,13.2 3.48923077,13.2 C2.80085538,13.2 2.24307692,12.66288 2.24307692,12 Z" id="Stroke-8"></path>
                        <path d="M23.4276923,15.36 L22.7153908,15.36 L18.96696,14.4576 C18.1370215,14.25792 17.8753292,13.24608 18.5113662,12.69504 L20.5794831,10.90272 L21.2912862,10.56" id="Stroke-10"></path>
                        <line x1="20.5792837" y1="10.902672" x2="22.7156898" y2="15.359952" id="Stroke-12"></line>
                        <line x1="15.9507692" y1="13.44" x2="18.4430769" y2="13.44" id="Stroke-14"></line>
                        <polyline id="Stroke-16" points="13.1561945 1.63008 12.4613391 2.98224 12.4613391 6.24"></polyline>
                        <path d="M0.996923077,9.6 L0.996923077,5.76 L2.24307692,4.8 L6.06677538,4.8 C6.33145846,4.8 6.58517538,4.90128 6.77209846,5.08128 L7.97538462,6.24 L14.4553846,6.24 C15.0056862,6.24 15.4523077,6.67008 15.4523077,7.2 L15.4523077,10.56" id="Stroke-18"></path>
                        <line x1="9.96923077" y1="6.24" x2="7.97538462" y2="0" id="Stroke-20"></line>
                        <line x1="4.48615385" y1="0" x2="4.48615385" y2="4.8" id="Stroke-22"></line>
                        <path d="M2.16910523,4.89072 L2.65311138,0.85008 C2.71093292,0.36576 3.13711754,0 3.64355446,0 L9.47056985,0" id="Stroke-24"></path>
                    </g>
                </g>
                <g id="wind" transform="translate(5.000000, 18.000000)" fill="#01985A" fill-rule="nonzero">
                    <path d="M33.2335742,2.99802667 C31.2403626,1.61248 28.9812271,0.0419733333 24.6114813,0.0419733333 C20.2417355,0.0419733333 17.9826,1.61242667 15.9893884,2.99802667 C14.1044284,4.30832 12.4765084,5.44 9.0810271,5.44 C5.68580903,5.44 4.05795484,4.30837333 2.17312645,2.99813333 L2.17299484,2.99802667 C1.62127355,2.61461333 0.790467097,2.66613333 0.317187097,3.11322667 C-0.156027097,3.56037333 -0.0923922581,4.23381333 0.459329032,4.61733333 C2.45247484,6.00293333 4.71154452,7.57333333 9.0810271,7.57333333 C13.4507729,7.57333333 15.7099084,6.00288 17.70312,4.61728 C19.58808,3.30698667 21.216,2.17530667 24.6114813,2.17530667 C28.0070284,2.17530667 29.6349484,3.30698667 31.5198426,4.61728 C32.0716297,5.0008 32.9025019,4.94928 33.3757161,4.50213333 C33.8489303,4.05493333 33.7853613,3.38154667 33.2335742,2.99802667 Z" id="Path"></path>
                </g>
                <g id="number" transform="translate(6.000000, 27.000000)">
                    <rect id="Rectangle" fill="#01985A" x="0" y="0" width="32" height="14" rx="7"></rect>
                    <text id="4.3.4" font-family="TitilliumWeb-Bold, Titillium Web" font-size="9" font-weight="bold" fill="#FFFFFF">
                        <tspan x="6.636" y="10">4.3.4</tspan>
                    </text>
                </g>
            </g>
        </g>
    </g>
</svg>