<?xml version="1.0" encoding="UTF-8"?>
<svg width="44px" height="44px" viewBox="0 0 44 44" version="1.1" xmlns="http://www.w3.org/2000/svg" xmlns:xlink="http://www.w3.org/1999/xlink">
    <title>icon-641A</title>
    <g id="PSR" stroke="none" stroke-width="1" fill="none" fill-rule="evenodd">
        <g id="icone-bandi-PSR" transform="translate(-234.000000, -1310.000000)">
            <g id="icon-641A" transform="translate(234.000000, 1310.000000)">
                <g id="Rectangle" fill="#F7F7F7" stroke="#D8D8D8">
                    <rect x="0.5" y="0.5" width="43" height="43" rx="4"></rect>
                </g>
                <path d="M22.0803783,10.7280385 C21.5255272,10.7280385 21.0756501,10.2700409 21.0756501,9.70517449 L21.0756501,6.02286402 C21.0756501,5.45799759 21.5255272,5 22.0803783,5 C22.6352293,5 23.0851064,5.45799759 23.0851064,6.02286402 L23.0851064,9.70517449 C23.0851064,10.2700409 22.6352293,10.7280385 22.0803783,10.7280385 M13.8820378,13.7148014 C13.6127707,13.7148014 13.3443073,13.6053141 13.1464161,13.3889579 L10.9762033,11.0159134 C10.598104,10.6024308 10.6208511,9.95524428 11.026922,9.5703201 C11.4330733,9.18523225 12.0688652,9.20855355 12.4469645,9.62187244 L14.6171773,11.994917 C14.9952766,12.4083995 14.9725296,13.055586 14.5664586,13.4405102 C14.3729078,13.6240529 14.1271111,13.7148014 13.8820378,13.7148014 M30.0778534,13.7148014 C29.8326998,13.7148014 29.5869835,13.6240529 29.3934326,13.4405102 C28.9872813,13.055586 28.9645343,12.4083995 29.3427139,11.994917 L31.5128463,9.62187244 C31.891026,9.20847172 32.5267376,9.18531408 32.9328889,9.5703201 C33.3389598,9.95524428 33.3617069,10.6024308 32.9836076,11.0159134 L30.8133948,13.3889579 C30.6155035,13.6053141 30.3470402,13.7148014 30.0778534,13.7148014 M9.74231678,22.7569194 L6.00472813,22.7569194 C5.44987707,22.7569194 5,22.2989218 5,21.7340554 C5,21.1691889 5.44987707,20.7111913 6.00472813,20.7111913 L9.74231678,20.7111913 C10.2971678,20.7111913 10.7470449,21.1691889 10.7470449,21.7340554 C10.7470449,22.2989218 10.2971678,22.7569194 9.74231678,22.7569194 M37.9952719,22.7569194 L34.2174941,22.7569194 C33.662643,22.7569194 33.212766,22.2989218 33.212766,21.7340554 C33.212766,21.1691889 33.662643,20.7111913 34.2174941,20.7111913 L37.9952719,20.7111913 C38.5501229,20.7111913 39,21.1691889 39,21.7340554 C39,22.2989218 38.5501229,22.7569194 37.9952719,22.7569194 M22.7242884,27.871485 C22.65026,27.871485 22.575026,27.8630566 22.4997116,27.845627 C21.958766,27.7197738 21.6203735,27.171355 21.7438345,26.6207268 L22.6288794,22.6750903 L20.5531915,22.6750903 C20.2467896,22.6750903 19.9571064,22.5327894 19.7665296,22.2885295 C19.5759527,22.0443514 19.5052199,21.7249723 19.5744255,21.421059 L20.7399102,16.3067389 C20.8653002,15.7563562 21.4051206,15.4137377 21.9457447,15.5414729 C22.4862884,15.6692082 22.8228322,16.2187726 22.6974421,16.7690734 L21.8177021,20.6293622 L23.8888889,20.6293622 C24.1946478,20.6293622 24.4837683,20.7710903 24.6744255,21.0145319 C24.8650827,21.2579735 24.9364586,21.5764525 24.8684586,21.8798748 L23.702974,27.0760241 C23.5965532,27.550142 23.1825248,27.871485 22.7242884,27.871485 M22.1607565,31.7581227 C19.4577967,31.7581227 17.1093853,30.7625897 15.1807896,28.7990999 C13.2787991,26.8627774 12.3144208,24.4857232 12.3144208,21.7340554 C12.3144208,18.9583297 13.2769504,16.5557449 15.1753239,14.5928279 C15.1789409,14.5890638 15.1826383,14.5853815 15.1863357,14.5816173 C17.1143688,12.649059 19.4609314,11.6690734 22.1607565,11.6690734 C24.8903215,11.6690734 27.2387329,12.6508592 29.1407234,14.5871817 C31.0693191,16.5506715 32.0472813,18.9552202 32.0472813,21.7340554 C32.0472813,22.7705848 31.9110402,23.7588351 31.6408085,24.688414 L32.2644634,24.4559374 C32.7854752,24.2615933 33.362591,24.5341661 33.553409,25.0646643 C33.744227,25.5951625 33.476487,26.1826137 32.9553948,26.3767942 L30.1019669,27.4405728 C29.7937967,27.5556245 29.4500189,27.5099639 29.1809929,27.3185656 C28.9589078,27.1605535 28.8109314,26.9196486 28.7660804,26.6523947 L27.8818392,24.0300987 C27.7017116,23.4957545 27.9811064,22.9139495 28.505896,22.7305704 C29.0308463,22.5471913 29.6023357,22.8314657 29.7824634,23.3658099 L29.8499811,23.5661276 C29.9748889,22.9831769 30.0378251,22.3711769 30.0378251,21.7340554 C30.0378251,19.4862912 29.279617,17.6217329 27.7197967,16.0337569 C26.1870638,14.4733574 24.3686667,13.7148014 22.1607565,13.7148014 C19.9793712,13.7148014 18.160974,14.4732756 16.6017163,16.0337569 C15.0689031,17.6212419 14.3238771,19.4858002 14.3238771,21.7340554 C14.3238771,23.9543249 15.0689031,25.7921252 16.6017163,27.3525247 C18.1614563,28.9404188 19.9798534,29.7123947 22.1607565,29.7123947 C23.5354657,29.7123947 24.7915366,29.3974344 25.8942459,28.7764332 C25.9064634,28.7696414 25.9187612,28.7629314 25.9312199,28.7566306 C26.1391584,28.6507437 26.3397021,28.5216992 26.5272246,28.3731793 C26.9652861,28.0263875 27.5964965,28.1064982 27.9372199,28.5523851 C28.2779433,28.998272 28.1991726,29.6409579 27.7611915,29.9878315 C27.4750449,30.2144164 27.1683215,30.4124428 26.8491395,30.5765921 C25.4495934,31.3606787 23.8724113,31.7581227 22.1607565,31.7581227 M11.7113428,34.0493381 C11.4661891,34.0493381 11.2205532,33.9585897 11.026922,33.7750469 C10.6208511,33.3901227 10.598104,32.7429362 10.9762033,32.3294537 L13.1464161,29.9564091 C13.5245957,29.5430084 14.1603073,29.5198508 14.5664586,29.9048568 C14.9725296,30.289781 14.9952766,30.9369675 14.6171773,31.3504501 L12.4469645,33.7234946 C12.2490733,33.9398508 11.9805296,34.0493381 11.7113428,34.0493381 M32.2484681,34.0493381 C31.9792009,34.0493381 31.7107376,33.9398508 31.5128463,33.7234946 L29.3427139,31.3504501 C28.9645343,30.9369675 28.9872813,30.289781 29.3934326,29.9048568 C29.7995839,29.519769 30.4352955,29.5430084 30.8133948,29.9564091 L32.9836076,32.3294537 C33.3617069,32.7429362 33.3389598,33.3901227 32.9328889,33.7750469 C32.7393381,33.9585897 32.4935414,34.0493381 32.2484681,34.0493381 M22.0803783,39 C21.5255272,39 21.0756501,38.5420024 21.0756501,37.977136 L21.0756501,34.0084236 C21.0756501,33.4435572 21.5255272,32.9855596 22.0803783,32.9855596 C22.6352293,32.9855596 23.0851064,33.4435572 23.0851064,34.0084236 L23.0851064,37.977136 C23.0851064,38.5420024 22.6352293,39 22.0803783,39" id="Fill-1" fill="#30373D"></path>
            </g>
        </g>
    </g>
</svg>