<?xml version="1.0" encoding="UTF-8"?>
<svg width="44px" height="44px" viewBox="0 0 44 44" version="1.1" xmlns="http://www.w3.org/2000/svg" xmlns:xlink="http://www.w3.org/1999/xlink">
    <title>icon-1931Bneg</title>
    <g id="PSR" stroke="none" stroke-width="1" fill="none" fill-rule="evenodd">
        <g id="icone-bandi-PSR" transform="translate(-401.000000, -1832.000000)">
            <g id="icon-1931Bneg" transform="translate(401.000000, 1832.000000)">
                <rect id="Rectangle" fill="#30373D" x="0" y="0" width="44" height="44" rx="4"></rect>
                <g id="users" transform="translate(8.000000, 3.000000)" fill-rule="nonzero">
                    <path d="M25.0036719,19.9493984 C25.3416953,19.4335859 25.5390625,18.8176953 25.5390625,18.15625 C25.5390625,16.9117813 24.8426172,15.8268906 23.8190313,15.2708281 C23.6454531,13.9163828 23.1824141,12.5837031 22.4654609,11.389 C21.7497656,10.1964297 20.7951406,9.1616875 19.6903438,8.374625 C19.4369219,6.78699219 18.2692344,5.50134375 16.7458594,5.07434375 C17.0838828,4.55858594 17.28125,3.94269531 17.28125,3.28125 C17.28125,1.47196875 15.8092812,0 14,0 C12.1907188,0 10.71875,1.47196875 10.71875,3.28125 C10.71875,3.94269531 10.9161172,4.55858594 11.2541406,5.07439844 C9.73076563,5.50134375 8.56307813,6.78704687 8.30965625,8.37467969 C7.20485937,9.1616875 6.25023437,10.1964844 5.53453906,11.3890547 C4.81758594,12.5837578 4.35454687,13.9163828 4.18096875,15.2708828 C3.15738281,15.8268906 2.4609375,16.9117813 2.4609375,18.15625 C2.4609375,18.8176953 2.65830469,19.4335859 2.99632812,19.9493984 C1.2700625,20.4332188 0,22.0197578 0,23.8984375 L0,27.1796875 C0,27.6327187 0.36728125,28 0.8203125,28 L10.6640625,28 C11.1170937,28 11.484375,27.6327187 11.484375,27.1796875 L11.484375,26.0323437 C12.2544844,26.2129766 13.0960156,26.3046875 14,26.3046875 C14.9039297,26.3046875 15.7455156,26.2129766 16.515625,26.0323437 L16.515625,27.1796875 C16.515625,27.6327187 16.8829063,28 17.3359375,28 L27.1796875,28 C27.6327187,28 28,27.6327187 28,27.1796875 L28,23.8984375 C28,22.0197578 26.7299375,20.4332188 25.0036719,19.9493984 Z M23.8984375,18.15625 C23.8984375,19.0608906 23.1624531,19.796875 22.2578125,19.796875 C21.3531719,19.796875 20.6171875,19.0608906 20.6171875,18.15625 C20.6171875,17.2516094 21.3531719,16.515625 22.2578125,16.515625 C23.1624531,16.515625 23.8984375,17.2516094 23.8984375,18.15625 Z M14,1.640625 C14.9046406,1.640625 15.640625,2.37660938 15.640625,3.28125 C15.640625,4.18589063 14.9046406,4.921875 14,4.921875 C13.0953594,4.921875 12.359375,4.18589063 12.359375,3.28125 C12.359375,2.37660938 13.0953594,1.640625 14,1.640625 Z M9.8984375,9.0234375 C9.8984375,7.66647656 11.0024141,6.5625 12.359375,6.5625 L15.640625,6.5625 C16.9975859,6.5625 18.1015625,7.66647656 18.1015625,9.0234375 L18.1015625,11.484375 L9.8984375,11.484375 L9.8984375,9.0234375 Z M5.7421875,16.515625 C6.64682813,16.515625 7.3828125,17.2516094 7.3828125,18.15625 C7.3828125,19.0608906 6.64682813,19.796875 5.7421875,19.796875 C4.83754688,19.796875 4.1015625,19.0608906 4.1015625,18.15625 C4.1015625,17.2516094 4.83754688,16.515625 5.7421875,16.515625 Z M9.84375,26.359375 L1.640625,26.359375 L1.640625,23.8984375 C1.640625,22.5414766 2.74460156,21.4375 4.1015625,21.4375 L7.3828125,21.4375 C8.73977344,21.4375 9.84375,22.5414766 9.84375,23.8984375 L9.84375,26.359375 Z M16.515625,23.8984375 L16.515625,24.3361016 C15.7756484,24.5512969 14.9176562,24.6640625 14,24.6640625 C13.0822891,24.6640625 12.2243516,24.5512969 11.484375,24.3361016 L11.484375,23.8984375 C11.484375,22.0197578 10.2143125,20.4332188 8.48804688,19.9493984 C8.82607031,19.4335859 9.0234375,18.8176953 9.0234375,18.15625 C9.0234375,16.4028594 7.64099219,14.9663281 5.908875,14.8792109 C6.244875,13.2548828 7.07946094,11.7266406 8.2578125,10.5573672 L8.2578125,12.3046875 C8.2578125,12.7577187 8.62509375,13.125 9.078125,13.125 L18.921875,13.125 C19.3749063,13.125 19.7421875,12.7577187 19.7421875,12.3046875 L19.7421875,10.5573672 C20.9205391,11.7266406 21.755125,13.2548828 22.091125,14.8792109 C20.3590078,14.9663281 18.9765625,16.4028594 18.9765625,18.15625 C18.9765625,18.8176953 19.1739297,19.4335859 19.5119531,19.9493984 C17.7856875,20.4332188 16.515625,22.0197578 16.515625,23.8984375 Z M26.359375,26.359375 L18.15625,26.359375 L18.15625,23.8984375 C18.15625,22.5414766 19.2602266,21.4375 20.6171875,21.4375 L23.8984375,21.4375 C25.2553984,21.4375 26.359375,22.5414766 26.359375,23.8984375 L26.359375,26.359375 Z" id="Shape" fill="#FFFFFF"></path>
                    <path d="M17.0409531,15.0605547 C16.7206484,14.7401953 16.2012266,14.7401953 15.8808672,15.0605547 L13.1796875,17.7617891 L12.1190781,16.7011797 C11.7987734,16.3808203 11.2793516,16.3808203 10.9589922,16.7011797 C10.6386328,17.0215391 10.6386328,17.5409063 10.9589922,17.8612656 L12.5996172,19.5018906 C12.9199219,19.8221953 13.4393438,19.82225 13.7597031,19.5018906 L17.0409531,16.2206406 C17.3613125,15.9003359 17.3613125,15.3809141 17.0409531,15.0605547 Z" id="Path" fill="#01985A"></path>
                </g>
                <g id="number" transform="translate(6.000000, 27.000000)">
                    <rect id="Rectangle" fill="#01985A" x="0" y="0" width="32" height="14" rx="7"></rect>
                    <text id="19.3.1" font-family="TitilliumWeb-Bold, Titillium Web" font-size="9" font-weight="bold" fill="#FFFFFF">
                        <tspan x="4.116" y="10">19.3.1</tspan>
                    </text>
                </g>
            </g>
        </g>
    </g>
</svg>