<?xml version="1.0" encoding="UTF-8"?>
<svg width="44px" height="44px" viewBox="0 0 44 44" version="1.1" xmlns="http://www.w3.org/2000/svg" xmlns:xlink="http://www.w3.org/1999/xlink">
    <title>icon-851Aneg</title>
    <defs>
        <polygon id="path-1" points="0 0.000195 31.6877935 0.000195 31.6877935 36.580765 0 36.580765"></polygon>
    </defs>
    <g id="PSR" stroke="none" stroke-width="1" fill="none" fill-rule="evenodd">
        <g id="icone-bandi-PSR" transform="translate(-286.000000, -1388.000000)">
            <g id="icon-851Aneg" transform="translate(286.000000, 1388.000000)">
                <rect id="Rectangle" fill="#30373D" x="0" y="0" width="44" height="44" rx="4"></rect>
                <g id="Group-3" transform="translate(6.000000, 3.000000)">
                    <mask id="mask-2" fill="white">
                        <use xlink:href="#path-1"></use>
                    </mask>
                    <g id="Clip-2"></g>
                    <path d="M20.5591226,30.942665 C16.0448516,30.942665 12.771871,30.356365 11.2662194,30.019665 L14.9478194,24.612965 C16.7211871,24.846315 18.6019097,24.970465 20.5591226,24.970465 C22.5163355,24.970465 24.397729,24.846315 26.1710968,24.612965 L29.8526968,30.019665 C28.3470452,30.356365 25.0740645,30.942665 20.5591226,30.942665 L20.5591226,30.942665 Z M21.3139613,35.154665 C20.9409032,35.220965 20.1773419,35.220315 19.8049548,35.156615 L19.8049548,32.299215 C20.0545548,32.303115 20.301471,32.307665 20.5591226,32.307665 C20.8174452,32.307665 21.0636903,32.303115 21.3139613,32.299215 L21.3139613,35.154665 Z M13.1502968,34.073715 C12.8470194,34.133515 12.4404129,34.137415 12.147871,34.079565 L12.147871,31.596565 C12.4511484,31.651815 12.7886452,31.708365 13.1502968,31.764915 L13.1502968,34.073715 Z M6.82374194,25.092665 C5.8656,24.163815 5.33754839,22.933365 5.33754839,21.626215 C5.33754839,21.065265 5.43416774,20.523165 5.62606452,20.007715 C5.87432258,19.320665 6.28830968,18.683015 6.81032258,18.176665 C6.89083871,18.103215 6.96665806,18.034315 7.04717419,17.964115 C7.33703226,17.712565 7.36185806,17.280965 7.10219355,17.000815 C6.84252903,16.719365 6.39767742,16.695315 6.10714839,16.947515 C6.01723871,17.025515 5.93202581,17.103515 5.82735484,17.198415 C5.35096774,17.660565 4.95576774,18.200065 4.64913548,18.777265 C2.63824516,17.420065 1.40903226,15.205515 1.40903226,12.820665 C1.40903226,10.889515 2.19205161,9.067565 3.61450323,7.690215 C4.17006452,7.150715 4.81620645,6.707415 5.50864516,6.361615 C5.49992258,6.496815 5.49052903,6.632015 5.49052903,6.768515 C5.49052903,8.503365 6.17491613,10.156315 7.41620645,11.423815 C7.55442581,11.564865 7.74095484,11.636365 7.9268129,11.636365 C8.10193548,11.636365 8.27571613,11.573315 8.41192258,11.448515 C8.6944,11.189165 8.70580645,10.756915 8.43809032,10.483265 C7.4464,9.471215 6.90023226,8.151715 6.90023226,6.768515 C6.90023226,6.471465 6.92572903,6.177015 6.97739355,5.889065 C7.16660645,4.771715 7.70740645,3.757715 8.54007742,2.953665 C9.59819355,1.928615 10.9978323,1.365065 12.4820129,1.365065 C13.9628387,1.365065 15.3611355,1.928615 16.4199226,2.954315 C17.4766968,3.975465 18.0590968,5.329415 18.0590968,6.768515 C18.0590968,6.951815 18.0483613,7.131215 18.0289032,7.308015 C18.0201806,7.397715 18.0309161,7.484815 18.0564129,7.566715 C17.1371871,7.227415 16.160929,7.022665 15.1685677,6.987565 C14.7814194,6.982365 14.4526452,7.268365 14.4385548,7.645365 C14.4244645,8.021715 14.7290839,8.338915 15.1175742,8.351915 C16.1106065,8.387015 17.0533161,8.608015 17.9369806,8.992165 L14.331871,15.041065 C14.2251871,15.221115 14.2077419,15.437565 14.2862452,15.631265 C14.3640774,15.824315 14.5291355,15.973165 14.7337806,16.034265 C14.7713548,16.045315 15.1719226,16.162965 15.8771097,16.294915 L10.9696516,22.870965 C10.836129,23.049065 10.7998968,23.279165 10.8723613,23.487165 C10.9441548,23.696465 11.1159226,23.858965 11.3333161,23.922665 C11.3695484,23.934365 12.1042581,24.148215 13.416671,24.381565 L12.1706839,26.212615 C11.6037161,26.421265 11.0105806,26.532415 10.4020129,26.532415 C9.05336774,26.532415 7.78255484,26.021515 6.82374194,25.092665 L6.82374194,25.092665 Z M20.5591226,7.321665 L25.0941935,14.930565 C24.1877161,15.106715 22.6169806,15.334865 20.5591226,15.334865 C18.5019355,15.334865 16.930529,15.106715 16.0247226,14.930565 L20.5591226,7.321665 Z M28.3987097,22.854715 C27.9223226,22.956765 27.2788645,23.079615 26.4877935,23.195965 C24.6332387,23.468315 22.6391226,23.606115 20.5591226,23.606115 C18.4791226,23.606115 16.4850065,23.468315 14.6311226,23.195965 C13.8400516,23.079615 13.1965935,22.956765 12.7202065,22.854715 L17.4424774,16.527615 C18.304671,16.626415 19.3486968,16.700515 20.5591226,16.700515 C21.7695484,16.700515 22.8142452,16.626415 23.6764387,16.527615 L28.3987097,22.854715 Z M31.5717161,30.066465 L27.7022452,24.381565 C29.0146581,24.148215 29.7486968,23.934365 29.7856,23.922665 C30.0029935,23.858965 30.1747613,23.696465 30.2465548,23.487165 C30.3190194,23.279165 30.2821161,23.049065 30.1492645,22.870965 L25.2418065,16.294915 C25.9463226,16.162965 26.3475613,16.045315 26.3851355,16.034265 C26.5897806,15.973165 26.7541677,15.824315 26.832671,15.631265 C26.9105032,15.437565 26.893729,15.221115 26.7863742,15.041065 L21.1697032,5.615415 C20.9174194,5.193565 20.2008258,5.193565 19.9492129,5.615415 L19.4520258,6.449365 C19.3708387,4.765865 18.6602839,3.190265 17.4149677,1.988415 C16.0911484,0.705965 14.3392516,6.49999999e-05 12.4820129,6.49999999e-05 C10.6214194,6.49999999e-05 8.86750968,0.705965 7.54503226,1.987765 C6.7371871,2.766465 6.15143226,3.707015 5.81729032,4.739215 C4.62900645,5.170165 3.52459355,5.846165 2.61811613,6.724315 C0.92996129,8.359715 0,10.524865 0,12.820665 C0,15.768415 1.56805161,18.506215 4.12779355,20.094165 C3.99695484,20.588165 3.92851613,21.101015 3.92851613,21.626215 C3.92851613,23.297365 4.60283871,24.871665 5.82735484,26.057265 C7.05187097,27.244165 8.67695484,27.896765 10.4020129,27.896765 C10.5154065,27.896765 10.6267871,27.887015 10.7388387,27.881165 L10.7388387,28.315365 L9.54652903,30.066465 C9.42508387,30.245865 9.39690323,30.469465 9.47138065,30.672265 C9.54585806,30.874415 9.71427097,31.031065 9.92562581,31.094115 C9.96722581,31.106465 10.2443355,31.188365 10.7388387,31.304715 L10.7388387,34.588515 C10.7388387,34.863465 10.9085935,35.111115 11.1696,35.217715 C11.2387097,35.245665 11.8674065,35.494615 12.6289548,35.494615 C13.3811097,35.494615 14.04,35.252165 14.1124645,35.224215 C14.3815226,35.121515 14.559329,34.869315 14.559329,34.588515 L14.559329,31.957965 C15.663071,32.091865 16.9466323,32.203665 18.3959226,32.262815 L18.3959226,35.670765 C18.3959226,35.932065 18.5489032,36.169965 18.7904516,36.284365 C18.8957935,36.333765 19.4721548,36.580765 20.5591226,36.580765 C21.6487742,36.580765 22.2271484,36.327915 22.3324903,36.277865 C22.5720258,36.162165 22.7229935,35.925565 22.7229935,35.666865 L22.7229935,32.262815 C27.9478194,32.050915 31.0470194,31.138315 31.1932903,31.094115 C31.4039742,31.031065 31.5723871,30.874415 31.6468645,30.672265 C31.7220129,30.469465 31.6938323,30.245865 31.5717161,30.066465 L31.5717161,30.066465 Z" id="Fill-1" fill="#FFFFFF" mask="url(#mask-2)"></path>
                </g>
            </g>
        </g>
    </g>
</svg>