<?xml version="1.0" encoding="UTF-8"?>
<svg width="60px" height="60px" viewBox="0 0 60 60" version="1.1" xmlns="http://www.w3.org/2000/svg" xmlns:xlink="http://www.w3.org/1999/xlink">
    <title>4FAD0BE1-19CF-4594-B1F5-41B59DB54C51</title>
    <g id="Page-1" stroke="none" stroke-width="1" fill="none" fill-rule="evenodd">
        <g id="icone" transform="translate(-124.000000, -327.000000)">
            <g id="intervento/1011" transform="translate(124.000000, 327.000000)">
                <rect id="Rectangle" fill="#30373D" x="0" y="0" width="60" height="60" rx="5.44"></rect>
                <path d="M52.4837006,14.2563279 L51.9679029,13.0638352 L50.7574625,13.4582307 C47.2896826,14.5879998 43.2467918,15.8917943 41.461965,16.4665434 C40.8561562,15.963731 40.1757306,15.521874 39.4234954,15.1440435 C39.0026892,14.9327003 38.5704732,14.7471353 38.1318278,14.5830675 C38.6840284,13.2667097 39.2324257,11.2005537 39.2324257,8.18181818 L36.3932743,8.18181818 C36.3932743,10.565966 35.9969177,12.1553668 35.6645832,13.0690467 C35.5547407,13.3709388 35.4446266,13.6201581 35.3450168,13.8205199 C33.3950188,13.4530192 31.4915658,13.3901095 30.0001351,13.3901095 C28.5087045,13.3901095 26.6052515,13.4529262 24.6552535,13.8205199 C24.5555531,13.6201581 24.4455296,13.3709388 24.3356871,13.0690467 C24.0031714,12.1553668 23.606996,10.565966 23.606996,8.18181818 L20.7678446,8.18181818 C20.7678446,11.2005537 21.3161514,13.2668028 21.8684425,14.5830675 C21.4297971,14.7471353 20.9975811,14.9326073 20.5767749,15.1440435 C19.8245396,15.5217809 19.1442046,15.9636379 18.5383053,16.4665434 C16.7534785,15.8917012 12.7106782,14.5881859 9.24280777,13.4582307 L8.03209573,13.0638352 L7.51629799,14.2563279 C6.85017999,15.796406 6.32224796,18.0578985 7.58955649,20.08562 C9.20323551,22.6671517 12.8817355,23.4622709 15.0400085,23.7072093 C15.0112122,24.0843884 14.9953652,24.469943 14.9953652,24.8652691 C14.9953652,28.3774178 15.7829166,30.5321685 16.780192,33.2600863 C17.112436,34.1689269 17.4559993,35.108757 17.8117875,36.2074435 C18.7356233,39.0603431 19.8526115,42.0022097 21.754344,44.1917655 C23.8206138,46.5707949 26.517776,47.7272727 30.0000446,47.7272727 C33.4823132,47.7272727 36.1794754,46.5707949 38.2457452,44.1917655 C40.1475682,42.0022097 41.2644659,39.0604362 42.1883922,36.2074435 C42.544271,35.108664 42.8877437,34.1688338 43.2199877,33.2600863 C44.2171725,30.5320755 45.0048145,28.3774178 45.0048145,24.8652691 C45.0048145,24.469943 44.9888769,24.0844814 44.9601712,23.7072093 C47.1184443,23.4622709 50.7967631,22.6672447 52.4106232,20.08562 C53.6777507,18.0578985 53.1497281,15.796406 52.4837006,14.2563279 Z M15.5939296,20.8292761 C13.8014963,20.643711 10.9353597,20.0399267 9.97819988,18.5085033 C9.61290352,17.9239827 9.60556861,17.2512396 9.71242278,16.6716514 C12.1747774,17.4717959 14.7415413,18.3007895 16.4833548,18.8622308 C16.1212278,19.4701099 15.8243,20.1264741 15.5939296,20.8292761 Z M29.9998635,44.809323 C25.830921,44.809323 23.6274613,42.8046808 21.9173419,39.0381014 C23.824236,37.354336 26.825842,36.3347519 29.9998635,36.3347519 C33.1740661,36.3347519 36.1755815,37.354429 38.0823851,39.0381014 C36.3722656,42.8045877 34.1688965,44.809323 29.9998635,44.809323 Z M40.5618545,32.2338949 C40.236221,33.1247746 39.8670308,34.1346802 39.4942184,35.2861327 C39.3910769,35.6046829 39.2873922,35.9137408 39.1833452,36.2171219 C36.7893591,34.439085 33.5071251,33.4169883 29.9998635,33.4169883 C26.4926019,33.4169883 23.2103679,34.439085 20.8163818,36.2171219 C20.7122442,35.9137408 20.60865,35.6046829 20.5055086,35.2861327 C20.1326962,34.1346802 19.763506,33.1247746 19.4378725,32.2338949 C18.5069734,29.6872613 17.8344261,27.8473384 17.8344261,24.8651761 C17.8344261,21.4360384 19.1391336,19.1136835 21.8231653,17.7654056 C23.7756083,16.7846283 26.4502224,16.3078731 29.9998635,16.3078731 C33.5495046,16.3078731 36.2242092,16.7846283 38.1765616,17.7654056 C40.860684,19.1136835 42.1653009,21.4361314 42.1653009,24.8651761 C42.1653009,27.8473384 41.4927535,29.6872613 40.5618545,32.2338949 Z M33.1769182,37.9780753 C33.9132818,37.9780753 34.5112909,38.6049838 34.5112909,39.3783234 C34.5112909,40.151663 33.9132818,40.7785714 33.1769182,40.7785714 C32.4396545,40.7785714 31.8415636,40.151663 31.8416455,39.3783234 C31.8416455,38.6049838 32.4396545,37.9780753 33.1769182,37.9780753 Z M27.7945091,37.9888373 C28.5256364,37.9888373 29.1196364,38.6105766 29.1197182,39.3783234 C29.1197182,40.1459854 28.5256364,40.7682331 27.7945091,40.7682331 C27.0643636,40.7682331 26.4701182,40.1459006 26.4701182,39.3783234 C26.4701182,38.6105766 27.0643636,37.9888373 27.7945091,37.9888373 Z M34.7467636,23.4284269 C35.6826818,23.4284269 36.4427727,24.2252396 36.4427727,25.2082266 C36.4427727,26.1912136 35.6826818,26.9880263 34.7467636,26.9880263 C33.8097818,26.9880263 33.0496909,26.1912136 33.0496909,25.2082266 C33.0496909,24.2252396 33.8097818,23.4284269 34.7467636,23.4284269 Z M26.2218818,23.4421549 C27.1510909,23.4421549 27.9062727,24.2323578 27.9062727,25.2081419 C27.9062727,26.1837565 27.1510909,26.9747221 26.2218818,26.9747221 C25.2937364,26.9747221 24.5385545,26.1837565 24.5385545,25.2081419 C24.5385545,24.2324425 25.2938182,23.4421549 26.2218818,23.4421549 Z M50.2873042,16.6716514 C50.3940678,17.2504952 50.3870045,17.9223076 50.0229759,18.5062698 C49.0722455,20.0311789 46.2002229,20.6384996 44.4051634,20.8272287 C44.1748836,20.1250781 43.8781369,19.4695515 43.5163722,18.8622308 C45.2580951,18.3006965 47.8249495,17.4717959 50.2873042,16.6716514 Z" id="Shape" fill="#FFFFFF"></path>
                <g id="Group" transform="translate(30.000000, 35.454545)">
                    <rect id="Rectangle" fill="#01985A" x="0" y="0" width="17.1818182" height="17.1818182" rx="8.568"></rect>
                    <g id="warning" transform="translate(7.363636, 2.454545)" fill="#FFFFFF" fill-rule="nonzero">
                        <path d="M1.63104545,9.00238909 C0.963409091,9.00238909 0.403772727,9.56202545 0.403772727,10.2296618 C0.403772727,10.8972982 0.963409091,11.4569345 1.63104545,11.4569345 C2.27413636,11.4569345 2.85831818,10.8972982 2.82886364,10.2591164 C2.85831818,9.55711636 2.30359091,9.00238909 1.63104545,9.00238909 Z" id="Path"></path>
                        <path d="M1.32668182,0.386934545 C0.7425,0.553843636 0.379227273,1.08402545 0.379227273,1.72711636 C0.408681818,2.11493455 0.433227273,2.50766182 0.462681818,2.89548 C0.546136364,4.37311636 0.629590909,5.82129818 0.713045455,7.29893455 C0.7425,7.79966182 1.13031818,8.16293455 1.63104545,8.16293455 C2.13177273,8.16293455 2.5245,7.77511636 2.54904545,7.26948 C2.54904545,6.96511636 2.54904545,6.68529818 2.5785,6.37602545 C2.6325,5.42857091 2.69140909,4.48111636 2.74540909,3.53366182 C2.77486364,2.92002545 2.82886364,2.30638909 2.85831818,1.69275273 C2.85831818,1.47184364 2.82886364,1.27548 2.74540909,1.07911636 C2.49504545,0.529298182 1.91086364,0.24948 1.32668182,0.386934545 Z" id="Path"></path>
                    </g>
                </g>
            </g>
        </g>
    </g>
</svg>