<?xml version="1.0" encoding="UTF-8"?>
<svg width="60px" height="60px" viewBox="0 0 60 60" version="1.1" xmlns="http://www.w3.org/2000/svg" xmlns:xlink="http://www.w3.org/1999/xlink">
    <title>30C730D7-1ACD-4B69-98F0-6134AC80767F</title>
    <defs>
        <polygon id="path-1" points="0.0412163763 0.0416085863 14.373409 0.0416085863 14.373409 12.5065865 0.0412163763 12.5065865"></polygon>
        <polygon id="path-3" points="0 28.3757227 34.1007975 28.3757227 34.1007975 0.07016625 0 0.07016625"></polygon>
    </defs>
    <g id="Page-1" stroke="none" stroke-width="1" fill="none" fill-rule="evenodd">
        <g id="icone" transform="translate(-124.000000, -604.000000)">
            <g id="intervento/1011" transform="translate(124.000000, 604.000000)">
                <rect id="Rectangle" fill="#30373D" x="0" y="0" width="60" height="60" rx="5.44"></rect>
                <polygon id="Fill-1" fill="#01985A" points="39.8569955 40.9090909 39.8569955 44.5882515 20.1430045 44.5882515 20.1430045 40.9090909 9.54545455 47.0454545 20.1430045 53.1818182 20.1430045 49.5026576 39.8569955 49.5026576 39.8569955 53.1818182 50.4545455 47.0454545"></polygon>
                <g id="Group-11" transform="translate(12.272727, 8.181818)">
                    <g id="Group-3" transform="translate(16.489069, 0.028558)">
                        <mask id="mask-2" fill="white">
                            <use xlink:href="#path-1"></use>
                        </mask>
                        <g id="Clip-2"></g>
                        <path d="M0.31609194,11.0926386 C0.31609194,11.0926386 -1.57776531,4.29570412 4.57672697,1.32086562 C4.57672697,1.32086562 8.6804001,-0.833168086 14.373409,0.4489798 C14.373409,0.4489798 14.2192537,9.52715939 7.91060617,11.6814036 C7.91060617,11.6814036 4.50459607,13.2459706 1.27329992,12.0664058 C1.27329992,12.0664058 2.71746168,7.49423263 9.92332506,4.10211544 C9.92332506,4.10211544 3.59874978,4.98908701 0.31609194,11.0926386" id="Fill-1" fill="#FFFFFF" mask="url(#mask-2)"></path>
                    </g>
                    <path d="M16.0281607,10.9659955 C16.0281607,10.9659955 17.2347395,6.63610641 13.3139898,4.7407055 C13.3139898,4.7407055 10.6995953,3.36853431 7.07291237,4.18555013 C7.07291237,4.18555013 7.17128545,9.96886295 11.1900574,11.3411745 C11.1900574,11.3411745 13.359668,12.3378159 15.4187668,11.5864757 C15.4187668,11.5864757 14.4983961,8.67373431 9.9079797,6.51261381 C9.9079797,6.51261381 13.9368556,7.07780295 16.0281607,10.9659955" id="Fill-4" fill="#FFFFFF"></path>
                    <path d="M2.96095962,21.733603 L2.96095962,25.6548439 L5.70186384,25.6548439 C6.76881184,25.6548439 7.44570565,25.6247426 7.73247512,25.5647504 C8.172628,25.4846907 8.53096704,25.2896987 8.8077729,24.9794937 C9.08443842,24.6694291 9.2229466,24.2542554 9.2229466,23.734113 C9.2229466,23.2939601 9.11622373,22.9206055 8.90284817,22.6138386 C8.68933227,22.3070718 8.38102176,22.0836624 7.97756583,21.9436106 C7.57403972,21.8034886 6.69871575,21.733603 5.35166409,21.733603 L2.96095962,21.733603 Z M2.96095962,15.9018053 L2.96095962,19.2927998 L4.90161776,19.2927998 C6.05529124,19.2927998 6.77217982,19.2762406 7.05221332,19.2427011 C7.55895398,19.182709 7.95756845,19.0076442 8.24763572,18.7176471 C8.537703,18.4275798 8.68280681,18.0458754 8.68280681,17.5722532 C8.68280681,17.1188389 8.55770038,16.7503959 8.30762787,16.4668541 C8.05755535,16.1835228 7.68574439,16.0116857 7.19233532,15.9516935 C6.8988299,15.9184347 6.05529124,15.9018053 4.66143869,15.9018053 L2.96095962,15.9018053 Z M1.403325e-05,13.4610021 L5.86184289,13.4610021 C7.02225233,13.4610021 7.88747236,13.5094168 8.45771348,13.6059656 C9.02788442,13.7027249 9.53799306,13.904523 9.98817972,14.2112197 C10.4383664,14.5180567 10.813405,14.9262839 11.113506,15.4365329 C11.4136773,15.9467117 11.5636225,16.5186368 11.5636225,17.1520977 C11.5636225,17.8389551 11.3786643,18.4692586 11.0084672,19.0426572 C10.6383402,19.6163364 10.136441,20.0463854 9.50305027,20.3330145 C10.3966175,20.5931909 11.0834749,21.0367118 11.5636225,21.6635069 C12.0439105,22.2904424 12.2838791,23.0273283 12.2838791,23.874235 C12.2838791,24.5411652 12.1288818,25.1895715 11.8188172,25.8197346 C11.5087525,26.4499678 11.0851589,26.9536913 10.5483169,27.3303438 C10.0114749,27.7072067 9.34959668,27.9389658 8.56268219,28.0256913 C8.06920295,28.0789475 6.87883252,28.1122765 4.99164106,28.1255379 L1.403325e-05,28.1255379 L1.403325e-05,13.4610021 Z" id="Fill-6" fill="#FFFFFF"></path>
                    <mask id="mask-4" fill="white">
                        <use xlink:href="#path-3"></use>
                    </mask>
                    <g id="Clip-9"></g>
                    <polygon id="Fill-8" fill="#FFFFFF" mask="url(#mask-4)" points="14.6946371 28.1255098 17.6555827 28.1255098 17.6555827 13.4609741 14.6946371 13.4609741"></polygon>
                    <path d="M22.9272362,20.7832783 C22.9272362,22.4437626 23.3106947,23.702475 24.0776118,24.5593452 C24.8444588,25.416426 25.8180857,25.8448611 26.9984925,25.8448611 C28.1789695,25.8448611 29.1474742,25.4195835 29.9044277,24.5694492 C30.6613111,23.7191044 31.039858,22.4437626 31.039858,20.7432836 C31.039858,19.0627317 30.6711343,17.8090713 29.9344589,16.9820217 C29.1975028,16.1552528 28.2188941,15.7416228 26.9984925,15.7416228 C25.7780909,15.7416228 24.7943601,16.1602346 24.0476508,16.9970373 C23.3005908,17.8340505 22.9272362,19.0960607 22.9272362,20.7832783 M19.8764076,20.8832652 C19.8764076,19.3894959 20.0996766,18.1358356 20.5465655,17.1220034 C20.8799253,16.3752942 21.3350236,15.7050662 21.9119305,15.1114597 C22.4886269,14.5180637 23.1206144,14.0779108 23.8075419,13.7910712 C24.7211065,13.404385 25.7746528,13.2109366 26.9686017,13.2109366 C29.1293012,13.2109366 30.8580572,13.8810945 32.1552207,15.2214804 C33.4521035,16.5619364 34.1007905,18.4258327 34.1007905,20.8131692 C34.1007905,23.1807188 33.4570853,25.0329674 32.1701661,26.3699853 C30.8830364,27.7072137 29.1624898,28.3756876 27.0085964,28.3756876 C24.8278995,28.3756876 23.093881,27.7105115 21.8069618,26.3800191 C20.519762,25.0495968 19.8764076,23.2174157 19.8764076,20.8832652" id="Fill-10" fill="#FFFFFF" mask="url(#mask-4)"></path>
                </g>
            </g>
        </g>
    </g>
</svg>