<?xml version="1.0" encoding="UTF-8"?>
<svg width="60px" height="60px" viewBox="0 0 60 60" version="1.1" xmlns="http://www.w3.org/2000/svg" xmlns:xlink="http://www.w3.org/1999/xlink">
    <title>A4147BD8-90F2-4B67-B2D6-A56CE5BBE155</title>
    <g id="Page-1" stroke="none" stroke-width="1" fill="none" fill-rule="evenodd">
        <g id="icone" transform="translate(-124.000000, -419.000000)">
            <g id="intervento/1011" transform="translate(124.000000, 419.000000)">
                <rect id="Rectangle" fill="#30373D" x="0" y="0" width="60" height="60" rx="5.44"></rect>
                <path d="M29.9949799,8.47431139 C34.2028897,8.47431139 36.672972,16.6895408 37.4610187,25.7589807 L38.3443656,24.3094029 C38.6266344,23.8464821 39.1723541,23.6169034 39.7017649,23.7411017 C40.2292939,23.8646727 40.6181976,24.3131665 40.6652424,24.8532408 C42.4655963,45.36463 33.4754863,51.0496698 30.7463954,52.290709 C30.6934614,52.3425893 30.634534,52.3896132 30.5711219,52.4313416 C30.3641248,52.5680852 30.1232554,52.6383387 29.8811315,52.6383387 L29.7601118,52.6321262 C29.718012,52.6364108 29.6759815,52.6385269 29.6341777,52.6385269 C29.2979224,52.6385269 28.9773379,52.5018964 28.7440207,52.2671873 C26.0784048,50.986469 17.5452807,45.2523613 19.3355691,24.8530526 C19.3807322,24.3399506 19.7345091,23.905884 20.2294203,23.7597314 C20.7218226,23.6142062 21.2562515,23.7841947 21.5736471,24.1906618 L21.593552,24.2161886 L21.593552,24.2161886 L21.6636903,24.3065304 C21.8106886,24.4963643 22.1121643,24.8884059 22.5193153,25.4317835 C23.2920303,16.5758474 25.7716477,8.47431139 29.9949799,8.47431139 Z M21.6288463,28.4573115 C21.1778435,42.3681453 26.1771376,47.6095633 28.7646016,49.3803295 C28.893818,46.9114184 28.9615625,42.5312339 28.1084835,39.4959034 C27.2892767,36.5803803 23.8763332,31.5610138 21.6288463,28.4573115 Z M38.3845105,29.064064 L31.1948105,40.858509 C31.1392836,40.9496696 31.0740041,41.0311965 31.0011324,41.1025839 C31.4183817,43.8926779 31.3899754,46.99524 31.2950666,49.0827534 C34.0639513,47.0962093 38.6329574,41.8673929 38.3845105,29.064064 Z M29.9949799,10.9833674 C28.196614,10.9833674 25.3218631,17.2415803 24.8294609,28.5561683 L24.8232503,28.61652 C26.7818071,31.423711 29.094313,35.0221941 30.15789,37.7411182 L35.1897757,29.4833146 C35.1801539,29.4284622 35.1740746,29.3723321 35.1717897,29.3151578 C34.6862874,17.1092276 31.5913668,10.9833674 29.9949799,10.9833674 Z M32.2351343,24.783489 C32.9432114,24.783489 33.5178827,25.3455176 33.5178827,26.038017 C33.5178827,26.7305165 32.9432114,27.292545 32.2351343,27.292545 L27.2734632,27.292545 C26.5647447,27.292545 25.9907147,26.7305165 25.9907147,26.038017 C25.9907147,25.3455176 26.5647447,24.783489 27.2734632,24.783489 L32.2351343,24.783489 Z M31.4081891,20.392641 C31.8802405,20.392641 32.2633547,20.9546696 32.2633547,21.647169 C32.2633547,22.3396685 31.8802405,22.901697 31.4081891,22.901697 L28.1004084,22.901697 C27.6279294,22.901697 27.2452427,22.3396685 27.2452427,21.647169 C27.2452427,20.9546696 27.6279294,20.392641 28.1004084,20.392641 L31.4081891,20.392641 Z" id="Combined-Shape" fill="#FFFFFF"></path>
                <g id="Group" transform="translate(34.090909, 35.454545)">
                    <rect id="Rectangle" fill="#01985A" x="0" y="0" width="17.1818182" height="17.1818182" rx="8.568"></rect>
                    <g id="warning" transform="translate(7.363636, 2.454545)" fill="#FFFFFF" fill-rule="nonzero">
                        <path d="M1.63104545,9.00238909 C0.963409091,9.00238909 0.403772727,9.56202545 0.403772727,10.2296618 C0.403772727,10.8972982 0.963409091,11.4569345 1.63104545,11.4569345 C2.27413636,11.4569345 2.85831818,10.8972982 2.82886364,10.2591164 C2.85831818,9.55711636 2.30359091,9.00238909 1.63104545,9.00238909 Z" id="Path"></path>
                        <path d="M1.32668182,0.386934545 C0.7425,0.553843636 0.379227273,1.08402545 0.379227273,1.72711636 C0.408681818,2.11493455 0.433227273,2.50766182 0.462681818,2.89548 C0.546136364,4.37311636 0.629590909,5.82129818 0.713045455,7.29893455 C0.7425,7.79966182 1.13031818,8.16293455 1.63104545,8.16293455 C2.13177273,8.16293455 2.5245,7.77511636 2.54904545,7.26948 C2.54904545,6.96511636 2.54904545,6.68529818 2.5785,6.37602545 C2.6325,5.42857091 2.69140909,4.48111636 2.74540909,3.53366182 C2.77486364,2.92002545 2.82886364,2.30638909 2.85831818,1.69275273 C2.85831818,1.47184364 2.82886364,1.27548 2.74540909,1.07911636 C2.49504545,0.529298182 1.91086364,0.24948 1.32668182,0.386934545 Z" id="Path"></path>
                    </g>
                </g>
            </g>
        </g>
    </g>
</svg>