<?xml version="1.0" encoding="UTF-8"?>
<svg width="60px" height="60px" viewBox="0 0 60 60" version="1.1" xmlns="http://www.w3.org/2000/svg" xmlns:xlink="http://www.w3.org/1999/xlink">
    <title>FC49235A-F1BA-4446-87FD-28DC9C99F058</title>
    <g id="Page-1" stroke="none" stroke-width="1" fill="none" fill-rule="evenodd">
        <g id="icone" transform="translate(-124.000000, -677.000000)">
            <g id="intervento/1011" transform="translate(124.000000, 677.000000)">
                <rect id="Rectangle" fill="#30373D" x="0" y="0" width="60" height="60" rx="5.44"></rect>
                <polyline id="Path-3" stroke="#01985A" stroke-width="3.4" stroke-linecap="round" stroke-linejoin="round" points="5.45454545 28.6363636 16.3636364 15 21.8181818 21.8181818 31.3636364 9.54545455 39.5454545 21.8181818 45 15 54.5454545 30"></polyline>
                <g id="Group-14" transform="translate(6.818182, 32.366310)" fill="#FFFFFF">
                    <path d="M44.4886364,14.3609398 C45.3364773,14.3609398 46.0227273,15.0471898 46.0227273,15.8950307 C46.0227273,16.7428717 45.3364773,17.4291217 44.4886364,17.4291217 L35.2840909,17.4291217 C34.43625,17.4291217 33.75,16.7428717 33.75,15.8950307 C33.75,15.0471898 34.43625,14.3609398 35.2840909,14.3609398 L44.4886364,14.3609398 Z M12.3315341,14.470883 C13.1180114,14.785883 13.5005102,15.6787239 13.1855114,16.4652012 C12.9461932,17.0645194 12.369375,17.429633 11.7608523,17.429633 C11.570625,17.429633 11.3783523,17.3938376 11.1911932,17.3191785 C6.62667788,15.4935686 1.97653674,15.3898846 1.56211849,15.384462 L1.53255682,15.3841785 L1.53255682,15.3841785 C0.685738636,15.382133 -0.000511363636,14.6948603 0.000510221983,13.8480421 C0.00153409091,13.0012239 0.687784091,12.3159967 1.53357955,12.3159967 L1.62107621,12.3166318 C2.36047724,12.3257266 7.31149694,12.4624827 12.3315341,14.470883 Z M22.0510227,13.7871898 C22.6493182,14.386508 22.6493182,15.3580989 22.0510227,15.9574171 C21.7513636,16.2570762 21.3586364,16.4063944 20.9659091,16.4063944 C20.5731818,16.4063944 20.1804545,16.2570762 19.8807955,15.9574171 C13.4082256,9.4838492 2.20672538,9.25480714 1.56228814,9.24752775 L1.53409091,9.24730348 L1.53409091,9.24730348 C0.68625,9.24730348 0,8.56105348 0,7.71321257 C0,6.86537166 0.68625,6.17912166 1.53409091,6.17912166 L1.58914221,6.17934716 C2.6314262,6.18700135 14.7017868,6.43795395 22.0510227,13.7871898 Z M30.36375,12.9137807 C30.8802273,13.5857126 30.7544318,14.5491217 30.0835227,15.0655989 C29.8043182,15.2793489 29.475,15.3836671 29.14875,15.3836671 C28.6885227,15.3836671 28.2334091,15.1780989 27.9317045,14.7853717 C18.3385227,2.31525802 1.78875,3.09968984 1.62204545,3.10889439 C0.770113636,3.14468984 0.0521590909,2.51059893 0.00306818182,1.66480348 C-0.045,0.820030749 0.598295455,0.0949171123 1.44409091,0.0448034759 C2.18556818,-0.000196524064 19.7621591,-0.867469251 30.36375,12.9137807 Z M44.4886364,8.2245762 C45.3364773,8.2245762 46.0227273,8.9108262 46.0227273,9.75866711 C46.0227273,10.606508 45.3364773,11.292758 44.4886364,11.292758 L33.2386364,11.292758 C32.3907955,11.292758 31.7045455,10.606508 31.7045455,9.75866711 C31.7045455,8.9108262 32.3907955,8.2245762 33.2386364,8.2245762 L44.4886364,8.2245762 Z M44.4886364,2.08821257 C45.3364773,2.08821257 46.0227273,2.77446257 46.0227273,3.62230348 C46.0227273,4.47014439 45.3364773,5.15639439 44.4886364,5.15639439 L29.1477273,5.15639439 C28.2998864,5.15639439 27.6136364,4.47014439 27.6136364,3.62230348 C27.6136364,2.77446257 28.2998864,2.08821257 29.1477273,2.08821257 L44.4886364,2.08821257 Z" id="Combined-Shape"></path>
                </g>
            </g>
        </g>
    </g>
</svg>