<?xml version="1.0" encoding="UTF-8"?>
<svg width="60px" height="60px" viewBox="0 0 60 60" version="1.1" xmlns="http://www.w3.org/2000/svg" xmlns:xlink="http://www.w3.org/1999/xlink">
    <title>B2D710A1-8084-4EAC-9204-7D1B2DA0479A</title>
    <g id="Page-1" stroke="none" stroke-width="1" fill="none" fill-rule="evenodd">
        <g id="icone" transform="translate(-124.000000, -235.000000)">
            <g id="intervento/1011" transform="translate(124.000000, 235.000000)">
                <rect id="Rectangle" fill="#30373D" x="0" y="0" width="60" height="60" rx="5.45454545"></rect>
                <polygon id="Fill-1" fill="#01985A" points="50.4506897 42.2727273 47.6263488 45.0758917 44.8022833 42.2727273 44.8017325 42.2727273 41.9773916 45.0758917 39.1533261 42.2727273 39.1527753 42.2727273 36.3287098 45.0758917 33.5046443 42.2727273 33.5040935 42.2727273 30.6797526 45.0758917 27.8559625 42.2727273 27.8554117 42.2727273 25.0310708 45.0758917 22.2070053 42.2727273 22.2064545 42.2727273 19.382389 45.0758917 16.5583235 42.2727273 16.5577727 42.2727273 13.7334318 45.0758917 10.9093663 42.2727273 10.9090909 42.2727273 10.9090909 50.4545455 50.4545455 50.4545455 50.4545455 42.2762804 50.4512405 42.2727273"></polygon>
                <path d="M45.8708475,13.9442374 L45.506755,13.0807082 L44.6523265,13.366305 C42.2044818,14.1844136 39.3506766,15.1285407 38.0907988,15.5447383 C37.6631691,15.1806328 37.1828687,14.8606674 36.6518791,14.587066 C36.3548394,14.4340244 36.0497458,14.2996497 35.7401137,14.180842 C36.1299024,13.2276174 36.5170064,11.7314355 36.5170064,9.54545455 L34.5128995,9.54545455 C34.5128995,11.2719064 34.2331184,12.4228518 33.9985293,13.0844821 C33.9209934,13.3030936 33.8432658,13.4835627 33.772953,13.6286524 C32.3964838,13.3625312 31.0528699,13.3169759 30.0000954,13.3169759 C28.9473208,13.3169759 27.6037069,13.3624638 26.2272378,13.6286524 C26.156861,13.4835627 26.0791973,13.3030936 26.0016615,13.0844821 C25.7669445,12.4228518 25.4872913,11.2719064 25.4872913,9.54545455 L23.4831844,9.54545455 C23.4831844,11.7314355 23.8702245,13.2276848 24.2600771,14.180842 C23.950445,14.2996497 23.6453513,14.433957 23.3483117,14.587066 C22.8173221,14.8606 22.3370856,15.1805654 21.9093919,15.5447383 C20.6495142,15.1284733 17.7957729,14.1845484 15.3478643,13.366305 L14.493244,13.0807082 L14.1291515,13.9442374 C13.6589506,15.0594664 13.2862927,16.6970989 14.1808634,18.1654489 C15.3199309,20.034834 17.9165192,20.6106099 19.440006,20.7879791 C19.4196792,21.0611088 19.4084931,21.3403035 19.4084931,21.6265742 C19.4084931,24.1698543 19.9644117,25.730191 20.6683708,27.7055797 C20.902896,28.3637057 21.1454113,29.0442723 21.3965559,29.8398729 C22.0486752,31.9057657 22.8371375,34.0360829 24.1795369,35.6216233 C25.6380803,37.3443687 27.5419595,38.1818182 30.0000315,38.1818182 C32.4581034,38.1818182 34.3619826,37.3443687 35.820526,35.6216233 C37.1629893,34.0360829 37.9513877,31.9058331 38.603571,29.8398729 C38.8547795,29.044205 39.0972309,28.3636383 39.331756,27.7055797 C40.0356512,25.7301236 40.5916338,24.1698543 40.5916338,21.6265742 C40.5916338,21.3403035 40.5803837,21.0611762 40.5601209,20.7879791 C42.0836077,20.6106099 44.6800681,20.0349013 45.8192635,18.1654489 C46.7137063,16.6970989 46.3409845,15.0594664 45.8708475,13.9442374 Z M19.8310092,18.7039585 C18.5657621,18.5695838 16.5426068,18.1323607 15.8669646,17.0233989 C15.6091084,16.6001254 15.6039308,16.1129666 15.6793573,15.6932648 C17.41749,16.2726798 19.2293233,16.8729855 20.4588386,17.2795464 C20.2032196,17.7197347 19.9936235,18.1950329 19.8310092,18.7039585 Z M29.9999036,36.0688201 C27.0571207,36.0688201 25.5017374,34.6171827 24.2945943,31.8896596 C25.6406372,30.6703812 27.7594179,29.9320617 29.9999036,29.9320617 C32.2405172,29.9320617 34.359234,30.6704486 35.705213,31.8896596 C34.4980699,34.6171153 32.9427505,36.0688201 29.9999036,36.0688201 Z M37.4554267,26.9624756 C37.2255677,27.6075954 36.9649629,28.3389063 36.7018012,29.1727167 C36.6289955,29.403391 36.5558062,29.6271916 36.4823613,29.8468814 C34.7924888,28.5593374 32.4756177,27.8191984 29.9999036,27.8191984 C27.5241895,27.8191984 25.2073185,28.5593374 23.5174459,29.8468814 C23.4439371,29.6271916 23.3708118,29.403391 23.2980061,29.1727167 C23.0348444,28.3389063 22.7742395,27.6075954 22.5443806,26.9624756 C21.8872754,25.1183617 21.4125361,23.7860036 21.4125361,21.6265068 C21.4125361,19.1433381 22.333506,17.4616329 24.2281167,16.4852937 C25.6063117,15.7750756 27.4942746,15.4298392 29.9999036,15.4298392 C32.5055326,15.4298392 34.3935595,15.7750756 35.7716906,16.4852937 C37.6663651,17.4616329 38.5872712,19.1434055 38.5872712,21.6265068 C38.5872712,23.7860036 38.1125319,25.1183617 37.4554267,26.9624756 Z M32.2425305,31.1220545 C32.7623166,31.1220545 33.1844406,31.5760227 33.1844406,32.1360273 C33.1844406,32.6960318 32.7623166,33.15 32.2425305,33.15 C31.7221091,33.15 31.2999273,32.6960318 31.299985,32.1360273 C31.299985,31.5760227 31.7221091,31.1220545 32.2425305,31.1220545 Z M28.4431829,31.1298477 C28.9592727,31.1298477 29.3785668,31.5800727 29.3786246,32.1360273 C29.3786246,32.6919205 28.9592727,33.1425136 28.4431829,33.1425136 C27.9277861,33.1425136 27.5083187,32.6918591 27.5083187,32.1360273 C27.5083187,31.5800727 27.9277861,31.1298477 28.4431829,31.1298477 Z M33.3506567,20.5861023 C34.0113048,20.5861023 34.5478396,21.1631045 34.5478396,21.8749227 C34.5478396,22.5867409 34.0113048,23.1637432 33.3506567,23.1637432 C32.6892578,23.1637432 32.152723,22.5867409 32.152723,21.8749227 C32.152723,21.1631045 32.6892578,20.5861023 33.3506567,20.5861023 Z M27.333093,20.5960432 C27.9890053,20.5960432 28.5220749,21.1682591 28.5220749,21.8748614 C28.5220749,22.5813409 27.9890053,23.1541091 27.333093,23.1541091 C26.6779316,23.1541091 26.144862,22.5813409 26.144862,21.8748614 C26.144862,21.1683205 26.6779893,20.5960432 27.333093,20.5960432 Z M44.32045,15.6932648 C44.3958126,16.1124275 44.3908267,16.5989124 44.1338654,17.0217816 C43.4627616,18.1260261 41.4354514,18.56581 40.1683507,18.702476 C40.0058002,18.1940221 39.796332,17.7193304 39.5409686,17.2795464 C40.4867005,16.9667554 41.7770749,16.5394023 43.113407,16.0950898 L43.9183317,15.827248 C44.0526085,15.7825288 44.1867475,15.7378352 44.32045,15.6932648 Z" id="Shape" fill="#FFFFFF"></path>
            </g>
        </g>
    </g>
</svg>