<?xml version="1.0" encoding="UTF-8"?>
<svg width="60px" height="60px" viewBox="0 0 60 60" version="1.1" xmlns="http://www.w3.org/2000/svg" xmlns:xlink="http://www.w3.org/1999/xlink">
    <title>42968337-A1C3-4A14-99F1-1E3779508F7A</title>
    <g id="Page-1" stroke="none" stroke-width="1" fill="none" fill-rule="evenodd">
        <g id="icone" transform="translate(-124.000000, -120.000000)">
            <g id="intervento/1011" transform="translate(124.000000, 120.000000)">
                <rect id="Rectangle" fill="#30373D" x="0" y="0" width="60" height="60" rx="5.45454545"></rect>
                <path d="M19.9409303,47.7272727 C16.5319325,47.7272727 13.1406149,46.0851915 11.0838223,43.124884 C10.7747468,42.6804795 10.8867212,42.0712153 11.3326543,41.7649541 C11.7779325,41.456738 12.3895353,41.5675134 12.6986107,42.0119179 C15.2039556,45.6173287 20.1164223,46.8339024 23.8822975,44.7832557 C25.726928,43.7784584 27.1269352,42.0295116 27.7215126,39.9847295 C28.2931713,38.0187934 28.0777352,35.9844373 27.1144936,34.2563423 C26.1997087,32.6155643 24.6170065,31.376184 22.7717212,30.8574949 C21.009598,30.362264 19.1924699,30.5636145 17.6556052,31.4270103 C16.2012479,32.242838 15.1103162,33.6444716 14.6624187,35.2702623 C14.2380947,36.8113425 14.4286476,38.3934747 15.1993719,39.7260366 C15.9242587,40.9791009 17.1566317,41.9109169 18.5808672,42.2836432 C19.9153922,42.6355178 21.2774198,42.4563224 22.417463,41.7871091 C23.4808922,41.1615544 24.2653677,40.1104921 24.5672402,38.9030411 C24.8461939,37.7887717 24.6831435,36.6588635 24.106901,35.721183 C23.5758413,34.8558323 22.6964167,34.227671 21.6945407,33.998301 C20.7921975,33.791086 19.883306,33.9377004 19.1381198,34.4120794 C18.4721669,34.8369353 17.9797416,35.5524135 17.8219297,36.3278408 C17.6824529,37.0120413 17.8114526,37.6884223 18.1860102,38.2325246 C18.5127658,38.7069037 19.0484093,39.0444426 19.6167939,39.1350177 C19.9514074,39.1884505 20.4366297,39.1793278 20.8845272,38.8378792 C21.166755,38.6234964 21.3677851,38.2638024 21.397252,37.9203989 C21.4070743,37.7959396 21.3952876,37.6806029 21.360582,37.5763438 C21.2951,37.8571918 21.1065115,38.1054588 20.8255933,38.2383892 C20.2951884,38.4892627 19.715017,38.3804423 19.3450432,37.9666639 C18.8663691,37.4310326 18.9036939,36.5715465 19.2127694,36.0821802 C19.5316672,35.5771751 20.0417727,35.2676558 20.6494465,35.2103133 C21.3566531,35.1431965 22.1371997,35.4422898 22.6355184,35.9740114 C23.1665782,36.5389655 23.4213035,37.2883279 23.3545118,38.0839554 C23.2792074,38.978629 22.8011881,39.8413732 22.0769561,40.3919917 C21.2944451,40.9862687 20.3128686,41.2286712 19.305754,41.0651147 C18.1991066,40.8891774 17.1998498,40.2590614 16.5659832,39.3370197 C15.8882435,38.3524226 15.6498887,37.1462749 15.8961014,35.9388239 C16.1619587,34.6368881 16.9575661,33.4802634 18.0792743,32.7654368 C19.2717033,32.0056485 20.7116545,31.7658525 22.13589,32.0936171 C23.6491812,32.4402787 24.9784677,33.3909916 25.7838975,34.7020501 C26.6358195,36.0899996 26.8813773,37.7490229 26.4734239,39.3761169 C26.0445162,41.0879214 24.9306658,42.5801301 23.4167198,43.4695908 C21.821576,44.4085745 19.9258694,44.6581448 18.0799292,44.1746431 C16.1521363,43.6689863 14.4816881,42.4035412 13.4968375,40.7008594 C12.4628752,38.913467 12.2042209,36.8009165 12.7680218,34.753528 C13.3534317,32.6279451 14.7829058,30.7949394 16.6897443,29.7243285 C18.687603,28.6035429 21.0371005,28.3383338 23.3067099,28.9769209 C25.6516236,29.6357083 27.665198,31.2145824 28.8320889,33.3082359 C30.0507107,35.4944194 30.3263903,38.0585422 29.6087065,40.5281802 C28.8694137,43.0694964 27.1256255,45.245254 24.8245848,46.4983183 C23.2968875,47.3310881 21.616617,47.7272727 19.9409303,47.7272727" id="Fill-1" fill="#FFFFFF"></path>
                <path d="M39.0318394,47.7272727 C35.6228416,47.7272727 32.231524,46.0851915 30.1747314,43.124884 C29.8656559,42.6804795 29.9776303,42.0712153 30.4235634,41.7649541 C30.8688416,41.456738 31.4804443,41.5675134 31.7895198,42.0119179 C34.2948647,45.6173287 39.2073314,46.8339024 42.9732066,44.7832557 C44.8178371,43.7784584 46.2178443,42.0295116 46.8124217,39.9847295 C47.3840804,38.0187934 47.1686443,35.9844373 46.2054027,34.2563423 C45.2906178,32.6155643 43.7079156,31.376184 41.8626302,30.8574949 C40.1005071,30.362264 38.283379,30.5636145 36.7465143,31.4270103 C35.292157,32.242838 34.2012253,33.6444716 33.7533278,35.2702623 C33.3290038,36.8113425 33.5195567,38.3934747 34.290281,39.7260366 C35.0151677,40.9791009 36.2475407,41.9109169 37.6717763,42.2836432 C39.0063013,42.6355178 40.3683289,42.4563224 41.5083721,41.7871091 C42.5718013,41.1615544 43.3562768,40.1104921 43.6581492,38.9030411 C43.937103,37.7887717 43.7740526,36.6588635 43.1978101,35.721183 C42.6667504,34.8558323 41.7873258,34.227671 40.7854498,33.998301 C39.8831066,33.791086 38.9742151,33.9377004 38.2290289,34.4120794 C37.563076,34.8369353 37.0706507,35.5524135 36.9128388,36.3278408 C36.773362,37.0120413 36.9023617,37.6884223 37.2769192,38.2325246 C37.6036749,38.7069037 38.1393184,39.0444426 38.707703,39.1350177 C39.0423165,39.1884505 39.5275388,39.1793278 39.9754363,38.8378792 C40.2576641,38.6234964 40.4586942,38.2638024 40.4881611,37.9203989 C40.4979834,37.7959396 40.4861966,37.6806029 40.4514911,37.5763438 C40.386009,37.8571918 40.1974206,38.1054588 39.9165024,38.2383892 C39.3860975,38.4892627 38.8059261,38.3804423 38.4359523,37.9666639 C37.9572782,37.4310326 37.994603,36.5715465 38.3036785,36.0821802 C38.6225763,35.5771751 39.1326818,35.2676558 39.7403556,35.2103133 C40.4475622,35.1431965 41.2281088,35.4422898 41.7264275,35.9740114 C42.2574873,36.5389655 42.5122126,37.2883279 42.4454209,38.0839554 C42.3701165,38.978629 41.8920972,39.8413732 41.1678652,40.3919917 C40.3853542,40.9862687 39.4037776,41.2286712 38.396663,41.0651147 C37.2900157,40.8891774 36.2907589,40.2590614 35.6568923,39.3370197 C34.9791526,38.3524226 34.7407978,37.1462749 34.9870104,35.9388239 C35.2528677,34.6368881 36.0484752,33.4802634 37.1701834,32.7654368 C38.3626124,32.0056485 39.8025636,31.7658525 41.2267991,32.0936171 C42.7400903,32.4402787 44.0693768,33.3909916 44.8748065,34.7020501 C45.7267286,36.0899996 45.9722864,37.7490229 45.564333,39.3761169 C45.1354253,41.0879214 44.0215749,42.5801301 42.5076289,43.4695908 C40.9124851,44.4085745 39.0167785,44.6581448 37.1708383,44.1746431 C35.2430454,43.6689863 33.5725972,42.4035412 32.5877465,40.7008594 C31.5537843,38.913467 31.29513,36.8009165 31.8589308,34.753528 C32.4443408,32.6279451 33.8738149,30.7949394 35.7806534,29.7243285 C37.7785121,28.6035429 40.1280096,28.3383338 42.397619,28.9769209 C44.7425327,29.6357083 46.7561071,31.2145824 47.922998,33.3082359 C49.1416197,35.4944194 49.4172994,38.0585422 48.6996156,40.5281802 C47.9603228,43.0694964 46.2165346,45.245254 43.9154939,46.4983183 C42.3877966,47.3310881 40.7075261,47.7272727 39.0318394,47.7272727" id="Fill-1" fill="#FFFFFF"></path>
                <path d="M29.4863848,28.6363636 C26.077387,28.6363636 22.6860694,26.9942824 20.6292769,24.0339749 C20.3202014,23.5895704 20.4321758,22.9803062 20.8781088,22.674045 C21.323387,22.365829 21.9349898,22.4766043 22.2440653,22.9210088 C24.7494102,26.5264196 29.6618768,27.7429933 33.427752,25.6923466 C35.2723826,24.6875493 36.6723897,22.9386025 37.2669671,20.8938204 C37.8386258,18.9278843 37.6231897,16.8935282 36.6599481,15.1654332 C35.7451633,13.5246552 34.1624611,12.2852749 32.3171757,11.7665858 C30.5550526,11.2713549 28.7379245,11.4727054 27.2010597,12.3361012 C25.7467025,13.1519289 24.6557708,14.5535625 24.2078733,16.1793532 C23.7835493,17.7204334 23.9741022,19.3025656 24.7448264,20.6351275 C25.4697132,21.8881918 26.7020862,22.8200078 28.1263217,23.1927341 C29.4608468,23.5446087 30.8228743,23.3654133 31.9629176,22.6962001 C33.0263468,22.0706453 33.8108223,21.019583 34.1126947,19.812132 C34.3916484,18.6978626 34.228598,17.5679544 33.6523556,16.6302739 C33.1212958,15.7649232 32.2418713,15.1367619 31.2399953,14.9073919 C30.337652,14.7001769 29.4287606,14.8467913 28.6835743,15.3211703 C28.0176215,15.7460262 27.5251961,16.4615044 27.3673843,17.2369317 C27.2279074,17.9211322 27.3569071,18.5975132 27.7314647,19.1416155 C28.0582203,19.6159946 28.5938639,19.9535335 29.1622484,20.0441086 C29.4968619,20.0975414 29.9820843,20.0884187 30.4299818,19.7469701 C30.7122096,19.5325873 30.9132396,19.1728933 30.9427066,18.8294898 C30.9525289,18.7050305 30.9407421,18.5896938 30.9060366,18.4854347 C30.8405545,18.7662827 30.6519661,19.0145497 30.3710479,19.1474801 C29.8406429,19.3983536 29.2604716,19.2895332 28.8904978,18.8757548 C28.4118237,18.3401235 28.4491484,17.4806374 28.7582239,16.9912711 C29.0771217,16.486266 29.5872272,16.1767467 30.1949011,16.1194042 C30.9021077,16.0522874 31.6826542,16.3513807 32.1809729,16.8831023 C32.7120327,17.4480564 32.9667581,18.1974189 32.8999663,18.9930463 C32.8246619,19.8877199 32.3466426,20.7504642 31.6224107,21.3010826 C30.8398997,21.8953597 29.8583231,22.1377621 28.8512085,21.9742056 C27.7445611,21.7982683 26.7453044,21.1681523 26.1114377,20.2461106 C25.433698,19.2615135 25.1953432,18.0553658 25.4415559,16.8479148 C25.7074132,15.545979 26.5030206,14.3893544 27.6247289,13.6745277 C28.8171578,12.9147394 30.257109,12.6749434 31.6813446,13.002708 C33.1946358,13.3493696 34.5239222,14.3000825 35.329352,15.611141 C36.181274,16.9990905 36.4268319,18.6581139 36.0188784,20.2852078 C35.5899707,21.9970123 34.4761203,23.489221 32.9621743,24.3786817 C31.3670305,25.3176654 29.4713239,25.5672357 27.6253837,25.083734 C25.6975909,24.5780772 24.0271427,23.3126321 23.042292,21.6099503 C22.0083297,19.8225579 21.7496755,17.7100075 22.3134763,15.6626189 C22.8988862,13.537036 24.3283603,11.7040303 26.2351989,10.6334194 C28.2330575,9.51263383 30.582555,9.24742469 32.8521644,9.88601182 C35.1970782,10.5447992 37.2106525,12.1236733 38.3775434,14.2173268 C39.5961652,16.4035103 39.8718448,18.9676331 39.1541611,21.4372711 C38.4148682,23.9785873 36.6710801,26.1543449 34.3700393,27.4074092 C32.8423421,28.240179 31.1620716,28.6363636 29.4863848,28.6363636" id="Fill-1" fill="#FFFFFF"></path>
                <rect id="Rectangle" fill="#FFFFFF" x="8.18181818" y="46.3636364" width="43.6363636" height="2.72727273" rx="1.36363636"></rect>
            </g>
        </g>
    </g>
</svg>