<?xml version="1.0" encoding="UTF-8"?>
<svg width="21px" height="24px" viewBox="0 0 21 24" version="1.1" xmlns="http://www.w3.org/2000/svg" xmlns:xlink="http://www.w3.org/1999/xlink">
    <!-- Generator: Sketch 53.2 (72643) - https://sketchapp.com -->
    <title>BOVINILATTE</title>
    <desc>Created with Sketch.</desc>
    <g id="Page-1" stroke="none" stroke-width="1" fill="none" fill-rule="evenodd">
        <g id="ELEMENTS" transform="translate(-379.000000, -1314.000000)" fill="#FFFFFF">
            <g id="BOVINILATTE" transform="translate(379.000000, 1314.000000)">
                <path d="M19.5,22.5 L15,22.5 L15,8.5725 L17.25,6.3225 L19.5,8.5725 L19.5,22.5 L19.5,22.5 Z M13.9395,7.5 L2.5605,7.5 L4.0605,6 L15.4395,6 L13.9395,7.5 L13.9395,7.5 Z M1.5,22.5 L13.5,22.5 L13.5,9 L1.5,9 L1.5,22.5 Z M4.5,2.265 C4.5,1.845 4.836,1.5 5.25,1.5 L15.75,1.5 C16.164,1.5 16.5,1.845 16.5,2.265 L16.5,4.5 L4.5,4.5 L4.5,2.265 L4.5,2.265 Z M18,4.95 L18,2.265 C18,1.02 16.99275,0 15.75,0 L5.25,0 C4.00725,0 3,1.02 3,2.265 L3,4.95 L0.21975,7.7325 C0.08025,7.8675 0,8.0625 0,8.265 L0,23.265 C0,23.46 0.08025,23.6475 0.21975,23.7825 C0.35925,23.925 0.55275,24 0.75,24 L14.24925,24 L14.25,24 L20.25,24 C20.44725,24 20.64075,23.925 20.78025,23.7825 C20.91975,23.6475 21,23.46 21,23.265 L21,8.265 C21,8.0625 20.91975,7.8675 20.78025,7.7325 L18,4.95 L18,4.95 Z" id="Fill-128"></path>
                <path d="M6.16875,15.99 C6.432,15.4575 6.99525,14.7975 7.5,14.2425 C7.7685,14.5425 8.052,14.8575 8.30325,15.1875 C8.52075,15.465 8.70975,15.75 8.832,15.99 C8.9565,16.23 9.003,16.425 9,16.515 C8.9985,17.34 8.325,18.0075 7.5,18.015 C6.675,18.0075 6.0015,17.34 6,16.515 C5.997,16.425 6.0435,16.23 6.16875,15.99 L6.16875,15.99 Z M7.5,19.515 C9.15675,19.5075 10.4985,18.165 10.5,16.515 C10.497,16.065 10.35225,15.675 10.16925,15.3075 C9.612,14.2275 8.58075,13.2225 8.05425,12.6375 C7.91175,12.48 7.7115,12.39 7.5,12.39 C7.2885,12.39 7.08825,12.48 6.94575,12.6375 C6.59775,13.02 6.0165,13.6125 5.51025,14.265 C5.256,14.595 5.0175,14.94 4.83075,15.3075 C4.64775,15.675 4.503,16.065 4.5,16.515 C4.5015,18.165 5.844,19.5075 7.5,19.515 L7.5,19.515 Z" id="Fill-129"></path>
            </g>
        </g>
    </g>
</svg>