<?xml version="1.0" encoding="UTF-8"?>
<svg width="31px" height="26px" viewBox="0 0 31 26" version="1.1" xmlns="http://www.w3.org/2000/svg" xmlns:xlink="http://www.w3.org/1999/xlink">
    <!-- Generator: Sketch 53.2 (72643) - https://sketchapp.com -->
    <title>OVICAPRINI</title>
    <desc>Created with Sketch.</desc>
    <g id="Page-1" stroke="none" stroke-width="1" fill="none" fill-rule="evenodd">
        <g id="ELEMENTS" transform="translate(-374.000000, -1530.000000)" fill="#FFFFFF" fill-rule="nonzero">
            <g id="OVICAPRINI" transform="translate(374.000000, 1530.000000)">
                <path d="M21.3095938,10.99977 C20.9530332,10.99977 20.6635586,11.291507 20.6635586,11.6509906 C20.6635586,12.0105352 20.9530332,12.301784 21.3095938,12.301784 C21.6662754,12.301784 21.9556895,12.0105352 21.9556895,11.6509906 C21.9556895,11.291507 21.6662754,10.99977 21.3095938,10.99977 Z" id="Path"></path>
                <path d="M30.8274414,14.6673568 L26.1310625,9.47693897 C26.1196797,9.46503756 26.1083574,9.45307512 26.0969746,9.44215023 L21.7533418,5.30869953 C21.6029434,5.1656385 21.3938145,5.10369014 21.190498,5.14183568 L19.6571484,5.43174178 C18.9231387,4.51496714 17.7303652,3.2849108 15.9936387,2.22507512 C14.1320645,1.08900939 12.0264863,0.384323944 9.73636133,0.131159624 C9.08935742,0.059629108 8.42818555,0.0248403756 7.75187695,0.0253286385 C7.72820312,0.0243521127 7.70362109,0.0239248826 7.67994727,0.0258169014 C5.41349609,0.0368028169 2.99107617,0.45158216 0.450347656,1.26630986 C0.144767578,1.36451174 -0.0434121094,1.67346009 0.00859765625,1.99241784 C0.0606074219,2.31137559 0.335853516,2.54446009 0.657478516,2.53780751 C0.683998047,2.53731925 3.39213867,2.49728169 6.62903516,3.25823944 C8.51991406,3.70255869 10.2093535,4.32851174 11.6528516,5.11894836 C13.0074063,5.86129108 14.1453242,6.7509061 15.0486836,7.77210798 C14.6901855,8.14538498 14.1661523,8.79330986 13.344168,9.96184507 L9.06011328,11.018385 C8.80751172,11.0808216 8.61648633,11.289615 8.57579883,11.5480892 C8.53511133,11.8069296 8.65148242,12.0653427 8.87278125,12.2035822 C8.9144375,12.2303146 9.81585938,12.7895587 11.1628457,13.2243568 C10.514873,14.2288967 9.80169141,15.356784 9.02790234,16.6030751 C6.41808984,20.8051878 3.98894922,24.9471831 3.96442773,24.9891127 C3.84617969,25.190338 3.84430273,25.43923 3.95970508,25.6433239 C4.07413867,25.8454038 4.28792969,25.9712535 4.52061133,25.9712535 L14.8518457,25.9712535 C15.0959102,25.9712535 15.3181777,25.8329531 15.4279492,25.6146995 L19.0518008,18.4004319 C20.6352227,18.6913146 25.6618242,19.5818451 27.7154531,19.5818451 C28.0852734,19.5818451 28.3510742,19.5541972 28.5506973,19.4950563 C30.0679414,19.0478075 30.8577754,17.8511972 30.890834,17.800662 C30.9589492,17.694831 30.9958223,17.5708122 30.9958223,17.4449624 L30.9958223,16.2167981 C30.9958223,16.2158826 30.9958223,16.2149061 30.9958223,16.2130141 L30.9958223,15.106061 C30.9958223,14.9429812 30.9352754,14.786615 30.8274414,14.6673568 Z M6.59779297,1.91618779 C5.94988086,1.77221127 5.32745898,1.65869014 4.74572461,1.56866667 C5.44286133,1.46088263 6.12679883,1.38935211 6.79553906,1.35358685 L6.59779297,1.91618779 Z M9.55568945,2.76521596 C9.00985937,2.56923944 8.44326172,2.39047418 7.85771289,2.22934742 L8.17370703,1.33210329 C8.64003906,1.34260094 9.09789453,1.37165258 9.54812109,1.41986854 C9.69567383,1.43604225 9.84231836,1.45416901 9.98799414,1.47418779 L9.55568945,2.76521596 Z M11.9583105,3.80930516 C11.5733535,3.60911737 11.174168,3.41887793 10.7598457,3.24011268 L11.2734648,1.70635681 C11.7577187,1.81652113 12.2325879,1.95097653 12.6941973,2.10874648 L11.9583105,3.80930516 Z M29.7047207,15.3985305 L28.2801738,15.0829906 C27.9320898,15.005723 27.5877598,15.2289202 27.511168,15.5797371 C27.4345156,15.9306761 27.6549668,16.2777089 28.0030508,16.354 L29.7047207,16.7306948 L29.7047207,17.2254883 C29.4937148,17.4793239 28.9753125,18.0132394 28.1883242,18.2458967 C28.1684648,18.2516338 28.055,18.2811737 27.7153926,18.2802582 C25.4338047,18.2802582 18.8786367,17.0454413 18.8123984,17.0329906 C18.8095527,17.0320141 18.806707,17.0320141 18.8029531,17.0310986 C18.8010762,17.0310986 18.7982305,17.0301221 18.7963535,17.0292066 C18.7859395,17.02823 17.8163418,16.8652723 16.3956699,16.2587887 C16.0673848,16.1187183 15.6881191,16.2730704 15.5491035,16.6039906 C15.4100273,16.9358873 15.5632715,17.3172207 15.8914961,17.4573521 C16.6435488,17.7787512 17.2801387,17.986507 17.7464707,18.1171784 L14.4555664,24.6688122 L5.65568359,24.6688122 C6.52780078,23.1984085 8.27112695,20.2769484 10.1052129,17.3210047 C10.9792676,15.9136479 11.7738242,14.6588122 12.4851895,13.5636385 C13.0688008,13.6742911 13.6401211,13.7290986 14.1963652,13.7290986 C15.4629453,13.7290986 16.646334,13.4430986 17.6943398,12.8748216 C18.0083965,12.7046009 18.1256758,12.3098404 17.9572949,11.9933239 C17.7879453,11.6766854 17.3963887,11.5580376 17.082332,11.7281972 C15.6540313,12.5028873 13.9664688,12.639784 12.0671133,12.1348592 C11.7369512,12.0470939 11.4285859,11.9465728 11.1495859,11.8436103 L16.9546387,10.4114131 C17.3009063,10.3260892 17.5128203,9.97374648 17.4285996,9.62476056 C17.3434707,9.27528638 16.9933887,9.06167136 16.6473027,9.14705634 L15.3049785,9.47840376 C15.5405664,9.17378873 15.7202695,8.95834272 15.8564395,8.80618779 C15.9832246,8.96261502 16.1685586,9.04690141 16.3577676,9.04690141 C16.4845527,9.04690141 16.6122461,9.00973239 16.723834,8.9315493 C17.0170625,8.7274554 17.0908691,8.32176995 16.8884609,8.02618779 C15.9396914,6.6426338 14.663666,5.44455869 13.087752,4.45576526 L13.8974453,2.58449765 C14.3685,2.79762441 14.8253867,3.03693427 15.266168,3.30297653 C18.1711465,5.05455869 19.4367578,7.37869014 19.4490488,7.40157746 C19.6173691,7.71815493 20.0080781,7.83735211 20.3221348,7.66859624 C20.6370996,7.49935211 20.7553477,7.10507981 20.5879355,6.78801408 C20.5793984,6.77275587 20.5444023,6.70696244 20.4810098,6.60064319 L21.1053691,6.4823615 L25.192707,10.372169 L29.7047207,15.358493 L29.7047207,15.3985305 Z" id="Shape"></path>
            </g>
        </g>
    </g>
</svg>