<?xml version="1.0" encoding="UTF-8"?>
<svg width="30px" height="28px" viewBox="0 0 30 28" version="1.1" xmlns="http://www.w3.org/2000/svg" xmlns:xlink="http://www.w3.org/1999/xlink">
    <!-- Generator: Sketch 53.2 (72643) - https://sketchapp.com -->
    <title>OVICAPRINI-ALT</title>
    <desc>Created with Sketch.</desc>
    <g id="Page-1" stroke="none" stroke-width="1" fill="none" fill-rule="evenodd">
        <g id="ELEMENTS" transform="translate(-717.000000, -1528.000000)" fill="#FFFFFF" fill-rule="nonzero">
            <g id="OVICAPRINI-ALT" transform="translate(717.000000, 1528.000000)">
                <rect id="Rectangle" x="10.5397436" y="14.2234717" width="1.53846154" height="2.14411321"></rect>
                <rect id="Rectangle" x="17.6864103" y="14.2234717" width="1.53846154" height="2.14411321"></rect>
                <path d="M29.5964103,10.7250566 C29.3620513,10.4083396 27.3597436,7.78558491 25.125641,7.45381132 C25.1723077,7.21581132 25.1971795,6.96935849 25.1971795,6.71709434 C25.1971795,5.18554717 24.2697436,3.82120755 22.9215385,3.26939623 C22.6702564,1.47660377 21.1687179,0.0940377358 19.3597436,0.0940377358 C18.5323077,0.0940377358 17.7502564,0.380641509 17.1207692,0.899962264 C16.4912821,0.38090566 15.7089744,0.0940377358 14.8820513,0.0940377358 C14.0548718,0.0940377358 13.2730769,0.38090566 12.6433333,0.899962264 C12.0138462,0.380641509 11.2317949,0.0940377358 10.4046154,0.0940377358 C8.59564103,0.0940377358 7.09410256,1.47633962 6.84282051,3.26939623 C5.49461538,3.82120755 4.56692308,5.18554717 4.56692308,6.71709434 C4.56692308,6.96935849 4.59205128,7.21581132 4.63871795,7.45381132 C2.40461538,7.78558491 0.402307692,10.4083396 0.167692308,10.7250566 C-0.0423076923,11.0090189 -0.0423076923,11.4023396 0.167692308,11.6863019 C0.418205128,12.0244151 2.68384615,14.9916226 5.09564103,14.9916226 C5.77589744,14.9916226 6.43102564,14.8719623 7.03025641,14.6408302 L8.65358974,20.025283 C8.66846154,24.1346792 9.46102564,27.9062264 14.8820513,27.9062264 C20.3028205,27.9062264 21.095641,24.1346792 21.1107692,20.025283 L22.7338462,14.6408302 C23.3333333,14.8719623 23.9884615,14.9916226 24.6684615,14.9916226 C27.0802564,14.9916226 29.3458974,12.0246792 29.5964103,11.6863019 C29.8069231,11.4023396 29.8069231,11.0090189 29.5964103,10.7250566 Z M7.73769231,4.64060377 C8.10333333,4.56109434 8.36051282,4.22192453 8.34717949,3.8370566 L8.34435897,3.80139623 C8.34435897,2.6309434 9.26846154,1.6789434 10.4046154,1.6789434 C11.045641,1.6789434 11.6397436,1.98113208 12.034359,2.50784906 C12.18,2.70226415 12.4048718,2.81611321 12.6433333,2.81611321 C12.8817949,2.81611321 13.1064103,2.70226415 13.2520513,2.50811321 C13.6471795,1.98113208 14.2412821,1.6789434 14.8820513,1.6789434 C15.5228205,1.6789434 16.1171795,1.98113208 16.5123077,2.50811321 C16.6579487,2.70226415 16.8828205,2.81611321 17.1207692,2.81611321 C17.3592308,2.81611321 17.5841026,2.70226415 17.7297436,2.50784906 C18.124359,1.98113208 18.7187179,1.6789434 19.3597436,1.6789434 C20.495641,1.6789434 21.42,2.6309434 21.42,3.78211321 L21.4169231,3.8370566 C21.4038462,4.22192453 21.6607692,4.56109434 22.0264103,4.64060377 C22.9723077,4.84664151 23.6584615,5.71992453 23.6584615,6.71683019 C23.6584615,7.88728302 22.7341026,8.83928302 21.5982051,8.83928302 C20.9571795,8.83928302 20.3633333,8.53709434 19.9687179,8.01037736 C19.8230769,7.81596226 19.5982051,7.70211321 19.3597436,7.70211321 C19.1212821,7.70211321 18.8964103,7.81596226 18.7507692,8.01011321 C18.355641,8.53709434 17.7617949,8.83928302 17.1207692,8.83928302 C16.4797436,8.83928302 15.8858974,8.53709434 15.4912821,8.01037736 C15.345641,7.81596226 15.1207692,7.70211321 14.8823077,7.70211321 C14.6438462,7.70211321 14.4189744,7.81596226 14.2733333,8.01037736 C13.8787179,8.53709434 13.2846154,8.83928302 12.6435897,8.83928302 C12.0028205,8.83928302 11.4087179,8.53709434 11.0135897,8.01011321 C10.8679487,7.81596226 10.6430769,7.70211321 10.4048718,7.70211321 C10.1664103,7.70211321 9.94153846,7.81596226 9.79589744,8.01037736 C9.40128205,8.53709434 8.8074359,8.83928302 8.16641026,8.83928302 C7.03025641,8.83928302 6.10589744,7.88728302 6.10589744,6.71683019 C6.10564103,5.71992453 6.79179487,4.84690566 7.73769231,4.64060377 Z M24.6687179,13.4064528 C23.9374359,13.4064528 23.2284615,13.2096604 22.6725641,12.8522642 C22.4702564,12.7217736 22.2197436,12.6961509 21.9974359,12.7814717 C21.7735897,12.8670566 21.6012821,13.0546038 21.5307692,13.289434 L19.6071795,19.6686792 C19.5846154,19.7447547 19.5725641,19.824 19.5725641,19.9037736 C19.5725641,24.7015472 18.3892308,26.3207925 14.8823077,26.3207925 C11.375641,26.3207925 10.1920513,24.7015472 10.1920513,19.9037736 C10.1920513,19.824 10.1802564,19.7447547 10.1574359,19.6686792 L8.23410256,13.289434 C8.16333333,13.0546038 7.99102564,12.8670566 7.7674359,12.7814717 C7.54435897,12.6961509 7.29435897,12.7220377 7.09230769,12.8522642 C6.53641026,13.2096604 5.82717949,13.4064528 5.09589744,13.4064528 C3.93641026,13.4064528 2.54333333,12.0862264 1.78128205,11.2063396 C2.53435897,10.3423019 3.94384615,9.00411321 5.09589744,9.00411321 C5.18179487,9.00411321 5.26538462,9.01388679 5.35025641,9.01943396 C6.01,9.87396226 7.02589744,10.4244528 8.16589744,10.4244528 C8.99333333,10.4244528 9.77487179,10.1378491 10.404359,9.6185283 C11.0341026,10.1375849 11.8161538,10.4244528 12.6430769,10.4244528 C13.4705128,10.4244528 14.2523077,10.1375849 14.8817949,9.6185283 C15.5115385,10.1375849 16.2930769,10.4244528 17.1205128,10.4244528 C17.9479487,10.4244528 18.7294872,10.1375849 19.3594872,9.6185283 C19.9889744,10.1378491 20.7707692,10.4244528 21.5979487,10.4244528 C22.7376923,10.4244528 23.7538462,9.87396226 24.4133333,9.01943396 C24.4984615,9.01388679 24.5820513,9.00411321 24.6676923,9.00411321 C25.8274359,9.00411321 27.2202564,10.3246038 27.9825641,11.2044906 C27.2302564,12.0685283 25.8210256,13.4064528 24.6687179,13.4064528 Z" id="Shape"></path>
            </g>
        </g>
    </g>
</svg>