<?xml version="1.0" encoding="UTF-8"?>
<svg width="36px" height="36px" viewBox="0 0 36 36" version="1.1" xmlns="http://www.w3.org/2000/svg" xmlns:xlink="http://www.w3.org/1999/xlink">
    <title>icon-altre</title>
    <g id="UMA" stroke="none" stroke-width="1" fill="none" fill-rule="evenodd">
        <g id="Artboard" transform="translate(-71.000000, -256.000000)">
            <g id="icon-altre" transform="translate(71.000000, 256.000000)">
                <rect style="fill:#30373D;" id="Rectangle" rx="5" ry="5" x="0" y="0" width="36" height="36"></rect>
                <path style="fill:#FFFFFF" d="M32.6962502,18.7389618 L24.1425058,13.4252737 L25.2100246,12.7225651 C25.3900245,12.6034856 25.4987744,12.3977201 25.4987744,12.1764251 C25.4987744,11.9551301 25.3900245,11.7493646 25.2100246,11.6302851 L18.3350486,7.10095674 C18.1300293,6.96634775 17.8688185,6.96634775 17.6637991,7.10095674 L10.7888231,11.6304064 C10.6087646,11.7494253 10.5000097,11.9551908 10.5000097,12.1764858 C10.5000097,12.3977807 10.6087646,12.6035462 10.7887645,12.7226258 L11.8562834,13.4266083 L3.30376941,18.7389618 C3.11626953,18.8554328 3.00000973,19.0650807 3.00000973,19.2915319 C2.99878914,19.5179832 3.11251954,19.7289656 3.30001941,19.8467106 L17.6749905,28.9055493 C17.77501,28.9689411 17.8875099,29 18.0000097,29 C18.1125097,29 18.2250097,28.9689411 18.3250291,28.9055493 L32.7000002,19.8467712 C32.8875001,19.7276917 33.0000097,19.5180438 33.0000097,19.2915926 C32.9987695,19.0650807 32.8837501,18.8554328 32.6962502,18.7389618 Z M18.0000098,8.41447106 L23.7112561,12.1764858 L18.0000098,15.9385004 L12.2887635,12.1764858 L18.0000098,8.41447106 Z M13.0350131,14.2030819 L17.6637405,17.2520148 C17.7662209,17.3192889 17.8837599,17.3529563 18.0000098,17.3529563 C18.1162597,17.3529563 18.2337401,17.3192889 18.3349901,17.2520148 L22.9637175,14.2017473 L23.7874865,14.7142199 L18.0000098,18.52804 L12.2112441,14.7142806 L13.0350131,14.2030819 Z M4.83376841,19.295475 L11.0137644,15.4584214 L16.8362801,19.2942011 L10.9663035,23.1610397 L4.83376841,19.295475 Z M18.0000098,27.5946434 L12.1562832,23.91155 L18.0000098,20.0615754 L23.8437365,23.9116106 L18.0000098,27.5946434 Z M25.0337747,23.1623136 L19.1637981,19.2942011 L24.9863138,15.4584214 L31.1663098,19.2968095 L25.0337747,23.1623136 Z" id="Shape" fill="#30373D"></path>
            </g>
        </g>
    </g>
</svg>