<?xml version="1.0" encoding="UTF-8"?>
<svg width="36px" height="36px" viewBox="0 0 36 36" version="1.1" xmlns="http://www.w3.org/2000/svg" xmlns:xlink="http://www.w3.org/1999/xlink">
    <title>icon-fabbricati</title>
    <g id="UMA" stroke="none" stroke-width="1" fill="none" fill-rule="evenodd">
        <g id="Artboard" transform="translate(-71.000000, -451.000000)">
            <g id="icon-fabbricati" transform="translate(71.000000, 451.000000)">
                <rect style="fill:#30373D;" id="Rectangle" x="0" y="0" rx="5" ry="5" width="36" height="36"></rect>
                <path style="fill:#FFFFFF" d="M26.4853125,9.5146875 C24.2187656,7.24823438 21.2053125,6 18,6 C14.7946875,6 11.7812344,7.24823438 9.5146875,9.5146875 C7.24823438,11.7812344 6,14.7946875 6,18 L6,30 L30,30 L30,18 C30,14.7946875 28.7517656,11.7812344 26.4853125,9.5146875 Z M28.5698438,17.296875 L18.703125,17.296875 L18.703125,7.43015625 C23.9854219,7.7780625 28.2219375,12.0145781 28.5698438,17.296875 Z M9.515625,18.703125 L9.515625,22.9453125 L7.40625,22.9453125 L7.40625,18.703125 L9.515625,18.703125 Z M10.921875,18.703125 L13.03125,18.703125 L13.03125,22.9453125 L10.921875,22.9453125 L10.921875,18.703125 Z M21.5625,18.703125 L21.5625,20.8125 L14.4375,20.8125 L14.4375,18.703125 L21.5625,18.703125 Z M13.03125,24.3515625 L13.03125,28.59375 L10.921875,28.59375 L10.921875,24.3515625 L13.03125,24.3515625 Z M14.4375,22.21875 L21.5625,22.21875 L21.5625,28.59375 L14.4375,28.59375 L14.4375,22.21875 Z M22.96875,24.3515625 L25.078125,24.3515625 L25.078125,28.59375 L22.96875,28.59375 L22.96875,24.3515625 Z M22.96875,22.9453125 L22.96875,18.703125 L25.078125,18.703125 L25.078125,22.9453125 L22.96875,22.9453125 Z M26.484375,18.703125 L28.59375,18.703125 L28.59375,22.9453125 L26.484375,22.9453125 L26.484375,18.703125 Z M17.296875,7.43015625 L17.296875,17.296875 L7.43015625,17.296875 C7.7780625,12.0145781 12.0145781,7.7780625 17.296875,7.43015625 Z M7.40625,24.3515625 L9.515625,24.3515625 L9.515625,28.59375 L7.40625,28.59375 L7.40625,24.3515625 Z M26.484375,28.59375 L26.484375,24.3515625 L28.59375,24.3515625 L28.59375,28.59375 L26.484375,28.59375 Z" id="Shape" fill="#30373D"></path>
            </g>
        </g>
    </g>
</svg>