<?xml version="1.0" encoding="UTF-8"?>
<svg width="36px" height="36px" viewBox="0 0 36 36" version="1.1" xmlns="http://www.w3.org/2000/svg" xmlns:xlink="http://www.w3.org/1999/xlink">
    <title>icon-trasferimenti</title>
    <g id="UMA" stroke="none" stroke-width="1" fill="none" fill-rule="evenodd">
        <g id="Artboard" transform="translate(-71.000000, -354.000000)">
            <g id="icon-trasferimenti" transform="translate(71.000000, 354.000000)">
                <rect id="Rectangle" x="0" y="0" width="36" height="36"></rect>
                <path d="M14.1178659,25 C13.9496331,25 13.7839885,24.9350933 13.659755,24.8141887 L7.18926192,18.4507888 C6.93691269,18.2026162 6.93691269,17.7991766 7.18926192,17.551004 L13.659755,11.1876041 C13.8461052,11.0043382 14.1230423,10.9496129 14.3650387,11.048882 C14.6070352,11.1468783 14.7649152,11.3797788 14.7649152,11.6368601 L14.7649152,14.8185601 L27.7059014,14.8185601 C28.4189497,14.8185601 29,15.3899934 29,16.0912401 L29,19.9092801 C29,20.6105267 28.4189497,21.18196 27.7059014,21.18196 L14.7649152,21.18196 L14.7649152,24.36366 C14.7649152,24.6207414 14.6070352,24.8536418 14.3650387,24.9516382 C14.2848046,24.9847278 14.2006882,25 14.1178659,25 Z M8.56230055,18.0002601 L13.4708166,22.8275353 L13.4708166,20.54562 C13.4708166,20.1943604 13.7606947,19.9092801 14.1178659,19.9092801 L27.7059014,19.9092801 L27.7059014,16.0912401 L14.1178659,16.0912401 C13.7606947,16.0912401 13.4708166,15.8061598 13.4708166,15.4549001 L13.4708166,13.1729849 L8.56230055,18.0002601 Z" id="Shape" fill="#30373D" transform="translate(18.000000, 18.000000) scale(-1, 1) translate(-18.000000, -18.000000) "></path>
            </g>
        </g>
    </g>
</svg>