<?xml version="1.0" encoding="UTF-8"?>
<svg width="36px" height="36px" viewBox="0 0 36 36" version="1.1" xmlns="http://www.w3.org/2000/svg" xmlns:xlink="http://www.w3.org/1999/xlink">
    <title>icon-zootecnia</title>
    <g id="UMA" stroke="none" stroke-width="1" fill="none" fill-rule="evenodd">
        <g id="Artboard" transform="translate(-71.000000, -311.000000)">
            <g id="icon-zootecnia" transform="translate(71.000000, 311.000000)">
                <rect id="Rectangle" x="0" y="0" width="36" height="36"></rect>
                <g id="Group" transform="translate(5.000000, 5.000000)" fill="#30373D">
                    <path d="M25.6,0.8 L25.6,-4.61852778e-14 L24.1,-4.61852778e-14 L24.1,0.8 C24.1,2.6869 22.7174,4.2563 20.9122,4.55 L4.6878,4.55 C2.8826,4.2563 1.5,2.6869 1.5,0.8 L1.5,-4.61852778e-14 L-7.28306304e-13,-4.61852778e-14 L-7.28306304e-13,0.8 C-7.28306304e-13,2.49 0.7951,3.9978 2.0309,4.96895 C0.82585,5.5934 -7.28306304e-13,6.85165 -7.28306304e-13,8.3 L-7.28306304e-13,10.6 L2.3,10.6 C3.2466,10.6 4.11175,10.2467 4.77235,9.66605 L5.33255,20.6182 C5.47545,23.41175 7.77855,25.6 10.5757,25.6 L15.0243,25.6 C17.82145,25.6 20.12455,23.41175 20.26745,20.6182 L20.82765,9.66605 C21.48825,10.2467 22.3534,10.6 23.3,10.6 L25.6,10.6 L25.6,8.3 C25.6,6.85165 24.77415,5.5934 23.5691,4.96895 C24.8049,3.9978 25.6,2.49 25.6,0.8 Z M4.55,6.85 C4.55,8.09065 3.54065,9.1 2.3,9.1 L1.5,9.1 L1.5,8.3 C1.5,7.05935 2.50935,6.05 3.75,6.05 L4.55,6.05 L4.55,6.85 Z M18.7694,20.5416 C18.66735,22.53695 17.0223,24.1 15.0243,24.1 L10.5757,24.1 C8.5777,24.1 6.93265,22.53695 6.8306,20.54155 L6.7634,19.2276 C8.3227,17.55435 10.5058,16.6 12.8,16.6 C15.09415,16.6 17.27725,17.55435 18.8366,19.2276 L18.7694,20.5416 Z M18.9365,17.2745 C17.21295,15.87825 15.0519,15.1 12.8,15.1 C10.5481,15.1 8.38705,15.87825 6.6635,17.2745 L6.08935,6.05 L19.51065,6.05 L18.9365,17.2745 Z M24.1,8.3 L24.1,9.1 L23.3,9.1 C22.05935,9.1 21.05,8.09065 21.05,6.85 L21.05,6.05 L21.85,6.05 C23.09065,6.05 24.1,7.05935 24.1,8.3 Z" id="Shape"></path>
                    <circle id="Oval" cx="10.3" cy="21.6" r="1"></circle>
                    <circle id="Oval" cx="15.3" cy="21.6" r="1"></circle>
                    <circle id="Oval" cx="8.8" cy="11.3" r="1"></circle>
                    <circle id="Oval" cx="16.8" cy="11.3" r="1"></circle>
                </g>
            </g>
        </g>
    </g>
</svg>