<?xml version="1.0" encoding="UTF-8"?>
<svg width="36px" height="36px" viewBox="0 0 36 36" version="1.1" xmlns="http://www.w3.org/2000/svg" xmlns:xlink="http://www.w3.org/1999/xlink">
    <title>icon-contoterzi</title>
    <g id="UMA" stroke="none" stroke-width="1" fill="none" fill-rule="evenodd">
        <g id="Artboard" transform="translate(-375.000000, -302.000000)">
            <g id="icon-contoterzi" transform="translate(375.000000, 302.000000)">
                <rect id="Rectangle" x="0" y="0" width="36" height="36"></rect>
                <g id="Group-12" transform="translate(5.000000, 7.000000)" fill="#30373D">
                    <path d="M19.52,0 C17.3992,0 15.68,1.7192 15.68,3.84 C15.68,5.9608 17.3992,7.68 19.52,7.68 C21.6408,7.68 23.36,5.9608 23.36,3.84 C23.35792,1.72008 21.63992,0.00208 19.52,0 Z M19.52,6.4 C18.10616,6.4 16.96,5.25384 16.96,3.84 C16.96,2.42616 18.10616,1.28 19.52,1.28 C20.93384,1.28 22.08,2.42616 22.08,3.84 C22.08,5.25384 20.93384,6.4 19.52,6.4 Z" id="Shape"></path>
                    <path d="M22.08,8.32 L21.92896,8.32 L21.79392,8.384 C20.36184,9.09696 18.67816,9.09696 17.24608,8.384 L17.11104,8.32 L16.96,8.32 C15.1936,8.32208 13.76208,9.7536 13.76,11.52 L13.76,15.36 C13.76,16.4204 14.6196,17.28 15.68,17.28 L23.36,17.28 C24.4204,17.28 25.28,16.4204 25.28,15.36 L25.28,11.52 C25.27792,9.7536 23.8464,8.32208 22.08,8.32 Z M24,15.36 C24,15.71344 23.71344,16 23.36,16 L15.68,16 C15.32656,16 15.04,15.71344 15.04,15.36 L15.04,11.52 C15.04016,10.51264 15.8188,9.67664 16.82368,9.60512 C18.53368,10.39872 20.50632,10.39872 22.21632,9.60512 C23.2212,9.67664 23.99984,10.51264 24,11.52 L24,15.36 Z" id="Shape"></path>
                    <path d="M5.76,0 C3.6392,0 1.92,1.7192 1.92,3.84 C1.92,5.9608 3.6392,7.68 5.76,7.68 C7.8808,7.68 9.6,5.9608 9.6,3.84 C9.59792,1.72008 7.87992,0.00208 5.76,0 Z M5.76,6.4 C4.34616,6.4 3.2,5.25384 3.2,3.84 C3.2,2.42616 4.34616,1.28 5.76,1.28 C7.17384,1.28 8.32,2.42616 8.32,3.84 C8.32,5.25384 7.17384,6.4 5.76,6.4 Z" id="Shape"></path>
                    <path d="M8.32,8.32 L8.16896,8.32 L8.03392,8.384 C6.60184,9.09696 4.91816,9.09696 3.48608,8.384 L3.35104,8.32 L3.2,8.32 C1.4336,8.32208 0.00208,9.7536 0,11.52 L0,15.36 C0,16.4204 0.8596,17.28 1.92,17.28 L9.6,17.28 C10.6604,17.28 11.52,16.4204 11.52,15.36 L11.52,11.52 C11.51792,9.7536 10.0864,8.32208 8.32,8.32 Z M10.24,15.36 C10.24,15.71344 9.95344,16 9.6,16 L1.92,16 C1.56656,16 1.28,15.71344 1.28,15.36 L1.28,11.52 C1.28016,10.51264 2.0588,9.67664 3.06368,9.60512 C4.77368,10.39872 6.74632,10.39872 8.45632,9.60512 C9.4612,9.67664 10.23984,10.51264 10.24,11.52 L10.24,15.36 Z" id="Shape"></path>
                    <path d="M18.50976,19.62208 C18.50944,19.62136 18.50912,19.62064 18.5088,19.61984 C18.37024,19.29464 17.99432,19.14336 17.6692,19.28192 C17.6692,19.28192 17.6692,19.28192 17.6692,19.28192 C14.7792,20.49312 11.5696,20.71408 8.54088,19.9104 L9.13992,19.7344 C9.47928,19.63504 9.67384,19.27952 9.57448,18.94016 C9.47512,18.6008 9.1196,18.40624 8.78024,18.5056 L6.22024,19.25632 C6.21064,19.25632 6.2036,19.2672 6.19464,19.2704 C6.13536,19.29248 6.07968,19.32336 6.02952,19.36192 C6.00728,19.37392 5.98592,19.38736 5.96552,19.40224 C5.898,19.46248 5.84448,19.53672 5.80872,19.61984 C5.774,19.70352 5.75744,19.7936 5.76008,19.88416 C5.77568,19.9708 5.79704,20.05632 5.82408,20.14016 C5.82792,20.14912 5.82408,20.15936 5.83112,20.16832 L7.11112,22.6176 C7.2748,22.93112 7.6616,23.05264 7.97512,22.88896 C8.28864,22.72528 8.41016,22.33848 8.24648,22.02496 L7.72552,21.02912 C11.16664,22.06352 14.86112,21.86248 18.16968,20.4608 C18.49512,20.32312 18.64744,19.9476 18.50976,19.62208 Z" id="Path" transform="translate(12.160139, 20.720712) scale(-1, 1) translate(-12.160139, -20.720712) "></path>
                </g>
            </g>
        </g>
    </g>
</svg>