<?xml version="1.0" encoding="UTF-8"?>
<svg width="36px" height="36px" viewBox="0 0 36 36" version="1.1" xmlns="http://www.w3.org/2000/svg" xmlns:xlink="http://www.w3.org/1999/xlink">
    <title>icon-superficie</title>
    <g id="UMA" stroke="none" stroke-width="1" fill="none" fill-rule="evenodd">
        <g id="Artboard" transform="translate(-71.000000, -400.000000)">
            <g id="icon-superficie" transform="translate(71.000000, 400.000000)">
                <rect id="Rectangle" x="0" y="0" width="36" height="36"></rect>
                <path d="M29.2280273,13.6653442 C29.9912109,9.84979247 30,6.82983398 30,6.703125 C30,6.51672366 29.9260254,6.33782958 29.7940064,6.20599364 C29.6621704,6.0741577 29.4834595,6 29.296875,6 C29.170166,6 26.1502075,6.00878906 22.3346558,6.77197266 C20.9752808,7.04370117 19.6873169,7.37841797 18.4817505,7.77099609 C18.4735107,7.77337645 18.4656372,7.77612305 18.4575806,7.77886964 C17.6771851,8.03375245 16.9312134,8.31298828 16.2242432,8.61584475 C15.3596191,8.98645022 14.5513916,9.39312745 13.802124,9.83386228 C13.779419,9.84594726 13.7572632,9.85913086 13.7360229,9.8735962 C12.5339356,10.5871582 11.4845581,11.3889771 10.6016236,12.2719116 C8.84838868,14.0251465 7.88287356,16.355896 7.88287356,18.835144 C7.88287356,21.0785522 8.67352295,23.2003784 10.1228027,24.8827514 L6.20599365,28.7997436 C5.93133545,29.0744018 5.93133545,29.5195312 6.20599365,29.7940063 C6.34332278,29.9313354 6.52313232,30 6.70312501,30 C6.8831177,30 7.06311039,29.9313354 7.20025637,29.7940063 L11.1172486,25.8771973 C12.7994385,27.326294 14.9212646,28.1169433 17.1646729,28.1169433 C19.644104,28.1169433 21.9748535,27.1516113 23.7280884,25.3985596 C24.611206,24.5154419 25.4128418,23.4658814 26.1264038,22.263794 C26.1408691,22.2425537 26.1540527,22.2203979 26.1661377,22.1976929 C26.6068725,21.4482422 27.0135498,20.6401978 27.3839722,19.7757568 C27.6873779,19.0678711 27.9667969,18.321167 28.2220459,17.539856 C28.2242432,17.5332642 28.2264404,17.5264893 28.2284546,17.5198974 C28.6212158,16.3137817 28.9561157,15.0252685 29.2280273,13.6653442 L29.2280273,13.6653442 Z M22.583313,8.15625 C25.1958618,7.63183594 27.4643555,7.473999 28.5734253,7.42657472 C28.526001,8.53582762 28.3681641,10.8043213 27.84375,13.416687 C27.6467285,14.3981323 27.3839722,15.4887085 27.0366211,16.6155396 L20.3785401,16.6157227 L24.46875,12.5256958 C24.7432251,12.2510376 24.7432251,11.8057251 24.46875,11.53125 C24.1940918,11.2565918 23.7489624,11.2565918 23.4743042,11.53125 L19.3844604,15.6212768 L19.3844604,8.9633789 C20.5112915,8.61602784 21.6018677,8.35327148 22.583313,8.15625 L22.583313,8.15625 Z M25.1334229,21.1651611 L15.8291016,21.1651611 L18.9722901,18.0219727 L26.562561,18.0217896 C26.1719971,19.0832519 25.7012329,20.1503906 25.1334229,21.1651611 L25.1334229,21.1651611 Z M17.9782104,9.43743895 L17.9782104,17.0273437 L14.8348389,20.1705322 L14.8346558,10.8665771 C15.8496094,10.2987671 16.916565,9.8280029 17.9782104,9.43743895 Z M9.28912356,18.835144 C9.28912356,16.7316284 10.1083374,14.7539062 11.5958862,13.2663574 C12.1563721,12.7058716 12.7736206,12.2001343 13.4284058,11.7438354 L13.428772,21.5767822 L11.1209107,23.8848267 C9.93511965,22.4707031 9.28912356,20.7026367 9.28912356,18.835144 L9.28912356,18.835144 Z M22.7338257,24.4042969 C21.2462768,25.8916626 19.2683716,26.7106933 17.1646729,26.7106933 C15.2973633,26.7106933 13.5292969,26.0646973 12.1151733,24.8790893 L14.4228516,22.5714111 L24.2563477,22.5714111 C23.8000488,23.2263794 23.2943115,23.8436279 22.7338257,24.4042969 L22.7338257,24.4042969 Z" id="Shape" fill="#30373D"></path>
            </g>
        </g>
    </g>
</svg>