<?xml version="1.0" encoding="UTF-8"?>
<svg width="36px" height="36px" viewBox="0 0 36 36" version="1.1" xmlns="http://www.w3.org/2000/svg" xmlns:xlink="http://www.w3.org/1999/xlink">
    <title>icon-consumi</title>
    <g id="UMA" stroke="none" stroke-width="1" fill="none" fill-rule="evenodd">
        <g id="Artboard" transform="translate(-375.000000, -350.000000)">
            <g id="icon-consumi" transform="translate(375.000000, 350.000000)">
                <rect style="fill:#30373D;" id="Rectangle" x="0" y="0" rx="5" ry="5" width="36" height="36"></rect>
                <g id="Group-4" transform="translate(8.000000, 6.000000)" fill="#30373D">
                    <path style="fill:#FFFFFF" d="M17.3333333,23.4666667 L1.86666667,23.4666667 C1.42506667,23.4666667 1.06666667,23.1082667 1.06666667,22.6666667 L1.06666667,0.8 C1.06666667,0.3584 1.42506667,1.42108547e-14 1.86666667,1.42108547e-14 L17.3333333,1.42108547e-14 C17.7749333,1.42108547e-14 18.1333333,0.3584 18.1333333,0.8 L18.1333333,22.6666667 C18.1333333,23.1082667 17.7749333,23.4666667 17.3333333,23.4666667 Z M2.66666667,21.8666667 L16.5333333,21.8666667 L16.5333333,1.6 L2.66666667,1.6 L2.66666667,21.8666667 Z" id="Shape"></path>
                    <path style="fill:#FFFFFF" d="M18.4,1.6 L0.8,1.6 C0.3584,1.6 3.64153152e-13,1.2416 3.64153152e-13,0.8 C3.64153152e-13,0.3584 0.3584,-4.5519144e-14 0.8,-4.5519144e-14 L18.4,-4.5519144e-14 C18.8416,-4.5519144e-14 19.2,0.3584 19.2,0.8 C19.2,1.2416 18.8416,1.6 18.4,1.6 Z" id="Path"></path>
                    <path style="fill:#FFFFFF" d="M18.4,23.4666667 L0.8,23.4666667 C0.3584,23.4666667 3.64153152e-13,23.1082667 3.64153152e-13,22.6666667 C3.64153152e-13,22.2250667 0.3584,21.8666667 0.8,21.8666667 L18.4,21.8666667 C18.8416,21.8666667 19.2,22.2250667 19.2,22.6666667 C19.2,23.1082667 18.8416,23.4666667 18.4,23.4666667 Z" id="Path"></path>
                    <path style="fill:#FFFFFF" d="M18.4,6.93333333 L0.8,6.93333333 C0.3584,6.93333333 3.64153152e-13,6.57493333 3.64153152e-13,6.13333333 C3.64153152e-13,5.69173333 0.3584,5.33333333 0.8,5.33333333 L18.4,5.33333333 C18.8416,5.33333333 19.2,5.69173333 19.2,6.13333333 C19.2,6.57493333 18.8416,6.93333333 18.4,6.93333333 Z" id="Path"></path>
                    <path style="fill:#FFFFFF" d="M18.4,18.1333333 L0.8,18.1333333 C0.3584,18.1333333 3.64153152e-13,17.7749333 3.64153152e-13,17.3333333 C3.64153152e-13,16.8917333 0.3584,16.5333333 0.8,16.5333333 L18.4,16.5333333 C18.8416,16.5333333 19.2,16.8917333 19.2,17.3333333 C19.2,17.7749333 18.8416,18.1333333 18.4,18.1333333 Z" id="Path"></path>
                    <path style="fill:#FFFFFF" d="M9.6,15.4666667 C8.0608,15.4666667 6.4,14.4416 6.4,12.7861333 C6.4,11.4698667 8.37973333,9.008 8.98773333,8.2848 C9.29173333,7.92213333 9.90826667,7.92213333 10.2122667,8.2848 C10.8202667,9.008 12.8,11.4698667 12.8,12.7861333 C12.8,14.4416 11.1392,15.4666667 9.6,15.4666667 Z M9.6,10.08 C8.69866667,11.2597333 8.00106667,12.4192 8,12.7861333 C8,13.4229333 8.84373333,13.8666667 9.6,13.8666667 C10.3562667,13.8666667 11.2,13.4229333 11.2,12.7861333 C11.1989333,12.4202667 10.5013333,11.2597333 9.6,10.08 Z" id="Shape"></path>
                </g>
            </g>
        </g>
    </g>
</svg>