<?xml version="1.0" encoding="UTF-8"?>
<svg width="36px" height="36px" viewBox="0 0 36 36" version="1.1" xmlns="http://www.w3.org/2000/svg" xmlns:xlink="http://www.w3.org/1999/xlink">
    <title>icon-ricevuti</title>
    <g id="UMA" stroke="none" stroke-width="1" fill="none" fill-rule="evenodd">
        <g id="Artboard" transform="translate(-375.000000, -251.000000)">
            <g id="icon-ricevuti" transform="translate(375.000000, 251.000000)">
                <rect style="fill:#30373D;" id="Rectangle" x="0" y="0" rx="5" ry="5" width="36" height="36"></rect>
                <g  id="Group-5" transform="translate(7, 6)">
                    <path style="fill:#FFFFFF" d="M21.140625,15.9275898 C20.6659922,15.9275898 20.28125,16.312332 20.28125,16.7869648 L20.28125,21.878332 C20.28125,22.1004805 20.1004805,22.28125 19.8782891,22.28125 L2.12171094,22.28125 C1.89951953,22.28125 1.71875,22.1005234 1.71875,21.878332 L1.71875,16.7869648 C1.71875,16.312332 1.33400781,15.9275898 0.859375,15.9275898 C0.384742187,15.9275898 0,16.312332 0,16.7869648 L0,21.878332 C0,23.0482422 0.951800781,24 2.12171094,24 L19.8782891,24 C21.0481992,24 22,23.0482422 22,21.878332 L22,16.7869648 C22,16.312332 21.6152578,15.9275898 21.140625,15.9275898 Z" id="Path" fill="#16314E" fill-rule="nonzero"></path>
                    <path style="fill:#FFFFFF" d="M18.1006719,10.6596016 C17.9648047,10.3446406 17.6546133,10.140625 17.3115938,10.140625 L14.3840039,10.140625 L14.3840039,0.859375 C14.3840039,0.384742187 13.9992617,0 13.5246289,0 L8.47537109,0 C8.00073828,0 7.61599609,0.384742187 7.61599609,0.859375 L7.61599609,10.140625 L4.68840625,10.140625 C4.34538672,10.140625 4.03523828,10.3446836 3.89932813,10.6596445 C3.76341797,10.9746055 3.82787109,11.3402266 4.06329688,11.5897461 L10.3748906,18.2800234 C10.5372266,18.4520703 10.7633711,18.5496523 11,18.5496523 C11.2366289,18.5496523 11.4627734,18.4521133 11.6251094,18.2800234 L17.9367031,11.5897031 C18.1720859,11.3401836 18.2365391,10.9745625 18.1006719,10.6596016 Z M11,16.4379531 L6.68060938,11.859375 L8.47532813,11.859375 C8.94996094,11.859375 9.33470313,11.4746328 9.33470313,11 L9.33470313,1.71875 L12.6652109,1.71875 L12.6652109,11 C12.6652109,11.4746328 13.0499531,11.859375 13.5245859,11.859375 L15.3193906,11.859375 L11,16.4379531 Z" id="Shape" fill="#16314E" fill-rule="nonzero"></path>
                </g>
            </g>
        </g>
    </g>
</svg>