<?xml version="1.0" encoding="UTF-8"?>
<svg width="44px" height="44px" viewBox="0 0 44 44" version="1.1" xmlns="http://www.w3.org/2000/svg" xmlns:xlink="http://www.w3.org/1999/xlink">
    <title>icon-1111B</title>
    <defs>
        <polygon id="path-1" points="0.0239883672 0.0242166375 8.36547612 0.0242166375 8.36547612 7.2789657 0.0239883672 7.2789657"></polygon>
        <polygon id="path-3" points="0 16.5149709 19.847025 16.5149709 19.847025 0.0408375 0 0.0408375"></polygon>
        <rect id="path-5" x="0.55" y="0" width="11" height="7.425"></rect>
    </defs>
    <g id="Cruscotto-" stroke="none" stroke-width="1" fill="none" fill-rule="evenodd">
        <g id="icone-PSR" transform="translate(-141.000000, -731.000000)">
            <g id="icon-1111B" transform="translate(141.000000, 731.000000)">
                <g id="base-intervento" fill="#F7F7F7" stroke="#D8D8D8">
                    <rect id="Rectangle" x="0.5" y="0.5" width="43" height="43" rx="4"></rect>
                </g>
                <g id="Group-3" transform="translate(6.000000, 27.000000)">
                    <rect id="Rectangle" fill="#01985A" x="0" y="0" width="32" height="14" rx="7"></rect>
                    <text id="11.1.1" font-family="TitilliumWeb-Bold, Titillium Web" font-size="9" font-weight="bold" fill="#FFFFFF">
                        <tspan x="4.116" y="10">11.1.1</tspan>
                    </text>
                </g>
                <g id="Group-11" transform="translate(19.000000, 6.000000)">
                    <g id="Group-3" transform="translate(9.596812, 0.016621)">
                        <mask id="mask-2" fill="white">
                            <use xlink:href="#path-1"></use>
                        </mask>
                        <g id="Clip-2"></g>
                        <path d="M0.183968854,6.45603304 C0.183968854,6.45603304 -0.918276109,2.50014526 2.66370353,0.76875777 C2.66370353,0.76875777 5.05208472,-0.484912642 8.36547612,0.261310995 C8.36547612,0.261310995 8.27575613,5.54490758 4.6040565,6.79870051 C4.6040565,6.79870051 2.62172258,7.70929508 0.741074029,7.02277587 C0.741074029,7.02277587 1.58159145,4.36172269 5.77548019,2.3874746 C5.77548019,2.3874746 2.09451045,2.90370143 0.183968854,6.45603304" id="Fill-1" fill="#30373D" mask="url(#mask-2)"></path>
                    </g>
                    <path d="M9.32855913,6.38232544 C9.32855913,6.38232544 10.0308008,3.86228415 7.74888296,2.75914077 C7.74888296,2.75914077 6.2272777,1.96052262 4.11650984,2.43603447 C4.11650984,2.43603447 4.17376402,5.80198373 6.51273183,6.60068355 C6.51273183,6.60068355 7.77546817,7.1807394 8.97388544,6.74345145 C8.97388544,6.74345145 8.43821996,5.04820515 5.76654903,3.79041015 C5.76654903,3.79041015 8.11139744,4.11935622 9.32855913,6.38232544" id="Fill-4" fill="#30373D"></path>
                    <path d="M1.72330983,12.6491869 L1.72330983,14.9313906 L3.31854509,14.9313906 C3.93952012,14.9313906 4.33347948,14.9138713 4.50038234,14.8789553 C4.75655598,14.8323597 4.96511309,14.7188723 5.12621703,14.5383297 C5.28723929,14.3578688 5.36785252,14.1162333 5.36785252,13.8135049 C5.36785252,13.5573313 5.30573868,13.3400349 5.18155184,13.1614934 C5.05728333,12.9829518 4.87784335,12.8529252 4.64302773,12.7714136 C4.40817127,12.6898611 3.89872346,12.6491869 3.11472513,12.6491869 L1.72330983,12.6491869 Z M1.72330983,9.25501896 L1.72330983,11.2286137 L2.8527934,11.2286137 C3.52424358,11.2286137 3.94148032,11.218976 4.10446278,11.1994557 C4.3993912,11.1645396 4.63138904,11.0626501 4.80021127,10.8938687 C4.96903349,10.7250464 5.05348544,10.5028904 5.05348544,10.2272373 C5.05348544,9.9633454 4.98067218,9.74890768 4.83512733,9.58388335 C4.68958248,9.41898152 4.47318457,9.31897048 4.18601527,9.28405442 C4.015192,9.26469745 3.52424358,9.25501896 2.71300664,9.25501896 L1.72330983,9.25501896 Z M8.1675e-06,7.83444568 L3.41165459,7.83444568 C4.08702517,7.83444568 4.59059238,7.86262356 4.92247874,7.91881596 C5.25432427,7.97513087 5.55121289,8.09257952 5.81322629,8.27108023 C6.07523969,8.44966262 6.29351613,8.6872552 6.46817812,8.9842255 C6.64288094,9.28115496 6.73015068,9.61402142 6.73015068,9.98270237 C6.73015068,10.3824607 6.62250303,10.7493039 6.40704438,11.083028 C6.19162657,11.4169154 5.89951593,11.6672084 5.53087582,11.8340296 C6.05094138,11.985455 6.45069967,12.2435889 6.73015068,12.6083903 C7.00968337,12.9732733 7.14934762,13.4021488 7.14934762,13.8950574 C7.14934762,14.2832178 7.05913758,14.6605972 6.87867667,15.0273587 C6.69821576,15.3941612 6.45167977,15.6873336 6.13923206,15.9065493 C5.82678434,16.1258875 5.44156421,16.2607738 4.98357164,16.3112489 C4.69636151,16.3422446 4.00355332,16.3616424 2.90518792,16.3693607 L8.1675e-06,16.3693607 L8.1675e-06,7.83444568 Z" id="Fill-6" fill="#30373D"></path>
                    <mask id="mask-4" fill="white">
                        <use xlink:href="#path-3"></use>
                    </mask>
                    <g id="Clip-9"></g>
                    <polygon id="Fill-8" fill="#30373D" mask="url(#mask-4)" points="8.55243428 16.3693443 10.2757359 16.3693443 10.2757359 7.83442935 8.55243428 7.83442935"></polygon>
                    <path d="M13.3438941,12.0960879 C13.3438941,13.0625074 13.567071,13.7950913 14.0134249,14.2937988 C14.4597379,14.7926289 15.0263991,15.0419827 15.7134083,15.0419827 C16.4004584,15.0419827 16.9641384,14.7944666 17.4046934,14.2996794 C17.8452075,13.8047698 18.0655258,13.0625074 18.0655258,12.0728105 C18.0655258,11.0947116 17.8509248,10.365068 17.4221718,9.88371636 C16.9932556,9.40252809 16.423695,9.16179103 15.7134083,9.16179103 C15.0031217,9.16179103 14.4305799,9.40542756 13.9959873,9.89245558 C13.5611904,10.3796061 13.3438941,11.1141094 13.3438941,12.0960879 M11.5682796,12.1542814 C11.5682796,11.2848918 11.6982245,10.5552482 11.9583185,9.96518717 C12.1523375,9.53059449 12.4172095,9.14051469 12.7529754,8.79502944 C13.0886189,8.44966671 13.4564422,8.19349307 13.8562413,8.02654937 C14.3879456,7.80149391 15.0011207,7.68890492 15.6960116,7.68890492 C16.9535615,7.68890492 17.9597159,8.07894388 18.7146787,8.85906264 C19.4694782,9.63922224 19.8470209,10.7240296 19.8470209,12.1134847 C19.8470209,13.4914236 19.4723777,14.5694519 18.7233771,15.3476105 C17.974254,16.1258916 16.9728777,16.5149504 15.7192889,16.5149504 C14.4501003,16.5149504 13.4408831,16.1278109 12.6918825,15.3534503 C11.9427186,14.5791304 11.5682796,13.5127816 11.5682796,12.1542814" id="Fill-10" fill="#30373D" mask="url(#mask-4)"></path>
                </g>
                <g id="Fill-1" transform="translate(5.000000, 14.000000)">
                    <mask id="mask-6" fill="white">
                        <use xlink:href="#path-5"></use>
                    </mask>
                    <g id="Mask"></g>
                    <polygon fill="#01985A" mask="url(#mask-6)" points="4.92476503 0 4.92476503 2.22589215 -7.39976503 2.22589215 -7.39976503 0 -14.025 3.7125 -7.39976503 7.425 -7.39976503 5.19910785 4.92476503 5.19910785 4.92476503 7.425 11.55 3.7125"></polygon>
                </g>
            </g>
        </g>
    </g>
</svg>