<?xml version="1.0" encoding="UTF-8"?>
<svg width="44px" height="44px" viewBox="0 0 44 44" version="1.1" xmlns="http://www.w3.org/2000/svg" xmlns:xlink="http://www.w3.org/1999/xlink">
    <title>icon-1011Bneg</title>
    <g id="Cruscotto-" stroke="none" stroke-width="1" fill="none" fill-rule="evenodd">
        <g id="icone-PSR" transform="translate(-141.000000, -289.000000)">
            <g id="icon-1011Bneg" transform="translate(141.000000, 289.000000)">
                <rect id="Rectangle" fill="#30373D" x="0" y="0" width="44" height="44" rx="4"></rect>
                <g id="Group-3" transform="translate(6.000000, 27.000000)">
                    <rect id="Rectangle" fill="#01985A" x="0" y="0" width="32" height="14" rx="7"></rect>
                    <text id="10.1.1" font-family="TitilliumWeb-Bold, Titillium Web" font-size="9" font-weight="bold" fill="#FFFFFF">
                        <tspan x="4.116" y="10">10.1.1</tspan>
                    </text>
                </g>
                <path d="M21.5157342,23 C18.3015363,23 15.1040083,21.451752 13.1647468,18.6606049 C12.8733327,18.241595 12.9789086,17.6671458 13.3993597,17.3783853 C13.8191935,17.0877816 14.3958475,17.1922269 14.6872615,17.6112369 C17.0494439,21.0106242 21.6811981,22.1576794 25.2318805,20.2242125 C26.9711036,19.2768322 28.2911103,17.6278252 28.8517119,15.6998879 C29.3907043,13.846291 29.1875789,11.9281837 28.2793797,10.298837 C27.4168682,8.7518178 25.9246062,7.5832592 24.1847657,7.09420944 C22.5233353,6.62727751 20.8100431,6.8171222 19.3609992,7.63118116 C17.989748,8.40039008 16.9611553,9.72193033 16.5388519,11.2548187 C16.138775,12.7078372 16.3184392,14.1995618 17.0451221,15.4559774 C17.7285867,16.637438 18.8905384,17.5160073 20.2333891,17.867435 C21.4916555,18.1992025 22.7758529,18.0302468 23.8507509,17.3992743 C24.8534127,16.8094656 25.593061,15.818464 25.8776836,14.6800102 C26.1406971,13.6294134 25.9869638,12.5640713 25.4436496,11.6799725 C24.942936,10.8640704 24.1137644,10.2718041 23.1691384,10.0555409 C22.3183576,9.86016676 21.4614028,9.99840319 20.7587987,10.4456748 C20.1309002,10.8462533 19.6666135,11.520847 19.5178194,12.2519642 C19.3863127,12.8970675 19.507941,13.5347982 19.8610953,14.0478089 C20.1691792,14.4950806 20.6742145,14.8133316 21.21012,14.898731 C21.5256127,14.9491105 21.983108,14.9405091 22.4054114,14.6185718 C22.6715119,14.4164394 22.8610545,14.0772994 22.8888376,13.7535189 C22.8980987,13.6361716 22.8869854,13.5274256 22.8542631,13.4291241 C22.7925228,13.6939237 22.6147109,13.928004 22.3498452,14.0533384 C21.849749,14.2898763 21.3027304,14.1872741 20.9538979,13.7971402 C20.5025766,13.2921165 20.5377685,12.4817438 20.8291826,12.0203413 C21.1298576,11.5441936 21.6108142,11.2523612 22.1837639,11.1982954 C22.8505587,11.1350138 23.5865025,11.4170161 24.0563459,11.9183536 C24.5570594,12.4510246 24.797229,13.1575663 24.734254,13.9077294 C24.6632527,14.7512788 24.2125488,15.5647233 23.5297015,16.0838779 C22.7919054,16.6441962 21.8664189,16.8727471 20.9168537,16.7185367 C19.8734433,16.552653 18.931287,15.9585436 18.3336413,15.08919 C17.6946296,14.1608556 17.469895,13.0236306 17.7020384,11.8851768 C17.9527039,10.6576374 18.702848,9.56710553 19.7604587,8.89312615 C20.8847488,8.17675426 22.2424171,7.95066091 23.5852677,8.25969612 C25.0120851,8.58654847 26.2654124,9.48293491 27.0248176,10.7190758 C27.8280584,12.0277139 28.0595843,13.5919359 27.6749425,15.1260531 C27.2705438,16.7400402 26.220342,18.1469798 24.7929072,18.9856141 C23.2889145,19.8709417 21.501534,20.1062508 19.7610761,19.6503778 C17.9434428,19.1736157 16.3684488,17.9804817 15.4398753,16.375096 C14.4649966,14.6898404 14.2211226,12.698007 14.7527062,10.7676121 C15.3046641,8.7634911 16.652454,7.03522856 18.4503304,6.02579545 C20.3340257,4.96905476 22.5492662,4.71900042 24.6891836,5.32109686 C26.9001023,5.94223921 28.7986153,7.43089194 29.8988267,9.40490813 C31.0478129,11.4661669 31.3077394,13.8837684 30.6310662,16.2122842 C29.9340186,18.6083823 28.2898755,20.6598109 26.1203228,21.8412715 C24.6799225,22.6264545 23.0956675,23 21.5157342,23" id="Fill-1" fill="#FFFFFF"></path>
                <rect id="Rectangle" fill="#FFFFFF" x="6" y="22" width="32" height="2" rx="1"></rect>
            </g>
        </g>
    </g>
</svg>