<?xml version="1.0" encoding="UTF-8"?>
<svg width="44px" height="44px" viewBox="0 0 44 44" version="1.1" xmlns="http://www.w3.org/2000/svg" xmlns:xlink="http://www.w3.org/1999/xlink">
    <title>icon-1012Bneg</title>
    <defs>
        <polygon id="path-1" points="7.5e-06 0.0114 22.499991 0.0114 22.499991 16.725 7.5e-06 16.725"></polygon>
    </defs>
    <g id="Cruscotto-" stroke="none" stroke-width="1" fill="none" fill-rule="evenodd">
        <g id="icone-PSR" transform="translate(-141.000000, -414.000000)">
            <g id="icon-1012Bneg" transform="translate(141.000000, 414.000000)">
                <rect id="Rectangle" fill="#30373D" x="0" y="0" width="44" height="44" rx="4"></rect>
                <g id="Group-3" transform="translate(6.000000, 27.000000)">
                    <rect id="Rectangle" fill="#01985A" x="0" y="0" width="32" height="14" rx="7"></rect>
                    <text id="10.1.2" font-family="TitilliumWeb-Bold, Titillium Web" font-size="9" font-weight="bold" fill="#FFFFFF">
                        <tspan x="4.116" y="10">10.1.2</tspan>
                    </text>
                </g>
                <g id="Group-6" transform="translate(12.000000, 5.000000)">
                    <path d="M19.2860625,3.613305 C19.0858875,3.613305 18.9236625,3.77553 18.9236625,3.975705 C18.9236625,4.175805 19.0858875,4.33803 19.2860625,4.33803 C19.4862375,4.33803 19.6483875,4.175805 19.6483875,3.975705 C19.6483875,3.77553 19.4862375,3.613305 19.2860625,3.613305" id="Fill-1" fill="#30373D"></path>
                    <g id="Group-5" transform="translate(0.000000, 0.063600)">
                        <mask id="mask-2" fill="white">
                            <use xlink:href="#path-1"></use>
                        </mask>
                        <g id="Clip-4"></g>
                        <path d="M21.4121325,6.050925 C21.2758575,6.07815 20.6148825,6.072 20.0838825,6.06705 C17.8646325,6.0462 17.5353825,6.0885 17.3730825,6.41295 C17.1979575,6.747525 15.4734825,9.49725 14.4942075,10.91715 C14.0924325,11.4963 13.9398075,11.671425 13.8888075,11.7225 C13.8564075,11.736225 13.8240075,11.750175 13.7919075,11.76405 C13.6476825,11.826825 13.5543825,11.96925 13.5543825,12.12645 L13.5543825,15.823125 C13.5542325,15.827775 13.5542325,15.832275 13.5542325,15.83685 C13.5534825,15.890775 13.5096825,15.9345 13.4556075,15.9345 L12.9615075,15.9345 C12.9070575,15.9345 12.8627325,15.8901 12.8627325,15.835575 L12.8627325,12.295875 C12.8627325,12.099375 12.7183575,11.932725 12.5238825,11.9046 C12.0827325,11.840925 11.6453325,11.765925 11.2239075,11.681625 C10.0279575,11.44245 6.4226325,10.443675 6.3863325,10.433625 C6.3466575,10.422675 6.3062325,10.4181 6.2664825,10.419525 C6.1472325,10.423725 6.0336825,10.482075 5.9610825,10.582125 L5.3293575,11.450625 C5.3293575,11.4507 5.3293575,11.4507 5.3293575,11.450775 L4.0447575,13.217025 C3.9956325,13.2846 3.9691575,13.365975 3.9691575,13.449525 L3.9691575,15.835575 C3.9691575,15.8901 3.9247575,15.9345 3.8703075,15.9345 L3.3762075,15.9345 C3.3217575,15.9345 3.2774325,15.8901 3.2774325,15.835575 L3.2774325,10.70505 C3.2774325,10.676025 3.2742825,10.647075 3.2678325,10.618725 C3.2585325,10.577175 3.2495325,10.535475 3.2412075,10.49355 C2.7939825,8.2164 2.4996075,5.511675 2.7810825,4.9269 C3.0860325,4.29375 3.3394575,4.075425 3.3768825,4.0455 C3.4086075,4.027275 3.4206825,4.01415 3.4472325,3.98595 C3.7709325,3.641925 4.1797575,3.370125 5.9083575,3.52725 L6.0957075,3.544275 C10.7418075,3.96735 12.8267325,4.0923 13.2925575,3.97605 C13.5423075,3.91365 14.2544325,3.650925 15.3958575,3.227475 C15.5865075,3.156675 15.7813575,3.084525 15.9767325,3.012225 C15.9843825,3.05265 15.9918075,3.093375 15.9998325,3.133125 C16.0374075,3.321075 16.2024075,3.450975 16.3869825,3.450975 C16.4127075,3.450975 16.4387325,3.448425 16.4649075,3.443175 C16.6790325,3.400425 16.8177825,3.19215 16.7750325,2.9781 C16.6728075,2.46705 16.6287825,1.911 16.6536825,1.584525 C16.8146325,1.85385 17.0195325,2.324775 17.1633825,2.779425 C17.2292325,2.98755 17.4512325,3.10275 17.6594325,3.037125 C17.8674825,2.97135 17.9829075,2.749425 17.9172075,2.5413 C17.8971075,2.4777 17.8743075,2.408475 17.8498575,2.3367 C18.2901075,2.186325 18.4991325,2.12655 18.5964825,2.103075 C18.6042825,2.10855 18.6135825,2.115675 18.6220575,2.121825 C18.5391825,2.163225 18.4666575,2.195475 18.4122825,2.21685 C18.2093325,2.296275 18.1089825,2.52525 18.1881825,2.728425 C18.2490075,2.884725 18.3983325,2.980275 18.5565825,2.980275 C18.6042825,2.980275 18.6528075,2.971575 18.6999075,2.9532 C18.7553325,2.931675 18.9849825,2.8383 19.2616575,2.6739 C20.1523575,3.4971 21.5082075,4.88145 21.7098075,5.2584 C21.7170075,5.578875 21.5544825,6.0225 21.4121325,6.050925 L21.4121325,6.050925 Z M15.0360075,15.835575 C15.0360075,15.8901 14.9916825,15.9345 14.9372325,15.9345 L14.4431325,15.9345 C14.3912325,15.9345 14.3483325,15.8937 14.3448825,15.844725 C14.3449575,15.84165 14.3449575,15.838575 14.3449575,15.835575 L14.3449575,12.373725 C14.4079575,12.3264 14.4961575,12.238575 14.6406825,12.05715 C14.6433825,12.053775 14.6461575,12.050175 14.6490075,12.046725 C14.6580825,12.035175 14.6673075,12.02355 14.6769075,12.01125 C14.6897325,11.99475 14.7032325,11.9775 14.7168825,11.95965 C14.7171075,11.95935 14.7172575,11.9592 14.7174825,11.958975 C14.8046325,11.84535 14.9094825,11.702625 15.0360075,11.523075 L15.0360075,15.835575 Z M6.7360575,15.835575 C6.7360575,15.8901 6.6917325,15.9345 6.6372075,15.9345 L6.1431825,15.9345 C6.0887325,15.9345 6.0443325,15.8901 6.0443325,15.835575 L6.0443325,11.811675 L6.4394325,11.26845 C6.5223075,11.291175 6.6224325,11.3187 6.7360575,11.34975 L6.7360575,15.835575 Z M22.4958075,5.15355 C22.4843325,5.00415 22.4629575,4.725975 20.7708075,3.0339 C20.4243075,2.6874 20.1390075,2.411925 19.9026075,2.1915 C20.1111825,1.9884 20.2935075,1.745475 20.3946825,1.4622 C20.5398825,1.055625 20.4942075,0.623475 20.2626075,0.212625 C20.1554325,0.022425 19.9145325,-0.044775 19.7241825,0.0624 C19.5339825,0.169575 19.4667825,0.410625 19.5739575,0.6009 C19.6943325,0.8145 19.7187075,1.00335 19.6505325,1.1952 C19.5897825,1.366275 19.4616075,1.524525 19.3081575,1.66425 C18.9156075,1.340925 18.8034825,1.31805 18.7518075,1.3077 C18.6206325,1.281525 18.4850325,1.28235 17.5575075,1.601025 C17.3550825,1.169175 17.0985075,0.772275 16.8047325,0.64785 C16.6401075,0.5781 16.4642325,0.5823 16.3095075,0.659775 C15.8907825,0.8691 15.8115825,1.5141 15.8661825,2.210325 C15.6159825,2.302725 15.3650325,2.39565 15.1208325,2.48625 C14.2359075,2.8146 13.3209075,3.15405 13.1010075,3.2091 C12.7396575,3.2952 10.4069325,3.143025 6.1674075,2.757 L5.9799075,2.739975 C4.3396575,2.590725 3.5261325,2.767875 2.8981575,3.41625 C2.8458825,3.4563 2.7622575,3.52935 2.6582325,3.648525 L1.3669575,3.648525 C0.8384325,3.648525 7.5e-06,4.0197 7.5e-06,5.015475 L7.5e-06,11.257575 C7.5e-06,11.4759 0.1770075,11.6529 0.3952575,11.6529 C0.6135825,11.6529 0.7905075,11.4759 0.7905075,11.257575 L0.7905075,5.015475 C0.7905075,4.4553 1.3079325,4.4391 1.3669575,4.4391 L2.1410325,4.4391 C2.1171075,4.4856 2.0930325,4.533675 2.0688075,4.583925 C1.5321075,5.6988 2.3051325,9.8292 2.4655575,10.646175 C2.4723825,10.68045 2.4795075,10.714425 2.4868575,10.74825 L2.4868575,15.835575 C2.4868575,16.326 2.8858575,16.725 3.3762075,16.725 L3.8703075,16.725 C4.3606575,16.725 4.7597325,16.326 4.7597325,15.835575 L4.7597325,13.578075 L5.2538325,12.89865 L5.2538325,15.835575 C5.2538325,16.326 5.6527575,16.725 6.1431825,16.725 L6.6372075,16.725 C7.1276325,16.725 7.5266325,16.326 7.5266325,15.835575 L7.5266325,11.564475 C8.6979075,11.8803 10.3167075,12.306375 11.0688825,12.456825 C11.3959575,12.522225 11.7321075,12.58215 12.0721575,12.63585 L12.0721575,15.835575 C12.0721575,16.326 12.4710825,16.725 12.9615075,16.725 L13.4556075,16.725 C13.6383825,16.725 13.8083325,16.6695 13.9497825,16.57455 C14.0911575,16.669575 14.2609575,16.725 14.4431325,16.725 L14.9372325,16.725 C15.4275825,16.725 15.8265825,16.326 15.8265825,15.835575 L15.8265825,10.352625 C15.9780825,10.1217 16.1447325,9.865275 16.3291575,9.578775 C17.0381325,8.476875 17.7660825,7.303725 18.0042075,6.9003 C18.3513825,6.84135 19.4174325,6.851325 20.0763825,6.85755 C20.8898325,6.8652 21.3605325,6.86745 21.5672325,6.826125 C22.3029825,6.678975 22.5351075,5.66415 22.4958075,5.15355 L22.4958075,5.15355 Z" id="Fill-3" fill="#FFFFFF" mask="url(#mask-2)"></path>
                    </g>
                </g>
                <polygon id="Fill-1" fill="#FFFFFF" points="36.9971724 19 34.9259891 21.0556539 32.8550078 19 32.8546038 19 30.7834205 21.0556539 28.7124391 19 28.7120352 19 26.6410539 21.0556539 24.5700725 19 24.5696686 19 22.4984852 21.0556539 20.4277059 19 20.4273019 19 18.3561186 21.0556539 16.2851372 19 16.2847333 19 14.2137519 21.0556539 12.1427706 19 12.1423666 19 10.0711833 21.0556539 8.00020197 19 8 19 8 25 37 25 37 19.0026056 36.9975764 19"></polygon>
            </g>
        </g>
    </g>
</svg>