<?xml version="1.0" encoding="UTF-8"?>
<svg width="44px" height="44px" viewBox="0 0 44 44" version="1.1" xmlns="http://www.w3.org/2000/svg" xmlns:xlink="http://www.w3.org/1999/xlink">
    <title>icon-1013B</title>
    <g id="Cruscotto-" stroke="none" stroke-width="1" fill="none" fill-rule="evenodd">
        <g id="icone-PSR" transform="translate(-141.000000, -484.000000)">
            <g id="icon-1013B" transform="translate(141.000000, 484.000000)">
                <g id="base-intervento" fill="#F7F7F7" stroke="#D8D8D8">
                    <rect id="Rectangle" x="0.5" y="0.5" width="43" height="43" rx="4"></rect>
                </g>
                <path d="M29.6386215,7.22577411 L29.3716203,6.59251938 L28.7450394,6.80195699 C26.9499533,7.40190334 24.8571628,8.09426316 23.9332525,8.39947475 C23.6196573,8.13246403 23.267437,7.89782274 22.8780447,7.69718171 C22.6602156,7.58495122 22.4364802,7.48640978 22.2094167,7.39928413 C22.4952617,6.70025274 22.779138,5.60305268 22.779138,4 L21.3094596,4 C21.3094596,5.2660647 21.1042868,6.11009135 20.9322548,6.59528684 C20.8753952,6.75560199 20.8183949,6.88794601 20.7668322,6.99434506 C19.7574215,6.79918953 18.7721046,6.7657823 18.00007,6.7657823 C17.2280353,6.7657823 16.2427184,6.79914011 15.2333077,6.99434506 C15.1816981,6.88794601 15.1247447,6.75560199 15.0678851,6.59528684 C14.8957593,6.11009135 14.6906803,5.2660647 14.6906803,4 L13.2210019,4 C13.2210019,5.60305268 13.5048313,6.70030216 13.7907232,7.39928413 C13.5636597,7.48640978 13.3399243,7.5849018 13.1220952,7.69718171 C12.7327029,7.89777332 12.3805294,8.13241461 12.0668874,8.39947475 C11.1429771,8.09421374 9.05023344,7.40200217 7.25510049,6.80195699 L6.62837897,6.59251938 L6.36137779,7.22577411 C6.01656376,8.04360871 5.7432813,9.2445392 6.39929983,10.3213292 C7.23461603,11.6922116 9.13878071,12.1144473 10.2560044,12.244518 C10.2410981,12.4448131 10.2328949,12.6495559 10.2328949,12.8594877 C10.2328949,14.7245598 10.6405686,15.8688067 11.1568053,17.3174251 C11.3287904,17.8000508 11.5066349,18.299133 11.6908076,18.8825735 C12.1690285,20.3975615 12.7472342,21.9597941 13.7316604,23.1225238 C14.8012589,24.3858704 16.197437,25 18.0000231,25 C19.8026092,25 21.1987872,24.3858704 22.2683857,23.1225238 C23.2528588,21.9597941 23.8310177,20.3976109 24.3092854,18.8825735 C24.493505,18.2990836 24.6713026,17.8000014 24.8432878,17.3174251 C25.3594775,15.8687573 25.7671981,14.7245598 25.7671981,12.8594877 C25.7671981,12.6495559 25.7589481,12.4448625 25.7440886,12.244518 C26.8613123,12.1144473 28.7653833,11.692261 29.6007932,10.3213292 C30.256718,9.2445392 29.9833887,8.04360871 29.6386215,7.22577411 Z M10.5427401,10.7162363 C9.61489219,10.6176948 8.131245,10.2970645 7.63577405,9.48382588 C7.44667947,9.1734253 7.44288258,8.81617554 7.49819532,8.50839417 C8.77282597,8.9332985 10.1015037,9.37352273 11.0031483,9.6716674 C10.8156944,9.99447213 10.6619906,10.3430242 10.5427401,10.7162363 Z M17.9999293,23.4504681 C15.8418885,23.4504681 14.7012741,22.3859339 13.8160358,20.3857504 C14.8031339,19.4916129 16.3569064,18.9501786 17.9999293,18.9501786 C19.643046,18.9501786 21.1967716,19.4916623 22.1838229,20.3857504 C21.2985846,22.3858845 20.158017,23.4504681 17.9999293,23.4504681 Z M23.4673129,16.7724821 C23.2987497,17.2455699 23.1076395,17.7818646 22.9146542,18.3933256 C22.8612634,18.5624868 22.8075912,18.7266072 22.7537316,18.887713 C21.5144918,17.9435141 19.815453,17.4007455 17.9999293,17.4007455 C16.1844057,17.4007455 14.4853669,17.9435141 13.246127,18.887713 C13.1922205,18.7266072 13.1385953,18.5624868 13.0852044,18.3933256 C12.8922192,17.7818646 12.701109,17.2455699 12.5325457,16.7724821 C12.0506686,15.4201319 11.7025264,14.4430693 11.7025264,12.8594383 C11.7025264,11.038448 12.3779044,9.80519746 13.7672856,9.08921537 C14.7779619,8.5683888 16.1624681,8.3152154 17.9999293,8.3152154 C19.8373906,8.3152154 21.2219436,8.5683888 22.2325731,9.08921537 C23.6220011,9.80519746 24.2973322,11.0384974 24.2973322,12.8594383 C24.2973322,14.4430693 23.9491901,15.4201319 23.4673129,16.7724821 Z M19.6445224,19.82284 C20.0256988,19.82284 20.3352565,20.15575 20.3352565,20.56642 C20.3352565,20.97709 20.0256988,21.31 19.6445224,21.31 C19.26288,21.31 18.95328,20.97709 18.9533224,20.56642 C18.9533224,20.15575 19.26288,19.82284 19.6445224,19.82284 Z M16.8583341,19.828555 C17.2368,19.828555 17.5442824,20.15872 17.5443247,20.56642 C17.5443247,20.974075 17.2368,21.30451 16.8583341,21.30451 C16.4803765,21.30451 16.1727671,20.97403 16.1727671,20.56642 C16.1727671,20.15872 16.4803765,19.828555 16.8583341,19.828555 Z M20.4571482,12.096475 C20.9416235,12.096475 21.3350824,12.51961 21.3350824,13.04161 C21.3350824,13.56361 20.9416235,13.986745 20.4571482,13.986745 C19.9721224,13.986745 19.5786635,13.56361 19.5786635,13.04161 C19.5786635,12.51961 19.9721224,12.096475 20.4571482,12.096475 Z M16.0442682,12.103765 C16.5252706,12.103765 16.9161882,12.52339 16.9161882,13.041565 C16.9161882,13.55965 16.5252706,13.97968 16.0442682,13.97968 C15.5638165,13.97968 15.1728988,13.55965 15.1728988,13.041565 C15.1728988,12.523435 15.5638588,12.103765 16.0442682,12.103765 Z M28.5016633,8.50839417 C28.5569292,8.81578018 28.5532729,9.17253576 28.3648346,9.48263982 C27.8726918,10.2924191 26.3859977,10.6149274 25.4567905,10.715149 C25.3375868,10.3422829 25.1839768,9.99417562 24.9967103,9.6716674 C25.8983081,9.37347331 27.2270327,8.9332985 28.5016633,8.50839417 Z" id="Shape" fill="#30373D"></path>
                <g id="Group-3" transform="translate(6.000000, 27.000000)">
                    <rect id="Rectangle" fill="#01985A" x="0" y="0" width="32" height="14" rx="7"></rect>
                    <text id="10.1.3" font-family="TitilliumWeb-Bold, Titillium Web" font-size="9" font-weight="bold" fill="#FFFFFF">
                        <tspan x="4.116" y="10">10.1.3</tspan>
                    </text>
                </g>
                <g id="Group" transform="translate(22.000000, 13.000000)">
                    <rect id="Rectangle" fill="#30373D" x="0" y="0" width="12.6" height="12.6" rx="6.3"></rect>
                    <g id="warning" transform="translate(5.400000, 1.800000)" fill="#FFFFFF" fill-rule="nonzero">
                        <path d="M1.1961,6.601752 C0.7065,6.601752 0.2961,7.012152 0.2961,7.501752 C0.2961,7.991352 0.7065,8.401752 1.1961,8.401752 C1.6677,8.401752 2.0961,7.991352 2.0745,7.523352 C2.0961,7.008552 1.6893,6.601752 1.1961,6.601752 Z" id="Path"></path>
                        <path d="M0.9729,0.283752 C0.5445,0.406152 0.2781,0.794952 0.2781,1.266552 C0.2997,1.550952 0.3177,1.838952 0.3393,2.123352 C0.4005,3.206952 0.4617,4.268952 0.5229,5.352552 C0.5445,5.719752 0.8289,5.986152 1.1961,5.986152 C1.5633,5.986152 1.8513,5.701752 1.8693,5.330952 C1.8693,5.107752 1.8693,4.902552 1.8909,4.675752 C1.9305,3.980952 1.9737,3.286152 2.0133,2.591352 C2.0349,2.141352 2.0745,1.691352 2.0961,1.241352 C2.0961,1.079352 2.0745,0.935352 2.0133,0.791352 C1.8297,0.388152 1.4013,0.182952 0.9729,0.283752 Z" id="Path"></path>
                    </g>
                </g>
            </g>
        </g>
    </g>
</svg>