<?xml version="1.0" encoding="UTF-8"?>
<svg width="44px" height="44px" viewBox="0 0 44 44" version="1.1" xmlns="http://www.w3.org/2000/svg" xmlns:xlink="http://www.w3.org/1999/xlink">
    <title>icon-1014Bneg</title>
    <defs>
        <polygon id="path-1" points="0.0630178644 0.195288192 10.3018986 0.195288192 10.3018986 14.891791 0.0630178644 14.891791"></polygon>
        <polygon id="path-3" points="0.0477257762 0.0239759688 8.3955337 0.0239759688 8.3955337 19.3111818 0.0477257762 19.3111818"></polygon>
    </defs>
    <g id="Cruscotto-" stroke="none" stroke-width="1" fill="none" fill-rule="evenodd">
        <g id="icone-PSR" transform="translate(-141.000000, -659.000000)">
            <g id="icon-1014Bneg" transform="translate(141.000000, 659.000000)">
                <g id="intervento/olivo-pendenza">
                    <rect id="Rectangle" fill="#30373D" x="0" y="0" width="44" height="44" rx="4"></rect>
                    <rect id="Rectangle" fill="#01985A" x="6" y="27" width="32" height="14" rx="7"></rect>
                    <text id="10.1.4" font-family="TitilliumWeb-Bold, Titillium Web" font-size="9" font-weight="bold" fill="#FFFFFF">
                        <tspan x="10.116" y="37">10.1.4</tspan>
                    </text>
                    <g id="Group-3" transform="translate(26.209898, 9.711519) rotate(45.000000) translate(-26.209898, -9.711519) translate(20.709898, 2.211519)">
                        <mask id="mask-2" fill="white">
                            <use xlink:href="#path-1"></use>
                        </mask>
                        <g id="Clip-2"></g>
                        <path d="M9.46487013,14.891791 C9.01825816,14.891791 8.64775423,14.5388504 8.62977266,14.0888931 C8.30610444,5.95160628 6.24282405,1.86769947 5.17856613,1.86769947 C3.97965554,1.86769947 2.06315493,6.03984142 1.73488677,13.5829001 C1.71481432,14.0445664 1.32883788,14.4046159 0.862989811,14.3820344 C0.401323507,14.361962 0.0433648512,13.9718038 0.0638554752,13.5101375 C0.351978739,6.88246606 2.04559154,0.194995469 5.17856613,0.194995469 C8.33746764,0.194995469 10.0273169,7.1396443 10.3012221,14.0219849 C10.3196219,14.4836512 9.96040869,14.8729731 9.49874239,14.8913728 C9.48745164,14.891791 9.47616088,14.891791 9.46487013,14.891791" id="Fill-1" fill="#FFFFFF" mask="url(#mask-2)"></path>
                    </g>
                    <path d="M12.5022346,9.59192336 C12.2015661,18.8658125 15.5344288,22.3600912 17.2594048,23.540602 C17.345549,21.8946613 17.390712,18.9745383 16.8219927,16.9509846 C16.2758548,15.0073026 14.0005592,11.6610582 12.5022346,9.59192336 M18.0037581,25.7126082 C17.9192865,25.7126082 17.8343968,25.7000629 17.7524343,25.674136 C17.4187298,25.5687556 9.59298416,22.917938 10.9733831,7.18908406 C11.0034918,6.84701609 11.2393431,6.5576383 11.5692839,6.46020329 C11.8975521,6.36318646 12.2538381,6.47651216 12.4654351,6.74749021 C12.6711777,7.01094109 17.516583,13.2388363 18.4323885,16.4985182 C19.3465212,19.7515093 18.8572553,24.7491307 18.8359283,24.9598914 C18.8104196,25.2103788 18.6740942,25.4361938 18.4637517,25.5746101 C18.3257536,25.6657724 18.165174,25.7126082 18.0037581,25.7126082" id="Fill-4" fill="#FFFFFF" transform="translate(14.897974, 16.069287) rotate(45.000000) translate(-14.897974, -16.069287) "></path>
                    <g id="Group-8" transform="translate(19.299598, 20.940804) rotate(45.000000) translate(-19.299598, -20.940804) translate(14.799598, 10.940804)">
                        <mask id="mask-4" fill="white">
                            <use xlink:href="#path-3"></use>
                        </mask>
                        <g id="Clip-7"></g>
                        <path d="M0.884047296,19.3111818 C0.525252288,19.3111818 0.193220544,19.0778396 0.083658432,18.7165356 C-0.049321536,18.275778 0.198238656,17.8111845 0.637323456,17.6756955 C0.919592256,17.5857876 6.94885382,15.5120529 6.7176025,3.59487322 L1.92446918,11.4578365 C1.68401798,11.8525947 1.16924333,11.9763748 0.77490336,11.7367599 C0.380563392,11.4963087 0.255946944,10.9819523 0.496398144,10.5871941 L6.69083923,0.425099136 C6.87901843,0.116485248 7.24283155,-0.036567168 7.5957721,0.04623168 C7.94745811,0.128612352 8.20672723,0.427608192 8.23809043,0.787657728 C9.61932576,16.5240388 1.47367546,19.1702565 1.1261712,19.2752187 C1.04588141,19.2994729 0.964337088,19.3111818 0.884047296,19.3111818" id="Fill-6" fill="#FFFFFF" mask="url(#mask-4)"></path>
                    </g>
                    <path d="M24.4088502,13.3213166 L21.1010695,13.3213166 C20.6285905,13.3213166 20.2459038,12.9466309 20.2459038,12.4849646 C20.2459038,12.0232983 20.6285905,11.6486126 21.1010695,11.6486126 L24.4088502,11.6486126 C24.8809016,11.6486126 25.2640158,12.0232983 25.2640158,12.4849646 C25.2640158,12.9466309 24.8809016,13.3213166 24.4088502,13.3213166" id="Fill-9" fill="#FFFFFF" transform="translate(22.754960, 12.484965) rotate(45.000000) translate(-22.754960, -12.484965) "></path>
                    <path d="M25.927419,11.251451 L23.7222319,11.251451 C23.4072458,11.251451 23.1521214,10.8767653 23.1521214,10.415099 C23.1521214,9.95343267 23.4072458,9.57874697 23.7222319,9.57874697 L25.927419,9.57874697 C26.24212,9.57874697 26.4975294,9.95343267 26.4975294,10.415099 C26.4975294,10.8767653 26.24212,11.251451 25.927419,11.251451" id="Fill-9" fill="#FFFFFF" transform="translate(24.824825, 10.415099) rotate(45.000000) translate(-24.824825, -10.415099) "></path>
                    <rect id="Rectangle" fill="#FFFFFF" x="22" y="13" width="12.6" height="12.6" rx="6.3"></rect>
                    <path d="M28.5961,21.401752 C28.1065,21.401752 27.6961,21.812152 27.6961,22.301752 C27.6961,22.791352 28.1065,23.201752 28.5961,23.201752 C29.0677,23.201752 29.4961,22.791352 29.4745,22.323352 C29.4961,21.808552 29.0893,21.401752 28.5961,21.401752 Z" id="Path" fill="#30373D" fill-rule="nonzero"></path>
                    <path d="M28.3729,15.083752 C27.9445,15.206152 27.6781,15.594952 27.6781,16.066552 C27.6997,16.350952 27.7177,16.638952 27.7393,16.923352 C27.8005,18.006952 27.8617,19.068952 27.9229,20.152552 C27.9445,20.519752 28.2289,20.786152 28.5961,20.786152 C28.9633,20.786152 29.2513,20.501752 29.2693,20.130952 C29.2693,19.907752 29.2693,19.702552 29.2909,19.475752 C29.3305,18.780952 29.3737,18.086152 29.4133,17.391352 C29.4349,16.941352 29.4745,16.491352 29.4961,16.041352 C29.4961,15.879352 29.4745,15.735352 29.4133,15.591352 C29.2297,15.188152 28.8013,14.982952 28.3729,15.083752 Z" id="Path" fill="#30373D" fill-rule="nonzero"></path>
                </g>
            </g>
        </g>
    </g>
</svg>