<?xml version="1.0" encoding="UTF-8"?>
<svg width="64px" height="77px" viewBox="0 0 64 77" version="1.1" xmlns="http://www.w3.org/2000/svg" xmlns:xlink="http://www.w3.org/1999/xlink">
    <title>Group 6</title>
    <g id="PSR" stroke="none" stroke-width="1" fill="none" fill-rule="evenodd">
        <g id="stati-e-icone" transform="translate(-154.000000, -1460.000000)" fill="#FFFFFF" fill-rule="nonzero">
            <g id="Group-6" transform="translate(154.000000, 1460.000000)">
                <g id="field">
                    <path d="M17.1932813,53.2054687 C25.0879687,42.9121874 36.5160937,35.7651563 49.1264063,33.0867187 C49.12875,33.08625 49.1310937,33.0857813 49.1329687,33.0853126 C52.756875,32.3160937 56.4773437,31.9153126 60.24,31.9153126 C60.9023437,31.9153126 61.44,31.3776563 61.44,30.7153126 C61.44,30.0525 60.9023437,29.5153126 60.24,29.5153126 C56.8279687,29.5153126 53.4290626,29.8275 50.0878126,30.4382813 L50.0878126,27.8479687 C54.4251563,24.17625 56.8059374,19.365 56.8059374,14.2415626 C56.8059374,8.94421872 54.2610937,3.980625 49.6396874,0.26484372 C49.2004687,-0.088125 48.5746874,-0.088125 48.1354687,0.26484372 C43.5145313,3.980625 40.9692187,8.94421872 40.9692187,14.2415626 C40.9692187,19.365 43.3504687,24.17625 47.6873437,27.8479687 L47.6873437,30.9290626 C45.4073437,31.4479687 43.1601563,32.109375 40.9598437,32.9057813 L40.9598437,25.8796874 C40.9598437,25.5496874 40.8267187,25.2510937 40.6110937,25.0340626 L40.6110937,25.0335937 L33.8910937,18.27375 C33.665625,18.0473437 33.3595313,17.9198437 33.0398437,17.9198437 L19.32,17.9198437 C19.0007813,17.9198437 18.6942187,18.0473437 18.4692187,18.27375 L11.7492187,25.0335937 L11.7492187,25.0340626 C11.5335937,25.2510937 11.4,25.5496874 11.4,25.8801563 L11.4,30.4626563 C10.56375,30.309375 9.72375,30.174375 8.88,30.0590626 L8.88,25.78125 C12.1598437,22.9598437 13.959375,19.2801563 13.959375,15.36 C13.959375,11.2645313 11.99625,7.43109372 8.431875,4.56468744 C7.99265628,4.21171872 7.36734372,4.21171872 6.928125,4.56468744 C3.36375,7.430625 1.400625,11.2645313 1.400625,15.36 C1.400625,19.2796874 3.20015628,22.959375 6.48,25.7807813 L6.48,29.7829687 C4.73015628,29.619375 2.96859372,29.535 1.2,29.535 C0.53718744,29.535 0,30.0721874 0,30.735 C0,31.3978126 0.53718744,31.935 1.2,31.935 C10.7953126,31.935 20.180625,34.47375 28.4545313,39.2901563 C26.4721874,40.6373437 24.5789063,42.10875 22.7864063,43.6926563 C16.0828126,40.2773437 8.634375,38.475 1.2,38.475 C0.53765628,38.475 0,39.0121874 0,39.675 C0,40.3378126 0.53765628,40.875 1.2,40.875 C7.96453128,40.875 14.7426563,42.448125 20.900625,45.4354687 C19.07625,47.2003126 17.3709374,49.0884374 15.7973437,51.084375 C11.1295313,49.126875 6.22359372,48.135 1.2,48.135 C0.53765628,48.135 0,48.6721874 0,49.335 C0,49.9978126 0.53765628,50.535 1.2,50.535 C5.7,50.535 10.0996874,51.388125 14.3025,53.068125 C13.4732813,54.2203126 12.6853126,55.4039063 11.9442187,56.6189063 L10.115625,59.6146874 C9.77015628,60.18 9.94921872,60.91875 10.5145313,61.26375 C10.71,61.3832813 10.925625,61.44 11.1389063,61.44 C11.5429687,61.44 11.938125,61.2351563 12.1640626,60.8648437 L13.9926563,57.8690626 C14.9460937,56.3067187 15.9764063,54.8034374 17.0746874,53.3601563 C17.1178126,53.3123437 17.158125,53.26125 17.1932813,53.2054687 Z M43.3696874,14.2415626 C43.3696874,9.97640628 45.3210937,5.93625 48.8878126,2.77031256 C52.4545313,5.93625 54.4059374,9.97640628 54.4059374,14.2415626 C54.4059374,18 52.8890626,21.5845313 50.0878126,24.549375 L50.0878126,15.36 C50.0878126,14.6971874 49.550625,14.16 48.8878126,14.16 C48.225,14.16 47.6878126,14.6971874 47.6878126,15.36 L47.6878126,24.549375 C44.8860937,21.5845313 43.3696874,18 43.3696874,14.2415626 Z M3.800625,15.36 C3.800625,12.2990626 5.17078128,9.391875 7.68,7.081875 C10.1892187,9.39140628 11.559375,12.2990626 11.559375,15.36 C11.559375,17.8898437 10.6223437,20.3151563 8.88,22.3851563 L8.88,14.4 C8.88,13.7371874 8.34281256,13.2 7.68,13.2 C7.01765628,13.2 6.48,13.7371874 6.48,14.4 L6.48,22.3851563 C4.73765628,20.3151563 3.800625,17.8898437 3.800625,15.36 Z M36.8751563,24.6796874 L26.5392187,24.6796874 L22.2051563,20.3198437 L32.5410937,20.3198437 L36.8751563,24.6796874 Z M19.32,20.821875 L23.1553126,24.6796874 L15.4851563,24.6796874 L19.32,20.821875 Z M13.8,27.0796874 L24.84,27.0796874 L24.84,34.7109374 C24.2835937,34.455 23.7239063,34.2075 23.16,33.9698437 L23.16,29.9395313 C23.16,29.2771874 22.6228126,28.7395313 21.96,28.7395313 L16.68,28.7395313 C16.0176563,28.7395313 15.48,29.2771874 15.48,29.9395313 L15.48,31.3664063 C14.9221874,31.2210937 14.3625,31.0832813 13.8,30.9548437 L13.8,27.0796874 Z M20.76,33.0229687 C19.8084374,32.6723437 18.8484374,32.3470313 17.88,32.0484374 L17.88,31.1395313 L20.76,31.1395313 L20.76,33.0229687 Z M27.24,35.8851563 L27.24,27.0796874 L38.5603126,27.0796874 L38.5603126,33.8371874 C36.5048437,34.6889063 34.49625,35.6610937 32.5490626,36.7542187 C31.9265626,37.1034374 31.3115626,37.46625 30.7035937,37.8384374 C29.5692187,37.145625 28.4142187,36.4940626 27.24,35.8851563 L27.24,35.8851563 Z" id="Shape"></path>
                    <path d="M48.8878126,12 C49.2032813,12 49.513125,11.8715626 49.73625,11.6479687 C49.959375,11.4248437 50.0878126,11.1154687 50.0878126,10.8 C50.0878126,10.4840626 49.9598437,10.1746874 49.73625,9.95156256 C49.513125,9.72796872 49.2032813,9.6 48.8878126,9.6 C48.5723437,9.6 48.2625,9.72796872 48.0398437,9.95156256 C47.81625,10.1746874 47.6878126,10.4840626 47.6878126,10.8 C47.6878126,11.1154687 47.81625,11.4248437 48.0398437,11.6479687 C48.2625,11.8710937 48.5723437,12 48.8878126,12 Z" id="Path"></path>
                </g>
                <g id="loupe" transform="translate(28.000000, 41.000000)">
                    <path d="M35.0133923,32.9252538 L24.9333923,22.8452538 C26.8859077,20.4334615 28.0615154,17.3688231 28.0615154,14.031 C28.0615154,6.29487692 21.7668462,0.000207692308 14.0307231,0.000207692308 C6.2946,0.000207692308 0,6.29480769 0,14.0309308 C0,21.7670538 6.29466923,28.0617231 14.0307923,28.0617231 C17.3686154,28.0617231 20.4332538,26.8861154 22.8450462,24.9336 L32.9250462,35.0136 C33.2130462,35.3016 33.5911154,35.4463615 33.9692538,35.4463615 C34.3473923,35.4463615 34.7254615,35.3016 35.0134615,35.0136 C35.5909154,34.4361462 35.5909154,33.5027077 35.0133923,32.9252538 Z M14.0307923,25.1078538 C7.92221538,25.1078538 2.95386923,20.1395077 2.95386923,14.0309308 C2.95386923,7.92235385 7.92221538,2.95400769 14.0307923,2.95400769 C20.1393692,2.95400769 25.1077154,7.92235385 25.1077154,14.0309308 C25.1077154,20.1395077 20.1393,25.1078538 14.0307923,25.1078538 Z" id="Shape"></path>
                </g>
            </g>
        </g>
    </g>
</svg>