<?xml version="1.0" encoding="UTF-8"?>
<svg width="72px" height="50px" viewBox="0 0 72 50" version="1.1" xmlns="http://www.w3.org/2000/svg" xmlns:xlink="http://www.w3.org/1999/xlink">
    <title>Group 4</title>
    <g id="PSR" stroke="none" stroke-width="1" fill="none" fill-rule="evenodd">
        <g id="stati-e-icone" transform="translate(-161.000000, -1177.000000)" fill="#FFFFFF" fill-rule="nonzero">
            <g id="Group-4" transform="translate(161.000000, 1177.000000)">
                <g id="euro-(2)">
                    <path d="M25,50 C18.3222656,50 12.0441406,47.3996094 7.32226562,42.6777344 C2.60039063,37.9558594 0,31.6777344 0,25 C0,18.3222656 2.60048828,12.0442383 7.32226562,7.32226562 C12.044043,2.60029297 18.3222656,-5.55111512e-15 25,-5.55111512e-15 C31.6777344,-5.55111512e-15 37.9558594,2.60039062 42.6777344,7.32226562 C47.3996094,12.0441406 50,18.3222656 50,25 C50,31.6777344 47.3995117,37.9557617 42.6777344,42.6777344 C37.955957,47.399707 31.6777344,50 25,50 Z M25,3.125 C12.9380859,3.125 3.125,12.9380859 3.125,25 C3.125,37.0619141 12.9380859,46.875 25,46.875 C37.0619141,46.875 46.875,37.0619141 46.875,25 C46.875,12.9380859 37.0619141,3.125 25,3.125 Z" id="Shape"></path>
                    <path d="M31.25,35.15625 L28.125,35.15625 C24.5368164,35.15625 21.3772461,33.2858398 19.5701172,30.46875 L26.5625,30.46875 C27.4254883,30.46875 28.125,29.7691406 28.125,28.90625 C28.125,28.0433594 27.4254883,27.34375 26.5625,27.34375 L18.2421875,27.34375 C18.0636719,26.5911133 17.96875,25.8064453 17.96875,25 C17.96875,24.1935547 18.0637695,23.4088867 18.2421875,22.65625 L26.5625,22.65625 C27.4254883,22.65625 28.125,21.9566406 28.125,21.09375 C28.125,20.2308594 27.4254883,19.53125 26.5625,19.53125 L19.5701172,19.53125 C21.3772461,16.7141602 24.5368164,14.84375 28.125,14.84375 L30.46875,14.84375 C31.3317383,14.84375 32.03125,14.1441406 32.03125,13.28125 C32.03125,12.4183594 31.3317383,11.71875 30.46875,11.71875 L28.125,11.71875 C22.7500977,11.71875 18.1108398,14.9282227 16.0225586,19.53125 L14.0625,19.53125 C13.1995117,19.53125 12.5,20.2308594 12.5,21.09375 C12.5,21.9566406 13.1995117,22.65625 14.0625,22.65625 L15.0508789,22.65625 C14.9148438,23.4172852 14.84375,24.2004883 14.84375,25 C14.84375,25.7995117 14.9148438,26.5827148 15.0508789,27.34375 L14.0625,27.34375 C13.1995117,27.34375 12.5,28.0433594 12.5,28.90625 C12.5,29.7691406 13.1995117,30.46875 14.0625,30.46875 L16.0225586,30.46875 C18.1107422,35.0717773 22.7500977,38.28125 28.125,38.28125 L31.25,38.28125 C32.1129883,38.28125 32.8125,37.5816406 32.8125,36.71875 C32.8125,35.8558594 32.1129883,35.15625 31.25,35.15625 Z" id="Path"></path>
                </g>
                <g id="arrow-pointing-to-right" transform="translate(31.000000, 11.000000)">
                    <path d="M39.77565,12.68655 L27.77565,0.68655 C27.0435,-0.0456 25.8561,-0.0456 25.12395,0.68655 C24.39165,1.41885 24.39165,2.60595 25.12395,3.33825 L33.9231,12.1374 L1.875,12.1374 C0.83955,12.1374 0,12.97695 0,14.0124 C0,15.0477 0.83955,15.8874 1.875,15.8874 L33.9231,15.8874 L25.12425,24.68655 C24.39195,25.41885 24.39195,26.60595 25.12425,27.33825 C25.49025,27.7041 25.97025,27.8874 26.4501,27.8874 C26.92995,27.8874 27.4098,27.7041 27.77595,27.33825 L39.77565,15.33825 C40.50795,14.60595 40.50795,13.41885 39.77565,12.68655 Z" id="Path"></path>
                </g>
            </g>
        </g>
    </g>
</svg>