<?xml version="1.0" encoding="UTF-8"?>
<svg width="59px" height="50px" viewBox="0 0 59 50" version="1.1" xmlns="http://www.w3.org/2000/svg" xmlns:xlink="http://www.w3.org/1999/xlink">
    <title>Group 7</title>
    <g id="PSR" stroke="none" stroke-width="1" fill="none" fill-rule="evenodd">
        <g id="stati-e-icone" transform="translate(-765.000000, -879.000000)" fill="#FFFFFF" fill-rule="nonzero">
            <g id="Group-7" transform="translate(765.000000, 879.000000)">
                <path d="M25,-7.10542736e-15 C31.6777344,-7.10542736e-15 37.9558594,2.60039062 42.6777344,7.32226562 C45.1830434,9.82757466 47.0911336,12.7709834 48.3304746,15.9797337 L45.8092235,18.2489059 C42.9576821,9.48050189 34.7070743,3.125 25,3.125 C12.9380859,3.125 3.125,12.9380859 3.125,25 C3.125,37.0619141 12.9380859,46.875 25,46.875 C32.953768,46.875 39.9296919,42.6080359 43.7588873,36.2429922 L49.1903372,31.3524312 C48.0828366,35.5989792 45.8629359,39.4924011 42.6777344,42.6777344 C37.955957,47.399707 31.6777344,50 25,50 C18.3222656,50 12.0441406,47.3996094 7.32226562,42.6777344 C2.60039062,37.9558594 -2.34479103e-13,31.6777344 -2.34479103e-13,25 C-2.34479103e-13,18.3222656 2.60048828,12.0442383 7.32226562,7.32226562 C12.044043,2.60029297 18.3222656,-7.10542736e-15 25,-7.10542736e-15 Z M30.46875,11.71875 C31.3317383,11.71875 32.03125,12.4183594 32.03125,13.28125 C32.03125,14.0962023 31.4073028,14.7655117 30.6109758,14.8373641 L30.46875,14.84375 L28.125,14.84375 C24.6455492,14.84375 21.5691288,16.6025195 19.7381017,19.2777846 L19.5701172,19.53125 L26.5625,19.53125 C27.4254883,19.53125 28.125,20.2308594 28.125,21.09375 C28.125,21.9087023 27.5010528,22.5780117 26.7047258,22.6498641 L26.5625,22.65625 L18.2421875,22.65625 C18.0637695,23.4088867 17.96875,24.1935547 17.96875,25 C17.96875,25.6720378 18.034668,26.3289524 18.1599483,26.9648098 L18.2421875,27.34375 L26.5625,27.34375 C27.4254883,27.34375 28.125,28.0433594 28.125,28.90625 C28.125,29.7212023 27.5010528,30.3905117 26.7047258,30.4623641 L26.5625,30.46875 L19.5701172,30.46875 C21.3224846,33.2004735 24.3465692,35.0420225 27.800008,35.1511231 L28.125,35.15625 L31.25,35.15625 C32.1129883,35.15625 32.8125,35.8558594 32.8125,36.71875 C32.8125,37.5337023 32.1885528,38.2030117 31.3922258,38.2748641 L31.25,38.28125 L28.125,38.28125 C22.8620748,38.28125 18.3043679,35.2041124 16.1563755,30.7546083 L16.0225586,30.46875 L14.0625,30.46875 C13.1995117,30.46875 12.5,29.7691406 12.5,28.90625 C12.5,28.0912977 13.1239472,27.4219883 13.9202742,27.3501359 L14.0625,27.34375 L15.0508789,27.34375 C14.9148437,26.5827148 14.84375,25.7995117 14.84375,25 C14.84375,24.3603906 14.88925,23.7312188 14.9771,23.1154844 L15.0508789,22.65625 L14.0625,22.65625 C13.1995117,22.65625 12.5,21.9566406 12.5,21.09375 C12.5,20.2787977 13.1239472,19.6094883 13.9202742,19.5376359 L14.0625,19.53125 L16.0225586,19.53125 C18.067334,15.0241191 22.5579024,11.8530829 27.7900429,11.7229126 L28.125,11.71875 L30.46875,11.71875 Z" id="Combined-Shape"></path>
                <g id="checked" transform="translate(33.000000, 13.000000)">
                    <polygon id="Path" points="0 10.5113 8.82745 19.3556 25.7778 2.422 23.3443 0.02215 8.82745 14.52215 2.3998 8.09455"></polygon>
                </g>
            </g>
        </g>
    </g>
</svg>