<?xml version="1.0" encoding="UTF-8"?>
<svg width="58px" height="58px" viewBox="0 0 58 58" version="1.1" xmlns="http://www.w3.org/2000/svg" xmlns:xlink="http://www.w3.org/1999/xlink">
    <title>Group 5</title>
    <g id="PSR" stroke="none" stroke-width="1" fill="none" fill-rule="evenodd">
        <g id="stati-e-icone" transform="translate(-1064.000000, -876.000000)" fill="#FFFFFF">
            <g id="Group-5" transform="translate(1064.000000, 876.000000)">
                <g id="euro-(2)" transform="translate(3.000000, 3.000000)" fill-rule="nonzero">
                    <path d="M25,50 C18.3222656,50 12.0441406,47.3996094 7.32226562,42.6777344 C2.60039063,37.9558594 0,31.6777344 0,25 C0,18.3222656 2.60048828,12.0442383 7.32226562,7.32226562 C12.044043,2.60029297 18.3222656,-5.55111512e-15 25,-5.55111512e-15 C31.6777344,-5.55111512e-15 37.9558594,2.60039062 42.6777344,7.32226562 C47.3996094,12.0441406 50,18.3222656 50,25 C50,31.6777344 47.3995117,37.9557617 42.6777344,42.6777344 C37.955957,47.399707 31.6777344,50 25,50 Z M25,3.125 C12.9380859,3.125 3.125,12.9380859 3.125,25 C3.125,37.0619141 12.9380859,46.875 25,46.875 C37.0619141,46.875 46.875,37.0619141 46.875,25 C46.875,12.9380859 37.0619141,3.125 25,3.125 Z" id="Shape"></path>
                    <path d="M31.25,35.15625 L28.125,35.15625 C24.5368164,35.15625 21.3772461,33.2858398 19.5701172,30.46875 L26.5625,30.46875 C27.4254883,30.46875 28.125,29.7691406 28.125,28.90625 C28.125,28.0433594 27.4254883,27.34375 26.5625,27.34375 L18.2421875,27.34375 C18.0636719,26.5911133 17.96875,25.8064453 17.96875,25 C17.96875,24.1935547 18.0637695,23.4088867 18.2421875,22.65625 L26.5625,22.65625 C27.4254883,22.65625 28.125,21.9566406 28.125,21.09375 C28.125,20.2308594 27.4254883,19.53125 26.5625,19.53125 L19.5701172,19.53125 C21.3772461,16.7141602 24.5368164,14.84375 28.125,14.84375 L30.46875,14.84375 C31.3317383,14.84375 32.03125,14.1441406 32.03125,13.28125 C32.03125,12.4183594 31.3317383,11.71875 30.46875,11.71875 L28.125,11.71875 C22.7500977,11.71875 18.1108398,14.9282227 16.0225586,19.53125 L14.0625,19.53125 C13.1995117,19.53125 12.5,20.2308594 12.5,21.09375 C12.5,21.9566406 13.1995117,22.65625 14.0625,22.65625 L15.0508789,22.65625 C14.9148438,23.4172852 14.84375,24.2004883 14.84375,25 C14.84375,25.7995117 14.9148438,26.5827148 15.0508789,27.34375 L14.0625,27.34375 C13.1995117,27.34375 12.5,28.0433594 12.5,28.90625 C12.5,29.7691406 13.1995117,30.46875 14.0625,30.46875 L16.0225586,30.46875 C18.1107422,35.0717773 22.7500977,38.28125 28.125,38.28125 L31.25,38.28125 C32.1129883,38.28125 32.8125,37.5816406 32.8125,36.71875 C32.8125,35.8558594 32.1129883,35.15625 31.25,35.15625 Z" id="Path"></path>
                </g>
                <path d="M2.41421356,0.292893219 L28.93,26.809 L55.4472222,0.292893219 C55.8377464,-0.0976310729 56.4709114,-0.0976310729 56.8614357,0.292893219 L57.5685425,1 C57.9590668,1.39052429 57.9590668,2.02368927 57.5685425,2.41421356 L31.052,28.93 L57.5685425,55.4472222 C57.9590668,55.8377464 57.9590668,56.4709114 57.5685425,56.8614357 L56.8614357,57.5685425 C56.4709114,57.9590668 55.8377464,57.9590668 55.4472222,57.5685425 L28.93,31.052 L2.41421356,57.5685425 C2.02368927,57.9590668 1.39052429,57.9590668 1,57.5685425 L0.292893219,56.8614357 C-0.0976310729,56.4709114 -0.0976310729,55.8377464 0.292893219,55.4472222 L26.809,28.93 L0.292893219,2.41421356 C-0.0976310729,2.02368927 -0.0976310729,1.39052429 0.292893219,1 L1,0.292893219 C1.39052429,-0.0976310729 2.02368927,-0.0976310729 2.41421356,0.292893219 Z" id="Combined-Shape"></path>
            </g>
        </g>
    </g>
</svg>