<?xml version="1.0" encoding="UTF-8"?>
<svg width="32px" height="54px" viewBox="0 0 32 54" version="1.1" xmlns="http://www.w3.org/2000/svg" xmlns:xlink="http://www.w3.org/1999/xlink">
    <title>Fill 1</title>
    <g id="PSR" stroke="none" stroke-width="1" fill="none" fill-rule="evenodd">
        <g id="stati-e-icone" transform="translate(-471.000000, -1459.000000)" fill="#FFFFFF">
            <path d="M495.739721,1490.20538 C495.078405,1489.54224 494.003484,1489.54224 493.341791,1490.20538 C492.680098,1490.86965 492.680098,1491.94405 493.341791,1492.60681 L502.225068,1501.50293 C502.886761,1502.16569 503.958666,1502.16569 504.623375,1501.50293 L513.504013,1492.60681 C514.165329,1491.94405 514.165329,1490.86965 513.504013,1490.20538 C512.84232,1489.54224 511.767399,1489.54224 511.105705,1490.20538 L505.116535,1496.20347 L505.116535,1476.60648 C505.116535,1475.69939 504.932165,1474.82514 504.598114,1474.03512 C504.098545,1472.8463 503.261909,1471.84177 502.209232,1471.12916 C501.684779,1470.77267 501.10264,1470.48981 500.482044,1470.29684 C499.862201,1470.10235 499.200508,1470 498.519964,1470 L466.597325,1470 C465.690561,1469.9985 464.817729,1470.18317 464.028599,1470.51964 C462.842075,1471.02191 461.83879,1471.85725 461.127706,1472.91163 C460.770279,1473.43958 460.487504,1474.02114 460.295217,1474.6435 C460.102176,1475.26396 460,1475.92635 460,1476.60648 L460,1500.3024 C460,1501.24047 460.757837,1501.99915 461.695895,1501.99915 C462.631314,1501.99915 463.388773,1501.24047 463.388773,1500.3024 L463.388773,1476.60648 C463.388773,1476.15822 463.479261,1475.7413 463.640632,1475.35724 C463.882687,1474.78323 464.292899,1474.29003 464.805287,1473.94335 C465.059784,1473.76888 465.342559,1473.63368 465.640792,1473.5389 C465.942042,1473.44524 466.259126,1473.39577 466.597325,1473.39577 L498.519964,1473.39577 C498.96524,1473.39577 499.384877,1473.48603 499.766812,1473.64766 C500.342165,1473.89048 500.832308,1474.29947 501.182194,1474.81268 C501.350728,1475.06948 501.487214,1475.3512 501.582603,1475.65105 C501.674977,1475.95127 501.729269,1476.27038 501.729269,1476.60648 L501.729269,1496.20196 L495.739721,1490.20538 Z" id="Fill-1" transform="translate(487.000000, 1486.000000) scale(-1, 1) rotate(-90.000000) translate(-487.000000, -1486.000000) "></path>
        </g>
    </g>
</svg>