<?xml version="1.0" encoding="UTF-8"?>
<svg width="75px" height="50px" viewBox="0 0 75 50" version="1.1" xmlns="http://www.w3.org/2000/svg" xmlns:xlink="http://www.w3.org/1999/xlink">
    <title>status-inassegnazione</title>
    <defs>
        <polygon id="path-1" points="5.0017257e-05 2.7173489e-05 19.9913901 2.7173489e-05 19.9913901 11.3948 5.0017257e-05 11.3948"></polygon>
        <polygon id="path-3" points="5.0017257e-05 2.7173489e-05 19.9913901 2.7173489e-05 19.9913901 11.3948 5.0017257e-05 11.3948"></polygon>
    </defs>
    <g id="PSR" stroke="none" stroke-width="1" fill="none" fill-rule="evenodd">
        <g id="stati-e-icone" transform="translate(-1055.000000, -246.000000)">
            <g id="status-inassegnazione" transform="translate(1055.000000, 246.000000)">
                <g id="Group" transform="translate(19.000000, 0.000000)" fill="#FFFFFF" fill-rule="nonzero">
                    <g id="file">
                        <path d="M36.9927,12.924225 L24.525,0.456525 C24.2328375,0.1643625 23.837175,0 23.423175,0 L3.163275,0 C1.44495,0 0.04635,1.3986 0.04635,3.116925 L0.04635,46.75365 C0.04635,48.4718625 1.44495,49.870575 3.163275,49.870575 L34.3324125,49.870575 C36.050625,49.870575 37.4493375,48.471975 37.4493375,46.75365 L37.4493375,14.02605 C37.4493375,13.6121625 37.2848625,13.2163875 36.9927,12.924225 Z M24.9816375,5.3206875 L32.12865,12.4677 L24.9816375,12.4677 L24.9816375,5.3206875 Z M34.3324125,46.7537625 L3.163275,46.7537625 L3.163275,3.1170375 L21.8647125,3.1170375 L21.8647125,12.4678125 C21.8647125,14.186025 23.2633125,15.5847375 24.9816375,15.5847375 L34.3324125,15.5847375 L34.3324125,46.7537625 L34.3324125,46.7537625 Z" id="Shape"></path>
                    </g>
                </g>
                <g id="Group-2" transform="translate(0.000000, 15.000000)">
                    <g id="Group-3" transform="translate(69.000000, 10.000000) rotate(-90.000000) translate(-69.000000, -10.000000) translate(59.000000, 4.000000)">
                        <mask id="mask-2" fill="white">
                            <use xlink:href="#path-1"></use>
                        </mask>
                        <g id="Clip-2"></g>
                        <path d="M19.58664,0.4036 C19.03644,-0.1466 18.13744,-0.1268 17.59304,0.4176 C17.44624,0.5644 10.08044,7.9322 9.99664,8.0158 C8.74724,6.766 3.67544,1.6928 2.38904,0.4062 C1.75524,-0.2278 0.66264,-0.0988 0.19784,0.6704 C-0.14696,1.241 -0.02456,1.9522 0.43764,2.4146 C0.88764,2.8646 8.22624,10.205 8.81144,10.7904 C8.96504,10.944 9.10984,11.0962 9.29904,11.2094 C9.85224,11.54 10.56224,11.4102 11.00724,10.9652 C12.28804,9.684 19.51184,2.4584 19.58644,2.384 C20.12604,1.8442 20.12664,0.9434 19.58664,0.4036 C19.04004,-0.1428 20.13344,0.9504 19.58664,0.4036" id="Fill-1" fill="#FFFFFF" mask="url(#mask-2)"></path>
                    </g>
                    <g id="Group-3" transform="translate(6.000000, 10.000000) scale(-1, 1) rotate(-90.000000) translate(-6.000000, -10.000000) translate(-4.000000, 4.000000)">
                        <mask id="mask-4" fill="white">
                            <use xlink:href="#path-3"></use>
                        </mask>
                        <g id="Clip-2"></g>
                        <path d="M19.58664,0.4036 C19.03644,-0.1466 18.13744,-0.1268 17.59304,0.4176 C17.44624,0.5644 10.08044,7.9322 9.99664,8.0158 C8.74724,6.766 3.67544,1.6928 2.38904,0.4062 C1.75524,-0.2278 0.66264,-0.0988 0.19784,0.6704 C-0.14696,1.241 -0.02456,1.9522 0.43764,2.4146 C0.88764,2.8646 8.22624,10.205 8.81144,10.7904 C8.96504,10.944 9.10984,11.0962 9.29904,11.2094 C9.85224,11.54 10.56224,11.4102 11.00724,10.9652 C12.28804,9.684 19.51184,2.4584 19.58644,2.384 C20.12604,1.8442 20.12664,0.9434 19.58664,0.4036 C19.04004,-0.1428 20.13344,0.9504 19.58664,0.4036" id="Fill-1" fill="#FFFFFF" mask="url(#mask-4)"></path>
                    </g>
                </g>
            </g>
        </g>
    </g>
</svg>