<svg xmlns="http://www.w3.org/2000/svg" width="68" height="90" viewBox="0 0 68 90">
    <g fill="#01985A">
        <path d="M67.184 17.775l-.09-.09v-.09L49.936.45l-.09-.09s-.09 0-.09-.09c0 0-.09 0-.09-.09C49.395 0 49.124 0 48.763 0H6.23C4.605 0 3.07.632 1.987 1.714l-.09.09C.812 2.888.09 4.512.09 6.136V82.92c0 1.715.723 3.249 1.806 4.331 1.084 1.083 2.71 1.805 4.335 1.805h54.993c1.716 0 3.25-.722 4.335-1.805 1.083-1.082 1.806-2.707 1.806-4.33V18.676c0-.36-.09-.631-.181-.902zM50.478 6.496l10.204 10.196h-7.495c-.722 0-1.445-.27-1.896-.812-.452-.451-.813-1.173-.813-1.895V6.496zM63.482 82.92c0 .632-.271 1.173-.723 1.624-.451.452-.993.722-1.625.722H6.23c-.632 0-1.174-.27-1.626-.631-.451-.451-.632-.993-.632-1.624V6.045c0-.631.271-1.173.723-1.624l.09-.09c.451-.361.993-.632 1.535-.632h40.455v10.196c0 1.805.722 3.429 1.987 4.692 1.173 1.173 2.89 1.895 4.695 1.895h10.024v62.437z"/>
        <g>
            <path d="M16.17.046c.216-.061.445-.061.66 0L32.183 4.46c.485.14.817.567.817 1.052v16.18c0 2.105-.89 4.26-2.643 6.404-1.34 1.638-3.193 3.282-5.508 4.888-3.89 2.697-7.72 4.352-7.88 4.421-.15.064-.31.096-.469.096-.16 0-.32-.032-.468-.096-.162-.069-3.992-1.724-7.881-4.421-2.315-1.606-4.168-3.25-5.508-4.888C.89 25.951 0 23.796 0 21.692V5.512c0-.486.332-.913.817-1.053zm.092 4.101L4.298 7.597c-.378.109-.637.443-.637.823v12.648c0 1.645.693 3.33 2.06 5.005 1.043 1.28 2.488 2.566 4.292 3.821 3.03 2.109 6.016 3.402 6.141 3.456.116.05.24.075.365.075s.25-.024.365-.075c.126-.054 3.11-1.347 6.141-3.456 1.805-1.255 3.249-2.54 4.293-3.82 1.366-1.677 2.06-3.36 2.06-5.006V8.42c0-.38-.26-.714-.637-.823l-11.965-3.45c-.167-.048-.346-.048-.514 0z" transform="translate(17.25 27.75)"/>
            <path d="M15.099 20.873l6.907-6.903c.628-.627 1.646-.627 2.273 0 .628.628.628 1.644 0 2.271l-8.044 8.039c-.628.627-1.645.627-2.273 0l-4.491-4.488c-.628-.628-.628-1.644 0-2.272.627-.627 1.645-.627 2.273 0l3.355 3.353z" transform="translate(17.25 27.75)"/>
        </g>
    </g>
</svg>
