<svg xmlns="http://www.w3.org/2000/svg" width="93" height="93" viewBox="0 0 93 93">
    <g fill="#01985A">
        <path d="M40 0c22.055 0 40 17.945 40 40h-5C75 20.7 59.3 5 40 5S5 20.7 5 40c0 17.603 13.06 32.21 30 34.644v5.045C15.297 77.221 0 60.362 0 40 0 17.945 17.945 0 40 0z"/>
        <path d="M49.895 53.325c-2.285 1.33-4.895 2.03-7.548 2.03-8.312 0-15.077-6.762-15.077-15.072 0-8.31 6.762-15.073 15.077-15.073 2.653 0 5.26.703 7.55 2.027 1.2.696 2.726.288 3.418-.91.693-1.192.285-2.725-.91-3.415-3.05-1.767-6.528-2.7-10.058-2.7-11.07 0-20.077 9.006-20.077 20.073 0 11.068 9.008 20.073 20.077 20.073 3.535 0 7.015-.935 10.06-2.713 1.193-.693 1.598-2.225.906-3.418-.693-1.192-2.223-1.597-3.418-.902z"/>
        <path d="M40 32.5H20c-1.38 0-2.5 1.117-2.5 2.5s1.12 2.5 2.5 2.5h20c1.38 0 2.5-1.117 2.5-2.5s-1.12-2.5-2.5-2.5zM40 42.5H20c-1.38 0-2.5 1.117-2.5 2.5s1.12 2.5 2.5 2.5h20c1.38 0 2.5-1.117 2.5-2.5s-1.12-2.5-2.5-2.5z"/>
        <g>
            <path d="M24.323 31.338c-1.36 0-2.5 1.14-2.5 2.5s1.14 2.5 2.5 2.5c1.31 0 2.5-1.14 2.44-2.44.06-1.43-1.07-2.56-2.44-2.56z" transform="translate(44 48)"/>
            <path d="M47.462 40.198c1.57-2.71 1.58-5.94.02-8.64l-15.66-27.12c-1.55-2.73-4.35-4.35-7.49-4.35-3.14 0-5.94 1.63-7.49 4.34l-15.68 27.15c-1.56 2.73-1.55 5.98.03 8.69 1.56 2.68 4.35 4.29 7.47 4.29h31.28c3.13 0 5.94-1.63 7.52-4.36zm-3.4-1.96c-.87 1.5-2.41 2.39-4.13 2.39H8.652c-1.7 0-3.23-.87-4.08-2.34-.86-1.49-.87-3.27-.01-4.77l15.68-27.14c.85-1.49 2.37-2.37 4.09-2.37 1.71 0 3.24.89 4.09 2.38l15.67 27.14c.84 1.46.83 3.22-.03 4.71z" transform="translate(44 48)"/>
            <path d="M23.703 13.788c-1.19.34-1.93 1.42-1.93 2.73.06.79.11 1.59.17 2.38.17 3.01.34 5.96.51 8.97.06 1.02.85 1.76 1.87 1.76s1.82-.79 1.87-1.82c0-.62 0-1.19.06-1.82.11-1.93.23-3.86.34-5.79.06-1.25.17-2.5.23-3.75 0-.45-.06-.85-.23-1.25-.51-1.12-1.7-1.69-2.89-1.41z" transform="translate(44 48)"/>
        </g>
    </g>
</svg>
