<svg xmlns="http://www.w3.org/2000/svg" width="79" height="99" viewBox="0 0 79 99">
    <g fill="#01985A">
        <path d="M48.822 0c.289.004.521.026.753.18 0 .09.09.09.09.09 0 .09.09.09.09.09l.091.091 17.157 17.143v.09l.09.09c.09.272.181.542.181.903V59.25h-3.883V20.482H53.368c-1.806 0-3.522-.722-4.696-1.895-1.264-1.263-1.986-2.887-1.986-4.692V3.7H6.23c-.542 0-1.084.271-1.535.632l-.09.09c-.452.451-.723.993-.723 1.624V83.01c0 .631.18 1.173.632 1.624.452.36.993.631 1.625.631H37.41v3.789H6.14c-1.53 0-3.06-.639-4.137-1.616l-.197-.188C.722 86.168 0 84.634 0 82.92V6.134c0-1.624.722-3.248 1.806-4.33l.09-.09C2.98.631 4.516 0 6.14 0zm1.566 6.496v7.49c0 .721.361 1.443.813 1.894.451.541 1.174.812 1.896.812h7.495L50.388 6.496z"/>
        <path d="M14.433 64.75c1.568 0 2.74-.353 3.517-1.06.778-.706 1.167-1.814 1.167-3.323v-8.15H16.62v8.205c0 1.436-.729 2.155-2.188 2.155-1.458 0-2.188-.719-2.188-2.155v-8.205H9.75v8.15c0 1.51.389 2.617 1.166 3.324.778.706 1.95 1.059 3.517 1.059zm9.385-.217V54.39H24l3.074 10.142h4.105V52.217h-2.495V62.36h-.181l-2.966-10.142h-4.213v12.316h2.495zm12.17 0V52.217h-2.495v12.316h2.495zm6.654.217c1.025 0 2.176-.139 3.454-.417l-.054-2.046c-1.121.169-2.18.253-3.174.253-.994 0-1.657-.274-1.989-.824-.331-.549-.497-1.536-.497-2.96 0-1.425.081-2.434.244-3.025.163-.592.413-.993.75-1.205.338-.21.902-.316 1.691-.316.79 0 1.781.09 2.975.271l.072-1.992c-1.362-.326-2.561-.489-3.598-.489-1.796 0-3.03.468-3.698 1.404-.67.935-1.004 2.592-1.004 4.971 0 1.135.067 2.077.2 2.825.132.749.373 1.4.723 1.956s.831.96 1.446 1.214c.615.253 1.435.38 2.46.38zm6.582-.217l.489-2.228h4.303l.489 2.228H57l-2.767-12.316h-4.737l-2.767 12.316h2.495zm4.322-4.401h-3.363l1.248-5.85h.868l1.247 5.85z"/>
        <g>
            <path d="M18.242 23.504c-1.02 0-1.875.855-1.875 1.875s.855 1.875 1.875 1.875c.982 0 1.875-.855 1.83-1.83.045-1.073-.803-1.92-1.83-1.92z" transform="translate(42 65)"/>
            <path d="M35.597 30.149c1.177-2.033 1.185-4.455.015-6.48L23.867 3.329C22.704 1.28 20.604.066 18.249.066c-2.355 0-4.455 1.223-5.617 3.255L.872 23.684C-.298 25.73-.291 28.169.894 30.2c1.17 2.01 3.263 3.218 5.603 3.218h23.46c2.347 0 4.455-1.223 5.64-3.27zm-2.55-1.47c-.653 1.125-1.808 1.792-3.098 1.792H6.49c-1.275 0-2.422-.652-3.06-1.755-.645-1.117-.652-2.452-.007-3.577l11.76-20.355c.637-1.118 1.777-1.778 3.067-1.778 1.283 0 2.43.668 3.068 1.785l11.752 20.355c.63 1.095.623 2.415-.022 3.533z" transform="translate(42 65)"/>
            <path d="M17.777 10.341c-.893.255-1.448 1.065-1.448 2.048.045.592.083 1.192.128 1.785.127 2.257.255 4.47.382 6.727.045.765.638 1.32 1.403 1.32s1.365-.592 1.402-1.365c0-.465 0-.892.045-1.365.083-1.447.173-2.895.255-4.342.045-.938.128-1.875.173-2.813 0-.337-.045-.637-.173-.937-.382-.84-1.275-1.268-2.167-1.058z" transform="translate(42 65)"/>
        </g>
        <g>
            <path d="M20.005 21.115c-1.456.849-3.12 1.295-4.81 1.295-5.297 0-9.609-4.312-9.609-9.612 0-5.299 4.31-9.611 9.61-9.611 1.69 0 3.352.448 4.811 1.293.765.443 1.737.183 2.178-.58.441-.761.182-1.738-.58-2.178C19.661.595 17.445 0 15.195 0 8.14 0 2.4 5.742 2.4 12.8c0 7.058 5.74 12.8 12.795 12.8 2.253 0 4.471-.596 6.412-1.73.76-.441 1.018-1.419.576-2.179-.441-.76-1.416-1.019-2.178-.576z" transform="translate(19 19)"/>
            <path d="M14.4 8H1.6C.717 8 0 8.715 0 9.6c0 .885.717 1.6 1.6 1.6h12.8c.883 0 1.6-.715 1.6-1.6 0-.885-.717-1.6-1.6-1.6zM14.4 14.4H1.6c-.883 0-1.6.715-1.6 1.6 0 .885.717 1.6 1.6 1.6h12.8c.883 0 1.6-.715 1.6-1.6 0-.885-.717-1.6-1.6-1.6z" transform="translate(19 19)"/>
        </g>
    </g>
</svg>
