<?xml version="1.0" encoding="UTF-8"?>
<svg width="50px" height="50px" viewBox="0 0 50 50" version="1.1" xmlns="http://www.w3.org/2000/svg" xmlns:xlink="http://www.w3.org/1999/xlink">
    <title>5CBB7BC6-7954-49D9-B0FF-BD542EB2F7FC</title>
    <defs>
        <filter color-interpolation-filters="auto" id="filter-1">
            <feColorMatrix in="SourceGraphic" type="matrix" values="0 0 0 0 1.000000 0 0 0 0 1.000000 0 0 0 0 1.000000 0 0 0 1.000000 0"></feColorMatrix>
        </filter>
    </defs>
    <g id="Page-1" stroke="none" stroke-width="1" fill="none" fill-rule="evenodd">
        <g id="exclamation-circle-light" transform="translate(-637.000000, -489.000000)" filter="url(#filter-1)">
            <g transform="translate(637.000000, 489.000000)">
                <path d="M25,3.22580645 C36.9577621,3.22580645 46.7741935,12.9107863 46.7741935,25 C46.7741935,37.0253024 37.0352823,46.7741935 25,46.7741935 C12.9794355,46.7741935 3.22580645,37.040121 3.22580645,25 C3.22580645,12.9835685 12.9639113,3.22580645 25,3.22580645 M25,0 C11.1938508,0 0,11.1978831 0,25 C0,38.8101815 11.1938508,50 25,50 C38.8061492,50 50,38.8101815 50,25 C50,11.1978831 38.8061492,0 25,0 Z M23.8417339,12.0967742 L26.1581653,12.0967742 C26.8459677,12.0967742 27.3954637,12.6695565 27.3668347,13.3568548 L26.6611895,30.2923387 C26.6341734,30.9403226 26.1011089,31.4516129 25.4525202,31.4516129 L24.547379,31.4516129 C23.8988911,31.4516129 23.3657258,30.9402218 23.3387097,30.2923387 L22.6330645,13.3568548 C22.6045363,12.6695565 23.1539315,12.0967742 23.8417339,12.0967742 Z M25,33.4677419 C23.441129,33.4677419 22.1774194,34.7314516 22.1774194,36.2903226 C22.1774194,37.8491935 23.441129,39.1129032 25,39.1129032 C26.558871,39.1129032 27.8225806,37.8491935 27.8225806,36.2903226 C27.8225806,34.7314516 26.558871,33.4677419 25,33.4677419 Z" id="Shape" fill="#000000" fill-rule="nonzero"></path>
            </g>
        </g>
    </g>
</svg>