<?xml version="1.0" encoding="UTF-8"?>
<svg width="44px" height="50px" viewBox="0 0 44 50" version="1.1" xmlns="http://www.w3.org/2000/svg" xmlns:xlink="http://www.w3.org/1999/xlink">
    <title>354F45FB-95D8-48B9-A7C2-9CE7386C28B4</title>
    <defs>
        <filter color-interpolation-filters="auto" id="filter-1">
            <feColorMatrix in="SourceGraphic" type="matrix" values="0 0 0 0 1.000000 0 0 0 0 1.000000 0 0 0 0 1.000000 0 0 0 1.000000 0"></feColorMatrix>
        </filter>
    </defs>
    <g id="Page-1" stroke="none" stroke-width="1" fill="none" fill-rule="evenodd">
        <g id="calendar-times-light" transform="translate(-258.000000, -489.000000)" filter="url(#filter-1)">
            <g transform="translate(258.000000, 489.000000)">
                <path d="M39.2857143,6.25 L34.5714286,6.25 L34.5714286,1.171875 C34.5714286,0.52734375 34.0410714,0 33.3928571,0 L32.6071429,0 C31.9589286,0 31.4285714,0.52734375 31.4285714,1.171875 L31.4285714,6.25 L12.5714286,6.25 L12.5714286,1.171875 C12.5714286,0.52734375 12.0410714,0 11.3928571,0 L10.6071429,0 C9.95892857,0 9.42857143,0.52734375 9.42857143,1.171875 L9.42857143,6.25 L4.71428571,6.25 C2.11160714,6.25 0,8.34960938 0,10.9375 L0,45.3125 C0,47.9003906 2.11160714,50 4.71428571,50 L39.2857143,50 C41.8883929,50 44,47.9003906 44,45.3125 L44,10.9375 C44,8.34960938 41.8883929,6.25 39.2857143,6.25 Z M4.71428571,9.375 L39.2857143,9.375 C40.15,9.375 40.8571429,10.078125 40.8571429,10.9375 L40.8571429,15.625 L3.14285714,15.625 L3.14285714,10.9375 C3.14285714,10.078125 3.85,9.375 4.71428571,9.375 Z M39.2857143,46.875 L4.71428571,46.875 C3.85,46.875 3.14285714,46.171875 3.14285714,45.3125 L3.14285714,18.75 L40.8571429,18.75 L40.8571429,45.3125 C40.8571429,46.171875 40.15,46.875 39.2857143,46.875 Z M28.94375,37.5097656 C29.4053571,37.96875 29.4053571,38.7109375 28.94375,39.1699219 L28.3839286,39.7265625 C27.9223214,40.1855469 27.1758929,40.1855469 26.7142857,39.7265625 L22,35.0195312 L17.2758929,39.7167969 C16.8142857,40.1757812 16.0678571,40.1757812 15.60625,39.7167969 L15.0464286,39.1601562 C14.5848214,38.7011719 14.5848214,37.9589844 15.0464286,37.5 L19.7705357,32.8027344 L15.0464286,28.1054687 C14.5848214,27.6464844 14.5848214,26.9042969 15.0464286,26.4453125 L15.60625,25.8886719 C16.0678571,25.4296875 16.8142857,25.4296875 17.2758929,25.8886719 L22,30.5859375 L26.7241071,25.8886719 C27.1857143,25.4296875 27.9321429,25.4296875 28.39375,25.8886719 L28.9535714,26.4453125 C29.4151786,26.9042969 29.4151786,27.6464844 28.9535714,28.1054687 L24.2196429,32.8125 L28.94375,37.5097656 Z" id="Shape" fill="#000000" fill-rule="nonzero"></path>
            </g>
        </g>
    </g>
</svg>