<?xml version="1.0" encoding="UTF-8"?>
<svg width="50px" height="50px" viewBox="0 0 50 50" version="1.1" xmlns="http://www.w3.org/2000/svg" xmlns:xlink="http://www.w3.org/1999/xlink">
    <title>F2C5D65B-5439-4213-9B50-47B4D6698960</title>
    <defs>
        <filter color-interpolation-filters="auto" id="filter-1">
            <feColorMatrix in="SourceGraphic" type="matrix" values="0 0 0 0 1.000000 0 0 0 0 1.000000 0 0 0 0 1.000000 0 0 0 1.000000 0"></feColorMatrix>
        </filter>
    </defs>
    <g id="Page-1" stroke="none" stroke-width="1" fill="none" fill-rule="evenodd">
        <g id="search-light" transform="translate(-1013.000000, -185.000000)" filter="url(#filter-1)">
            <g transform="translate(1013.000000, 185.000000)">
                <path d="M49.6557785,47.0289537 L37.0587374,34.4319125 C36.834139,34.2073141 36.5411845,34.0901323 36.2286998,34.0901323 L35.2228895,34.0901323 C38.5723353,30.4672623 40.6230165,25.633514 40.6230165,20.3115082 C40.6230165,9.09135296 31.5316635,0 20.3115082,0 C9.09135296,0 0,9.09135296 0,20.3115082 C0,31.5316635 9.09135296,40.6230165 20.3115082,40.6230165 C25.633514,40.6230165 30.4672623,38.5723353 34.0901323,35.2326547 L34.0901323,36.2286998 C34.0901323,36.5411845 34.2170792,36.834139 34.4319125,37.0587374 L47.0289537,49.6557785 C47.4879156,50.1147405 48.2300669,50.1147405 48.6890289,49.6557785 L49.6557785,48.6890289 C50.1147405,48.2300669 50.1147405,47.4879156 49.6557785,47.0289537 Z M20.3115082,37.498169 C10.810019,37.498169 3.12484742,29.8129974 3.12484742,20.3115082 C3.12484742,10.810019 10.810019,3.12484742 20.3115082,3.12484742 C29.8129974,3.12484742 37.498169,10.810019 37.498169,20.3115082 C37.498169,29.8129974 29.8129974,37.498169 20.3115082,37.498169 Z" id="Shape" fill="#000000" fill-rule="nonzero"></path>
            </g>
        </g>
    </g>
</svg>