<?xml version="1.0" encoding="UTF-8"?>
<svg width="58px" height="58px" viewBox="0 0 58 58" version="1.1" xmlns="http://www.w3.org/2000/svg" xmlns:xlink="http://www.w3.org/1999/xlink">
    <title>status-nonricevibile</title>
    <g id="PSR" stroke="none" stroke-width="1" fill="none" fill-rule="evenodd">
        <g id="stati-e-icone" transform="translate(-761.000000, -242.000000)" fill="#FFFFFF">
            <g id="status-nonricevibile" transform="translate(761.000000, 242.000000)">
                <g id="file" transform="translate(10.000000, 4.000000)" fill-rule="nonzero">
                    <path d="M36.9927,12.924225 L24.525,0.456525 C24.2328375,0.1643625 23.837175,0 23.423175,0 L3.163275,0 C1.44495,0 0.04635,1.3986 0.04635,3.116925 L0.04635,46.75365 C0.04635,48.4718625 1.44495,49.870575 3.163275,49.870575 L34.3324125,49.870575 C36.050625,49.870575 37.4493375,48.471975 37.4493375,46.75365 L37.4493375,14.02605 C37.4493375,13.6121625 37.2848625,13.2163875 36.9927,12.924225 Z M24.9816375,5.3206875 L32.12865,12.4677 L24.9816375,12.4677 L24.9816375,5.3206875 Z M34.3324125,46.7537625 L3.163275,46.7537625 L3.163275,3.1170375 L21.8647125,3.1170375 L21.8647125,12.4678125 C21.8647125,14.186025 23.2633125,15.5847375 24.9816375,15.5847375 L34.3324125,15.5847375 L34.3324125,46.7537625 L34.3324125,46.7537625 Z" id="Shape"></path>
                </g>
                <path d="M2.41421356,0.292893219 L28.93,26.809 L55.4472222,0.292893219 C55.8377464,-0.0976310729 56.4709114,-0.0976310729 56.8614357,0.292893219 L57.5685425,1 C57.9590668,1.39052429 57.9590668,2.02368927 57.5685425,2.41421356 L31.052,28.93 L57.5685425,55.4472222 C57.9590668,55.8377464 57.9590668,56.4709114 57.5685425,56.8614357 L56.8614357,57.5685425 C56.4709114,57.9590668 55.8377464,57.9590668 55.4472222,57.5685425 L28.93,31.052 L2.41421356,57.5685425 C2.02368927,57.9590668 1.39052429,57.9590668 1,57.5685425 L0.292893219,56.8614357 C-0.0976310729,56.4709114 -0.0976310729,55.8377464 0.292893219,55.4472222 L26.809,28.93 L0.292893219,2.41421356 C-0.0976310729,2.02368927 -0.0976310729,1.39052429 0.292893219,1 L1,0.292893219 C1.39052429,-0.0976310729 2.02368927,-0.0976310729 2.41421356,0.292893219 Z" id="Combined-Shape"></path>
            </g>
        </g>
    </g>
</svg>