<svg xmlns="http://www.w3.org/2000/svg" width="70" height="84" viewBox="0 0 70 84">
    <g fill="#01985A" fill-rule="evenodd">
        <path fill-rule="nonzero" d="M40.91 25.295c3.973 0 7.42 2.278 9.11 5.593.734-.2 1.5-.322 2.289-.352l.396-.008h6.828c5.54 0 10.064 4.426 10.213 9.922l.004.28v4.437c-1.276-.992-2.644-1.872-4.087-2.626v-1.81c0-3.376-2.75-6.122-6.13-6.122h-6.828c-.555 0-1.092.075-1.603.214l.018.336.006.338v4.064c-1.394.104-2.76.313-4.087.62v-4.684c0-3.375-2.75-6.121-6.13-6.121H28.841c-3.306 0-6.008 2.625-6.127 5.897l-.004.224V53.67h6.65c-.704 1.3-1.303 2.664-1.787 4.08L6.13 57.75c-3.305 0-6.007-2.625-6.126-5.897L0 51.629V40.73C0 35.2 4.432 30.68 9.936 30.532l.281-.004h6.828c.93 0 1.829.127 2.685.36 1.643-3.226 4.952-5.47 8.79-5.588l.32-.005h12.07zm-23.865 9.314h-6.828c-3.305 0-6.008 2.625-6.126 5.897l-.004.224V51.63c0 1.074.835 1.957 1.891 2.035l.152.005h12.493V35.497c0-.226.01-.45.025-.674-.511-.139-1.048-.214-1.603-.214zM13.63 11.26c5.007 0 9.08 4.068 9.08 9.067 0 4.999-4.074 9.065-9.08 9.065s-9.079-4.066-9.079-9.065c0-5 4.073-9.066 9.08-9.066zm42.488 0c5.006 0 9.079 4.068 9.079 9.067 0 4.999-4.073 9.065-9.08 9.065-5.006 0-9.079-4.066-9.079-9.065 0-5 4.073-9.066 9.08-9.066zM13.63 15.342c-2.753 0-4.992 2.236-4.992 4.985 0 2.748 2.24 4.985 4.992 4.985 2.753 0 4.992-2.237 4.992-4.985 0-2.75-2.24-4.985-4.992-4.985zm42.488 0c-2.753 0-4.993 2.236-4.993 4.985 0 2.748 2.24 4.985 4.993 4.985 2.752 0 4.992-2.237 4.992-4.985 0-2.75-2.24-4.985-4.992-4.985zM34.875 0c6.688 0 12.13 5.433 12.13 12.112 0 6.678-5.442 12.112-12.13 12.112-6.688 0-12.13-5.434-12.13-12.112C22.745 5.433 28.187 0 34.875 0zm0 4.08c-4.435 0-8.043 3.604-8.043 8.032s3.608 8.03 8.043 8.03c4.435 0 8.043-3.602 8.043-8.03 0-4.429-3.608-8.031-8.043-8.031z"/>
        <path d="M53.18 47.25c8.323 0 15.07 6.891 15.07 15.392 0 8.5-6.747 15.392-15.07 15.392-3.538 0-6.792-1.246-9.363-3.332l-8.37 8.548-3.197-3.265 8.483-8.665c-1.655-2.47-2.622-5.46-2.622-8.678 0-8.5 6.747-15.392 15.07-15.392zm0 3.848c-6.242 0-11.302 5.168-11.302 11.544 0 6.375 5.06 11.544 11.302 11.544s11.303-5.169 11.303-11.544c0-6.376-5.06-11.544-11.303-11.544z"/>
    </g>
</svg>
