<svg xmlns="http://www.w3.org/2000/svg" width="68" height="90" viewBox="0 0 68 90">
    <g fill="#01985A">
        <path d="M67.184 17.775l-.09-.09v-.09L49.936.45l-.09-.09s-.09 0-.09-.09c0 0-.09 0-.09-.09C49.395 0 49.124 0 48.763 0H6.23C4.605 0 3.07.632 1.987 1.714l-.09.09C.812 2.888.09 4.512.09 6.136V82.92c0 1.715.723 3.249 1.806 4.331 1.084 1.083 2.71 1.805 4.335 1.805h54.993c1.716 0 3.25-.722 4.335-1.805 1.083-1.082 1.806-2.707 1.806-4.33V18.676c0-.36-.09-.631-.181-.902zM50.478 6.496l10.204 10.196h-7.495c-.722 0-1.445-.27-1.896-.812-.452-.451-.813-1.173-.813-1.895V6.496zM63.482 82.92c0 .632-.271 1.173-.723 1.624-.451.452-.993.722-1.625.722H6.23c-.632 0-1.174-.27-1.626-.631-.451-.451-.632-.993-.632-1.624V6.045c0-.631.271-1.173.723-1.624l.09-.09c.451-.361.993-.632 1.535-.632h40.455v10.196c0 1.805.722 3.429 1.987 4.692 1.173 1.173 2.89 1.895 4.695 1.895h10.024v62.437z"/>
        <path d="M45.772 42.89h.001-9.914v-9.895c0-.814-.66-1.495-1.474-1.495h-1.268c-.814 0-1.477.681-1.477 1.495v9.896h-9.913c-.814 0-1.477.658-1.477 1.473v1.276c0 .814.662 1.47 1.477 1.47h9.914v9.93c0 .815.662 1.46 1.476 1.46h1.269c.814 0 1.474-.646 1.474-1.46v-9.93h9.912c.814 0 1.478-.657 1.478-1.47v-1.276c0-.815-.664-1.473-1.478-1.473z"/>
    </g>
</svg>
