<svg xmlns="http://www.w3.org/2000/svg" width="79" height="100" viewBox="0 0 79 100">
    <g fill="#05263e">
        <path d="M48.822 0c.289.004.521.026.753.18 0 .09.09.09.09.09 0 .09.09.09.09.09l.091.091 17.157 17.143v.09l.09.09c.09.272.181.542.181.903V59.25h-3.883V20.482H53.368c-1.806 0-3.522-.722-4.696-1.895-1.264-1.263-1.986-2.887-1.986-4.692V3.7H6.23c-.542 0-1.084.271-1.535.632l-.09.09c-.452.451-.723.993-.723 1.624V83.01c0 .631.18 1.173.632 1.624.452.36.993.631 1.625.631H37.41v3.789H6.14c-1.53 0-3.06-.639-4.137-1.616l-.197-.188C.722 86.168 0 84.634 0 82.92V6.134c0-1.624.722-3.248 1.806-4.33l.09-.09C2.98.631 4.516 0 6.14 0zm1.566 6.496v7.49c0 .721.361 1.443.813 1.894.451.541 1.174.812 1.896.812h7.495L50.388 6.496z"/>
        <g>
            <path d="M18.731 10.91c-4.3 0-7.799 3.5-7.799 7.8s3.499 7.8 7.8 7.8c4.3 0 7.799-3.5 7.799-7.8s-3.5-7.8-7.8-7.8zm0 12.97c-2.85 0-5.17-2.319-5.17-5.17s2.32-5.17 5.17-5.17c2.852 0 5.17 2.319 5.17 5.17s-2.318 5.17-5.17 5.17z" transform="translate(41.16 62.25)"/>
            <path d="M34.71 13.161l-1.871-.311 1.065-1.515c.967-1.29.821-3.143-.309-4.202l-3.33-3.33c-1.138-1.138-2.955-1.261-4.2-.31L24.584 4.57l-.299-1.768C24.063 1.178 22.722 0 21.098 0h-4.733c-1.592 0-2.961 1.182-3.18 2.72l-.314 1.883-1.515-1.064c-1.29-.969-3.144-.823-4.201.308l-3.33 3.33c-1.138 1.137-1.263 2.953-.315 4.192L4.607 12.9l-1.783.301C1.2 13.422.022 14.762.022 16.387v4.733c0 1.618 1.156 2.958 2.719 3.18l1.883.314L3.56 26.13c-.968 1.29-.822 3.143.308 4.201l3.33 3.33c.598.599 1.453.955 2.288.955.689 0 1.355-.227 1.905-.64l1.53-1.097.302 1.783c.22 1.624 1.561 2.802 3.186 2.802h4.732c1.619 0 2.959-1.156 3.18-2.718l.314-1.884 1.501 1.054c.582.436 1.245.657 1.971.657.86 0 1.673-.34 2.289-.955l3.33-3.33c1.138-1.137 1.262-2.954.301-4.211l-1.13-1.52 1.743-.293c1.623-.222 2.802-1.562 2.802-3.187v-4.732c0-1.586-1.173-2.951-2.733-3.183zm.102 7.914c0 .305-.213.539-.57.589l-3.899.657c-.45.076-.83.381-1 .806-.171.424-.109.907.164 1.274l2.42 3.257c.164.213.136.574-.06.77l-3.33 3.33c-.126.126-.263.184-.43.184-.152 0-.27-.039-.426-.155l-3.243-2.278c-.37-.26-.847-.31-1.263-.137-.417.174-.715.55-.79.996l-.661 3.974c-.041.285-.286.492-.583.492H16.41c-.305 0-.539-.212-.588-.569l-.657-3.9c-.075-.446-.376-.823-.795-.996-.162-.067-.332-.1-.501-.1-.27 0-.54.084-.766.246l-3.266 2.34c-.116.087-.234.131-.35.131-.135 0-.327-.082-.429-.184l-3.36-3.36c-.192-.18-.206-.511-.03-.74l.03-.043 2.28-3.242c.259-.37.31-.847.136-1.264-.174-.416-.55-.714-.996-.788l-3.974-.662c-.285-.041-.492-.286-.492-.583v-4.732c0-.305.212-.539.568-.588l3.9-.658c.448-.075.824-.376.997-.795.173-.42.118-.898-.146-1.267L5.623 9.805c-.164-.214-.136-.574.06-.77l3.36-3.36c.18-.192.511-.205.74-.03l.042.031 3.243 2.279c.369.26.846.312 1.263.137.417-.175.715-.551.789-.997l.662-3.973c.04-.286.286-.493.583-.493h4.732c.305 0 .539.213.589.57l.657 3.9c.075.448.378.826.799.998.42.172.9.114 1.27-.153l3.224-2.342c.213-.164.573-.136.77.06l3.36 3.36c.191.179.205.511.03.74l-.031.042-2.278 3.242c-.26.37-.312.847-.138 1.264.175.417.551.715.997.789l3.943.657.03.005c.286.04.493.285.493.582v4.732z" transform="translate(41.16 62.25)"/>
        </g>
        <g>
            <path d="M16.17.046c.216-.061.445-.061.66 0L32.183 4.46c.485.14.817.567.817 1.052v16.18c0 2.105-.89 4.26-2.643 6.404-1.34 1.638-3.193 3.282-5.508 4.888-3.89 2.697-7.72 4.352-7.88 4.421-.15.064-.31.096-.469.096-.16 0-.32-.032-.468-.096-.162-.069-3.992-1.724-7.881-4.421-2.315-1.606-4.168-3.25-5.508-4.888C.89 25.951 0 23.796 0 21.692V5.512c0-.486.332-.913.817-1.053zm.092 4.101L4.298 7.597c-.378.109-.637.443-.637.823v12.648c0 1.645.693 3.33 2.06 5.005 1.043 1.28 2.488 2.566 4.292 3.821 3.03 2.109 6.016 3.402 6.141 3.456.116.05.24.075.365.075s.25-.024.365-.075c.126-.054 3.11-1.347 6.141-3.456 1.805-1.255 3.249-2.54 4.293-3.82 1.366-1.677 2.06-3.36 2.06-5.006V8.42c0-.38-.26-.714-.637-.823l-11.965-3.45c-.167-.048-.346-.048-.514 0z" transform="translate(17.25 27.75)"/>
            <path d="M15.099 20.873l6.907-6.903c.628-.627 1.646-.627 2.273 0 .628.628.628 1.644 0 2.271l-8.044 8.039c-.628.627-1.645.627-2.273 0l-4.491-4.488c-.628-.628-.628-1.644 0-2.272.627-.627 1.645-.627 2.273 0l3.355 3.353z" transform="translate(17.25 27.75)"/>
        </g>
    </g>
</svg>
