<?xml version="1.0" encoding="UTF-8"?>
<svg width="73px" height="99px" viewBox="0 0 73 99" version="1.1" xmlns="http://www.w3.org/2000/svg" xmlns:xlink="http://www.w3.org/1999/xlink">
    <title>unica-search</title>
    <g id="icone-documenti" stroke="none" stroke-width="1" fill="none" fill-rule="evenodd">
        <g transform="translate(-1219.000000, -28.000000)" fill="#01985A" id="unica-search">
            <g transform="translate(1219.000000, 28.000000)">
                <path d="M48.8217772,0.000526109902 C49.1108457,0.00368276931 49.3430483,0.0257793852 49.5752508,0.180455696 C49.5752508,0.270683544 49.6655518,0.270683544 49.6655518,0.270683544 C49.6655518,0.360911392 49.7558528,0.360911392 49.7558528,0.360911392 L49.7558528,0.360911392 L49.8461538,0.451139241 L67.0033445,17.5944304 L67.0033445,17.6846582 L67.0936455,17.7748861 C67.1839465,18.0455696 67.2742475,18.3162532 67.2742475,18.6771646 L67.2742475,18.6771646 L67.274,59.25 L63.391,59.25 L63.3913043,20.4817215 L53.367893,20.4817215 C51.5618729,20.4817215 49.8461538,19.7598987 48.6722408,18.5869367 C47.4080268,17.3237468 46.6856187,15.6996456 46.6856187,13.8950886 L46.6856187,13.8950886 L46.6856187,3.69934177 L6.23076923,3.69934177 C5.68896321,3.69934177 5.14715719,3.97002532 4.69565217,4.33093671 L4.69565217,4.33093671 L4.60535117,4.42116456 C4.15384615,4.8723038 3.88294314,5.41367089 3.88294314,6.04526582 L3.88294314,6.04526582 L3.88294314,83.0096203 C3.88294314,83.6412152 4.06354515,84.1825823 4.51505017,84.6337215 C4.96655518,84.9946329 5.5083612,85.2653165 6.14046823,85.2653165 L6.14046823,85.2653165 L37.409,85.265 L37.409,89.054 L6.14046823,89.0548861 C4.61066299,89.0548861 3.08085776,88.415486 2.00275972,87.4375799 L1.80602007,87.2503291 C0.722408027,86.1675949 6.03961325e-14,84.6337215 6.03961325e-14,82.9193924 L6.03961325e-14,82.9193924 L6.03961325e-14,6.13549367 C6.03961325e-14,4.51139241 0.722408027,2.88729114 1.80602007,1.80455696 L1.80602007,1.80455696 L1.89632107,1.71432911 C2.97993311,0.631594937 4.51505017,8.52651283e-14 6.14046823,8.52651283e-14 L6.14046823,8.52651283e-14 Z M50.3879599,6.49640506 L50.3879599,13.9853165 C50.3879599,14.7071392 50.7491639,15.428962 51.2006689,15.8801013 C51.6521739,16.4214684 52.3745819,16.6921519 53.09699,16.6921519 L53.09699,16.6921519 L60.5919732,16.6921519 L50.3879599,6.49640506 Z" id="Combined-Shape" fill-rule="nonzero"></path>
                <path d="M57.6803577,62.25 C66.0030913,62.25 72.75,69.1411406 72.75,77.6417934 C72.75,86.1424462 66.0030913,93.0335868 57.6803577,93.0335868 C54.1418088,93.0335868 50.8881166,91.7878981 48.3167097,89.7024454 L39.9467539,98.25 L36.75,94.9849075 L45.2325167,86.3198329 C43.5782559,83.8491807 42.6107154,80.8608931 42.6107154,77.6417934 C42.6107154,69.1411406 49.3576241,62.25 57.6803577,62.25 Z M57.6803577,66.0979484 C51.4383075,66.0979484 46.378126,71.2663038 46.378126,77.6417934 C46.378126,84.017283 51.4383075,89.1856385 57.6803577,89.1856385 C63.9224079,89.1856385 68.9825894,84.017283 68.9825894,77.6417934 C68.9825894,71.2663038 63.9224079,66.0979484 57.6803577,66.0979484 Z" id="Combined-Shape"></path>
                <path d="M14.6834099,50.75 C16.2505741,50.75 17.4229334,50.3968395 18.2004879,49.6905185 C18.9780425,48.9841974 19.3668197,47.8764205 19.3668197,46.3671875 L19.3668197,46.3671875 L19.3668197,38.2173295 L16.8714122,38.2173295 L16.8714122,46.4215199 C16.8714122,47.8583097 16.1420781,48.5767045 14.6834099,48.5767045 C13.2247417,48.5767045 12.4954076,47.8583097 12.4954076,46.4215199 L12.4954076,46.4215199 L12.4954076,38.2173295 L10,38.2173295 L10,46.3671875 C10,47.8764205 10.3887773,48.9841974 11.1663318,49.6905185 C11.9438863,50.3968395 13.1162457,50.75 14.6834099,50.75 Z M24.0683123,50.5326705 L24.0683123,40.390625 L24.2491389,40.390625 L27.3231917,50.5326705 L31.4279564,50.5326705 L31.4279564,38.2173295 L28.9325488,38.2173295 L28.9325488,48.359375 L28.7517222,48.359375 L25.7861653,38.2173295 L21.5729047,38.2173295 L21.5729047,50.5326705 L24.0683123,50.5326705 Z M36.2379449,50.5326705 L36.2379449,38.2173295 L33.7425373,38.2173295 L33.7425373,50.5326705 L36.2379449,50.5326705 Z M42.8923651,50.75 C43.9170494,50.75 45.0683123,50.6111506 46.3461538,50.3334517 L46.3461538,50.3334517 L46.2919059,48.2869318 C45.1707807,48.4559659 44.1129449,48.540483 43.1183984,48.540483 C42.1238519,48.540483 41.4608209,48.2658026 41.1293054,47.7164418 C40.7977899,47.167081 40.6320321,46.1800426 40.6320321,44.7553267 C40.6320321,43.3306108 40.7134041,42.3224432 40.8761481,41.7308239 C41.0388921,41.1392045 41.2890356,40.7377486 41.6265786,40.526456 C41.9641217,40.3151634 42.527698,40.209517 43.3173077,40.209517 C44.1069173,40.209517 45.0984501,40.300071 46.2919059,40.481179 L46.2919059,40.481179 L46.3642365,38.4889915 C45.0020092,38.1629972 43.8025258,38 42.7657865,38 C40.9695752,38 39.7369403,38.4678622 39.0678817,39.4035866 C38.3988232,40.3393111 38.0642939,41.9964489 38.0642939,44.375 C38.0642939,45.5099432 38.130597,46.4517045 38.2632032,47.2002841 C38.3958094,47.9488636 38.6369116,48.6008523 38.9865098,49.15625 C39.3361079,49.7116477 39.8183123,50.1161222 40.4331228,50.3696733 C41.0479334,50.6232244 41.8676808,50.75 42.8923651,50.75 Z M49.4744546,50.5326705 L49.9626866,48.3050426 L54.2663605,48.3050426 L54.7545924,50.5326705 L57.25,50.5326705 L54.4833525,38.2173295 L49.7456946,38.2173295 L46.9790471,50.5326705 L49.4744546,50.5326705 Z M53.7962113,46.1317472 L50.4328358,46.1317472 L51.6805396,40.2819602 L52.5485075,40.2819602 L53.7962113,46.1317472 Z" id="UNICA" fill-rule="nonzero"></path>
            </g>
        </g>
    </g>
</svg>