<svg xmlns="http://www.w3.org/2000/svg" width="79" height="100" viewBox="0 0 79 100">
    <g fill="#05263e">
        <path d="M48.822 0c.289.004.521.026.753.18 0 .09.09.09.09.09 0 .09.09.09.09.09l.091.091 17.157 17.143v.09l.09.09c.09.272.181.542.181.903V59.25h-3.883V20.482H53.368c-1.806 0-3.522-.722-4.696-1.895-1.264-1.263-1.986-2.887-1.986-4.692V3.7H6.23c-.542 0-1.084.271-1.535.632l-.09.09c-.452.451-.723.993-.723 1.624V83.01c0 .631.18 1.173.632 1.624.452.36.993.631 1.625.631H37.41v3.789H6.14c-1.53 0-3.06-.639-4.137-1.616l-.197-.188C.722 86.168 0 84.634 0 82.92V6.134c0-1.624.722-3.248 1.806-4.33l.09-.09C2.98.631 4.516 0 6.14 0zm1.566 6.496v7.49c0 .721.361 1.443.813 1.894.451.541 1.174.812 1.896.812h7.495L50.388 6.496z"/>
        <g>
            <path d="M18.731 10.91c-4.3 0-7.799 3.5-7.799 7.8s3.499 7.8 7.8 7.8c4.3 0 7.799-3.5 7.799-7.8s-3.5-7.8-7.8-7.8zm0 12.97c-2.85 0-5.17-2.319-5.17-5.17s2.32-5.17 5.17-5.17c2.852 0 5.17 2.319 5.17 5.17s-2.318 5.17-5.17 5.17z" transform="translate(41.16 62.25)"/>
            <path d="M34.71 13.161l-1.871-.311 1.065-1.515c.967-1.29.821-3.143-.309-4.202l-3.33-3.33c-1.138-1.138-2.955-1.261-4.2-.31L24.584 4.57l-.299-1.768C24.063 1.178 22.722 0 21.098 0h-4.733c-1.592 0-2.961 1.182-3.18 2.72l-.314 1.883-1.515-1.064c-1.29-.969-3.144-.823-4.201.308l-3.33 3.33c-1.138 1.137-1.263 2.953-.315 4.192L4.607 12.9l-1.783.301C1.2 13.422.022 14.762.022 16.387v4.733c0 1.618 1.156 2.958 2.719 3.18l1.883.314L3.56 26.13c-.968 1.29-.822 3.143.308 4.201l3.33 3.33c.598.599 1.453.955 2.288.955.689 0 1.355-.227 1.905-.64l1.53-1.097.302 1.783c.22 1.624 1.561 2.802 3.186 2.802h4.732c1.619 0 2.959-1.156 3.18-2.718l.314-1.884 1.501 1.054c.582.436 1.245.657 1.971.657.86 0 1.673-.34 2.289-.955l3.33-3.33c1.138-1.137 1.262-2.954.301-4.211l-1.13-1.52 1.743-.293c1.623-.222 2.802-1.562 2.802-3.187v-4.732c0-1.586-1.173-2.951-2.733-3.183zm.102 7.914c0 .305-.213.539-.57.589l-3.899.657c-.45.076-.83.381-1 .806-.171.424-.109.907.164 1.274l2.42 3.257c.164.213.136.574-.06.77l-3.33 3.33c-.126.126-.263.184-.43.184-.152 0-.27-.039-.426-.155l-3.243-2.278c-.37-.26-.847-.31-1.263-.137-.417.174-.715.55-.79.996l-.661 3.974c-.041.285-.286.492-.583.492H16.41c-.305 0-.539-.212-.588-.569l-.657-3.9c-.075-.446-.376-.823-.795-.996-.162-.067-.332-.1-.501-.1-.27 0-.54.084-.766.246l-3.266 2.34c-.116.087-.234.131-.35.131-.135 0-.327-.082-.429-.184l-3.36-3.36c-.192-.18-.206-.511-.03-.74l.03-.043 2.28-3.242c.259-.37.31-.847.136-1.264-.174-.416-.55-.714-.996-.788l-3.974-.662c-.285-.041-.492-.286-.492-.583v-4.732c0-.305.212-.539.568-.588l3.9-.658c.448-.075.824-.376.997-.795.173-.42.118-.898-.146-1.267L5.623 9.805c-.164-.214-.136-.574.06-.77l3.36-3.36c.18-.192.511-.205.74-.03l.042.031 3.243 2.279c.369.26.846.312 1.263.137.417-.175.715-.551.789-.997l.662-3.973c.04-.286.286-.493.583-.493h4.732c.305 0 .539.213.589.57l.657 3.9c.075.448.378.826.799.998.42.172.9.114 1.27-.153l3.224-2.342c.213-.164.573-.136.77.06l3.36 3.36c.191.179.205.511.03.74l-.031.042-2.278 3.242c-.26.37-.312.847-.138 1.264.175.417.551.715.997.789l3.943.657.03.005c.286.04.493.285.493.582v4.732z" transform="translate(41.16 62.25)"/>
        </g>
        <path d="M20.42 43.782v-4.158h2.352c1.666 0 2.93-.445 3.79-1.334.862-.889 1.292-2.166 1.292-3.832 0-3.304-1.694-4.956-5.082-4.956h-5.25v14.28h2.898zm2.331-6.636h-2.33V31.98h2.33c.742 0 1.288.192 1.638.577.35.386.525 1.019.525 1.901 0 1.792-.72 2.688-2.163 2.688zm8.022 6.636l.567-2.583h4.998l.567 2.583h2.898l-3.213-14.28h-5.502l-3.213 14.28h2.898zm5.02-5.103h-3.907l1.45-6.783h1.007l1.45 6.783zm10.352 5.355c1.19 0 2.527-.161 4.011-.483l-.063-2.373c-1.302.196-2.53.294-3.685.294-1.155 0-1.925-.319-2.31-.956-.385-.636-.578-1.781-.578-3.433s.095-2.821.284-3.507c.189-.686.48-1.151.871-1.397.392-.245 1.047-.367 1.964-.367s2.068.105 3.454.315l.084-2.31c-1.582-.378-2.975-.567-4.179-.567-2.086 0-3.517.543-4.294 1.628-.777 1.084-1.166 3.006-1.166 5.764 0 1.316.077 2.408.231 3.276.154.868.434 1.624.84 2.268.406.644.966 1.113 1.68 1.407.714.294 1.666.441 2.856.441zm-33.83 12.498v-1.35H9.233l1.293-1.17c.63-.578 1.065-1.069 1.305-1.474s.36-.885.36-1.44c0-1.417-.787-2.126-2.362-2.126-.788 0-1.549.112-2.284.337l.079 1.204.27-.033c.592-.09 1.14-.136 1.642-.136.338 0 .598.072.782.214.184.143.276.388.276.737s-.11.677-.332.984c-.221.308-.613.75-1.176 1.328L7.5 55.216v1.316h4.815zm3.679.135c.96 0 1.68-.294 2.16-.883.48-.589.72-1.564.72-2.925 0-1.361-.242-2.35-.726-2.965-.484-.614-1.202-.922-2.154-.922-.953 0-1.673.307-2.16.922-.48.616-.72 1.604-.72 2.965 0 1.361.24 2.336.72 2.925s1.2.883 2.16.883zm.011-1.35c-.457 0-.787-.184-.99-.551-.203-.368-.304-1.013-.304-1.935 0-.923.1-1.572.298-1.947.2-.374.53-.562.99-.562.462 0 .79.186.985.557.195.371.292 1.022.292 1.952 0 .922-.097 1.567-.292 1.935-.195.367-.522.551-.979.551zm7.616 1.215v-7.425h-1.417l-2.453 1.631.709 1.159 1.609-1.035v5.67h1.552zm6.525 0v-1.226h.709v-1.35h-.709v-2.082h-1.552v2.082h-1.598l1.992-4.849h-1.71l-1.834 5.017v1.182h3.15v1.226h1.552zm4.883-2.306v-1.373h-3.33v1.373h3.33zm5.951 2.306v-1.35h-3.082l1.293-1.17c.63-.578 1.065-1.069 1.305-1.474s.36-.885.36-1.44c0-1.417-.787-2.126-2.362-2.126-.788 0-1.549.112-2.284.337l.079 1.204.27-.033c.592-.09 1.14-.136 1.642-.136.338 0 .598.072.782.214.184.143.276.388.276.737s-.11.677-.332.984c-.221.308-.613.75-1.176 1.328l-1.586 1.609v1.316h4.815zm3.679.135c.96 0 1.68-.294 2.16-.883.48-.589.72-1.564.72-2.925 0-1.361-.242-2.35-.726-2.965-.484-.614-1.202-.922-2.154-.922-.953 0-1.673.307-2.16.922-.48.616-.72 1.604-.72 2.965 0 1.361.24 2.336.72 2.925s1.2.883 2.16.883zm.011-1.35c-.458 0-.788-.184-.99-.551-.203-.368-.304-1.013-.304-1.935 0-.923.1-1.572.298-1.947.2-.374.53-.562.99-.562.462 0 .79.186.985.557.195.371.292 1.022.292 1.952 0 .922-.097 1.567-.292 1.935-.195.367-.522.551-.979.551zm8.46 1.215v-1.35h-3.083l1.294-1.17c.63-.578 1.065-1.069 1.305-1.474s.36-.885.36-1.44c0-1.417-.787-2.126-2.362-2.126-.788 0-1.549.112-2.284.337l.079 1.204.27-.033c.592-.09 1.14-.136 1.642-.136.338 0 .598.072.782.214.184.143.276.388.276.737s-.11.677-.332.984c-.221.308-.613.75-1.176 1.328l-1.586 1.609v1.316h4.815zm3.679.135c.96 0 1.68-.294 2.16-.883.48-.589.72-1.564.72-2.925 0-1.361-.242-2.35-.726-2.965-.484-.614-1.202-.922-2.154-.922-.953 0-1.673.307-2.16.922-.48.616-.72 1.604-.72 2.965 0 1.361.24 2.336.72 2.925s1.2.883 2.16.883zm.011-1.35c-.458 0-.788-.184-.99-.551-.203-.368-.304-1.013-.304-1.935 0-.923.1-1.572.298-1.947.2-.374.53-.562.99-.562.462 0 .79.186.985.557.195.371.292 1.022.292 1.952 0 .922-.097 1.567-.292 1.935-.195.367-.521.551-.979.551z"/>
    </g>
</svg>
