<svg xmlns="http://www.w3.org/2000/svg" width="68" height="90" viewBox="0 0 68 90">
    <g fill="#01985A">
        <path d="M67.184 17.775l-.09-.09v-.09L49.936.45l-.09-.09s-.09 0-.09-.09c0 0-.09 0-.09-.09C49.395 0 49.124 0 48.763 0H6.23C4.605 0 3.07.632 1.987 1.714l-.09.09C.812 2.888.09 4.512.09 6.136V82.92c0 1.715.723 3.249 1.806 4.331 1.084 1.083 2.71 1.805 4.335 1.805h54.993c1.716 0 3.25-.722 4.335-1.805 1.083-1.082 1.806-2.707 1.806-4.33V18.676c0-.36-.09-.631-.181-.902zM50.478 6.496l10.204 10.196h-7.495c-.722 0-1.445-.27-1.896-.812-.452-.451-.813-1.173-.813-1.895V6.496zM63.482 82.92c0 .632-.271 1.173-.723 1.624-.451.452-.993.722-1.625.722H6.23c-.632 0-1.174-.27-1.626-.631-.451-.451-.632-.993-.632-1.624V6.045c0-.631.271-1.173.723-1.624l.09-.09c.451-.361.993-.632 1.535-.632h40.455v10.196c0 1.805.722 3.429 1.987 4.692 1.173 1.173 2.89 1.895 4.695 1.895h10.024v62.437z"/>
        <g>
            <path d="M10.8 16.2C4.845 16.2 0 21.045 0 27c0 5.955 4.845 10.8 10.8 10.8 5.955 0 10.8-4.845 10.8-10.8 0-5.955-4.845-10.8-10.8-10.8zm0 18.9c-4.466 0-8.1-3.634-8.1-8.1 0-4.466 3.634-8.1 8.1-8.1 4.466 0 8.1 3.634 8.1 8.1 0 4.466-3.634 8.1-8.1 8.1z" transform="translate(10.5 30.75)"/>
            <path d="M10.8 22.95c-2.233 0-4.05 1.817-4.05 4.05 0 2.233 1.817 4.05 4.05 4.05 2.233 0 4.05-1.817 4.05-4.05 0-2.233-1.817-4.05-4.05-4.05zm0 5.4c-.744 0-1.35-.606-1.35-1.35 0-.744.606-1.35 1.35-1.35.744 0 1.35.606 1.35 1.35 0 .744-.606 1.35-1.35 1.35z" transform="translate(10.5 30.75)"/>
            <path d="M43.38 23.668V18.9c0-2.978-2.422-5.4-5.4-5.4h-2.7V6.75c0-.744.606-1.35 1.35-1.35V2.7c-2.233 0-4.05 1.817-4.05 4.05v6.75h-5.926l-3.24-10.8h2.236V0H4.05v2.7h2.7v8.616c-2.281.59-4.425 1.672-6.26 3.187l1.72 2.082c2.409-1.99 5.46-3.085 8.59-3.085 7.444 0 13.5 6.056 13.5 13.5v4.05h5.693c.645 3.826 3.98 6.75 7.987 6.75 4.466 0 8.1-3.634 8.1-8.1 0-2.393-1.044-4.547-2.7-6.032zM9.45 10.858V2.7h11.146l3.24 10.8h-4.092c-2.565-1.705-5.64-2.7-8.944-2.7-.452 0-.902.02-1.35.057zM22.864 16.2H37.98c1.489 0 2.7 1.211 2.7 2.7v3.163c-.845-.3-1.754-.463-2.7-.463H26.073c-.713-2.011-1.812-3.841-3.21-5.4zm3.91 8.1h5.174c-1 1.116-1.695 2.51-1.955 4.05H27V27c0-.92-.078-1.821-.226-2.7zM37.98 35.1c-2.978 0-5.4-2.422-5.4-5.4s2.422-5.4 5.4-5.4 5.4 2.422 5.4 5.4-2.422 5.4-5.4 5.4z" transform="translate(10.5 30.75)"/>
            <path d="M39.33 29.7c0 .746-.604 1.35-1.35 1.35-.746 0-1.35-.604-1.35-1.35 0-.746.604-1.35 1.35-1.35.746 0 1.35.604 1.35 1.35z" transform="translate(10.5 30.75)"/>
        </g>
    </g>
</svg>
