<svg xmlns="http://www.w3.org/2000/svg" width="73" height="99" viewBox="0 0 73 99">
    <g fill="#05263e" fill-rule="evenodd">
        <path fill-rule="nonzero" d="M48.822 0c.289.004.521.026.753.18 0 .09.09.09.09.09 0 .09.09.09.09.09l.091.091 17.157 17.143v.09l.09.09c.09.272.181.542.181.903V59.25h-3.883V20.482H53.368c-1.806 0-3.522-.722-4.696-1.895-1.264-1.263-1.986-2.887-1.986-4.692V3.7H6.23c-.542 0-1.084.271-1.535.632l-.09.09c-.452.451-.723.993-.723 1.624V83.01c0 .631.18 1.173.632 1.624.452.36.993.631 1.625.631H37.41v3.789H6.14c-1.53 0-3.06-.639-4.137-1.616l-.197-.188C.722 86.168 0 84.634 0 82.92V6.134c0-1.624.722-3.248 1.806-4.33l.09-.09C2.98.631 4.516 0 6.14 0zm1.566 6.496v7.49c0 .721.361 1.443.813 1.894.451.541 1.174.812 1.896.812h7.495L50.388 6.496z"/>
        <path d="M57.68 62.25c8.323 0 15.07 6.891 15.07 15.392 0 8.5-6.747 15.392-15.07 15.392-3.538 0-6.792-1.246-9.363-3.332l-8.37 8.548-3.197-3.265 8.483-8.665c-1.655-2.47-2.622-5.46-2.622-8.678 0-8.5 6.747-15.392 15.07-15.392zm0 3.848c-6.242 0-11.302 5.168-11.302 11.544 0 6.375 5.06 11.544 11.302 11.544s11.303-5.169 11.303-11.544c0-6.376-5.06-11.544-11.303-11.544z"/>
        <g fill-rule="nonzero">
            <path d="M16.17.046c.216-.061.445-.061.66 0L32.183 4.46c.485.14.817.567.817 1.052v16.18c0 2.105-.89 4.26-2.643 6.404-1.34 1.638-3.193 3.282-5.508 4.888-3.89 2.697-7.72 4.352-7.88 4.421-.15.064-.31.096-.469.096-.16 0-.32-.032-.468-.096-.162-.069-3.992-1.724-7.881-4.421-2.315-1.606-4.168-3.25-5.508-4.888C.89 25.951 0 23.796 0 21.692V5.512c0-.486.332-.913.817-1.053zm.092 4.101L4.298 7.597c-.378.109-.637.443-.637.823v12.648c0 1.645.693 3.33 2.06 5.005 1.043 1.28 2.488 2.566 4.292 3.821 3.03 2.109 6.016 3.402 6.141 3.456.116.05.24.075.365.075s.25-.024.365-.075c.126-.054 3.11-1.347 6.141-3.456 1.805-1.255 3.249-2.54 4.293-3.82 1.366-1.677 2.06-3.36 2.06-5.006V8.42c0-.38-.26-.714-.637-.823l-11.965-3.45c-.167-.048-.346-.048-.514 0z" transform="translate(17.25 28.5)"/>
            <path d="M15.099 20.873l6.907-6.903c.628-.627 1.646-.627 2.273 0 .628.628.628 1.644 0 2.271l-8.044 8.039c-.628.627-1.645.627-2.273 0l-4.491-4.488c-.628-.628-.628-1.644 0-2.272.627-.627 1.645-.627 2.273 0l3.355 3.353z" transform="translate(17.25 28.5)"/>
        </g>
    </g>
</svg>
