<svg xmlns="http://www.w3.org/2000/svg" width="73" height="99" viewBox="0 0 73 99">
    <g fill="#05263e" fill-rule="evenodd">
        <path fill-rule="nonzero" d="M48.822 0c.289.004.521.026.753.18 0 .09.09.09.09.09 0 .09.09.09.09.09l.091.091 17.157 17.143v.09l.09.09c.09.272.181.542.181.903V59.25h-3.883V20.482H53.368c-1.806 0-3.522-.722-4.696-1.895-1.264-1.263-1.986-2.887-1.986-4.692V3.7H6.23c-.542 0-1.084.271-1.535.632l-.09.09c-.452.451-.723.993-.723 1.624V83.01c0 .631.18 1.173.632 1.624.452.36.993.631 1.625.631H37.41v3.789H6.14c-1.53 0-3.06-.639-4.137-1.616l-.197-.188C.722 86.168 0 84.634 0 82.92V6.134c0-1.624.722-3.248 1.806-4.33l.09-.09C2.98.631 4.516 0 6.14 0zm1.566 6.496v7.49c0 .721.361 1.443.813 1.894.451.541 1.174.812 1.896.812h7.495L50.388 6.496z"/>
        <path d="M57.68 62.25c8.323 0 15.07 6.891 15.07 15.392 0 8.5-6.747 15.392-15.07 15.392-3.538 0-6.792-1.246-9.363-3.332l-8.37 8.548-3.197-3.265 8.483-8.665c-1.655-2.47-2.622-5.46-2.622-8.678 0-8.5 6.747-15.392 15.07-15.392zm0 3.848c-6.242 0-11.302 5.168-11.302 11.544 0 6.375 5.06 11.544 11.302 11.544s11.303-5.169 11.303-11.544c0-6.376-5.06-11.544-11.303-11.544z"/>
    </g>
</svg>
