<svg xmlns="http://www.w3.org/2000/svg" width="72" height="83" viewBox="0 0 72 83">
    <g fill="#05263e">
        <path d="M40.91 25.295c3.973 0 7.42 2.278 9.11 5.593.734-.2 1.5-.322 2.289-.352l.396-.008h6.828c5.54 0 10.064 4.426 10.213 9.922l.004.28v4.437c-1.276-.992-2.644-1.872-4.087-2.626v-1.81c0-3.376-2.75-6.122-6.13-6.122h-6.828c-.555 0-1.092.075-1.603.214l.018.336.006.338v4.064c-1.394.104-2.76.313-4.087.62v-4.684c0-3.375-2.75-6.121-6.13-6.121H28.841c-3.306 0-6.008 2.625-6.127 5.897l-.004.224V53.67h6.65c-.704 1.3-1.303 2.664-1.787 4.08L6.13 57.75c-3.305 0-6.007-2.625-6.126-5.897L0 51.629V40.73C0 35.2 4.432 30.68 9.936 30.532l.281-.004h6.828c.93 0 1.829.127 2.685.36 1.643-3.226 4.952-5.47 8.79-5.588l.32-.005h12.07zm-23.865 9.314h-6.828c-3.305 0-6.008 2.625-6.126 5.897l-.004.224V51.63c0 1.074.835 1.957 1.891 2.035l.152.005h12.493V35.497c0-.226.01-.45.025-.674-.511-.139-1.048-.214-1.603-.214zM13.63 11.26c5.007 0 9.08 4.068 9.08 9.067 0 4.999-4.074 9.065-9.08 9.065s-9.079-4.066-9.079-9.065c0-5 4.073-9.066 9.08-9.066zm42.488 0c5.006 0 9.079 4.068 9.079 9.067 0 4.999-4.073 9.065-9.08 9.065-5.006 0-9.079-4.066-9.079-9.065 0-5 4.073-9.066 9.08-9.066zM13.63 15.342c-2.753 0-4.992 2.236-4.992 4.985 0 2.748 2.24 4.985 4.992 4.985 2.753 0 4.992-2.237 4.992-4.985 0-2.75-2.24-4.985-4.992-4.985zm42.488 0c-2.753 0-4.993 2.236-4.993 4.985 0 2.748 2.24 4.985 4.993 4.985 2.752 0 4.992-2.237 4.992-4.985 0-2.75-2.24-4.985-4.992-4.985zM34.875 0c6.688 0 12.13 5.433 12.13 12.112 0 6.678-5.442 12.112-12.13 12.112-6.688 0-12.13-5.434-12.13-12.112C22.745 5.433 28.187 0 34.875 0zm0 4.08c-4.435 0-8.043 3.604-8.043 8.032s3.608 8.03 8.043 8.03c4.435 0 8.043-3.602 8.043-8.03 0-4.429-3.608-8.031-8.043-8.031z"/>
        <g>
            <path d="M18.731 10.91c-4.3 0-7.799 3.5-7.799 7.8s3.499 7.8 7.8 7.8c4.3 0 7.799-3.5 7.799-7.8s-3.5-7.8-7.8-7.8zm0 12.97c-2.85 0-5.17-2.319-5.17-5.17s2.32-5.17 5.17-5.17c2.852 0 5.17 2.319 5.17 5.17s-2.318 5.17-5.17 5.17z" transform="translate(33.75 45)"/>
            <path d="M34.71 13.161l-1.871-.311 1.065-1.515c.967-1.29.821-3.143-.309-4.202l-3.33-3.33c-1.138-1.138-2.955-1.261-4.2-.31L24.584 4.57l-.299-1.768C24.063 1.178 22.722 0 21.098 0h-4.733c-1.592 0-2.961 1.182-3.18 2.72l-.314 1.883-1.515-1.064c-1.29-.969-3.144-.823-4.201.308l-3.33 3.33c-1.138 1.137-1.263 2.953-.315 4.192L4.607 12.9l-1.783.301C1.2 13.422.022 14.762.022 16.387v4.733c0 1.618 1.156 2.958 2.719 3.18l1.883.314L3.56 26.13c-.968 1.29-.822 3.143.308 4.201l3.33 3.33c.598.599 1.453.955 2.288.955.689 0 1.355-.227 1.905-.64l1.53-1.097.302 1.783c.22 1.624 1.561 2.802 3.186 2.802h4.732c1.619 0 2.959-1.156 3.18-2.718l.314-1.884 1.501 1.054c.582.436 1.245.657 1.971.657.86 0 1.673-.34 2.289-.955l3.33-3.33c1.138-1.137 1.262-2.954.301-4.211l-1.13-1.52 1.743-.293c1.623-.222 2.802-1.562 2.802-3.187v-4.732c0-1.586-1.173-2.951-2.733-3.183zm.102 7.914c0 .305-.213.539-.57.589l-3.899.657c-.45.076-.83.381-1 .806-.171.424-.109.907.164 1.274l2.42 3.257c.164.213.136.574-.06.77l-3.33 3.33c-.126.126-.263.184-.43.184-.152 0-.27-.039-.426-.155l-3.243-2.278c-.37-.26-.847-.31-1.263-.137-.417.174-.715.55-.79.996l-.661 3.974c-.041.285-.286.492-.583.492H16.41c-.305 0-.539-.212-.588-.569l-.657-3.9c-.075-.446-.376-.823-.795-.996-.162-.067-.332-.1-.501-.1-.27 0-.54.084-.766.246l-3.266 2.34c-.116.087-.234.131-.35.131-.135 0-.327-.082-.429-.184l-3.36-3.36c-.192-.18-.206-.511-.03-.74l.03-.043 2.28-3.242c.259-.37.31-.847.136-1.264-.174-.416-.55-.714-.996-.788l-3.974-.662c-.285-.041-.492-.286-.492-.583v-4.732c0-.305.212-.539.568-.588l3.9-.658c.448-.075.824-.376.997-.795.173-.42.118-.898-.146-1.267L5.623 9.805c-.164-.214-.136-.574.06-.77l3.36-3.36c.18-.192.511-.205.74-.03l.042.031 3.243 2.279c.369.26.846.312 1.263.137.417-.175.715-.551.789-.997l.662-3.973c.04-.286.286-.493.583-.493h4.732c.305 0 .539.213.589.57l.657 3.9c.075.448.378.826.799.998.42.172.9.114 1.27-.153l3.224-2.342c.213-.164.573-.136.77.06l3.36 3.36c.191.179.205.511.03.74l-.031.042-2.278 3.242c-.26.37-.312.847-.138 1.264.175.417.551.715.997.789l3.943.657.03.005c.286.04.493.285.493.582v4.732z" transform="translate(33.75 45)"/>
        </g>
    </g>
</svg>
