<svg xmlns="http://www.w3.org/2000/svg" width="73" height="99" viewBox="0 0 73 99">
    <g fill="#01985A" fill-rule="evenodd">
        <path fill-rule="nonzero" d="M48.822 0c.289.004.521.026.753.18 0 .09.09.09.09.09 0 .09.09.09.09.09l.091.091 17.157 17.143v.09l.09.09c.09.272.181.542.181.903V59.25h-3.883V20.482H53.368c-1.806 0-3.522-.722-4.696-1.895-1.264-1.263-1.986-2.887-1.986-4.692V3.7H6.23c-.542 0-1.084.271-1.535.632l-.09.09c-.452.451-.723.993-.723 1.624V83.01c0 .631.18 1.173.632 1.624.452.36.993.631 1.625.631H37.41v3.789H6.14c-1.53 0-3.06-.639-4.137-1.616l-.197-.188C.722 86.168 0 84.634 0 82.92V6.134c0-1.624.722-3.248 1.806-4.33l.09-.09C2.98.631 4.516 0 6.14 0zm1.566 6.496v7.49c0 .721.361 1.443.813 1.894.451.541 1.174.812 1.896.812h7.495L50.388 6.496z"/>
        <path d="M57.68 62.25c8.323 0 15.07 6.891 15.07 15.392 0 8.5-6.747 15.392-15.07 15.392-3.538 0-6.792-1.246-9.363-3.332l-8.37 8.548-3.197-3.265 8.483-8.665c-1.655-2.47-2.622-5.46-2.622-8.678 0-8.5 6.747-15.392 15.07-15.392zm0 3.848c-6.242 0-11.302 5.168-11.302 11.544 0 6.375 5.06 11.544 11.302 11.544s11.303-5.169 11.303-11.544c0-6.376-5.06-11.544-11.303-11.544z"/>
        <path fill-rule="nonzero" d="M14.433 50.25c1.568 0 2.74-.353 3.517-1.06.778-.706 1.167-1.814 1.167-3.323v-8.15H16.62v8.205c0 1.436-.729 2.155-2.188 2.155-1.458 0-2.188-.719-2.188-2.155v-8.205H9.75v8.15c0 1.51.389 2.617 1.166 3.324.778.706 1.95 1.059 3.517 1.059zm9.385-.217V39.89H24l3.074 10.142h4.105V37.717h-2.495V47.86h-.181l-2.966-10.142h-4.213v12.316h2.495zm12.17 0V37.717h-2.495v12.316h2.495zm6.654.217c1.025 0 2.176-.139 3.454-.417l-.054-2.046c-1.121.169-2.18.253-3.174.253-.994 0-1.657-.274-1.989-.824-.331-.549-.497-1.536-.497-2.96 0-1.425.081-2.434.244-3.025.163-.592.413-.993.75-1.205.338-.21.902-.316 1.691-.316.79 0 1.781.09 2.975.271l.072-1.992c-1.362-.326-2.561-.489-3.598-.489-1.796 0-3.03.468-3.698 1.404-.67.935-1.004 2.592-1.004 4.971 0 1.135.067 2.077.2 2.825.132.749.373 1.4.723 1.956s.831.96 1.446 1.214c.615.253 1.435.38 2.46.38zm6.582-.217l.489-2.228h4.303l.489 2.228H57l-2.767-12.316h-4.737l-2.767 12.316h2.495zm4.322-4.401h-3.363l1.248-5.85h.868l1.247 5.85z"/>
    </g>
</svg>
