<?xml version="1.0" encoding="UTF-8"?>
<svg width="36px" height="36px" viewBox="0 0 36 36" version="1.1" xmlns="http://www.w3.org/2000/svg" xmlns:xlink="http://www.w3.org/1999/xlink">
    <title>acconto</title>
    <g id="PSR" stroke="none" stroke-width="1" fill="none" fill-rule="evenodd">
        <g id="Group">
            <rect id="Rectangle" fill="#333333" x="1" y="1" width="34" height="34" rx="4"></rect>
            <g id="euro" transform="translate(9.000000, 8.000000)" fill="#FFFFFF" fill-rule="nonzero">
                <path d="M16.0440896,16.8280896 C15.8324096,16.3106496 15.6168096,15.7932096 15.3816096,15.2836096 C15.1738496,14.8288896 14.9072896,14.6956096 14.4094496,14.8092896 C13.7783296,14.9543296 13.1589696,15.1464096 12.5278496,15.2757696 C11.3087296,15.5305696 10.0856896,15.5540896 8.8822496,15.1738496 C7.3730496,14.6995296 6.5694496,13.6058496 6.0755296,12.1946496 L10.1680096,12.1946496 C10.4894496,12.1946496 10.7481696,11.9359296 10.7481696,11.6144896 L10.7481696,10.3248096 C10.7481696,10.0033696 10.4894496,9.7446496 10.1680096,9.7446496 L5.6835296,9.7446496 C5.6835296,9.3840096 5.6796096,9.0390496 5.6835296,8.6940896 L10.1680096,8.6940896 C10.4894496,8.6940896 10.7481696,8.4353696 10.7481696,8.1139296 L10.7481696,6.8242496 C10.7481696,6.5028096 10.4894496,6.2440896 10.1680096,6.2440896 L6.2480096,6.2440896 C6.2480096,6.2284096 6.2480096,6.2127296 6.2558496,6.2048896 C6.7262496,5.1347296 7.4122496,4.2762496 8.5372896,3.8293696 C9.8465696,3.3119296 11.1832896,3.3236896 12.5317696,3.6020096 C13.1707296,3.7313696 13.7979296,3.9273696 14.4368896,4.0724096 C14.9033696,4.1782496 15.1738496,4.0410496 15.3737696,3.6059296 C15.6050496,3.1041696 15.8167296,2.5945696 16.0284096,2.0810496 C16.2283296,1.5988896 16.1107296,1.2578496 15.6560096,0.9912896 C15.5423296,0.9246496 15.4247296,0.8697696 15.3032096,0.8227296 C13.4137696,0.0857696 11.4655296,-0.1886304 9.4545696,0.1328096 C8.0394496,0.3601696 6.7184096,0.8462496 5.5776896,1.7321696 C4.1390496,2.8454496 3.2060896,4.3154496 2.6651296,6.0441696 L2.5984896,6.2440896 L0.5836096,6.2440896 C0.2621696,6.2440896 0.0034496,6.5028096 0.0034496,6.8242496 L0.0034496,8.1139296 C0.0034496,8.4353696 0.2621696,8.6940896 0.5836096,8.6940896 L2.1712096,8.6940896 C2.1712096,9.0468896 2.1712096,9.3879296 2.1712096,9.7446496 L0.5836096,9.7446496 C0.2621696,9.7446496 0.0034496,10.0033696 0.0034496,10.3248096 L0.0034496,11.6144896 C0.0034496,11.9359296 0.2621696,12.1946496 0.5836096,12.1946496 L2.4965696,12.1946496 C2.6416096,12.6650496 2.7631296,13.1432896 2.9473696,13.5940896 C3.9156096,15.9304096 5.5384896,17.5924896 7.9806496,18.3843296 C9.9994496,19.0389696 12.0339296,19.0193696 14.0684096,18.4588096 C14.5976096,18.3137696 15.1228896,18.1256096 15.6246496,17.8943296 C16.1107296,17.6708896 16.2361696,17.2945696 16.0440896,16.8280896 Z" id="Path"></path>
            </g>
        </g>
    </g>
</svg>