<?xml version="1.0" encoding="UTF-8"?>
<svg width="27px" height="27px" viewBox="0 0 27 27" version="1.1" xmlns="http://www.w3.org/2000/svg" xmlns:xlink="http://www.w3.org/1999/xlink">
    <!-- Generator: Sketch 53.2 (72643) - https://sketchapp.com -->
    <title>BOVINIMACELLATI</title>
    <desc>Created with Sketch.</desc>
    <g id="Page-1" stroke="none" stroke-width="1" fill="none" fill-rule="evenodd">
        <g id="ELEMENTS" transform="translate(-375.000000, -1459.000000)" fill="#FFFFFF">
            <g id="BOVINIMACELLATI" transform="translate(375.000000, 1459.000000)">
                <path d="M21.819375,7.44525 L19.7699063,9.49471875 C19.6045313,9.21965625 19.4281875,8.9521875 19.2256875,8.70159375 C19.0704375,8.5100625 18.9050625,8.32528125 18.7287188,8.1489375 C18.3220313,7.74225 17.8689375,7.3996875 17.3837813,7.10859375 L19.43325,5.059125 C19.6872187,4.80515625 19.7521875,4.41534375 19.59525,4.09303125 C19.4864063,3.87028125 19.4307188,3.6230625 19.4307188,3.3733125 C19.4315625,2.94046875 19.59525,2.5093125 19.922625,2.183625 L19.32525,1.58625 L19.922625,2.18278125 C20.2559063,1.85034375 20.682,1.68834375 21.1148437,1.6875 C21.5485312,1.68834375 21.9754687,1.85034375 22.30875,2.18278125 C22.61925,2.494125 22.7728125,2.88309375 22.7896875,3.2788125 C22.8074063,3.71925 23.15925,4.07025 23.5996875,4.08796875 C23.9954062,4.10484375 24.3835313,4.25925 24.694875,4.56975 C25.0281563,4.90303125 25.1901563,5.32996875 25.191,5.76365625 C25.1901563,6.1965 25.0281563,6.62259375 24.694875,6.955875 C24.3683437,7.28240625 23.9380312,7.4469375 23.5051875,7.4469375 C23.2545938,7.4469375 23.0082188,7.39209375 22.7854687,7.28325 C22.4623125,7.1263125 22.0733438,7.19128125 21.819375,7.44525 L21.819375,7.44525 Z M15.8709375,22.6310625 C15.8338125,22.4218125 15.7865625,22.2083438 15.7300313,21.9906563 C15.6853125,21.8185313 15.6287813,21.6421875 15.5714063,21.465 C15.3891563,20.9039063 15.1605,20.3267813 14.85675,19.7294063 C14.61375,19.254375 14.3175938,18.768375 13.996125,18.2806875 C13.5885938,17.6605313 13.1312812,17.0353125 12.5955,16.4134688 C12.2765625,16.0430625 11.9348437,15.6735 11.5695,15.309 C10.1089687,13.8484688 8.5876875,12.7566563 7.14825,12.02175 C6.125625,11.5011563 5.15109375,11.1653438 4.2474375,11.0075625 C7.16259375,8.8138125 10.33425,7.64690625 12.9608437,7.6545 C13.9497188,7.6545 14.8575938,7.813125 15.65325,8.123625 C16.196625,8.33709375 16.6817812,8.6146875 17.1171563,8.9656875 C17.2622813,9.08296875 17.4015,9.2086875 17.5356563,9.34284375 C18.0714375,9.87946875 18.4705312,10.5013125 18.754875,11.22525 C19.0645313,12.0200625 19.2231563,12.9287813 19.2231563,13.9176563 C19.23075,16.54425 18.0646875,19.7159063 15.8709375,22.6310625 L15.8709375,22.6310625 Z M14.2669688,24.0730313 C14.2171875,24.46875 14.090625,24.72525 13.955625,24.8551875 C13.7894062,25.0273125 13.4240625,25.191 12.808125,25.191 C12.00825,25.194375 10.8615938,24.90075 9.5985,24.25275 C8.332875,23.6072813 6.94575,22.6175625 5.60334375,21.2751563 C4.2609375,19.93275 3.27121875,18.5447813 2.62575,17.28 C1.97775,16.0169063 1.684125,14.87025 1.6875,14.0695313 C1.6875,13.4544375 1.8511875,13.0890938 2.0233125,12.9220313 C2.09840625,12.8444063 2.21990625,12.771 2.38021875,12.7110938 C2.57596875,12.6376875 2.83246875,12.5862188 3.1708125,12.5862188 C3.97153125,12.5828438 5.1181875,12.8764688 6.38128125,13.5244688 C7.6460625,14.1699375 9.03403125,15.1596563 10.3764375,16.5020625 C11.7188438,17.8444688 12.7085625,19.2324375 13.3540313,20.4972188 C13.6223438,21.0203438 13.8164063,21.515625 13.9665938,21.9822188 C14.0146875,22.129875 14.0619375,22.2758438 14.0982188,22.4150625 C14.2247813,22.9002188 14.2939688,23.3431875 14.2922812,23.7068438 C14.2922812,23.8426875 14.2813125,23.9608125 14.2669688,24.0730313 L14.2669688,24.0730313 Z M23.5051875,9.1344375 C24.3649688,9.13528125 25.2323437,8.80453125 25.8887812,8.14978125 C26.5452188,7.4925 26.8793437,6.625125 26.8785,5.76365625 C26.8793437,4.90303125 26.5469062,4.03396875 25.8887812,3.3766875 C25.450875,2.9379375 24.9193125,2.656125 24.3649688,2.51353125 C24.2215312,1.9591875 23.9397188,1.427625 23.5018125,0.98971875 C22.8445313,0.33159375 21.9754687,-0.00084375 21.1148437,2.8926861e-13 C20.253375,-0.00084375 19.3851563,0.3324375 18.7287188,0.98971875 C18.073125,1.6453125 17.7432187,2.51353125 17.7432187,3.3733125 C17.7432187,3.66440625 17.793,3.95296875 17.8689375,4.23646875 L15.730875,6.37453125 C14.8584375,6.1036875 13.928625,6.0091875 12.9608437,6.0091875 C9.04753125,6.01846875 4.54275,8.4375 0.83025,11.8125 L0.96778125,11.8125 C0.2210625,12.41325 0.118125,13.2181875 0.118125,14.0695313 C0.1215,15.2524688 0.448875,16.6058438 1.18209375,18.0469688 C1.917,19.4864063 2.94975,21.0076875 4.41028125,22.4682188 C5.8708125,23.9279063 7.39209375,25.0205625 8.8306875,25.7554688 C10.2726562,26.4886875 11.6260312,26.875125 12.808125,26.8785 C13.6982813,26.8776563 14.5411875,26.6498438 15.1495313,26.04825 C18.8519062,22.33575 20.901375,17.830125 20.9106563,13.9176563 C20.9106563,12.9490313 20.7739687,12.0192188 20.5039688,11.147625 L22.6420313,9.0095625 C22.9255313,9.0855 23.2140938,9.1344375 23.5051875,9.1344375 L23.5051875,9.1344375 Z" id="Fill-71"></path>
                <path d="M9.7790625,20.678625 C9.7790625,20.6777812 9.7621875,20.7098437 9.59259375,20.7132187 C9.39515625,20.7165938 9.03740625,20.6305313 8.64084375,20.4212812 C8.24259375,20.2145625 7.803,19.895625 7.3929375,19.4855625 C6.982875,19.0755 6.66309375,18.6350625 6.456375,18.2368125 C6.247125,17.84025 6.1610625,17.4833438 6.1644375,17.2859062 C6.1678125,17.1163125 6.2015625,17.101125 6.199875,17.0994375 L5.60334375,16.5020625 L6.199875,17.0985937 C6.20071875,17.0994375 6.21759375,17.0665312 6.3871875,17.0631562 C6.584625,17.0597812 6.94153125,17.1458438 7.33809375,17.3550937 C7.73634375,17.5618125 8.17678125,17.8815937 8.58684375,18.2916562 C8.99690625,18.7017187 9.3166875,19.1421563 9.5225625,19.5395625 C9.7318125,19.936125 9.817875,20.293875 9.8145,20.4913125 C9.811125,20.6609062 9.777375,20.6769375 9.7790625,20.678625 L9.7790625,20.678625 Z M9.77990625,17.0985937 C9.25425,16.5737812 8.68809375,16.156125 8.11771875,15.8582812 C7.54565625,15.5638125 6.97190625,15.3790312 6.3871875,15.3756562 C5.9146875,15.3722812 5.39240625,15.51825 5.0068125,15.9055312 L5.0068125,15.9046875 L5.0068125,15.9055312 C4.61953125,16.291125 4.4735625,16.8134062 4.4769375,17.2859062 C4.4803125,17.870625 4.66509375,18.444375 4.9595625,19.0164375 C5.25740625,19.5868125 5.6750625,20.1529687 6.199875,20.678625 C6.7246875,21.2025937 7.2916875,21.6210937 7.8620625,21.9180937 C8.434125,22.2134062 9.00703125,22.3973437 9.59259375,22.4007187 C10.0650937,22.4040937 10.587375,22.2589687 10.9729687,21.8716875 C11.3594062,21.4860937 11.505375,20.9638125 11.502,20.4913125 C11.498625,19.9065937 11.3146875,19.3328437 11.019375,18.7607812 C10.722375,18.1904062 10.303875,17.6234062 9.77990625,17.0985937 L9.77990625,17.0985937 Z" id="Fill-72"></path>
            </g>
        </g>
    </g>
</svg>