<?xml version="1.0" encoding="UTF-8"?>
<svg width="30px" height="27px" viewBox="0 0 30 27" version="1.1" xmlns="http://www.w3.org/2000/svg" xmlns:xlink="http://www.w3.org/1999/xlink">
    <!-- Generator: Sketch 53.2 (72643) - https://sketchapp.com -->
    <title>VACCHENUTRICI</title>
    <desc>Created with Sketch.</desc>
    <defs>
        <polygon id="path-1" points="0 0.0213825503 29.856865 0.0213825503 29.856865 26.8187919 0 26.8187919"></polygon>
    </defs>
    <g id="Page-1" stroke="none" stroke-width="1" fill="none" fill-rule="evenodd">
        <g id="ELEMENTS" transform="translate(-370.000000, -1388.000000)">
            <g id="VACCHENUTRICI" transform="translate(370.000000, 1388.000000)">
                <path d="M9.4184908,6.29594698 C8.90186503,6.29594698 8.48296933,6.7081953 8.48296933,7.21775235 C8.48296933,7.72622215 8.90186503,8.13883289 9.4184908,8.13883289 C9.93585276,8.13883289 10.3547485,7.72622215 10.3547485,7.21775235 C10.3547485,6.7081953 9.93585276,6.29594698 9.4184908,6.29594698" id="Fill-1" fill="#FFFFFF"></path>
                <g id="Group-5" transform="translate(0.000000, 0.159826)">
                    <mask id="mask-2" fill="white">
                        <use xlink:href="#path-1"></use>
                    </mask>
                    <g id="Clip-4"></g>
                    <path d="M17.3291963,24.7340114 C16.3590736,21.3860114 13.8283988,17.0658302 12.4723252,14.8869846 C14.8270491,14.6398168 17.0067423,13.1664141 18.1449018,11.0051456 C18.3784601,10.5617295 18.2019571,10.0137564 17.751589,9.78380336 C17.6210982,9.71711879 17.4747791,9.68196443 17.3284601,9.68196443 C16.983184,9.68196443 16.6701166,9.86933356 16.5110982,10.171045 C15.4406687,12.2036557 13.3581534,13.1135013 11.7690736,13.1136826 C11.3683988,13.1136826 10.9947791,13.0576893 10.6587055,12.9473336 C8.25171166,12.1574477 6.20619018,12.3469913 4.64821472,13.4974812 C4.52526994,13.5880852 4.42367485,13.6116423 4.2836135,13.5857295 C3.83342945,13.500743 2.95901227,12.8400584 1.97692638,11.2579309 C1.80778528,10.9855752 1.84036196,10.8563738 1.85085276,10.8137899 C1.96680368,10.3520718 2.98919632,9.75154832 3.73643558,9.31266242 C4.16839877,9.05933356 4.61490184,8.7969443 5.00563804,8.51516577 C5.79594479,7.9443604 6.45189571,6.97725302 7.14668098,5.95342752 C7.99367485,4.70454161 8.95367485,3.2891255 10.1603006,2.66903154 C10.7417117,2.37040067 11.4471718,2.21891074 12.2566196,2.21891074 C12.9571104,2.21891074 13.6158221,2.3327094 14.1088896,2.4497698 C13.9500552,2.64003826 13.855638,2.76778993 13.8399939,2.78899128 C13.6960675,2.9852396 13.6382761,3.22497785 13.6772945,3.46399128 C13.7164969,3.70282349 13.8477239,3.9123 14.0472331,4.05418591 C14.2051472,4.16635369 14.3912209,4.22560872 14.5855767,4.22560872 C14.8804233,4.22560872 15.1594417,4.08499128 15.3317117,3.84996443 C15.8698712,3.11679664 17.0637975,1.92191074 17.9755767,1.83764899 C18.246865,1.81209866 18.4668037,1.89201141 18.6985215,2.10819262 C18.8650859,2.26348792 18.8906687,2.38616577 18.8779693,2.52243423 C18.7990123,3.36215235 17.2051472,4.86581678 15.7736135,5.7774745 C15.3475399,6.04874295 15.2249632,6.61066913 15.5003006,7.02980336 C15.670546,7.2894745 15.9596871,7.44458859 16.2745951,7.44458859 C16.4512822,7.44422617 16.6235521,7.39421275 16.772816,7.29944094 C16.9169264,7.20774966 17.6058221,6.76034698 18.3598712,6.12231342 C18.3606074,6.12267584 18.3609755,6.12321946 18.3617117,6.12358188 C19.9723252,7.30034698 23.215454,8.39611208 27.2601166,9.1300047 C27.5126319,9.17566913 27.7649632,9.21861544 28.0161902,9.25974966 C28.0163742,9.27877651 28.0163742,9.29780336 28.0163742,9.3168302 C28.0163742,16.1681255 23.7385215,22.3136154 17.3291963,24.7340114 M29.8467423,8.69220604 C29.8412209,8.52857517 29.7907914,8.3718302 29.6996871,8.23374966 C29.6058221,7.88909195 29.3164969,7.6292396 28.9537362,7.57433356 C28.5061288,7.50638054 28.0480307,7.43009195 27.5930613,7.34782349 C24.0569264,6.70616577 21.1347791,5.76968255 19.6750859,4.81779664 C20.3006687,4.06415235 20.6483374,3.3498302 20.710362,2.69023289 C20.7784601,1.96757517 20.5206074,1.31160201 19.9645951,0.792803356 C19.3572331,0.226165772 18.6035521,-0.0402100671 17.8038589,0.0333604027 C17.1044724,0.0980516779 16.3656994,0.423501342 15.6052086,1.00155503 C15.2755767,0.878152349 13.9034908,0.404655705 12.2667423,0.404655705 C11.1539816,0.404655705 10.1588282,0.626091946 9.30907362,1.06262215 C7.68576074,1.8963604 6.58661963,3.51654161 5.61594479,4.94681678 C5.01428834,5.83419262 4.44576074,6.67209866 3.91717178,7.05372282 C3.59839877,7.28403826 3.20858282,7.51290403 2.79355215,7.75662886 C1.59925767,8.45808523 0.364288344,9.18327987 0.0641042945,10.3790718 C-0.0866319018,10.9803201 0.028398773,11.5938906 0.406619632,12.2029309 C1.20723313,13.4927698 2.46999387,15.0884879 3.93704908,15.3651926 C4.57477914,15.4860584 5.22207975,15.3387362 5.75232515,14.9471456 C6.36668098,14.4934007 7.07416564,14.2728705 7.91545399,14.2728705 C8.55410429,14.2728705 9.28109816,14.4051523 10.0763742,14.6662732 C10.1107914,14.6776893 10.1455767,14.6885617 10.180362,14.6990718 C10.7087669,15.5110651 14.8237362,21.9200315 15.7211595,25.8460852 C15.7434294,25.9432128 15.7671718,26.039253 15.7916503,26.1352933 C15.895454,26.5377564 16.2620798,26.8188101 16.6833681,26.8188101 C16.7591963,26.8188101 16.8353926,26.8093872 16.9106687,26.7907228 C16.9436135,26.7823872 16.9772945,26.771696 17.0117117,26.7582866 C17.054411,26.750857 17.0943497,26.7410718 17.1322638,26.7289309 C24.7432454,24.2706624 29.856865,17.2733134 29.856865,9.3168302 C29.856865,9.10789732 29.8535521,8.89950805 29.8467423,8.69220604" id="Fill-3" fill="#FFFFFF" mask="url(#mask-2)"></path>
                </g>
                <path d="M4.45833129,9.96506577 C4.16863804,9.96506577 3.93139877,10.1767168 3.89146012,10.4510658 C3.81931288,10.542757 3.66397546,10.7025826 3.34888344,10.8966564 C3.09011043,11.055757 3.01170552,11.3909919 3.17330061,11.6455893 C3.27802454,11.810851 3.45784049,11.901455 3.64188957,11.901455 C3.74182822,11.901455 3.84305521,11.874455 3.93397546,11.818643 C4.59986503,11.4089315 4.8558773,11.0282134 4.95360736,10.8145691 C5.00311656,10.7310322 5.03348466,10.6349919 5.03348466,10.5313409 C5.03348466,10.2183946 4.776,9.96506577 4.45833129,9.96506577" id="Fill-6" fill="#FFFFFF"></path>
            </g>
        </g>
    </g>
</svg>